%TF.GenerationSoftware,KiCad,Pcbnew,(6.0.7)*%
%TF.CreationDate,2023-05-28T23:18:47-04:00*%
%TF.ProjectId,microkfd,6d696372-6f6b-4666-942e-6b696361645f,E*%
%TF.SameCoordinates,Original*%
%TF.FileFunction,Legend,Top*%
%TF.FilePolarity,Positive*%
%FSLAX46Y46*%
G04 Gerber Fmt 4.6, Leading zero omitted, Abs format (unit mm)*
G04 Created by KiCad (PCBNEW (6.0.7)) date 2023-05-28 23:18:47*
%MOMM*%
%LPD*%
G01*
G04 APERTURE LIST*
%ADD10C,0.150000*%
%ADD11C,0.250000*%
%ADD12C,0.010000*%
%ADD13C,0.120000*%
G04 APERTURE END LIST*
D10*
X104026071Y-110339285D02*
X104026071Y-109839285D01*
X104026071Y-109982142D02*
X104061785Y-109910714D01*
X104097500Y-109875000D01*
X104168928Y-109839285D01*
X104240357Y-109839285D01*
X104776071Y-110303571D02*
X104704642Y-110339285D01*
X104561785Y-110339285D01*
X104490357Y-110303571D01*
X104454642Y-110232142D01*
X104454642Y-109946428D01*
X104490357Y-109875000D01*
X104561785Y-109839285D01*
X104704642Y-109839285D01*
X104776071Y-109875000D01*
X104811785Y-109946428D01*
X104811785Y-110017857D01*
X104454642Y-110089285D01*
X105061785Y-109839285D02*
X105240357Y-110339285D01*
X105418928Y-109839285D01*
X106276071Y-109946428D02*
X106526071Y-109946428D01*
X106633214Y-110339285D02*
X106276071Y-110339285D01*
X106276071Y-109589285D01*
X106633214Y-109589285D01*
X107526071Y-110053571D02*
X108097500Y-110053571D01*
X109168928Y-109589285D02*
X109240357Y-109589285D01*
X109311785Y-109625000D01*
X109347500Y-109660714D01*
X109383214Y-109732142D01*
X109418928Y-109875000D01*
X109418928Y-110053571D01*
X109383214Y-110196428D01*
X109347500Y-110267857D01*
X109311785Y-110303571D01*
X109240357Y-110339285D01*
X109168928Y-110339285D01*
X109097500Y-110303571D01*
X109061785Y-110267857D01*
X109026071Y-110196428D01*
X108990357Y-110053571D01*
X108990357Y-109875000D01*
X109026071Y-109732142D01*
X109061785Y-109660714D01*
X109097500Y-109625000D01*
X109168928Y-109589285D01*
X110097500Y-109589285D02*
X109740357Y-109589285D01*
X109704642Y-109946428D01*
X109740357Y-109910714D01*
X109811785Y-109875000D01*
X109990357Y-109875000D01*
X110061785Y-109910714D01*
X110097500Y-109946428D01*
X110133214Y-110017857D01*
X110133214Y-110196428D01*
X110097500Y-110267857D01*
X110061785Y-110303571D01*
X109990357Y-110339285D01*
X109811785Y-110339285D01*
X109740357Y-110303571D01*
X109704642Y-110267857D01*
X110990357Y-109553571D02*
X110347500Y-110517857D01*
X111204642Y-109660714D02*
X111240357Y-109625000D01*
X111311785Y-109589285D01*
X111490357Y-109589285D01*
X111561785Y-109625000D01*
X111597500Y-109660714D01*
X111633214Y-109732142D01*
X111633214Y-109803571D01*
X111597500Y-109910714D01*
X111168928Y-110339285D01*
X111633214Y-110339285D01*
X111883214Y-109589285D02*
X112347500Y-109589285D01*
X112097500Y-109875000D01*
X112204642Y-109875000D01*
X112276071Y-109910714D01*
X112311785Y-109946428D01*
X112347500Y-110017857D01*
X112347500Y-110196428D01*
X112311785Y-110267857D01*
X112276071Y-110303571D01*
X112204642Y-110339285D01*
X111990357Y-110339285D01*
X111918928Y-110303571D01*
X111883214Y-110267857D01*
D11*
X104019642Y-108928571D02*
X104019642Y-107428571D01*
X104519642Y-108500000D01*
X105019642Y-107428571D01*
X105019642Y-108928571D01*
X105733928Y-108928571D02*
X105733928Y-107928571D01*
X105733928Y-107428571D02*
X105662500Y-107500000D01*
X105733928Y-107571428D01*
X105805357Y-107500000D01*
X105733928Y-107428571D01*
X105733928Y-107571428D01*
X107091071Y-108857142D02*
X106948214Y-108928571D01*
X106662500Y-108928571D01*
X106519642Y-108857142D01*
X106448214Y-108785714D01*
X106376785Y-108642857D01*
X106376785Y-108214285D01*
X106448214Y-108071428D01*
X106519642Y-108000000D01*
X106662500Y-107928571D01*
X106948214Y-107928571D01*
X107091071Y-108000000D01*
X107733928Y-108928571D02*
X107733928Y-107928571D01*
X107733928Y-108214285D02*
X107805357Y-108071428D01*
X107876785Y-108000000D01*
X108019642Y-107928571D01*
X108162500Y-107928571D01*
X108876785Y-108928571D02*
X108733928Y-108857142D01*
X108662500Y-108785714D01*
X108591071Y-108642857D01*
X108591071Y-108214285D01*
X108662500Y-108071428D01*
X108733928Y-108000000D01*
X108876785Y-107928571D01*
X109091071Y-107928571D01*
X109233928Y-108000000D01*
X109305357Y-108071428D01*
X109376785Y-108214285D01*
X109376785Y-108642857D01*
X109305357Y-108785714D01*
X109233928Y-108857142D01*
X109091071Y-108928571D01*
X108876785Y-108928571D01*
X110019642Y-108928571D02*
X110019642Y-107428571D01*
X110876785Y-108928571D02*
X110233928Y-108071428D01*
X110876785Y-107428571D02*
X110019642Y-108285714D01*
X112019642Y-108142857D02*
X111519642Y-108142857D01*
X111519642Y-108928571D02*
X111519642Y-107428571D01*
X112233928Y-107428571D01*
X112805357Y-108928571D02*
X112805357Y-107428571D01*
X113162500Y-107428571D01*
X113376785Y-107500000D01*
X113519642Y-107642857D01*
X113591071Y-107785714D01*
X113662500Y-108071428D01*
X113662500Y-108285714D01*
X113591071Y-108571428D01*
X113519642Y-108714285D01*
X113376785Y-108857142D01*
X113162500Y-108928571D01*
X112805357Y-108928571D01*
D10*
%TO.C,J1*%
X99547619Y-99666666D02*
X98833333Y-99666666D01*
X98690476Y-99619047D01*
X98595238Y-99523809D01*
X98547619Y-99380952D01*
X98547619Y-99285714D01*
X98547619Y-100666666D02*
X98547619Y-100095238D01*
X98547619Y-100380952D02*
X99547619Y-100380952D01*
X99404761Y-100285714D01*
X99309523Y-100190476D01*
X99261904Y-100095238D01*
%TO.C,TP2*%
X132290355Y-104378807D02*
X132593400Y-104075761D01*
X132972208Y-104757614D02*
X132441877Y-104227284D01*
X133300507Y-104429314D02*
X132770177Y-103898984D01*
X132972208Y-103696954D01*
X133047969Y-103671700D01*
X133098477Y-103671700D01*
X133174238Y-103696954D01*
X133250000Y-103772715D01*
X133275253Y-103848477D01*
X133275253Y-103898984D01*
X133249999Y-103974746D01*
X133047969Y-104176776D01*
X133325761Y-103444416D02*
X133325761Y-103393908D01*
X133351015Y-103318147D01*
X133477284Y-103191877D01*
X133553045Y-103166624D01*
X133603553Y-103166624D01*
X133679314Y-103191877D01*
X133729822Y-103242385D01*
X133780330Y-103343400D01*
X133780330Y-103949492D01*
X134108629Y-103621192D01*
%TO.C,TP1*%
X130790355Y-105866244D02*
X131093400Y-105563198D01*
X131472208Y-106245051D02*
X130941877Y-105714721D01*
X131800507Y-105916751D02*
X131270177Y-105386421D01*
X131472208Y-105184391D01*
X131547969Y-105159137D01*
X131598477Y-105159137D01*
X131674238Y-105184391D01*
X131750000Y-105260152D01*
X131775253Y-105335914D01*
X131775253Y-105386421D01*
X131749999Y-105462183D01*
X131547969Y-105664213D01*
X132608629Y-105108629D02*
X132305583Y-105411675D01*
X132457106Y-105260152D02*
X131926776Y-104729822D01*
X131952030Y-104856091D01*
X131952030Y-104957106D01*
X131926776Y-105032868D01*
%TO.C,R18*%
X141830357Y-110589285D02*
X141580357Y-110232142D01*
X141401785Y-110589285D02*
X141401785Y-109839285D01*
X141687500Y-109839285D01*
X141758928Y-109875000D01*
X141794642Y-109910714D01*
X141830357Y-109982142D01*
X141830357Y-110089285D01*
X141794642Y-110160714D01*
X141758928Y-110196428D01*
X141687500Y-110232142D01*
X141401785Y-110232142D01*
X142544642Y-110589285D02*
X142116071Y-110589285D01*
X142330357Y-110589285D02*
X142330357Y-109839285D01*
X142258928Y-109946428D01*
X142187500Y-110017857D01*
X142116071Y-110053571D01*
X142973214Y-110160714D02*
X142901785Y-110125000D01*
X142866071Y-110089285D01*
X142830357Y-110017857D01*
X142830357Y-109982142D01*
X142866071Y-109910714D01*
X142901785Y-109875000D01*
X142973214Y-109839285D01*
X143116071Y-109839285D01*
X143187500Y-109875000D01*
X143223214Y-109910714D01*
X143258928Y-109982142D01*
X143258928Y-110017857D01*
X143223214Y-110089285D01*
X143187500Y-110125000D01*
X143116071Y-110160714D01*
X142973214Y-110160714D01*
X142901785Y-110196428D01*
X142866071Y-110232142D01*
X142830357Y-110303571D01*
X142830357Y-110446428D01*
X142866071Y-110517857D01*
X142901785Y-110553571D01*
X142973214Y-110589285D01*
X143116071Y-110589285D01*
X143187500Y-110553571D01*
X143223214Y-110517857D01*
X143258928Y-110446428D01*
X143258928Y-110303571D01*
X143223214Y-110232142D01*
X143187500Y-110196428D01*
X143116071Y-110160714D01*
%TO.C,R17*%
X141767857Y-90339285D02*
X141517857Y-89982142D01*
X141339285Y-90339285D02*
X141339285Y-89589285D01*
X141625000Y-89589285D01*
X141696428Y-89625000D01*
X141732142Y-89660714D01*
X141767857Y-89732142D01*
X141767857Y-89839285D01*
X141732142Y-89910714D01*
X141696428Y-89946428D01*
X141625000Y-89982142D01*
X141339285Y-89982142D01*
X142482142Y-90339285D02*
X142053571Y-90339285D01*
X142267857Y-90339285D02*
X142267857Y-89589285D01*
X142196428Y-89696428D01*
X142125000Y-89767857D01*
X142053571Y-89803571D01*
X142732142Y-89589285D02*
X143232142Y-89589285D01*
X142910714Y-90339285D01*
%TO.C,R15*%
X135330357Y-110589285D02*
X135080357Y-110232142D01*
X134901785Y-110589285D02*
X134901785Y-109839285D01*
X135187500Y-109839285D01*
X135258928Y-109875000D01*
X135294642Y-109910714D01*
X135330357Y-109982142D01*
X135330357Y-110089285D01*
X135294642Y-110160714D01*
X135258928Y-110196428D01*
X135187500Y-110232142D01*
X134901785Y-110232142D01*
X136044642Y-110589285D02*
X135616071Y-110589285D01*
X135830357Y-110589285D02*
X135830357Y-109839285D01*
X135758928Y-109946428D01*
X135687500Y-110017857D01*
X135616071Y-110053571D01*
X136723214Y-109839285D02*
X136366071Y-109839285D01*
X136330357Y-110196428D01*
X136366071Y-110160714D01*
X136437500Y-110125000D01*
X136616071Y-110125000D01*
X136687500Y-110160714D01*
X136723214Y-110196428D01*
X136758928Y-110267857D01*
X136758928Y-110446428D01*
X136723214Y-110517857D01*
X136687500Y-110553571D01*
X136616071Y-110589285D01*
X136437500Y-110589285D01*
X136366071Y-110553571D01*
X136330357Y-110517857D01*
%TO.C,R14*%
X135267857Y-90339285D02*
X135017857Y-89982142D01*
X134839285Y-90339285D02*
X134839285Y-89589285D01*
X135125000Y-89589285D01*
X135196428Y-89625000D01*
X135232142Y-89660714D01*
X135267857Y-89732142D01*
X135267857Y-89839285D01*
X135232142Y-89910714D01*
X135196428Y-89946428D01*
X135125000Y-89982142D01*
X134839285Y-89982142D01*
X135982142Y-90339285D02*
X135553571Y-90339285D01*
X135767857Y-90339285D02*
X135767857Y-89589285D01*
X135696428Y-89696428D01*
X135625000Y-89767857D01*
X135553571Y-89803571D01*
X136625000Y-89839285D02*
X136625000Y-90339285D01*
X136446428Y-89553571D02*
X136267857Y-90089285D01*
X136732142Y-90089285D01*
%TO.C,R13*%
X133080357Y-110589285D02*
X132830357Y-110232142D01*
X132651785Y-110589285D02*
X132651785Y-109839285D01*
X132937500Y-109839285D01*
X133008928Y-109875000D01*
X133044642Y-109910714D01*
X133080357Y-109982142D01*
X133080357Y-110089285D01*
X133044642Y-110160714D01*
X133008928Y-110196428D01*
X132937500Y-110232142D01*
X132651785Y-110232142D01*
X133794642Y-110589285D02*
X133366071Y-110589285D01*
X133580357Y-110589285D02*
X133580357Y-109839285D01*
X133508928Y-109946428D01*
X133437500Y-110017857D01*
X133366071Y-110053571D01*
X134044642Y-109839285D02*
X134508928Y-109839285D01*
X134258928Y-110125000D01*
X134366071Y-110125000D01*
X134437500Y-110160714D01*
X134473214Y-110196428D01*
X134508928Y-110267857D01*
X134508928Y-110446428D01*
X134473214Y-110517857D01*
X134437500Y-110553571D01*
X134366071Y-110589285D01*
X134151785Y-110589285D01*
X134080357Y-110553571D01*
X134044642Y-110517857D01*
%TO.C,R12*%
X133017857Y-90339285D02*
X132767857Y-89982142D01*
X132589285Y-90339285D02*
X132589285Y-89589285D01*
X132875000Y-89589285D01*
X132946428Y-89625000D01*
X132982142Y-89660714D01*
X133017857Y-89732142D01*
X133017857Y-89839285D01*
X132982142Y-89910714D01*
X132946428Y-89946428D01*
X132875000Y-89982142D01*
X132589285Y-89982142D01*
X133732142Y-90339285D02*
X133303571Y-90339285D01*
X133517857Y-90339285D02*
X133517857Y-89589285D01*
X133446428Y-89696428D01*
X133375000Y-89767857D01*
X133303571Y-89803571D01*
X134017857Y-89660714D02*
X134053571Y-89625000D01*
X134125000Y-89589285D01*
X134303571Y-89589285D01*
X134375000Y-89625000D01*
X134410714Y-89660714D01*
X134446428Y-89732142D01*
X134446428Y-89803571D01*
X134410714Y-89910714D01*
X133982142Y-90339285D01*
X134446428Y-90339285D01*
%TO.C,R9*%
X130901522Y-108328299D02*
X130472208Y-108252538D01*
X130598477Y-108631345D02*
X130068147Y-108101015D01*
X130270177Y-107898984D01*
X130345938Y-107873730D01*
X130396446Y-107873730D01*
X130472208Y-107898984D01*
X130547969Y-107974746D01*
X130573223Y-108050507D01*
X130573223Y-108101015D01*
X130547969Y-108176776D01*
X130345938Y-108378807D01*
X131154061Y-108075761D02*
X131255076Y-107974746D01*
X131280330Y-107898984D01*
X131280330Y-107848477D01*
X131255076Y-107722208D01*
X131179314Y-107595938D01*
X130977284Y-107393908D01*
X130901522Y-107368654D01*
X130851015Y-107368654D01*
X130775253Y-107393908D01*
X130674238Y-107494923D01*
X130648984Y-107570685D01*
X130648984Y-107621192D01*
X130674238Y-107696954D01*
X130800507Y-107823223D01*
X130876269Y-107848477D01*
X130926776Y-107848477D01*
X131002538Y-107823223D01*
X131103553Y-107722208D01*
X131128807Y-107646446D01*
X131128807Y-107595938D01*
X131103553Y-107520177D01*
%TO.C,R8*%
X129401522Y-109828299D02*
X128972208Y-109752538D01*
X129098477Y-110131345D02*
X128568147Y-109601015D01*
X128770177Y-109398984D01*
X128845938Y-109373730D01*
X128896446Y-109373730D01*
X128972208Y-109398984D01*
X129047969Y-109474746D01*
X129073223Y-109550507D01*
X129073223Y-109601015D01*
X129047969Y-109676776D01*
X128845938Y-109878807D01*
X129401522Y-109222208D02*
X129325761Y-109247461D01*
X129275253Y-109247461D01*
X129199492Y-109222208D01*
X129174238Y-109196954D01*
X129148984Y-109121192D01*
X129148984Y-109070685D01*
X129174238Y-108994923D01*
X129275253Y-108893908D01*
X129351015Y-108868654D01*
X129401522Y-108868654D01*
X129477284Y-108893908D01*
X129502538Y-108919162D01*
X129527791Y-108994923D01*
X129527791Y-109045431D01*
X129502538Y-109121192D01*
X129401522Y-109222208D01*
X129376269Y-109297969D01*
X129376269Y-109348477D01*
X129401522Y-109424238D01*
X129502538Y-109525253D01*
X129578299Y-109550507D01*
X129628807Y-109550507D01*
X129704568Y-109525253D01*
X129805583Y-109424238D01*
X129830837Y-109348477D01*
X129830837Y-109297969D01*
X129805583Y-109222208D01*
X129704568Y-109121192D01*
X129628807Y-109095938D01*
X129578299Y-109095938D01*
X129502538Y-109121192D01*
%TO.C,R7*%
X115187732Y-100297969D02*
X115086717Y-100870389D01*
X115591793Y-100702030D02*
X114884687Y-101409137D01*
X114615312Y-101139763D01*
X114581641Y-101038748D01*
X114581641Y-100971404D01*
X114615312Y-100870389D01*
X114716328Y-100769374D01*
X114817343Y-100735702D01*
X114884687Y-100735702D01*
X114985702Y-100769374D01*
X115255076Y-101038748D01*
X114244923Y-100769374D02*
X113773519Y-100297969D01*
X114783671Y-99893908D01*
%TO.C,R6*%
X113687732Y-98797969D02*
X113586717Y-99370389D01*
X114091793Y-99202030D02*
X113384687Y-99909137D01*
X113115312Y-99639763D01*
X113081641Y-99538748D01*
X113081641Y-99471404D01*
X113115312Y-99370389D01*
X113216328Y-99269374D01*
X113317343Y-99235702D01*
X113384687Y-99235702D01*
X113485702Y-99269374D01*
X113755076Y-99538748D01*
X112374534Y-98898984D02*
X112509221Y-99033671D01*
X112610236Y-99067343D01*
X112677580Y-99067343D01*
X112845938Y-99033671D01*
X113014297Y-98932656D01*
X113283671Y-98663282D01*
X113317343Y-98562267D01*
X113317343Y-98494923D01*
X113283671Y-98393908D01*
X113148984Y-98259221D01*
X113047969Y-98225549D01*
X112980625Y-98225549D01*
X112879610Y-98259221D01*
X112711251Y-98427580D01*
X112677580Y-98528595D01*
X112677580Y-98595938D01*
X112711251Y-98696954D01*
X112845938Y-98831641D01*
X112946954Y-98865312D01*
X113014297Y-98865312D01*
X113115312Y-98831641D01*
%TO.C,R4*%
X100625000Y-90839285D02*
X100375000Y-90482142D01*
X100196428Y-90839285D02*
X100196428Y-90089285D01*
X100482142Y-90089285D01*
X100553571Y-90125000D01*
X100589285Y-90160714D01*
X100625000Y-90232142D01*
X100625000Y-90339285D01*
X100589285Y-90410714D01*
X100553571Y-90446428D01*
X100482142Y-90482142D01*
X100196428Y-90482142D01*
X101267857Y-90339285D02*
X101267857Y-90839285D01*
X101089285Y-90053571D02*
X100910714Y-90589285D01*
X101375000Y-90589285D01*
%TO.C,R3*%
X116401522Y-94328299D02*
X115972208Y-94252538D01*
X116098477Y-94631345D02*
X115568147Y-94101015D01*
X115770177Y-93898984D01*
X115845938Y-93873730D01*
X115896446Y-93873730D01*
X115972208Y-93898984D01*
X116047969Y-93974746D01*
X116073223Y-94050507D01*
X116073223Y-94101015D01*
X116047969Y-94176776D01*
X115845938Y-94378807D01*
X116047969Y-93621192D02*
X116376269Y-93292893D01*
X116401522Y-93671700D01*
X116477284Y-93595938D01*
X116553045Y-93570685D01*
X116603553Y-93570685D01*
X116679314Y-93595938D01*
X116805583Y-93722208D01*
X116830837Y-93797969D01*
X116830837Y-93848477D01*
X116805583Y-93924238D01*
X116654061Y-94075761D01*
X116578299Y-94101015D01*
X116527791Y-94101015D01*
%TO.C,R2*%
X103625000Y-104839285D02*
X103375000Y-104482142D01*
X103196428Y-104839285D02*
X103196428Y-104089285D01*
X103482142Y-104089285D01*
X103553571Y-104125000D01*
X103589285Y-104160714D01*
X103625000Y-104232142D01*
X103625000Y-104339285D01*
X103589285Y-104410714D01*
X103553571Y-104446428D01*
X103482142Y-104482142D01*
X103196428Y-104482142D01*
X103910714Y-104160714D02*
X103946428Y-104125000D01*
X104017857Y-104089285D01*
X104196428Y-104089285D01*
X104267857Y-104125000D01*
X104303571Y-104160714D01*
X104339285Y-104232142D01*
X104339285Y-104303571D01*
X104303571Y-104410714D01*
X103875000Y-104839285D01*
X104339285Y-104839285D01*
%TO.C,R1*%
X103625000Y-95839285D02*
X103375000Y-95482142D01*
X103196428Y-95839285D02*
X103196428Y-95089285D01*
X103482142Y-95089285D01*
X103553571Y-95125000D01*
X103589285Y-95160714D01*
X103625000Y-95232142D01*
X103625000Y-95339285D01*
X103589285Y-95410714D01*
X103553571Y-95446428D01*
X103482142Y-95482142D01*
X103196428Y-95482142D01*
X104339285Y-95839285D02*
X103910714Y-95839285D01*
X104125000Y-95839285D02*
X104125000Y-95089285D01*
X104053571Y-95196428D01*
X103982142Y-95267857D01*
X103910714Y-95303571D01*
%TO.C,D5*%
X143946428Y-110589285D02*
X143946428Y-109839285D01*
X144125000Y-109839285D01*
X144232142Y-109875000D01*
X144303571Y-109946428D01*
X144339285Y-110017857D01*
X144375000Y-110160714D01*
X144375000Y-110267857D01*
X144339285Y-110410714D01*
X144303571Y-110482142D01*
X144232142Y-110553571D01*
X144125000Y-110589285D01*
X143946428Y-110589285D01*
X145053571Y-109839285D02*
X144696428Y-109839285D01*
X144660714Y-110196428D01*
X144696428Y-110160714D01*
X144767857Y-110125000D01*
X144946428Y-110125000D01*
X145017857Y-110160714D01*
X145053571Y-110196428D01*
X145089285Y-110267857D01*
X145089285Y-110446428D01*
X145053571Y-110517857D01*
X145017857Y-110553571D01*
X144946428Y-110589285D01*
X144767857Y-110589285D01*
X144696428Y-110553571D01*
X144660714Y-110517857D01*
%TO.C,D3*%
X97946428Y-90839285D02*
X97946428Y-90089285D01*
X98125000Y-90089285D01*
X98232142Y-90125000D01*
X98303571Y-90196428D01*
X98339285Y-90267857D01*
X98375000Y-90410714D01*
X98375000Y-90517857D01*
X98339285Y-90660714D01*
X98303571Y-90732142D01*
X98232142Y-90803571D01*
X98125000Y-90839285D01*
X97946428Y-90839285D01*
X98625000Y-90089285D02*
X99089285Y-90089285D01*
X98839285Y-90375000D01*
X98946428Y-90375000D01*
X99017857Y-90410714D01*
X99053571Y-90446428D01*
X99089285Y-90517857D01*
X99089285Y-90696428D01*
X99053571Y-90767857D01*
X99017857Y-90803571D01*
X98946428Y-90839285D01*
X98732142Y-90839285D01*
X98660714Y-90803571D01*
X98625000Y-90767857D01*
%TO.C,D2*%
X146196428Y-90339285D02*
X146196428Y-89589285D01*
X146375000Y-89589285D01*
X146482142Y-89625000D01*
X146553571Y-89696428D01*
X146589285Y-89767857D01*
X146625000Y-89910714D01*
X146625000Y-90017857D01*
X146589285Y-90160714D01*
X146553571Y-90232142D01*
X146482142Y-90303571D01*
X146375000Y-90339285D01*
X146196428Y-90339285D01*
X146910714Y-89660714D02*
X146946428Y-89625000D01*
X147017857Y-89589285D01*
X147196428Y-89589285D01*
X147267857Y-89625000D01*
X147303571Y-89660714D01*
X147339285Y-89732142D01*
X147339285Y-89803571D01*
X147303571Y-89910714D01*
X146875000Y-90339285D01*
X147339285Y-90339285D01*
%TO.C,D1*%
X145946428Y-110589285D02*
X145946428Y-109839285D01*
X146125000Y-109839285D01*
X146232142Y-109875000D01*
X146303571Y-109946428D01*
X146339285Y-110017857D01*
X146375000Y-110160714D01*
X146375000Y-110267857D01*
X146339285Y-110410714D01*
X146303571Y-110482142D01*
X146232142Y-110553571D01*
X146125000Y-110589285D01*
X145946428Y-110589285D01*
X147089285Y-110589285D02*
X146660714Y-110589285D01*
X146875000Y-110589285D02*
X146875000Y-109839285D01*
X146803571Y-109946428D01*
X146732142Y-110017857D01*
X146660714Y-110053571D01*
%TO.C,C8*%
X114260024Y-104666751D02*
X114310532Y-104666751D01*
X114411547Y-104717259D01*
X114462055Y-104767766D01*
X114512563Y-104868782D01*
X114512563Y-104969797D01*
X114487309Y-105045558D01*
X114411547Y-105171828D01*
X114335786Y-105247589D01*
X114209517Y-105323350D01*
X114133755Y-105348604D01*
X114032740Y-105348604D01*
X113931725Y-105298097D01*
X113881217Y-105247589D01*
X113830710Y-105146574D01*
X113830710Y-105096066D01*
X113704441Y-104616244D02*
X113729694Y-104692005D01*
X113729694Y-104742513D01*
X113704441Y-104818274D01*
X113679187Y-104843528D01*
X113603425Y-104868782D01*
X113552918Y-104868782D01*
X113477156Y-104843528D01*
X113376141Y-104742513D01*
X113350887Y-104666751D01*
X113350887Y-104616244D01*
X113376141Y-104540482D01*
X113401395Y-104515228D01*
X113477156Y-104489975D01*
X113527664Y-104489975D01*
X113603425Y-104515228D01*
X113704441Y-104616244D01*
X113780202Y-104641497D01*
X113830710Y-104641497D01*
X113906471Y-104616244D01*
X114007486Y-104515228D01*
X114032740Y-104439467D01*
X114032740Y-104388959D01*
X114007486Y-104313198D01*
X113906471Y-104212183D01*
X113830710Y-104186929D01*
X113780202Y-104186929D01*
X113704441Y-104212183D01*
X113603425Y-104313198D01*
X113578171Y-104388959D01*
X113578171Y-104439467D01*
X113603425Y-104515228D01*
%TO.C,C7*%
X120010024Y-110416751D02*
X120060532Y-110416751D01*
X120161547Y-110467259D01*
X120212055Y-110517766D01*
X120262563Y-110618782D01*
X120262563Y-110719797D01*
X120237309Y-110795558D01*
X120161547Y-110921828D01*
X120085786Y-110997589D01*
X119959517Y-111073350D01*
X119883755Y-111098604D01*
X119782740Y-111098604D01*
X119681725Y-111048097D01*
X119631217Y-110997589D01*
X119580710Y-110896574D01*
X119580710Y-110846066D01*
X119353425Y-110719797D02*
X118999872Y-110366244D01*
X119757486Y-110063198D01*
%TO.C,C6*%
X105125000Y-90767857D02*
X105089285Y-90803571D01*
X104982142Y-90839285D01*
X104910714Y-90839285D01*
X104803571Y-90803571D01*
X104732142Y-90732142D01*
X104696428Y-90660714D01*
X104660714Y-90517857D01*
X104660714Y-90410714D01*
X104696428Y-90267857D01*
X104732142Y-90196428D01*
X104803571Y-90125000D01*
X104910714Y-90089285D01*
X104982142Y-90089285D01*
X105089285Y-90125000D01*
X105125000Y-90160714D01*
X105767857Y-90089285D02*
X105625000Y-90089285D01*
X105553571Y-90125000D01*
X105517857Y-90160714D01*
X105446428Y-90267857D01*
X105410714Y-90410714D01*
X105410714Y-90696428D01*
X105446428Y-90767857D01*
X105482142Y-90803571D01*
X105553571Y-90839285D01*
X105696428Y-90839285D01*
X105767857Y-90803571D01*
X105803571Y-90767857D01*
X105839285Y-90696428D01*
X105839285Y-90517857D01*
X105803571Y-90446428D01*
X105767857Y-90410714D01*
X105696428Y-90375000D01*
X105553571Y-90375000D01*
X105482142Y-90410714D01*
X105446428Y-90446428D01*
X105410714Y-90517857D01*
%TO.C,C5*%
X131058328Y-95177373D02*
X131125671Y-95177373D01*
X131260358Y-95244717D01*
X131327702Y-95312061D01*
X131395045Y-95446748D01*
X131395045Y-95581435D01*
X131361374Y-95682450D01*
X131260358Y-95850809D01*
X131159343Y-95951824D01*
X130990984Y-96052839D01*
X130889969Y-96086511D01*
X130755282Y-96086511D01*
X130620595Y-96019167D01*
X130553251Y-95951824D01*
X130485908Y-95817137D01*
X130485908Y-95749793D01*
X129778801Y-95177373D02*
X130115519Y-95514091D01*
X130485908Y-95211045D01*
X130418564Y-95211045D01*
X130317549Y-95177373D01*
X130149190Y-95009015D01*
X130115519Y-94907999D01*
X130115519Y-94840656D01*
X130149190Y-94739641D01*
X130317549Y-94571282D01*
X130418564Y-94537610D01*
X130485908Y-94537610D01*
X130586923Y-94571282D01*
X130755282Y-94739641D01*
X130788954Y-94840656D01*
X130788954Y-94907999D01*
%TO.C,C4*%
X117851015Y-92777791D02*
X117851015Y-92828299D01*
X117800507Y-92929314D01*
X117750000Y-92979822D01*
X117648984Y-93030330D01*
X117547969Y-93030330D01*
X117472208Y-93005076D01*
X117345938Y-92929314D01*
X117270177Y-92853553D01*
X117194416Y-92727284D01*
X117169162Y-92651522D01*
X117169162Y-92550507D01*
X117219669Y-92449492D01*
X117270177Y-92398984D01*
X117371192Y-92348477D01*
X117421700Y-92348477D01*
X118002538Y-92020177D02*
X118356091Y-92373730D01*
X117674238Y-91944416D02*
X117926776Y-92449492D01*
X118255076Y-92121192D01*
%TO.C,C3*%
X111607142Y-106166666D02*
X111654761Y-106214285D01*
X111702380Y-106357142D01*
X111702380Y-106452380D01*
X111654761Y-106595238D01*
X111559523Y-106690476D01*
X111464285Y-106738095D01*
X111273809Y-106785714D01*
X111130952Y-106785714D01*
X110940476Y-106738095D01*
X110845238Y-106690476D01*
X110750000Y-106595238D01*
X110702380Y-106452380D01*
X110702380Y-106357142D01*
X110750000Y-106214285D01*
X110797619Y-106166666D01*
X110702380Y-105833333D02*
X110702380Y-105214285D01*
X111083333Y-105547619D01*
X111083333Y-105404761D01*
X111130952Y-105309523D01*
X111178571Y-105261904D01*
X111273809Y-105214285D01*
X111511904Y-105214285D01*
X111607142Y-105261904D01*
X111654761Y-105309523D01*
X111702380Y-105404761D01*
X111702380Y-105690476D01*
X111654761Y-105785714D01*
X111607142Y-105833333D01*
%TO.C,C2*%
X102875000Y-90767857D02*
X102839285Y-90803571D01*
X102732142Y-90839285D01*
X102660714Y-90839285D01*
X102553571Y-90803571D01*
X102482142Y-90732142D01*
X102446428Y-90660714D01*
X102410714Y-90517857D01*
X102410714Y-90410714D01*
X102446428Y-90267857D01*
X102482142Y-90196428D01*
X102553571Y-90125000D01*
X102660714Y-90089285D01*
X102732142Y-90089285D01*
X102839285Y-90125000D01*
X102875000Y-90160714D01*
X103160714Y-90160714D02*
X103196428Y-90125000D01*
X103267857Y-90089285D01*
X103446428Y-90089285D01*
X103517857Y-90125000D01*
X103553571Y-90160714D01*
X103589285Y-90232142D01*
X103589285Y-90303571D01*
X103553571Y-90410714D01*
X103125000Y-90839285D01*
X103589285Y-90839285D01*
%TO.C,C1*%
X107375000Y-90767857D02*
X107339285Y-90803571D01*
X107232142Y-90839285D01*
X107160714Y-90839285D01*
X107053571Y-90803571D01*
X106982142Y-90732142D01*
X106946428Y-90660714D01*
X106910714Y-90517857D01*
X106910714Y-90410714D01*
X106946428Y-90267857D01*
X106982142Y-90196428D01*
X107053571Y-90125000D01*
X107160714Y-90089285D01*
X107232142Y-90089285D01*
X107339285Y-90125000D01*
X107375000Y-90160714D01*
X108089285Y-90839285D02*
X107660714Y-90839285D01*
X107875000Y-90839285D02*
X107875000Y-90089285D01*
X107803571Y-90196428D01*
X107732142Y-90267857D01*
X107660714Y-90303571D01*
%TO.C,Q2*%
X138991071Y-110410714D02*
X138919642Y-110375000D01*
X138848214Y-110303571D01*
X138741071Y-110196428D01*
X138669642Y-110160714D01*
X138598214Y-110160714D01*
X138633928Y-110339285D02*
X138562500Y-110303571D01*
X138491071Y-110232142D01*
X138455357Y-110089285D01*
X138455357Y-109839285D01*
X138491071Y-109696428D01*
X138562500Y-109625000D01*
X138633928Y-109589285D01*
X138776785Y-109589285D01*
X138848214Y-109625000D01*
X138919642Y-109696428D01*
X138955357Y-109839285D01*
X138955357Y-110089285D01*
X138919642Y-110232142D01*
X138848214Y-110303571D01*
X138776785Y-110339285D01*
X138633928Y-110339285D01*
X139241071Y-109660714D02*
X139276785Y-109625000D01*
X139348214Y-109589285D01*
X139526785Y-109589285D01*
X139598214Y-109625000D01*
X139633928Y-109660714D01*
X139669642Y-109732142D01*
X139669642Y-109803571D01*
X139633928Y-109910714D01*
X139205357Y-110339285D01*
X139669642Y-110339285D01*
%TO.C,U1*%
X107988095Y-99452380D02*
X107988095Y-100261904D01*
X108035714Y-100357142D01*
X108083333Y-100404761D01*
X108178571Y-100452380D01*
X108369047Y-100452380D01*
X108464285Y-100404761D01*
X108511904Y-100357142D01*
X108559523Y-100261904D01*
X108559523Y-99452380D01*
X109559523Y-100452380D02*
X108988095Y-100452380D01*
X109273809Y-100452380D02*
X109273809Y-99452380D01*
X109178571Y-99595238D01*
X109083333Y-99690476D01*
X108988095Y-99738095D01*
%TO.C,TP4*%
X139589285Y-105446428D02*
X139589285Y-105017857D01*
X140339285Y-105232142D02*
X139589285Y-105232142D01*
X140339285Y-104767857D02*
X139589285Y-104767857D01*
X139589285Y-104482142D01*
X139625000Y-104410714D01*
X139660714Y-104375000D01*
X139732142Y-104339285D01*
X139839285Y-104339285D01*
X139910714Y-104375000D01*
X139946428Y-104410714D01*
X139982142Y-104482142D01*
X139982142Y-104767857D01*
X139839285Y-103696428D02*
X140339285Y-103696428D01*
X139553571Y-103875000D02*
X140089285Y-104053571D01*
X140089285Y-103589285D01*
%TO.C,U2*%
X123074026Y-100651522D02*
X123646446Y-101223942D01*
X123747461Y-101257614D01*
X123814805Y-101257614D01*
X123915820Y-101223942D01*
X124050507Y-101089255D01*
X124084179Y-100988240D01*
X124084179Y-100920896D01*
X124050507Y-100819881D01*
X123478087Y-100247461D01*
X123848477Y-100011759D02*
X123848477Y-99944416D01*
X123882148Y-99843400D01*
X124050507Y-99675042D01*
X124151522Y-99641370D01*
X124218866Y-99641370D01*
X124319881Y-99675042D01*
X124387225Y-99742385D01*
X124454568Y-99877072D01*
X124454568Y-100685194D01*
X124892301Y-100247461D01*
%TO.C,TP3*%
X140839285Y-96446428D02*
X140839285Y-96017857D01*
X141589285Y-96232142D02*
X140839285Y-96232142D01*
X141589285Y-95767857D02*
X140839285Y-95767857D01*
X140839285Y-95482142D01*
X140875000Y-95410714D01*
X140910714Y-95375000D01*
X140982142Y-95339285D01*
X141089285Y-95339285D01*
X141160714Y-95375000D01*
X141196428Y-95410714D01*
X141232142Y-95482142D01*
X141232142Y-95767857D01*
X140839285Y-95089285D02*
X140839285Y-94625000D01*
X141125000Y-94875000D01*
X141125000Y-94767857D01*
X141160714Y-94696428D01*
X141196428Y-94660714D01*
X141267857Y-94625000D01*
X141446428Y-94625000D01*
X141517857Y-94660714D01*
X141553571Y-94696428D01*
X141589285Y-94767857D01*
X141589285Y-94982142D01*
X141553571Y-95053571D01*
X141517857Y-95089285D01*
%TO.C,JP1*%
X110625000Y-91339285D02*
X110625000Y-91875000D01*
X110589285Y-91982142D01*
X110517857Y-92053571D01*
X110410714Y-92089285D01*
X110339285Y-92089285D01*
X110982142Y-92089285D02*
X110982142Y-91339285D01*
X111267857Y-91339285D01*
X111339285Y-91375000D01*
X111375000Y-91410714D01*
X111410714Y-91482142D01*
X111410714Y-91589285D01*
X111375000Y-91660714D01*
X111339285Y-91696428D01*
X111267857Y-91732142D01*
X110982142Y-91732142D01*
X112125000Y-92089285D02*
X111696428Y-92089285D01*
X111910714Y-92089285D02*
X111910714Y-91339285D01*
X111839285Y-91446428D01*
X111767857Y-91517857D01*
X111696428Y-91553571D01*
%TO.C,D4*%
X143946428Y-90089285D02*
X143946428Y-89339285D01*
X144125000Y-89339285D01*
X144232142Y-89375000D01*
X144303571Y-89446428D01*
X144339285Y-89517857D01*
X144375000Y-89660714D01*
X144375000Y-89767857D01*
X144339285Y-89910714D01*
X144303571Y-89982142D01*
X144232142Y-90053571D01*
X144125000Y-90089285D01*
X143946428Y-90089285D01*
X145017857Y-89589285D02*
X145017857Y-90089285D01*
X144839285Y-89303571D02*
X144660714Y-89839285D01*
X145125000Y-89839285D01*
%TO.C,Q1*%
X138928571Y-90410714D02*
X138857142Y-90375000D01*
X138785714Y-90303571D01*
X138678571Y-90196428D01*
X138607142Y-90160714D01*
X138535714Y-90160714D01*
X138571428Y-90339285D02*
X138500000Y-90303571D01*
X138428571Y-90232142D01*
X138392857Y-90089285D01*
X138392857Y-89839285D01*
X138428571Y-89696428D01*
X138500000Y-89625000D01*
X138571428Y-89589285D01*
X138714285Y-89589285D01*
X138785714Y-89625000D01*
X138857142Y-89696428D01*
X138892857Y-89839285D01*
X138892857Y-90089285D01*
X138857142Y-90232142D01*
X138785714Y-90303571D01*
X138714285Y-90339285D01*
X138571428Y-90339285D01*
X139607142Y-90339285D02*
X139178571Y-90339285D01*
X139392857Y-90339285D02*
X139392857Y-89589285D01*
X139321428Y-89696428D01*
X139250000Y-89767857D01*
X139178571Y-89803571D01*
%TO.C,G\u002A\u002A\u002A*%
G36*
X103596703Y-106464575D02*
G01*
X103592746Y-106487989D01*
X103586167Y-106525695D01*
X103577136Y-106576767D01*
X103565820Y-106640284D01*
X103552387Y-106715319D01*
X103537006Y-106800950D01*
X103519846Y-106896253D01*
X103501073Y-107000302D01*
X103480858Y-107112175D01*
X103459366Y-107230947D01*
X103436768Y-107355695D01*
X103413231Y-107485494D01*
X103388924Y-107619419D01*
X103364014Y-107756548D01*
X103338670Y-107895957D01*
X103313061Y-108036720D01*
X103287353Y-108177914D01*
X103261716Y-108318616D01*
X103236319Y-108457900D01*
X103211328Y-108594844D01*
X103186912Y-108728522D01*
X103163240Y-108858012D01*
X103140480Y-108982388D01*
X103118800Y-109100728D01*
X103098368Y-109212106D01*
X103079353Y-109315599D01*
X103061922Y-109410283D01*
X103046244Y-109495234D01*
X103032487Y-109569527D01*
X103020820Y-109632240D01*
X103011411Y-109682447D01*
X103004427Y-109719225D01*
X103000037Y-109741649D01*
X102998432Y-109748811D01*
X102990109Y-109751007D01*
X102966602Y-109756565D01*
X102928748Y-109765297D01*
X102877384Y-109777015D01*
X102813345Y-109791530D01*
X102737469Y-109808657D01*
X102650591Y-109828206D01*
X102553548Y-109849990D01*
X102447177Y-109873821D01*
X102332313Y-109899512D01*
X102209793Y-109926874D01*
X102080455Y-109955720D01*
X101945133Y-109985863D01*
X101804664Y-110017114D01*
X101666721Y-110047767D01*
X101521912Y-110079928D01*
X101381321Y-110111154D01*
X101245794Y-110141256D01*
X101116177Y-110170047D01*
X100993318Y-110197337D01*
X100878062Y-110222940D01*
X100771257Y-110246666D01*
X100673749Y-110268329D01*
X100586385Y-110287739D01*
X100510011Y-110304709D01*
X100445474Y-110319051D01*
X100393620Y-110330576D01*
X100355296Y-110339097D01*
X100331349Y-110344425D01*
X100322707Y-110346354D01*
X100317961Y-110346140D01*
X100326818Y-110340919D01*
X100330911Y-110339021D01*
X100341899Y-110334737D01*
X100367254Y-110325247D01*
X100405918Y-110310939D01*
X100456832Y-110292199D01*
X100518937Y-110269415D01*
X100591175Y-110242975D01*
X100672487Y-110213264D01*
X100761814Y-110180672D01*
X100858099Y-110145583D01*
X100960282Y-110108387D01*
X101067305Y-110069470D01*
X101151778Y-110038780D01*
X101948033Y-109749607D01*
X102771856Y-108101896D01*
X102849064Y-107947502D01*
X102924333Y-107797043D01*
X102997333Y-107651175D01*
X103067737Y-107510550D01*
X103135215Y-107375825D01*
X103199440Y-107247653D01*
X103260082Y-107126690D01*
X103316813Y-107013589D01*
X103369304Y-106909006D01*
X103417227Y-106813595D01*
X103460252Y-106728011D01*
X103498053Y-106652908D01*
X103530299Y-106588942D01*
X103556662Y-106536766D01*
X103576813Y-106497035D01*
X103590425Y-106470404D01*
X103597168Y-106457528D01*
X103597871Y-106456377D01*
X103596703Y-106464575D01*
G37*
D12*
X103596703Y-106464575D02*
X103592746Y-106487989D01*
X103586167Y-106525695D01*
X103577136Y-106576767D01*
X103565820Y-106640284D01*
X103552387Y-106715319D01*
X103537006Y-106800950D01*
X103519846Y-106896253D01*
X103501073Y-107000302D01*
X103480858Y-107112175D01*
X103459366Y-107230947D01*
X103436768Y-107355695D01*
X103413231Y-107485494D01*
X103388924Y-107619419D01*
X103364014Y-107756548D01*
X103338670Y-107895957D01*
X103313061Y-108036720D01*
X103287353Y-108177914D01*
X103261716Y-108318616D01*
X103236319Y-108457900D01*
X103211328Y-108594844D01*
X103186912Y-108728522D01*
X103163240Y-108858012D01*
X103140480Y-108982388D01*
X103118800Y-109100728D01*
X103098368Y-109212106D01*
X103079353Y-109315599D01*
X103061922Y-109410283D01*
X103046244Y-109495234D01*
X103032487Y-109569527D01*
X103020820Y-109632240D01*
X103011411Y-109682447D01*
X103004427Y-109719225D01*
X103000037Y-109741649D01*
X102998432Y-109748811D01*
X102990109Y-109751007D01*
X102966602Y-109756565D01*
X102928748Y-109765297D01*
X102877384Y-109777015D01*
X102813345Y-109791530D01*
X102737469Y-109808657D01*
X102650591Y-109828206D01*
X102553548Y-109849990D01*
X102447177Y-109873821D01*
X102332313Y-109899512D01*
X102209793Y-109926874D01*
X102080455Y-109955720D01*
X101945133Y-109985863D01*
X101804664Y-110017114D01*
X101666721Y-110047767D01*
X101521912Y-110079928D01*
X101381321Y-110111154D01*
X101245794Y-110141256D01*
X101116177Y-110170047D01*
X100993318Y-110197337D01*
X100878062Y-110222940D01*
X100771257Y-110246666D01*
X100673749Y-110268329D01*
X100586385Y-110287739D01*
X100510011Y-110304709D01*
X100445474Y-110319051D01*
X100393620Y-110330576D01*
X100355296Y-110339097D01*
X100331349Y-110344425D01*
X100322707Y-110346354D01*
X100317961Y-110346140D01*
X100326818Y-110340919D01*
X100330911Y-110339021D01*
X100341899Y-110334737D01*
X100367254Y-110325247D01*
X100405918Y-110310939D01*
X100456832Y-110292199D01*
X100518937Y-110269415D01*
X100591175Y-110242975D01*
X100672487Y-110213264D01*
X100761814Y-110180672D01*
X100858099Y-110145583D01*
X100960282Y-110108387D01*
X101067305Y-110069470D01*
X101151778Y-110038780D01*
X101948033Y-109749607D01*
X102771856Y-108101896D01*
X102849064Y-107947502D01*
X102924333Y-107797043D01*
X102997333Y-107651175D01*
X103067737Y-107510550D01*
X103135215Y-107375825D01*
X103199440Y-107247653D01*
X103260082Y-107126690D01*
X103316813Y-107013589D01*
X103369304Y-106909006D01*
X103417227Y-106813595D01*
X103460252Y-106728011D01*
X103498053Y-106652908D01*
X103530299Y-106588942D01*
X103556662Y-106536766D01*
X103576813Y-106497035D01*
X103590425Y-106470404D01*
X103597168Y-106457528D01*
X103597871Y-106456377D01*
X103596703Y-106464575D01*
G36*
X103291273Y-106464170D02*
G01*
X103280945Y-106485672D01*
X103263950Y-106520462D01*
X103240629Y-106567853D01*
X103211327Y-106627154D01*
X103176385Y-106697676D01*
X103136148Y-106778730D01*
X103090957Y-106869627D01*
X103041157Y-106969677D01*
X102987090Y-107078191D01*
X102929099Y-107194480D01*
X102867527Y-107317854D01*
X102802718Y-107447624D01*
X102735014Y-107583101D01*
X102664758Y-107723595D01*
X102592293Y-107868416D01*
X102548547Y-107955803D01*
X101799451Y-109451906D01*
X100753424Y-109900823D01*
X100629093Y-109954177D01*
X100508945Y-110005727D01*
X100393837Y-110055107D01*
X100284628Y-110101947D01*
X100182179Y-110145880D01*
X100087347Y-110186536D01*
X100000992Y-110223549D01*
X99923974Y-110256550D01*
X99857150Y-110285171D01*
X99801381Y-110309043D01*
X99757525Y-110327798D01*
X99726441Y-110341069D01*
X99708989Y-110348486D01*
X99705346Y-110349999D01*
X99703295Y-110344223D01*
X99703294Y-110344077D01*
X99705837Y-110335638D01*
X99713246Y-110312616D01*
X99725199Y-110275990D01*
X99741371Y-110226742D01*
X99761437Y-110165853D01*
X99785073Y-110094304D01*
X99811954Y-110013076D01*
X99841755Y-109923150D01*
X99874153Y-109825507D01*
X99908823Y-109721128D01*
X99945439Y-109610994D01*
X99983679Y-109496085D01*
X100001132Y-109443673D01*
X100298970Y-108549451D01*
X101795253Y-107501522D01*
X101936078Y-107402918D01*
X102073339Y-107306853D01*
X102206433Y-107213751D01*
X102334754Y-107124031D01*
X102457699Y-107038114D01*
X102574663Y-106956423D01*
X102685043Y-106879377D01*
X102788233Y-106807398D01*
X102883629Y-106740907D01*
X102970629Y-106680326D01*
X103048626Y-106626074D01*
X103117017Y-106578574D01*
X103175198Y-106538247D01*
X103222564Y-106505512D01*
X103258511Y-106480793D01*
X103282436Y-106464509D01*
X103293733Y-106457081D01*
X103294589Y-106456648D01*
X103291273Y-106464170D01*
G37*
X103291273Y-106464170D02*
X103280945Y-106485672D01*
X103263950Y-106520462D01*
X103240629Y-106567853D01*
X103211327Y-106627154D01*
X103176385Y-106697676D01*
X103136148Y-106778730D01*
X103090957Y-106869627D01*
X103041157Y-106969677D01*
X102987090Y-107078191D01*
X102929099Y-107194480D01*
X102867527Y-107317854D01*
X102802718Y-107447624D01*
X102735014Y-107583101D01*
X102664758Y-107723595D01*
X102592293Y-107868416D01*
X102548547Y-107955803D01*
X101799451Y-109451906D01*
X100753424Y-109900823D01*
X100629093Y-109954177D01*
X100508945Y-110005727D01*
X100393837Y-110055107D01*
X100284628Y-110101947D01*
X100182179Y-110145880D01*
X100087347Y-110186536D01*
X100000992Y-110223549D01*
X99923974Y-110256550D01*
X99857150Y-110285171D01*
X99801381Y-110309043D01*
X99757525Y-110327798D01*
X99726441Y-110341069D01*
X99708989Y-110348486D01*
X99705346Y-110349999D01*
X99703295Y-110344223D01*
X99703294Y-110344077D01*
X99705837Y-110335638D01*
X99713246Y-110312616D01*
X99725199Y-110275990D01*
X99741371Y-110226742D01*
X99761437Y-110165853D01*
X99785073Y-110094304D01*
X99811954Y-110013076D01*
X99841755Y-109923150D01*
X99874153Y-109825507D01*
X99908823Y-109721128D01*
X99945439Y-109610994D01*
X99983679Y-109496085D01*
X100001132Y-109443673D01*
X100298970Y-108549451D01*
X101795253Y-107501522D01*
X101936078Y-107402918D01*
X102073339Y-107306853D01*
X102206433Y-107213751D01*
X102334754Y-107124031D01*
X102457699Y-107038114D01*
X102574663Y-106956423D01*
X102685043Y-106879377D01*
X102788233Y-106807398D01*
X102883629Y-106740907D01*
X102970629Y-106680326D01*
X103048626Y-106626074D01*
X103117017Y-106578574D01*
X103175198Y-106538247D01*
X103222564Y-106505512D01*
X103258511Y-106480793D01*
X103282436Y-106464509D01*
X103293733Y-106457081D01*
X103294589Y-106456648D01*
X103291273Y-106464170D01*
G36*
X103288764Y-106158484D02*
G01*
X103287361Y-106159953D01*
X103279450Y-106165448D01*
X103258570Y-106179781D01*
X103225313Y-106202548D01*
X103180269Y-106233347D01*
X103124028Y-106271775D01*
X103057181Y-106317428D01*
X102980318Y-106369904D01*
X102894031Y-106428800D01*
X102798909Y-106493713D01*
X102695544Y-106564239D01*
X102584525Y-106639976D01*
X102466444Y-106720521D01*
X102341890Y-106805471D01*
X102211455Y-106894422D01*
X102075730Y-106986972D01*
X101935304Y-107082719D01*
X101790768Y-107181258D01*
X101642713Y-107282187D01*
X101637232Y-107285923D01*
X100000549Y-108401595D01*
X99704705Y-109361569D01*
X99667351Y-109482701D01*
X99631353Y-109599281D01*
X99597004Y-109710372D01*
X99564595Y-109815035D01*
X99534420Y-109912333D01*
X99506769Y-110001328D01*
X99481935Y-110081081D01*
X99460210Y-110150654D01*
X99441885Y-110209110D01*
X99427254Y-110255510D01*
X99416607Y-110288917D01*
X99410238Y-110308392D01*
X99408403Y-110313275D01*
X99409925Y-110304320D01*
X99414482Y-110280288D01*
X99421879Y-110242149D01*
X99431924Y-110190873D01*
X99444421Y-110127430D01*
X99459176Y-110052791D01*
X99475995Y-109967925D01*
X99494684Y-109873803D01*
X99515048Y-109771395D01*
X99536894Y-109661671D01*
X99560027Y-109545602D01*
X99584253Y-109424157D01*
X99609378Y-109298307D01*
X99635207Y-109169021D01*
X99661547Y-109037271D01*
X99688202Y-108904025D01*
X99714980Y-108770256D01*
X99741685Y-108636931D01*
X99768124Y-108505022D01*
X99794101Y-108375500D01*
X99819424Y-108249333D01*
X99843898Y-108127492D01*
X99867328Y-108010948D01*
X99889521Y-107900670D01*
X99910282Y-107797629D01*
X99929417Y-107702795D01*
X99946732Y-107617138D01*
X99962032Y-107541629D01*
X99975123Y-107477236D01*
X99985812Y-107424931D01*
X99993904Y-107385684D01*
X99999204Y-107360465D01*
X100001519Y-107350244D01*
X100001589Y-107350068D01*
X100009405Y-107347068D01*
X100031773Y-107338779D01*
X100067824Y-107325518D01*
X100116687Y-107307602D01*
X100177494Y-107285346D01*
X100249375Y-107259067D01*
X100331462Y-107229083D01*
X100422883Y-107195708D01*
X100522771Y-107159261D01*
X100630256Y-107120057D01*
X100744468Y-107078414D01*
X100864538Y-107034646D01*
X100989597Y-106989072D01*
X101118775Y-106942007D01*
X101251203Y-106893768D01*
X101386012Y-106844671D01*
X101522331Y-106795034D01*
X101659293Y-106745172D01*
X101796027Y-106695402D01*
X101931663Y-106646041D01*
X102065334Y-106597405D01*
X102196168Y-106549811D01*
X102323298Y-106503574D01*
X102445853Y-106459013D01*
X102562964Y-106416442D01*
X102673762Y-106376179D01*
X102777377Y-106338541D01*
X102872941Y-106303843D01*
X102959582Y-106272402D01*
X103036433Y-106244535D01*
X103102624Y-106220558D01*
X103157286Y-106200788D01*
X103199548Y-106185542D01*
X103228542Y-106175135D01*
X103239276Y-106171322D01*
X103265771Y-106162604D01*
X103283150Y-106158116D01*
X103288764Y-106158484D01*
G37*
X103288764Y-106158484D02*
X103287361Y-106159953D01*
X103279450Y-106165448D01*
X103258570Y-106179781D01*
X103225313Y-106202548D01*
X103180269Y-106233347D01*
X103124028Y-106271775D01*
X103057181Y-106317428D01*
X102980318Y-106369904D01*
X102894031Y-106428800D01*
X102798909Y-106493713D01*
X102695544Y-106564239D01*
X102584525Y-106639976D01*
X102466444Y-106720521D01*
X102341890Y-106805471D01*
X102211455Y-106894422D01*
X102075730Y-106986972D01*
X101935304Y-107082719D01*
X101790768Y-107181258D01*
X101642713Y-107282187D01*
X101637232Y-107285923D01*
X100000549Y-108401595D01*
X99704705Y-109361569D01*
X99667351Y-109482701D01*
X99631353Y-109599281D01*
X99597004Y-109710372D01*
X99564595Y-109815035D01*
X99534420Y-109912333D01*
X99506769Y-110001328D01*
X99481935Y-110081081D01*
X99460210Y-110150654D01*
X99441885Y-110209110D01*
X99427254Y-110255510D01*
X99416607Y-110288917D01*
X99410238Y-110308392D01*
X99408403Y-110313275D01*
X99409925Y-110304320D01*
X99414482Y-110280288D01*
X99421879Y-110242149D01*
X99431924Y-110190873D01*
X99444421Y-110127430D01*
X99459176Y-110052791D01*
X99475995Y-109967925D01*
X99494684Y-109873803D01*
X99515048Y-109771395D01*
X99536894Y-109661671D01*
X99560027Y-109545602D01*
X99584253Y-109424157D01*
X99609378Y-109298307D01*
X99635207Y-109169021D01*
X99661547Y-109037271D01*
X99688202Y-108904025D01*
X99714980Y-108770256D01*
X99741685Y-108636931D01*
X99768124Y-108505022D01*
X99794101Y-108375500D01*
X99819424Y-108249333D01*
X99843898Y-108127492D01*
X99867328Y-108010948D01*
X99889521Y-107900670D01*
X99910282Y-107797629D01*
X99929417Y-107702795D01*
X99946732Y-107617138D01*
X99962032Y-107541629D01*
X99975123Y-107477236D01*
X99985812Y-107424931D01*
X99993904Y-107385684D01*
X99999204Y-107360465D01*
X100001519Y-107350244D01*
X100001589Y-107350068D01*
X100009405Y-107347068D01*
X100031773Y-107338779D01*
X100067824Y-107325518D01*
X100116687Y-107307602D01*
X100177494Y-107285346D01*
X100249375Y-107259067D01*
X100331462Y-107229083D01*
X100422883Y-107195708D01*
X100522771Y-107159261D01*
X100630256Y-107120057D01*
X100744468Y-107078414D01*
X100864538Y-107034646D01*
X100989597Y-106989072D01*
X101118775Y-106942007D01*
X101251203Y-106893768D01*
X101386012Y-106844671D01*
X101522331Y-106795034D01*
X101659293Y-106745172D01*
X101796027Y-106695402D01*
X101931663Y-106646041D01*
X102065334Y-106597405D01*
X102196168Y-106549811D01*
X102323298Y-106503574D01*
X102445853Y-106459013D01*
X102562964Y-106416442D01*
X102673762Y-106376179D01*
X102777377Y-106338541D01*
X102872941Y-106303843D01*
X102959582Y-106272402D01*
X103036433Y-106244535D01*
X103102624Y-106220558D01*
X103157286Y-106200788D01*
X103199548Y-106185542D01*
X103228542Y-106175135D01*
X103239276Y-106171322D01*
X103265771Y-106162604D01*
X103283150Y-106158116D01*
X103288764Y-106158484D01*
D13*
%TO.C,J2*%
X128730000Y-88920000D02*
X115970000Y-88920000D01*
X130000000Y-88920000D02*
X131330000Y-88920000D01*
X131330000Y-88920000D02*
X131330000Y-90250000D01*
X128730000Y-88920000D02*
X128730000Y-91580000D01*
X115970000Y-88920000D02*
X115970000Y-91580000D01*
X128730000Y-91580000D02*
X115970000Y-91580000D01*
%TO.C,TP2*%
X131010051Y-102750000D02*
X132000000Y-101760051D01*
X132989949Y-102750000D02*
X132000000Y-103739949D01*
X132000000Y-101760051D02*
X132989949Y-102750000D01*
X132000000Y-103739949D02*
X131010051Y-102750000D01*
%TO.C,TP1*%
X130500000Y-105239949D02*
X129510051Y-104250000D01*
X130500000Y-103260051D02*
X131489949Y-104250000D01*
X129510051Y-104250000D02*
X130500000Y-103260051D01*
X131489949Y-104250000D02*
X130500000Y-105239949D01*
%TO.C,R18*%
X143047500Y-107522936D02*
X143047500Y-107977064D01*
X141577500Y-107522936D02*
X141577500Y-107977064D01*
%TO.C,R17*%
X142985000Y-92477064D02*
X142985000Y-92022936D01*
X141515000Y-92477064D02*
X141515000Y-92022936D01*
%TO.C,R15*%
X135077500Y-107977064D02*
X135077500Y-107522936D01*
X136547500Y-107977064D02*
X136547500Y-107522936D01*
%TO.C,R14*%
X136485000Y-92477064D02*
X136485000Y-92022936D01*
X135015000Y-92477064D02*
X135015000Y-92022936D01*
%TO.C,R13*%
X134297500Y-107522936D02*
X134297500Y-107977064D01*
X132827500Y-107522936D02*
X132827500Y-107977064D01*
%TO.C,R12*%
X132765000Y-92022936D02*
X132765000Y-92477064D01*
X134235000Y-92022936D02*
X134235000Y-92477064D01*
%TO.C,R9*%
X128640835Y-106930282D02*
X128319718Y-106609165D01*
X129680282Y-105890835D02*
X129359165Y-105569718D01*
%TO.C,R8*%
X127140835Y-108430282D02*
X126819718Y-108109165D01*
X128180282Y-107390835D02*
X127859165Y-107069718D01*
%TO.C,R7*%
X115819718Y-98390835D02*
X116140835Y-98069718D01*
X116859165Y-99430282D02*
X117180282Y-99109165D01*
%TO.C,R6*%
X115359165Y-97930282D02*
X115680282Y-97609165D01*
X114319718Y-96890835D02*
X114640835Y-96569718D01*
%TO.C,R4*%
X100015000Y-92522936D02*
X100015000Y-92977064D01*
X101485000Y-92522936D02*
X101485000Y-92977064D01*
%TO.C,R3*%
X119140835Y-94930282D02*
X118819718Y-94609165D01*
X120180282Y-93890835D02*
X119859165Y-93569718D01*
%TO.C,R2*%
X104485000Y-102022936D02*
X104485000Y-102477064D01*
X103015000Y-102022936D02*
X103015000Y-102477064D01*
%TO.C,R1*%
X104485000Y-97977064D02*
X104485000Y-97522936D01*
X103015000Y-97977064D02*
X103015000Y-97522936D01*
%TO.C,D5*%
X143650000Y-105850000D02*
X143650000Y-109000000D01*
X145350000Y-105850000D02*
X145350000Y-109000000D01*
X145350000Y-105850000D02*
X143650000Y-105850000D01*
%TO.C,D3*%
X99460000Y-94610000D02*
X99460000Y-91750000D01*
X97540000Y-91750000D02*
X97540000Y-94610000D01*
X97540000Y-94610000D02*
X99460000Y-94610000D01*
%TO.C,D2*%
X145790000Y-94110000D02*
X147710000Y-94110000D01*
X145790000Y-91250000D02*
X145790000Y-94110000D01*
X147710000Y-94110000D02*
X147710000Y-91250000D01*
%TO.C,D1*%
X145790000Y-105890000D02*
X145790000Y-108750000D01*
X147710000Y-108750000D02*
X147710000Y-105890000D01*
X147710000Y-105890000D02*
X145790000Y-105890000D01*
%TO.C,C8*%
X115415010Y-102295543D02*
X115045543Y-102665010D01*
X116454457Y-103334990D02*
X116084990Y-103704457D01*
%TO.C,C7*%
X121834990Y-109454457D02*
X122204457Y-109084990D01*
X120795543Y-108415010D02*
X121165010Y-108045543D01*
%TO.C,C6*%
X105985000Y-92488748D02*
X105985000Y-93011252D01*
X104515000Y-92488748D02*
X104515000Y-93011252D01*
%TO.C,C5*%
X129834990Y-95795543D02*
X130204457Y-96165010D01*
X128795543Y-96834990D02*
X129165010Y-97204457D01*
%TO.C,C4*%
X118334990Y-95045543D02*
X118704457Y-95415010D01*
X117295543Y-96084990D02*
X117665010Y-96454457D01*
%TO.C,C3*%
X109011252Y-106735000D02*
X108488748Y-106735000D01*
X109011252Y-105265000D02*
X108488748Y-105265000D01*
%TO.C,C2*%
X102265000Y-93011252D02*
X102265000Y-92488748D01*
X103735000Y-93011252D02*
X103735000Y-92488748D01*
%TO.C,C1*%
X106765000Y-93011252D02*
X106765000Y-92488748D01*
X108235000Y-93011252D02*
X108235000Y-92488748D01*
%TO.C,Q2*%
X139062500Y-109310000D02*
X139712500Y-109310000D01*
X139062500Y-106190000D02*
X137387500Y-106190000D01*
X139062500Y-106190000D02*
X139712500Y-106190000D01*
X139062500Y-109310000D02*
X138412500Y-109310000D01*
D10*
%TO.C,U1*%
X110825000Y-104475000D02*
X106675000Y-104475000D01*
X110825000Y-103365000D02*
X110825000Y-104475000D01*
X106675000Y-104475000D02*
X106675000Y-103365000D01*
X110825000Y-103365000D02*
X111950000Y-103365000D01*
X110825000Y-95525000D02*
X110825000Y-96635000D01*
X106675000Y-95525000D02*
X106675000Y-96635000D01*
X110825000Y-95525000D02*
X106675000Y-95525000D01*
D13*
%TO.C,TP4*%
X140800000Y-103800000D02*
X142200000Y-103800000D01*
X142200000Y-103800000D02*
X142200000Y-105200000D01*
X140800000Y-105200000D02*
X140800000Y-103800000D01*
X142200000Y-105200000D02*
X140800000Y-105200000D01*
%TO.C,Y1*%
X118568198Y-109891600D02*
X121891600Y-106568198D01*
X121891600Y-106568198D02*
X117931802Y-102608400D01*
%TO.C,J4*%
X147650000Y-96900000D02*
X147650000Y-94900000D01*
X134150000Y-103100000D02*
X134150000Y-96900000D01*
X148850000Y-97400000D02*
X151350000Y-97400000D01*
X148850000Y-102600000D02*
X148850000Y-103100000D01*
X143050000Y-103100000D02*
X134150000Y-103100000D01*
X134150000Y-96900000D02*
X135350000Y-96900000D01*
X145050000Y-96900000D02*
X145050000Y-94900000D01*
X147650000Y-96900000D02*
X148850000Y-96900000D01*
X148850000Y-103100000D02*
X145650000Y-103100000D01*
X151350000Y-102600000D02*
X148850000Y-102600000D01*
X148850000Y-96900000D02*
X148850000Y-97400000D01*
X151350000Y-97400000D02*
X151350000Y-102600000D01*
X138550000Y-96900000D02*
X145050000Y-96900000D01*
D10*
%TO.C,U2*%
X124000000Y-95373476D02*
X123770190Y-95603286D01*
X118873476Y-100500000D02*
X119103286Y-100270190D01*
X124000000Y-95373476D02*
X124229810Y-95603286D01*
X129126524Y-100500000D02*
X128896714Y-100270190D01*
X129126524Y-100500000D02*
X128896714Y-100729810D01*
X119032575Y-100659099D02*
X118024948Y-101666726D01*
X124000000Y-105626524D02*
X123770190Y-105396714D01*
X118873476Y-100500000D02*
X119032575Y-100659099D01*
X124000000Y-105626524D02*
X124229810Y-105396714D01*
D13*
%TO.C,TP3*%
X139050000Y-96200000D02*
X139050000Y-94800000D01*
X140450000Y-94800000D02*
X140450000Y-96200000D01*
X139050000Y-94800000D02*
X140450000Y-94800000D01*
X140450000Y-96200000D02*
X139050000Y-96200000D01*
%TO.C,JP1*%
X110550000Y-92500000D02*
X111950000Y-92500000D01*
X111950000Y-94500000D02*
X110550000Y-94500000D01*
X112650000Y-93200000D02*
X112650000Y-93800000D01*
X109850000Y-93800000D02*
X109850000Y-93200000D01*
X112650000Y-93200000D02*
G75*
G03*
X111950000Y-92500000I-700000J0D01*
G01*
X110550000Y-92500000D02*
G75*
G03*
X109850000Y-93200000I-1J-699999D01*
G01*
X111950000Y-94500000D02*
G75*
G03*
X112650000Y-93800000I0J700000D01*
G01*
X109850000Y-93800000D02*
G75*
G03*
X110550000Y-94500000I699999J-1D01*
G01*
%TO.C,D4*%
X145350000Y-90350000D02*
X145350000Y-93500000D01*
X143650000Y-90350000D02*
X143650000Y-93500000D01*
X145350000Y-90350000D02*
X143650000Y-90350000D01*
%TO.C,Q1*%
X139000000Y-90690000D02*
X137325000Y-90690000D01*
X139000000Y-93810000D02*
X138350000Y-93810000D01*
X139000000Y-93810000D02*
X139650000Y-93810000D01*
X139000000Y-90690000D02*
X139650000Y-90690000D01*
%TD*%
M02*
