%TF.GenerationSoftware,KiCad,Pcbnew,(6.0.7)*%
%TF.CreationDate,2023-05-28T23:18:47-04:00*%
%TF.ProjectId,microkfd,6d696372-6f6b-4666-942e-6b696361645f,E*%
%TF.SameCoordinates,Original*%
%TF.FileFunction,Copper,L2,Bot*%
%TF.FilePolarity,Positive*%
%FSLAX46Y46*%
G04 Gerber Fmt 4.6, Leading zero omitted, Abs format (unit mm)*
G04 Created by KiCad (PCBNEW (6.0.7)) date 2023-05-28 23:18:47*
%MOMM*%
%LPD*%
G01*
G04 APERTURE LIST*
G04 Aperture macros list*
%AMRoundRect*
0 Rectangle with rounded corners*
0 $1 Rounding radius*
0 $2 $3 $4 $5 $6 $7 $8 $9 X,Y pos of 4 corners*
0 Add a 4 corners polygon primitive as box body*
4,1,4,$2,$3,$4,$5,$6,$7,$8,$9,$2,$3,0*
0 Add four circle primitives for the rounded corners*
1,1,$1+$1,$2,$3*
1,1,$1+$1,$4,$5*
1,1,$1+$1,$6,$7*
1,1,$1+$1,$8,$9*
0 Add four rect primitives between the rounded corners*
20,1,$1+$1,$2,$3,$4,$5,0*
20,1,$1+$1,$4,$5,$6,$7,0*
20,1,$1+$1,$6,$7,$8,$9,0*
20,1,$1+$1,$8,$9,$2,$3,0*%
G04 Aperture macros list end*
%TA.AperFunction,ComponentPad*%
%ADD10RoundRect,0.262500X-0.667500X0.262500X-0.667500X-0.262500X0.667500X-0.262500X0.667500X0.262500X0*%
%TD*%
%TA.AperFunction,ComponentPad*%
%ADD11R,1.700000X1.700000*%
%TD*%
%TA.AperFunction,ComponentPad*%
%ADD12O,1.700000X1.700000*%
%TD*%
%TA.AperFunction,ViaPad*%
%ADD13C,0.600000*%
%TD*%
%TA.AperFunction,Conductor*%
%ADD14C,0.300000*%
%TD*%
G04 APERTURE END LIST*
D10*
%TO.P,J1,6,Shield*%
%TO.N,GND*%
X98450000Y-97175000D03*
X98450000Y-102825000D03*
%TD*%
D11*
%TO.P,J2,1,MISO*%
%TO.N,MISO*%
X130000000Y-90250000D03*
D12*
%TO.P,J2,2,VCC*%
%TO.N,+5V*%
X127460000Y-90250000D03*
%TO.P,J2,3,SCK*%
%TO.N,SCK*%
X124920000Y-90250000D03*
%TO.P,J2,4,MOSI*%
%TO.N,MOSI*%
X122380000Y-90250000D03*
%TO.P,J2,5,~{RST}*%
%TO.N,~{RESET}*%
X119840000Y-90250000D03*
%TO.P,J2,6,GND*%
%TO.N,GND*%
X117300000Y-90250000D03*
%TD*%
D13*
%TO.N,GND*%
X124000000Y-107750000D03*
X124000000Y-106500000D03*
X126250000Y-110500000D03*
X123750000Y-110500000D03*
X125000000Y-110500000D03*
X122500000Y-110500000D03*
X118750000Y-110500000D03*
X113750000Y-110500000D03*
X116250000Y-110500000D03*
X117500000Y-110500000D03*
X115000000Y-110500000D03*
X97750000Y-95500000D03*
X98750000Y-110000000D03*
X98000000Y-109000000D03*
X97750000Y-107500000D03*
X97750000Y-106250000D03*
X97750000Y-105000000D03*
X97750000Y-101250000D03*
X97750000Y-98750000D03*
X97750000Y-100000000D03*
X139750000Y-109000000D03*
X112750000Y-96750000D03*
X113750000Y-95750000D03*
X112750000Y-95750000D03*
X111750000Y-95750000D03*
X108500000Y-101500000D03*
X107750000Y-103000000D03*
X107750000Y-102000000D03*
X107750000Y-101000000D03*
X122750000Y-98250000D03*
X121750000Y-99000000D03*
X127250000Y-95250000D03*
X128000000Y-94500000D03*
X126500000Y-94500000D03*
X124500000Y-103250000D03*
X123750000Y-104000000D03*
X122500000Y-102500000D03*
%TO.N,TWI_S_TX*%
X122500000Y-100750000D03*
%TO.N,TWI_D_TX*%
X125500000Y-108000000D03*
X132750000Y-94500000D03*
%TO.N,TWI_D_RX*%
X132750000Y-95750000D03*
X122750000Y-99250000D03*
%TO.N,GND*%
X146250000Y-98750000D03*
X147250000Y-98750000D03*
X146250000Y-101250000D03*
X146250000Y-102500000D03*
X146250000Y-103750000D03*
X146250000Y-105000000D03*
X147250000Y-105000000D03*
X147250000Y-103750000D03*
X147250000Y-102500000D03*
X147250000Y-101250000D03*
X147250000Y-100000000D03*
%TO.N,TWI_S_TX*%
X131750000Y-109000000D03*
%TO.N,TWI_S_RX*%
X132000000Y-107750000D03*
X121000000Y-100000000D03*
%TO.N,GND*%
X118000000Y-101250000D03*
X118000000Y-99750000D03*
X117250000Y-100500000D03*
X100000000Y-89250000D03*
X101250000Y-89250000D03*
X102500000Y-89250000D03*
X103750000Y-89250000D03*
X105000000Y-89250000D03*
X106250000Y-89250000D03*
X107500000Y-89250000D03*
X108750000Y-89250000D03*
X115000000Y-89250000D03*
X113750000Y-89250000D03*
X112500000Y-89250000D03*
X111250000Y-89250000D03*
X110000000Y-89250000D03*
%TO.N,SCK*%
X129750000Y-100000000D03*
%TO.N,MISO*%
X127750000Y-100500000D03*
%TO.N,MOSI*%
X127250000Y-101250000D03*
%TO.N,~{RESET}*%
X121500000Y-94292393D03*
%TO.N,Net-(C3-Pad1)*%
X108799500Y-106000000D03*
X110250000Y-101500000D03*
X107750000Y-98983000D03*
%TD*%
D14*
%TO.N,TWI_S_TX*%
X123250000Y-100750000D02*
X122500000Y-100750000D01*
X124000000Y-101500000D02*
X123250000Y-100750000D01*
%TO.N,TWI_D_TX*%
X125500000Y-108250000D02*
X125500000Y-108000000D01*
X127250000Y-110000000D02*
X125500000Y-108250000D01*
X132500000Y-109750000D02*
X132250000Y-110000000D01*
X133250000Y-109000000D02*
X132500000Y-109750000D01*
X133250000Y-107250000D02*
X133250000Y-109000000D01*
X132500000Y-106500000D02*
X133250000Y-107250000D01*
X132500000Y-103500000D02*
X132500000Y-106500000D01*
X133750000Y-102250000D02*
X132500000Y-103500000D01*
X132750000Y-94500000D02*
X133750000Y-95500000D01*
X133750000Y-95500000D02*
X133750000Y-98750000D01*
X133750000Y-98750000D02*
X133750000Y-102250000D01*
X132250000Y-110000000D02*
X127250000Y-110000000D01*
%TO.N,TWI_D_RX*%
X132750000Y-98750000D02*
X132750000Y-95750000D01*
X129500000Y-102000000D02*
X131000000Y-100500000D01*
X131000000Y-100500000D02*
X132750000Y-98750000D01*
X128750000Y-102000000D02*
X129500000Y-102000000D01*
X126957106Y-102000000D02*
X128750000Y-102000000D01*
X126750000Y-101792894D02*
X126957106Y-102000000D01*
X125500000Y-100542894D02*
X126750000Y-101792894D01*
X125500000Y-100250000D02*
X125500000Y-100542894D01*
X122750000Y-99250000D02*
X124500000Y-99250000D01*
X124500000Y-99250000D02*
X125500000Y-100250000D01*
%TO.N,MOSI*%
X124000000Y-91870000D02*
X122380000Y-90250000D01*
X124000000Y-98000000D02*
X124000000Y-91870000D01*
X127250000Y-101250000D02*
X124000000Y-98000000D01*
%TO.N,TWI_S_TX*%
X124000000Y-101500000D02*
X130000000Y-107500000D01*
X131500000Y-109000000D02*
X131750000Y-109000000D01*
X130000000Y-107500000D02*
X131500000Y-109000000D01*
%TO.N,TWI_S_RX*%
X124250000Y-100000000D02*
X132000000Y-107750000D01*
X121000000Y-100000000D02*
X124250000Y-100000000D01*
%TO.N,SCK*%
X131750000Y-98000000D02*
X129750000Y-100000000D01*
X131750000Y-89397845D02*
X131750000Y-98000000D01*
X126120000Y-89050000D02*
X131402155Y-89050000D01*
X124920000Y-90250000D02*
X126120000Y-89050000D01*
X131402155Y-89050000D02*
X131750000Y-89397845D01*
%TO.N,MISO*%
X127250000Y-100500000D02*
X127750000Y-100500000D01*
X127000000Y-100250000D02*
X127250000Y-100500000D01*
X124750000Y-98000000D02*
X127000000Y-100250000D01*
X124750000Y-92000000D02*
X124750000Y-98000000D01*
X128250000Y-92000000D02*
X124750000Y-92000000D01*
X130000000Y-90250000D02*
X128250000Y-92000000D01*
%TO.N,~{RESET}*%
X121500000Y-91910000D02*
X121500000Y-94292393D01*
X119840000Y-90250000D02*
X121500000Y-91910000D01*
%TO.N,Net-(C3-Pad1)*%
X108799500Y-102950500D02*
X108799500Y-106000000D01*
X110250000Y-101500000D02*
X108799500Y-102950500D01*
X110250000Y-101483000D02*
X110250000Y-101500000D01*
X107750000Y-98983000D02*
X110250000Y-101483000D01*
%TD*%
%TA.AperFunction,Conductor*%
%TO.N,GND*%
G36*
X116766952Y-89020185D02*
G01*
X116812707Y-89072989D01*
X116822651Y-89142147D01*
X116793626Y-89205703D01*
X116763313Y-89231067D01*
X116626035Y-89312738D01*
X116616877Y-89319392D01*
X116466518Y-89451254D01*
X116458728Y-89459463D01*
X116334916Y-89616518D01*
X116328751Y-89626011D01*
X116235633Y-89803000D01*
X116231300Y-89813461D01*
X116171998Y-90004444D01*
X116169642Y-90015526D01*
X116167658Y-90032293D01*
X116170062Y-90046488D01*
X116182600Y-90050000D01*
X118418720Y-90050000D01*
X118433037Y-90045796D01*
X118434560Y-90036838D01*
X118434044Y-90034057D01*
X118379760Y-89841583D01*
X118375703Y-89831013D01*
X118287252Y-89651652D01*
X118281333Y-89641994D01*
X118161682Y-89481762D01*
X118154101Y-89473342D01*
X118007250Y-89337595D01*
X117998265Y-89330700D01*
X117837666Y-89229370D01*
X117791473Y-89176949D01*
X117780953Y-89107876D01*
X117809448Y-89044081D01*
X117867909Y-89005818D01*
X117903834Y-89000500D01*
X119352752Y-89000500D01*
X119419791Y-89020185D01*
X119465546Y-89072989D01*
X119475490Y-89142147D01*
X119446465Y-89205703D01*
X119395671Y-89240836D01*
X119369521Y-89250483D01*
X119369517Y-89250485D01*
X119364193Y-89252449D01*
X119359310Y-89255354D01*
X119359308Y-89255355D01*
X119232004Y-89331093D01*
X119190371Y-89355862D01*
X119038305Y-89489220D01*
X118913089Y-89648057D01*
X118818914Y-89827053D01*
X118817229Y-89832479D01*
X118817228Y-89832482D01*
X118779421Y-89954244D01*
X118758937Y-90020213D01*
X118735164Y-90221069D01*
X118735535Y-90226731D01*
X118735535Y-90226735D01*
X118740851Y-90307842D01*
X118748392Y-90422894D01*
X118798178Y-90618928D01*
X118800554Y-90624082D01*
X118808205Y-90640677D01*
X118882856Y-90802607D01*
X118999588Y-90967780D01*
X119144466Y-91108913D01*
X119312637Y-91221282D01*
X119498470Y-91301122D01*
X119563222Y-91315774D01*
X119690193Y-91344505D01*
X119690195Y-91344505D01*
X119695740Y-91345760D01*
X119813135Y-91350372D01*
X119892161Y-91353477D01*
X119892163Y-91353477D01*
X119897842Y-91353700D01*
X119903462Y-91352885D01*
X119903465Y-91352885D01*
X120092387Y-91325493D01*
X120092389Y-91325493D01*
X120098007Y-91324678D01*
X120103384Y-91322853D01*
X120103387Y-91322852D01*
X120211841Y-91286036D01*
X120281650Y-91283126D01*
X120339381Y-91315774D01*
X121063181Y-92039574D01*
X121096666Y-92100897D01*
X121099500Y-92127255D01*
X121099500Y-93867947D01*
X121079815Y-93934986D01*
X121073875Y-93943434D01*
X121024089Y-94008316D01*
X121024087Y-94008320D01*
X121019139Y-94014768D01*
X121014801Y-94025241D01*
X120970342Y-94132577D01*
X120963670Y-94148684D01*
X120944750Y-94292393D01*
X120963670Y-94436102D01*
X120966781Y-94443614D01*
X120966782Y-94443616D01*
X120971750Y-94455609D01*
X121019139Y-94570018D01*
X121107379Y-94685014D01*
X121222375Y-94773254D01*
X121229887Y-94776365D01*
X121229886Y-94776365D01*
X121348777Y-94825611D01*
X121348779Y-94825612D01*
X121356291Y-94828723D01*
X121500000Y-94847643D01*
X121643709Y-94828723D01*
X121651221Y-94825612D01*
X121651223Y-94825611D01*
X121770114Y-94776365D01*
X121770113Y-94776365D01*
X121777625Y-94773254D01*
X121892621Y-94685014D01*
X121980861Y-94570018D01*
X122028250Y-94455609D01*
X122033218Y-94443616D01*
X122033219Y-94443614D01*
X122036330Y-94436102D01*
X122055250Y-94292393D01*
X122036330Y-94148684D01*
X122029659Y-94132577D01*
X121985199Y-94025241D01*
X121980861Y-94014768D01*
X121975913Y-94008320D01*
X121975911Y-94008316D01*
X121926125Y-93943434D01*
X121900930Y-93878265D01*
X121900500Y-93867947D01*
X121900500Y-91846567D01*
X121893653Y-91825494D01*
X121889111Y-91806574D01*
X121887173Y-91794338D01*
X121885646Y-91784696D01*
X121880540Y-91774674D01*
X121875588Y-91764956D01*
X121868142Y-91746979D01*
X121864312Y-91735192D01*
X121861297Y-91725911D01*
X121848270Y-91707981D01*
X121838108Y-91691398D01*
X121832480Y-91680353D01*
X121828050Y-91671658D01*
X121805487Y-91649095D01*
X121805484Y-91649091D01*
X120905774Y-90749381D01*
X120872289Y-90688058D01*
X120876036Y-90621841D01*
X120912852Y-90513387D01*
X120912853Y-90513384D01*
X120914678Y-90508007D01*
X120920530Y-90467645D01*
X120943176Y-90311458D01*
X120943176Y-90311453D01*
X120943700Y-90307842D01*
X120945215Y-90250000D01*
X120926708Y-90048591D01*
X120871807Y-89853926D01*
X120782351Y-89672527D01*
X120661335Y-89510467D01*
X120512812Y-89373174D01*
X120480762Y-89352952D01*
X120346566Y-89268280D01*
X120346564Y-89268279D01*
X120341757Y-89265246D01*
X120277655Y-89239672D01*
X120222682Y-89196547D01*
X120199752Y-89130548D01*
X120216143Y-89062628D01*
X120266653Y-89014352D01*
X120323604Y-89000500D01*
X121892752Y-89000500D01*
X121959791Y-89020185D01*
X122005546Y-89072989D01*
X122015490Y-89142147D01*
X121986465Y-89205703D01*
X121935671Y-89240836D01*
X121909521Y-89250483D01*
X121909517Y-89250485D01*
X121904193Y-89252449D01*
X121899310Y-89255354D01*
X121899308Y-89255355D01*
X121772004Y-89331093D01*
X121730371Y-89355862D01*
X121578305Y-89489220D01*
X121453089Y-89648057D01*
X121358914Y-89827053D01*
X121357229Y-89832479D01*
X121357228Y-89832482D01*
X121319421Y-89954244D01*
X121298937Y-90020213D01*
X121275164Y-90221069D01*
X121275535Y-90226731D01*
X121275535Y-90226735D01*
X121280851Y-90307842D01*
X121288392Y-90422894D01*
X121338178Y-90618928D01*
X121340554Y-90624082D01*
X121348205Y-90640677D01*
X121422856Y-90802607D01*
X121539588Y-90967780D01*
X121684466Y-91108913D01*
X121852637Y-91221282D01*
X122038470Y-91301122D01*
X122103222Y-91315774D01*
X122230193Y-91344505D01*
X122230195Y-91344505D01*
X122235740Y-91345760D01*
X122353135Y-91350372D01*
X122432161Y-91353477D01*
X122432163Y-91353477D01*
X122437842Y-91353700D01*
X122443462Y-91352885D01*
X122443465Y-91352885D01*
X122632387Y-91325493D01*
X122632389Y-91325493D01*
X122638007Y-91324678D01*
X122643384Y-91322853D01*
X122643387Y-91322852D01*
X122751841Y-91286036D01*
X122821650Y-91283126D01*
X122879381Y-91315774D01*
X123563181Y-91999574D01*
X123596666Y-92060897D01*
X123599500Y-92087255D01*
X123599500Y-98063433D01*
X123602515Y-98072711D01*
X123606345Y-98084499D01*
X123610889Y-98103424D01*
X123614354Y-98125304D01*
X123618783Y-98133997D01*
X123618785Y-98134002D01*
X123624413Y-98145048D01*
X123631857Y-98163019D01*
X123634663Y-98171653D01*
X123638704Y-98184090D01*
X123651726Y-98202013D01*
X123661892Y-98218602D01*
X123671950Y-98238342D01*
X123694513Y-98260905D01*
X123694516Y-98260909D01*
X124071426Y-98637819D01*
X124104911Y-98699142D01*
X124099927Y-98768834D01*
X124058055Y-98824767D01*
X123992591Y-98849184D01*
X123983745Y-98849500D01*
X123174446Y-98849500D01*
X123107407Y-98829815D01*
X123098959Y-98823875D01*
X123034077Y-98774089D01*
X123034072Y-98774086D01*
X123027625Y-98769139D01*
X122991593Y-98754214D01*
X122901223Y-98716782D01*
X122901221Y-98716781D01*
X122893709Y-98713670D01*
X122750000Y-98694750D01*
X122606291Y-98713670D01*
X122598779Y-98716781D01*
X122598777Y-98716782D01*
X122508407Y-98754214D01*
X122472375Y-98769139D01*
X122465928Y-98774086D01*
X122399880Y-98824767D01*
X122357379Y-98857379D01*
X122269139Y-98972375D01*
X122213670Y-99106291D01*
X122194750Y-99250000D01*
X122213670Y-99393709D01*
X122223183Y-99416675D01*
X122227894Y-99428049D01*
X122235361Y-99497519D01*
X122204085Y-99559997D01*
X122143996Y-99595649D01*
X122113332Y-99599500D01*
X121424446Y-99599500D01*
X121357407Y-99579815D01*
X121348959Y-99573875D01*
X121284077Y-99524089D01*
X121284072Y-99524086D01*
X121277625Y-99519139D01*
X121225429Y-99497519D01*
X121151223Y-99466782D01*
X121151221Y-99466781D01*
X121143709Y-99463670D01*
X121000000Y-99444750D01*
X120856291Y-99463670D01*
X120848779Y-99466781D01*
X120848777Y-99466782D01*
X120774571Y-99497519D01*
X120722375Y-99519139D01*
X120607379Y-99607379D01*
X120519139Y-99722375D01*
X120516028Y-99729886D01*
X120468665Y-99844233D01*
X120463670Y-99856291D01*
X120444750Y-100000000D01*
X120463670Y-100143709D01*
X120466781Y-100151221D01*
X120466782Y-100151223D01*
X120471039Y-100161500D01*
X120519139Y-100277625D01*
X120607379Y-100392621D01*
X120613822Y-100397565D01*
X120688184Y-100454625D01*
X120722375Y-100480861D01*
X120729887Y-100483972D01*
X120729886Y-100483972D01*
X120848777Y-100533218D01*
X120848779Y-100533219D01*
X120856291Y-100536330D01*
X121000000Y-100555250D01*
X121143709Y-100536330D01*
X121151221Y-100533219D01*
X121151223Y-100533218D01*
X121270114Y-100483972D01*
X121270113Y-100483972D01*
X121277625Y-100480861D01*
X121284073Y-100475913D01*
X121284077Y-100475911D01*
X121348959Y-100426125D01*
X121414128Y-100400930D01*
X121424446Y-100400500D01*
X121863332Y-100400500D01*
X121930371Y-100420185D01*
X121976126Y-100472989D01*
X121986070Y-100542147D01*
X121977894Y-100571950D01*
X121963670Y-100606291D01*
X121944750Y-100750000D01*
X121963670Y-100893709D01*
X121966781Y-100901221D01*
X121966782Y-100901223D01*
X121992209Y-100962609D01*
X122019139Y-101027625D01*
X122107379Y-101142621D01*
X122113822Y-101147565D01*
X122199261Y-101213125D01*
X122222375Y-101230861D01*
X122258407Y-101245786D01*
X122348777Y-101283218D01*
X122348779Y-101283219D01*
X122356291Y-101286330D01*
X122500000Y-101305250D01*
X122643709Y-101286330D01*
X122651221Y-101283219D01*
X122651223Y-101283218D01*
X122741593Y-101245786D01*
X122777625Y-101230861D01*
X122784073Y-101225913D01*
X122784077Y-101225911D01*
X122848959Y-101176125D01*
X122914128Y-101150930D01*
X122924446Y-101150500D01*
X123032745Y-101150500D01*
X123099784Y-101170185D01*
X123120426Y-101186819D01*
X123694516Y-101760909D01*
X129694513Y-107760905D01*
X129694516Y-107760909D01*
X131171950Y-109238342D01*
X131261658Y-109328050D01*
X131281396Y-109338107D01*
X131297986Y-109348274D01*
X131315910Y-109361296D01*
X131321660Y-109363164D01*
X131350044Y-109383786D01*
X131352432Y-109386174D01*
X131355021Y-109389548D01*
X131387562Y-109449142D01*
X131382578Y-109518834D01*
X131340706Y-109574767D01*
X131275242Y-109599184D01*
X131266396Y-109599500D01*
X127467255Y-109599500D01*
X127400216Y-109579815D01*
X127379574Y-109563181D01*
X126069978Y-108253585D01*
X126036493Y-108192262D01*
X126037644Y-108143882D01*
X126036330Y-108143709D01*
X126054189Y-108008059D01*
X126055250Y-108000000D01*
X126036330Y-107856291D01*
X126014904Y-107804562D01*
X125983972Y-107729886D01*
X125980861Y-107722375D01*
X125892621Y-107607379D01*
X125777625Y-107519139D01*
X125741593Y-107504214D01*
X125651223Y-107466782D01*
X125651221Y-107466781D01*
X125643709Y-107463670D01*
X125500000Y-107444750D01*
X125356291Y-107463670D01*
X125348779Y-107466781D01*
X125348777Y-107466782D01*
X125258407Y-107504214D01*
X125222375Y-107519139D01*
X125107379Y-107607379D01*
X125019139Y-107722375D01*
X125016028Y-107729886D01*
X124985097Y-107804562D01*
X124963670Y-107856291D01*
X124944750Y-108000000D01*
X124963670Y-108143709D01*
X124966781Y-108151221D01*
X124966782Y-108151223D01*
X124992418Y-108213115D01*
X125019139Y-108277625D01*
X125107379Y-108392621D01*
X125113821Y-108397564D01*
X125116214Y-108399957D01*
X125136835Y-108428339D01*
X125138704Y-108434090D01*
X125151728Y-108452016D01*
X125161892Y-108468602D01*
X125171950Y-108488342D01*
X125194513Y-108510905D01*
X125194516Y-108510909D01*
X126989091Y-110305484D01*
X126989095Y-110305487D01*
X127011658Y-110328050D01*
X127031401Y-110338109D01*
X127047988Y-110348274D01*
X127058017Y-110355561D01*
X127058019Y-110355562D01*
X127065911Y-110361296D01*
X127075190Y-110364311D01*
X127086978Y-110368141D01*
X127104954Y-110375587D01*
X127124696Y-110385646D01*
X127146576Y-110389111D01*
X127165501Y-110393655D01*
X127186567Y-110400500D01*
X132313433Y-110400500D01*
X132334499Y-110393655D01*
X132353424Y-110389111D01*
X132375304Y-110385646D01*
X132383997Y-110381217D01*
X132384002Y-110381215D01*
X132395048Y-110375587D01*
X132413019Y-110368143D01*
X132421653Y-110365337D01*
X132434090Y-110361296D01*
X132452016Y-110348272D01*
X132468602Y-110338108D01*
X132488342Y-110328050D01*
X132510905Y-110305487D01*
X132510909Y-110305484D01*
X132760906Y-110055486D01*
X132760909Y-110055484D01*
X133555483Y-109260909D01*
X133578050Y-109238342D01*
X133588108Y-109218603D01*
X133598274Y-109202013D01*
X133605561Y-109191983D01*
X133611296Y-109184090D01*
X133617649Y-109164538D01*
X133618143Y-109163019D01*
X133625587Y-109145048D01*
X133631215Y-109134002D01*
X133631217Y-109133997D01*
X133635646Y-109125304D01*
X133639111Y-109103424D01*
X133643655Y-109084499D01*
X133647485Y-109072711D01*
X133650500Y-109063433D01*
X133650500Y-107186567D01*
X133643655Y-107165501D01*
X133639111Y-107146575D01*
X133637172Y-107134333D01*
X133635646Y-107124696D01*
X133631217Y-107116003D01*
X133631215Y-107115998D01*
X133625587Y-107104952D01*
X133618143Y-107086981D01*
X133614312Y-107075192D01*
X133611296Y-107065910D01*
X133598274Y-107047986D01*
X133588107Y-107031396D01*
X133582480Y-107020353D01*
X133578050Y-107011658D01*
X133220130Y-106653738D01*
X132936819Y-106370426D01*
X132903334Y-106309103D01*
X132900500Y-106282745D01*
X132900500Y-103717255D01*
X132920185Y-103650216D01*
X132936819Y-103629574D01*
X134055484Y-102510909D01*
X134055487Y-102510905D01*
X134078050Y-102488342D01*
X134088108Y-102468602D01*
X134098272Y-102452016D01*
X134111296Y-102434090D01*
X134115337Y-102421653D01*
X134118143Y-102413019D01*
X134125587Y-102395048D01*
X134131215Y-102384002D01*
X134131217Y-102383997D01*
X134135646Y-102375304D01*
X134139111Y-102353424D01*
X134143655Y-102334499D01*
X134147485Y-102322711D01*
X134150500Y-102313433D01*
X134150500Y-99945996D01*
X137145814Y-99945996D01*
X137155523Y-100155767D01*
X137204724Y-100359918D01*
X137207164Y-100365286D01*
X137207166Y-100365290D01*
X137264751Y-100491941D01*
X137291640Y-100551081D01*
X137413137Y-100722360D01*
X137417404Y-100726444D01*
X137417405Y-100726446D01*
X137560564Y-100863491D01*
X137560568Y-100863495D01*
X137564831Y-100867575D01*
X137741246Y-100981485D01*
X137746721Y-100983692D01*
X137746724Y-100983693D01*
X137930539Y-101057773D01*
X137930544Y-101057774D01*
X137936019Y-101059981D01*
X138142122Y-101100230D01*
X138147643Y-101100500D01*
X138302469Y-101100500D01*
X138459046Y-101085561D01*
X138464706Y-101083901D01*
X138464709Y-101083900D01*
X138559797Y-101056004D01*
X138660549Y-101026447D01*
X138747848Y-100981485D01*
X138841996Y-100932996D01*
X138842001Y-100932993D01*
X138847239Y-100930295D01*
X139012379Y-100800576D01*
X139084432Y-100717543D01*
X139146146Y-100646424D01*
X139146147Y-100646423D01*
X139150010Y-100641971D01*
X139170651Y-100606291D01*
X139252210Y-100465311D01*
X139252211Y-100465309D01*
X139255166Y-100460201D01*
X139324053Y-100261826D01*
X139354186Y-100054004D01*
X139349187Y-99945996D01*
X144145814Y-99945996D01*
X144155523Y-100155767D01*
X144204724Y-100359918D01*
X144207164Y-100365286D01*
X144207166Y-100365290D01*
X144264751Y-100491941D01*
X144291640Y-100551081D01*
X144413137Y-100722360D01*
X144417404Y-100726444D01*
X144417405Y-100726446D01*
X144560564Y-100863491D01*
X144560568Y-100863495D01*
X144564831Y-100867575D01*
X144741246Y-100981485D01*
X144746721Y-100983692D01*
X144746724Y-100983693D01*
X144930539Y-101057773D01*
X144930544Y-101057774D01*
X144936019Y-101059981D01*
X145142122Y-101100230D01*
X145147643Y-101100500D01*
X145302469Y-101100500D01*
X145459046Y-101085561D01*
X145464706Y-101083901D01*
X145464709Y-101083900D01*
X145559797Y-101056004D01*
X145660549Y-101026447D01*
X145747848Y-100981485D01*
X145841996Y-100932996D01*
X145842001Y-100932993D01*
X145847239Y-100930295D01*
X146012379Y-100800576D01*
X146084432Y-100717543D01*
X146146146Y-100646424D01*
X146146147Y-100646423D01*
X146150010Y-100641971D01*
X146170651Y-100606291D01*
X146252210Y-100465311D01*
X146252211Y-100465309D01*
X146255166Y-100460201D01*
X146324053Y-100261826D01*
X146354186Y-100054004D01*
X146344477Y-99844233D01*
X146320325Y-99744018D01*
X146296658Y-99645815D01*
X146296657Y-99645812D01*
X146295276Y-99640082D01*
X146283337Y-99613822D01*
X146210802Y-99454290D01*
X146208360Y-99448919D01*
X146086863Y-99277640D01*
X146082595Y-99273554D01*
X145939436Y-99136509D01*
X145939432Y-99136505D01*
X145935169Y-99132425D01*
X145758754Y-99018515D01*
X145753279Y-99016308D01*
X145753276Y-99016307D01*
X145569461Y-98942227D01*
X145569456Y-98942226D01*
X145563981Y-98940019D01*
X145357878Y-98899770D01*
X145352357Y-98899500D01*
X145197531Y-98899500D01*
X145040954Y-98914439D01*
X145035294Y-98916099D01*
X145035291Y-98916100D01*
X144940203Y-98943996D01*
X144839451Y-98973553D01*
X144834202Y-98976256D01*
X144834203Y-98976256D01*
X144658004Y-99067004D01*
X144657999Y-99067007D01*
X144652761Y-99069705D01*
X144487621Y-99199424D01*
X144349990Y-99358029D01*
X144347037Y-99363134D01*
X144347036Y-99363135D01*
X144249886Y-99531067D01*
X144244834Y-99539799D01*
X144175947Y-99738174D01*
X144145814Y-99945996D01*
X139349187Y-99945996D01*
X139344477Y-99844233D01*
X139320325Y-99744018D01*
X139296658Y-99645815D01*
X139296657Y-99645812D01*
X139295276Y-99640082D01*
X139283337Y-99613822D01*
X139210802Y-99454290D01*
X139208360Y-99448919D01*
X139086863Y-99277640D01*
X139082595Y-99273554D01*
X138939436Y-99136509D01*
X138939432Y-99136505D01*
X138935169Y-99132425D01*
X138758754Y-99018515D01*
X138753279Y-99016308D01*
X138753276Y-99016307D01*
X138569461Y-98942227D01*
X138569456Y-98942226D01*
X138563981Y-98940019D01*
X138357878Y-98899770D01*
X138352357Y-98899500D01*
X138197531Y-98899500D01*
X138040954Y-98914439D01*
X138035294Y-98916099D01*
X138035291Y-98916100D01*
X137940203Y-98943996D01*
X137839451Y-98973553D01*
X137834202Y-98976256D01*
X137834203Y-98976256D01*
X137658004Y-99067004D01*
X137657999Y-99067007D01*
X137652761Y-99069705D01*
X137487621Y-99199424D01*
X137349990Y-99358029D01*
X137347037Y-99363134D01*
X137347036Y-99363135D01*
X137249886Y-99531067D01*
X137244834Y-99539799D01*
X137175947Y-99738174D01*
X137145814Y-99945996D01*
X134150500Y-99945996D01*
X134150500Y-95436567D01*
X134143653Y-95415494D01*
X134139111Y-95396574D01*
X134135646Y-95374696D01*
X134126823Y-95357379D01*
X134125588Y-95354956D01*
X134118142Y-95336979D01*
X134114312Y-95325192D01*
X134111297Y-95315911D01*
X134098270Y-95297981D01*
X134088108Y-95281398D01*
X134082480Y-95270353D01*
X134078050Y-95261658D01*
X134055487Y-95239095D01*
X134055484Y-95239091D01*
X133333325Y-94516932D01*
X133299840Y-94455609D01*
X133298067Y-94445437D01*
X133287392Y-94364354D01*
X133287391Y-94364351D01*
X133286330Y-94356291D01*
X133230861Y-94222375D01*
X133142621Y-94107379D01*
X133027625Y-94019139D01*
X132991593Y-94004214D01*
X132901223Y-93966782D01*
X132901221Y-93966781D01*
X132893709Y-93963670D01*
X132750000Y-93944750D01*
X132606291Y-93963670D01*
X132598779Y-93966781D01*
X132598777Y-93966782D01*
X132508407Y-94004214D01*
X132472375Y-94019139D01*
X132357379Y-94107379D01*
X132357011Y-94106899D01*
X132300858Y-94137561D01*
X132231166Y-94132577D01*
X132175233Y-94090705D01*
X132150816Y-94025241D01*
X132150500Y-94016395D01*
X132150500Y-89334412D01*
X132143655Y-89313346D01*
X132139111Y-89294420D01*
X132137172Y-89282178D01*
X132135646Y-89272541D01*
X132131217Y-89263848D01*
X132131215Y-89263843D01*
X132125587Y-89252797D01*
X132118143Y-89234826D01*
X132114312Y-89223037D01*
X132111296Y-89213755D01*
X132105562Y-89205863D01*
X132105559Y-89205857D01*
X132099404Y-89197386D01*
X132075923Y-89131580D01*
X132091748Y-89063526D01*
X132141853Y-89014831D01*
X132199721Y-89000500D01*
X145463115Y-89000500D01*
X145487306Y-89002883D01*
X145500000Y-89005408D01*
X145511978Y-89003026D01*
X145524191Y-89003026D01*
X145524191Y-89003219D01*
X145534950Y-89002463D01*
X145629045Y-89007747D01*
X145800894Y-89017398D01*
X145814712Y-89018955D01*
X146104953Y-89068269D01*
X146118510Y-89071363D01*
X146401413Y-89152866D01*
X146414538Y-89157459D01*
X146686528Y-89270121D01*
X146699056Y-89276154D01*
X146810226Y-89337595D01*
X146956732Y-89418566D01*
X146968495Y-89425957D01*
X147139175Y-89547061D01*
X147208605Y-89596324D01*
X147219477Y-89604995D01*
X147438997Y-89801171D01*
X147448829Y-89811003D01*
X147645005Y-90030523D01*
X147653676Y-90041395D01*
X147804287Y-90253661D01*
X147824039Y-90281499D01*
X147831437Y-90293273D01*
X147973846Y-90550944D01*
X147979879Y-90563472D01*
X148092541Y-90835462D01*
X148097134Y-90848587D01*
X148170990Y-91104945D01*
X148178637Y-91131490D01*
X148181731Y-91145046D01*
X148183797Y-91157206D01*
X148231045Y-91435288D01*
X148232602Y-91449106D01*
X148247141Y-91707989D01*
X148247537Y-91715048D01*
X148246781Y-91725809D01*
X148246974Y-91725809D01*
X148246974Y-91738022D01*
X148244592Y-91750000D01*
X148246975Y-91761979D01*
X148247117Y-91762694D01*
X148249500Y-91786885D01*
X148249500Y-108213115D01*
X148247117Y-108237306D01*
X148244592Y-108250000D01*
X148246974Y-108261978D01*
X148246974Y-108274191D01*
X148246781Y-108274191D01*
X148247537Y-108284950D01*
X148247400Y-108287391D01*
X148232602Y-108550894D01*
X148231045Y-108564712D01*
X148181731Y-108854953D01*
X148178637Y-108868510D01*
X148097134Y-109151413D01*
X148092541Y-109164538D01*
X147979879Y-109436528D01*
X147973846Y-109449056D01*
X147831437Y-109706727D01*
X147824039Y-109718501D01*
X147653676Y-109958605D01*
X147645005Y-109969477D01*
X147448829Y-110188997D01*
X147438997Y-110198829D01*
X147219477Y-110395005D01*
X147208605Y-110403676D01*
X146968495Y-110574043D01*
X146956732Y-110581434D01*
X146842625Y-110644499D01*
X146699056Y-110723846D01*
X146686528Y-110729879D01*
X146414538Y-110842541D01*
X146401413Y-110847134D01*
X146118510Y-110928637D01*
X146104953Y-110931731D01*
X145814712Y-110981045D01*
X145800894Y-110982602D01*
X145629045Y-110992253D01*
X145534950Y-110997537D01*
X145524191Y-110996781D01*
X145524191Y-110996974D01*
X145511978Y-110996974D01*
X145500000Y-110994592D01*
X145487345Y-110997109D01*
X145487306Y-110997117D01*
X145463115Y-110999500D01*
X100036885Y-110999500D01*
X100012694Y-110997117D01*
X100012655Y-110997109D01*
X100000000Y-110994592D01*
X99988022Y-110996974D01*
X99975809Y-110996974D01*
X99975809Y-110996781D01*
X99965050Y-110997537D01*
X99870955Y-110992253D01*
X99699106Y-110982602D01*
X99685288Y-110981045D01*
X99395047Y-110931731D01*
X99381490Y-110928637D01*
X99098587Y-110847134D01*
X99085462Y-110842541D01*
X98813472Y-110729879D01*
X98800944Y-110723846D01*
X98657375Y-110644499D01*
X98543268Y-110581434D01*
X98531505Y-110574043D01*
X98291395Y-110403676D01*
X98280523Y-110395005D01*
X98061003Y-110198829D01*
X98051171Y-110188997D01*
X97854995Y-109969477D01*
X97846324Y-109958605D01*
X97675961Y-109718501D01*
X97668563Y-109706727D01*
X97526154Y-109449056D01*
X97520121Y-109436528D01*
X97407459Y-109164538D01*
X97402866Y-109151413D01*
X97321363Y-108868510D01*
X97318269Y-108854953D01*
X97268955Y-108564712D01*
X97267398Y-108550894D01*
X97252600Y-108287391D01*
X97252463Y-108284950D01*
X97253219Y-108274191D01*
X97253026Y-108274191D01*
X97253026Y-108261978D01*
X97255408Y-108250000D01*
X97252883Y-108237306D01*
X97250500Y-108213115D01*
X97250500Y-103639745D01*
X97270185Y-103572706D01*
X97322989Y-103526951D01*
X97392147Y-103517007D01*
X97449986Y-103541369D01*
X97492376Y-103573896D01*
X97506331Y-103581953D01*
X97628149Y-103632412D01*
X97643717Y-103636583D01*
X97741610Y-103649471D01*
X97749683Y-103650000D01*
X98232170Y-103650000D01*
X98247169Y-103645596D01*
X98248356Y-103644226D01*
X98250000Y-103636668D01*
X98250000Y-103632170D01*
X98650000Y-103632170D01*
X98654404Y-103647169D01*
X98655774Y-103648356D01*
X98663332Y-103650000D01*
X99150317Y-103650000D01*
X99158390Y-103649471D01*
X99256283Y-103636583D01*
X99271851Y-103632412D01*
X99393669Y-103581953D01*
X99407624Y-103573896D01*
X99512233Y-103493627D01*
X99523627Y-103482233D01*
X99603896Y-103377624D01*
X99611953Y-103363669D01*
X99662412Y-103241851D01*
X99666583Y-103226283D01*
X99679471Y-103128390D01*
X99680000Y-103120317D01*
X99680000Y-103042830D01*
X99675596Y-103027831D01*
X99674226Y-103026644D01*
X99666668Y-103025000D01*
X98667830Y-103025000D01*
X98652831Y-103029404D01*
X98651644Y-103030774D01*
X98650000Y-103038332D01*
X98650000Y-103632170D01*
X98250000Y-103632170D01*
X98250000Y-102607170D01*
X98650000Y-102607170D01*
X98654404Y-102622169D01*
X98655774Y-102623356D01*
X98663332Y-102625000D01*
X99662170Y-102625000D01*
X99677169Y-102620596D01*
X99678356Y-102619226D01*
X99680000Y-102611668D01*
X99680000Y-102529683D01*
X99679471Y-102521610D01*
X99666583Y-102423717D01*
X99662412Y-102408149D01*
X99611953Y-102286331D01*
X99603896Y-102272376D01*
X99523627Y-102167767D01*
X99512233Y-102156373D01*
X99407624Y-102076104D01*
X99393669Y-102068047D01*
X99271851Y-102017588D01*
X99256283Y-102013417D01*
X99158390Y-102000529D01*
X99150317Y-102000000D01*
X100019534Y-102000000D01*
X100039313Y-102150236D01*
X100042422Y-102157743D01*
X100042423Y-102157745D01*
X100068308Y-102220235D01*
X100097302Y-102290233D01*
X100189549Y-102410451D01*
X100309767Y-102502698D01*
X100374914Y-102529683D01*
X100442255Y-102557577D01*
X100442257Y-102557578D01*
X100449764Y-102560687D01*
X100457823Y-102561748D01*
X100558260Y-102574971D01*
X100558264Y-102574971D01*
X100562280Y-102575500D01*
X100637720Y-102575500D01*
X100641736Y-102574971D01*
X100641740Y-102574971D01*
X100742177Y-102561748D01*
X100750236Y-102560687D01*
X100757743Y-102557578D01*
X100757745Y-102557577D01*
X100825086Y-102529683D01*
X100890233Y-102502698D01*
X101010451Y-102410451D01*
X101102698Y-102290233D01*
X101131692Y-102220235D01*
X101157577Y-102157745D01*
X101157578Y-102157743D01*
X101160687Y-102150236D01*
X101180466Y-102000000D01*
X101160687Y-101849764D01*
X101102698Y-101709767D01*
X101010451Y-101589549D01*
X100997766Y-101579815D01*
X100896680Y-101502249D01*
X100890233Y-101497302D01*
X100812592Y-101465142D01*
X100757745Y-101442423D01*
X100757743Y-101442422D01*
X100750236Y-101439313D01*
X100742177Y-101438252D01*
X100641740Y-101425029D01*
X100641736Y-101425029D01*
X100637720Y-101424500D01*
X100562280Y-101424500D01*
X100558264Y-101425029D01*
X100558260Y-101425029D01*
X100457823Y-101438252D01*
X100449764Y-101439313D01*
X100442257Y-101442422D01*
X100442255Y-101442423D01*
X100387408Y-101465142D01*
X100309767Y-101497302D01*
X100303320Y-101502249D01*
X100202235Y-101579815D01*
X100189549Y-101589549D01*
X100097302Y-101709767D01*
X100039313Y-101849764D01*
X100019534Y-102000000D01*
X99150317Y-102000000D01*
X98667830Y-102000000D01*
X98652831Y-102004404D01*
X98651644Y-102005774D01*
X98650000Y-102013332D01*
X98650000Y-102607170D01*
X98250000Y-102607170D01*
X98250000Y-102017830D01*
X98245596Y-102002831D01*
X98244226Y-102001644D01*
X98236668Y-102000000D01*
X97749683Y-102000000D01*
X97741610Y-102000529D01*
X97643717Y-102013417D01*
X97628149Y-102017588D01*
X97506331Y-102068047D01*
X97492376Y-102076104D01*
X97449986Y-102108631D01*
X97384817Y-102133825D01*
X97316372Y-102119787D01*
X97266383Y-102070973D01*
X97250500Y-102010255D01*
X97250500Y-98983000D01*
X107194750Y-98983000D01*
X107213670Y-99126709D01*
X107269139Y-99260625D01*
X107357379Y-99375621D01*
X107472375Y-99463861D01*
X107479887Y-99466972D01*
X107479886Y-99466972D01*
X107598777Y-99516218D01*
X107598779Y-99516219D01*
X107606291Y-99519330D01*
X107614351Y-99520391D01*
X107614354Y-99520392D01*
X107695437Y-99531067D01*
X107759334Y-99559334D01*
X107766932Y-99566325D01*
X109604426Y-101403819D01*
X109637911Y-101465142D01*
X109632927Y-101534834D01*
X109604426Y-101579181D01*
X108494016Y-102689591D01*
X108494013Y-102689595D01*
X108471450Y-102712158D01*
X108467020Y-102720853D01*
X108461394Y-102731895D01*
X108451228Y-102748484D01*
X108438204Y-102766410D01*
X108435187Y-102775696D01*
X108431357Y-102787481D01*
X108423913Y-102805452D01*
X108418285Y-102816498D01*
X108418283Y-102816503D01*
X108413854Y-102825196D01*
X108412328Y-102834833D01*
X108410389Y-102847075D01*
X108405845Y-102866001D01*
X108399000Y-102887067D01*
X108399000Y-105575554D01*
X108379315Y-105642593D01*
X108373375Y-105651041D01*
X108323589Y-105715923D01*
X108323587Y-105715927D01*
X108318639Y-105722375D01*
X108263170Y-105856291D01*
X108244250Y-106000000D01*
X108263170Y-106143709D01*
X108318639Y-106277625D01*
X108406879Y-106392621D01*
X108521875Y-106480861D01*
X108529387Y-106483972D01*
X108529386Y-106483972D01*
X108648277Y-106533218D01*
X108648279Y-106533219D01*
X108655791Y-106536330D01*
X108799500Y-106555250D01*
X108943209Y-106536330D01*
X108950721Y-106533219D01*
X108950723Y-106533218D01*
X109069614Y-106483972D01*
X109069613Y-106483972D01*
X109077125Y-106480861D01*
X109192121Y-106392621D01*
X109280361Y-106277625D01*
X109335830Y-106143709D01*
X109354750Y-106000000D01*
X109335830Y-105856291D01*
X109280361Y-105722375D01*
X109275413Y-105715927D01*
X109275411Y-105715923D01*
X109225625Y-105651041D01*
X109200430Y-105585872D01*
X109200000Y-105575554D01*
X109200000Y-103167755D01*
X109219685Y-103100716D01*
X109236319Y-103080074D01*
X110233068Y-102083325D01*
X110294391Y-102049840D01*
X110304563Y-102048067D01*
X110385646Y-102037392D01*
X110385649Y-102037391D01*
X110393709Y-102036330D01*
X110401221Y-102033219D01*
X110401223Y-102033218D01*
X110520114Y-101983972D01*
X110520113Y-101983972D01*
X110527625Y-101980861D01*
X110642621Y-101892621D01*
X110730861Y-101777625D01*
X110786330Y-101643709D01*
X110805250Y-101500000D01*
X110786330Y-101356291D01*
X110765189Y-101305250D01*
X110738965Y-101241940D01*
X110730861Y-101222375D01*
X110642621Y-101107379D01*
X110614919Y-101086122D01*
X110534072Y-101024086D01*
X110527625Y-101019139D01*
X110393709Y-100963670D01*
X110336758Y-100956172D01*
X110324141Y-100954511D01*
X110260245Y-100926244D01*
X110252646Y-100919253D01*
X108333325Y-98999932D01*
X108299840Y-98938609D01*
X108298067Y-98928437D01*
X108287392Y-98847354D01*
X108287391Y-98847351D01*
X108286330Y-98839291D01*
X108275620Y-98813433D01*
X108233972Y-98712886D01*
X108230861Y-98705375D01*
X108142621Y-98590379D01*
X108123231Y-98575500D01*
X108034072Y-98507086D01*
X108027625Y-98502139D01*
X107991593Y-98487214D01*
X107901223Y-98449782D01*
X107901221Y-98449781D01*
X107893709Y-98446670D01*
X107750000Y-98427750D01*
X107606291Y-98446670D01*
X107598779Y-98449781D01*
X107598777Y-98449782D01*
X107508407Y-98487214D01*
X107472375Y-98502139D01*
X107465928Y-98507086D01*
X107376770Y-98575500D01*
X107357379Y-98590379D01*
X107269139Y-98705375D01*
X107266028Y-98712886D01*
X107224381Y-98813433D01*
X107213670Y-98839291D01*
X107194750Y-98983000D01*
X97250500Y-98983000D01*
X97250500Y-97989745D01*
X97270185Y-97922706D01*
X97322989Y-97876951D01*
X97392147Y-97867007D01*
X97449986Y-97891369D01*
X97492376Y-97923896D01*
X97506331Y-97931953D01*
X97628149Y-97982412D01*
X97643717Y-97986583D01*
X97741610Y-97999471D01*
X97749683Y-98000000D01*
X98232170Y-98000000D01*
X98247169Y-97995596D01*
X98248356Y-97994226D01*
X98250000Y-97986668D01*
X98250000Y-97982170D01*
X98650000Y-97982170D01*
X98654404Y-97997169D01*
X98655774Y-97998356D01*
X98663332Y-98000000D01*
X99150317Y-98000000D01*
X100019534Y-98000000D01*
X100039313Y-98150236D01*
X100042422Y-98157743D01*
X100042423Y-98157745D01*
X100067632Y-98218604D01*
X100097302Y-98290233D01*
X100189549Y-98410451D01*
X100195992Y-98415395D01*
X100236750Y-98446670D01*
X100309767Y-98502698D01*
X100320361Y-98507086D01*
X100442255Y-98557577D01*
X100442257Y-98557578D01*
X100449764Y-98560687D01*
X100457823Y-98561748D01*
X100558260Y-98574971D01*
X100558264Y-98574971D01*
X100562280Y-98575500D01*
X100637720Y-98575500D01*
X100641736Y-98574971D01*
X100641740Y-98574971D01*
X100742177Y-98561748D01*
X100750236Y-98560687D01*
X100757743Y-98557578D01*
X100757745Y-98557577D01*
X100879639Y-98507086D01*
X100890233Y-98502698D01*
X100963250Y-98446670D01*
X101004008Y-98415395D01*
X101010451Y-98410451D01*
X101102698Y-98290233D01*
X101132368Y-98218604D01*
X101157577Y-98157745D01*
X101157578Y-98157743D01*
X101160687Y-98150236D01*
X101180466Y-98000000D01*
X101160687Y-97849764D01*
X101153426Y-97832233D01*
X101131692Y-97779765D01*
X101102698Y-97709767D01*
X101010451Y-97589549D01*
X100890233Y-97497302D01*
X100820234Y-97468307D01*
X100757745Y-97442423D01*
X100757743Y-97442422D01*
X100750236Y-97439313D01*
X100742177Y-97438252D01*
X100641740Y-97425029D01*
X100641736Y-97425029D01*
X100637720Y-97424500D01*
X100562280Y-97424500D01*
X100558264Y-97425029D01*
X100558260Y-97425029D01*
X100457823Y-97438252D01*
X100449764Y-97439313D01*
X100442257Y-97442422D01*
X100442255Y-97442423D01*
X100379765Y-97468308D01*
X100309767Y-97497302D01*
X100189549Y-97589549D01*
X100097302Y-97709767D01*
X100068308Y-97779765D01*
X100046575Y-97832233D01*
X100039313Y-97849764D01*
X100019534Y-98000000D01*
X99150317Y-98000000D01*
X99158390Y-97999471D01*
X99256283Y-97986583D01*
X99271851Y-97982412D01*
X99393669Y-97931953D01*
X99407624Y-97923896D01*
X99512233Y-97843627D01*
X99523627Y-97832233D01*
X99603896Y-97727624D01*
X99611953Y-97713669D01*
X99662412Y-97591851D01*
X99666583Y-97576283D01*
X99679471Y-97478390D01*
X99680000Y-97470317D01*
X99680000Y-97392830D01*
X99675596Y-97377831D01*
X99674226Y-97376644D01*
X99666668Y-97375000D01*
X98667830Y-97375000D01*
X98652831Y-97379404D01*
X98651644Y-97380774D01*
X98650000Y-97388332D01*
X98650000Y-97982170D01*
X98250000Y-97982170D01*
X98250000Y-96957170D01*
X98650000Y-96957170D01*
X98654404Y-96972169D01*
X98655774Y-96973356D01*
X98663332Y-96975000D01*
X99662170Y-96975000D01*
X99677169Y-96970596D01*
X99678356Y-96969226D01*
X99680000Y-96961668D01*
X99680000Y-96879683D01*
X99679471Y-96871610D01*
X99666583Y-96773717D01*
X99662412Y-96758149D01*
X99611953Y-96636331D01*
X99603896Y-96622376D01*
X99523627Y-96517767D01*
X99512233Y-96506373D01*
X99407624Y-96426104D01*
X99393669Y-96418047D01*
X99271851Y-96367588D01*
X99256283Y-96363417D01*
X99158390Y-96350529D01*
X99150317Y-96350000D01*
X98667830Y-96350000D01*
X98652831Y-96354404D01*
X98651644Y-96355774D01*
X98650000Y-96363332D01*
X98650000Y-96957170D01*
X98250000Y-96957170D01*
X98250000Y-96367830D01*
X98245596Y-96352831D01*
X98244226Y-96351644D01*
X98236668Y-96350000D01*
X97749683Y-96350000D01*
X97741610Y-96350529D01*
X97643717Y-96363417D01*
X97628149Y-96367588D01*
X97506331Y-96418047D01*
X97492376Y-96426104D01*
X97449986Y-96458631D01*
X97384817Y-96483825D01*
X97316372Y-96469787D01*
X97266383Y-96420973D01*
X97250500Y-96360255D01*
X97250500Y-91786885D01*
X97252883Y-91762694D01*
X97253025Y-91761979D01*
X97255408Y-91750000D01*
X97253026Y-91738022D01*
X97253026Y-91725809D01*
X97253219Y-91725809D01*
X97252463Y-91715048D01*
X97252860Y-91707989D01*
X97267398Y-91449106D01*
X97268955Y-91435288D01*
X97316203Y-91157206D01*
X97318269Y-91145046D01*
X97321363Y-91131490D01*
X97329011Y-91104945D01*
X97402866Y-90848587D01*
X97407459Y-90835462D01*
X97520121Y-90563472D01*
X97526154Y-90550944D01*
X97574892Y-90462759D01*
X116167441Y-90462759D01*
X116209921Y-90630022D01*
X116213694Y-90640677D01*
X116297426Y-90822305D01*
X116303082Y-90832101D01*
X116418508Y-90995426D01*
X116425859Y-91004032D01*
X116569107Y-91143579D01*
X116577908Y-91150706D01*
X116744186Y-91261809D01*
X116754144Y-91267216D01*
X116937879Y-91346154D01*
X116948661Y-91349658D01*
X117082609Y-91379967D01*
X117096462Y-91379092D01*
X117100000Y-91369843D01*
X117100000Y-91365279D01*
X117500000Y-91365279D01*
X117503903Y-91378573D01*
X117517681Y-91380546D01*
X117563986Y-91373832D01*
X117574999Y-91371187D01*
X117764361Y-91306908D01*
X117774713Y-91302299D01*
X117949195Y-91204585D01*
X117958535Y-91198165D01*
X118112284Y-91070294D01*
X118120294Y-91062284D01*
X118248165Y-90908535D01*
X118254585Y-90899195D01*
X118352299Y-90724713D01*
X118356908Y-90714361D01*
X118421187Y-90524999D01*
X118423832Y-90513986D01*
X118430551Y-90467645D01*
X118428595Y-90453929D01*
X118415245Y-90450000D01*
X117517830Y-90450000D01*
X117502831Y-90454404D01*
X117501644Y-90455774D01*
X117500000Y-90463332D01*
X117500000Y-91365279D01*
X117100000Y-91365279D01*
X117100000Y-90467830D01*
X117095596Y-90452831D01*
X117094226Y-90451644D01*
X117086668Y-90450000D01*
X116182031Y-90450000D01*
X116168714Y-90453910D01*
X116167441Y-90462759D01*
X97574892Y-90462759D01*
X97668563Y-90293273D01*
X97675961Y-90281499D01*
X97695714Y-90253661D01*
X97846324Y-90041395D01*
X97854995Y-90030523D01*
X98051171Y-89811003D01*
X98061003Y-89801171D01*
X98280523Y-89604995D01*
X98291395Y-89596324D01*
X98360825Y-89547061D01*
X98531505Y-89425957D01*
X98543268Y-89418566D01*
X98689774Y-89337595D01*
X98800944Y-89276154D01*
X98813472Y-89270121D01*
X99085462Y-89157459D01*
X99098587Y-89152866D01*
X99381490Y-89071363D01*
X99395047Y-89068269D01*
X99685288Y-89018955D01*
X99699106Y-89017398D01*
X99870955Y-89007747D01*
X99965050Y-89002463D01*
X99975809Y-89003219D01*
X99975809Y-89003026D01*
X99988022Y-89003026D01*
X100000000Y-89005408D01*
X100012694Y-89002883D01*
X100036885Y-89000500D01*
X116699913Y-89000500D01*
X116766952Y-89020185D01*
G37*
%TD.AperFunction*%
%TA.AperFunction,Conductor*%
G36*
X131305703Y-89520387D02*
G01*
X131312181Y-89526419D01*
X131313181Y-89527419D01*
X131346666Y-89588742D01*
X131349500Y-89615100D01*
X131349500Y-97782746D01*
X131329815Y-97849785D01*
X131313181Y-97870427D01*
X129766932Y-99416675D01*
X129705609Y-99450160D01*
X129695437Y-99451933D01*
X129614354Y-99462608D01*
X129614351Y-99462609D01*
X129606291Y-99463670D01*
X129598779Y-99466781D01*
X129598777Y-99466782D01*
X129524571Y-99497519D01*
X129472375Y-99519139D01*
X129357379Y-99607379D01*
X129269139Y-99722375D01*
X129266028Y-99729886D01*
X129218665Y-99844233D01*
X129213670Y-99856291D01*
X129194750Y-100000000D01*
X129213670Y-100143709D01*
X129216781Y-100151221D01*
X129216782Y-100151223D01*
X129221039Y-100161500D01*
X129269139Y-100277625D01*
X129357379Y-100392621D01*
X129363822Y-100397565D01*
X129438184Y-100454625D01*
X129472375Y-100480861D01*
X129479887Y-100483972D01*
X129479886Y-100483972D01*
X129598777Y-100533218D01*
X129598779Y-100533219D01*
X129606291Y-100536330D01*
X129750000Y-100555250D01*
X129893709Y-100536330D01*
X129901221Y-100533219D01*
X129901223Y-100533218D01*
X130020114Y-100483972D01*
X130020113Y-100483972D01*
X130027625Y-100480861D01*
X130061816Y-100454625D01*
X130136178Y-100397565D01*
X130142621Y-100392621D01*
X130230861Y-100277625D01*
X130278961Y-100161500D01*
X130283218Y-100151223D01*
X130283219Y-100151221D01*
X130286330Y-100143709D01*
X130294909Y-100078553D01*
X130298067Y-100054563D01*
X130326334Y-99990666D01*
X130333325Y-99983068D01*
X132055483Y-98260909D01*
X132078050Y-98238342D01*
X132088108Y-98218603D01*
X132098274Y-98202013D01*
X132105560Y-98191985D01*
X132111296Y-98184090D01*
X132114312Y-98174808D01*
X132115015Y-98173428D01*
X132162989Y-98122632D01*
X132230810Y-98105837D01*
X132296945Y-98128374D01*
X132340397Y-98183089D01*
X132349500Y-98229723D01*
X132349500Y-98532745D01*
X132329815Y-98599784D01*
X132313181Y-98620426D01*
X130694516Y-100239091D01*
X130694513Y-100239095D01*
X129370426Y-101563181D01*
X129309103Y-101596666D01*
X129282745Y-101599500D01*
X127886668Y-101599500D01*
X127819629Y-101579815D01*
X127773874Y-101527011D01*
X127763930Y-101457853D01*
X127772106Y-101428049D01*
X127782142Y-101403819D01*
X127786330Y-101393709D01*
X127805250Y-101250000D01*
X127800764Y-101215928D01*
X127795147Y-101173259D01*
X127805913Y-101104224D01*
X127852293Y-101051968D01*
X127885837Y-101037366D01*
X127893709Y-101036330D01*
X128027625Y-100980861D01*
X128093524Y-100930295D01*
X128136178Y-100897565D01*
X128142621Y-100892621D01*
X128230861Y-100777625D01*
X128253752Y-100722360D01*
X128283218Y-100651223D01*
X128283219Y-100651221D01*
X128286330Y-100643709D01*
X128305250Y-100500000D01*
X128286330Y-100356291D01*
X128230861Y-100222375D01*
X128142621Y-100107379D01*
X128027625Y-100019139D01*
X127981419Y-100000000D01*
X127901223Y-99966782D01*
X127901221Y-99966781D01*
X127893709Y-99963670D01*
X127750000Y-99944750D01*
X127606291Y-99963670D01*
X127598779Y-99966781D01*
X127598777Y-99966782D01*
X127479888Y-100016027D01*
X127472375Y-100019139D01*
X127467758Y-100022682D01*
X127400901Y-100038903D01*
X127334873Y-100016052D01*
X127319117Y-100002724D01*
X125186819Y-97870426D01*
X125153334Y-97809103D01*
X125150500Y-97782745D01*
X125150500Y-92524500D01*
X125170185Y-92457461D01*
X125222989Y-92411706D01*
X125274500Y-92400500D01*
X128313433Y-92400500D01*
X128334499Y-92393655D01*
X128353424Y-92389111D01*
X128375304Y-92385646D01*
X128383997Y-92381217D01*
X128384002Y-92381215D01*
X128395048Y-92375587D01*
X128413019Y-92368143D01*
X128421653Y-92365337D01*
X128434090Y-92361296D01*
X128452016Y-92348272D01*
X128468602Y-92338108D01*
X128488342Y-92328050D01*
X128510905Y-92305487D01*
X128510909Y-92305484D01*
X129429574Y-91386819D01*
X129490897Y-91353334D01*
X129517255Y-91350500D01*
X130874674Y-91350500D01*
X130880650Y-91349311D01*
X130880653Y-91349311D01*
X130913687Y-91342740D01*
X130947740Y-91335966D01*
X131030601Y-91280601D01*
X131039545Y-91267216D01*
X131079180Y-91207896D01*
X131085966Y-91197740D01*
X131095322Y-91150706D01*
X131099311Y-91130653D01*
X131099311Y-91130650D01*
X131100500Y-91124674D01*
X131100500Y-89614100D01*
X131120185Y-89547061D01*
X131172989Y-89501306D01*
X131242147Y-89491362D01*
X131305703Y-89520387D01*
G37*
%TD.AperFunction*%
%TD*%
M02*
