%TF.GenerationSoftware,KiCad,Pcbnew,(6.0.7)*%
%TF.CreationDate,2023-06-20T16:23:11-04:00*%
%TF.ProjectId,microkfd,6d696372-6f6b-4666-942e-6b696361645f,E*%
%TF.SameCoordinates,Original*%
%TF.FileFunction,Copper,L2,Bot*%
%TF.FilePolarity,Positive*%
%FSLAX46Y46*%
G04 Gerber Fmt 4.6, Leading zero omitted, Abs format (unit mm)*
G04 Created by KiCad (PCBNEW (6.0.7)) date 2023-06-20 16:23:11*
%MOMM*%
%LPD*%
G01*
G04 APERTURE LIST*
%TA.AperFunction,ComponentPad*%
%ADD10O,2.100000X1.000000*%
%TD*%
%TA.AperFunction,ComponentPad*%
%ADD11O,1.600000X1.000000*%
%TD*%
%TA.AperFunction,WasherPad*%
%ADD12C,1.600000*%
%TD*%
%TA.AperFunction,ComponentPad*%
%ADD13R,1.700000X1.700000*%
%TD*%
%TA.AperFunction,ComponentPad*%
%ADD14O,1.700000X1.700000*%
%TD*%
%TA.AperFunction,ViaPad*%
%ADD15C,0.600000*%
%TD*%
%TA.AperFunction,ViaPad*%
%ADD16C,0.800000*%
%TD*%
%TA.AperFunction,Conductor*%
%ADD17C,0.300000*%
%TD*%
G04 APERTURE END LIST*
D10*
%TO.P,J1,S1,SHIELD*%
%TO.N,GND*%
X99070000Y-104320000D03*
X99070000Y-95680000D03*
D11*
X94890000Y-95680000D03*
X94890000Y-104320000D03*
%TD*%
D12*
%TO.P,J3,*%
%TO.N,*%
X139250000Y-100000000D03*
X145250000Y-100000000D03*
%TD*%
D13*
%TO.P,J2,1,MISO*%
%TO.N,MISO*%
X130000000Y-90250000D03*
D14*
%TO.P,J2,2,VCC*%
%TO.N,+5V*%
X127460000Y-90250000D03*
%TO.P,J2,3,SCK*%
%TO.N,SCK*%
X124920000Y-90250000D03*
%TO.P,J2,4,MOSI*%
%TO.N,MOSI*%
X122380000Y-90250000D03*
%TO.P,J2,5,~{RST}*%
%TO.N,~{RESET}*%
X119840000Y-90250000D03*
%TO.P,J2,6,GND*%
%TO.N,GND*%
X117300000Y-90250000D03*
%TD*%
D15*
%TO.N,GND*%
X113750000Y-95750000D03*
X100000000Y-89250000D03*
X124000000Y-106500000D03*
X107750000Y-102000000D03*
X112750000Y-95750000D03*
X125000000Y-110500000D03*
X147250000Y-101250000D03*
X126500000Y-94500000D03*
X147250000Y-102500000D03*
X110000000Y-89250000D03*
X113750000Y-110500000D03*
X108750000Y-89250000D03*
X146250000Y-105000000D03*
X113750000Y-89250000D03*
X107750000Y-103000000D03*
X146250000Y-103750000D03*
X117250000Y-100500000D03*
X103750000Y-89250000D03*
X94250000Y-107500000D03*
X108500000Y-101500000D03*
X106250000Y-89250000D03*
X123750000Y-104000000D03*
X147250000Y-105000000D03*
X147250000Y-103750000D03*
X146250000Y-102500000D03*
X118750000Y-110500000D03*
X123750000Y-110500000D03*
X122500000Y-110500000D03*
X115000000Y-89250000D03*
X122750000Y-98250000D03*
X127250000Y-95250000D03*
X112500000Y-89250000D03*
X102500000Y-89250000D03*
X128000000Y-94500000D03*
X147250000Y-98750000D03*
X118000000Y-99750000D03*
X139750000Y-109000000D03*
X121750000Y-99000000D03*
X124500000Y-103250000D03*
X146250000Y-101250000D03*
X95250000Y-110000000D03*
X111750000Y-95750000D03*
X146250000Y-98750000D03*
X126250000Y-110500000D03*
X111250000Y-89250000D03*
X147250000Y-100000000D03*
X117500000Y-110500000D03*
X94250000Y-106250000D03*
X115000000Y-110500000D03*
X105000000Y-89250000D03*
X107750000Y-101000000D03*
X94500000Y-109000000D03*
X107500000Y-89250000D03*
X118000000Y-101250000D03*
X101250000Y-89250000D03*
X122500000Y-102500000D03*
X112750000Y-96750000D03*
X124000000Y-107750000D03*
X116250000Y-110500000D03*
%TO.N,~{RESET}*%
X121500000Y-94292393D03*
%TO.N,TWI_D_RX*%
X132750000Y-95750000D03*
X122750000Y-99250000D03*
%TO.N,TWI_S_RX*%
X121000000Y-100000000D03*
X132000000Y-107750000D03*
%TO.N,MISO*%
X127750000Y-100500000D03*
%TO.N,SCK*%
X129750000Y-100000000D03*
%TO.N,MOSI*%
X127250000Y-101250000D03*
%TO.N,TWI_D_TX*%
X132750000Y-94500000D03*
X125500000Y-108000000D03*
%TO.N,TWI_S_TX*%
X122500000Y-100750000D03*
X131750000Y-109000000D03*
D16*
%TO.N,Net-(C3-Pad1)*%
X109713000Y-106000000D03*
D15*
X110250000Y-101500000D03*
X107750000Y-98983000D03*
%TO.N,Net-(J1-PadA5)*%
X97750000Y-101250000D03*
X102750000Y-105750000D03*
D16*
%TO.N,Net-(J1-PadB5)*%
X101250000Y-105750000D03*
X96750000Y-95250000D03*
%TD*%
D17*
%TO.N,~{RESET}*%
X119840000Y-90250000D02*
X121500000Y-91910000D01*
X121500000Y-91910000D02*
X121500000Y-94292393D01*
%TO.N,TWI_D_RX*%
X126957106Y-102000000D02*
X128750000Y-102000000D01*
X132750000Y-98750000D02*
X132750000Y-95750000D01*
X131000000Y-100500000D02*
X132750000Y-98750000D01*
X126750000Y-101792894D02*
X126957106Y-102000000D01*
X128750000Y-102000000D02*
X129500000Y-102000000D01*
X125500000Y-100250000D02*
X125500000Y-100542894D01*
X129500000Y-102000000D02*
X131000000Y-100500000D01*
X124500000Y-99250000D02*
X125500000Y-100250000D01*
X125500000Y-100542894D02*
X126750000Y-101792894D01*
X122750000Y-99250000D02*
X124500000Y-99250000D01*
%TO.N,TWI_S_RX*%
X121000000Y-100000000D02*
X124250000Y-100000000D01*
X124250000Y-100000000D02*
X132000000Y-107750000D01*
%TO.N,MISO*%
X124750000Y-98000000D02*
X127000000Y-100250000D01*
X128250000Y-92000000D02*
X124750000Y-92000000D01*
X124750000Y-92000000D02*
X124750000Y-98000000D01*
X130000000Y-90250000D02*
X128250000Y-92000000D01*
X127250000Y-100500000D02*
X127750000Y-100500000D01*
X127000000Y-100250000D02*
X127250000Y-100500000D01*
%TO.N,SCK*%
X131750000Y-89397845D02*
X131750000Y-98000000D01*
X131750000Y-98000000D02*
X129750000Y-100000000D01*
X124920000Y-90250000D02*
X126120000Y-89050000D01*
X131402155Y-89050000D02*
X131750000Y-89397845D01*
X126120000Y-89050000D02*
X131402155Y-89050000D01*
%TO.N,MOSI*%
X124000000Y-98000000D02*
X124000000Y-91870000D01*
X127250000Y-101250000D02*
X124000000Y-98000000D01*
X124000000Y-91870000D02*
X122380000Y-90250000D01*
%TO.N,TWI_D_TX*%
X133750000Y-102250000D02*
X132500000Y-103500000D01*
X132750000Y-94500000D02*
X133750000Y-95500000D01*
X132500000Y-109750000D02*
X132250000Y-110000000D01*
X133250000Y-109000000D02*
X132500000Y-109750000D01*
X133750000Y-98750000D02*
X133750000Y-102250000D01*
X132500000Y-106500000D02*
X133250000Y-107250000D01*
X125500000Y-108250000D02*
X125500000Y-108000000D01*
X133750000Y-95500000D02*
X133750000Y-98750000D01*
X132250000Y-110000000D02*
X127250000Y-110000000D01*
X133250000Y-107250000D02*
X133250000Y-109000000D01*
X127250000Y-110000000D02*
X125500000Y-108250000D01*
X132500000Y-103500000D02*
X132500000Y-106500000D01*
%TO.N,TWI_S_TX*%
X131500000Y-109000000D02*
X131750000Y-109000000D01*
X124000000Y-101500000D02*
X123250000Y-100750000D01*
X123250000Y-100750000D02*
X122500000Y-100750000D01*
X124000000Y-101500000D02*
X130000000Y-107500000D01*
X130000000Y-107500000D02*
X131500000Y-109000000D01*
%TO.N,Net-(C3-Pad1)*%
X110250000Y-105463000D02*
X109713000Y-106000000D01*
X110250000Y-101483000D02*
X110250000Y-101500000D01*
X110250000Y-101500000D02*
X110250000Y-103250000D01*
X110250000Y-103250000D02*
X110250000Y-105463000D01*
X107750000Y-98983000D02*
X110250000Y-101483000D01*
%TO.N,Net-(J1-PadA5)*%
X102750000Y-104250000D02*
X102750000Y-105750000D01*
X101250000Y-102750000D02*
X102750000Y-104250000D01*
X97750000Y-101250000D02*
X99750000Y-101250000D01*
X99750000Y-101250000D02*
X101250000Y-102750000D01*
%TO.N,Net-(J1-PadB5)*%
X101250000Y-105750000D02*
X97500000Y-105750000D01*
X97500000Y-105750000D02*
X97000000Y-105250000D01*
X96750000Y-100250000D02*
X96750000Y-95250000D01*
X96750000Y-105000000D02*
X96750000Y-100250000D01*
X97000000Y-105250000D02*
X96750000Y-105000000D01*
%TD*%
%TA.AperFunction,Conductor*%
%TO.N,GND*%
G36*
X116766952Y-89020185D02*
G01*
X116812707Y-89072989D01*
X116822651Y-89142147D01*
X116793626Y-89205703D01*
X116763313Y-89231067D01*
X116626035Y-89312738D01*
X116616877Y-89319392D01*
X116466518Y-89451254D01*
X116458728Y-89459463D01*
X116334916Y-89616518D01*
X116328751Y-89626011D01*
X116235633Y-89803000D01*
X116231300Y-89813461D01*
X116171998Y-90004444D01*
X116169642Y-90015526D01*
X116167658Y-90032293D01*
X116170062Y-90046488D01*
X116182600Y-90050000D01*
X118418720Y-90050000D01*
X118433037Y-90045796D01*
X118434560Y-90036838D01*
X118434044Y-90034057D01*
X118379760Y-89841583D01*
X118375703Y-89831013D01*
X118287252Y-89651652D01*
X118281333Y-89641994D01*
X118161682Y-89481762D01*
X118154101Y-89473342D01*
X118007250Y-89337595D01*
X117998265Y-89330700D01*
X117837666Y-89229370D01*
X117791473Y-89176949D01*
X117780953Y-89107876D01*
X117809448Y-89044081D01*
X117867909Y-89005818D01*
X117903834Y-89000500D01*
X119352752Y-89000500D01*
X119419791Y-89020185D01*
X119465546Y-89072989D01*
X119475490Y-89142147D01*
X119446465Y-89205703D01*
X119395671Y-89240836D01*
X119369521Y-89250483D01*
X119369517Y-89250485D01*
X119364193Y-89252449D01*
X119359310Y-89255354D01*
X119359308Y-89255355D01*
X119232004Y-89331093D01*
X119190371Y-89355862D01*
X119038305Y-89489220D01*
X118913089Y-89648057D01*
X118818914Y-89827053D01*
X118817229Y-89832479D01*
X118817228Y-89832482D01*
X118779421Y-89954244D01*
X118758937Y-90020213D01*
X118735164Y-90221069D01*
X118735535Y-90226731D01*
X118735535Y-90226735D01*
X118740851Y-90307842D01*
X118748392Y-90422894D01*
X118798178Y-90618928D01*
X118800554Y-90624082D01*
X118808205Y-90640677D01*
X118882856Y-90802607D01*
X118999588Y-90967780D01*
X119144466Y-91108913D01*
X119312637Y-91221282D01*
X119498470Y-91301122D01*
X119563222Y-91315774D01*
X119690193Y-91344505D01*
X119690195Y-91344505D01*
X119695740Y-91345760D01*
X119813135Y-91350372D01*
X119892161Y-91353477D01*
X119892163Y-91353477D01*
X119897842Y-91353700D01*
X119903462Y-91352885D01*
X119903465Y-91352885D01*
X120092387Y-91325493D01*
X120092389Y-91325493D01*
X120098007Y-91324678D01*
X120103384Y-91322853D01*
X120103387Y-91322852D01*
X120211841Y-91286036D01*
X120281650Y-91283126D01*
X120339381Y-91315774D01*
X121063181Y-92039574D01*
X121096666Y-92100897D01*
X121099500Y-92127255D01*
X121099500Y-93867947D01*
X121079815Y-93934986D01*
X121073875Y-93943434D01*
X121024089Y-94008316D01*
X121024087Y-94008320D01*
X121019139Y-94014768D01*
X121014801Y-94025241D01*
X120970342Y-94132577D01*
X120963670Y-94148684D01*
X120944750Y-94292393D01*
X120963670Y-94436102D01*
X120966781Y-94443614D01*
X120966782Y-94443616D01*
X120971750Y-94455609D01*
X121019139Y-94570018D01*
X121107379Y-94685014D01*
X121222375Y-94773254D01*
X121229887Y-94776365D01*
X121229886Y-94776365D01*
X121348777Y-94825611D01*
X121348779Y-94825612D01*
X121356291Y-94828723D01*
X121500000Y-94847643D01*
X121643709Y-94828723D01*
X121651221Y-94825612D01*
X121651223Y-94825611D01*
X121770114Y-94776365D01*
X121770113Y-94776365D01*
X121777625Y-94773254D01*
X121892621Y-94685014D01*
X121980861Y-94570018D01*
X122028250Y-94455609D01*
X122033218Y-94443616D01*
X122033219Y-94443614D01*
X122036330Y-94436102D01*
X122055250Y-94292393D01*
X122036330Y-94148684D01*
X122029659Y-94132577D01*
X121985199Y-94025241D01*
X121980861Y-94014768D01*
X121975913Y-94008320D01*
X121975911Y-94008316D01*
X121926125Y-93943434D01*
X121900930Y-93878265D01*
X121900500Y-93867947D01*
X121900500Y-91846567D01*
X121893653Y-91825494D01*
X121889111Y-91806574D01*
X121887173Y-91794338D01*
X121885646Y-91784696D01*
X121880540Y-91774674D01*
X121875588Y-91764956D01*
X121868142Y-91746979D01*
X121864312Y-91735192D01*
X121861297Y-91725911D01*
X121848270Y-91707981D01*
X121838108Y-91691398D01*
X121832480Y-91680353D01*
X121828050Y-91671658D01*
X121805487Y-91649095D01*
X121805484Y-91649091D01*
X120905774Y-90749381D01*
X120872289Y-90688058D01*
X120876036Y-90621841D01*
X120912852Y-90513387D01*
X120912853Y-90513384D01*
X120914678Y-90508007D01*
X120920530Y-90467645D01*
X120943176Y-90311458D01*
X120943176Y-90311453D01*
X120943700Y-90307842D01*
X120945215Y-90250000D01*
X120926708Y-90048591D01*
X120871807Y-89853926D01*
X120782351Y-89672527D01*
X120661335Y-89510467D01*
X120512812Y-89373174D01*
X120480762Y-89352952D01*
X120346566Y-89268280D01*
X120346564Y-89268279D01*
X120341757Y-89265246D01*
X120277655Y-89239672D01*
X120222682Y-89196547D01*
X120199752Y-89130548D01*
X120216143Y-89062628D01*
X120266653Y-89014352D01*
X120323604Y-89000500D01*
X121892752Y-89000500D01*
X121959791Y-89020185D01*
X122005546Y-89072989D01*
X122015490Y-89142147D01*
X121986465Y-89205703D01*
X121935671Y-89240836D01*
X121909521Y-89250483D01*
X121909517Y-89250485D01*
X121904193Y-89252449D01*
X121899310Y-89255354D01*
X121899308Y-89255355D01*
X121772004Y-89331093D01*
X121730371Y-89355862D01*
X121578305Y-89489220D01*
X121453089Y-89648057D01*
X121358914Y-89827053D01*
X121357229Y-89832479D01*
X121357228Y-89832482D01*
X121319421Y-89954244D01*
X121298937Y-90020213D01*
X121275164Y-90221069D01*
X121275535Y-90226731D01*
X121275535Y-90226735D01*
X121280851Y-90307842D01*
X121288392Y-90422894D01*
X121338178Y-90618928D01*
X121340554Y-90624082D01*
X121348205Y-90640677D01*
X121422856Y-90802607D01*
X121539588Y-90967780D01*
X121684466Y-91108913D01*
X121852637Y-91221282D01*
X122038470Y-91301122D01*
X122103222Y-91315774D01*
X122230193Y-91344505D01*
X122230195Y-91344505D01*
X122235740Y-91345760D01*
X122353135Y-91350372D01*
X122432161Y-91353477D01*
X122432163Y-91353477D01*
X122437842Y-91353700D01*
X122443462Y-91352885D01*
X122443465Y-91352885D01*
X122632387Y-91325493D01*
X122632389Y-91325493D01*
X122638007Y-91324678D01*
X122643384Y-91322853D01*
X122643387Y-91322852D01*
X122751841Y-91286036D01*
X122821650Y-91283126D01*
X122879381Y-91315774D01*
X123563181Y-91999574D01*
X123596666Y-92060897D01*
X123599500Y-92087255D01*
X123599500Y-98063433D01*
X123602515Y-98072711D01*
X123606345Y-98084499D01*
X123610889Y-98103424D01*
X123614354Y-98125304D01*
X123618783Y-98133997D01*
X123618785Y-98134002D01*
X123624413Y-98145048D01*
X123631857Y-98163019D01*
X123634663Y-98171653D01*
X123638704Y-98184090D01*
X123651726Y-98202013D01*
X123661892Y-98218602D01*
X123671950Y-98238342D01*
X123694513Y-98260905D01*
X123694516Y-98260909D01*
X124071426Y-98637819D01*
X124104911Y-98699142D01*
X124099927Y-98768834D01*
X124058055Y-98824767D01*
X123992591Y-98849184D01*
X123983745Y-98849500D01*
X123174446Y-98849500D01*
X123107407Y-98829815D01*
X123098959Y-98823875D01*
X123034077Y-98774089D01*
X123034072Y-98774086D01*
X123027625Y-98769139D01*
X122991593Y-98754214D01*
X122901223Y-98716782D01*
X122901221Y-98716781D01*
X122893709Y-98713670D01*
X122750000Y-98694750D01*
X122606291Y-98713670D01*
X122598779Y-98716781D01*
X122598777Y-98716782D01*
X122508407Y-98754214D01*
X122472375Y-98769139D01*
X122465928Y-98774086D01*
X122399880Y-98824767D01*
X122357379Y-98857379D01*
X122269139Y-98972375D01*
X122213670Y-99106291D01*
X122194750Y-99250000D01*
X122213670Y-99393709D01*
X122227894Y-99428049D01*
X122235361Y-99497519D01*
X122204085Y-99559997D01*
X122143996Y-99595649D01*
X122113332Y-99599500D01*
X121424446Y-99599500D01*
X121357407Y-99579815D01*
X121348959Y-99573875D01*
X121284077Y-99524089D01*
X121284072Y-99524086D01*
X121277625Y-99519139D01*
X121225429Y-99497519D01*
X121151223Y-99466782D01*
X121151221Y-99466781D01*
X121143709Y-99463670D01*
X121000000Y-99444750D01*
X120856291Y-99463670D01*
X120848779Y-99466781D01*
X120848777Y-99466782D01*
X120774571Y-99497519D01*
X120722375Y-99519139D01*
X120607379Y-99607379D01*
X120519139Y-99722375D01*
X120516028Y-99729886D01*
X120489070Y-99794970D01*
X120463670Y-99856291D01*
X120444750Y-100000000D01*
X120463670Y-100143709D01*
X120519139Y-100277625D01*
X120607379Y-100392621D01*
X120613822Y-100397565D01*
X120699261Y-100463125D01*
X120722375Y-100480861D01*
X120729887Y-100483972D01*
X120729886Y-100483972D01*
X120848777Y-100533218D01*
X120848779Y-100533219D01*
X120856291Y-100536330D01*
X121000000Y-100555250D01*
X121143709Y-100536330D01*
X121151221Y-100533219D01*
X121151223Y-100533218D01*
X121270114Y-100483972D01*
X121270113Y-100483972D01*
X121277625Y-100480861D01*
X121284073Y-100475913D01*
X121284077Y-100475911D01*
X121348959Y-100426125D01*
X121414128Y-100400930D01*
X121424446Y-100400500D01*
X121863332Y-100400500D01*
X121930371Y-100420185D01*
X121976126Y-100472989D01*
X121986070Y-100542147D01*
X121977894Y-100571950D01*
X121963670Y-100606291D01*
X121944750Y-100750000D01*
X121963670Y-100893709D01*
X121966781Y-100901221D01*
X121966782Y-100901223D01*
X121992209Y-100962609D01*
X122019139Y-101027625D01*
X122107379Y-101142621D01*
X122113822Y-101147565D01*
X122199261Y-101213125D01*
X122222375Y-101230861D01*
X122258407Y-101245786D01*
X122348777Y-101283218D01*
X122348779Y-101283219D01*
X122356291Y-101286330D01*
X122500000Y-101305250D01*
X122643709Y-101286330D01*
X122651221Y-101283219D01*
X122651223Y-101283218D01*
X122741593Y-101245786D01*
X122777625Y-101230861D01*
X122784073Y-101225913D01*
X122784077Y-101225911D01*
X122848959Y-101176125D01*
X122914128Y-101150930D01*
X122924446Y-101150500D01*
X123032745Y-101150500D01*
X123099784Y-101170185D01*
X123120426Y-101186819D01*
X123694516Y-101760909D01*
X129694513Y-107760905D01*
X129694516Y-107760909D01*
X131171950Y-109238342D01*
X131261658Y-109328050D01*
X131281396Y-109338107D01*
X131297986Y-109348274D01*
X131315910Y-109361296D01*
X131321660Y-109363164D01*
X131350044Y-109383786D01*
X131352432Y-109386174D01*
X131355021Y-109389548D01*
X131387562Y-109449142D01*
X131382578Y-109518834D01*
X131340706Y-109574767D01*
X131275242Y-109599184D01*
X131266396Y-109599500D01*
X127467255Y-109599500D01*
X127400216Y-109579815D01*
X127379574Y-109563181D01*
X126069978Y-108253585D01*
X126036493Y-108192262D01*
X126037644Y-108143882D01*
X126036330Y-108143709D01*
X126054189Y-108008059D01*
X126055250Y-108000000D01*
X126036330Y-107856291D01*
X126014904Y-107804562D01*
X125983972Y-107729886D01*
X125980861Y-107722375D01*
X125892621Y-107607379D01*
X125777625Y-107519139D01*
X125741593Y-107504214D01*
X125651223Y-107466782D01*
X125651221Y-107466781D01*
X125643709Y-107463670D01*
X125500000Y-107444750D01*
X125356291Y-107463670D01*
X125348779Y-107466781D01*
X125348777Y-107466782D01*
X125258407Y-107504214D01*
X125222375Y-107519139D01*
X125107379Y-107607379D01*
X125019139Y-107722375D01*
X125016028Y-107729886D01*
X124985097Y-107804562D01*
X124963670Y-107856291D01*
X124944750Y-108000000D01*
X124963670Y-108143709D01*
X124966781Y-108151221D01*
X124966782Y-108151223D01*
X124992418Y-108213115D01*
X125019139Y-108277625D01*
X125107379Y-108392621D01*
X125113821Y-108397564D01*
X125116214Y-108399957D01*
X125136835Y-108428339D01*
X125138704Y-108434090D01*
X125151728Y-108452016D01*
X125161892Y-108468602D01*
X125171950Y-108488342D01*
X125194513Y-108510905D01*
X125194516Y-108510909D01*
X126989091Y-110305484D01*
X126989095Y-110305487D01*
X127011658Y-110328050D01*
X127031401Y-110338109D01*
X127047988Y-110348274D01*
X127058017Y-110355561D01*
X127058019Y-110355562D01*
X127065911Y-110361296D01*
X127075190Y-110364311D01*
X127086978Y-110368141D01*
X127104954Y-110375587D01*
X127124696Y-110385646D01*
X127146576Y-110389111D01*
X127165501Y-110393655D01*
X127186567Y-110400500D01*
X132313433Y-110400500D01*
X132334499Y-110393655D01*
X132353424Y-110389111D01*
X132375304Y-110385646D01*
X132383997Y-110381217D01*
X132384002Y-110381215D01*
X132395048Y-110375587D01*
X132413019Y-110368143D01*
X132421653Y-110365337D01*
X132434090Y-110361296D01*
X132452016Y-110348272D01*
X132468602Y-110338108D01*
X132488342Y-110328050D01*
X132510905Y-110305487D01*
X132510909Y-110305484D01*
X132760906Y-110055486D01*
X132760909Y-110055484D01*
X133555483Y-109260909D01*
X133578050Y-109238342D01*
X133588108Y-109218603D01*
X133598274Y-109202013D01*
X133605561Y-109191983D01*
X133611296Y-109184090D01*
X133617649Y-109164538D01*
X133618143Y-109163019D01*
X133625587Y-109145048D01*
X133631215Y-109134002D01*
X133631217Y-109133997D01*
X133635646Y-109125304D01*
X133639111Y-109103424D01*
X133643655Y-109084499D01*
X133647485Y-109072711D01*
X133650500Y-109063433D01*
X133650500Y-107186567D01*
X133643655Y-107165501D01*
X133639111Y-107146575D01*
X133637172Y-107134333D01*
X133635646Y-107124696D01*
X133631217Y-107116003D01*
X133631215Y-107115998D01*
X133625587Y-107104952D01*
X133618143Y-107086981D01*
X133614312Y-107075192D01*
X133611296Y-107065910D01*
X133598274Y-107047986D01*
X133588107Y-107031396D01*
X133582480Y-107020353D01*
X133578050Y-107011658D01*
X133213711Y-106647319D01*
X132936819Y-106370426D01*
X132903334Y-106309103D01*
X132900500Y-106282745D01*
X132900500Y-103717255D01*
X132920185Y-103650216D01*
X132936819Y-103629574D01*
X134055484Y-102510909D01*
X134055487Y-102510905D01*
X134078050Y-102488342D01*
X134088108Y-102468602D01*
X134098272Y-102452016D01*
X134111296Y-102434090D01*
X134115337Y-102421653D01*
X134118143Y-102413019D01*
X134125587Y-102395048D01*
X134131215Y-102384002D01*
X134131217Y-102383997D01*
X134135646Y-102375304D01*
X134139111Y-102353424D01*
X134143655Y-102334499D01*
X134147485Y-102322711D01*
X134150500Y-102313433D01*
X134150500Y-99985262D01*
X138194520Y-99985262D01*
X138211759Y-100190553D01*
X138268544Y-100388586D01*
X138271316Y-100393981D01*
X138271317Y-100393982D01*
X138320039Y-100488785D01*
X138362712Y-100571818D01*
X138366480Y-100576572D01*
X138395402Y-100613062D01*
X138490677Y-100733270D01*
X138495296Y-100737201D01*
X138642950Y-100862865D01*
X138642955Y-100862869D01*
X138647564Y-100866791D01*
X138827398Y-100967297D01*
X138972785Y-101014536D01*
X138989952Y-101020114D01*
X139023329Y-101030959D01*
X139029347Y-101031677D01*
X139029349Y-101031677D01*
X139171410Y-101048616D01*
X139227894Y-101055351D01*
X139233938Y-101054886D01*
X139233939Y-101054886D01*
X139295266Y-101050167D01*
X139433300Y-101039546D01*
X139518596Y-101015731D01*
X139625885Y-100985776D01*
X139625889Y-100985774D01*
X139631725Y-100984145D01*
X139815610Y-100891258D01*
X139977951Y-100764424D01*
X139981907Y-100759840D01*
X139981911Y-100759837D01*
X140108602Y-100613062D01*
X140112564Y-100608472D01*
X140133387Y-100571818D01*
X140211327Y-100434618D01*
X140214323Y-100429344D01*
X140279351Y-100233863D01*
X140280803Y-100222375D01*
X140304736Y-100032919D01*
X140304736Y-100032915D01*
X140305171Y-100029474D01*
X140305404Y-100012832D01*
X140305535Y-100003461D01*
X140305535Y-100003454D01*
X140305583Y-100000000D01*
X140304138Y-99985262D01*
X144194520Y-99985262D01*
X144211759Y-100190553D01*
X144268544Y-100388586D01*
X144271316Y-100393981D01*
X144271317Y-100393982D01*
X144320039Y-100488785D01*
X144362712Y-100571818D01*
X144366480Y-100576572D01*
X144395402Y-100613062D01*
X144490677Y-100733270D01*
X144495296Y-100737201D01*
X144642950Y-100862865D01*
X144642955Y-100862869D01*
X144647564Y-100866791D01*
X144827398Y-100967297D01*
X144972785Y-101014536D01*
X144989952Y-101020114D01*
X145023329Y-101030959D01*
X145029347Y-101031677D01*
X145029349Y-101031677D01*
X145171410Y-101048616D01*
X145227894Y-101055351D01*
X145233938Y-101054886D01*
X145233939Y-101054886D01*
X145295266Y-101050167D01*
X145433300Y-101039546D01*
X145518596Y-101015731D01*
X145625885Y-100985776D01*
X145625889Y-100985774D01*
X145631725Y-100984145D01*
X145815610Y-100891258D01*
X145977951Y-100764424D01*
X145981907Y-100759840D01*
X145981911Y-100759837D01*
X146108602Y-100613062D01*
X146112564Y-100608472D01*
X146133387Y-100571818D01*
X146211327Y-100434618D01*
X146214323Y-100429344D01*
X146279351Y-100233863D01*
X146280803Y-100222375D01*
X146304736Y-100032919D01*
X146304736Y-100032915D01*
X146305171Y-100029474D01*
X146305404Y-100012832D01*
X146305535Y-100003461D01*
X146305535Y-100003454D01*
X146305583Y-100000000D01*
X146292283Y-99864354D01*
X146286072Y-99801006D01*
X146286072Y-99801004D01*
X146285480Y-99794970D01*
X146230788Y-99613822D01*
X146227688Y-99603555D01*
X146225935Y-99597749D01*
X146154645Y-99463670D01*
X146132065Y-99421203D01*
X146132064Y-99421201D01*
X146129218Y-99415849D01*
X145999011Y-99256200D01*
X145992075Y-99250462D01*
X145844946Y-99128746D01*
X145844945Y-99128745D01*
X145840275Y-99124882D01*
X145659055Y-99026897D01*
X145649991Y-99024091D01*
X145534504Y-98988342D01*
X145462254Y-98965977D01*
X145257369Y-98944443D01*
X145251336Y-98944992D01*
X145251332Y-98944992D01*
X145125721Y-98956424D01*
X145052203Y-98963114D01*
X145046390Y-98964825D01*
X145046389Y-98964825D01*
X144860392Y-99019567D01*
X144854572Y-99021280D01*
X144770819Y-99065065D01*
X144677374Y-99113917D01*
X144677370Y-99113920D01*
X144672002Y-99116726D01*
X144667279Y-99120523D01*
X144667278Y-99120524D01*
X144659586Y-99126709D01*
X144511447Y-99245815D01*
X144379024Y-99403630D01*
X144279776Y-99584162D01*
X144277942Y-99589944D01*
X144277941Y-99589946D01*
X144235932Y-99722375D01*
X144217484Y-99780532D01*
X144194520Y-99985262D01*
X140304138Y-99985262D01*
X140292283Y-99864354D01*
X140286072Y-99801006D01*
X140286072Y-99801004D01*
X140285480Y-99794970D01*
X140230788Y-99613822D01*
X140227688Y-99603555D01*
X140225935Y-99597749D01*
X140154645Y-99463670D01*
X140132065Y-99421203D01*
X140132064Y-99421201D01*
X140129218Y-99415849D01*
X139999011Y-99256200D01*
X139992075Y-99250462D01*
X139844946Y-99128746D01*
X139844945Y-99128745D01*
X139840275Y-99124882D01*
X139659055Y-99026897D01*
X139649991Y-99024091D01*
X139534504Y-98988342D01*
X139462254Y-98965977D01*
X139257369Y-98944443D01*
X139251336Y-98944992D01*
X139251332Y-98944992D01*
X139125721Y-98956424D01*
X139052203Y-98963114D01*
X139046390Y-98964825D01*
X139046389Y-98964825D01*
X138860392Y-99019567D01*
X138854572Y-99021280D01*
X138770819Y-99065065D01*
X138677374Y-99113917D01*
X138677370Y-99113920D01*
X138672002Y-99116726D01*
X138667279Y-99120523D01*
X138667278Y-99120524D01*
X138659586Y-99126709D01*
X138511447Y-99245815D01*
X138379024Y-99403630D01*
X138279776Y-99584162D01*
X138277942Y-99589944D01*
X138277941Y-99589946D01*
X138235932Y-99722375D01*
X138217484Y-99780532D01*
X138194520Y-99985262D01*
X134150500Y-99985262D01*
X134150500Y-95436567D01*
X134144987Y-95419598D01*
X134143653Y-95415494D01*
X134139111Y-95396574D01*
X134135646Y-95374696D01*
X134126823Y-95357379D01*
X134125588Y-95354956D01*
X134118142Y-95336979D01*
X134111297Y-95315911D01*
X134098270Y-95297981D01*
X134088108Y-95281398D01*
X134078050Y-95261658D01*
X134055487Y-95239095D01*
X134055484Y-95239091D01*
X133333325Y-94516932D01*
X133299840Y-94455609D01*
X133298067Y-94445437D01*
X133287392Y-94364354D01*
X133287391Y-94364351D01*
X133286330Y-94356291D01*
X133230861Y-94222375D01*
X133142621Y-94107379D01*
X133027625Y-94019139D01*
X132991593Y-94004214D01*
X132901223Y-93966782D01*
X132901221Y-93966781D01*
X132893709Y-93963670D01*
X132750000Y-93944750D01*
X132606291Y-93963670D01*
X132598779Y-93966781D01*
X132598777Y-93966782D01*
X132508407Y-94004214D01*
X132472375Y-94019139D01*
X132357379Y-94107379D01*
X132357011Y-94106899D01*
X132300858Y-94137561D01*
X132231166Y-94132577D01*
X132175233Y-94090705D01*
X132150816Y-94025241D01*
X132150500Y-94016395D01*
X132150500Y-89334412D01*
X132143655Y-89313346D01*
X132139111Y-89294420D01*
X132137172Y-89282178D01*
X132135646Y-89272541D01*
X132131217Y-89263848D01*
X132131215Y-89263843D01*
X132125587Y-89252797D01*
X132118143Y-89234826D01*
X132114312Y-89223037D01*
X132111296Y-89213755D01*
X132105562Y-89205863D01*
X132105559Y-89205857D01*
X132099404Y-89197386D01*
X132075923Y-89131580D01*
X132091748Y-89063526D01*
X132141853Y-89014831D01*
X132199721Y-89000500D01*
X145463115Y-89000500D01*
X145487306Y-89002883D01*
X145500000Y-89005408D01*
X145511978Y-89003026D01*
X145524191Y-89003026D01*
X145524191Y-89003219D01*
X145534950Y-89002463D01*
X145629045Y-89007747D01*
X145800894Y-89017398D01*
X145814712Y-89018955D01*
X146104953Y-89068269D01*
X146118510Y-89071363D01*
X146401413Y-89152866D01*
X146414538Y-89157459D01*
X146686528Y-89270121D01*
X146699056Y-89276154D01*
X146810226Y-89337595D01*
X146956732Y-89418566D01*
X146968495Y-89425957D01*
X147139175Y-89547061D01*
X147208605Y-89596324D01*
X147219477Y-89604995D01*
X147438997Y-89801171D01*
X147448829Y-89811003D01*
X147645005Y-90030523D01*
X147653676Y-90041395D01*
X147804287Y-90253661D01*
X147824039Y-90281499D01*
X147831437Y-90293273D01*
X147973846Y-90550944D01*
X147979879Y-90563472D01*
X148092541Y-90835462D01*
X148097134Y-90848587D01*
X148170990Y-91104945D01*
X148178637Y-91131490D01*
X148181731Y-91145046D01*
X148183797Y-91157206D01*
X148231045Y-91435288D01*
X148232602Y-91449106D01*
X148247141Y-91707989D01*
X148247537Y-91715048D01*
X148246781Y-91725809D01*
X148246974Y-91725809D01*
X148246974Y-91738022D01*
X148244592Y-91750000D01*
X148246975Y-91761979D01*
X148247117Y-91762694D01*
X148249500Y-91786885D01*
X148249500Y-108213115D01*
X148247117Y-108237306D01*
X148244592Y-108250000D01*
X148246974Y-108261978D01*
X148246974Y-108274191D01*
X148246781Y-108274191D01*
X148247537Y-108284950D01*
X148247400Y-108287391D01*
X148232602Y-108550894D01*
X148231045Y-108564712D01*
X148181731Y-108854953D01*
X148178637Y-108868510D01*
X148097134Y-109151413D01*
X148092541Y-109164538D01*
X147979879Y-109436528D01*
X147973846Y-109449056D01*
X147831437Y-109706727D01*
X147824039Y-109718501D01*
X147653676Y-109958605D01*
X147645005Y-109969477D01*
X147448829Y-110188997D01*
X147438997Y-110198829D01*
X147219477Y-110395005D01*
X147208605Y-110403676D01*
X146968495Y-110574043D01*
X146956732Y-110581434D01*
X146842625Y-110644499D01*
X146699056Y-110723846D01*
X146686528Y-110729879D01*
X146414538Y-110842541D01*
X146401413Y-110847134D01*
X146118510Y-110928637D01*
X146104953Y-110931731D01*
X145814712Y-110981045D01*
X145800894Y-110982602D01*
X145629045Y-110992253D01*
X145534950Y-110997537D01*
X145524191Y-110996781D01*
X145524191Y-110996974D01*
X145511978Y-110996974D01*
X145500000Y-110994592D01*
X145487345Y-110997109D01*
X145487306Y-110997117D01*
X145463115Y-110999500D01*
X96536885Y-110999500D01*
X96512694Y-110997117D01*
X96512655Y-110997109D01*
X96500000Y-110994592D01*
X96488022Y-110996974D01*
X96475809Y-110996974D01*
X96475809Y-110996781D01*
X96465050Y-110997537D01*
X96370955Y-110992253D01*
X96199106Y-110982602D01*
X96185288Y-110981045D01*
X95895047Y-110931731D01*
X95881490Y-110928637D01*
X95598587Y-110847134D01*
X95585462Y-110842541D01*
X95313472Y-110729879D01*
X95300944Y-110723846D01*
X95157375Y-110644499D01*
X95043268Y-110581434D01*
X95031505Y-110574043D01*
X94791395Y-110403676D01*
X94780523Y-110395005D01*
X94561003Y-110198829D01*
X94551171Y-110188997D01*
X94354995Y-109969477D01*
X94346324Y-109958605D01*
X94175961Y-109718501D01*
X94168563Y-109706727D01*
X94026154Y-109449056D01*
X94020121Y-109436528D01*
X93907459Y-109164538D01*
X93902866Y-109151413D01*
X93821363Y-108868510D01*
X93818269Y-108854953D01*
X93768955Y-108564712D01*
X93767398Y-108550894D01*
X93752600Y-108287391D01*
X93752463Y-108284950D01*
X93753219Y-108274191D01*
X93753026Y-108274191D01*
X93753026Y-108261978D01*
X93755408Y-108250000D01*
X93752883Y-108237306D01*
X93750500Y-108213115D01*
X93750500Y-104910056D01*
X93770185Y-104843017D01*
X93822989Y-104797262D01*
X93892147Y-104787318D01*
X93955703Y-104816343D01*
X93963094Y-104823297D01*
X94076325Y-104938924D01*
X94087007Y-104947635D01*
X94226214Y-105037349D01*
X94238555Y-105043475D01*
X94394184Y-105100119D01*
X94407572Y-105103358D01*
X94535444Y-105119512D01*
X94543202Y-105120000D01*
X94672170Y-105120000D01*
X94687169Y-105115596D01*
X94688356Y-105114226D01*
X94690000Y-105106668D01*
X94690000Y-105102170D01*
X95090000Y-105102170D01*
X95094404Y-105117169D01*
X95095774Y-105118356D01*
X95103332Y-105120000D01*
X95231656Y-105120000D01*
X95238582Y-105119613D01*
X95361472Y-105105829D01*
X95374903Y-105102777D01*
X95531313Y-105048310D01*
X95543733Y-105042358D01*
X95684184Y-104954595D01*
X95694979Y-104946039D01*
X95812498Y-104829338D01*
X95821128Y-104818604D01*
X95909870Y-104678770D01*
X95915912Y-104666381D01*
X95962056Y-104536795D01*
X95962839Y-104522939D01*
X95957261Y-104520000D01*
X95107830Y-104520000D01*
X95092831Y-104524404D01*
X95091644Y-104525774D01*
X95090000Y-104533332D01*
X95090000Y-105102170D01*
X94690000Y-105102170D01*
X94690000Y-104102170D01*
X95090000Y-104102170D01*
X95094404Y-104117169D01*
X95095774Y-104118356D01*
X95103332Y-104120000D01*
X95949218Y-104120000D01*
X95962535Y-104116090D01*
X95963480Y-104109519D01*
X95920678Y-103983788D01*
X95914807Y-103971313D01*
X95828031Y-103830259D01*
X95819548Y-103819401D01*
X95703675Y-103701076D01*
X95692993Y-103692365D01*
X95553786Y-103602651D01*
X95541445Y-103596525D01*
X95385816Y-103539881D01*
X95372428Y-103536642D01*
X95244556Y-103520488D01*
X95236798Y-103520000D01*
X95107830Y-103520000D01*
X95092831Y-103524404D01*
X95091644Y-103525774D01*
X95090000Y-103533332D01*
X95090000Y-104102170D01*
X94690000Y-104102170D01*
X94690000Y-103537830D01*
X94685596Y-103522831D01*
X94684226Y-103521644D01*
X94676668Y-103520000D01*
X94548344Y-103520000D01*
X94541418Y-103520387D01*
X94418528Y-103534171D01*
X94405097Y-103537223D01*
X94248687Y-103591690D01*
X94236267Y-103597642D01*
X94095816Y-103685405D01*
X94085021Y-103693961D01*
X93962585Y-103815545D01*
X93960558Y-103813504D01*
X93913786Y-103846053D01*
X93843963Y-103848622D01*
X93783836Y-103813034D01*
X93752494Y-103750589D01*
X93750500Y-103728441D01*
X93750500Y-96270056D01*
X93770185Y-96203017D01*
X93822989Y-96157262D01*
X93892147Y-96147318D01*
X93955703Y-96176343D01*
X93963094Y-96183297D01*
X94076325Y-96298924D01*
X94087007Y-96307635D01*
X94226214Y-96397349D01*
X94238555Y-96403475D01*
X94394184Y-96460119D01*
X94407572Y-96463358D01*
X94535444Y-96479512D01*
X94543202Y-96480000D01*
X94672170Y-96480000D01*
X94687169Y-96475596D01*
X94688356Y-96474226D01*
X94690000Y-96466668D01*
X94690000Y-96462170D01*
X95090000Y-96462170D01*
X95094404Y-96477169D01*
X95095774Y-96478356D01*
X95103332Y-96480000D01*
X95231656Y-96480000D01*
X95238582Y-96479613D01*
X95361472Y-96465829D01*
X95374903Y-96462777D01*
X95531313Y-96408310D01*
X95543733Y-96402358D01*
X95684184Y-96314595D01*
X95694979Y-96306039D01*
X95812498Y-96189338D01*
X95821128Y-96178604D01*
X95909870Y-96038770D01*
X95915912Y-96026381D01*
X95962056Y-95896795D01*
X95962839Y-95882939D01*
X95957261Y-95880000D01*
X95107830Y-95880000D01*
X95092831Y-95884404D01*
X95091644Y-95885774D01*
X95090000Y-95893332D01*
X95090000Y-96462170D01*
X94690000Y-96462170D01*
X94690000Y-95462170D01*
X95090000Y-95462170D01*
X95094404Y-95477169D01*
X95095774Y-95478356D01*
X95103332Y-95480000D01*
X95949218Y-95480000D01*
X95985258Y-95469418D01*
X96008637Y-95454393D01*
X96078506Y-95454393D01*
X96137284Y-95492168D01*
X96160018Y-95530755D01*
X96163571Y-95540464D01*
X96163574Y-95540470D01*
X96166143Y-95547490D01*
X96253958Y-95678172D01*
X96259488Y-95683204D01*
X96259489Y-95683205D01*
X96276183Y-95698395D01*
X96306875Y-95726322D01*
X96308953Y-95728213D01*
X96345290Y-95787891D01*
X96349500Y-95819928D01*
X96349500Y-105063433D01*
X96352515Y-105072711D01*
X96356345Y-105084499D01*
X96360889Y-105103424D01*
X96364354Y-105125304D01*
X96368783Y-105133997D01*
X96368785Y-105134002D01*
X96374413Y-105145048D01*
X96381857Y-105163019D01*
X96384663Y-105171653D01*
X96388704Y-105184090D01*
X96401728Y-105202016D01*
X96411892Y-105218602D01*
X96421950Y-105238342D01*
X96444513Y-105260905D01*
X96444516Y-105260909D01*
X96694514Y-105510906D01*
X96694516Y-105510909D01*
X97239091Y-106055484D01*
X97239095Y-106055487D01*
X97261658Y-106078050D01*
X97281401Y-106088109D01*
X97297988Y-106098274D01*
X97308017Y-106105561D01*
X97308019Y-106105562D01*
X97315911Y-106111296D01*
X97325190Y-106114311D01*
X97336978Y-106118141D01*
X97354954Y-106125587D01*
X97374696Y-106135646D01*
X97396576Y-106139111D01*
X97415501Y-106143655D01*
X97436567Y-106150500D01*
X100675576Y-106150500D01*
X100742615Y-106170185D01*
X100759022Y-106182780D01*
X100870410Y-106284135D01*
X100876980Y-106287702D01*
X100876981Y-106287703D01*
X100915745Y-106308750D01*
X101008776Y-106359262D01*
X101111031Y-106386088D01*
X101153841Y-106397319D01*
X101153843Y-106397319D01*
X101161069Y-106399215D01*
X101238127Y-106400425D01*
X101311025Y-106401571D01*
X101311028Y-106401571D01*
X101318495Y-106401688D01*
X101325776Y-106400020D01*
X101325780Y-106400020D01*
X101464681Y-106368207D01*
X101471968Y-106366538D01*
X101612625Y-106295795D01*
X101618306Y-106290943D01*
X101618309Y-106290941D01*
X101726666Y-106198395D01*
X101726667Y-106198394D01*
X101732348Y-106193542D01*
X101743393Y-106178172D01*
X101777134Y-106131216D01*
X101824224Y-106065683D01*
X101882950Y-105919598D01*
X101887782Y-105885646D01*
X101904562Y-105767744D01*
X101904562Y-105767740D01*
X101905134Y-105763723D01*
X101905194Y-105758059D01*
X101905235Y-105754064D01*
X101905278Y-105750000D01*
X101899390Y-105701342D01*
X101887262Y-105601119D01*
X101887261Y-105601115D01*
X101886363Y-105593694D01*
X101872354Y-105556620D01*
X101833354Y-105453408D01*
X101833352Y-105453405D01*
X101830710Y-105446412D01*
X101793721Y-105392593D01*
X101745768Y-105322821D01*
X101745765Y-105322818D01*
X101741531Y-105316657D01*
X101661378Y-105245243D01*
X101629559Y-105216893D01*
X101629558Y-105216892D01*
X101623976Y-105211919D01*
X101484831Y-105138245D01*
X101394661Y-105115596D01*
X101339378Y-105101710D01*
X101332128Y-105099889D01*
X101250329Y-105099461D01*
X101182158Y-105099104D01*
X101182157Y-105099104D01*
X101174684Y-105099065D01*
X101167421Y-105100809D01*
X101167418Y-105100809D01*
X101099275Y-105117169D01*
X101021588Y-105135820D01*
X100881679Y-105208032D01*
X100876048Y-105212945D01*
X100876047Y-105212945D01*
X100779571Y-105297107D01*
X100765449Y-105309426D01*
X100765446Y-105309428D01*
X100763034Y-105311533D01*
X100762683Y-105311131D01*
X100707512Y-105345120D01*
X100674848Y-105349500D01*
X99824433Y-105349500D01*
X99757394Y-105329815D01*
X99711639Y-105277011D01*
X99701695Y-105207853D01*
X99730720Y-105144297D01*
X99789498Y-105106523D01*
X99796964Y-105104581D01*
X99804903Y-105102778D01*
X99961313Y-105048310D01*
X99973733Y-105042358D01*
X100114184Y-104954595D01*
X100124979Y-104946039D01*
X100242498Y-104829338D01*
X100251128Y-104818604D01*
X100339870Y-104678770D01*
X100345912Y-104666381D01*
X100392056Y-104536795D01*
X100392839Y-104522939D01*
X100387261Y-104520000D01*
X97760782Y-104520000D01*
X97747465Y-104523910D01*
X97746520Y-104530481D01*
X97789322Y-104656212D01*
X97795193Y-104668687D01*
X97881969Y-104809741D01*
X97890452Y-104820599D01*
X98006325Y-104938924D01*
X98017007Y-104947635D01*
X98156214Y-105037349D01*
X98168555Y-105043475D01*
X98324183Y-105100119D01*
X98344266Y-105104977D01*
X98404797Y-105139873D01*
X98436853Y-105201955D01*
X98430256Y-105271512D01*
X98387101Y-105326461D01*
X98315109Y-105349500D01*
X97717255Y-105349500D01*
X97650216Y-105329815D01*
X97629574Y-105313181D01*
X97186818Y-104870425D01*
X97153334Y-104809101D01*
X97150500Y-104782744D01*
X97150500Y-104117061D01*
X97747161Y-104117061D01*
X97752739Y-104120000D01*
X98852170Y-104120000D01*
X98867169Y-104115596D01*
X98868356Y-104114226D01*
X98870000Y-104106668D01*
X98870000Y-104102170D01*
X99270000Y-104102170D01*
X99274404Y-104117169D01*
X99275774Y-104118356D01*
X99283332Y-104120000D01*
X100379218Y-104120000D01*
X100392535Y-104116090D01*
X100393480Y-104109519D01*
X100350678Y-103983788D01*
X100344807Y-103971313D01*
X100258031Y-103830259D01*
X100249548Y-103819401D01*
X100133675Y-103701076D01*
X100122993Y-103692365D01*
X99983786Y-103602651D01*
X99971445Y-103596525D01*
X99815816Y-103539881D01*
X99802428Y-103536642D01*
X99674556Y-103520488D01*
X99666798Y-103520000D01*
X99287830Y-103520000D01*
X99272831Y-103524404D01*
X99271644Y-103525774D01*
X99270000Y-103533332D01*
X99270000Y-104102170D01*
X98870000Y-104102170D01*
X98870000Y-103537830D01*
X98858650Y-103499177D01*
X98846449Y-103480190D01*
X98846451Y-103410320D01*
X98884227Y-103351543D01*
X98889940Y-103346883D01*
X98944008Y-103305395D01*
X98950451Y-103300451D01*
X99042698Y-103180233D01*
X99100687Y-103040236D01*
X99120466Y-102890000D01*
X99100687Y-102739764D01*
X99042698Y-102599767D01*
X98974511Y-102510905D01*
X98955395Y-102485992D01*
X98950451Y-102479549D01*
X98830233Y-102387302D01*
X98748447Y-102353425D01*
X98697745Y-102332423D01*
X98697743Y-102332422D01*
X98690236Y-102329313D01*
X98680643Y-102328050D01*
X98581740Y-102315029D01*
X98581736Y-102315029D01*
X98577720Y-102314500D01*
X98502280Y-102314500D01*
X98498264Y-102315029D01*
X98498260Y-102315029D01*
X98399357Y-102328050D01*
X98389764Y-102329313D01*
X98382257Y-102332422D01*
X98382255Y-102332423D01*
X98331553Y-102353425D01*
X98249767Y-102387302D01*
X98129549Y-102479549D01*
X98124605Y-102485992D01*
X98105489Y-102510905D01*
X98037302Y-102599767D01*
X97979313Y-102739764D01*
X97959534Y-102890000D01*
X97979313Y-103040236D01*
X98037302Y-103180233D01*
X98129549Y-103300451D01*
X98135992Y-103305395D01*
X98135995Y-103305398D01*
X98223633Y-103372645D01*
X98264836Y-103429073D01*
X98268991Y-103498819D01*
X98234779Y-103559739D01*
X98188930Y-103588122D01*
X98178696Y-103591686D01*
X98166267Y-103597642D01*
X98025816Y-103685405D01*
X98015021Y-103693961D01*
X97897502Y-103810662D01*
X97888872Y-103821396D01*
X97800130Y-103961230D01*
X97794088Y-103973619D01*
X97747944Y-104103205D01*
X97747161Y-104117061D01*
X97150500Y-104117061D01*
X97150500Y-101733605D01*
X97170185Y-101666566D01*
X97222989Y-101620811D01*
X97292147Y-101610867D01*
X97355059Y-101639598D01*
X97357379Y-101642621D01*
X97363822Y-101647565D01*
X97393301Y-101670185D01*
X97472375Y-101730861D01*
X97479887Y-101733972D01*
X97479886Y-101733972D01*
X97598777Y-101783218D01*
X97598779Y-101783219D01*
X97606291Y-101786330D01*
X97750000Y-101805250D01*
X97893709Y-101786330D01*
X97901221Y-101783219D01*
X97901223Y-101783218D01*
X98020114Y-101733972D01*
X98020113Y-101733972D01*
X98027625Y-101730861D01*
X98034073Y-101725913D01*
X98034077Y-101725911D01*
X98098959Y-101676125D01*
X98164128Y-101650930D01*
X98174446Y-101650500D01*
X99532745Y-101650500D01*
X99599784Y-101670185D01*
X99620426Y-101686819D01*
X100287033Y-102353425D01*
X100944513Y-103010905D01*
X100944516Y-103010909D01*
X101634684Y-103701076D01*
X102313181Y-104379573D01*
X102346666Y-104440896D01*
X102349500Y-104467254D01*
X102349500Y-105325554D01*
X102329815Y-105392593D01*
X102323875Y-105401041D01*
X102274089Y-105465923D01*
X102274087Y-105465927D01*
X102269139Y-105472375D01*
X102266028Y-105479886D01*
X102218888Y-105593694D01*
X102213670Y-105606291D01*
X102194750Y-105750000D01*
X102213670Y-105893709D01*
X102216781Y-105901221D01*
X102216782Y-105901223D01*
X102249670Y-105980621D01*
X102269139Y-106027625D01*
X102357379Y-106142621D01*
X102363822Y-106147565D01*
X102382896Y-106162201D01*
X102472375Y-106230861D01*
X102479887Y-106233972D01*
X102479886Y-106233972D01*
X102598777Y-106283218D01*
X102598779Y-106283219D01*
X102606291Y-106286330D01*
X102750000Y-106305250D01*
X102893709Y-106286330D01*
X102901221Y-106283219D01*
X102901223Y-106283218D01*
X103020114Y-106233972D01*
X103020113Y-106233972D01*
X103027625Y-106230861D01*
X103117104Y-106162201D01*
X103136178Y-106147565D01*
X103142621Y-106142621D01*
X103230861Y-106027625D01*
X103250330Y-105980621D01*
X103283218Y-105901223D01*
X103283219Y-105901221D01*
X103286330Y-105893709D01*
X103305250Y-105750000D01*
X103286330Y-105606291D01*
X103281113Y-105593694D01*
X103233972Y-105479886D01*
X103230861Y-105472375D01*
X103225913Y-105465927D01*
X103225911Y-105465923D01*
X103176125Y-105401041D01*
X103150930Y-105335872D01*
X103150500Y-105325554D01*
X103150500Y-104218481D01*
X103150499Y-104218475D01*
X103150499Y-104186567D01*
X103143651Y-104165490D01*
X103139114Y-104146594D01*
X103135646Y-104124696D01*
X103131010Y-104115596D01*
X103125586Y-104104952D01*
X103118140Y-104086975D01*
X103114312Y-104075193D01*
X103111296Y-104065910D01*
X103098274Y-104047986D01*
X103088107Y-104031396D01*
X103082480Y-104020353D01*
X103078050Y-104011658D01*
X102988342Y-103921950D01*
X101510909Y-102444516D01*
X101510905Y-102444513D01*
X100010909Y-100944516D01*
X100010905Y-100944513D01*
X99988342Y-100921950D01*
X99968602Y-100911892D01*
X99952016Y-100901728D01*
X99934090Y-100888704D01*
X99921653Y-100884663D01*
X99913019Y-100881857D01*
X99895048Y-100874413D01*
X99884002Y-100868785D01*
X99883997Y-100868783D01*
X99875304Y-100864354D01*
X99853424Y-100860889D01*
X99834499Y-100856345D01*
X99830415Y-100855018D01*
X99813433Y-100849500D01*
X98174446Y-100849500D01*
X98107407Y-100829815D01*
X98098959Y-100823875D01*
X98034077Y-100774089D01*
X98034072Y-100774086D01*
X98027625Y-100769139D01*
X97981419Y-100750000D01*
X97901223Y-100716782D01*
X97901221Y-100716781D01*
X97893709Y-100713670D01*
X97750000Y-100694750D01*
X97606291Y-100713670D01*
X97598779Y-100716781D01*
X97598777Y-100716782D01*
X97518581Y-100750000D01*
X97472375Y-100769139D01*
X97465928Y-100774086D01*
X97425010Y-100805484D01*
X97357379Y-100857379D01*
X97357011Y-100856899D01*
X97300858Y-100887561D01*
X97231166Y-100882577D01*
X97175233Y-100840705D01*
X97150816Y-100775241D01*
X97150500Y-100766395D01*
X97150500Y-98983000D01*
X107194750Y-98983000D01*
X107213670Y-99126709D01*
X107269139Y-99260625D01*
X107357379Y-99375621D01*
X107472375Y-99463861D01*
X107479887Y-99466972D01*
X107479886Y-99466972D01*
X107598777Y-99516218D01*
X107598779Y-99516219D01*
X107606291Y-99519330D01*
X107614351Y-99520391D01*
X107614354Y-99520392D01*
X107695437Y-99531067D01*
X107759334Y-99559334D01*
X107766932Y-99566325D01*
X109664098Y-101463491D01*
X109697583Y-101524814D01*
X109699356Y-101534986D01*
X109713670Y-101643709D01*
X109716781Y-101651221D01*
X109716782Y-101651223D01*
X109727097Y-101676125D01*
X109769139Y-101777625D01*
X109774087Y-101784073D01*
X109774089Y-101784077D01*
X109823875Y-101848959D01*
X109849070Y-101914128D01*
X109849500Y-101924446D01*
X109849500Y-105225523D01*
X109829815Y-105292562D01*
X109777011Y-105338317D01*
X109724851Y-105349521D01*
X109645158Y-105349104D01*
X109645157Y-105349104D01*
X109637684Y-105349065D01*
X109630421Y-105350809D01*
X109630418Y-105350809D01*
X109561136Y-105367443D01*
X109484588Y-105385820D01*
X109344679Y-105458032D01*
X109226034Y-105561533D01*
X109135501Y-105690348D01*
X109078309Y-105837039D01*
X109057758Y-105993138D01*
X109058578Y-106000566D01*
X109058578Y-106000568D01*
X109065767Y-106065683D01*
X109075035Y-106149633D01*
X109077601Y-106156645D01*
X109077602Y-106156649D01*
X109087167Y-106182786D01*
X109129143Y-106297490D01*
X109216958Y-106428172D01*
X109239183Y-106448395D01*
X109327878Y-106529102D01*
X109327882Y-106529105D01*
X109333410Y-106534135D01*
X109339980Y-106537702D01*
X109339981Y-106537703D01*
X109465208Y-106605696D01*
X109471776Y-106609262D01*
X109566080Y-106634002D01*
X109616841Y-106647319D01*
X109616843Y-106647319D01*
X109624069Y-106649215D01*
X109701127Y-106650425D01*
X109774025Y-106651571D01*
X109774028Y-106651571D01*
X109781495Y-106651688D01*
X109788776Y-106650020D01*
X109788780Y-106650020D01*
X109927681Y-106618207D01*
X109934968Y-106616538D01*
X110075625Y-106545795D01*
X110081306Y-106540943D01*
X110081309Y-106540941D01*
X110189666Y-106448395D01*
X110189667Y-106448394D01*
X110195348Y-106443542D01*
X110206393Y-106428172D01*
X110247887Y-106370426D01*
X110287224Y-106315683D01*
X110345950Y-106169598D01*
X110348668Y-106150500D01*
X110367562Y-106017744D01*
X110367562Y-106017740D01*
X110368134Y-106013723D01*
X110368278Y-106000000D01*
X110365933Y-105980618D01*
X110377419Y-105911702D01*
X110401353Y-105878040D01*
X110555484Y-105723909D01*
X110555487Y-105723905D01*
X110578050Y-105701342D01*
X110588109Y-105681599D01*
X110598274Y-105665012D01*
X110605561Y-105654983D01*
X110605562Y-105654981D01*
X110611296Y-105647089D01*
X110618141Y-105626021D01*
X110625587Y-105608046D01*
X110631216Y-105596998D01*
X110635646Y-105588304D01*
X110639111Y-105566424D01*
X110643655Y-105547499D01*
X110647485Y-105535711D01*
X110650500Y-105526433D01*
X110650500Y-101924446D01*
X110670185Y-101857407D01*
X110676125Y-101848959D01*
X110725911Y-101784077D01*
X110725913Y-101784073D01*
X110730861Y-101777625D01*
X110772903Y-101676125D01*
X110783218Y-101651223D01*
X110783219Y-101651221D01*
X110786330Y-101643709D01*
X110805250Y-101500000D01*
X110786330Y-101356291D01*
X110765189Y-101305250D01*
X110738965Y-101241940D01*
X110730861Y-101222375D01*
X110642621Y-101107379D01*
X110527625Y-101019139D01*
X110393709Y-100963670D01*
X110336758Y-100956172D01*
X110324141Y-100954511D01*
X110260245Y-100926244D01*
X110252646Y-100919253D01*
X108333325Y-98999932D01*
X108299840Y-98938609D01*
X108298067Y-98928437D01*
X108287392Y-98847354D01*
X108287391Y-98847351D01*
X108286330Y-98839291D01*
X108275620Y-98813433D01*
X108233972Y-98712886D01*
X108230861Y-98705375D01*
X108142621Y-98590379D01*
X108027625Y-98502139D01*
X107991593Y-98487214D01*
X107901223Y-98449782D01*
X107901221Y-98449781D01*
X107893709Y-98446670D01*
X107750000Y-98427750D01*
X107606291Y-98446670D01*
X107598779Y-98449781D01*
X107598777Y-98449782D01*
X107508407Y-98487214D01*
X107472375Y-98502139D01*
X107357379Y-98590379D01*
X107269139Y-98705375D01*
X107266028Y-98712886D01*
X107224381Y-98813433D01*
X107213670Y-98839291D01*
X107194750Y-98983000D01*
X97150500Y-98983000D01*
X97150500Y-95890481D01*
X97746520Y-95890481D01*
X97789322Y-96016212D01*
X97795193Y-96028687D01*
X97881969Y-96169741D01*
X97890452Y-96180599D01*
X98006325Y-96298924D01*
X98017007Y-96307635D01*
X98156214Y-96397349D01*
X98168558Y-96403476D01*
X98191417Y-96411796D01*
X98247682Y-96453221D01*
X98272618Y-96518490D01*
X98258309Y-96586878D01*
X98224495Y-96626694D01*
X98129549Y-96699549D01*
X98037302Y-96819767D01*
X97979313Y-96959764D01*
X97959534Y-97110000D01*
X97979313Y-97260236D01*
X98037302Y-97400233D01*
X98129549Y-97520451D01*
X98249767Y-97612698D01*
X98319765Y-97641692D01*
X98382255Y-97667577D01*
X98382257Y-97667578D01*
X98389764Y-97670687D01*
X98397823Y-97671748D01*
X98498260Y-97684971D01*
X98498264Y-97684971D01*
X98502280Y-97685500D01*
X98577720Y-97685500D01*
X98581736Y-97684971D01*
X98581740Y-97684971D01*
X98682177Y-97671748D01*
X98690236Y-97670687D01*
X98697743Y-97667578D01*
X98697745Y-97667577D01*
X98760235Y-97641692D01*
X98830233Y-97612698D01*
X98950451Y-97520451D01*
X99042698Y-97400233D01*
X99100687Y-97260236D01*
X99120466Y-97110000D01*
X99100687Y-96959764D01*
X99042698Y-96819767D01*
X98950451Y-96699549D01*
X98888281Y-96651844D01*
X98847079Y-96595416D01*
X98842924Y-96525670D01*
X98867829Y-96476646D01*
X98870000Y-96466668D01*
X98870000Y-96462170D01*
X99270000Y-96462170D01*
X99274404Y-96477169D01*
X99275774Y-96478356D01*
X99283332Y-96480000D01*
X99661656Y-96480000D01*
X99668582Y-96479613D01*
X99791472Y-96465829D01*
X99804903Y-96462777D01*
X99961313Y-96408310D01*
X99973733Y-96402358D01*
X100114184Y-96314595D01*
X100124979Y-96306039D01*
X100242498Y-96189338D01*
X100251128Y-96178604D01*
X100339870Y-96038770D01*
X100345912Y-96026381D01*
X100392056Y-95896795D01*
X100392839Y-95882939D01*
X100387261Y-95880000D01*
X99287830Y-95880000D01*
X99272831Y-95884404D01*
X99271644Y-95885774D01*
X99270000Y-95893332D01*
X99270000Y-96462170D01*
X98870000Y-96462170D01*
X98870000Y-95897830D01*
X98865596Y-95882831D01*
X98864226Y-95881644D01*
X98856668Y-95880000D01*
X97760782Y-95880000D01*
X97747465Y-95883910D01*
X97746520Y-95890481D01*
X97150500Y-95890481D01*
X97150500Y-95820612D01*
X97170185Y-95753573D01*
X97193968Y-95726322D01*
X97226666Y-95698395D01*
X97232348Y-95693542D01*
X97243393Y-95678172D01*
X97299421Y-95600200D01*
X97324224Y-95565683D01*
X97359850Y-95477061D01*
X97747161Y-95477061D01*
X97752739Y-95480000D01*
X98852170Y-95480000D01*
X98867169Y-95475596D01*
X98868356Y-95474226D01*
X98870000Y-95466668D01*
X98870000Y-95462170D01*
X99270000Y-95462170D01*
X99274404Y-95477169D01*
X99275774Y-95478356D01*
X99283332Y-95480000D01*
X100379218Y-95480000D01*
X100392535Y-95476090D01*
X100393480Y-95469519D01*
X100350678Y-95343788D01*
X100344807Y-95331313D01*
X100258031Y-95190259D01*
X100249548Y-95179401D01*
X100133675Y-95061076D01*
X100122993Y-95052365D01*
X99983786Y-94962651D01*
X99971445Y-94956525D01*
X99815816Y-94899881D01*
X99802428Y-94896642D01*
X99674556Y-94880488D01*
X99666798Y-94880000D01*
X99287830Y-94880000D01*
X99272831Y-94884404D01*
X99271644Y-94885774D01*
X99270000Y-94893332D01*
X99270000Y-95462170D01*
X98870000Y-95462170D01*
X98870000Y-94897830D01*
X98865596Y-94882831D01*
X98864226Y-94881644D01*
X98856668Y-94880000D01*
X98478344Y-94880000D01*
X98471418Y-94880387D01*
X98348528Y-94894171D01*
X98335097Y-94897223D01*
X98178687Y-94951690D01*
X98166267Y-94957642D01*
X98025816Y-95045405D01*
X98015021Y-95053961D01*
X97897502Y-95170662D01*
X97888872Y-95181396D01*
X97800130Y-95321230D01*
X97794088Y-95333619D01*
X97747944Y-95463205D01*
X97747161Y-95477061D01*
X97359850Y-95477061D01*
X97382950Y-95419598D01*
X97384855Y-95406215D01*
X97404562Y-95267744D01*
X97404562Y-95267740D01*
X97405134Y-95263723D01*
X97405181Y-95259294D01*
X97405235Y-95254064D01*
X97405278Y-95250000D01*
X97386363Y-95093694D01*
X97341858Y-94975914D01*
X97333354Y-94953408D01*
X97333352Y-94953405D01*
X97330710Y-94946412D01*
X97296504Y-94896642D01*
X97245768Y-94822821D01*
X97245765Y-94822818D01*
X97241531Y-94816657D01*
X97123976Y-94711919D01*
X96984831Y-94638245D01*
X96832128Y-94599889D01*
X96750329Y-94599461D01*
X96682158Y-94599104D01*
X96682157Y-94599104D01*
X96674684Y-94599065D01*
X96667421Y-94600809D01*
X96667418Y-94600809D01*
X96598136Y-94617442D01*
X96521588Y-94635820D01*
X96381679Y-94708032D01*
X96263034Y-94811533D01*
X96172501Y-94940348D01*
X96169785Y-94947313D01*
X96169785Y-94947314D01*
X96156706Y-94980861D01*
X96115309Y-95087039D01*
X96114333Y-95094453D01*
X96099054Y-95210506D01*
X96070787Y-95274402D01*
X96012463Y-95312873D01*
X95942598Y-95313704D01*
X95883375Y-95276632D01*
X95870501Y-95259294D01*
X95828031Y-95190259D01*
X95819548Y-95179401D01*
X95703675Y-95061076D01*
X95692993Y-95052365D01*
X95553786Y-94962651D01*
X95541445Y-94956525D01*
X95385816Y-94899881D01*
X95372428Y-94896642D01*
X95244556Y-94880488D01*
X95236798Y-94880000D01*
X95107830Y-94880000D01*
X95092831Y-94884404D01*
X95091644Y-94885774D01*
X95090000Y-94893332D01*
X95090000Y-95462170D01*
X94690000Y-95462170D01*
X94690000Y-94897830D01*
X94685596Y-94882831D01*
X94684226Y-94881644D01*
X94676668Y-94880000D01*
X94548344Y-94880000D01*
X94541418Y-94880387D01*
X94418528Y-94894171D01*
X94405097Y-94897223D01*
X94248687Y-94951690D01*
X94236267Y-94957642D01*
X94095816Y-95045405D01*
X94085021Y-95053961D01*
X93962585Y-95175545D01*
X93960558Y-95173504D01*
X93913786Y-95206053D01*
X93843963Y-95208622D01*
X93783836Y-95173034D01*
X93752494Y-95110589D01*
X93750500Y-95088441D01*
X93750500Y-91786885D01*
X93752883Y-91762694D01*
X93753025Y-91761979D01*
X93755408Y-91750000D01*
X93753026Y-91738022D01*
X93753026Y-91725809D01*
X93753219Y-91725809D01*
X93752463Y-91715048D01*
X93752860Y-91707989D01*
X93767398Y-91449106D01*
X93768955Y-91435288D01*
X93816203Y-91157206D01*
X93818269Y-91145046D01*
X93821363Y-91131490D01*
X93829011Y-91104945D01*
X93902866Y-90848587D01*
X93907459Y-90835462D01*
X94020121Y-90563472D01*
X94026154Y-90550944D01*
X94074892Y-90462759D01*
X116167441Y-90462759D01*
X116209921Y-90630022D01*
X116213694Y-90640677D01*
X116297426Y-90822305D01*
X116303082Y-90832101D01*
X116418508Y-90995426D01*
X116425859Y-91004032D01*
X116569107Y-91143579D01*
X116577908Y-91150706D01*
X116744186Y-91261809D01*
X116754144Y-91267216D01*
X116937879Y-91346154D01*
X116948661Y-91349658D01*
X117082609Y-91379967D01*
X117096462Y-91379092D01*
X117100000Y-91369843D01*
X117100000Y-91365279D01*
X117500000Y-91365279D01*
X117503903Y-91378573D01*
X117517681Y-91380546D01*
X117563986Y-91373832D01*
X117574999Y-91371187D01*
X117764361Y-91306908D01*
X117774713Y-91302299D01*
X117949195Y-91204585D01*
X117958535Y-91198165D01*
X118112284Y-91070294D01*
X118120294Y-91062284D01*
X118248165Y-90908535D01*
X118254585Y-90899195D01*
X118352299Y-90724713D01*
X118356908Y-90714361D01*
X118421187Y-90524999D01*
X118423832Y-90513986D01*
X118430551Y-90467645D01*
X118428595Y-90453929D01*
X118415245Y-90450000D01*
X117517830Y-90450000D01*
X117502831Y-90454404D01*
X117501644Y-90455774D01*
X117500000Y-90463332D01*
X117500000Y-91365279D01*
X117100000Y-91365279D01*
X117100000Y-90467830D01*
X117095596Y-90452831D01*
X117094226Y-90451644D01*
X117086668Y-90450000D01*
X116182031Y-90450000D01*
X116168714Y-90453910D01*
X116167441Y-90462759D01*
X94074892Y-90462759D01*
X94168563Y-90293273D01*
X94175961Y-90281499D01*
X94195714Y-90253661D01*
X94346324Y-90041395D01*
X94354995Y-90030523D01*
X94551171Y-89811003D01*
X94561003Y-89801171D01*
X94780523Y-89604995D01*
X94791395Y-89596324D01*
X94860825Y-89547061D01*
X95031505Y-89425957D01*
X95043268Y-89418566D01*
X95189774Y-89337595D01*
X95300944Y-89276154D01*
X95313472Y-89270121D01*
X95585462Y-89157459D01*
X95598587Y-89152866D01*
X95881490Y-89071363D01*
X95895047Y-89068269D01*
X96185288Y-89018955D01*
X96199106Y-89017398D01*
X96370955Y-89007747D01*
X96465050Y-89002463D01*
X96475809Y-89003219D01*
X96475809Y-89003026D01*
X96488022Y-89003026D01*
X96500000Y-89005408D01*
X96512694Y-89002883D01*
X96536885Y-89000500D01*
X116699913Y-89000500D01*
X116766952Y-89020185D01*
G37*
%TD.AperFunction*%
%TA.AperFunction,Conductor*%
G36*
X131305703Y-89520387D02*
G01*
X131312181Y-89526419D01*
X131313181Y-89527419D01*
X131346666Y-89588742D01*
X131349500Y-89615100D01*
X131349500Y-97782746D01*
X131329815Y-97849785D01*
X131313181Y-97870427D01*
X129766932Y-99416675D01*
X129705609Y-99450160D01*
X129695437Y-99451933D01*
X129614354Y-99462608D01*
X129614351Y-99462609D01*
X129606291Y-99463670D01*
X129598779Y-99466781D01*
X129598777Y-99466782D01*
X129524571Y-99497519D01*
X129472375Y-99519139D01*
X129357379Y-99607379D01*
X129269139Y-99722375D01*
X129266028Y-99729886D01*
X129239070Y-99794970D01*
X129213670Y-99856291D01*
X129194750Y-100000000D01*
X129213670Y-100143709D01*
X129269139Y-100277625D01*
X129357379Y-100392621D01*
X129363822Y-100397565D01*
X129449261Y-100463125D01*
X129472375Y-100480861D01*
X129479887Y-100483972D01*
X129479886Y-100483972D01*
X129598777Y-100533218D01*
X129598779Y-100533219D01*
X129606291Y-100536330D01*
X129750000Y-100555250D01*
X129893709Y-100536330D01*
X129901221Y-100533219D01*
X129901223Y-100533218D01*
X130020114Y-100483972D01*
X130020113Y-100483972D01*
X130027625Y-100480861D01*
X130050739Y-100463125D01*
X130136178Y-100397565D01*
X130142621Y-100392621D01*
X130230861Y-100277625D01*
X130286330Y-100143709D01*
X130294909Y-100078553D01*
X130298067Y-100054563D01*
X130326334Y-99990666D01*
X130333325Y-99983068D01*
X132055483Y-98260909D01*
X132078050Y-98238342D01*
X132088108Y-98218603D01*
X132098274Y-98202013D01*
X132105560Y-98191985D01*
X132111296Y-98184090D01*
X132114312Y-98174808D01*
X132115015Y-98173428D01*
X132162989Y-98122632D01*
X132230810Y-98105837D01*
X132296945Y-98128374D01*
X132340397Y-98183089D01*
X132349500Y-98229723D01*
X132349500Y-98532745D01*
X132329815Y-98599784D01*
X132313181Y-98620426D01*
X130694516Y-100239091D01*
X130694513Y-100239095D01*
X129370426Y-101563181D01*
X129309103Y-101596666D01*
X129282745Y-101599500D01*
X127886668Y-101599500D01*
X127819629Y-101579815D01*
X127773874Y-101527011D01*
X127763930Y-101457853D01*
X127772106Y-101428049D01*
X127786330Y-101393709D01*
X127805250Y-101250000D01*
X127800764Y-101215928D01*
X127795147Y-101173259D01*
X127805913Y-101104224D01*
X127852293Y-101051968D01*
X127885837Y-101037366D01*
X127893709Y-101036330D01*
X128027625Y-100980861D01*
X128074980Y-100944524D01*
X128136178Y-100897565D01*
X128142621Y-100892621D01*
X128230861Y-100777625D01*
X128264749Y-100695811D01*
X128283218Y-100651223D01*
X128283219Y-100651221D01*
X128286330Y-100643709D01*
X128305250Y-100500000D01*
X128286330Y-100356291D01*
X128230861Y-100222375D01*
X128142621Y-100107379D01*
X128027625Y-100019139D01*
X127981419Y-100000000D01*
X127901223Y-99966782D01*
X127901221Y-99966781D01*
X127893709Y-99963670D01*
X127750000Y-99944750D01*
X127606291Y-99963670D01*
X127598779Y-99966781D01*
X127598777Y-99966782D01*
X127479888Y-100016027D01*
X127472375Y-100019139D01*
X127467758Y-100022682D01*
X127400901Y-100038903D01*
X127334873Y-100016052D01*
X127319117Y-100002724D01*
X125186819Y-97870426D01*
X125153334Y-97809103D01*
X125150500Y-97782745D01*
X125150500Y-92524500D01*
X125170185Y-92457461D01*
X125222989Y-92411706D01*
X125274500Y-92400500D01*
X128313433Y-92400500D01*
X128334499Y-92393655D01*
X128353424Y-92389111D01*
X128375304Y-92385646D01*
X128383997Y-92381217D01*
X128384002Y-92381215D01*
X128395048Y-92375587D01*
X128413019Y-92368143D01*
X128421653Y-92365337D01*
X128434090Y-92361296D01*
X128452016Y-92348272D01*
X128468602Y-92338108D01*
X128488342Y-92328050D01*
X128510905Y-92305487D01*
X128510909Y-92305484D01*
X129429574Y-91386819D01*
X129490897Y-91353334D01*
X129517255Y-91350500D01*
X130874674Y-91350500D01*
X130880650Y-91349311D01*
X130880653Y-91349311D01*
X130913687Y-91342740D01*
X130947740Y-91335966D01*
X131030601Y-91280601D01*
X131039545Y-91267216D01*
X131079180Y-91207896D01*
X131085966Y-91197740D01*
X131095322Y-91150706D01*
X131099311Y-91130653D01*
X131099311Y-91130650D01*
X131100500Y-91124674D01*
X131100500Y-89614100D01*
X131120185Y-89547061D01*
X131172989Y-89501306D01*
X131242147Y-89491362D01*
X131305703Y-89520387D01*
G37*
%TD.AperFunction*%
%TD*%
M02*
