M48
; DRILL file {KiCad (6.0.7)} date Tue Jun 20 16:23:13 2023
; FORMAT={-:-/ absolute / inch / decimal}
; #@! TF.CreationDate,2023-06-20T16:23:13-04:00
; #@! TF.GenerationSoftware,Kicad,Pcbnew,(6.0.7)
; #@! TF.FileFunction,Plated,1,2,PTH
FMAT,2
INCH
; #@! TA.AperFunction,Plated,PTH,ViaDrill
T1C0.0157
; #@! TA.AperFunction,Plated,PTH,ComponentDrill
T2C0.0236
; #@! TA.AperFunction,Plated,PTH,ComponentDrill
T3C0.0394
%
G90
G05
T1
X3.7106Y-4.1831
X3.7106Y-4.2323
X3.7205Y-4.2913
X3.75Y-4.3307
X3.8091Y-3.75
X3.8484Y-3.9862
X3.937Y-3.5138
X3.9862Y-3.5138
X3.9862Y-4.1634
X4.0354Y-3.5138
X4.0453Y-4.1634
X4.0846Y-3.5138
X4.1339Y-3.5138
X4.1831Y-3.5138
X4.2323Y-3.5138
X4.2421Y-3.897
X4.2421Y-3.9764
X4.2421Y-4.0157
X4.2421Y-4.0551
X4.2717Y-3.9961
X4.2815Y-3.5138
X4.3194Y-4.1732
X4.3307Y-3.5138
X4.3406Y-3.9961
X4.3799Y-3.5138
X4.3996Y-3.7697
X4.4291Y-3.5138
X4.439Y-3.7697
X4.439Y-3.8091
X4.4783Y-3.5138
X4.4783Y-3.7697
X4.4783Y-4.3504
X4.5276Y-3.5138
X4.5276Y-4.3504
X4.5768Y-4.3504
X4.6161Y-3.9567
X4.626Y-4.3504
X4.6457Y-3.9272
X4.6457Y-3.9862
X4.6752Y-4.3504
X4.7638Y-3.937
X4.7835Y-3.7123
X4.7933Y-3.8976
X4.8228Y-3.9665
X4.8228Y-4.0354
X4.8228Y-4.3504
X4.8327Y-3.8681
X4.8327Y-3.9075
X4.872Y-4.0945
X4.872Y-4.3504
X4.8819Y-4.1929
X4.8819Y-4.2421
X4.9016Y-4.065
X4.9213Y-4.3504
X4.9409Y-4.252
X4.9705Y-4.3504
X4.9803Y-3.7205
X5.0098Y-3.75
X5.0098Y-3.9862
X5.0295Y-3.9567
X5.0394Y-3.7205
X5.1083Y-3.937
X5.187Y-4.2913
X5.1969Y-4.2421
X5.2264Y-3.7205
X5.2264Y-3.7697
X5.502Y-4.2913
X5.7579Y-3.8878
X5.7579Y-3.9862
X5.7579Y-4.0354
X5.7579Y-4.0846
X5.7579Y-4.1339
X5.7972Y-3.8878
X5.7972Y-3.937
X5.7972Y-3.9862
X5.7972Y-4.0354
X5.7972Y-4.0846
X5.7972Y-4.1339
T3
X4.6181Y-3.5531
X4.7181Y-3.5531
X4.8181Y-3.5531
X4.9181Y-3.5531
X5.0181Y-3.5531
X5.1181Y-3.5531
T2
G00X3.7476Y-3.7669
M15
G01X3.724Y-3.7669
M16
G05
G00X3.7476Y-4.1071
M15
G01X3.724Y-4.1071
M16
G05
G00X3.922Y-3.7669
M15
G01X3.8787Y-3.7669
M16
G05
G00X3.922Y-4.1071
M15
G01X3.8787Y-4.1071
M16
G05
T0
M30
