%TF.GenerationSoftware,KiCad,Pcbnew,(6.0.7)*%
%TF.CreationDate,2023-06-20T16:23:12-04:00*%
%TF.ProjectId,microkfd,6d696372-6f6b-4666-942e-6b696361645f,E*%
%TF.SameCoordinates,Original*%
%TF.FileFunction,Soldermask,Top*%
%TF.FilePolarity,Negative*%
%FSLAX46Y46*%
G04 Gerber Fmt 4.6, Leading zero omitted, Abs format (unit mm)*
G04 Created by KiCad (PCBNEW (6.0.7)) date 2023-06-20 16:23:12*
%MOMM*%
%LPD*%
G01*
G04 APERTURE LIST*
G04 Aperture macros list*
%AMRoundRect*
0 Rectangle with rounded corners*
0 $1 Rounding radius*
0 $2 $3 $4 $5 $6 $7 $8 $9 X,Y pos of 4 corners*
0 Add a 4 corners polygon primitive as box body*
4,1,4,$2,$3,$4,$5,$6,$7,$8,$9,$2,$3,0*
0 Add four circle primitives for the rounded corners*
1,1,$1+$1,$2,$3*
1,1,$1+$1,$4,$5*
1,1,$1+$1,$6,$7*
1,1,$1+$1,$8,$9*
0 Add four rect primitives between the rounded corners*
20,1,$1+$1,$2,$3,$4,$5,0*
20,1,$1+$1,$4,$5,$6,$7,0*
20,1,$1+$1,$6,$7,$8,$9,0*
20,1,$1+$1,$8,$9,$2,$3,0*%
%AMRotRect*
0 Rectangle, with rotation*
0 The origin of the aperture is its center*
0 $1 length*
0 $2 width*
0 $3 Rotation angle, in degrees counterclockwise*
0 Add horizontal line*
21,1,$1,$2,0,0,$3*%
%AMFreePoly0*
4,1,22,0.500000,-0.750000,0.000000,-0.750000,0.000000,-0.745033,-0.079941,-0.743568,-0.215256,-0.701293,-0.333266,-0.622738,-0.424486,-0.514219,-0.481581,-0.384460,-0.499164,-0.250000,-0.500000,-0.250000,-0.500000,0.250000,-0.499164,0.250000,-0.499963,0.256109,-0.478152,0.396186,-0.417904,0.524511,-0.324060,0.630769,-0.204165,0.706417,-0.067858,0.745374,0.000000,0.744959,0.000000,0.750000,
0.500000,0.750000,0.500000,-0.750000,0.500000,-0.750000,$1*%
%AMFreePoly1*
4,1,20,0.000000,0.744959,0.073905,0.744508,0.209726,0.703889,0.328688,0.626782,0.421226,0.519385,0.479903,0.390333,0.500000,0.250000,0.500000,-0.250000,0.499851,-0.262216,0.476331,-0.402017,0.414519,-0.529596,0.319384,-0.634700,0.198574,-0.708877,0.061801,-0.746166,0.000000,-0.745033,0.000000,-0.750000,-0.500000,-0.750000,-0.500000,0.750000,0.000000,0.750000,0.000000,0.744959,
0.000000,0.744959,$1*%
G04 Aperture macros list end*
%ADD10RoundRect,0.250000X0.450000X-0.325000X0.450000X0.325000X-0.450000X0.325000X-0.450000X-0.325000X0*%
%ADD11RoundRect,0.150000X-0.587500X-0.150000X0.587500X-0.150000X0.587500X0.150000X-0.587500X0.150000X0*%
%ADD12R,1.200000X0.400000*%
%ADD13RoundRect,0.250000X0.070711X-0.565685X0.565685X-0.070711X-0.070711X0.565685X-0.565685X0.070711X0*%
%ADD14RoundRect,0.250000X0.097227X-0.574524X0.574524X-0.097227X-0.097227X0.574524X-0.574524X0.097227X0*%
%ADD15RoundRect,0.250000X-0.337500X-0.475000X0.337500X-0.475000X0.337500X0.475000X-0.337500X0.475000X0*%
%ADD16RoundRect,0.250000X-0.450000X0.350000X-0.450000X-0.350000X0.450000X-0.350000X0.450000X0.350000X0*%
%ADD17RoundRect,0.250000X0.565685X0.070711X0.070711X0.565685X-0.565685X-0.070711X-0.070711X-0.565685X0*%
%ADD18RoundRect,0.250000X-0.574524X-0.097227X-0.097227X-0.574524X0.574524X0.097227X0.097227X0.574524X0*%
%ADD19R,1.000000X1.000000*%
%ADD20RoundRect,0.250000X0.350000X0.450000X-0.350000X0.450000X-0.350000X-0.450000X0.350000X-0.450000X0*%
%ADD21RotRect,2.100000X1.800000X135.000000*%
%ADD22RoundRect,0.250000X-0.450000X0.325000X-0.450000X-0.325000X0.450000X-0.325000X0.450000X0.325000X0*%
%ADD23RoundRect,0.250000X-0.097227X0.574524X-0.574524X0.097227X0.097227X-0.574524X0.574524X-0.097227X0*%
%ADD24RotRect,1.600000X0.550000X45.000000*%
%ADD25RotRect,1.600000X0.550000X135.000000*%
%ADD26RoundRect,0.250000X0.475000X-0.337500X0.475000X0.337500X-0.475000X0.337500X-0.475000X-0.337500X0*%
%ADD27C,0.650000*%
%ADD28R,1.450000X0.600000*%
%ADD29R,1.450000X0.300000*%
%ADD30O,2.100000X1.000000*%
%ADD31O,1.600000X1.000000*%
%ADD32RoundRect,0.250000X0.450000X-0.350000X0.450000X0.350000X-0.450000X0.350000X-0.450000X-0.350000X0*%
%ADD33FreePoly0,0.000000*%
%ADD34FreePoly1,0.000000*%
%ADD35C,1.600000*%
%ADD36R,2.300000X2.200000*%
%ADD37R,2.800000X2.200000*%
%ADD38R,2.200000X2.100000*%
%ADD39R,1.700000X1.700000*%
%ADD40O,1.700000X1.700000*%
%ADD41RotRect,1.000000X1.000000X45.000000*%
%ADD42RotRect,1.000000X1.000000X315.000000*%
%ADD43RoundRect,0.250000X-0.475000X0.337500X-0.475000X-0.337500X0.475000X-0.337500X0.475000X0.337500X0*%
G04 APERTURE END LIST*
D10*
%TO.C,D2*%
X146750000Y-93275000D03*
X146750000Y-91225000D03*
%TD*%
D11*
%TO.C,Q2*%
X138125000Y-106800000D03*
X138125000Y-108700000D03*
X140000000Y-107750000D03*
%TD*%
D12*
%TO.C,U1*%
X111350000Y-102857500D03*
X111350000Y-102222500D03*
X111350000Y-101587500D03*
X111350000Y-100952500D03*
X111350000Y-100317500D03*
X111350000Y-99682500D03*
X111350000Y-99047500D03*
X111350000Y-98412500D03*
X111350000Y-97777500D03*
X111350000Y-97142500D03*
X106150000Y-97142500D03*
X106150000Y-97777500D03*
X106150000Y-98412500D03*
X106150000Y-99047500D03*
X106150000Y-99682500D03*
X106150000Y-100317500D03*
X106150000Y-100952500D03*
X106150000Y-101587500D03*
X106150000Y-102222500D03*
X106150000Y-102857500D03*
%TD*%
D13*
%TO.C,R7*%
X115792893Y-99457107D03*
X117207107Y-98042893D03*
%TD*%
D14*
%TO.C,C7*%
X120766377Y-109483623D03*
X122233623Y-108016377D03*
%TD*%
D15*
%TO.C,C3*%
X109250000Y-106000000D03*
X111325000Y-106000000D03*
%TD*%
D16*
%TO.C,R4*%
X100750000Y-91750000D03*
X100750000Y-93750000D03*
%TD*%
%TO.C,R13*%
X133562500Y-106750000D03*
X133562500Y-108750000D03*
%TD*%
D17*
%TO.C,R9*%
X129707107Y-106957107D03*
X128292893Y-105542893D03*
%TD*%
D18*
%TO.C,C5*%
X128766377Y-95766377D03*
X130233623Y-97233623D03*
%TD*%
D16*
%TO.C,R2*%
X103750000Y-100500000D03*
X103750000Y-102500000D03*
%TD*%
D19*
%TO.C,TP4*%
X136000000Y-103250000D03*
%TD*%
D20*
%TO.C,R5*%
X106500000Y-106000000D03*
X104500000Y-106000000D03*
%TD*%
D21*
%TO.C,Y1*%
X120229899Y-106462132D03*
X118037868Y-104270101D03*
X116270101Y-106037868D03*
X118462132Y-108229899D03*
%TD*%
D16*
%TO.C,R10*%
X96250000Y-91750000D03*
X96250000Y-93750000D03*
%TD*%
D22*
%TO.C,D1*%
X146750000Y-106725000D03*
X146750000Y-108775000D03*
%TD*%
D23*
%TO.C,C8*%
X116483623Y-102266377D03*
X115016377Y-103733623D03*
%TD*%
D24*
%TO.C,U2*%
X119014897Y-101525305D03*
X119580583Y-102090990D03*
X120146268Y-102656676D03*
X120711953Y-103222361D03*
X121277639Y-103788047D03*
X121843324Y-104353732D03*
X122409010Y-104919417D03*
X122974695Y-105485103D03*
D25*
X125025305Y-105485103D03*
X125590990Y-104919417D03*
X126156676Y-104353732D03*
X126722361Y-103788047D03*
X127288047Y-103222361D03*
X127853732Y-102656676D03*
X128419417Y-102090990D03*
X128985103Y-101525305D03*
D24*
X128985103Y-99474695D03*
X128419417Y-98909010D03*
X127853732Y-98343324D03*
X127288047Y-97777639D03*
X126722361Y-97211953D03*
X126156676Y-96646268D03*
X125590990Y-96080583D03*
X125025305Y-95514897D03*
D25*
X122974695Y-95514897D03*
X122409010Y-96080583D03*
X121843324Y-96646268D03*
X121277639Y-97211953D03*
X120711953Y-97777639D03*
X120146268Y-98343324D03*
X119580583Y-98909010D03*
X119014897Y-99474695D03*
%TD*%
D26*
%TO.C,C2*%
X103000000Y-93787500D03*
X103000000Y-91712500D03*
%TD*%
D27*
%TO.C,J1*%
X98540000Y-97110000D03*
X98540000Y-102890000D03*
D28*
X99985000Y-96750000D03*
X99985000Y-97550000D03*
D29*
X99985000Y-98750000D03*
X99985000Y-99750000D03*
X99985000Y-100250000D03*
X99985000Y-101250000D03*
D28*
X99985000Y-102450000D03*
X99985000Y-103250000D03*
X99985000Y-103250000D03*
X99985000Y-102450000D03*
D29*
X99985000Y-101750000D03*
X99985000Y-100750000D03*
X99985000Y-99250000D03*
X99985000Y-98250000D03*
D28*
X99985000Y-97550000D03*
X99985000Y-96750000D03*
D30*
X99070000Y-104320000D03*
X99070000Y-95680000D03*
D31*
X94890000Y-95680000D03*
X94890000Y-104320000D03*
%TD*%
D32*
%TO.C,R14*%
X135750000Y-93250000D03*
X135750000Y-91250000D03*
%TD*%
D19*
%TO.C,TP3*%
X136000000Y-96500000D03*
%TD*%
D33*
%TO.C,JP1*%
X110600000Y-93500000D03*
D34*
X111900000Y-93500000D03*
%TD*%
D18*
%TO.C,C4*%
X117266377Y-95016377D03*
X118733623Y-96483623D03*
%TD*%
D17*
%TO.C,R8*%
X128207107Y-108457107D03*
X126792893Y-107042893D03*
%TD*%
%TO.C,R3*%
X120207107Y-94957107D03*
X118792893Y-93542893D03*
%TD*%
D19*
%TO.C,D5*%
X144500000Y-106500000D03*
X144500000Y-109000000D03*
%TD*%
D13*
%TO.C,R6*%
X114292893Y-97957107D03*
X115707107Y-96542893D03*
%TD*%
D10*
%TO.C,D3*%
X98500000Y-93775000D03*
X98500000Y-91725000D03*
%TD*%
D35*
%TO.C,J3*%
X139250000Y-100000000D03*
X145250000Y-100000000D03*
D36*
X136100000Y-100000000D03*
D37*
X142950000Y-104500000D03*
X142950000Y-95500000D03*
D38*
X138750000Y-103550000D03*
X138750000Y-96450000D03*
%TD*%
D26*
%TO.C,C1*%
X107500000Y-93787500D03*
X107500000Y-91712500D03*
%TD*%
D32*
%TO.C,R15*%
X135812500Y-108750000D03*
X135812500Y-106750000D03*
%TD*%
D16*
%TO.C,R1*%
X103750000Y-96000000D03*
X103750000Y-98000000D03*
%TD*%
D39*
%TO.C,J2*%
X130000000Y-90250000D03*
D40*
X127460000Y-90250000D03*
X124920000Y-90250000D03*
X122380000Y-90250000D03*
X119840000Y-90250000D03*
X117300000Y-90250000D03*
%TD*%
D16*
%TO.C,R12*%
X133500000Y-91250000D03*
X133500000Y-93250000D03*
%TD*%
D41*
%TO.C,TP1*%
X130500000Y-104250000D03*
%TD*%
D42*
%TO.C,TP2*%
X132000000Y-102750000D03*
%TD*%
D32*
%TO.C,R17*%
X142250000Y-93250000D03*
X142250000Y-91250000D03*
%TD*%
D19*
%TO.C,D4*%
X144500000Y-91000000D03*
X144500000Y-93500000D03*
%TD*%
D16*
%TO.C,R18*%
X142312500Y-106750000D03*
X142312500Y-108750000D03*
%TD*%
D43*
%TO.C,C6*%
X105250000Y-91712500D03*
X105250000Y-93787500D03*
%TD*%
D11*
%TO.C,Q1*%
X138062500Y-91300000D03*
X138062500Y-93200000D03*
X139937500Y-92250000D03*
%TD*%
M02*
