%TF.GenerationSoftware,KiCad,Pcbnew,(6.0.1)*%
%TF.CreationDate,2022-04-09T19:32:08-04:00*%
%TF.ProjectId,microkfd,6d696372-6f6b-4666-942e-6b696361645f,D*%
%TF.SameCoordinates,Original*%
%TF.FileFunction,Copper,L2,Bot*%
%TF.FilePolarity,Positive*%
%FSLAX46Y46*%
G04 Gerber Fmt 4.6, Leading zero omitted, Abs format (unit mm)*
G04 Created by KiCad (PCBNEW (6.0.1)) date 2022-04-09 19:32:08*
%MOMM*%
%LPD*%
G01*
G04 APERTURE LIST*
%TA.AperFunction,ComponentPad*%
%ADD10C,2.000000*%
%TD*%
%TA.AperFunction,ComponentPad*%
%ADD11C,1.800000*%
%TD*%
%TA.AperFunction,SMDPad,CuDef*%
%ADD12R,1.000000X1.000000*%
%TD*%
%TA.AperFunction,ViaPad*%
%ADD13C,0.600000*%
%TD*%
%TA.AperFunction,ViaPad*%
%ADD14C,0.800000*%
%TD*%
%TA.AperFunction,Conductor*%
%ADD15C,0.375000*%
%TD*%
%TA.AperFunction,Conductor*%
%ADD16C,0.500000*%
%TD*%
G04 APERTURE END LIST*
D10*
%TO.P,J1,6,Shield*%
%TO.N,GND*%
X96350000Y-96275000D03*
X96350000Y-103725000D03*
D11*
X92550000Y-96125000D03*
X92550000Y-103875000D03*
%TD*%
D12*
%TO.P,TP1,1,1*%
%TO.N,MOSI*%
X113250000Y-110000000D03*
%TD*%
%TO.P,TP2,1,1*%
%TO.N,SCK*%
X115250000Y-110000000D03*
%TD*%
%TO.P,TP3,1,1*%
%TO.N,MISO*%
X111250000Y-110000000D03*
%TD*%
%TO.P,TP4,1,1*%
%TO.N,RST*%
X117250000Y-110000000D03*
%TD*%
%TO.P,TP5,1,1*%
%TO.N,+5V*%
X109250000Y-110000000D03*
%TD*%
%TO.P,TP6,1,1*%
%TO.N,GND*%
X119250000Y-110000000D03*
%TD*%
D13*
%TO.N,SW_ENT*%
X113500000Y-92937000D03*
X113500000Y-91500000D03*
%TO.N,DATA_IN*%
X117725000Y-104250000D03*
%TO.N,SENSE_IN*%
X119273954Y-104450499D03*
X125000000Y-106250000D03*
%TO.N,GND*%
X144000000Y-92250000D03*
X140500000Y-88250000D03*
X142500000Y-89000000D03*
X143250000Y-90000000D03*
X143750000Y-91000000D03*
X141500000Y-88500000D03*
X116000000Y-96750000D03*
X111000000Y-90250000D03*
X139000000Y-112250000D03*
X120250000Y-106250000D03*
X142250000Y-111500000D03*
X141250000Y-112000000D03*
X106000000Y-112250000D03*
X121250000Y-106250000D03*
X119000000Y-97500000D03*
X106250000Y-93250000D03*
X132000000Y-112250000D03*
X93500000Y-88500000D03*
X144000000Y-100500000D03*
X140000000Y-112250000D03*
X137000000Y-112250000D03*
X134000000Y-112250000D03*
X137500000Y-88250000D03*
X117500000Y-96000000D03*
X114500000Y-96000000D03*
X119000000Y-99500000D03*
X100250000Y-107500000D03*
X134500000Y-88250000D03*
X105250000Y-93250000D03*
X143750000Y-109750000D03*
X130000000Y-112250000D03*
X119000000Y-101500000D03*
X91000000Y-107250000D03*
X107250000Y-93250000D03*
X121000000Y-90250000D03*
X112750000Y-99250000D03*
X131000000Y-90250000D03*
X104000000Y-112250000D03*
X108000000Y-112250000D03*
X144000000Y-99500000D03*
X113500000Y-96000000D03*
X127000000Y-112250000D03*
X144000000Y-107500000D03*
X91000000Y-108250000D03*
X119000000Y-100500000D03*
X128000000Y-112250000D03*
X91000000Y-101500000D03*
X121250000Y-105250000D03*
X105000000Y-112250000D03*
X111250000Y-100000000D03*
X96250000Y-93500000D03*
X91000000Y-99500000D03*
X144000000Y-102500000D03*
X114000000Y-96750000D03*
X144000000Y-106500000D03*
X99000000Y-112250000D03*
X97500000Y-93500000D03*
X116500000Y-96000000D03*
X102500000Y-102250000D03*
X102500000Y-88250000D03*
X91250000Y-109500000D03*
X103500000Y-88250000D03*
X120250000Y-105250000D03*
X135000000Y-112250000D03*
X139500000Y-88250000D03*
X122000000Y-112250000D03*
X107000000Y-112250000D03*
X144000000Y-93500000D03*
X144000000Y-108750000D03*
X144000000Y-105500000D03*
X118250000Y-99000000D03*
X103250000Y-93250000D03*
X104250000Y-93250000D03*
X121000000Y-112250000D03*
X118250000Y-100000000D03*
X92500000Y-89000000D03*
X104500000Y-102250000D03*
X144000000Y-103500000D03*
X133000000Y-112250000D03*
X95500000Y-88250000D03*
X94750000Y-100750000D03*
X125000000Y-112250000D03*
X91750000Y-89750000D03*
X109000000Y-90250000D03*
X91000000Y-91750000D03*
X102000000Y-112250000D03*
X91000000Y-106250000D03*
X138500000Y-88250000D03*
X91250000Y-90750000D03*
X103000000Y-101500000D03*
X123000000Y-112250000D03*
X135500000Y-88250000D03*
X94500000Y-88250000D03*
X131000000Y-112250000D03*
X101500000Y-88250000D03*
X98750000Y-93500000D03*
X144000000Y-104500000D03*
X129000000Y-90250000D03*
X119000000Y-112250000D03*
X126000000Y-112250000D03*
X118250000Y-101000000D03*
X115500000Y-96000000D03*
X105500000Y-102250000D03*
X124000000Y-112250000D03*
X119000000Y-90250000D03*
X96000000Y-112250000D03*
X105000000Y-101500000D03*
X118250000Y-98000000D03*
X91000000Y-102500000D03*
X91000000Y-93750000D03*
X118250000Y-102000000D03*
X129000000Y-112250000D03*
X104000000Y-101500000D03*
X91000000Y-97500000D03*
X136000000Y-112250000D03*
X101000000Y-112250000D03*
X103000000Y-112250000D03*
X91000000Y-92750000D03*
X119000000Y-98500000D03*
X143250000Y-110750000D03*
X138000000Y-112250000D03*
X109000000Y-112250000D03*
X94750000Y-103750000D03*
X117000000Y-96750000D03*
X91000000Y-100500000D03*
X100000000Y-112250000D03*
X91000000Y-98500000D03*
X110750000Y-99250000D03*
X96500000Y-88250000D03*
X115000000Y-96750000D03*
X97000000Y-112250000D03*
X111750000Y-93000000D03*
X136500000Y-88250000D03*
X144000000Y-98500000D03*
X120000000Y-112250000D03*
X98000000Y-112250000D03*
X111750000Y-99250000D03*
X144000000Y-101500000D03*
X103500000Y-102250000D03*
X95000000Y-112250000D03*
X112250000Y-100000000D03*
%TO.N,+5V*%
X124000000Y-89500000D03*
X114000000Y-89500000D03*
X101500000Y-89500000D03*
X100500000Y-106000000D03*
D14*
X115000000Y-100000000D03*
X101000000Y-102500000D03*
D13*
X104000000Y-89500000D03*
%TO.N,I2C_SDA*%
X116750000Y-103750000D03*
X104500000Y-97500000D03*
%TO.N,I2C_SCL*%
X116000000Y-103000000D03*
X101000000Y-97500000D03*
%TO.N,DATA_IN*%
X123250000Y-99500000D03*
%TO.N,LED_PWR*%
X108250000Y-107000000D03*
X96750000Y-107750000D03*
%TO.N,LED_SNS*%
X129250000Y-109000000D03*
X123250000Y-100750000D03*
%TO.N,LED_ACT*%
X109250000Y-95000000D03*
X135500000Y-108750000D03*
%TO.N,MISO*%
X110155331Y-105905331D03*
%TO.N,SCK*%
X112477168Y-103727168D03*
%TO.N,MOSI*%
X111780331Y-104280331D03*
%TO.N,RST*%
X105500000Y-110250000D03*
%TD*%
D15*
%TO.N,SW_ENT*%
X113500000Y-91500000D02*
X113500000Y-92937000D01*
%TO.N,DATA_IN*%
X118475000Y-103500000D02*
X117725000Y-104250000D01*
X123250000Y-99500000D02*
X119250000Y-103500000D01*
X119250000Y-103500000D02*
X118475000Y-103500000D01*
%TO.N,SENSE_IN*%
X119273954Y-106773954D02*
X119273954Y-104450499D01*
X122250000Y-107250000D02*
X119750000Y-107250000D01*
X125000000Y-106250000D02*
X123250000Y-106250000D01*
X123250000Y-106250000D02*
X122250000Y-107250000D01*
X119750000Y-107250000D02*
X119273954Y-106773954D01*
D16*
%TO.N,+5V*%
X101500000Y-93000000D02*
X99750000Y-94750000D01*
X109000000Y-106000000D02*
X115000000Y-100000000D01*
X99750000Y-94750000D02*
X99750000Y-102750000D01*
X99750000Y-105250000D02*
X100500000Y-106000000D01*
X99750000Y-102750000D02*
X100750000Y-102750000D01*
D15*
X114000000Y-89500000D02*
X124000000Y-89500000D01*
X109250000Y-106250000D02*
X109000000Y-106000000D01*
X104500000Y-89500000D02*
X114000000Y-89500000D01*
D16*
X100750000Y-102750000D02*
X101000000Y-102500000D01*
D15*
X104500000Y-89500000D02*
X101500000Y-89500000D01*
D16*
X99750000Y-102750000D02*
X99750000Y-105250000D01*
D15*
X109250000Y-110000000D02*
X109250000Y-106250000D01*
D16*
X101500000Y-89500000D02*
X101500000Y-93000000D01*
X100500000Y-106000000D02*
X109000000Y-106000000D01*
D15*
%TO.N,I2C_SDA*%
X116750000Y-103750000D02*
X116750000Y-98500000D01*
X116750000Y-98500000D02*
X115750000Y-97500000D01*
X115750000Y-97500000D02*
X104500000Y-97500000D01*
%TO.N,I2C_SCL*%
X102687501Y-98187501D02*
X102000000Y-97500000D01*
X116000000Y-98750000D02*
X115437501Y-98187501D01*
X102000000Y-97500000D02*
X101000000Y-97500000D01*
X115437501Y-98187501D02*
X102687501Y-98187501D01*
X116000000Y-103000000D02*
X116000000Y-98750000D01*
%TO.N,LED_PWR*%
X108062499Y-106812499D02*
X108250000Y-107000000D01*
X97687501Y-106812499D02*
X108062499Y-106812499D01*
X96750000Y-107750000D02*
X97687501Y-106812499D01*
%TO.N,LED_SNS*%
X129250000Y-106750000D02*
X129250000Y-109000000D01*
X123250000Y-100750000D02*
X129250000Y-106750000D01*
%TO.N,LED_ACT*%
X122500000Y-94250000D02*
X135500000Y-107250000D01*
X109250000Y-95000000D02*
X110000000Y-94250000D01*
X110000000Y-94250000D02*
X122500000Y-94250000D01*
X135500000Y-107250000D02*
X135500000Y-108750000D01*
%TO.N,MISO*%
X110155331Y-106344669D02*
X110000000Y-106500000D01*
X110155331Y-105905331D02*
X110155331Y-106344669D01*
X111250000Y-110000000D02*
X111250000Y-107750000D01*
X111250000Y-107750000D02*
X110000000Y-106500000D01*
%TO.N,SCK*%
X115250000Y-110000000D02*
X115250000Y-106500000D01*
X115250000Y-106500000D02*
X112477168Y-103727168D01*
%TO.N,MOSI*%
X113250000Y-110000000D02*
X113250000Y-105750000D01*
X113250000Y-105750000D02*
X111780331Y-104280331D01*
%TO.N,RST*%
X116362499Y-110887501D02*
X106137501Y-110887501D01*
X117250000Y-110000000D02*
X116362499Y-110887501D01*
X106137501Y-110887501D02*
X105500000Y-110250000D01*
%TD*%
%TA.AperFunction,Conductor*%
%TO.N,GND*%
G36*
X109387361Y-87768907D02*
G01*
X109423325Y-87818407D01*
X109423325Y-87879593D01*
X109418748Y-87891152D01*
X109403037Y-87924540D01*
X109400386Y-87930174D01*
X109370773Y-88085412D01*
X109380696Y-88243138D01*
X109429533Y-88393441D01*
X109432871Y-88398701D01*
X109432872Y-88398703D01*
X109510877Y-88521619D01*
X109514214Y-88526877D01*
X109629418Y-88635062D01*
X109634881Y-88638065D01*
X109634882Y-88638066D01*
X109762450Y-88708197D01*
X109762454Y-88708198D01*
X109767908Y-88711197D01*
X109773934Y-88712744D01*
X109773936Y-88712745D01*
X109914946Y-88748951D01*
X109914950Y-88748952D01*
X109920981Y-88750500D01*
X110039350Y-88750500D01*
X110156792Y-88735664D01*
X110303732Y-88677486D01*
X110394330Y-88611663D01*
X110426551Y-88588253D01*
X110426552Y-88588252D01*
X110431587Y-88584594D01*
X110435553Y-88579800D01*
X110435556Y-88579797D01*
X110528354Y-88467622D01*
X110532324Y-88462823D01*
X110599614Y-88319826D01*
X110629227Y-88164588D01*
X110619304Y-88006862D01*
X110577951Y-87879592D01*
X110577950Y-87818408D01*
X110613914Y-87768908D01*
X110672105Y-87750000D01*
X119329170Y-87750000D01*
X119387361Y-87768907D01*
X119423325Y-87818407D01*
X119423325Y-87879593D01*
X119418748Y-87891152D01*
X119403037Y-87924540D01*
X119400386Y-87930174D01*
X119370773Y-88085412D01*
X119380696Y-88243138D01*
X119429533Y-88393441D01*
X119432871Y-88398701D01*
X119432872Y-88398703D01*
X119510877Y-88521619D01*
X119514214Y-88526877D01*
X119629418Y-88635062D01*
X119634881Y-88638065D01*
X119634882Y-88638066D01*
X119762450Y-88708197D01*
X119762454Y-88708198D01*
X119767908Y-88711197D01*
X119773934Y-88712744D01*
X119773936Y-88712745D01*
X119914946Y-88748951D01*
X119914950Y-88748952D01*
X119920981Y-88750500D01*
X120039350Y-88750500D01*
X120156792Y-88735664D01*
X120303732Y-88677486D01*
X120394330Y-88611663D01*
X120426551Y-88588253D01*
X120426552Y-88588252D01*
X120431587Y-88584594D01*
X120435553Y-88579800D01*
X120435556Y-88579797D01*
X120528354Y-88467622D01*
X120532324Y-88462823D01*
X120599614Y-88319826D01*
X120629227Y-88164588D01*
X120619304Y-88006862D01*
X120577951Y-87879592D01*
X120577950Y-87818408D01*
X120613914Y-87768908D01*
X120672105Y-87750000D01*
X129329170Y-87750000D01*
X129387361Y-87768907D01*
X129423325Y-87818407D01*
X129423325Y-87879593D01*
X129418748Y-87891152D01*
X129403037Y-87924540D01*
X129400386Y-87930174D01*
X129370773Y-88085412D01*
X129380696Y-88243138D01*
X129429533Y-88393441D01*
X129432871Y-88398701D01*
X129432872Y-88398703D01*
X129510877Y-88521619D01*
X129514214Y-88526877D01*
X129629418Y-88635062D01*
X129634881Y-88638065D01*
X129634882Y-88638066D01*
X129762450Y-88708197D01*
X129762454Y-88708198D01*
X129767908Y-88711197D01*
X129773934Y-88712744D01*
X129773936Y-88712745D01*
X129914946Y-88748951D01*
X129914950Y-88748952D01*
X129920981Y-88750500D01*
X130039350Y-88750500D01*
X130156792Y-88735664D01*
X130303732Y-88677486D01*
X130394330Y-88611663D01*
X130426551Y-88588253D01*
X130426552Y-88588252D01*
X130431587Y-88584594D01*
X130435553Y-88579800D01*
X130435556Y-88579797D01*
X130528354Y-88467622D01*
X130532324Y-88462823D01*
X130599614Y-88319826D01*
X130629227Y-88164588D01*
X130619304Y-88006862D01*
X130577951Y-87879592D01*
X130577950Y-87818408D01*
X130613914Y-87768908D01*
X130672105Y-87750000D01*
X139965624Y-87750000D01*
X139984938Y-87751902D01*
X140000000Y-87754898D01*
X140009563Y-87752996D01*
X140011286Y-87752996D01*
X140032114Y-87751403D01*
X140409674Y-87767887D01*
X140418278Y-87768640D01*
X140820545Y-87821599D01*
X140829051Y-87823099D01*
X141225168Y-87910916D01*
X141233509Y-87913151D01*
X141620481Y-88035163D01*
X141628583Y-88038111D01*
X141907585Y-88153678D01*
X142003446Y-88193385D01*
X142011273Y-88197035D01*
X142371171Y-88384386D01*
X142378631Y-88388692D01*
X142691878Y-88588253D01*
X142720848Y-88606709D01*
X142727922Y-88611663D01*
X143049815Y-88858660D01*
X143056419Y-88864201D01*
X143355578Y-89138330D01*
X143361670Y-89144422D01*
X143635799Y-89443581D01*
X143641338Y-89450183D01*
X143776299Y-89626067D01*
X143888337Y-89772078D01*
X143893290Y-89779151D01*
X144111308Y-90121369D01*
X144115614Y-90128829D01*
X144200453Y-90291803D01*
X144302965Y-90488727D01*
X144306615Y-90496554D01*
X144449548Y-90841623D01*
X144461886Y-90871410D01*
X144464837Y-90879519D01*
X144569069Y-91210099D01*
X144586849Y-91266490D01*
X144589084Y-91274832D01*
X144676901Y-91670949D01*
X144678401Y-91679455D01*
X144731360Y-92081722D01*
X144732113Y-92090326D01*
X144748597Y-92467886D01*
X144747004Y-92488714D01*
X144747004Y-92490437D01*
X144745102Y-92500000D01*
X144747004Y-92509562D01*
X144748098Y-92515062D01*
X144750000Y-92534376D01*
X144750000Y-107965624D01*
X144748098Y-107984938D01*
X144745102Y-108000000D01*
X144747004Y-108009563D01*
X144747004Y-108011286D01*
X144748597Y-108032114D01*
X144732113Y-108409674D01*
X144731360Y-108418278D01*
X144678401Y-108820545D01*
X144676901Y-108829051D01*
X144589084Y-109225168D01*
X144586849Y-109233509D01*
X144508077Y-109483345D01*
X144464840Y-109620474D01*
X144461889Y-109628583D01*
X144389122Y-109804257D01*
X144306615Y-110003446D01*
X144302965Y-110011273D01*
X144115614Y-110371171D01*
X144111308Y-110378631D01*
X143943127Y-110642621D01*
X143893291Y-110720848D01*
X143888337Y-110727922D01*
X143641340Y-111049815D01*
X143635799Y-111056419D01*
X143361670Y-111355578D01*
X143355578Y-111361670D01*
X143056419Y-111635799D01*
X143049815Y-111641340D01*
X142727922Y-111888337D01*
X142720849Y-111893290D01*
X142378631Y-112111308D01*
X142371171Y-112115614D01*
X142070212Y-112272283D01*
X142011273Y-112302965D01*
X142003446Y-112306615D01*
X141628583Y-112461889D01*
X141620481Y-112464837D01*
X141233510Y-112586849D01*
X141225168Y-112589084D01*
X140829051Y-112676901D01*
X140820545Y-112678401D01*
X140418278Y-112731360D01*
X140409674Y-112732113D01*
X140032114Y-112748597D01*
X140011286Y-112747004D01*
X140009563Y-112747004D01*
X140000000Y-112745102D01*
X139990438Y-112747004D01*
X139984938Y-112748098D01*
X139965624Y-112750000D01*
X95034376Y-112750000D01*
X95015062Y-112748098D01*
X95009562Y-112747004D01*
X95000000Y-112745102D01*
X94990437Y-112747004D01*
X94988714Y-112747004D01*
X94967886Y-112748597D01*
X94590326Y-112732113D01*
X94581722Y-112731360D01*
X94179455Y-112678401D01*
X94170949Y-112676901D01*
X93774832Y-112589084D01*
X93766490Y-112586849D01*
X93379519Y-112464837D01*
X93371417Y-112461889D01*
X92996554Y-112306615D01*
X92988727Y-112302965D01*
X92929788Y-112272283D01*
X92628829Y-112115614D01*
X92621369Y-112111308D01*
X92279151Y-111893290D01*
X92272078Y-111888337D01*
X91950185Y-111641340D01*
X91943581Y-111635799D01*
X91644422Y-111361670D01*
X91638330Y-111355578D01*
X91364201Y-111056419D01*
X91358660Y-111049815D01*
X91111663Y-110727922D01*
X91106709Y-110720848D01*
X91056873Y-110642621D01*
X90888692Y-110378631D01*
X90884386Y-110371171D01*
X90697035Y-110011273D01*
X90693385Y-110003446D01*
X90610878Y-109804257D01*
X90538111Y-109628583D01*
X90535160Y-109620474D01*
X90491924Y-109483345D01*
X90413151Y-109233509D01*
X90410916Y-109225168D01*
X90323099Y-108829051D01*
X90321599Y-108820545D01*
X90268640Y-108418278D01*
X90267887Y-108409674D01*
X90251403Y-108032114D01*
X90252996Y-108011286D01*
X90252996Y-108009563D01*
X90254898Y-108000000D01*
X90251902Y-107984938D01*
X90250000Y-107965624D01*
X90250000Y-107750000D01*
X96194750Y-107750000D01*
X96195597Y-107756433D01*
X96198947Y-107781875D01*
X96213670Y-107893709D01*
X96269139Y-108027625D01*
X96357379Y-108142621D01*
X96472375Y-108230861D01*
X96606291Y-108286330D01*
X96612720Y-108287176D01*
X96612722Y-108287177D01*
X96743567Y-108304403D01*
X96750000Y-108305250D01*
X96756433Y-108304403D01*
X96887278Y-108287177D01*
X96887280Y-108287176D01*
X96893709Y-108286330D01*
X97027625Y-108230861D01*
X97142621Y-108142621D01*
X97230861Y-108027625D01*
X97286330Y-107893709D01*
X97291133Y-107857225D01*
X97319282Y-107800144D01*
X97839930Y-107279495D01*
X97894447Y-107251718D01*
X97909934Y-107250499D01*
X107699503Y-107250499D01*
X107757694Y-107269406D01*
X107778045Y-107289232D01*
X107853425Y-107387469D01*
X107853428Y-107387472D01*
X107857379Y-107392621D01*
X107972375Y-107480861D01*
X108106291Y-107536330D01*
X108112720Y-107537176D01*
X108112722Y-107537177D01*
X108222221Y-107551593D01*
X108241896Y-107554183D01*
X108243567Y-107554403D01*
X108250000Y-107555250D01*
X108256433Y-107554403D01*
X108258105Y-107554183D01*
X108277779Y-107551593D01*
X108387278Y-107537177D01*
X108387280Y-107537176D01*
X108393709Y-107536330D01*
X108527625Y-107480861D01*
X108642621Y-107392621D01*
X108644362Y-107390352D01*
X108697513Y-107363271D01*
X108757945Y-107372842D01*
X108801210Y-107416107D01*
X108812000Y-107461052D01*
X108812000Y-109151714D01*
X108793093Y-109209905D01*
X108743593Y-109245869D01*
X108726229Y-109249500D01*
X108725326Y-109249500D01*
X108720557Y-109250449D01*
X108720553Y-109250449D01*
X108666308Y-109261240D01*
X108652260Y-109264034D01*
X108569399Y-109319399D01*
X108514034Y-109402260D01*
X108499500Y-109475326D01*
X108499500Y-110350501D01*
X108480593Y-110408692D01*
X108431093Y-110444656D01*
X108400500Y-110449501D01*
X106359934Y-110449501D01*
X106301743Y-110430594D01*
X106289930Y-110420505D01*
X106069282Y-110199857D01*
X106041133Y-110142775D01*
X106037177Y-110112722D01*
X106037176Y-110112720D01*
X106036330Y-110106291D01*
X105980861Y-109972375D01*
X105892621Y-109857379D01*
X105777625Y-109769139D01*
X105643709Y-109713670D01*
X105637280Y-109712824D01*
X105637278Y-109712823D01*
X105506433Y-109695597D01*
X105500000Y-109694750D01*
X105493567Y-109695597D01*
X105362722Y-109712823D01*
X105362720Y-109712824D01*
X105356291Y-109713670D01*
X105222375Y-109769139D01*
X105107379Y-109857379D01*
X105019139Y-109972375D01*
X104963670Y-110106291D01*
X104962824Y-110112720D01*
X104962823Y-110112722D01*
X104954480Y-110176095D01*
X104944750Y-110250000D01*
X104963670Y-110393709D01*
X105019139Y-110527625D01*
X105107379Y-110642621D01*
X105222375Y-110730861D01*
X105356291Y-110786330D01*
X105362720Y-110787176D01*
X105362722Y-110787177D01*
X105380692Y-110789542D01*
X105392775Y-110791133D01*
X105449856Y-110819282D01*
X105805252Y-111174678D01*
X105812993Y-111183390D01*
X105829701Y-111204584D01*
X105829704Y-111204587D01*
X105834283Y-111210395D01*
X105840370Y-111214602D01*
X105840371Y-111214603D01*
X105881500Y-111243029D01*
X105884031Y-111244837D01*
X105930233Y-111278963D01*
X105936857Y-111281289D01*
X105942631Y-111285280D01*
X105949682Y-111287510D01*
X105949684Y-111287511D01*
X105997388Y-111302598D01*
X106000336Y-111303582D01*
X106047514Y-111320149D01*
X106047518Y-111320150D01*
X106054501Y-111322602D01*
X106060491Y-111322838D01*
X106062826Y-111323293D01*
X106068209Y-111324995D01*
X106074639Y-111325501D01*
X106126330Y-111325501D01*
X106130218Y-111325577D01*
X106186108Y-111327773D01*
X106192731Y-111326017D01*
X106202107Y-111325501D01*
X116330624Y-111325501D01*
X116342260Y-111326187D01*
X116376412Y-111330229D01*
X116432881Y-111319916D01*
X116435928Y-111319409D01*
X116492743Y-111310867D01*
X116499071Y-111307828D01*
X116505977Y-111306567D01*
X116512546Y-111303155D01*
X116512548Y-111303154D01*
X116556950Y-111280089D01*
X116559679Y-111278725D01*
X116611472Y-111253854D01*
X116615876Y-111249783D01*
X116617843Y-111248458D01*
X116622857Y-111245853D01*
X116627762Y-111241664D01*
X116664329Y-111205097D01*
X116667131Y-111202403D01*
X116692662Y-111178802D01*
X116708188Y-111164450D01*
X116711628Y-111158527D01*
X116717894Y-111151532D01*
X117089928Y-110779497D01*
X117144445Y-110751719D01*
X117159932Y-110750500D01*
X117774674Y-110750500D01*
X117847740Y-110735966D01*
X117930601Y-110680601D01*
X117985966Y-110597740D01*
X118000500Y-110524674D01*
X118000500Y-110519766D01*
X118500000Y-110519766D01*
X118500948Y-110529388D01*
X118512603Y-110587983D01*
X118519922Y-110605651D01*
X118564341Y-110672130D01*
X118577870Y-110685659D01*
X118644349Y-110730078D01*
X118662017Y-110737397D01*
X118720612Y-110749052D01*
X118730234Y-110750000D01*
X119046820Y-110750000D01*
X119059505Y-110745878D01*
X119062500Y-110741757D01*
X119062500Y-110734320D01*
X119437500Y-110734320D01*
X119441622Y-110747005D01*
X119445743Y-110750000D01*
X119769766Y-110750000D01*
X119779388Y-110749052D01*
X119837983Y-110737397D01*
X119855651Y-110730078D01*
X119922130Y-110685659D01*
X119935659Y-110672130D01*
X119980078Y-110605651D01*
X119987397Y-110587983D01*
X119999052Y-110529388D01*
X120000000Y-110519766D01*
X120000000Y-110203180D01*
X119995878Y-110190495D01*
X119991757Y-110187500D01*
X119453180Y-110187500D01*
X119440495Y-110191622D01*
X119437500Y-110195743D01*
X119437500Y-110734320D01*
X119062500Y-110734320D01*
X119062500Y-110203180D01*
X119058378Y-110190495D01*
X119054257Y-110187500D01*
X118515680Y-110187500D01*
X118502995Y-110191622D01*
X118500000Y-110195743D01*
X118500000Y-110519766D01*
X118000500Y-110519766D01*
X118000500Y-109796820D01*
X118500000Y-109796820D01*
X118504122Y-109809505D01*
X118508243Y-109812500D01*
X119046820Y-109812500D01*
X119059505Y-109808378D01*
X119062500Y-109804257D01*
X119062500Y-109796820D01*
X119437500Y-109796820D01*
X119441622Y-109809505D01*
X119445743Y-109812500D01*
X119984320Y-109812500D01*
X119997005Y-109808378D01*
X120000000Y-109804257D01*
X120000000Y-109480234D01*
X119999052Y-109470612D01*
X119987397Y-109412017D01*
X119980078Y-109394349D01*
X119935659Y-109327870D01*
X119922130Y-109314341D01*
X119855651Y-109269922D01*
X119837983Y-109262603D01*
X119779388Y-109250948D01*
X119769766Y-109250000D01*
X119453180Y-109250000D01*
X119440495Y-109254122D01*
X119437500Y-109258243D01*
X119437500Y-109796820D01*
X119062500Y-109796820D01*
X119062500Y-109265680D01*
X119058378Y-109252995D01*
X119054257Y-109250000D01*
X118730234Y-109250000D01*
X118720612Y-109250948D01*
X118662017Y-109262603D01*
X118644349Y-109269922D01*
X118577870Y-109314341D01*
X118564341Y-109327870D01*
X118519922Y-109394349D01*
X118512603Y-109412017D01*
X118500948Y-109470612D01*
X118500000Y-109480234D01*
X118500000Y-109796820D01*
X118000500Y-109796820D01*
X118000500Y-109475326D01*
X117985966Y-109402260D01*
X117930601Y-109319399D01*
X117847740Y-109264034D01*
X117774674Y-109249500D01*
X116725326Y-109249500D01*
X116652260Y-109264034D01*
X116569399Y-109319399D01*
X116514034Y-109402260D01*
X116499500Y-109475326D01*
X116499500Y-110090067D01*
X116480593Y-110148258D01*
X116470504Y-110160071D01*
X116210070Y-110420505D01*
X116155553Y-110448282D01*
X116140066Y-110449501D01*
X116099500Y-110449501D01*
X116041309Y-110430594D01*
X116005345Y-110381094D01*
X116000500Y-110350501D01*
X116000500Y-109475326D01*
X115985966Y-109402260D01*
X115930601Y-109319399D01*
X115847740Y-109264034D01*
X115833692Y-109261240D01*
X115779447Y-109250449D01*
X115779443Y-109250449D01*
X115776398Y-109249843D01*
X115776396Y-109249842D01*
X115774674Y-109249500D01*
X115774749Y-109249122D01*
X115721242Y-109225720D01*
X115690301Y-109172934D01*
X115688000Y-109151714D01*
X115688000Y-106531875D01*
X115688686Y-106520239D01*
X115691523Y-106496265D01*
X115692728Y-106486087D01*
X115682415Y-106429618D01*
X115681907Y-106426566D01*
X115681013Y-106420621D01*
X115673366Y-106369756D01*
X115670327Y-106363428D01*
X115669066Y-106356522D01*
X115642588Y-106305549D01*
X115641224Y-106302820D01*
X115616353Y-106251027D01*
X115612280Y-106246621D01*
X115610958Y-106244659D01*
X115608352Y-106239642D01*
X115604163Y-106234738D01*
X115567607Y-106198182D01*
X115564913Y-106195379D01*
X115531975Y-106159747D01*
X115531971Y-106159744D01*
X115526949Y-106154311D01*
X115521026Y-106150870D01*
X115514028Y-106144603D01*
X113046450Y-103677025D01*
X113018301Y-103619943D01*
X113014345Y-103589890D01*
X113014344Y-103589888D01*
X113013498Y-103583459D01*
X112958029Y-103449543D01*
X112869789Y-103334547D01*
X112754793Y-103246307D01*
X112748799Y-103243824D01*
X112748795Y-103243822D01*
X112684295Y-103217106D01*
X112637769Y-103177370D01*
X112623485Y-103117875D01*
X112646900Y-103061347D01*
X112652176Y-103055638D01*
X115032313Y-100675501D01*
X115080215Y-100649004D01*
X115216149Y-100617871D01*
X115216151Y-100617870D01*
X115221968Y-100616538D01*
X115227299Y-100613857D01*
X115357299Y-100548474D01*
X115357301Y-100548473D01*
X115362625Y-100545795D01*
X115398705Y-100514980D01*
X115455233Y-100491565D01*
X115514728Y-100505849D01*
X115554464Y-100552375D01*
X115562000Y-100590260D01*
X115562000Y-102632911D01*
X115541542Y-102693179D01*
X115519139Y-102722375D01*
X115463670Y-102856291D01*
X115462824Y-102862720D01*
X115462823Y-102862722D01*
X115454992Y-102922202D01*
X115444750Y-103000000D01*
X115445597Y-103006433D01*
X115462533Y-103135071D01*
X115463670Y-103143709D01*
X115519139Y-103277625D01*
X115607379Y-103392621D01*
X115722375Y-103480861D01*
X115856291Y-103536330D01*
X115862720Y-103537176D01*
X115862722Y-103537177D01*
X115972221Y-103551593D01*
X115988334Y-103553714D01*
X115993567Y-103554403D01*
X116000000Y-103555250D01*
X116006433Y-103554403D01*
X116006434Y-103554403D01*
X116096361Y-103542564D01*
X116156522Y-103553714D01*
X116198639Y-103598097D01*
X116207436Y-103653639D01*
X116199533Y-103713670D01*
X116194750Y-103750000D01*
X116195597Y-103756433D01*
X116211591Y-103877914D01*
X116213670Y-103893709D01*
X116269139Y-104027625D01*
X116357379Y-104142621D01*
X116472375Y-104230861D01*
X116606291Y-104286330D01*
X116612720Y-104287176D01*
X116612722Y-104287177D01*
X116743567Y-104304403D01*
X116750000Y-104305250D01*
X116756433Y-104304403D01*
X116887278Y-104287177D01*
X116887280Y-104287176D01*
X116893709Y-104286330D01*
X117002440Y-104241293D01*
X117021629Y-104233345D01*
X117021632Y-104233344D01*
X117027625Y-104230861D01*
X117030250Y-104228847D01*
X117088785Y-104216405D01*
X117144680Y-104241293D01*
X117175272Y-104294281D01*
X117176588Y-104301940D01*
X117188670Y-104393709D01*
X117244139Y-104527625D01*
X117332379Y-104642621D01*
X117447375Y-104730861D01*
X117581291Y-104786330D01*
X117587720Y-104787176D01*
X117587722Y-104787177D01*
X117718567Y-104804403D01*
X117725000Y-104805250D01*
X117731433Y-104804403D01*
X117862278Y-104787177D01*
X117862280Y-104787176D01*
X117868709Y-104786330D01*
X118002625Y-104730861D01*
X118117621Y-104642621D01*
X118205861Y-104527625D01*
X118261330Y-104393709D01*
X118266133Y-104357225D01*
X118294282Y-104300144D01*
X118627430Y-103966996D01*
X118681947Y-103939219D01*
X118697434Y-103938000D01*
X118772566Y-103938000D01*
X118830757Y-103956907D01*
X118866721Y-104006407D01*
X118866721Y-104067593D01*
X118851108Y-104097267D01*
X118793093Y-104172874D01*
X118737624Y-104306790D01*
X118736778Y-104313219D01*
X118736777Y-104313221D01*
X118722361Y-104422720D01*
X118718704Y-104450499D01*
X118719551Y-104456932D01*
X118730674Y-104541416D01*
X118737624Y-104594208D01*
X118793093Y-104728124D01*
X118797044Y-104733273D01*
X118815496Y-104757320D01*
X118835954Y-104817588D01*
X118835954Y-106742079D01*
X118835268Y-106753715D01*
X118831226Y-106787867D01*
X118841536Y-106844321D01*
X118842046Y-106847383D01*
X118850588Y-106904198D01*
X118853627Y-106910526D01*
X118854888Y-106917432D01*
X118858300Y-106924001D01*
X118858301Y-106924003D01*
X118881366Y-106968405D01*
X118882730Y-106971134D01*
X118907601Y-107022927D01*
X118911672Y-107027331D01*
X118912997Y-107029298D01*
X118915602Y-107034312D01*
X118919791Y-107039217D01*
X118956358Y-107075784D01*
X118959051Y-107078585D01*
X118997005Y-107119643D01*
X119002926Y-107123082D01*
X119009920Y-107129345D01*
X119417754Y-107537179D01*
X119425489Y-107545885D01*
X119446782Y-107572894D01*
X119452869Y-107577101D01*
X119452870Y-107577102D01*
X119493999Y-107605528D01*
X119496530Y-107607336D01*
X119542732Y-107641462D01*
X119549356Y-107643788D01*
X119555130Y-107647779D01*
X119562181Y-107650009D01*
X119562183Y-107650010D01*
X119609887Y-107665097D01*
X119612835Y-107666081D01*
X119660013Y-107682648D01*
X119660017Y-107682649D01*
X119667000Y-107685101D01*
X119672990Y-107685337D01*
X119675325Y-107685792D01*
X119680708Y-107687494D01*
X119687138Y-107688000D01*
X119738829Y-107688000D01*
X119742717Y-107688076D01*
X119798607Y-107690272D01*
X119805230Y-107688516D01*
X119814606Y-107688000D01*
X122218125Y-107688000D01*
X122229761Y-107688686D01*
X122263913Y-107692728D01*
X122320382Y-107682415D01*
X122323429Y-107681908D01*
X122380244Y-107673366D01*
X122386572Y-107670327D01*
X122393478Y-107669066D01*
X122400047Y-107665654D01*
X122400049Y-107665653D01*
X122444451Y-107642588D01*
X122447180Y-107641224D01*
X122498973Y-107616353D01*
X122503377Y-107612282D01*
X122505344Y-107610957D01*
X122510358Y-107608352D01*
X122515263Y-107604163D01*
X122551830Y-107567596D01*
X122554632Y-107564902D01*
X122590259Y-107531969D01*
X122590261Y-107531967D01*
X122595689Y-107526949D01*
X122599127Y-107521030D01*
X122605391Y-107514035D01*
X123002075Y-107117351D01*
X123402429Y-106716996D01*
X123456946Y-106689219D01*
X123472433Y-106688000D01*
X124632911Y-106688000D01*
X124693179Y-106708458D01*
X124717226Y-106726910D01*
X124722375Y-106730861D01*
X124856291Y-106786330D01*
X124862720Y-106787176D01*
X124862722Y-106787177D01*
X124993567Y-106804403D01*
X125000000Y-106805250D01*
X125006433Y-106804403D01*
X125137278Y-106787177D01*
X125137280Y-106787176D01*
X125143709Y-106786330D01*
X125277625Y-106730861D01*
X125392621Y-106642621D01*
X125480861Y-106527625D01*
X125536330Y-106393709D01*
X125538900Y-106374194D01*
X125554403Y-106256433D01*
X125555250Y-106250000D01*
X125536330Y-106106291D01*
X125480861Y-105972375D01*
X125392621Y-105857379D01*
X125277625Y-105769139D01*
X125143709Y-105713670D01*
X125137280Y-105712824D01*
X125137278Y-105712823D01*
X125006433Y-105695597D01*
X125000000Y-105694750D01*
X124993567Y-105695597D01*
X124862722Y-105712823D01*
X124862720Y-105712824D01*
X124856291Y-105713670D01*
X124722375Y-105769139D01*
X124717226Y-105773090D01*
X124693179Y-105791542D01*
X124632911Y-105812000D01*
X123281875Y-105812000D01*
X123270239Y-105811314D01*
X123268660Y-105811127D01*
X123236087Y-105807272D01*
X123179618Y-105817585D01*
X123176571Y-105818092D01*
X123119756Y-105826634D01*
X123113428Y-105829673D01*
X123106522Y-105830934D01*
X123099953Y-105834346D01*
X123099951Y-105834347D01*
X123055549Y-105857412D01*
X123052820Y-105858776D01*
X123001027Y-105883647D01*
X122996621Y-105887720D01*
X122994659Y-105889042D01*
X122989642Y-105891648D01*
X122984738Y-105895837D01*
X122948182Y-105932393D01*
X122945379Y-105935087D01*
X122909747Y-105968025D01*
X122909744Y-105968029D01*
X122904311Y-105973051D01*
X122900870Y-105978974D01*
X122894603Y-105985972D01*
X122097571Y-106783004D01*
X122043054Y-106810781D01*
X122027567Y-106812000D01*
X119972433Y-106812000D01*
X119914242Y-106793093D01*
X119902429Y-106783004D01*
X119740950Y-106621525D01*
X119713173Y-106567008D01*
X119711954Y-106551521D01*
X119711954Y-104817588D01*
X119732412Y-104757320D01*
X119750864Y-104733273D01*
X119754815Y-104728124D01*
X119810284Y-104594208D01*
X119817235Y-104541416D01*
X119828357Y-104456932D01*
X119829204Y-104450499D01*
X119825547Y-104422720D01*
X119811131Y-104313221D01*
X119811130Y-104313219D01*
X119810284Y-104306790D01*
X119754815Y-104172874D01*
X119666575Y-104057878D01*
X119592778Y-104001251D01*
X119555252Y-103972456D01*
X119520597Y-103922031D01*
X119522199Y-103860867D01*
X119545516Y-103823910D01*
X119551831Y-103817595D01*
X119554634Y-103814901D01*
X119590256Y-103781972D01*
X119590258Y-103781969D01*
X119595689Y-103776949D01*
X119599127Y-103771030D01*
X119605391Y-103764035D01*
X122544034Y-100825392D01*
X122598551Y-100797615D01*
X122658983Y-100807186D01*
X122702248Y-100850451D01*
X122712191Y-100882475D01*
X122713670Y-100893709D01*
X122769139Y-101027625D01*
X122857379Y-101142621D01*
X122972375Y-101230861D01*
X123106291Y-101286330D01*
X123112720Y-101287176D01*
X123112722Y-101287177D01*
X123130692Y-101289542D01*
X123142775Y-101291133D01*
X123199856Y-101319282D01*
X128783004Y-106902430D01*
X128810781Y-106956947D01*
X128812000Y-106972434D01*
X128812000Y-108632911D01*
X128791542Y-108693179D01*
X128769139Y-108722375D01*
X128713670Y-108856291D01*
X128712824Y-108862720D01*
X128712823Y-108862722D01*
X128698407Y-108972221D01*
X128694750Y-109000000D01*
X128713670Y-109143709D01*
X128769139Y-109277625D01*
X128857379Y-109392621D01*
X128972375Y-109480861D01*
X129106291Y-109536330D01*
X129112720Y-109537176D01*
X129112722Y-109537177D01*
X129243567Y-109554403D01*
X129250000Y-109555250D01*
X129256433Y-109554403D01*
X129387278Y-109537177D01*
X129387280Y-109537176D01*
X129393709Y-109536330D01*
X129527625Y-109480861D01*
X129642621Y-109392621D01*
X129730861Y-109277625D01*
X129786330Y-109143709D01*
X129805250Y-109000000D01*
X129801593Y-108972221D01*
X129787177Y-108862722D01*
X129787176Y-108862720D01*
X129786330Y-108856291D01*
X129730861Y-108722375D01*
X129708458Y-108693179D01*
X129688000Y-108632911D01*
X129688000Y-106781875D01*
X129688686Y-106770239D01*
X129688873Y-106768660D01*
X129692728Y-106736087D01*
X129682409Y-106679584D01*
X129681904Y-106676552D01*
X129674467Y-106627078D01*
X129674466Y-106627076D01*
X129673366Y-106619756D01*
X129670327Y-106613428D01*
X129669066Y-106606521D01*
X129642596Y-106555564D01*
X129641207Y-106552785D01*
X129619555Y-106507694D01*
X129619553Y-106507691D01*
X129616353Y-106501027D01*
X129612284Y-106496625D01*
X129610955Y-106494653D01*
X129608352Y-106489642D01*
X129604163Y-106484737D01*
X129567595Y-106448169D01*
X129564901Y-106445366D01*
X129531972Y-106409744D01*
X129531969Y-106409742D01*
X129526949Y-106404311D01*
X129521030Y-106400873D01*
X129514035Y-106394609D01*
X126673140Y-103553714D01*
X123819282Y-100699857D01*
X123791133Y-100642775D01*
X123787177Y-100612722D01*
X123787176Y-100612720D01*
X123786330Y-100606291D01*
X123730861Y-100472375D01*
X123642621Y-100357379D01*
X123527625Y-100269139D01*
X123400454Y-100216464D01*
X123353928Y-100176728D01*
X123339644Y-100117233D01*
X123363058Y-100060705D01*
X123400454Y-100033536D01*
X123527625Y-99980861D01*
X123642621Y-99892621D01*
X123730861Y-99777625D01*
X123786330Y-99643709D01*
X123787373Y-99635793D01*
X123804403Y-99506433D01*
X123805250Y-99500000D01*
X123791133Y-99392774D01*
X123787177Y-99362722D01*
X123787176Y-99362720D01*
X123786330Y-99356291D01*
X123730861Y-99222375D01*
X123642621Y-99107379D01*
X123527625Y-99019139D01*
X123393709Y-98963670D01*
X123387280Y-98962824D01*
X123387278Y-98962823D01*
X123256433Y-98945597D01*
X123250000Y-98944750D01*
X123243567Y-98945597D01*
X123112722Y-98962823D01*
X123112720Y-98962824D01*
X123106291Y-98963670D01*
X122972375Y-99019139D01*
X122857379Y-99107379D01*
X122769139Y-99222375D01*
X122713670Y-99356291D01*
X122709096Y-99391037D01*
X122708867Y-99392774D01*
X122680718Y-99449856D01*
X119097571Y-103033004D01*
X119043054Y-103060781D01*
X119027567Y-103062000D01*
X118506875Y-103062000D01*
X118495239Y-103061314D01*
X118490735Y-103060781D01*
X118461087Y-103057272D01*
X118404618Y-103067585D01*
X118401571Y-103068092D01*
X118344756Y-103076634D01*
X118338428Y-103079673D01*
X118331522Y-103080934D01*
X118324953Y-103084346D01*
X118324951Y-103084347D01*
X118280549Y-103107412D01*
X118277820Y-103108776D01*
X118226027Y-103133647D01*
X118221623Y-103137718D01*
X118219656Y-103139043D01*
X118214642Y-103141648D01*
X118209737Y-103145837D01*
X118173170Y-103182404D01*
X118170369Y-103185097D01*
X118129311Y-103223051D01*
X118125871Y-103228974D01*
X118119605Y-103235969D01*
X117888349Y-103467226D01*
X117674858Y-103680717D01*
X117617776Y-103708867D01*
X117600291Y-103711169D01*
X117587723Y-103712823D01*
X117587722Y-103712823D01*
X117581291Y-103713670D01*
X117543535Y-103729309D01*
X117453371Y-103766655D01*
X117453368Y-103766656D01*
X117447375Y-103769139D01*
X117444750Y-103771153D01*
X117386215Y-103783595D01*
X117330320Y-103758707D01*
X117299728Y-103705719D01*
X117298412Y-103698060D01*
X117294592Y-103669048D01*
X117286330Y-103606291D01*
X117230861Y-103472375D01*
X117208458Y-103443179D01*
X117188000Y-103382911D01*
X117188000Y-98531875D01*
X117188686Y-98520239D01*
X117189851Y-98510395D01*
X117192728Y-98486087D01*
X117182415Y-98429618D01*
X117181907Y-98426566D01*
X117174466Y-98377074D01*
X117173366Y-98369756D01*
X117170327Y-98363428D01*
X117169066Y-98356522D01*
X117142588Y-98305549D01*
X117141224Y-98302820D01*
X117116353Y-98251027D01*
X117112280Y-98246621D01*
X117110958Y-98244659D01*
X117108352Y-98239642D01*
X117104163Y-98234738D01*
X117067607Y-98198182D01*
X117064913Y-98195379D01*
X117031975Y-98159747D01*
X117031971Y-98159744D01*
X117026949Y-98154311D01*
X117021026Y-98150870D01*
X117014028Y-98144603D01*
X116082250Y-97212825D01*
X116074508Y-97204112D01*
X116057799Y-97182917D01*
X116053218Y-97177106D01*
X116005998Y-97144470D01*
X116003467Y-97142662D01*
X115996405Y-97137446D01*
X115957269Y-97108539D01*
X115950646Y-97106213D01*
X115944870Y-97102221D01*
X115937817Y-97099990D01*
X115937814Y-97099989D01*
X115890126Y-97084908D01*
X115887174Y-97083923D01*
X115839985Y-97067351D01*
X115839979Y-97067350D01*
X115833000Y-97064899D01*
X115827013Y-97064663D01*
X115824673Y-97064207D01*
X115819292Y-97062506D01*
X115812862Y-97062000D01*
X115761171Y-97062000D01*
X115757284Y-97061924D01*
X115756081Y-97061877D01*
X115701393Y-97059728D01*
X115694770Y-97061484D01*
X115685394Y-97062000D01*
X104867089Y-97062000D01*
X104806821Y-97041542D01*
X104782774Y-97023090D01*
X104777625Y-97019139D01*
X104643709Y-96963670D01*
X104637280Y-96962824D01*
X104637278Y-96962823D01*
X104506433Y-96945597D01*
X104500000Y-96944750D01*
X104493567Y-96945597D01*
X104362722Y-96962823D01*
X104362720Y-96962824D01*
X104356291Y-96963670D01*
X104222375Y-97019139D01*
X104107379Y-97107379D01*
X104019139Y-97222375D01*
X103963670Y-97356291D01*
X103944750Y-97500000D01*
X103945597Y-97506433D01*
X103962863Y-97637579D01*
X103951713Y-97697739D01*
X103907331Y-97739857D01*
X103864710Y-97749501D01*
X102909935Y-97749501D01*
X102851744Y-97730594D01*
X102839931Y-97720505D01*
X102332249Y-97212823D01*
X102324508Y-97204111D01*
X102307800Y-97182917D01*
X102307797Y-97182914D01*
X102303218Y-97177106D01*
X102255998Y-97144470D01*
X102253467Y-97142662D01*
X102246405Y-97137446D01*
X102207269Y-97108539D01*
X102200646Y-97106213D01*
X102194870Y-97102221D01*
X102187817Y-97099990D01*
X102187814Y-97099989D01*
X102140126Y-97084908D01*
X102137174Y-97083923D01*
X102089985Y-97067351D01*
X102089979Y-97067350D01*
X102083000Y-97064899D01*
X102077013Y-97064663D01*
X102074673Y-97064207D01*
X102069292Y-97062506D01*
X102062862Y-97062000D01*
X102011171Y-97062000D01*
X102007284Y-97061924D01*
X102006081Y-97061877D01*
X101951393Y-97059728D01*
X101944770Y-97061484D01*
X101935394Y-97062000D01*
X101367089Y-97062000D01*
X101306821Y-97041542D01*
X101282774Y-97023090D01*
X101277625Y-97019139D01*
X101143709Y-96963670D01*
X101137280Y-96962824D01*
X101137278Y-96962823D01*
X101006433Y-96945597D01*
X101000000Y-96944750D01*
X100993567Y-96945597D01*
X100862722Y-96962823D01*
X100862720Y-96962824D01*
X100856291Y-96963670D01*
X100722375Y-97019139D01*
X100607379Y-97107379D01*
X100519139Y-97222375D01*
X100463670Y-97356291D01*
X100462824Y-97362720D01*
X100462823Y-97362722D01*
X100447653Y-97477950D01*
X100438073Y-97498036D01*
X100447653Y-97522050D01*
X100463670Y-97643709D01*
X100519139Y-97777625D01*
X100607379Y-97892621D01*
X100722375Y-97980861D01*
X100856291Y-98036330D01*
X100862720Y-98037176D01*
X100862722Y-98037177D01*
X100993567Y-98054403D01*
X101000000Y-98055250D01*
X101006433Y-98054403D01*
X101137278Y-98037177D01*
X101137280Y-98037176D01*
X101143709Y-98036330D01*
X101277625Y-97980861D01*
X101306821Y-97958458D01*
X101367089Y-97938000D01*
X101777566Y-97938000D01*
X101835757Y-97956907D01*
X101847570Y-97966996D01*
X102355255Y-98474681D01*
X102362997Y-98483394D01*
X102379703Y-98504586D01*
X102379705Y-98504588D01*
X102384283Y-98510395D01*
X102390366Y-98514599D01*
X102390372Y-98514605D01*
X102431519Y-98543044D01*
X102434047Y-98544850D01*
X102480232Y-98578962D01*
X102486855Y-98581288D01*
X102492631Y-98585280D01*
X102499684Y-98587511D01*
X102499687Y-98587512D01*
X102547375Y-98602593D01*
X102550327Y-98603578D01*
X102597514Y-98620149D01*
X102597518Y-98620150D01*
X102604501Y-98622602D01*
X102610485Y-98622837D01*
X102612830Y-98623294D01*
X102618209Y-98624995D01*
X102624639Y-98625501D01*
X102676346Y-98625501D01*
X102680232Y-98625577D01*
X102728713Y-98627482D01*
X102728716Y-98627482D01*
X102736107Y-98627772D01*
X102742727Y-98626017D01*
X102752098Y-98625501D01*
X115215068Y-98625501D01*
X115273259Y-98644408D01*
X115285071Y-98654497D01*
X115533003Y-98902428D01*
X115560781Y-98956945D01*
X115562000Y-98972432D01*
X115562000Y-99408642D01*
X115543093Y-99466833D01*
X115493593Y-99502797D01*
X115432407Y-99502797D01*
X115397142Y-99482559D01*
X115378430Y-99465887D01*
X115378428Y-99465886D01*
X115373976Y-99461919D01*
X115351193Y-99449856D01*
X115240105Y-99391037D01*
X115240102Y-99391036D01*
X115234831Y-99388245D01*
X115133219Y-99362722D01*
X115087918Y-99351343D01*
X115087915Y-99351343D01*
X115082128Y-99349889D01*
X115002564Y-99349473D01*
X114930650Y-99349096D01*
X114930648Y-99349096D01*
X114924684Y-99349065D01*
X114771588Y-99385820D01*
X114727371Y-99408642D01*
X114636985Y-99455293D01*
X114636983Y-99455295D01*
X114631679Y-99458032D01*
X114513034Y-99561533D01*
X114422501Y-99690348D01*
X114365309Y-99837039D01*
X114364531Y-99842950D01*
X114364530Y-99842953D01*
X114356075Y-99907179D01*
X114327926Y-99964261D01*
X108821682Y-105470504D01*
X108767165Y-105498281D01*
X108751678Y-105499500D01*
X100749903Y-105499500D01*
X100712020Y-105491965D01*
X100709314Y-105490844D01*
X100677200Y-105469386D01*
X100279496Y-105071682D01*
X100251719Y-105017165D01*
X100250500Y-105001678D01*
X100250500Y-103349500D01*
X100269407Y-103291309D01*
X100318907Y-103255345D01*
X100349500Y-103250500D01*
X100682834Y-103250500D01*
X100695535Y-103251919D01*
X100695537Y-103251897D01*
X100702569Y-103252463D01*
X100709447Y-103254019D01*
X100763101Y-103250690D01*
X100769233Y-103250500D01*
X100785940Y-103250500D01*
X100789427Y-103250001D01*
X100789435Y-103250000D01*
X100797121Y-103248899D01*
X100805024Y-103248089D01*
X100845501Y-103245578D01*
X100845504Y-103245577D01*
X100852538Y-103245141D01*
X100859167Y-103242748D01*
X100859171Y-103242747D01*
X100862187Y-103241658D01*
X100881763Y-103236777D01*
X100882955Y-103236606D01*
X100884936Y-103236323D01*
X100884937Y-103236323D01*
X100891918Y-103235323D01*
X100898337Y-103232404D01*
X100898342Y-103232403D01*
X100935257Y-103215619D01*
X100942615Y-103212623D01*
X100956810Y-103207498D01*
X100987387Y-103196460D01*
X100995672Y-103190408D01*
X101013086Y-103180232D01*
X101022428Y-103175984D01*
X101027771Y-103171380D01*
X101033713Y-103167580D01*
X101034795Y-103169273D01*
X101069128Y-103154453D01*
X101068495Y-103151688D01*
X101216149Y-103117871D01*
X101216151Y-103117870D01*
X101221968Y-103116538D01*
X101227299Y-103113857D01*
X101357299Y-103048474D01*
X101357301Y-103048473D01*
X101362625Y-103045795D01*
X101482348Y-102943542D01*
X101550733Y-102848374D01*
X101570740Y-102820532D01*
X101570741Y-102820530D01*
X101574224Y-102815683D01*
X101586788Y-102784431D01*
X101630726Y-102675131D01*
X101630727Y-102675129D01*
X101632950Y-102669598D01*
X101637047Y-102640815D01*
X101654678Y-102516929D01*
X101654678Y-102516925D01*
X101655134Y-102513723D01*
X101655278Y-102500000D01*
X101641162Y-102383352D01*
X101637080Y-102349616D01*
X101637079Y-102349613D01*
X101636363Y-102343694D01*
X101580710Y-102196412D01*
X101491531Y-102066657D01*
X101487078Y-102062690D01*
X101487075Y-102062686D01*
X101382543Y-101969552D01*
X101373976Y-101961919D01*
X101361462Y-101955293D01*
X101240105Y-101891037D01*
X101240102Y-101891036D01*
X101234831Y-101888245D01*
X101151134Y-101867222D01*
X101087918Y-101851343D01*
X101087915Y-101851343D01*
X101082128Y-101849889D01*
X101002564Y-101849473D01*
X100930650Y-101849096D01*
X100930648Y-101849096D01*
X100924684Y-101849065D01*
X100771588Y-101885820D01*
X100699281Y-101923140D01*
X100636985Y-101955293D01*
X100636983Y-101955295D01*
X100631679Y-101958032D01*
X100513034Y-102061533D01*
X100509605Y-102066412D01*
X100430497Y-102178971D01*
X100381568Y-102215707D01*
X100320390Y-102216668D01*
X100270331Y-102181487D01*
X100250500Y-102122045D01*
X100250500Y-97534972D01*
X100260470Y-97504286D01*
X100250500Y-97465028D01*
X100250500Y-95000000D01*
X108694750Y-95000000D01*
X108695597Y-95006433D01*
X108700070Y-95040405D01*
X108713670Y-95143709D01*
X108769139Y-95277625D01*
X108857379Y-95392621D01*
X108972375Y-95480861D01*
X109106291Y-95536330D01*
X109112720Y-95537176D01*
X109112722Y-95537177D01*
X109243567Y-95554403D01*
X109250000Y-95555250D01*
X109256433Y-95554403D01*
X109387278Y-95537177D01*
X109387280Y-95537176D01*
X109393709Y-95536330D01*
X109527625Y-95480861D01*
X109642621Y-95392621D01*
X109730861Y-95277625D01*
X109786330Y-95143709D01*
X109791133Y-95107225D01*
X109819282Y-95050144D01*
X110152430Y-94716996D01*
X110206947Y-94689219D01*
X110222434Y-94688000D01*
X122277566Y-94688000D01*
X122335757Y-94706907D01*
X122347570Y-94716996D01*
X135033004Y-107402430D01*
X135060781Y-107456947D01*
X135062000Y-107472434D01*
X135062000Y-108382911D01*
X135041542Y-108443179D01*
X135019139Y-108472375D01*
X134963670Y-108606291D01*
X134944750Y-108750000D01*
X134945597Y-108756433D01*
X134957955Y-108850297D01*
X134963670Y-108893709D01*
X135019139Y-109027625D01*
X135107379Y-109142621D01*
X135222375Y-109230861D01*
X135356291Y-109286330D01*
X135362720Y-109287176D01*
X135362722Y-109287177D01*
X135493567Y-109304403D01*
X135500000Y-109305250D01*
X135506433Y-109304403D01*
X135637278Y-109287177D01*
X135637280Y-109287176D01*
X135643709Y-109286330D01*
X135777625Y-109230861D01*
X135892621Y-109142621D01*
X135980861Y-109027625D01*
X136036330Y-108893709D01*
X136042046Y-108850297D01*
X136054403Y-108756433D01*
X136055250Y-108750000D01*
X136036330Y-108606291D01*
X135980861Y-108472375D01*
X135958458Y-108443179D01*
X135938000Y-108382911D01*
X135938000Y-107281875D01*
X135938686Y-107270239D01*
X135941858Y-107243435D01*
X135942728Y-107236087D01*
X135932409Y-107179584D01*
X135931904Y-107176552D01*
X135924467Y-107127078D01*
X135924466Y-107127076D01*
X135923366Y-107119756D01*
X135920327Y-107113428D01*
X135919066Y-107106521D01*
X135903100Y-107075784D01*
X135892597Y-107055566D01*
X135891207Y-107052785D01*
X135869555Y-107007694D01*
X135869553Y-107007691D01*
X135866353Y-107001027D01*
X135862284Y-106996625D01*
X135860955Y-106994653D01*
X135858352Y-106989642D01*
X135854163Y-106984737D01*
X135817595Y-106948169D01*
X135814901Y-106945366D01*
X135781972Y-106909744D01*
X135781969Y-106909742D01*
X135776949Y-106904311D01*
X135771030Y-106900873D01*
X135764035Y-106894609D01*
X128815421Y-99945996D01*
X134395814Y-99945996D01*
X134405523Y-100155767D01*
X134406628Y-100160351D01*
X134453160Y-100353428D01*
X134454724Y-100359918D01*
X134541640Y-100551081D01*
X134663137Y-100722360D01*
X134741127Y-100797019D01*
X134811427Y-100864317D01*
X134811431Y-100864320D01*
X134814831Y-100867575D01*
X134991246Y-100981485D01*
X134995623Y-100983249D01*
X135105734Y-101027625D01*
X135186019Y-101059981D01*
X135190643Y-101060884D01*
X135388627Y-101099548D01*
X135388634Y-101099549D01*
X135392122Y-101100230D01*
X135397643Y-101100500D01*
X135552469Y-101100500D01*
X135648540Y-101091334D01*
X135704353Y-101086009D01*
X135704355Y-101086009D01*
X135709046Y-101085561D01*
X135910549Y-101026447D01*
X136097239Y-100930295D01*
X136262379Y-100800576D01*
X136400010Y-100641971D01*
X136505166Y-100460201D01*
X136540872Y-100357379D01*
X136572509Y-100266273D01*
X136572510Y-100266271D01*
X136574053Y-100261826D01*
X136595018Y-100117233D01*
X136603509Y-100058674D01*
X136603509Y-100058673D01*
X136604186Y-100054004D01*
X136599187Y-99945996D01*
X141395814Y-99945996D01*
X141405523Y-100155767D01*
X141406628Y-100160351D01*
X141453160Y-100353428D01*
X141454724Y-100359918D01*
X141541640Y-100551081D01*
X141663137Y-100722360D01*
X141741127Y-100797019D01*
X141811427Y-100864317D01*
X141811431Y-100864320D01*
X141814831Y-100867575D01*
X141991246Y-100981485D01*
X141995623Y-100983249D01*
X142105734Y-101027625D01*
X142186019Y-101059981D01*
X142190643Y-101060884D01*
X142388627Y-101099548D01*
X142388634Y-101099549D01*
X142392122Y-101100230D01*
X142397643Y-101100500D01*
X142552469Y-101100500D01*
X142648540Y-101091334D01*
X142704353Y-101086009D01*
X142704355Y-101086009D01*
X142709046Y-101085561D01*
X142910549Y-101026447D01*
X143097239Y-100930295D01*
X143262379Y-100800576D01*
X143400010Y-100641971D01*
X143505166Y-100460201D01*
X143540872Y-100357379D01*
X143572509Y-100266273D01*
X143572510Y-100266271D01*
X143574053Y-100261826D01*
X143595018Y-100117233D01*
X143603509Y-100058674D01*
X143603509Y-100058673D01*
X143604186Y-100054004D01*
X143597390Y-99907179D01*
X143594695Y-99848941D01*
X143594695Y-99848940D01*
X143594477Y-99844233D01*
X143570040Y-99742836D01*
X143546381Y-99644665D01*
X143546379Y-99644660D01*
X143545276Y-99640082D01*
X143511781Y-99566412D01*
X143466075Y-99465887D01*
X143458360Y-99448919D01*
X143336863Y-99277640D01*
X143252115Y-99196512D01*
X143188573Y-99135683D01*
X143188569Y-99135680D01*
X143185169Y-99132425D01*
X143008754Y-99018515D01*
X142902539Y-98975709D01*
X142818356Y-98941782D01*
X142818354Y-98941781D01*
X142813981Y-98940019D01*
X142769974Y-98931425D01*
X142611373Y-98900452D01*
X142611366Y-98900451D01*
X142607878Y-98899770D01*
X142602357Y-98899500D01*
X142447531Y-98899500D01*
X142351460Y-98908666D01*
X142295647Y-98913991D01*
X142295645Y-98913991D01*
X142290954Y-98914439D01*
X142089451Y-98973553D01*
X141902761Y-99069705D01*
X141737621Y-99199424D01*
X141666414Y-99281483D01*
X141606700Y-99350297D01*
X141599990Y-99358029D01*
X141494834Y-99539799D01*
X141493290Y-99544244D01*
X141493290Y-99544245D01*
X141458419Y-99644665D01*
X141425947Y-99738174D01*
X141425271Y-99742836D01*
X141421097Y-99771627D01*
X141395814Y-99945996D01*
X136599187Y-99945996D01*
X136597390Y-99907179D01*
X136594695Y-99848941D01*
X136594695Y-99848940D01*
X136594477Y-99844233D01*
X136570040Y-99742836D01*
X136546381Y-99644665D01*
X136546379Y-99644660D01*
X136545276Y-99640082D01*
X136511781Y-99566412D01*
X136466075Y-99465887D01*
X136458360Y-99448919D01*
X136336863Y-99277640D01*
X136252115Y-99196512D01*
X136188573Y-99135683D01*
X136188569Y-99135680D01*
X136185169Y-99132425D01*
X136008754Y-99018515D01*
X135902539Y-98975709D01*
X135818356Y-98941782D01*
X135818354Y-98941781D01*
X135813981Y-98940019D01*
X135769974Y-98931425D01*
X135611373Y-98900452D01*
X135611366Y-98900451D01*
X135607878Y-98899770D01*
X135602357Y-98899500D01*
X135447531Y-98899500D01*
X135351460Y-98908666D01*
X135295647Y-98913991D01*
X135295645Y-98913991D01*
X135290954Y-98914439D01*
X135089451Y-98973553D01*
X134902761Y-99069705D01*
X134737621Y-99199424D01*
X134666414Y-99281483D01*
X134606700Y-99350297D01*
X134599990Y-99358029D01*
X134494834Y-99539799D01*
X134493290Y-99544244D01*
X134493290Y-99544245D01*
X134458419Y-99644665D01*
X134425947Y-99738174D01*
X134425271Y-99742836D01*
X134421097Y-99771627D01*
X134395814Y-99945996D01*
X128815421Y-99945996D01*
X122832250Y-93962825D01*
X122824508Y-93954112D01*
X122807799Y-93932917D01*
X122803218Y-93927106D01*
X122755998Y-93894470D01*
X122753467Y-93892662D01*
X122736927Y-93880445D01*
X122707269Y-93858539D01*
X122700646Y-93856213D01*
X122694870Y-93852221D01*
X122687817Y-93849990D01*
X122687814Y-93849989D01*
X122640126Y-93834908D01*
X122637174Y-93833923D01*
X122589985Y-93817351D01*
X122589979Y-93817350D01*
X122583000Y-93814899D01*
X122577013Y-93814663D01*
X122574673Y-93814207D01*
X122569292Y-93812506D01*
X122562862Y-93812000D01*
X122511171Y-93812000D01*
X122507284Y-93811924D01*
X122506081Y-93811877D01*
X122451393Y-93809728D01*
X122444770Y-93811484D01*
X122435394Y-93812000D01*
X110031875Y-93812000D01*
X110020239Y-93811314D01*
X110018660Y-93811127D01*
X109986087Y-93807272D01*
X109929618Y-93817585D01*
X109926571Y-93818092D01*
X109869756Y-93826634D01*
X109863428Y-93829673D01*
X109856522Y-93830934D01*
X109849953Y-93834346D01*
X109849951Y-93834347D01*
X109805549Y-93857412D01*
X109802820Y-93858776D01*
X109751027Y-93883647D01*
X109746623Y-93887718D01*
X109744656Y-93889043D01*
X109739642Y-93891648D01*
X109734737Y-93895837D01*
X109698170Y-93932404D01*
X109695369Y-93935097D01*
X109654311Y-93973051D01*
X109650871Y-93978974D01*
X109644605Y-93985969D01*
X109199858Y-94430717D01*
X109142776Y-94458867D01*
X109125291Y-94461169D01*
X109112723Y-94462823D01*
X109112722Y-94462823D01*
X109106291Y-94463670D01*
X108972375Y-94519139D01*
X108857379Y-94607379D01*
X108769139Y-94722375D01*
X108713670Y-94856291D01*
X108694750Y-95000000D01*
X100250500Y-95000000D01*
X100250500Y-94998322D01*
X100269407Y-94940131D01*
X100279496Y-94928318D01*
X101806419Y-93401395D01*
X101816399Y-93393421D01*
X101816384Y-93393404D01*
X101821754Y-93388834D01*
X101827720Y-93385070D01*
X101832388Y-93379785D01*
X101832391Y-93379782D01*
X101863292Y-93344792D01*
X101867492Y-93340322D01*
X101879321Y-93328493D01*
X101886106Y-93319440D01*
X101891101Y-93313304D01*
X101922623Y-93277612D01*
X101925620Y-93271229D01*
X101925622Y-93271226D01*
X101926983Y-93268328D01*
X101937372Y-93251038D01*
X101939297Y-93248470D01*
X101939301Y-93248464D01*
X101943527Y-93242824D01*
X101960238Y-93198247D01*
X101963324Y-93190924D01*
X101980552Y-93154230D01*
X101980553Y-93154227D01*
X101983553Y-93147837D01*
X101985132Y-93137698D01*
X101990252Y-93118183D01*
X101991377Y-93115183D01*
X101991377Y-93115181D01*
X101993852Y-93108580D01*
X101997381Y-93061092D01*
X101998287Y-93053207D01*
X101999912Y-93042772D01*
X101999913Y-93042764D01*
X102000500Y-93038991D01*
X102000500Y-93022791D01*
X102000772Y-93015455D01*
X102003953Y-92972641D01*
X102004476Y-92965608D01*
X102002681Y-92957199D01*
X102000549Y-92937000D01*
X112944750Y-92937000D01*
X112945597Y-92943433D01*
X112961089Y-93061102D01*
X112963670Y-93080709D01*
X113019139Y-93214625D01*
X113107379Y-93329621D01*
X113222375Y-93417861D01*
X113356291Y-93473330D01*
X113362720Y-93474176D01*
X113362722Y-93474177D01*
X113493567Y-93491403D01*
X113500000Y-93492250D01*
X113506433Y-93491403D01*
X113637278Y-93474177D01*
X113637280Y-93474176D01*
X113643709Y-93473330D01*
X113777625Y-93417861D01*
X113892621Y-93329621D01*
X113980861Y-93214625D01*
X114036330Y-93080709D01*
X114038912Y-93061102D01*
X114054403Y-92943433D01*
X114055250Y-92937000D01*
X114036330Y-92793291D01*
X113980861Y-92659375D01*
X113958458Y-92630179D01*
X113938000Y-92569911D01*
X113938000Y-91867089D01*
X113958458Y-91806821D01*
X113976910Y-91782774D01*
X113980861Y-91777625D01*
X114036330Y-91643709D01*
X114055250Y-91500000D01*
X114045703Y-91427486D01*
X114037177Y-91362722D01*
X114037176Y-91362720D01*
X114036330Y-91356291D01*
X113980861Y-91222375D01*
X113892621Y-91107379D01*
X113777625Y-91019139D01*
X113643709Y-90963670D01*
X113637280Y-90962824D01*
X113637278Y-90962823D01*
X113506433Y-90945597D01*
X113500000Y-90944750D01*
X113493567Y-90945597D01*
X113362722Y-90962823D01*
X113362720Y-90962824D01*
X113356291Y-90963670D01*
X113222375Y-91019139D01*
X113107379Y-91107379D01*
X113019139Y-91222375D01*
X112963670Y-91356291D01*
X112962824Y-91362720D01*
X112962823Y-91362722D01*
X112954297Y-91427486D01*
X112944750Y-91500000D01*
X112963670Y-91643709D01*
X113019139Y-91777625D01*
X113023090Y-91782774D01*
X113041542Y-91806821D01*
X113062000Y-91867089D01*
X113062000Y-92569911D01*
X113041542Y-92630179D01*
X113019139Y-92659375D01*
X112963670Y-92793291D01*
X112944750Y-92937000D01*
X102000549Y-92937000D01*
X102000500Y-92936532D01*
X102000500Y-90835412D01*
X109370773Y-90835412D01*
X109380696Y-90993138D01*
X109429533Y-91143441D01*
X109432871Y-91148701D01*
X109432872Y-91148703D01*
X109479626Y-91222375D01*
X109514214Y-91276877D01*
X109629418Y-91385062D01*
X109634881Y-91388065D01*
X109634882Y-91388066D01*
X109762450Y-91458197D01*
X109762454Y-91458198D01*
X109767908Y-91461197D01*
X109773934Y-91462744D01*
X109773936Y-91462745D01*
X109914946Y-91498951D01*
X109914950Y-91498952D01*
X109920981Y-91500500D01*
X110039350Y-91500500D01*
X110156792Y-91485664D01*
X110303732Y-91427486D01*
X110431587Y-91334594D01*
X110435553Y-91329800D01*
X110435556Y-91329797D01*
X110528354Y-91217622D01*
X110532324Y-91212823D01*
X110599614Y-91069826D01*
X110629227Y-90914588D01*
X110624246Y-90835412D01*
X119370773Y-90835412D01*
X119380696Y-90993138D01*
X119429533Y-91143441D01*
X119432871Y-91148701D01*
X119432872Y-91148703D01*
X119479626Y-91222375D01*
X119514214Y-91276877D01*
X119629418Y-91385062D01*
X119634881Y-91388065D01*
X119634882Y-91388066D01*
X119762450Y-91458197D01*
X119762454Y-91458198D01*
X119767908Y-91461197D01*
X119773934Y-91462744D01*
X119773936Y-91462745D01*
X119914946Y-91498951D01*
X119914950Y-91498952D01*
X119920981Y-91500500D01*
X120039350Y-91500500D01*
X120156792Y-91485664D01*
X120303732Y-91427486D01*
X120431587Y-91334594D01*
X120435553Y-91329800D01*
X120435556Y-91329797D01*
X120528354Y-91217622D01*
X120532324Y-91212823D01*
X120599614Y-91069826D01*
X120629227Y-90914588D01*
X120624246Y-90835412D01*
X129370773Y-90835412D01*
X129380696Y-90993138D01*
X129429533Y-91143441D01*
X129432871Y-91148701D01*
X129432872Y-91148703D01*
X129479626Y-91222375D01*
X129514214Y-91276877D01*
X129629418Y-91385062D01*
X129634881Y-91388065D01*
X129634882Y-91388066D01*
X129762450Y-91458197D01*
X129762454Y-91458198D01*
X129767908Y-91461197D01*
X129773934Y-91462744D01*
X129773936Y-91462745D01*
X129914946Y-91498951D01*
X129914950Y-91498952D01*
X129920981Y-91500500D01*
X130039350Y-91500500D01*
X130156792Y-91485664D01*
X130303732Y-91427486D01*
X130431587Y-91334594D01*
X130435553Y-91329800D01*
X130435556Y-91329797D01*
X130528354Y-91217622D01*
X130532324Y-91212823D01*
X130599614Y-91069826D01*
X130629227Y-90914588D01*
X130619304Y-90756862D01*
X130570467Y-90606559D01*
X130530012Y-90542811D01*
X130489123Y-90478381D01*
X130489122Y-90478380D01*
X130485786Y-90473123D01*
X130370582Y-90364938D01*
X130365118Y-90361934D01*
X130237550Y-90291803D01*
X130237546Y-90291802D01*
X130232092Y-90288803D01*
X130226066Y-90287256D01*
X130226064Y-90287255D01*
X130085054Y-90251049D01*
X130085050Y-90251048D01*
X130079019Y-90249500D01*
X129960650Y-90249500D01*
X129843208Y-90264336D01*
X129696268Y-90322514D01*
X129568413Y-90415406D01*
X129564447Y-90420200D01*
X129564444Y-90420203D01*
X129501282Y-90496554D01*
X129467676Y-90537177D01*
X129400386Y-90680174D01*
X129370773Y-90835412D01*
X120624246Y-90835412D01*
X120619304Y-90756862D01*
X120570467Y-90606559D01*
X120530012Y-90542811D01*
X120489123Y-90478381D01*
X120489122Y-90478380D01*
X120485786Y-90473123D01*
X120370582Y-90364938D01*
X120365118Y-90361934D01*
X120237550Y-90291803D01*
X120237546Y-90291802D01*
X120232092Y-90288803D01*
X120226066Y-90287256D01*
X120226064Y-90287255D01*
X120085054Y-90251049D01*
X120085050Y-90251048D01*
X120079019Y-90249500D01*
X119960650Y-90249500D01*
X119843208Y-90264336D01*
X119696268Y-90322514D01*
X119568413Y-90415406D01*
X119564447Y-90420200D01*
X119564444Y-90420203D01*
X119501282Y-90496554D01*
X119467676Y-90537177D01*
X119400386Y-90680174D01*
X119370773Y-90835412D01*
X110624246Y-90835412D01*
X110619304Y-90756862D01*
X110570467Y-90606559D01*
X110530012Y-90542811D01*
X110489123Y-90478381D01*
X110489122Y-90478380D01*
X110485786Y-90473123D01*
X110370582Y-90364938D01*
X110365118Y-90361934D01*
X110237550Y-90291803D01*
X110237546Y-90291802D01*
X110232092Y-90288803D01*
X110226066Y-90287256D01*
X110226064Y-90287255D01*
X110085054Y-90251049D01*
X110085050Y-90251048D01*
X110079019Y-90249500D01*
X109960650Y-90249500D01*
X109843208Y-90264336D01*
X109696268Y-90322514D01*
X109568413Y-90415406D01*
X109564447Y-90420200D01*
X109564444Y-90420203D01*
X109501282Y-90496554D01*
X109467676Y-90537177D01*
X109400386Y-90680174D01*
X109370773Y-90835412D01*
X102000500Y-90835412D01*
X102000500Y-90037000D01*
X102019407Y-89978809D01*
X102068907Y-89942845D01*
X102099500Y-89938000D01*
X103632911Y-89938000D01*
X103693179Y-89958458D01*
X103722375Y-89980861D01*
X103856291Y-90036330D01*
X103862720Y-90037176D01*
X103862722Y-90037177D01*
X103993567Y-90054403D01*
X104000000Y-90055250D01*
X104006433Y-90054403D01*
X104137278Y-90037177D01*
X104137280Y-90037176D01*
X104143709Y-90036330D01*
X104277625Y-89980861D01*
X104306821Y-89958458D01*
X104367089Y-89938000D01*
X113632911Y-89938000D01*
X113693179Y-89958458D01*
X113722375Y-89980861D01*
X113856291Y-90036330D01*
X113862720Y-90037176D01*
X113862722Y-90037177D01*
X113993567Y-90054403D01*
X114000000Y-90055250D01*
X114006433Y-90054403D01*
X114137278Y-90037177D01*
X114137280Y-90037176D01*
X114143709Y-90036330D01*
X114277625Y-89980861D01*
X114306821Y-89958458D01*
X114367089Y-89938000D01*
X123632911Y-89938000D01*
X123693179Y-89958458D01*
X123722375Y-89980861D01*
X123856291Y-90036330D01*
X123862720Y-90037176D01*
X123862722Y-90037177D01*
X123993567Y-90054403D01*
X124000000Y-90055250D01*
X124006433Y-90054403D01*
X124137278Y-90037177D01*
X124137280Y-90037176D01*
X124143709Y-90036330D01*
X124277625Y-89980861D01*
X124392621Y-89892621D01*
X124480861Y-89777625D01*
X124536330Y-89643709D01*
X124555250Y-89500000D01*
X124548241Y-89446759D01*
X124537177Y-89362722D01*
X124537176Y-89362720D01*
X124536330Y-89356291D01*
X124480861Y-89222375D01*
X124392621Y-89107379D01*
X124277625Y-89019139D01*
X124143709Y-88963670D01*
X124137280Y-88962824D01*
X124137278Y-88962823D01*
X124006433Y-88945597D01*
X124000000Y-88944750D01*
X123993567Y-88945597D01*
X123862722Y-88962823D01*
X123862720Y-88962824D01*
X123856291Y-88963670D01*
X123722375Y-89019139D01*
X123717226Y-89023090D01*
X123693179Y-89041542D01*
X123632911Y-89062000D01*
X114367089Y-89062000D01*
X114306821Y-89041542D01*
X114282774Y-89023090D01*
X114277625Y-89019139D01*
X114143709Y-88963670D01*
X114137280Y-88962824D01*
X114137278Y-88962823D01*
X114006433Y-88945597D01*
X114000000Y-88944750D01*
X113993567Y-88945597D01*
X113862722Y-88962823D01*
X113862720Y-88962824D01*
X113856291Y-88963670D01*
X113722375Y-89019139D01*
X113717226Y-89023090D01*
X113693179Y-89041542D01*
X113632911Y-89062000D01*
X104367089Y-89062000D01*
X104306821Y-89041542D01*
X104282774Y-89023090D01*
X104277625Y-89019139D01*
X104143709Y-88963670D01*
X104137280Y-88962824D01*
X104137278Y-88962823D01*
X104006433Y-88945597D01*
X104000000Y-88944750D01*
X103993567Y-88945597D01*
X103862722Y-88962823D01*
X103862720Y-88962824D01*
X103856291Y-88963670D01*
X103722375Y-89019139D01*
X103717226Y-89023090D01*
X103693179Y-89041542D01*
X103632911Y-89062000D01*
X101867089Y-89062000D01*
X101806821Y-89041542D01*
X101782774Y-89023090D01*
X101777625Y-89019139D01*
X101643709Y-88963670D01*
X101637280Y-88962824D01*
X101637278Y-88962823D01*
X101506433Y-88945597D01*
X101500000Y-88944750D01*
X101493567Y-88945597D01*
X101362722Y-88962823D01*
X101362720Y-88962824D01*
X101356291Y-88963670D01*
X101222375Y-89019139D01*
X101107379Y-89107379D01*
X101019139Y-89222375D01*
X100963670Y-89356291D01*
X100962824Y-89362720D01*
X100962823Y-89362722D01*
X100951759Y-89446759D01*
X100944750Y-89500000D01*
X100963670Y-89643709D01*
X100966153Y-89649703D01*
X100991964Y-89712018D01*
X100999500Y-89749903D01*
X100999500Y-92751678D01*
X100980593Y-92809869D01*
X100970504Y-92821682D01*
X99443581Y-94348605D01*
X99433601Y-94356579D01*
X99433616Y-94356596D01*
X99428246Y-94361166D01*
X99422280Y-94364930D01*
X99417612Y-94370215D01*
X99417609Y-94370218D01*
X99386708Y-94405208D01*
X99382508Y-94409678D01*
X99370680Y-94421506D01*
X99363902Y-94430550D01*
X99358896Y-94436699D01*
X99327377Y-94472388D01*
X99323018Y-94481671D01*
X99312627Y-94498966D01*
X99306474Y-94507176D01*
X99301989Y-94519139D01*
X99289765Y-94551746D01*
X99286680Y-94559066D01*
X99269446Y-94595774D01*
X99269445Y-94595778D01*
X99266447Y-94602163D01*
X99265362Y-94609131D01*
X99265361Y-94609135D01*
X99264870Y-94612292D01*
X99259747Y-94631820D01*
X99256148Y-94641420D01*
X99252687Y-94688000D01*
X99252620Y-94688898D01*
X99251713Y-94696793D01*
X99250088Y-94707228D01*
X99250087Y-94707236D01*
X99249500Y-94711009D01*
X99249500Y-94727209D01*
X99249228Y-94734545D01*
X99245524Y-94784392D01*
X99246996Y-94791287D01*
X99246996Y-94791289D01*
X99247319Y-94792801D01*
X99249500Y-94813468D01*
X99249500Y-102741591D01*
X99249498Y-102742196D01*
X99249031Y-102818624D01*
X99249396Y-102819900D01*
X99249500Y-102821429D01*
X99249500Y-105182834D01*
X99248081Y-105195535D01*
X99248103Y-105195537D01*
X99247537Y-105202569D01*
X99245981Y-105209447D01*
X99246418Y-105216485D01*
X99249310Y-105263102D01*
X99249500Y-105269233D01*
X99249500Y-105285940D01*
X99249999Y-105289427D01*
X99250000Y-105289435D01*
X99251101Y-105297121D01*
X99251911Y-105305024D01*
X99254859Y-105352538D01*
X99257252Y-105359167D01*
X99257253Y-105359171D01*
X99258342Y-105362187D01*
X99263223Y-105381763D01*
X99264677Y-105391918D01*
X99267596Y-105398337D01*
X99267597Y-105398342D01*
X99284381Y-105435257D01*
X99287377Y-105442615D01*
X99303540Y-105487387D01*
X99309592Y-105495672D01*
X99319768Y-105513086D01*
X99324016Y-105522428D01*
X99328621Y-105527772D01*
X99355093Y-105558495D01*
X99360033Y-105564716D01*
X99368522Y-105576336D01*
X99379986Y-105587800D01*
X99384981Y-105593181D01*
X99407880Y-105619756D01*
X99417600Y-105631037D01*
X99423520Y-105634874D01*
X99424811Y-105635711D01*
X99440968Y-105648782D01*
X99969386Y-106177200D01*
X99990846Y-106209319D01*
X100002566Y-106237614D01*
X100007367Y-106298611D01*
X99975397Y-106350780D01*
X99918869Y-106374194D01*
X99911102Y-106374499D01*
X97719376Y-106374499D01*
X97707740Y-106373813D01*
X97706161Y-106373626D01*
X97673588Y-106369771D01*
X97617119Y-106380084D01*
X97614072Y-106380591D01*
X97557257Y-106389133D01*
X97550929Y-106392172D01*
X97544023Y-106393433D01*
X97537454Y-106396845D01*
X97537452Y-106396846D01*
X97493050Y-106419911D01*
X97490321Y-106421275D01*
X97438528Y-106446146D01*
X97434122Y-106450219D01*
X97432160Y-106451541D01*
X97427143Y-106454147D01*
X97422239Y-106458336D01*
X97385683Y-106494892D01*
X97382880Y-106497586D01*
X97347248Y-106530524D01*
X97347245Y-106530528D01*
X97341812Y-106535550D01*
X97338371Y-106541473D01*
X97332104Y-106548471D01*
X96699857Y-107180718D01*
X96642776Y-107208867D01*
X96629076Y-107210670D01*
X96612722Y-107212823D01*
X96612720Y-107212824D01*
X96606291Y-107213670D01*
X96472375Y-107269139D01*
X96357379Y-107357379D01*
X96269139Y-107472375D01*
X96213670Y-107606291D01*
X96212824Y-107612720D01*
X96212823Y-107612722D01*
X96202834Y-107688598D01*
X96194750Y-107750000D01*
X90250000Y-107750000D01*
X90250000Y-104811170D01*
X91884824Y-104811170D01*
X91884831Y-104811215D01*
X91890354Y-104817430D01*
X91995138Y-104887446D01*
X92003093Y-104891764D01*
X92188929Y-104971606D01*
X92197540Y-104974404D01*
X92394826Y-105019044D01*
X92403785Y-105020224D01*
X92605911Y-105028166D01*
X92614938Y-105027692D01*
X92815115Y-104998668D01*
X92823914Y-104996556D01*
X93015450Y-104931538D01*
X93023714Y-104927858D01*
X93200194Y-104829026D01*
X93207649Y-104823903D01*
X93209836Y-104822084D01*
X93216954Y-104810802D01*
X93216768Y-104807971D01*
X93214766Y-104804931D01*
X93142356Y-104732521D01*
X95613473Y-104732521D01*
X95613571Y-104733143D01*
X95618398Y-104738696D01*
X95719067Y-104809185D01*
X95726537Y-104813497D01*
X95916922Y-104902275D01*
X95925015Y-104905221D01*
X96127944Y-104959595D01*
X96136412Y-104961088D01*
X96345691Y-104979398D01*
X96354309Y-104979398D01*
X96563588Y-104961088D01*
X96572056Y-104959595D01*
X96774985Y-104905221D01*
X96783078Y-104902275D01*
X96973463Y-104813497D01*
X96980933Y-104809185D01*
X97078715Y-104740717D01*
X97086741Y-104730066D01*
X97086753Y-104729434D01*
X97082965Y-104723130D01*
X96361086Y-104001251D01*
X96349203Y-103995197D01*
X96344172Y-103995993D01*
X95619527Y-104720638D01*
X95613473Y-104732521D01*
X93142356Y-104732521D01*
X92561086Y-104151251D01*
X92549203Y-104145197D01*
X92544172Y-104145993D01*
X91890878Y-104799287D01*
X91884824Y-104811170D01*
X90250000Y-104811170D01*
X90250000Y-103849296D01*
X91395766Y-103849296D01*
X91408995Y-104051144D01*
X91410408Y-104060065D01*
X91460200Y-104256121D01*
X91463220Y-104264649D01*
X91547904Y-104448341D01*
X91552422Y-104456167D01*
X91606001Y-104531981D01*
X91616686Y-104539960D01*
X91617437Y-104539970D01*
X91623566Y-104536269D01*
X92273749Y-103886086D01*
X92278991Y-103875797D01*
X92820197Y-103875797D01*
X92820993Y-103880828D01*
X93475971Y-104535806D01*
X93487854Y-104541860D01*
X93490658Y-104541416D01*
X93493500Y-104539146D01*
X93498903Y-104532649D01*
X93504026Y-104525194D01*
X93602858Y-104348714D01*
X93606538Y-104340450D01*
X93671556Y-104148914D01*
X93673668Y-104140115D01*
X93702924Y-103938344D01*
X93703421Y-103932518D01*
X93704851Y-103877914D01*
X93704661Y-103872100D01*
X93686003Y-103669048D01*
X93684356Y-103660164D01*
X93629449Y-103465481D01*
X93626208Y-103457037D01*
X93536746Y-103275627D01*
X93532021Y-103267915D01*
X93494475Y-103217634D01*
X93483584Y-103209937D01*
X93482135Y-103209956D01*
X93477042Y-103213123D01*
X92826251Y-103863914D01*
X92820197Y-103875797D01*
X92278991Y-103875797D01*
X92279803Y-103874203D01*
X92279007Y-103869172D01*
X91625289Y-103215454D01*
X91613406Y-103209400D01*
X91611289Y-103209735D01*
X91607558Y-103212797D01*
X91584209Y-103242415D01*
X91579284Y-103249998D01*
X91485097Y-103429018D01*
X91481643Y-103437358D01*
X91421658Y-103630538D01*
X91419777Y-103639388D01*
X91396002Y-103840263D01*
X91395766Y-103849296D01*
X90250000Y-103849296D01*
X90250000Y-102938439D01*
X91882424Y-102938439D01*
X91887120Y-102946955D01*
X92538914Y-103598749D01*
X92550797Y-103604803D01*
X92555828Y-103604007D01*
X93210121Y-102949714D01*
X93215999Y-102938176D01*
X93209906Y-102931498D01*
X93078163Y-102848374D01*
X93070110Y-102844271D01*
X92882229Y-102769314D01*
X92873571Y-102766749D01*
X92675177Y-102727286D01*
X92666184Y-102726341D01*
X92463924Y-102723692D01*
X92454909Y-102724402D01*
X92255559Y-102758657D01*
X92246823Y-102760998D01*
X92057050Y-102831009D01*
X92048887Y-102834902D01*
X91890681Y-102929024D01*
X91882424Y-102938439D01*
X90250000Y-102938439D01*
X90250000Y-102458830D01*
X94645624Y-102458830D01*
X94648874Y-102510491D01*
X94651032Y-102544779D01*
X94655944Y-102622860D01*
X94657867Y-102628778D01*
X94657867Y-102628779D01*
X94700067Y-102758657D01*
X94706732Y-102779171D01*
X94794798Y-102917940D01*
X94799334Y-102922200D01*
X94799336Y-102922202D01*
X94910064Y-103026182D01*
X94914607Y-103030448D01*
X95058632Y-103109627D01*
X95120943Y-103125626D01*
X95172602Y-103158409D01*
X95195127Y-103215298D01*
X95186047Y-103263353D01*
X95172723Y-103291927D01*
X95169779Y-103300015D01*
X95115405Y-103502944D01*
X95113912Y-103511412D01*
X95095602Y-103720691D01*
X95095602Y-103729309D01*
X95113912Y-103938588D01*
X95115405Y-103947056D01*
X95169779Y-104149985D01*
X95172725Y-104158078D01*
X95261503Y-104348462D01*
X95265815Y-104355932D01*
X95334283Y-104453714D01*
X95344935Y-104461740D01*
X95345567Y-104461752D01*
X95351871Y-104457964D01*
X96084038Y-103725797D01*
X96620197Y-103725797D01*
X96620993Y-103730828D01*
X97345637Y-104455472D01*
X97357520Y-104461526D01*
X97358142Y-104461428D01*
X97363695Y-104456601D01*
X97434185Y-104355932D01*
X97438497Y-104348462D01*
X97527275Y-104158078D01*
X97530221Y-104149985D01*
X97584595Y-103947056D01*
X97586088Y-103938588D01*
X97604398Y-103729309D01*
X97604398Y-103720691D01*
X97586088Y-103511412D01*
X97584595Y-103502944D01*
X97530221Y-103300015D01*
X97527275Y-103291922D01*
X97438497Y-103101538D01*
X97434185Y-103094068D01*
X97365717Y-102996286D01*
X97355065Y-102988260D01*
X97354433Y-102988248D01*
X97348129Y-102992036D01*
X96626251Y-103713914D01*
X96620197Y-103725797D01*
X96084038Y-103725797D01*
X97080473Y-102729362D01*
X97086527Y-102717479D01*
X97086429Y-102716857D01*
X97081602Y-102711304D01*
X96980933Y-102640815D01*
X96973463Y-102636503D01*
X96783078Y-102547725D01*
X96774985Y-102544779D01*
X96572056Y-102490405D01*
X96563588Y-102488912D01*
X96354309Y-102470602D01*
X96345691Y-102470602D01*
X96136412Y-102488912D01*
X96127944Y-102490405D01*
X96070946Y-102505677D01*
X96009844Y-102502474D01*
X95962295Y-102463969D01*
X95946518Y-102416267D01*
X95944447Y-102383352D01*
X95944447Y-102383351D01*
X95944056Y-102377140D01*
X95942134Y-102371224D01*
X95942133Y-102371220D01*
X95895193Y-102226753D01*
X95895192Y-102226752D01*
X95893268Y-102220829D01*
X95805202Y-102082060D01*
X95800666Y-102077800D01*
X95800664Y-102077798D01*
X95689936Y-101973818D01*
X95689935Y-101973817D01*
X95685393Y-101969552D01*
X95541368Y-101890373D01*
X95382177Y-101849500D01*
X95259075Y-101849500D01*
X95169113Y-101860865D01*
X95143123Y-101864148D01*
X95143122Y-101864148D01*
X95136942Y-101864929D01*
X94984129Y-101925432D01*
X94851163Y-102022037D01*
X94847197Y-102026832D01*
X94847194Y-102026834D01*
X94821733Y-102057612D01*
X94746400Y-102148674D01*
X94743749Y-102154307D01*
X94743748Y-102154309D01*
X94714922Y-102215569D01*
X94676421Y-102297387D01*
X94645624Y-102458830D01*
X90250000Y-102458830D01*
X90250000Y-97458830D01*
X94645624Y-97458830D01*
X94655944Y-97622860D01*
X94657867Y-97628778D01*
X94657867Y-97628779D01*
X94690949Y-97730594D01*
X94706732Y-97779171D01*
X94794798Y-97917940D01*
X94799334Y-97922200D01*
X94799336Y-97922202D01*
X94864447Y-97983345D01*
X94914607Y-98030448D01*
X95058632Y-98109627D01*
X95217823Y-98150500D01*
X95340925Y-98150500D01*
X95430887Y-98139135D01*
X95456877Y-98135852D01*
X95456878Y-98135852D01*
X95463058Y-98135071D01*
X95615871Y-98074568D01*
X95748837Y-97977963D01*
X95752803Y-97973168D01*
X95752806Y-97973166D01*
X95823697Y-97887472D01*
X95853600Y-97851326D01*
X95923579Y-97702613D01*
X95948584Y-97571535D01*
X95978060Y-97517918D01*
X96033422Y-97491867D01*
X96071453Y-97494459D01*
X96127944Y-97509595D01*
X96136412Y-97511088D01*
X96345691Y-97529398D01*
X96354309Y-97529398D01*
X96563588Y-97511088D01*
X96572056Y-97509595D01*
X96774985Y-97455221D01*
X96783078Y-97452275D01*
X96973463Y-97363497D01*
X96980933Y-97359185D01*
X97078715Y-97290717D01*
X97086741Y-97280066D01*
X97086753Y-97279434D01*
X97082965Y-97273130D01*
X96085632Y-96275797D01*
X96620197Y-96275797D01*
X96620993Y-96280828D01*
X97345637Y-97005472D01*
X97357520Y-97011526D01*
X97358142Y-97011428D01*
X97363695Y-97006601D01*
X97434185Y-96905932D01*
X97438497Y-96898462D01*
X97527275Y-96708078D01*
X97530221Y-96699985D01*
X97584595Y-96497056D01*
X97586088Y-96488588D01*
X97604398Y-96279309D01*
X97604398Y-96270691D01*
X97586088Y-96061412D01*
X97584595Y-96052944D01*
X97530221Y-95850015D01*
X97527275Y-95841922D01*
X97438497Y-95651538D01*
X97434185Y-95644068D01*
X97365717Y-95546286D01*
X97355065Y-95538260D01*
X97354433Y-95538248D01*
X97348129Y-95542036D01*
X96626251Y-96263914D01*
X96620197Y-96275797D01*
X96085632Y-96275797D01*
X95354363Y-95544528D01*
X95342480Y-95538474D01*
X95341858Y-95538572D01*
X95336305Y-95543399D01*
X95265815Y-95644068D01*
X95261503Y-95651538D01*
X95172725Y-95841922D01*
X95169779Y-95850015D01*
X95115405Y-96052944D01*
X95113912Y-96061412D01*
X95095602Y-96270691D01*
X95095602Y-96279309D01*
X95113912Y-96488588D01*
X95115405Y-96497056D01*
X95169779Y-96699985D01*
X95172721Y-96708068D01*
X95184492Y-96733311D01*
X95191948Y-96794041D01*
X95162284Y-96847555D01*
X95131211Y-96867198D01*
X94984129Y-96925432D01*
X94851163Y-97022037D01*
X94847197Y-97026832D01*
X94847194Y-97026834D01*
X94814909Y-97065861D01*
X94746400Y-97148674D01*
X94676421Y-97297387D01*
X94645624Y-97458830D01*
X90250000Y-97458830D01*
X90250000Y-97061170D01*
X91884824Y-97061170D01*
X91884831Y-97061215D01*
X91890354Y-97067430D01*
X91995138Y-97137446D01*
X92003093Y-97141764D01*
X92188929Y-97221606D01*
X92197540Y-97224404D01*
X92394826Y-97269044D01*
X92403785Y-97270224D01*
X92605911Y-97278166D01*
X92614938Y-97277692D01*
X92815115Y-97248668D01*
X92823914Y-97246556D01*
X93015450Y-97181538D01*
X93023714Y-97177858D01*
X93200194Y-97079026D01*
X93207649Y-97073903D01*
X93209836Y-97072084D01*
X93216954Y-97060802D01*
X93216768Y-97057971D01*
X93214766Y-97054931D01*
X92561086Y-96401251D01*
X92549203Y-96395197D01*
X92544172Y-96395993D01*
X91890878Y-97049287D01*
X91884824Y-97061170D01*
X90250000Y-97061170D01*
X90250000Y-96099296D01*
X91395766Y-96099296D01*
X91408995Y-96301144D01*
X91410408Y-96310065D01*
X91460200Y-96506121D01*
X91463220Y-96514649D01*
X91547904Y-96698341D01*
X91552422Y-96706167D01*
X91606001Y-96781981D01*
X91616686Y-96789960D01*
X91617437Y-96789970D01*
X91623566Y-96786269D01*
X92273749Y-96136086D01*
X92278991Y-96125797D01*
X92820197Y-96125797D01*
X92820993Y-96130828D01*
X93475971Y-96785806D01*
X93487854Y-96791860D01*
X93490658Y-96791416D01*
X93493500Y-96789146D01*
X93498903Y-96782649D01*
X93504026Y-96775194D01*
X93602858Y-96598714D01*
X93606538Y-96590450D01*
X93671556Y-96398914D01*
X93673668Y-96390115D01*
X93702924Y-96188344D01*
X93703421Y-96182518D01*
X93704851Y-96127914D01*
X93704661Y-96122100D01*
X93686003Y-95919048D01*
X93684356Y-95910164D01*
X93629449Y-95715481D01*
X93626208Y-95707037D01*
X93536746Y-95525627D01*
X93532021Y-95517915D01*
X93494475Y-95467634D01*
X93483584Y-95459937D01*
X93482135Y-95459956D01*
X93477042Y-95463123D01*
X92826251Y-96113914D01*
X92820197Y-96125797D01*
X92278991Y-96125797D01*
X92279803Y-96124203D01*
X92279007Y-96119172D01*
X91625289Y-95465454D01*
X91613406Y-95459400D01*
X91611289Y-95459735D01*
X91607558Y-95462797D01*
X91584209Y-95492415D01*
X91579284Y-95499998D01*
X91485097Y-95679018D01*
X91481643Y-95687358D01*
X91421658Y-95880538D01*
X91419777Y-95889388D01*
X91396002Y-96090263D01*
X91395766Y-96099296D01*
X90250000Y-96099296D01*
X90250000Y-95188439D01*
X91882424Y-95188439D01*
X91887120Y-95196955D01*
X92538914Y-95848749D01*
X92550797Y-95854803D01*
X92555828Y-95854007D01*
X93139268Y-95270567D01*
X95613248Y-95270567D01*
X95617036Y-95276871D01*
X96338914Y-95998749D01*
X96350797Y-96004803D01*
X96355828Y-96004007D01*
X97080473Y-95279362D01*
X97086527Y-95267479D01*
X97086429Y-95266857D01*
X97081602Y-95261304D01*
X96980933Y-95190815D01*
X96973463Y-95186503D01*
X96783078Y-95097725D01*
X96774985Y-95094779D01*
X96572056Y-95040405D01*
X96563588Y-95038912D01*
X96354309Y-95020602D01*
X96345691Y-95020602D01*
X96136412Y-95038912D01*
X96127944Y-95040405D01*
X95925015Y-95094779D01*
X95916922Y-95097725D01*
X95726538Y-95186503D01*
X95719068Y-95190815D01*
X95621286Y-95259283D01*
X95613260Y-95269935D01*
X95613248Y-95270567D01*
X93139268Y-95270567D01*
X93210121Y-95199714D01*
X93215999Y-95188176D01*
X93209906Y-95181498D01*
X93078163Y-95098374D01*
X93070110Y-95094271D01*
X92882229Y-95019314D01*
X92873571Y-95016749D01*
X92675177Y-94977286D01*
X92666184Y-94976341D01*
X92463924Y-94973692D01*
X92454909Y-94974402D01*
X92255559Y-95008657D01*
X92246823Y-95010998D01*
X92057050Y-95081009D01*
X92048887Y-95084902D01*
X91890681Y-95179024D01*
X91882424Y-95188439D01*
X90250000Y-95188439D01*
X90250000Y-92534376D01*
X90251902Y-92515062D01*
X90252996Y-92509562D01*
X90254898Y-92500000D01*
X90252996Y-92490437D01*
X90252996Y-92488714D01*
X90251403Y-92467886D01*
X90267887Y-92090326D01*
X90268640Y-92081722D01*
X90321599Y-91679455D01*
X90323099Y-91670949D01*
X90410916Y-91274832D01*
X90413151Y-91266490D01*
X90430931Y-91210099D01*
X90535163Y-90879519D01*
X90538114Y-90871410D01*
X90550453Y-90841623D01*
X90693385Y-90496554D01*
X90697035Y-90488727D01*
X90799547Y-90291803D01*
X90884386Y-90128829D01*
X90888692Y-90121369D01*
X91106710Y-89779151D01*
X91111663Y-89772078D01*
X91223701Y-89626067D01*
X91358662Y-89450183D01*
X91364201Y-89443581D01*
X91638330Y-89144422D01*
X91644422Y-89138330D01*
X91943581Y-88864201D01*
X91950185Y-88858660D01*
X92272078Y-88611663D01*
X92279152Y-88606709D01*
X92308122Y-88588253D01*
X92621369Y-88388692D01*
X92628829Y-88384386D01*
X92988727Y-88197035D01*
X92996554Y-88193385D01*
X93092415Y-88153678D01*
X93371417Y-88038111D01*
X93379519Y-88035163D01*
X93766491Y-87913151D01*
X93774832Y-87910916D01*
X94170949Y-87823099D01*
X94179455Y-87821599D01*
X94581722Y-87768640D01*
X94590326Y-87767887D01*
X94967886Y-87751403D01*
X94988714Y-87752996D01*
X94990437Y-87752996D01*
X95000000Y-87754898D01*
X95009562Y-87752996D01*
X95015062Y-87751902D01*
X95034376Y-87750000D01*
X109329170Y-87750000D01*
X109387361Y-87768907D01*
G37*
%TD.AperFunction*%
%TD*%
M02*
