%TF.GenerationSoftware,KiCad,Pcbnew,(6.0.1)*%
%TF.CreationDate,2022-05-26T13:37:06-04:00*%
%TF.ProjectId,microkfd,6d696372-6f6b-4666-942e-6b696361645f,D*%
%TF.SameCoordinates,Original*%
%TF.FileFunction,Legend,Bot*%
%TF.FilePolarity,Positive*%
%FSLAX46Y46*%
G04 Gerber Fmt 4.6, Leading zero omitted, Abs format (unit mm)*
G04 Created by KiCad (PCBNEW (6.0.1)) date 2022-05-26 13:37:06*
%MOMM*%
%LPD*%
G01*
G04 APERTURE LIST*
%ADD10C,0.200000*%
%ADD11C,0.250000*%
%ADD12C,0.150000*%
%ADD13C,0.120000*%
%ADD14C,0.010000*%
G04 APERTURE END LIST*
D10*
X112797619Y-108881904D02*
X113797619Y-108881904D01*
X113083333Y-108548571D01*
X113797619Y-108215238D01*
X112797619Y-108215238D01*
X113797619Y-107548571D02*
X113797619Y-107358095D01*
X113750000Y-107262857D01*
X113654761Y-107167619D01*
X113464285Y-107120000D01*
X113130952Y-107120000D01*
X112940476Y-107167619D01*
X112845238Y-107262857D01*
X112797619Y-107358095D01*
X112797619Y-107548571D01*
X112845238Y-107643809D01*
X112940476Y-107739047D01*
X113130952Y-107786666D01*
X113464285Y-107786666D01*
X113654761Y-107739047D01*
X113750000Y-107643809D01*
X113797619Y-107548571D01*
X112845238Y-106739047D02*
X112797619Y-106596190D01*
X112797619Y-106358095D01*
X112845238Y-106262857D01*
X112892857Y-106215238D01*
X112988095Y-106167619D01*
X113083333Y-106167619D01*
X113178571Y-106215238D01*
X113226190Y-106262857D01*
X113273809Y-106358095D01*
X113321428Y-106548571D01*
X113369047Y-106643809D01*
X113416666Y-106691428D01*
X113511904Y-106739047D01*
X113607142Y-106739047D01*
X113702380Y-106691428D01*
X113750000Y-106643809D01*
X113797619Y-106548571D01*
X113797619Y-106310476D01*
X113750000Y-106167619D01*
X112797619Y-105739047D02*
X113797619Y-105739047D01*
X110797619Y-108881904D02*
X111797619Y-108881904D01*
X111083333Y-108548571D01*
X111797619Y-108215238D01*
X110797619Y-108215238D01*
X110797619Y-107739047D02*
X111797619Y-107739047D01*
X110845238Y-107310476D02*
X110797619Y-107167619D01*
X110797619Y-106929523D01*
X110845238Y-106834285D01*
X110892857Y-106786666D01*
X110988095Y-106739047D01*
X111083333Y-106739047D01*
X111178571Y-106786666D01*
X111226190Y-106834285D01*
X111273809Y-106929523D01*
X111321428Y-107120000D01*
X111369047Y-107215238D01*
X111416666Y-107262857D01*
X111511904Y-107310476D01*
X111607142Y-107310476D01*
X111702380Y-107262857D01*
X111750000Y-107215238D01*
X111797619Y-107120000D01*
X111797619Y-106881904D01*
X111750000Y-106739047D01*
X111797619Y-106120000D02*
X111797619Y-105929523D01*
X111750000Y-105834285D01*
X111654761Y-105739047D01*
X111464285Y-105691428D01*
X111130952Y-105691428D01*
X110940476Y-105739047D01*
X110845238Y-105834285D01*
X110797619Y-105929523D01*
X110797619Y-106120000D01*
X110845238Y-106215238D01*
X110940476Y-106310476D01*
X111130952Y-106358095D01*
X111464285Y-106358095D01*
X111654761Y-106310476D01*
X111750000Y-106215238D01*
X111797619Y-106120000D01*
X109797619Y-108440476D02*
X109797619Y-108916666D01*
X109321428Y-108964285D01*
X109369047Y-108916666D01*
X109416666Y-108821428D01*
X109416666Y-108583333D01*
X109369047Y-108488095D01*
X109321428Y-108440476D01*
X109226190Y-108392857D01*
X108988095Y-108392857D01*
X108892857Y-108440476D01*
X108845238Y-108488095D01*
X108797619Y-108583333D01*
X108797619Y-108821428D01*
X108845238Y-108916666D01*
X108892857Y-108964285D01*
X109797619Y-108107142D02*
X108797619Y-107773809D01*
X109797619Y-107440476D01*
X116797619Y-108310476D02*
X117273809Y-108643809D01*
X116797619Y-108881904D02*
X117797619Y-108881904D01*
X117797619Y-108500952D01*
X117750000Y-108405714D01*
X117702380Y-108358095D01*
X117607142Y-108310476D01*
X117464285Y-108310476D01*
X117369047Y-108358095D01*
X117321428Y-108405714D01*
X117273809Y-108500952D01*
X117273809Y-108881904D01*
X116845238Y-107929523D02*
X116797619Y-107786666D01*
X116797619Y-107548571D01*
X116845238Y-107453333D01*
X116892857Y-107405714D01*
X116988095Y-107358095D01*
X117083333Y-107358095D01*
X117178571Y-107405714D01*
X117226190Y-107453333D01*
X117273809Y-107548571D01*
X117321428Y-107739047D01*
X117369047Y-107834285D01*
X117416666Y-107881904D01*
X117511904Y-107929523D01*
X117607142Y-107929523D01*
X117702380Y-107881904D01*
X117750000Y-107834285D01*
X117797619Y-107739047D01*
X117797619Y-107500952D01*
X117750000Y-107358095D01*
X117797619Y-107072380D02*
X117797619Y-106500952D01*
X116797619Y-106786666D02*
X117797619Y-106786666D01*
X119750000Y-108358095D02*
X119797619Y-108453333D01*
X119797619Y-108596190D01*
X119750000Y-108739047D01*
X119654761Y-108834285D01*
X119559523Y-108881904D01*
X119369047Y-108929523D01*
X119226190Y-108929523D01*
X119035714Y-108881904D01*
X118940476Y-108834285D01*
X118845238Y-108739047D01*
X118797619Y-108596190D01*
X118797619Y-108500952D01*
X118845238Y-108358095D01*
X118892857Y-108310476D01*
X119226190Y-108310476D01*
X119226190Y-108500952D01*
X118797619Y-107881904D02*
X119797619Y-107881904D01*
X118797619Y-107310476D01*
X119797619Y-107310476D01*
X118797619Y-106834285D02*
X119797619Y-106834285D01*
X119797619Y-106596190D01*
X119750000Y-106453333D01*
X119654761Y-106358095D01*
X119559523Y-106310476D01*
X119369047Y-106262857D01*
X119226190Y-106262857D01*
X119035714Y-106310476D01*
X118940476Y-106358095D01*
X118845238Y-106453333D01*
X118797619Y-106596190D01*
X118797619Y-106834285D01*
X114845238Y-108929523D02*
X114797619Y-108786666D01*
X114797619Y-108548571D01*
X114845238Y-108453333D01*
X114892857Y-108405714D01*
X114988095Y-108358095D01*
X115083333Y-108358095D01*
X115178571Y-108405714D01*
X115226190Y-108453333D01*
X115273809Y-108548571D01*
X115321428Y-108739047D01*
X115369047Y-108834285D01*
X115416666Y-108881904D01*
X115511904Y-108929523D01*
X115607142Y-108929523D01*
X115702380Y-108881904D01*
X115750000Y-108834285D01*
X115797619Y-108739047D01*
X115797619Y-108500952D01*
X115750000Y-108358095D01*
X114892857Y-107358095D02*
X114845238Y-107405714D01*
X114797619Y-107548571D01*
X114797619Y-107643809D01*
X114845238Y-107786666D01*
X114940476Y-107881904D01*
X115035714Y-107929523D01*
X115226190Y-107977142D01*
X115369047Y-107977142D01*
X115559523Y-107929523D01*
X115654761Y-107881904D01*
X115750000Y-107786666D01*
X115797619Y-107643809D01*
X115797619Y-107548571D01*
X115750000Y-107405714D01*
X115702380Y-107358095D01*
X114797619Y-106929523D02*
X115797619Y-106929523D01*
X114797619Y-106358095D02*
X115369047Y-106786666D01*
X115797619Y-106358095D02*
X115226190Y-106929523D01*
D11*
X134611309Y-94654761D02*
X134611309Y-92654761D01*
X133944642Y-94083333D01*
X133277976Y-92654761D01*
X133277976Y-94654761D01*
X132325595Y-94654761D02*
X132325595Y-93321428D01*
X132325595Y-92654761D02*
X132420833Y-92750000D01*
X132325595Y-92845238D01*
X132230357Y-92750000D01*
X132325595Y-92654761D01*
X132325595Y-92845238D01*
X130516071Y-94559523D02*
X130706547Y-94654761D01*
X131087500Y-94654761D01*
X131277976Y-94559523D01*
X131373214Y-94464285D01*
X131468452Y-94273809D01*
X131468452Y-93702380D01*
X131373214Y-93511904D01*
X131277976Y-93416666D01*
X131087500Y-93321428D01*
X130706547Y-93321428D01*
X130516071Y-93416666D01*
X129658928Y-94654761D02*
X129658928Y-93321428D01*
X129658928Y-93702380D02*
X129563690Y-93511904D01*
X129468452Y-93416666D01*
X129277976Y-93321428D01*
X129087500Y-93321428D01*
X128135119Y-94654761D02*
X128325595Y-94559523D01*
X128420833Y-94464285D01*
X128516071Y-94273809D01*
X128516071Y-93702380D01*
X128420833Y-93511904D01*
X128325595Y-93416666D01*
X128135119Y-93321428D01*
X127849404Y-93321428D01*
X127658928Y-93416666D01*
X127563690Y-93511904D01*
X127468452Y-93702380D01*
X127468452Y-94273809D01*
X127563690Y-94464285D01*
X127658928Y-94559523D01*
X127849404Y-94654761D01*
X128135119Y-94654761D01*
X126611309Y-94654761D02*
X126611309Y-92654761D01*
X125468452Y-94654761D02*
X126325595Y-93511904D01*
X125468452Y-92654761D02*
X126611309Y-93797619D01*
X123944642Y-93607142D02*
X124611309Y-93607142D01*
X124611309Y-94654761D02*
X124611309Y-92654761D01*
X123658928Y-92654761D01*
X122897023Y-94654761D02*
X122897023Y-92654761D01*
X122420833Y-92654761D01*
X122135119Y-92750000D01*
X121944642Y-92940476D01*
X121849404Y-93130952D01*
X121754166Y-93511904D01*
X121754166Y-93797619D01*
X121849404Y-94178571D01*
X121944642Y-94369047D01*
X122135119Y-94559523D01*
X122420833Y-94654761D01*
X122897023Y-94654761D01*
D12*
X134414404Y-96202380D02*
X134414404Y-95535714D01*
X134414404Y-95726190D02*
X134366785Y-95630952D01*
X134319166Y-95583333D01*
X134223928Y-95535714D01*
X134128690Y-95535714D01*
X133414404Y-96154761D02*
X133509642Y-96202380D01*
X133700119Y-96202380D01*
X133795357Y-96154761D01*
X133842976Y-96059523D01*
X133842976Y-95678571D01*
X133795357Y-95583333D01*
X133700119Y-95535714D01*
X133509642Y-95535714D01*
X133414404Y-95583333D01*
X133366785Y-95678571D01*
X133366785Y-95773809D01*
X133842976Y-95869047D01*
X133033452Y-95535714D02*
X132795357Y-96202380D01*
X132557261Y-95535714D01*
X131414404Y-96202380D02*
X131414404Y-95202380D01*
X131176309Y-95202380D01*
X131033452Y-95250000D01*
X130938214Y-95345238D01*
X130890595Y-95440476D01*
X130842976Y-95630952D01*
X130842976Y-95773809D01*
X130890595Y-95964285D01*
X130938214Y-96059523D01*
X131033452Y-96154761D01*
X131176309Y-96202380D01*
X131414404Y-96202380D01*
X129700119Y-95297619D02*
X129652500Y-95250000D01*
X129557261Y-95202380D01*
X129319166Y-95202380D01*
X129223928Y-95250000D01*
X129176309Y-95297619D01*
X129128690Y-95392857D01*
X129128690Y-95488095D01*
X129176309Y-95630952D01*
X129747738Y-96202380D01*
X129128690Y-96202380D01*
X128509642Y-95202380D02*
X128414404Y-95202380D01*
X128319166Y-95250000D01*
X128271547Y-95297619D01*
X128223928Y-95392857D01*
X128176309Y-95583333D01*
X128176309Y-95821428D01*
X128223928Y-96011904D01*
X128271547Y-96107142D01*
X128319166Y-96154761D01*
X128414404Y-96202380D01*
X128509642Y-96202380D01*
X128604880Y-96154761D01*
X128652500Y-96107142D01*
X128700119Y-96011904D01*
X128747738Y-95821428D01*
X128747738Y-95583333D01*
X128700119Y-95392857D01*
X128652500Y-95297619D01*
X128604880Y-95250000D01*
X128509642Y-95202380D01*
X127795357Y-95297619D02*
X127747738Y-95250000D01*
X127652500Y-95202380D01*
X127414404Y-95202380D01*
X127319166Y-95250000D01*
X127271547Y-95297619D01*
X127223928Y-95392857D01*
X127223928Y-95488095D01*
X127271547Y-95630952D01*
X127842976Y-96202380D01*
X127223928Y-96202380D01*
X126842976Y-95297619D02*
X126795357Y-95250000D01*
X126700119Y-95202380D01*
X126462023Y-95202380D01*
X126366785Y-95250000D01*
X126319166Y-95297619D01*
X126271547Y-95392857D01*
X126271547Y-95488095D01*
X126319166Y-95630952D01*
X126890595Y-96202380D01*
X126271547Y-96202380D01*
X125842976Y-95821428D02*
X125081071Y-95821428D01*
X124414404Y-95202380D02*
X124319166Y-95202380D01*
X124223928Y-95250000D01*
X124176309Y-95297619D01*
X124128690Y-95392857D01*
X124081071Y-95583333D01*
X124081071Y-95821428D01*
X124128690Y-96011904D01*
X124176309Y-96107142D01*
X124223928Y-96154761D01*
X124319166Y-96202380D01*
X124414404Y-96202380D01*
X124509642Y-96154761D01*
X124557261Y-96107142D01*
X124604880Y-96011904D01*
X124652500Y-95821428D01*
X124652500Y-95583333D01*
X124604880Y-95392857D01*
X124557261Y-95297619D01*
X124509642Y-95250000D01*
X124414404Y-95202380D01*
X123223928Y-95535714D02*
X123223928Y-96202380D01*
X123462023Y-95154761D02*
X123700119Y-95869047D01*
X123081071Y-95869047D01*
X122700119Y-95821428D02*
X121938214Y-95821428D01*
X121271547Y-95202380D02*
X121176309Y-95202380D01*
X121081071Y-95250000D01*
X121033452Y-95297619D01*
X120985833Y-95392857D01*
X120938214Y-95583333D01*
X120938214Y-95821428D01*
X120985833Y-96011904D01*
X121033452Y-96107142D01*
X121081071Y-96154761D01*
X121176309Y-96202380D01*
X121271547Y-96202380D01*
X121366785Y-96154761D01*
X121414404Y-96107142D01*
X121462023Y-96011904D01*
X121509642Y-95821428D01*
X121509642Y-95583333D01*
X121462023Y-95392857D01*
X121414404Y-95297619D01*
X121366785Y-95250000D01*
X121271547Y-95202380D01*
X120462023Y-96202380D02*
X120271547Y-96202380D01*
X120176309Y-96154761D01*
X120128690Y-96107142D01*
X120033452Y-95964285D01*
X119985833Y-95773809D01*
X119985833Y-95392857D01*
X120033452Y-95297619D01*
X120081071Y-95250000D01*
X120176309Y-95202380D01*
X120366785Y-95202380D01*
X120462023Y-95250000D01*
X120509642Y-95297619D01*
X120557261Y-95392857D01*
X120557261Y-95630952D01*
X120509642Y-95726190D01*
X120462023Y-95773809D01*
X120366785Y-95821428D01*
X120176309Y-95821428D01*
X120081071Y-95773809D01*
X120033452Y-95726190D01*
X119985833Y-95630952D01*
D13*
%TO.C,TP1*%
X113950000Y-110700000D02*
X113950000Y-109300000D01*
X112550000Y-110700000D02*
X113950000Y-110700000D01*
X112550000Y-109300000D02*
X112550000Y-110700000D01*
X113950000Y-109300000D02*
X112550000Y-109300000D01*
%TO.C,TP2*%
X114550000Y-110700000D02*
X115950000Y-110700000D01*
X115950000Y-110700000D02*
X115950000Y-109300000D01*
X115950000Y-109300000D02*
X114550000Y-109300000D01*
X114550000Y-109300000D02*
X114550000Y-110700000D01*
%TO.C,TP3*%
X110550000Y-110700000D02*
X111950000Y-110700000D01*
X111950000Y-109300000D02*
X110550000Y-109300000D01*
X111950000Y-110700000D02*
X111950000Y-109300000D01*
X110550000Y-109300000D02*
X110550000Y-110700000D01*
%TO.C,TP4*%
X117950000Y-109300000D02*
X116550000Y-109300000D01*
X116550000Y-109300000D02*
X116550000Y-110700000D01*
X117950000Y-110700000D02*
X117950000Y-109300000D01*
X116550000Y-110700000D02*
X117950000Y-110700000D01*
%TO.C,TP5*%
X109950000Y-109300000D02*
X108550000Y-109300000D01*
X108550000Y-109300000D02*
X108550000Y-110700000D01*
X108550000Y-110700000D02*
X109950000Y-110700000D01*
X109950000Y-110700000D02*
X109950000Y-109300000D01*
%TO.C,TP6*%
X119950000Y-109300000D02*
X118550000Y-109300000D01*
X118550000Y-110700000D02*
X119950000Y-110700000D01*
X118550000Y-109300000D02*
X118550000Y-110700000D01*
X119950000Y-110700000D02*
X119950000Y-109300000D01*
D14*
%TO.C,G\u002A\u002A\u002A*%
X135653297Y-92464575D02*
X135657254Y-92487989D01*
X135657254Y-92487989D02*
X135663833Y-92525695D01*
X135663833Y-92525695D02*
X135672864Y-92576767D01*
X135672864Y-92576767D02*
X135684180Y-92640284D01*
X135684180Y-92640284D02*
X135697613Y-92715319D01*
X135697613Y-92715319D02*
X135712994Y-92800950D01*
X135712994Y-92800950D02*
X135730154Y-92896253D01*
X135730154Y-92896253D02*
X135748927Y-93000302D01*
X135748927Y-93000302D02*
X135769142Y-93112175D01*
X135769142Y-93112175D02*
X135790634Y-93230947D01*
X135790634Y-93230947D02*
X135813232Y-93355695D01*
X135813232Y-93355695D02*
X135836769Y-93485494D01*
X135836769Y-93485494D02*
X135861076Y-93619419D01*
X135861076Y-93619419D02*
X135885986Y-93756548D01*
X135885986Y-93756548D02*
X135911330Y-93895957D01*
X135911330Y-93895957D02*
X135936939Y-94036720D01*
X135936939Y-94036720D02*
X135962647Y-94177914D01*
X135962647Y-94177914D02*
X135988284Y-94318616D01*
X135988284Y-94318616D02*
X136013681Y-94457900D01*
X136013681Y-94457900D02*
X136038672Y-94594844D01*
X136038672Y-94594844D02*
X136063088Y-94728522D01*
X136063088Y-94728522D02*
X136086760Y-94858012D01*
X136086760Y-94858012D02*
X136109520Y-94982388D01*
X136109520Y-94982388D02*
X136131200Y-95100728D01*
X136131200Y-95100728D02*
X136151632Y-95212106D01*
X136151632Y-95212106D02*
X136170647Y-95315599D01*
X136170647Y-95315599D02*
X136188078Y-95410283D01*
X136188078Y-95410283D02*
X136203756Y-95495234D01*
X136203756Y-95495234D02*
X136217513Y-95569527D01*
X136217513Y-95569527D02*
X136229180Y-95632240D01*
X136229180Y-95632240D02*
X136238589Y-95682447D01*
X136238589Y-95682447D02*
X136245573Y-95719225D01*
X136245573Y-95719225D02*
X136249963Y-95741649D01*
X136249963Y-95741649D02*
X136251568Y-95748811D01*
X136251568Y-95748811D02*
X136259891Y-95751007D01*
X136259891Y-95751007D02*
X136283398Y-95756565D01*
X136283398Y-95756565D02*
X136321252Y-95765297D01*
X136321252Y-95765297D02*
X136372616Y-95777015D01*
X136372616Y-95777015D02*
X136436655Y-95791530D01*
X136436655Y-95791530D02*
X136512531Y-95808657D01*
X136512531Y-95808657D02*
X136599409Y-95828206D01*
X136599409Y-95828206D02*
X136696452Y-95849990D01*
X136696452Y-95849990D02*
X136802823Y-95873821D01*
X136802823Y-95873821D02*
X136917687Y-95899512D01*
X136917687Y-95899512D02*
X137040207Y-95926874D01*
X137040207Y-95926874D02*
X137169545Y-95955720D01*
X137169545Y-95955720D02*
X137304867Y-95985863D01*
X137304867Y-95985863D02*
X137445336Y-96017114D01*
X137445336Y-96017114D02*
X137583279Y-96047767D01*
X137583279Y-96047767D02*
X137728088Y-96079928D01*
X137728088Y-96079928D02*
X137868679Y-96111154D01*
X137868679Y-96111154D02*
X138004206Y-96141256D01*
X138004206Y-96141256D02*
X138133823Y-96170047D01*
X138133823Y-96170047D02*
X138256682Y-96197337D01*
X138256682Y-96197337D02*
X138371938Y-96222940D01*
X138371938Y-96222940D02*
X138478743Y-96246666D01*
X138478743Y-96246666D02*
X138576251Y-96268329D01*
X138576251Y-96268329D02*
X138663615Y-96287739D01*
X138663615Y-96287739D02*
X138739989Y-96304709D01*
X138739989Y-96304709D02*
X138804526Y-96319051D01*
X138804526Y-96319051D02*
X138856380Y-96330576D01*
X138856380Y-96330576D02*
X138894704Y-96339097D01*
X138894704Y-96339097D02*
X138918651Y-96344425D01*
X138918651Y-96344425D02*
X138927293Y-96346354D01*
X138927293Y-96346354D02*
X138932039Y-96346140D01*
X138932039Y-96346140D02*
X138923182Y-96340919D01*
X138923182Y-96340919D02*
X138919089Y-96339021D01*
X138919089Y-96339021D02*
X138908101Y-96334737D01*
X138908101Y-96334737D02*
X138882746Y-96325247D01*
X138882746Y-96325247D02*
X138844082Y-96310939D01*
X138844082Y-96310939D02*
X138793168Y-96292199D01*
X138793168Y-96292199D02*
X138731063Y-96269415D01*
X138731063Y-96269415D02*
X138658825Y-96242975D01*
X138658825Y-96242975D02*
X138577513Y-96213264D01*
X138577513Y-96213264D02*
X138488186Y-96180672D01*
X138488186Y-96180672D02*
X138391901Y-96145583D01*
X138391901Y-96145583D02*
X138289718Y-96108387D01*
X138289718Y-96108387D02*
X138182695Y-96069470D01*
X138182695Y-96069470D02*
X138098222Y-96038780D01*
X138098222Y-96038780D02*
X137301967Y-95749607D01*
X137301967Y-95749607D02*
X136478144Y-94101896D01*
X136478144Y-94101896D02*
X136400936Y-93947502D01*
X136400936Y-93947502D02*
X136325667Y-93797043D01*
X136325667Y-93797043D02*
X136252667Y-93651175D01*
X136252667Y-93651175D02*
X136182263Y-93510550D01*
X136182263Y-93510550D02*
X136114785Y-93375825D01*
X136114785Y-93375825D02*
X136050560Y-93247653D01*
X136050560Y-93247653D02*
X135989918Y-93126690D01*
X135989918Y-93126690D02*
X135933187Y-93013589D01*
X135933187Y-93013589D02*
X135880696Y-92909006D01*
X135880696Y-92909006D02*
X135832773Y-92813595D01*
X135832773Y-92813595D02*
X135789748Y-92728011D01*
X135789748Y-92728011D02*
X135751947Y-92652908D01*
X135751947Y-92652908D02*
X135719701Y-92588942D01*
X135719701Y-92588942D02*
X135693338Y-92536766D01*
X135693338Y-92536766D02*
X135673187Y-92497035D01*
X135673187Y-92497035D02*
X135659575Y-92470404D01*
X135659575Y-92470404D02*
X135652832Y-92457528D01*
X135652832Y-92457528D02*
X135652129Y-92456377D01*
X135652129Y-92456377D02*
X135653297Y-92464575D01*
X135653297Y-92464575D02*
X135653297Y-92464575D01*
G36*
X135652832Y-92457528D02*
G01*
X135659575Y-92470404D01*
X135673187Y-92497035D01*
X135693338Y-92536766D01*
X135719701Y-92588942D01*
X135751947Y-92652908D01*
X135789748Y-92728011D01*
X135832773Y-92813595D01*
X135880696Y-92909006D01*
X135933187Y-93013589D01*
X135989918Y-93126690D01*
X136050560Y-93247653D01*
X136114785Y-93375825D01*
X136182263Y-93510550D01*
X136252667Y-93651175D01*
X136325667Y-93797043D01*
X136400936Y-93947502D01*
X136478144Y-94101896D01*
X137301967Y-95749607D01*
X138098222Y-96038780D01*
X138182695Y-96069470D01*
X138289718Y-96108387D01*
X138391901Y-96145583D01*
X138488186Y-96180672D01*
X138577513Y-96213264D01*
X138658825Y-96242975D01*
X138731063Y-96269415D01*
X138793168Y-96292199D01*
X138844082Y-96310939D01*
X138882746Y-96325247D01*
X138908101Y-96334737D01*
X138919089Y-96339021D01*
X138923182Y-96340919D01*
X138932039Y-96346140D01*
X138927293Y-96346354D01*
X138918651Y-96344425D01*
X138894704Y-96339097D01*
X138856380Y-96330576D01*
X138804526Y-96319051D01*
X138739989Y-96304709D01*
X138663615Y-96287739D01*
X138576251Y-96268329D01*
X138478743Y-96246666D01*
X138371938Y-96222940D01*
X138256682Y-96197337D01*
X138133823Y-96170047D01*
X138004206Y-96141256D01*
X137868679Y-96111154D01*
X137728088Y-96079928D01*
X137583279Y-96047767D01*
X137445336Y-96017114D01*
X137304867Y-95985863D01*
X137169545Y-95955720D01*
X137040207Y-95926874D01*
X136917687Y-95899512D01*
X136802823Y-95873821D01*
X136696452Y-95849990D01*
X136599409Y-95828206D01*
X136512531Y-95808657D01*
X136436655Y-95791530D01*
X136372616Y-95777015D01*
X136321252Y-95765297D01*
X136283398Y-95756565D01*
X136259891Y-95751007D01*
X136251568Y-95748811D01*
X136249963Y-95741649D01*
X136245573Y-95719225D01*
X136238589Y-95682447D01*
X136229180Y-95632240D01*
X136217513Y-95569527D01*
X136203756Y-95495234D01*
X136188078Y-95410283D01*
X136170647Y-95315599D01*
X136151632Y-95212106D01*
X136131200Y-95100728D01*
X136109520Y-94982388D01*
X136086760Y-94858012D01*
X136063088Y-94728522D01*
X136038672Y-94594844D01*
X136013681Y-94457900D01*
X135988284Y-94318616D01*
X135962647Y-94177914D01*
X135936939Y-94036720D01*
X135911330Y-93895957D01*
X135885986Y-93756548D01*
X135861076Y-93619419D01*
X135836769Y-93485494D01*
X135813232Y-93355695D01*
X135790634Y-93230947D01*
X135769142Y-93112175D01*
X135748927Y-93000302D01*
X135730154Y-92896253D01*
X135712994Y-92800950D01*
X135697613Y-92715319D01*
X135684180Y-92640284D01*
X135672864Y-92576767D01*
X135663833Y-92525695D01*
X135657254Y-92487989D01*
X135653297Y-92464575D01*
X135652129Y-92456377D01*
X135652832Y-92457528D01*
G37*
X135652832Y-92457528D02*
X135659575Y-92470404D01*
X135673187Y-92497035D01*
X135693338Y-92536766D01*
X135719701Y-92588942D01*
X135751947Y-92652908D01*
X135789748Y-92728011D01*
X135832773Y-92813595D01*
X135880696Y-92909006D01*
X135933187Y-93013589D01*
X135989918Y-93126690D01*
X136050560Y-93247653D01*
X136114785Y-93375825D01*
X136182263Y-93510550D01*
X136252667Y-93651175D01*
X136325667Y-93797043D01*
X136400936Y-93947502D01*
X136478144Y-94101896D01*
X137301967Y-95749607D01*
X138098222Y-96038780D01*
X138182695Y-96069470D01*
X138289718Y-96108387D01*
X138391901Y-96145583D01*
X138488186Y-96180672D01*
X138577513Y-96213264D01*
X138658825Y-96242975D01*
X138731063Y-96269415D01*
X138793168Y-96292199D01*
X138844082Y-96310939D01*
X138882746Y-96325247D01*
X138908101Y-96334737D01*
X138919089Y-96339021D01*
X138923182Y-96340919D01*
X138932039Y-96346140D01*
X138927293Y-96346354D01*
X138918651Y-96344425D01*
X138894704Y-96339097D01*
X138856380Y-96330576D01*
X138804526Y-96319051D01*
X138739989Y-96304709D01*
X138663615Y-96287739D01*
X138576251Y-96268329D01*
X138478743Y-96246666D01*
X138371938Y-96222940D01*
X138256682Y-96197337D01*
X138133823Y-96170047D01*
X138004206Y-96141256D01*
X137868679Y-96111154D01*
X137728088Y-96079928D01*
X137583279Y-96047767D01*
X137445336Y-96017114D01*
X137304867Y-95985863D01*
X137169545Y-95955720D01*
X137040207Y-95926874D01*
X136917687Y-95899512D01*
X136802823Y-95873821D01*
X136696452Y-95849990D01*
X136599409Y-95828206D01*
X136512531Y-95808657D01*
X136436655Y-95791530D01*
X136372616Y-95777015D01*
X136321252Y-95765297D01*
X136283398Y-95756565D01*
X136259891Y-95751007D01*
X136251568Y-95748811D01*
X136249963Y-95741649D01*
X136245573Y-95719225D01*
X136238589Y-95682447D01*
X136229180Y-95632240D01*
X136217513Y-95569527D01*
X136203756Y-95495234D01*
X136188078Y-95410283D01*
X136170647Y-95315599D01*
X136151632Y-95212106D01*
X136131200Y-95100728D01*
X136109520Y-94982388D01*
X136086760Y-94858012D01*
X136063088Y-94728522D01*
X136038672Y-94594844D01*
X136013681Y-94457900D01*
X135988284Y-94318616D01*
X135962647Y-94177914D01*
X135936939Y-94036720D01*
X135911330Y-93895957D01*
X135885986Y-93756548D01*
X135861076Y-93619419D01*
X135836769Y-93485494D01*
X135813232Y-93355695D01*
X135790634Y-93230947D01*
X135769142Y-93112175D01*
X135748927Y-93000302D01*
X135730154Y-92896253D01*
X135712994Y-92800950D01*
X135697613Y-92715319D01*
X135684180Y-92640284D01*
X135672864Y-92576767D01*
X135663833Y-92525695D01*
X135657254Y-92487989D01*
X135653297Y-92464575D01*
X135652129Y-92456377D01*
X135652832Y-92457528D01*
X135961236Y-92158484D02*
X135962639Y-92159953D01*
X135962639Y-92159953D02*
X135970550Y-92165448D01*
X135970550Y-92165448D02*
X135991430Y-92179781D01*
X135991430Y-92179781D02*
X136024687Y-92202548D01*
X136024687Y-92202548D02*
X136069731Y-92233347D01*
X136069731Y-92233347D02*
X136125972Y-92271775D01*
X136125972Y-92271775D02*
X136192819Y-92317428D01*
X136192819Y-92317428D02*
X136269682Y-92369904D01*
X136269682Y-92369904D02*
X136355969Y-92428800D01*
X136355969Y-92428800D02*
X136451091Y-92493713D01*
X136451091Y-92493713D02*
X136554456Y-92564239D01*
X136554456Y-92564239D02*
X136665475Y-92639976D01*
X136665475Y-92639976D02*
X136783556Y-92720521D01*
X136783556Y-92720521D02*
X136908110Y-92805471D01*
X136908110Y-92805471D02*
X137038545Y-92894422D01*
X137038545Y-92894422D02*
X137174270Y-92986972D01*
X137174270Y-92986972D02*
X137314696Y-93082719D01*
X137314696Y-93082719D02*
X137459232Y-93181258D01*
X137459232Y-93181258D02*
X137607287Y-93282187D01*
X137607287Y-93282187D02*
X137612768Y-93285923D01*
X137612768Y-93285923D02*
X139249451Y-94401595D01*
X139249451Y-94401595D02*
X139545295Y-95361569D01*
X139545295Y-95361569D02*
X139582649Y-95482701D01*
X139582649Y-95482701D02*
X139618647Y-95599281D01*
X139618647Y-95599281D02*
X139652996Y-95710372D01*
X139652996Y-95710372D02*
X139685405Y-95815035D01*
X139685405Y-95815035D02*
X139715580Y-95912333D01*
X139715580Y-95912333D02*
X139743231Y-96001328D01*
X139743231Y-96001328D02*
X139768065Y-96081081D01*
X139768065Y-96081081D02*
X139789790Y-96150654D01*
X139789790Y-96150654D02*
X139808115Y-96209110D01*
X139808115Y-96209110D02*
X139822746Y-96255510D01*
X139822746Y-96255510D02*
X139833393Y-96288917D01*
X139833393Y-96288917D02*
X139839762Y-96308392D01*
X139839762Y-96308392D02*
X139841597Y-96313275D01*
X139841597Y-96313275D02*
X139840075Y-96304320D01*
X139840075Y-96304320D02*
X139835518Y-96280288D01*
X139835518Y-96280288D02*
X139828121Y-96242149D01*
X139828121Y-96242149D02*
X139818076Y-96190873D01*
X139818076Y-96190873D02*
X139805579Y-96127430D01*
X139805579Y-96127430D02*
X139790824Y-96052791D01*
X139790824Y-96052791D02*
X139774005Y-95967925D01*
X139774005Y-95967925D02*
X139755316Y-95873803D01*
X139755316Y-95873803D02*
X139734952Y-95771395D01*
X139734952Y-95771395D02*
X139713106Y-95661671D01*
X139713106Y-95661671D02*
X139689973Y-95545602D01*
X139689973Y-95545602D02*
X139665747Y-95424157D01*
X139665747Y-95424157D02*
X139640622Y-95298307D01*
X139640622Y-95298307D02*
X139614793Y-95169021D01*
X139614793Y-95169021D02*
X139588453Y-95037271D01*
X139588453Y-95037271D02*
X139561798Y-94904025D01*
X139561798Y-94904025D02*
X139535020Y-94770256D01*
X139535020Y-94770256D02*
X139508315Y-94636931D01*
X139508315Y-94636931D02*
X139481876Y-94505022D01*
X139481876Y-94505022D02*
X139455899Y-94375500D01*
X139455899Y-94375500D02*
X139430576Y-94249333D01*
X139430576Y-94249333D02*
X139406102Y-94127492D01*
X139406102Y-94127492D02*
X139382672Y-94010948D01*
X139382672Y-94010948D02*
X139360479Y-93900670D01*
X139360479Y-93900670D02*
X139339718Y-93797629D01*
X139339718Y-93797629D02*
X139320583Y-93702795D01*
X139320583Y-93702795D02*
X139303268Y-93617138D01*
X139303268Y-93617138D02*
X139287968Y-93541629D01*
X139287968Y-93541629D02*
X139274877Y-93477236D01*
X139274877Y-93477236D02*
X139264188Y-93424931D01*
X139264188Y-93424931D02*
X139256096Y-93385684D01*
X139256096Y-93385684D02*
X139250796Y-93360465D01*
X139250796Y-93360465D02*
X139248481Y-93350244D01*
X139248481Y-93350244D02*
X139248411Y-93350068D01*
X139248411Y-93350068D02*
X139240595Y-93347068D01*
X139240595Y-93347068D02*
X139218227Y-93338779D01*
X139218227Y-93338779D02*
X139182176Y-93325518D01*
X139182176Y-93325518D02*
X139133313Y-93307602D01*
X139133313Y-93307602D02*
X139072506Y-93285346D01*
X139072506Y-93285346D02*
X139000625Y-93259067D01*
X139000625Y-93259067D02*
X138918538Y-93229083D01*
X138918538Y-93229083D02*
X138827117Y-93195708D01*
X138827117Y-93195708D02*
X138727229Y-93159261D01*
X138727229Y-93159261D02*
X138619744Y-93120057D01*
X138619744Y-93120057D02*
X138505532Y-93078414D01*
X138505532Y-93078414D02*
X138385462Y-93034646D01*
X138385462Y-93034646D02*
X138260403Y-92989072D01*
X138260403Y-92989072D02*
X138131225Y-92942007D01*
X138131225Y-92942007D02*
X137998797Y-92893768D01*
X137998797Y-92893768D02*
X137863988Y-92844671D01*
X137863988Y-92844671D02*
X137727669Y-92795034D01*
X137727669Y-92795034D02*
X137590707Y-92745172D01*
X137590707Y-92745172D02*
X137453973Y-92695402D01*
X137453973Y-92695402D02*
X137318337Y-92646041D01*
X137318337Y-92646041D02*
X137184666Y-92597405D01*
X137184666Y-92597405D02*
X137053832Y-92549811D01*
X137053832Y-92549811D02*
X136926702Y-92503574D01*
X136926702Y-92503574D02*
X136804147Y-92459013D01*
X136804147Y-92459013D02*
X136687036Y-92416442D01*
X136687036Y-92416442D02*
X136576238Y-92376179D01*
X136576238Y-92376179D02*
X136472623Y-92338541D01*
X136472623Y-92338541D02*
X136377059Y-92303843D01*
X136377059Y-92303843D02*
X136290418Y-92272402D01*
X136290418Y-92272402D02*
X136213567Y-92244535D01*
X136213567Y-92244535D02*
X136147376Y-92220558D01*
X136147376Y-92220558D02*
X136092714Y-92200788D01*
X136092714Y-92200788D02*
X136050452Y-92185542D01*
X136050452Y-92185542D02*
X136021458Y-92175135D01*
X136021458Y-92175135D02*
X136010724Y-92171322D01*
X136010724Y-92171322D02*
X135984229Y-92162604D01*
X135984229Y-92162604D02*
X135966850Y-92158116D01*
X135966850Y-92158116D02*
X135961236Y-92158484D01*
X135961236Y-92158484D02*
X135961236Y-92158484D01*
G36*
X135984229Y-92162604D02*
G01*
X136010724Y-92171322D01*
X136021458Y-92175135D01*
X136050452Y-92185542D01*
X136092714Y-92200788D01*
X136147376Y-92220558D01*
X136213567Y-92244535D01*
X136290418Y-92272402D01*
X136377059Y-92303843D01*
X136472623Y-92338541D01*
X136576238Y-92376179D01*
X136687036Y-92416442D01*
X136804147Y-92459013D01*
X136926702Y-92503574D01*
X137053832Y-92549811D01*
X137184666Y-92597405D01*
X137318337Y-92646041D01*
X137453973Y-92695402D01*
X137590707Y-92745172D01*
X137727669Y-92795034D01*
X137863988Y-92844671D01*
X137998797Y-92893768D01*
X138131225Y-92942007D01*
X138260403Y-92989072D01*
X138385462Y-93034646D01*
X138505532Y-93078414D01*
X138619744Y-93120057D01*
X138727229Y-93159261D01*
X138827117Y-93195708D01*
X138918538Y-93229083D01*
X139000625Y-93259067D01*
X139072506Y-93285346D01*
X139133313Y-93307602D01*
X139182176Y-93325518D01*
X139218227Y-93338779D01*
X139240595Y-93347068D01*
X139248411Y-93350068D01*
X139248481Y-93350244D01*
X139250796Y-93360465D01*
X139256096Y-93385684D01*
X139264188Y-93424931D01*
X139274877Y-93477236D01*
X139287968Y-93541629D01*
X139303268Y-93617138D01*
X139320583Y-93702795D01*
X139339718Y-93797629D01*
X139360479Y-93900670D01*
X139382672Y-94010948D01*
X139406102Y-94127492D01*
X139430576Y-94249333D01*
X139455899Y-94375500D01*
X139481876Y-94505022D01*
X139508315Y-94636931D01*
X139535020Y-94770256D01*
X139561798Y-94904025D01*
X139588453Y-95037271D01*
X139614793Y-95169021D01*
X139640622Y-95298307D01*
X139665747Y-95424157D01*
X139689973Y-95545602D01*
X139713106Y-95661671D01*
X139734952Y-95771395D01*
X139755316Y-95873803D01*
X139774005Y-95967925D01*
X139790824Y-96052791D01*
X139805579Y-96127430D01*
X139818076Y-96190873D01*
X139828121Y-96242149D01*
X139835518Y-96280288D01*
X139840075Y-96304320D01*
X139841597Y-96313275D01*
X139839762Y-96308392D01*
X139833393Y-96288917D01*
X139822746Y-96255510D01*
X139808115Y-96209110D01*
X139789790Y-96150654D01*
X139768065Y-96081081D01*
X139743231Y-96001328D01*
X139715580Y-95912333D01*
X139685405Y-95815035D01*
X139652996Y-95710372D01*
X139618647Y-95599281D01*
X139582649Y-95482701D01*
X139545295Y-95361569D01*
X139249451Y-94401595D01*
X137612768Y-93285923D01*
X137607287Y-93282187D01*
X137459232Y-93181258D01*
X137314696Y-93082719D01*
X137174270Y-92986972D01*
X137038545Y-92894422D01*
X136908110Y-92805471D01*
X136783556Y-92720521D01*
X136665475Y-92639976D01*
X136554456Y-92564239D01*
X136451091Y-92493713D01*
X136355969Y-92428800D01*
X136269682Y-92369904D01*
X136192819Y-92317428D01*
X136125972Y-92271775D01*
X136069731Y-92233347D01*
X136024687Y-92202548D01*
X135991430Y-92179781D01*
X135970550Y-92165448D01*
X135962639Y-92159953D01*
X135961236Y-92158484D01*
X135966850Y-92158116D01*
X135984229Y-92162604D01*
G37*
X135984229Y-92162604D02*
X136010724Y-92171322D01*
X136021458Y-92175135D01*
X136050452Y-92185542D01*
X136092714Y-92200788D01*
X136147376Y-92220558D01*
X136213567Y-92244535D01*
X136290418Y-92272402D01*
X136377059Y-92303843D01*
X136472623Y-92338541D01*
X136576238Y-92376179D01*
X136687036Y-92416442D01*
X136804147Y-92459013D01*
X136926702Y-92503574D01*
X137053832Y-92549811D01*
X137184666Y-92597405D01*
X137318337Y-92646041D01*
X137453973Y-92695402D01*
X137590707Y-92745172D01*
X137727669Y-92795034D01*
X137863988Y-92844671D01*
X137998797Y-92893768D01*
X138131225Y-92942007D01*
X138260403Y-92989072D01*
X138385462Y-93034646D01*
X138505532Y-93078414D01*
X138619744Y-93120057D01*
X138727229Y-93159261D01*
X138827117Y-93195708D01*
X138918538Y-93229083D01*
X139000625Y-93259067D01*
X139072506Y-93285346D01*
X139133313Y-93307602D01*
X139182176Y-93325518D01*
X139218227Y-93338779D01*
X139240595Y-93347068D01*
X139248411Y-93350068D01*
X139248481Y-93350244D01*
X139250796Y-93360465D01*
X139256096Y-93385684D01*
X139264188Y-93424931D01*
X139274877Y-93477236D01*
X139287968Y-93541629D01*
X139303268Y-93617138D01*
X139320583Y-93702795D01*
X139339718Y-93797629D01*
X139360479Y-93900670D01*
X139382672Y-94010948D01*
X139406102Y-94127492D01*
X139430576Y-94249333D01*
X139455899Y-94375500D01*
X139481876Y-94505022D01*
X139508315Y-94636931D01*
X139535020Y-94770256D01*
X139561798Y-94904025D01*
X139588453Y-95037271D01*
X139614793Y-95169021D01*
X139640622Y-95298307D01*
X139665747Y-95424157D01*
X139689973Y-95545602D01*
X139713106Y-95661671D01*
X139734952Y-95771395D01*
X139755316Y-95873803D01*
X139774005Y-95967925D01*
X139790824Y-96052791D01*
X139805579Y-96127430D01*
X139818076Y-96190873D01*
X139828121Y-96242149D01*
X139835518Y-96280288D01*
X139840075Y-96304320D01*
X139841597Y-96313275D01*
X139839762Y-96308392D01*
X139833393Y-96288917D01*
X139822746Y-96255510D01*
X139808115Y-96209110D01*
X139789790Y-96150654D01*
X139768065Y-96081081D01*
X139743231Y-96001328D01*
X139715580Y-95912333D01*
X139685405Y-95815035D01*
X139652996Y-95710372D01*
X139618647Y-95599281D01*
X139582649Y-95482701D01*
X139545295Y-95361569D01*
X139249451Y-94401595D01*
X137612768Y-93285923D01*
X137607287Y-93282187D01*
X137459232Y-93181258D01*
X137314696Y-93082719D01*
X137174270Y-92986972D01*
X137038545Y-92894422D01*
X136908110Y-92805471D01*
X136783556Y-92720521D01*
X136665475Y-92639976D01*
X136554456Y-92564239D01*
X136451091Y-92493713D01*
X136355969Y-92428800D01*
X136269682Y-92369904D01*
X136192819Y-92317428D01*
X136125972Y-92271775D01*
X136069731Y-92233347D01*
X136024687Y-92202548D01*
X135991430Y-92179781D01*
X135970550Y-92165448D01*
X135962639Y-92159953D01*
X135961236Y-92158484D01*
X135966850Y-92158116D01*
X135984229Y-92162604D01*
X135958727Y-92464170D02*
X135969055Y-92485672D01*
X135969055Y-92485672D02*
X135986050Y-92520462D01*
X135986050Y-92520462D02*
X136009371Y-92567853D01*
X136009371Y-92567853D02*
X136038673Y-92627154D01*
X136038673Y-92627154D02*
X136073615Y-92697676D01*
X136073615Y-92697676D02*
X136113852Y-92778730D01*
X136113852Y-92778730D02*
X136159043Y-92869627D01*
X136159043Y-92869627D02*
X136208843Y-92969677D01*
X136208843Y-92969677D02*
X136262910Y-93078191D01*
X136262910Y-93078191D02*
X136320901Y-93194480D01*
X136320901Y-93194480D02*
X136382473Y-93317854D01*
X136382473Y-93317854D02*
X136447282Y-93447624D01*
X136447282Y-93447624D02*
X136514986Y-93583101D01*
X136514986Y-93583101D02*
X136585242Y-93723595D01*
X136585242Y-93723595D02*
X136657707Y-93868416D01*
X136657707Y-93868416D02*
X136701453Y-93955803D01*
X136701453Y-93955803D02*
X137450549Y-95451906D01*
X137450549Y-95451906D02*
X138496576Y-95900823D01*
X138496576Y-95900823D02*
X138620907Y-95954177D01*
X138620907Y-95954177D02*
X138741055Y-96005727D01*
X138741055Y-96005727D02*
X138856163Y-96055107D01*
X138856163Y-96055107D02*
X138965372Y-96101947D01*
X138965372Y-96101947D02*
X139067821Y-96145880D01*
X139067821Y-96145880D02*
X139162653Y-96186536D01*
X139162653Y-96186536D02*
X139249008Y-96223549D01*
X139249008Y-96223549D02*
X139326026Y-96256550D01*
X139326026Y-96256550D02*
X139392850Y-96285171D01*
X139392850Y-96285171D02*
X139448619Y-96309043D01*
X139448619Y-96309043D02*
X139492475Y-96327798D01*
X139492475Y-96327798D02*
X139523559Y-96341069D01*
X139523559Y-96341069D02*
X139541011Y-96348486D01*
X139541011Y-96348486D02*
X139544654Y-96349999D01*
X139544654Y-96349999D02*
X139546705Y-96344223D01*
X139546705Y-96344223D02*
X139546706Y-96344077D01*
X139546706Y-96344077D02*
X139544163Y-96335638D01*
X139544163Y-96335638D02*
X139536754Y-96312616D01*
X139536754Y-96312616D02*
X139524801Y-96275990D01*
X139524801Y-96275990D02*
X139508629Y-96226742D01*
X139508629Y-96226742D02*
X139488563Y-96165853D01*
X139488563Y-96165853D02*
X139464927Y-96094304D01*
X139464927Y-96094304D02*
X139438046Y-96013076D01*
X139438046Y-96013076D02*
X139408245Y-95923150D01*
X139408245Y-95923150D02*
X139375847Y-95825507D01*
X139375847Y-95825507D02*
X139341177Y-95721128D01*
X139341177Y-95721128D02*
X139304561Y-95610994D01*
X139304561Y-95610994D02*
X139266321Y-95496085D01*
X139266321Y-95496085D02*
X139248868Y-95443673D01*
X139248868Y-95443673D02*
X138951030Y-94549451D01*
X138951030Y-94549451D02*
X137454747Y-93501522D01*
X137454747Y-93501522D02*
X137313922Y-93402918D01*
X137313922Y-93402918D02*
X137176661Y-93306853D01*
X137176661Y-93306853D02*
X137043567Y-93213751D01*
X137043567Y-93213751D02*
X136915246Y-93124031D01*
X136915246Y-93124031D02*
X136792301Y-93038114D01*
X136792301Y-93038114D02*
X136675337Y-92956423D01*
X136675337Y-92956423D02*
X136564957Y-92879377D01*
X136564957Y-92879377D02*
X136461767Y-92807398D01*
X136461767Y-92807398D02*
X136366371Y-92740907D01*
X136366371Y-92740907D02*
X136279371Y-92680326D01*
X136279371Y-92680326D02*
X136201374Y-92626074D01*
X136201374Y-92626074D02*
X136132983Y-92578574D01*
X136132983Y-92578574D02*
X136074802Y-92538247D01*
X136074802Y-92538247D02*
X136027436Y-92505512D01*
X136027436Y-92505512D02*
X135991489Y-92480793D01*
X135991489Y-92480793D02*
X135967564Y-92464509D01*
X135967564Y-92464509D02*
X135956267Y-92457081D01*
X135956267Y-92457081D02*
X135955411Y-92456648D01*
X135955411Y-92456648D02*
X135958727Y-92464170D01*
X135958727Y-92464170D02*
X135958727Y-92464170D01*
G36*
X135956267Y-92457081D02*
G01*
X135967564Y-92464509D01*
X135991489Y-92480793D01*
X136027436Y-92505512D01*
X136074802Y-92538247D01*
X136132983Y-92578574D01*
X136201374Y-92626074D01*
X136279371Y-92680326D01*
X136366371Y-92740907D01*
X136461767Y-92807398D01*
X136564957Y-92879377D01*
X136675337Y-92956423D01*
X136792301Y-93038114D01*
X136915246Y-93124031D01*
X137043567Y-93213751D01*
X137176661Y-93306853D01*
X137313922Y-93402918D01*
X137454747Y-93501522D01*
X138951030Y-94549451D01*
X139248868Y-95443673D01*
X139266321Y-95496085D01*
X139304561Y-95610994D01*
X139341177Y-95721128D01*
X139375847Y-95825507D01*
X139408245Y-95923150D01*
X139438046Y-96013076D01*
X139464927Y-96094304D01*
X139488563Y-96165853D01*
X139508629Y-96226742D01*
X139524801Y-96275990D01*
X139536754Y-96312616D01*
X139544163Y-96335638D01*
X139546706Y-96344077D01*
X139546705Y-96344223D01*
X139544654Y-96349999D01*
X139541011Y-96348486D01*
X139523559Y-96341069D01*
X139492475Y-96327798D01*
X139448619Y-96309043D01*
X139392850Y-96285171D01*
X139326026Y-96256550D01*
X139249008Y-96223549D01*
X139162653Y-96186536D01*
X139067821Y-96145880D01*
X138965372Y-96101947D01*
X138856163Y-96055107D01*
X138741055Y-96005727D01*
X138620907Y-95954177D01*
X138496576Y-95900823D01*
X137450549Y-95451906D01*
X136701453Y-93955803D01*
X136657707Y-93868416D01*
X136585242Y-93723595D01*
X136514986Y-93583101D01*
X136447282Y-93447624D01*
X136382473Y-93317854D01*
X136320901Y-93194480D01*
X136262910Y-93078191D01*
X136208843Y-92969677D01*
X136159043Y-92869627D01*
X136113852Y-92778730D01*
X136073615Y-92697676D01*
X136038673Y-92627154D01*
X136009371Y-92567853D01*
X135986050Y-92520462D01*
X135969055Y-92485672D01*
X135958727Y-92464170D01*
X135955411Y-92456648D01*
X135956267Y-92457081D01*
G37*
X135956267Y-92457081D02*
X135967564Y-92464509D01*
X135991489Y-92480793D01*
X136027436Y-92505512D01*
X136074802Y-92538247D01*
X136132983Y-92578574D01*
X136201374Y-92626074D01*
X136279371Y-92680326D01*
X136366371Y-92740907D01*
X136461767Y-92807398D01*
X136564957Y-92879377D01*
X136675337Y-92956423D01*
X136792301Y-93038114D01*
X136915246Y-93124031D01*
X137043567Y-93213751D01*
X137176661Y-93306853D01*
X137313922Y-93402918D01*
X137454747Y-93501522D01*
X138951030Y-94549451D01*
X139248868Y-95443673D01*
X139266321Y-95496085D01*
X139304561Y-95610994D01*
X139341177Y-95721128D01*
X139375847Y-95825507D01*
X139408245Y-95923150D01*
X139438046Y-96013076D01*
X139464927Y-96094304D01*
X139488563Y-96165853D01*
X139508629Y-96226742D01*
X139524801Y-96275990D01*
X139536754Y-96312616D01*
X139544163Y-96335638D01*
X139546706Y-96344077D01*
X139546705Y-96344223D01*
X139544654Y-96349999D01*
X139541011Y-96348486D01*
X139523559Y-96341069D01*
X139492475Y-96327798D01*
X139448619Y-96309043D01*
X139392850Y-96285171D01*
X139326026Y-96256550D01*
X139249008Y-96223549D01*
X139162653Y-96186536D01*
X139067821Y-96145880D01*
X138965372Y-96101947D01*
X138856163Y-96055107D01*
X138741055Y-96005727D01*
X138620907Y-95954177D01*
X138496576Y-95900823D01*
X137450549Y-95451906D01*
X136701453Y-93955803D01*
X136657707Y-93868416D01*
X136585242Y-93723595D01*
X136514986Y-93583101D01*
X136447282Y-93447624D01*
X136382473Y-93317854D01*
X136320901Y-93194480D01*
X136262910Y-93078191D01*
X136208843Y-92969677D01*
X136159043Y-92869627D01*
X136113852Y-92778730D01*
X136073615Y-92697676D01*
X136038673Y-92627154D01*
X136009371Y-92567853D01*
X135986050Y-92520462D01*
X135969055Y-92485672D01*
X135958727Y-92464170D01*
X135955411Y-92456648D01*
X135956267Y-92457081D01*
%TD*%
M02*
