%TF.GenerationSoftware,KiCad,Pcbnew,(6.0.1)*%
%TF.CreationDate,2022-04-09T19:32:08-04:00*%
%TF.ProjectId,microkfd,6d696372-6f6b-4666-942e-6b696361645f,D*%
%TF.SameCoordinates,Original*%
%TF.FileFunction,Legend,Bot*%
%TF.FilePolarity,Positive*%
%FSLAX46Y46*%
G04 Gerber Fmt 4.6, Leading zero omitted, Abs format (unit mm)*
G04 Created by KiCad (PCBNEW (6.0.1)) date 2022-04-09 19:32:08*
%MOMM*%
%LPD*%
G01*
G04 APERTURE LIST*
%ADD10C,0.200000*%
%ADD11C,0.250000*%
%ADD12C,0.150000*%
%ADD13C,0.120000*%
G04 APERTURE END LIST*
D10*
X112797619Y-108881904D02*
X113797619Y-108881904D01*
X113083333Y-108548571D01*
X113797619Y-108215238D01*
X112797619Y-108215238D01*
X113797619Y-107548571D02*
X113797619Y-107358095D01*
X113750000Y-107262857D01*
X113654761Y-107167619D01*
X113464285Y-107120000D01*
X113130952Y-107120000D01*
X112940476Y-107167619D01*
X112845238Y-107262857D01*
X112797619Y-107358095D01*
X112797619Y-107548571D01*
X112845238Y-107643809D01*
X112940476Y-107739047D01*
X113130952Y-107786666D01*
X113464285Y-107786666D01*
X113654761Y-107739047D01*
X113750000Y-107643809D01*
X113797619Y-107548571D01*
X112845238Y-106739047D02*
X112797619Y-106596190D01*
X112797619Y-106358095D01*
X112845238Y-106262857D01*
X112892857Y-106215238D01*
X112988095Y-106167619D01*
X113083333Y-106167619D01*
X113178571Y-106215238D01*
X113226190Y-106262857D01*
X113273809Y-106358095D01*
X113321428Y-106548571D01*
X113369047Y-106643809D01*
X113416666Y-106691428D01*
X113511904Y-106739047D01*
X113607142Y-106739047D01*
X113702380Y-106691428D01*
X113750000Y-106643809D01*
X113797619Y-106548571D01*
X113797619Y-106310476D01*
X113750000Y-106167619D01*
X112797619Y-105739047D02*
X113797619Y-105739047D01*
X110797619Y-108881904D02*
X111797619Y-108881904D01*
X111083333Y-108548571D01*
X111797619Y-108215238D01*
X110797619Y-108215238D01*
X110797619Y-107739047D02*
X111797619Y-107739047D01*
X110845238Y-107310476D02*
X110797619Y-107167619D01*
X110797619Y-106929523D01*
X110845238Y-106834285D01*
X110892857Y-106786666D01*
X110988095Y-106739047D01*
X111083333Y-106739047D01*
X111178571Y-106786666D01*
X111226190Y-106834285D01*
X111273809Y-106929523D01*
X111321428Y-107120000D01*
X111369047Y-107215238D01*
X111416666Y-107262857D01*
X111511904Y-107310476D01*
X111607142Y-107310476D01*
X111702380Y-107262857D01*
X111750000Y-107215238D01*
X111797619Y-107120000D01*
X111797619Y-106881904D01*
X111750000Y-106739047D01*
X111797619Y-106120000D02*
X111797619Y-105929523D01*
X111750000Y-105834285D01*
X111654761Y-105739047D01*
X111464285Y-105691428D01*
X111130952Y-105691428D01*
X110940476Y-105739047D01*
X110845238Y-105834285D01*
X110797619Y-105929523D01*
X110797619Y-106120000D01*
X110845238Y-106215238D01*
X110940476Y-106310476D01*
X111130952Y-106358095D01*
X111464285Y-106358095D01*
X111654761Y-106310476D01*
X111750000Y-106215238D01*
X111797619Y-106120000D01*
X109797619Y-108440476D02*
X109797619Y-108916666D01*
X109321428Y-108964285D01*
X109369047Y-108916666D01*
X109416666Y-108821428D01*
X109416666Y-108583333D01*
X109369047Y-108488095D01*
X109321428Y-108440476D01*
X109226190Y-108392857D01*
X108988095Y-108392857D01*
X108892857Y-108440476D01*
X108845238Y-108488095D01*
X108797619Y-108583333D01*
X108797619Y-108821428D01*
X108845238Y-108916666D01*
X108892857Y-108964285D01*
X109797619Y-108107142D02*
X108797619Y-107773809D01*
X109797619Y-107440476D01*
X116797619Y-108310476D02*
X117273809Y-108643809D01*
X116797619Y-108881904D02*
X117797619Y-108881904D01*
X117797619Y-108500952D01*
X117750000Y-108405714D01*
X117702380Y-108358095D01*
X117607142Y-108310476D01*
X117464285Y-108310476D01*
X117369047Y-108358095D01*
X117321428Y-108405714D01*
X117273809Y-108500952D01*
X117273809Y-108881904D01*
X116845238Y-107929523D02*
X116797619Y-107786666D01*
X116797619Y-107548571D01*
X116845238Y-107453333D01*
X116892857Y-107405714D01*
X116988095Y-107358095D01*
X117083333Y-107358095D01*
X117178571Y-107405714D01*
X117226190Y-107453333D01*
X117273809Y-107548571D01*
X117321428Y-107739047D01*
X117369047Y-107834285D01*
X117416666Y-107881904D01*
X117511904Y-107929523D01*
X117607142Y-107929523D01*
X117702380Y-107881904D01*
X117750000Y-107834285D01*
X117797619Y-107739047D01*
X117797619Y-107500952D01*
X117750000Y-107358095D01*
X117797619Y-107072380D02*
X117797619Y-106500952D01*
X116797619Y-106786666D02*
X117797619Y-106786666D01*
X119750000Y-108358095D02*
X119797619Y-108453333D01*
X119797619Y-108596190D01*
X119750000Y-108739047D01*
X119654761Y-108834285D01*
X119559523Y-108881904D01*
X119369047Y-108929523D01*
X119226190Y-108929523D01*
X119035714Y-108881904D01*
X118940476Y-108834285D01*
X118845238Y-108739047D01*
X118797619Y-108596190D01*
X118797619Y-108500952D01*
X118845238Y-108358095D01*
X118892857Y-108310476D01*
X119226190Y-108310476D01*
X119226190Y-108500952D01*
X118797619Y-107881904D02*
X119797619Y-107881904D01*
X118797619Y-107310476D01*
X119797619Y-107310476D01*
X118797619Y-106834285D02*
X119797619Y-106834285D01*
X119797619Y-106596190D01*
X119750000Y-106453333D01*
X119654761Y-106358095D01*
X119559523Y-106310476D01*
X119369047Y-106262857D01*
X119226190Y-106262857D01*
X119035714Y-106310476D01*
X118940476Y-106358095D01*
X118845238Y-106453333D01*
X118797619Y-106596190D01*
X118797619Y-106834285D01*
X114845238Y-108929523D02*
X114797619Y-108786666D01*
X114797619Y-108548571D01*
X114845238Y-108453333D01*
X114892857Y-108405714D01*
X114988095Y-108358095D01*
X115083333Y-108358095D01*
X115178571Y-108405714D01*
X115226190Y-108453333D01*
X115273809Y-108548571D01*
X115321428Y-108739047D01*
X115369047Y-108834285D01*
X115416666Y-108881904D01*
X115511904Y-108929523D01*
X115607142Y-108929523D01*
X115702380Y-108881904D01*
X115750000Y-108834285D01*
X115797619Y-108739047D01*
X115797619Y-108500952D01*
X115750000Y-108358095D01*
X114892857Y-107358095D02*
X114845238Y-107405714D01*
X114797619Y-107548571D01*
X114797619Y-107643809D01*
X114845238Y-107786666D01*
X114940476Y-107881904D01*
X115035714Y-107929523D01*
X115226190Y-107977142D01*
X115369047Y-107977142D01*
X115559523Y-107929523D01*
X115654761Y-107881904D01*
X115750000Y-107786666D01*
X115797619Y-107643809D01*
X115797619Y-107548571D01*
X115750000Y-107405714D01*
X115702380Y-107358095D01*
X114797619Y-106929523D02*
X115797619Y-106929523D01*
X114797619Y-106358095D02*
X115369047Y-106786666D01*
X115797619Y-106358095D02*
X115226190Y-106929523D01*
D11*
X134611309Y-94654761D02*
X134611309Y-92654761D01*
X133944642Y-94083333D01*
X133277976Y-92654761D01*
X133277976Y-94654761D01*
X132325595Y-94654761D02*
X132325595Y-93321428D01*
X132325595Y-92654761D02*
X132420833Y-92750000D01*
X132325595Y-92845238D01*
X132230357Y-92750000D01*
X132325595Y-92654761D01*
X132325595Y-92845238D01*
X130516071Y-94559523D02*
X130706547Y-94654761D01*
X131087500Y-94654761D01*
X131277976Y-94559523D01*
X131373214Y-94464285D01*
X131468452Y-94273809D01*
X131468452Y-93702380D01*
X131373214Y-93511904D01*
X131277976Y-93416666D01*
X131087500Y-93321428D01*
X130706547Y-93321428D01*
X130516071Y-93416666D01*
X129658928Y-94654761D02*
X129658928Y-93321428D01*
X129658928Y-93702380D02*
X129563690Y-93511904D01*
X129468452Y-93416666D01*
X129277976Y-93321428D01*
X129087500Y-93321428D01*
X128135119Y-94654761D02*
X128325595Y-94559523D01*
X128420833Y-94464285D01*
X128516071Y-94273809D01*
X128516071Y-93702380D01*
X128420833Y-93511904D01*
X128325595Y-93416666D01*
X128135119Y-93321428D01*
X127849404Y-93321428D01*
X127658928Y-93416666D01*
X127563690Y-93511904D01*
X127468452Y-93702380D01*
X127468452Y-94273809D01*
X127563690Y-94464285D01*
X127658928Y-94559523D01*
X127849404Y-94654761D01*
X128135119Y-94654761D01*
X126611309Y-94654761D02*
X126611309Y-92654761D01*
X125468452Y-94654761D02*
X126325595Y-93511904D01*
X125468452Y-92654761D02*
X126611309Y-93797619D01*
X123944642Y-93607142D02*
X124611309Y-93607142D01*
X124611309Y-94654761D02*
X124611309Y-92654761D01*
X123658928Y-92654761D01*
X122897023Y-94654761D02*
X122897023Y-92654761D01*
X122420833Y-92654761D01*
X122135119Y-92750000D01*
X121944642Y-92940476D01*
X121849404Y-93130952D01*
X121754166Y-93511904D01*
X121754166Y-93797619D01*
X121849404Y-94178571D01*
X121944642Y-94369047D01*
X122135119Y-94559523D01*
X122420833Y-94654761D01*
X122897023Y-94654761D01*
D12*
X134414404Y-96202380D02*
X134414404Y-95535714D01*
X134414404Y-95726190D02*
X134366785Y-95630952D01*
X134319166Y-95583333D01*
X134223928Y-95535714D01*
X134128690Y-95535714D01*
X133414404Y-96154761D02*
X133509642Y-96202380D01*
X133700119Y-96202380D01*
X133795357Y-96154761D01*
X133842976Y-96059523D01*
X133842976Y-95678571D01*
X133795357Y-95583333D01*
X133700119Y-95535714D01*
X133509642Y-95535714D01*
X133414404Y-95583333D01*
X133366785Y-95678571D01*
X133366785Y-95773809D01*
X133842976Y-95869047D01*
X133033452Y-95535714D02*
X132795357Y-96202380D01*
X132557261Y-95535714D01*
X130842976Y-96107142D02*
X130890595Y-96154761D01*
X131033452Y-96202380D01*
X131128690Y-96202380D01*
X131271547Y-96154761D01*
X131366785Y-96059523D01*
X131414404Y-95964285D01*
X131462023Y-95773809D01*
X131462023Y-95630952D01*
X131414404Y-95440476D01*
X131366785Y-95345238D01*
X131271547Y-95250000D01*
X131128690Y-95202380D01*
X131033452Y-95202380D01*
X130890595Y-95250000D01*
X130842976Y-95297619D01*
X129700119Y-95297619D02*
X129652500Y-95250000D01*
X129557261Y-95202380D01*
X129319166Y-95202380D01*
X129223928Y-95250000D01*
X129176309Y-95297619D01*
X129128690Y-95392857D01*
X129128690Y-95488095D01*
X129176309Y-95630952D01*
X129747738Y-96202380D01*
X129128690Y-96202380D01*
X128509642Y-95202380D02*
X128414404Y-95202380D01*
X128319166Y-95250000D01*
X128271547Y-95297619D01*
X128223928Y-95392857D01*
X128176309Y-95583333D01*
X128176309Y-95821428D01*
X128223928Y-96011904D01*
X128271547Y-96107142D01*
X128319166Y-96154761D01*
X128414404Y-96202380D01*
X128509642Y-96202380D01*
X128604880Y-96154761D01*
X128652500Y-96107142D01*
X128700119Y-96011904D01*
X128747738Y-95821428D01*
X128747738Y-95583333D01*
X128700119Y-95392857D01*
X128652500Y-95297619D01*
X128604880Y-95250000D01*
X128509642Y-95202380D01*
X127795357Y-95297619D02*
X127747738Y-95250000D01*
X127652500Y-95202380D01*
X127414404Y-95202380D01*
X127319166Y-95250000D01*
X127271547Y-95297619D01*
X127223928Y-95392857D01*
X127223928Y-95488095D01*
X127271547Y-95630952D01*
X127842976Y-96202380D01*
X127223928Y-96202380D01*
X126842976Y-95297619D02*
X126795357Y-95250000D01*
X126700119Y-95202380D01*
X126462023Y-95202380D01*
X126366785Y-95250000D01*
X126319166Y-95297619D01*
X126271547Y-95392857D01*
X126271547Y-95488095D01*
X126319166Y-95630952D01*
X126890595Y-96202380D01*
X126271547Y-96202380D01*
X125842976Y-95821428D02*
X125081071Y-95821428D01*
X124414404Y-95202380D02*
X124319166Y-95202380D01*
X124223928Y-95250000D01*
X124176309Y-95297619D01*
X124128690Y-95392857D01*
X124081071Y-95583333D01*
X124081071Y-95821428D01*
X124128690Y-96011904D01*
X124176309Y-96107142D01*
X124223928Y-96154761D01*
X124319166Y-96202380D01*
X124414404Y-96202380D01*
X124509642Y-96154761D01*
X124557261Y-96107142D01*
X124604880Y-96011904D01*
X124652500Y-95821428D01*
X124652500Y-95583333D01*
X124604880Y-95392857D01*
X124557261Y-95297619D01*
X124509642Y-95250000D01*
X124414404Y-95202380D01*
X123128690Y-96202380D02*
X123700119Y-96202380D01*
X123414404Y-96202380D02*
X123414404Y-95202380D01*
X123509642Y-95345238D01*
X123604880Y-95440476D01*
X123700119Y-95488095D01*
X122700119Y-95821428D02*
X121938214Y-95821428D01*
X120938214Y-96202380D02*
X121509642Y-96202380D01*
X121223928Y-96202380D02*
X121223928Y-95202380D01*
X121319166Y-95345238D01*
X121414404Y-95440476D01*
X121509642Y-95488095D01*
X120462023Y-96202380D02*
X120271547Y-96202380D01*
X120176309Y-96154761D01*
X120128690Y-96107142D01*
X120033452Y-95964285D01*
X119985833Y-95773809D01*
X119985833Y-95392857D01*
X120033452Y-95297619D01*
X120081071Y-95250000D01*
X120176309Y-95202380D01*
X120366785Y-95202380D01*
X120462023Y-95250000D01*
X120509642Y-95297619D01*
X120557261Y-95392857D01*
X120557261Y-95630952D01*
X120509642Y-95726190D01*
X120462023Y-95773809D01*
X120366785Y-95821428D01*
X120176309Y-95821428D01*
X120081071Y-95773809D01*
X120033452Y-95726190D01*
X119985833Y-95630952D01*
D13*
%TO.C,TP1*%
X113950000Y-110700000D02*
X113950000Y-109300000D01*
X112550000Y-110700000D02*
X113950000Y-110700000D01*
X112550000Y-109300000D02*
X112550000Y-110700000D01*
X113950000Y-109300000D02*
X112550000Y-109300000D01*
%TO.C,TP2*%
X114550000Y-110700000D02*
X115950000Y-110700000D01*
X115950000Y-110700000D02*
X115950000Y-109300000D01*
X115950000Y-109300000D02*
X114550000Y-109300000D01*
X114550000Y-109300000D02*
X114550000Y-110700000D01*
%TO.C,TP3*%
X110550000Y-110700000D02*
X111950000Y-110700000D01*
X111950000Y-109300000D02*
X110550000Y-109300000D01*
X111950000Y-110700000D02*
X111950000Y-109300000D01*
X110550000Y-109300000D02*
X110550000Y-110700000D01*
%TO.C,TP4*%
X117950000Y-109300000D02*
X116550000Y-109300000D01*
X116550000Y-109300000D02*
X116550000Y-110700000D01*
X117950000Y-110700000D02*
X117950000Y-109300000D01*
X116550000Y-110700000D02*
X117950000Y-110700000D01*
%TO.C,TP5*%
X109950000Y-109300000D02*
X108550000Y-109300000D01*
X108550000Y-109300000D02*
X108550000Y-110700000D01*
X108550000Y-110700000D02*
X109950000Y-110700000D01*
X109950000Y-110700000D02*
X109950000Y-109300000D01*
%TO.C,TP6*%
X119950000Y-109300000D02*
X118550000Y-109300000D01*
X118550000Y-110700000D02*
X119950000Y-110700000D01*
X118550000Y-109300000D02*
X118550000Y-110700000D01*
X119950000Y-110700000D02*
X119950000Y-109300000D01*
%TD*%
M02*
