%TF.GenerationSoftware,KiCad,Pcbnew,(5.1.9)-1*%
%TF.CreationDate,2021-12-06T20:25:47-06:00*%
%TF.ProjectId,microkfd,6d696372-6f6b-4666-942e-6b696361645f,A*%
%TF.SameCoordinates,Original*%
%TF.FileFunction,Paste,Top*%
%TF.FilePolarity,Positive*%
%FSLAX46Y46*%
G04 Gerber Fmt 4.6, Leading zero omitted, Abs format (unit mm)*
G04 Created by KiCad (PCBNEW (5.1.9)-1) date 2021-12-06 20:25:47*
%MOMM*%
%LPD*%
G01*
G04 APERTURE LIST*
%ADD10R,1.300000X0.450000*%
%ADD11R,1.500000X0.550000*%
%ADD12R,0.550000X1.500000*%
%ADD13R,2.200000X2.800000*%
%ADD14R,2.800000X2.800000*%
%ADD15R,1.900000X1.000000*%
%ADD16R,0.800000X1.900000*%
%ADD17R,0.900000X1.000000*%
%ADD18R,1.450000X1.000000*%
%ADD19R,0.450000X0.300000*%
%ADD20R,2.100000X1.800000*%
G04 APERTURE END LIST*
D10*
%TO.C,J1*%
X96400000Y-98700000D03*
X96400000Y-99350000D03*
X96400000Y-100000000D03*
X96400000Y-100650000D03*
X96400000Y-101300000D03*
%TD*%
D11*
%TO.C,U2*%
X109300000Y-96000000D03*
X109300000Y-96800000D03*
X109300000Y-97600000D03*
X109300000Y-98400000D03*
X109300000Y-99200000D03*
X109300000Y-100000000D03*
X109300000Y-100800000D03*
X109300000Y-101600000D03*
X109300000Y-102400000D03*
X109300000Y-103200000D03*
X109300000Y-104000000D03*
D12*
X111000000Y-105700000D03*
X111800000Y-105700000D03*
X112600000Y-105700000D03*
X113400000Y-105700000D03*
X114200000Y-105700000D03*
X115000000Y-105700000D03*
X115800000Y-105700000D03*
X116600000Y-105700000D03*
X117400000Y-105700000D03*
X118200000Y-105700000D03*
X119000000Y-105700000D03*
D11*
X120700000Y-104000000D03*
X120700000Y-103200000D03*
X120700000Y-102400000D03*
X120700000Y-101600000D03*
X120700000Y-100800000D03*
X120700000Y-100000000D03*
X120700000Y-99200000D03*
X120700000Y-98400000D03*
X120700000Y-97600000D03*
X120700000Y-96800000D03*
X120700000Y-96000000D03*
D12*
X119000000Y-94300000D03*
X118200000Y-94300000D03*
X117400000Y-94300000D03*
X116600000Y-94300000D03*
X115800000Y-94300000D03*
X115000000Y-94300000D03*
X114200000Y-94300000D03*
X113400000Y-94300000D03*
X112600000Y-94300000D03*
X111800000Y-94300000D03*
X111000000Y-94300000D03*
%TD*%
%TO.C,C1*%
G36*
G01*
X119725000Y-109550000D02*
X118775000Y-109550000D01*
G75*
G02*
X118525000Y-109300000I0J250000D01*
G01*
X118525000Y-108625000D01*
G75*
G02*
X118775000Y-108375000I250000J0D01*
G01*
X119725000Y-108375000D01*
G75*
G02*
X119975000Y-108625000I0J-250000D01*
G01*
X119975000Y-109300000D01*
G75*
G02*
X119725000Y-109550000I-250000J0D01*
G01*
G37*
G36*
G01*
X119725000Y-111625000D02*
X118775000Y-111625000D01*
G75*
G02*
X118525000Y-111375000I0J250000D01*
G01*
X118525000Y-110700000D01*
G75*
G02*
X118775000Y-110450000I250000J0D01*
G01*
X119725000Y-110450000D01*
G75*
G02*
X119975000Y-110700000I0J-250000D01*
G01*
X119975000Y-111375000D01*
G75*
G02*
X119725000Y-111625000I-250000J0D01*
G01*
G37*
%TD*%
%TO.C,C2*%
G36*
G01*
X110275000Y-110450000D02*
X111225000Y-110450000D01*
G75*
G02*
X111475000Y-110700000I0J-250000D01*
G01*
X111475000Y-111375000D01*
G75*
G02*
X111225000Y-111625000I-250000J0D01*
G01*
X110275000Y-111625000D01*
G75*
G02*
X110025000Y-111375000I0J250000D01*
G01*
X110025000Y-110700000D01*
G75*
G02*
X110275000Y-110450000I250000J0D01*
G01*
G37*
G36*
G01*
X110275000Y-108375000D02*
X111225000Y-108375000D01*
G75*
G02*
X111475000Y-108625000I0J-250000D01*
G01*
X111475000Y-109300000D01*
G75*
G02*
X111225000Y-109550000I-250000J0D01*
G01*
X110275000Y-109550000D01*
G75*
G02*
X110025000Y-109300000I0J250000D01*
G01*
X110025000Y-108625000D01*
G75*
G02*
X110275000Y-108375000I250000J0D01*
G01*
G37*
%TD*%
%TO.C,C3*%
G36*
G01*
X106525000Y-102875000D02*
X107475000Y-102875000D01*
G75*
G02*
X107725000Y-103125000I0J-250000D01*
G01*
X107725000Y-103800000D01*
G75*
G02*
X107475000Y-104050000I-250000J0D01*
G01*
X106525000Y-104050000D01*
G75*
G02*
X106275000Y-103800000I0J250000D01*
G01*
X106275000Y-103125000D01*
G75*
G02*
X106525000Y-102875000I250000J0D01*
G01*
G37*
G36*
G01*
X106525000Y-104950000D02*
X107475000Y-104950000D01*
G75*
G02*
X107725000Y-105200000I0J-250000D01*
G01*
X107725000Y-105875000D01*
G75*
G02*
X107475000Y-106125000I-250000J0D01*
G01*
X106525000Y-106125000D01*
G75*
G02*
X106275000Y-105875000I0J250000D01*
G01*
X106275000Y-105200000D01*
G75*
G02*
X106525000Y-104950000I250000J0D01*
G01*
G37*
%TD*%
%TO.C,C4*%
G36*
G01*
X97375000Y-89975000D02*
X97375000Y-89025000D01*
G75*
G02*
X97625000Y-88775000I250000J0D01*
G01*
X98300000Y-88775000D01*
G75*
G02*
X98550000Y-89025000I0J-250000D01*
G01*
X98550000Y-89975000D01*
G75*
G02*
X98300000Y-90225000I-250000J0D01*
G01*
X97625000Y-90225000D01*
G75*
G02*
X97375000Y-89975000I0J250000D01*
G01*
G37*
G36*
G01*
X99450000Y-89975000D02*
X99450000Y-89025000D01*
G75*
G02*
X99700000Y-88775000I250000J0D01*
G01*
X100375000Y-88775000D01*
G75*
G02*
X100625000Y-89025000I0J-250000D01*
G01*
X100625000Y-89975000D01*
G75*
G02*
X100375000Y-90225000I-250000J0D01*
G01*
X99700000Y-90225000D01*
G75*
G02*
X99450000Y-89975000I0J250000D01*
G01*
G37*
%TD*%
%TO.C,C5*%
G36*
G01*
X127975000Y-111375000D02*
X127025000Y-111375000D01*
G75*
G02*
X126775000Y-111125000I0J250000D01*
G01*
X126775000Y-110450000D01*
G75*
G02*
X127025000Y-110200000I250000J0D01*
G01*
X127975000Y-110200000D01*
G75*
G02*
X128225000Y-110450000I0J-250000D01*
G01*
X128225000Y-111125000D01*
G75*
G02*
X127975000Y-111375000I-250000J0D01*
G01*
G37*
G36*
G01*
X127975000Y-109300000D02*
X127025000Y-109300000D01*
G75*
G02*
X126775000Y-109050000I0J250000D01*
G01*
X126775000Y-108375000D01*
G75*
G02*
X127025000Y-108125000I250000J0D01*
G01*
X127975000Y-108125000D01*
G75*
G02*
X128225000Y-108375000I0J-250000D01*
G01*
X128225000Y-109050000D01*
G75*
G02*
X127975000Y-109300000I-250000J0D01*
G01*
G37*
%TD*%
%TO.C,C6*%
G36*
G01*
X99450000Y-92225000D02*
X99450000Y-91275000D01*
G75*
G02*
X99700000Y-91025000I250000J0D01*
G01*
X100375000Y-91025000D01*
G75*
G02*
X100625000Y-91275000I0J-250000D01*
G01*
X100625000Y-92225000D01*
G75*
G02*
X100375000Y-92475000I-250000J0D01*
G01*
X99700000Y-92475000D01*
G75*
G02*
X99450000Y-92225000I0J250000D01*
G01*
G37*
G36*
G01*
X97375000Y-92225000D02*
X97375000Y-91275000D01*
G75*
G02*
X97625000Y-91025000I250000J0D01*
G01*
X98300000Y-91025000D01*
G75*
G02*
X98550000Y-91275000I0J-250000D01*
G01*
X98550000Y-92225000D01*
G75*
G02*
X98300000Y-92475000I-250000J0D01*
G01*
X97625000Y-92475000D01*
G75*
G02*
X97375000Y-92225000I0J250000D01*
G01*
G37*
%TD*%
%TO.C,D1*%
G36*
G01*
X136400000Y-95450001D02*
X136400000Y-94549999D01*
G75*
G02*
X136649999Y-94300000I249999J0D01*
G01*
X137300001Y-94300000D01*
G75*
G02*
X137550000Y-94549999I0J-249999D01*
G01*
X137550000Y-95450001D01*
G75*
G02*
X137300001Y-95700000I-249999J0D01*
G01*
X136649999Y-95700000D01*
G75*
G02*
X136400000Y-95450001I0J249999D01*
G01*
G37*
G36*
G01*
X138450000Y-95450001D02*
X138450000Y-94549999D01*
G75*
G02*
X138699999Y-94300000I249999J0D01*
G01*
X139350001Y-94300000D01*
G75*
G02*
X139600000Y-94549999I0J-249999D01*
G01*
X139600000Y-95450001D01*
G75*
G02*
X139350001Y-95700000I-249999J0D01*
G01*
X138699999Y-95700000D01*
G75*
G02*
X138450000Y-95450001I0J249999D01*
G01*
G37*
%TD*%
%TO.C,D2*%
G36*
G01*
X139350000Y-105049999D02*
X139350000Y-105950001D01*
G75*
G02*
X139100001Y-106200000I-249999J0D01*
G01*
X138449999Y-106200000D01*
G75*
G02*
X138200000Y-105950001I0J249999D01*
G01*
X138200000Y-105049999D01*
G75*
G02*
X138449999Y-104800000I249999J0D01*
G01*
X139100001Y-104800000D01*
G75*
G02*
X139350000Y-105049999I0J-249999D01*
G01*
G37*
G36*
G01*
X137300000Y-105049999D02*
X137300000Y-105950001D01*
G75*
G02*
X137050001Y-106200000I-249999J0D01*
G01*
X136399999Y-106200000D01*
G75*
G02*
X136150000Y-105950001I0J249999D01*
G01*
X136150000Y-105049999D01*
G75*
G02*
X136399999Y-104800000I249999J0D01*
G01*
X137050001Y-104800000D01*
G75*
G02*
X137300000Y-105049999I0J-249999D01*
G01*
G37*
%TD*%
%TO.C,D3*%
G36*
G01*
X92799999Y-110200000D02*
X93700001Y-110200000D01*
G75*
G02*
X93950000Y-110449999I0J-249999D01*
G01*
X93950000Y-111100001D01*
G75*
G02*
X93700001Y-111350000I-249999J0D01*
G01*
X92799999Y-111350000D01*
G75*
G02*
X92550000Y-111100001I0J249999D01*
G01*
X92550000Y-110449999D01*
G75*
G02*
X92799999Y-110200000I249999J0D01*
G01*
G37*
G36*
G01*
X92799999Y-108150000D02*
X93700001Y-108150000D01*
G75*
G02*
X93950000Y-108399999I0J-249999D01*
G01*
X93950000Y-109050001D01*
G75*
G02*
X93700001Y-109300000I-249999J0D01*
G01*
X92799999Y-109300000D01*
G75*
G02*
X92550000Y-109050001I0J249999D01*
G01*
X92550000Y-108399999D01*
G75*
G02*
X92799999Y-108150000I249999J0D01*
G01*
G37*
%TD*%
%TO.C,D4*%
G36*
G01*
X134450001Y-111325000D02*
X133549999Y-111325000D01*
G75*
G02*
X133300000Y-111075001I0J249999D01*
G01*
X133300000Y-110424999D01*
G75*
G02*
X133549999Y-110175000I249999J0D01*
G01*
X134450001Y-110175000D01*
G75*
G02*
X134700000Y-110424999I0J-249999D01*
G01*
X134700000Y-111075001D01*
G75*
G02*
X134450001Y-111325000I-249999J0D01*
G01*
G37*
G36*
G01*
X134450001Y-109275000D02*
X133549999Y-109275000D01*
G75*
G02*
X133300000Y-109025001I0J249999D01*
G01*
X133300000Y-108374999D01*
G75*
G02*
X133549999Y-108125000I249999J0D01*
G01*
X134450001Y-108125000D01*
G75*
G02*
X134700000Y-108374999I0J-249999D01*
G01*
X134700000Y-109025001D01*
G75*
G02*
X134450001Y-109275000I-249999J0D01*
G01*
G37*
%TD*%
%TO.C,D5*%
G36*
G01*
X140450001Y-109300000D02*
X139549999Y-109300000D01*
G75*
G02*
X139300000Y-109050001I0J249999D01*
G01*
X139300000Y-108399999D01*
G75*
G02*
X139549999Y-108150000I249999J0D01*
G01*
X140450001Y-108150000D01*
G75*
G02*
X140700000Y-108399999I0J-249999D01*
G01*
X140700000Y-109050001D01*
G75*
G02*
X140450001Y-109300000I-249999J0D01*
G01*
G37*
G36*
G01*
X140450001Y-111350000D02*
X139549999Y-111350000D01*
G75*
G02*
X139300000Y-111100001I0J249999D01*
G01*
X139300000Y-110449999D01*
G75*
G02*
X139549999Y-110200000I249999J0D01*
G01*
X140450001Y-110200000D01*
G75*
G02*
X140700000Y-110449999I0J-249999D01*
G01*
X140700000Y-111100001D01*
G75*
G02*
X140450001Y-111350000I-249999J0D01*
G01*
G37*
%TD*%
%TO.C,F1*%
G36*
G01*
X94049999Y-88900000D02*
X94950001Y-88900000D01*
G75*
G02*
X95200000Y-89149999I0J-249999D01*
G01*
X95200000Y-89800001D01*
G75*
G02*
X94950001Y-90050000I-249999J0D01*
G01*
X94049999Y-90050000D01*
G75*
G02*
X93800000Y-89800001I0J249999D01*
G01*
X93800000Y-89149999D01*
G75*
G02*
X94049999Y-88900000I249999J0D01*
G01*
G37*
G36*
G01*
X94049999Y-90950000D02*
X94950001Y-90950000D01*
G75*
G02*
X95200000Y-91199999I0J-249999D01*
G01*
X95200000Y-91850001D01*
G75*
G02*
X94950001Y-92100000I-249999J0D01*
G01*
X94049999Y-92100000D01*
G75*
G02*
X93800000Y-91850001I0J249999D01*
G01*
X93800000Y-91199999D01*
G75*
G02*
X94049999Y-90950000I249999J0D01*
G01*
G37*
%TD*%
D13*
%TO.C,J2*%
X141600000Y-103700000D03*
X143600000Y-96300000D03*
D14*
X134200000Y-96300000D03*
%TD*%
D15*
%TO.C,J3*%
X104150000Y-103810000D03*
X104150000Y-98730000D03*
X100850000Y-101270000D03*
X100850000Y-96190000D03*
%TD*%
D16*
%TO.C,Q1*%
X125550000Y-97500000D03*
X127450000Y-97500000D03*
X126500000Y-94500000D03*
%TD*%
%TO.C,Q2*%
X126500000Y-102500000D03*
X127450000Y-105500000D03*
X125550000Y-105500000D03*
%TD*%
%TO.C,R1*%
G36*
G01*
X106549999Y-98900000D02*
X107450001Y-98900000D01*
G75*
G02*
X107700000Y-99149999I0J-249999D01*
G01*
X107700000Y-99850001D01*
G75*
G02*
X107450001Y-100100000I-249999J0D01*
G01*
X106549999Y-100100000D01*
G75*
G02*
X106300000Y-99850001I0J249999D01*
G01*
X106300000Y-99149999D01*
G75*
G02*
X106549999Y-98900000I249999J0D01*
G01*
G37*
G36*
G01*
X106549999Y-100900000D02*
X107450001Y-100900000D01*
G75*
G02*
X107700000Y-101149999I0J-249999D01*
G01*
X107700000Y-101850001D01*
G75*
G02*
X107450001Y-102100000I-249999J0D01*
G01*
X106549999Y-102100000D01*
G75*
G02*
X106300000Y-101850001I0J249999D01*
G01*
X106300000Y-101149999D01*
G75*
G02*
X106549999Y-100900000I249999J0D01*
G01*
G37*
%TD*%
%TO.C,R2*%
G36*
G01*
X106549999Y-96900000D02*
X107450001Y-96900000D01*
G75*
G02*
X107700000Y-97149999I0J-249999D01*
G01*
X107700000Y-97850001D01*
G75*
G02*
X107450001Y-98100000I-249999J0D01*
G01*
X106549999Y-98100000D01*
G75*
G02*
X106300000Y-97850001I0J249999D01*
G01*
X106300000Y-97149999D01*
G75*
G02*
X106549999Y-96900000I249999J0D01*
G01*
G37*
G36*
G01*
X106549999Y-94900000D02*
X107450001Y-94900000D01*
G75*
G02*
X107700000Y-95149999I0J-249999D01*
G01*
X107700000Y-95850001D01*
G75*
G02*
X107450001Y-96100000I-249999J0D01*
G01*
X106549999Y-96100000D01*
G75*
G02*
X106300000Y-95850001I0J249999D01*
G01*
X106300000Y-95149999D01*
G75*
G02*
X106549999Y-94900000I249999J0D01*
G01*
G37*
%TD*%
%TO.C,R3*%
G36*
G01*
X102200001Y-109350000D02*
X101299999Y-109350000D01*
G75*
G02*
X101050000Y-109100001I0J249999D01*
G01*
X101050000Y-108399999D01*
G75*
G02*
X101299999Y-108150000I249999J0D01*
G01*
X102200001Y-108150000D01*
G75*
G02*
X102450000Y-108399999I0J-249999D01*
G01*
X102450000Y-109100001D01*
G75*
G02*
X102200001Y-109350000I-249999J0D01*
G01*
G37*
G36*
G01*
X102200001Y-111350000D02*
X101299999Y-111350000D01*
G75*
G02*
X101050000Y-111100001I0J249999D01*
G01*
X101050000Y-110399999D01*
G75*
G02*
X101299999Y-110150000I249999J0D01*
G01*
X102200001Y-110150000D01*
G75*
G02*
X102450000Y-110399999I0J-249999D01*
G01*
X102450000Y-111100001D01*
G75*
G02*
X102200001Y-111350000I-249999J0D01*
G01*
G37*
%TD*%
%TO.C,R4*%
G36*
G01*
X122400000Y-111200001D02*
X122400000Y-110299999D01*
G75*
G02*
X122649999Y-110050000I249999J0D01*
G01*
X123350001Y-110050000D01*
G75*
G02*
X123600000Y-110299999I0J-249999D01*
G01*
X123600000Y-111200001D01*
G75*
G02*
X123350001Y-111450000I-249999J0D01*
G01*
X122649999Y-111450000D01*
G75*
G02*
X122400000Y-111200001I0J249999D01*
G01*
G37*
G36*
G01*
X124400000Y-111200001D02*
X124400000Y-110299999D01*
G75*
G02*
X124649999Y-110050000I249999J0D01*
G01*
X125350001Y-110050000D01*
G75*
G02*
X125600000Y-110299999I0J-249999D01*
G01*
X125600000Y-111200001D01*
G75*
G02*
X125350001Y-111450000I-249999J0D01*
G01*
X124649999Y-111450000D01*
G75*
G02*
X124400000Y-111200001I0J249999D01*
G01*
G37*
%TD*%
%TO.C,R5*%
G36*
G01*
X105450001Y-89100000D02*
X104549999Y-89100000D01*
G75*
G02*
X104300000Y-88850001I0J249999D01*
G01*
X104300000Y-88149999D01*
G75*
G02*
X104549999Y-87900000I249999J0D01*
G01*
X105450001Y-87900000D01*
G75*
G02*
X105700000Y-88149999I0J-249999D01*
G01*
X105700000Y-88850001D01*
G75*
G02*
X105450001Y-89100000I-249999J0D01*
G01*
G37*
G36*
G01*
X105450001Y-91100000D02*
X104549999Y-91100000D01*
G75*
G02*
X104300000Y-90850001I0J249999D01*
G01*
X104300000Y-90149999D01*
G75*
G02*
X104549999Y-89900000I249999J0D01*
G01*
X105450001Y-89900000D01*
G75*
G02*
X105700000Y-90149999I0J-249999D01*
G01*
X105700000Y-90850001D01*
G75*
G02*
X105450001Y-91100000I-249999J0D01*
G01*
G37*
%TD*%
%TO.C,R6*%
G36*
G01*
X122400000Y-108950001D02*
X122400000Y-108049999D01*
G75*
G02*
X122649999Y-107800000I249999J0D01*
G01*
X123350001Y-107800000D01*
G75*
G02*
X123600000Y-108049999I0J-249999D01*
G01*
X123600000Y-108950001D01*
G75*
G02*
X123350001Y-109200000I-249999J0D01*
G01*
X122649999Y-109200000D01*
G75*
G02*
X122400000Y-108950001I0J249999D01*
G01*
G37*
G36*
G01*
X124400000Y-108950001D02*
X124400000Y-108049999D01*
G75*
G02*
X124649999Y-107800000I249999J0D01*
G01*
X125350001Y-107800000D01*
G75*
G02*
X125600000Y-108049999I0J-249999D01*
G01*
X125600000Y-108950001D01*
G75*
G02*
X125350001Y-109200000I-249999J0D01*
G01*
X124649999Y-109200000D01*
G75*
G02*
X124400000Y-108950001I0J249999D01*
G01*
G37*
%TD*%
%TO.C,R7*%
G36*
G01*
X115450001Y-91100000D02*
X114549999Y-91100000D01*
G75*
G02*
X114300000Y-90850001I0J249999D01*
G01*
X114300000Y-90149999D01*
G75*
G02*
X114549999Y-89900000I249999J0D01*
G01*
X115450001Y-89900000D01*
G75*
G02*
X115700000Y-90149999I0J-249999D01*
G01*
X115700000Y-90850001D01*
G75*
G02*
X115450001Y-91100000I-249999J0D01*
G01*
G37*
G36*
G01*
X115450001Y-89100000D02*
X114549999Y-89100000D01*
G75*
G02*
X114300000Y-88850001I0J249999D01*
G01*
X114300000Y-88149999D01*
G75*
G02*
X114549999Y-87900000I249999J0D01*
G01*
X115450001Y-87900000D01*
G75*
G02*
X115700000Y-88149999I0J-249999D01*
G01*
X115700000Y-88850001D01*
G75*
G02*
X115450001Y-89100000I-249999J0D01*
G01*
G37*
%TD*%
%TO.C,R8*%
G36*
G01*
X123700001Y-96350000D02*
X122799999Y-96350000D01*
G75*
G02*
X122550000Y-96100001I0J249999D01*
G01*
X122550000Y-95399999D01*
G75*
G02*
X122799999Y-95150000I249999J0D01*
G01*
X123700001Y-95150000D01*
G75*
G02*
X123950000Y-95399999I0J-249999D01*
G01*
X123950000Y-96100001D01*
G75*
G02*
X123700001Y-96350000I-249999J0D01*
G01*
G37*
G36*
G01*
X123700001Y-98350000D02*
X122799999Y-98350000D01*
G75*
G02*
X122550000Y-98100001I0J249999D01*
G01*
X122550000Y-97399999D01*
G75*
G02*
X122799999Y-97150000I249999J0D01*
G01*
X123700001Y-97150000D01*
G75*
G02*
X123950000Y-97399999I0J-249999D01*
G01*
X123950000Y-98100001D01*
G75*
G02*
X123700001Y-98350000I-249999J0D01*
G01*
G37*
%TD*%
%TO.C,R9*%
G36*
G01*
X123700001Y-106350000D02*
X122799999Y-106350000D01*
G75*
G02*
X122550000Y-106100001I0J249999D01*
G01*
X122550000Y-105399999D01*
G75*
G02*
X122799999Y-105150000I249999J0D01*
G01*
X123700001Y-105150000D01*
G75*
G02*
X123950000Y-105399999I0J-249999D01*
G01*
X123950000Y-106100001D01*
G75*
G02*
X123700001Y-106350000I-249999J0D01*
G01*
G37*
G36*
G01*
X123700001Y-104350000D02*
X122799999Y-104350000D01*
G75*
G02*
X122550000Y-104100001I0J249999D01*
G01*
X122550000Y-103399999D01*
G75*
G02*
X122799999Y-103150000I249999J0D01*
G01*
X123700001Y-103150000D01*
G75*
G02*
X123950000Y-103399999I0J-249999D01*
G01*
X123950000Y-104100001D01*
G75*
G02*
X123700001Y-104350000I-249999J0D01*
G01*
G37*
%TD*%
%TO.C,R10*%
G36*
G01*
X129299999Y-95150000D02*
X130200001Y-95150000D01*
G75*
G02*
X130450000Y-95399999I0J-249999D01*
G01*
X130450000Y-96100001D01*
G75*
G02*
X130200001Y-96350000I-249999J0D01*
G01*
X129299999Y-96350000D01*
G75*
G02*
X129050000Y-96100001I0J249999D01*
G01*
X129050000Y-95399999D01*
G75*
G02*
X129299999Y-95150000I249999J0D01*
G01*
G37*
G36*
G01*
X129299999Y-97150000D02*
X130200001Y-97150000D01*
G75*
G02*
X130450000Y-97399999I0J-249999D01*
G01*
X130450000Y-98100001D01*
G75*
G02*
X130200001Y-98350000I-249999J0D01*
G01*
X129299999Y-98350000D01*
G75*
G02*
X129050000Y-98100001I0J249999D01*
G01*
X129050000Y-97399999D01*
G75*
G02*
X129299999Y-97150000I249999J0D01*
G01*
G37*
%TD*%
%TO.C,R11*%
G36*
G01*
X130200001Y-106350000D02*
X129299999Y-106350000D01*
G75*
G02*
X129050000Y-106100001I0J249999D01*
G01*
X129050000Y-105399999D01*
G75*
G02*
X129299999Y-105150000I249999J0D01*
G01*
X130200001Y-105150000D01*
G75*
G02*
X130450000Y-105399999I0J-249999D01*
G01*
X130450000Y-106100001D01*
G75*
G02*
X130200001Y-106350000I-249999J0D01*
G01*
G37*
G36*
G01*
X130200001Y-104350000D02*
X129299999Y-104350000D01*
G75*
G02*
X129050000Y-104100001I0J249999D01*
G01*
X129050000Y-103399999D01*
G75*
G02*
X129299999Y-103150000I249999J0D01*
G01*
X130200001Y-103150000D01*
G75*
G02*
X130450000Y-103399999I0J-249999D01*
G01*
X130450000Y-104100001D01*
G75*
G02*
X130200001Y-104350000I-249999J0D01*
G01*
G37*
%TD*%
%TO.C,R12*%
G36*
G01*
X125450001Y-89100000D02*
X124549999Y-89100000D01*
G75*
G02*
X124300000Y-88850001I0J249999D01*
G01*
X124300000Y-88149999D01*
G75*
G02*
X124549999Y-87900000I249999J0D01*
G01*
X125450001Y-87900000D01*
G75*
G02*
X125700000Y-88149999I0J-249999D01*
G01*
X125700000Y-88850001D01*
G75*
G02*
X125450001Y-89100000I-249999J0D01*
G01*
G37*
G36*
G01*
X125450001Y-91100000D02*
X124549999Y-91100000D01*
G75*
G02*
X124300000Y-90850001I0J249999D01*
G01*
X124300000Y-90149999D01*
G75*
G02*
X124549999Y-89900000I249999J0D01*
G01*
X125450001Y-89900000D01*
G75*
G02*
X125700000Y-90149999I0J-249999D01*
G01*
X125700000Y-90850001D01*
G75*
G02*
X125450001Y-91100000I-249999J0D01*
G01*
G37*
%TD*%
%TO.C,R13*%
G36*
G01*
X131400000Y-93700001D02*
X131400000Y-92799999D01*
G75*
G02*
X131649999Y-92550000I249999J0D01*
G01*
X132350001Y-92550000D01*
G75*
G02*
X132600000Y-92799999I0J-249999D01*
G01*
X132600000Y-93700001D01*
G75*
G02*
X132350001Y-93950000I-249999J0D01*
G01*
X131649999Y-93950000D01*
G75*
G02*
X131400000Y-93700001I0J249999D01*
G01*
G37*
G36*
G01*
X133400000Y-93700001D02*
X133400000Y-92799999D01*
G75*
G02*
X133649999Y-92550000I249999J0D01*
G01*
X134350001Y-92550000D01*
G75*
G02*
X134600000Y-92799999I0J-249999D01*
G01*
X134600000Y-93700001D01*
G75*
G02*
X134350001Y-93950000I-249999J0D01*
G01*
X133649999Y-93950000D01*
G75*
G02*
X133400000Y-93700001I0J249999D01*
G01*
G37*
%TD*%
%TO.C,R14*%
G36*
G01*
X133650000Y-105950001D02*
X133650000Y-105049999D01*
G75*
G02*
X133899999Y-104800000I249999J0D01*
G01*
X134600001Y-104800000D01*
G75*
G02*
X134850000Y-105049999I0J-249999D01*
G01*
X134850000Y-105950001D01*
G75*
G02*
X134600001Y-106200000I-249999J0D01*
G01*
X133899999Y-106200000D01*
G75*
G02*
X133650000Y-105950001I0J249999D01*
G01*
G37*
G36*
G01*
X131650000Y-105950001D02*
X131650000Y-105049999D01*
G75*
G02*
X131899999Y-104800000I249999J0D01*
G01*
X132600001Y-104800000D01*
G75*
G02*
X132850000Y-105049999I0J-249999D01*
G01*
X132850000Y-105950001D01*
G75*
G02*
X132600001Y-106200000I-249999J0D01*
G01*
X131899999Y-106200000D01*
G75*
G02*
X131650000Y-105950001I0J249999D01*
G01*
G37*
%TD*%
%TO.C,R15*%
G36*
G01*
X95549999Y-110150000D02*
X96450001Y-110150000D01*
G75*
G02*
X96700000Y-110399999I0J-249999D01*
G01*
X96700000Y-111100001D01*
G75*
G02*
X96450001Y-111350000I-249999J0D01*
G01*
X95549999Y-111350000D01*
G75*
G02*
X95300000Y-111100001I0J249999D01*
G01*
X95300000Y-110399999D01*
G75*
G02*
X95549999Y-110150000I249999J0D01*
G01*
G37*
G36*
G01*
X95549999Y-108150000D02*
X96450001Y-108150000D01*
G75*
G02*
X96700000Y-108399999I0J-249999D01*
G01*
X96700000Y-109100001D01*
G75*
G02*
X96450001Y-109350000I-249999J0D01*
G01*
X95549999Y-109350000D01*
G75*
G02*
X95300000Y-109100001I0J249999D01*
G01*
X95300000Y-108399999D01*
G75*
G02*
X95549999Y-108150000I249999J0D01*
G01*
G37*
%TD*%
%TO.C,R16*%
G36*
G01*
X130549999Y-108150000D02*
X131450001Y-108150000D01*
G75*
G02*
X131700000Y-108399999I0J-249999D01*
G01*
X131700000Y-109100001D01*
G75*
G02*
X131450001Y-109350000I-249999J0D01*
G01*
X130549999Y-109350000D01*
G75*
G02*
X130300000Y-109100001I0J249999D01*
G01*
X130300000Y-108399999D01*
G75*
G02*
X130549999Y-108150000I249999J0D01*
G01*
G37*
G36*
G01*
X130549999Y-110150000D02*
X131450001Y-110150000D01*
G75*
G02*
X131700000Y-110399999I0J-249999D01*
G01*
X131700000Y-111100001D01*
G75*
G02*
X131450001Y-111350000I-249999J0D01*
G01*
X130549999Y-111350000D01*
G75*
G02*
X130300000Y-111100001I0J249999D01*
G01*
X130300000Y-110399999D01*
G75*
G02*
X130549999Y-110150000I249999J0D01*
G01*
G37*
%TD*%
%TO.C,R17*%
G36*
G01*
X136549999Y-110150000D02*
X137450001Y-110150000D01*
G75*
G02*
X137700000Y-110399999I0J-249999D01*
G01*
X137700000Y-111100001D01*
G75*
G02*
X137450001Y-111350000I-249999J0D01*
G01*
X136549999Y-111350000D01*
G75*
G02*
X136300000Y-111100001I0J249999D01*
G01*
X136300000Y-110399999D01*
G75*
G02*
X136549999Y-110150000I249999J0D01*
G01*
G37*
G36*
G01*
X136549999Y-108150000D02*
X137450001Y-108150000D01*
G75*
G02*
X137700000Y-108399999I0J-249999D01*
G01*
X137700000Y-109100001D01*
G75*
G02*
X137450001Y-109350000I-249999J0D01*
G01*
X136549999Y-109350000D01*
G75*
G02*
X136300000Y-109100001I0J249999D01*
G01*
X136300000Y-108399999D01*
G75*
G02*
X136549999Y-108150000I249999J0D01*
G01*
G37*
%TD*%
D17*
%TO.C,SW1*%
X108050000Y-110800000D03*
X108050000Y-109200000D03*
X103950000Y-110800000D03*
X103950000Y-109200000D03*
%TD*%
D18*
%TO.C,SW2*%
X112575000Y-90350000D03*
X107425000Y-90350000D03*
X107425000Y-88650000D03*
X112575000Y-88650000D03*
%TD*%
%TO.C,SW3*%
X122575000Y-88650000D03*
X117425000Y-88650000D03*
X117425000Y-90350000D03*
X122575000Y-90350000D03*
%TD*%
%TO.C,SW4*%
X132575000Y-90350000D03*
X127425000Y-90350000D03*
X127425000Y-88650000D03*
X132575000Y-88650000D03*
%TD*%
D19*
%TO.C,U1*%
X99700000Y-110250000D03*
X99700000Y-109250000D03*
X98300000Y-110250000D03*
X99700000Y-109750000D03*
X98300000Y-109250000D03*
%TD*%
D20*
%TO.C,Y1*%
X113550000Y-111200000D03*
X116450000Y-111200000D03*
X116450000Y-109000000D03*
X113550000Y-109000000D03*
%TD*%
M02*
