%TF.GenerationSoftware,KiCad,Pcbnew,(5.1.9)-1*%
%TF.CreationDate,2021-12-06T20:25:47-06:00*%
%TF.ProjectId,microkfd,6d696372-6f6b-4666-942e-6b696361645f,A*%
%TF.SameCoordinates,Original*%
%TF.FileFunction,Copper,L2,Bot*%
%TF.FilePolarity,Positive*%
%FSLAX46Y46*%
G04 Gerber Fmt 4.6, Leading zero omitted, Abs format (unit mm)*
G04 Created by KiCad (PCBNEW (5.1.9)-1) date 2021-12-06 20:25:47*
%MOMM*%
%LPD*%
G01*
G04 APERTURE LIST*
%TA.AperFunction,ComponentPad*%
%ADD10C,2.000000*%
%TD*%
%TA.AperFunction,ComponentPad*%
%ADD11C,1.800000*%
%TD*%
%TA.AperFunction,SMDPad,CuDef*%
%ADD12R,1.000000X1.000000*%
%TD*%
%TA.AperFunction,ViaPad*%
%ADD13C,0.600000*%
%TD*%
%TA.AperFunction,ViaPad*%
%ADD14C,0.800000*%
%TD*%
%TA.AperFunction,Conductor*%
%ADD15C,0.375000*%
%TD*%
%TA.AperFunction,Conductor*%
%ADD16C,0.500000*%
%TD*%
%TA.AperFunction,Conductor*%
%ADD17C,0.200000*%
%TD*%
%TA.AperFunction,Conductor*%
%ADD18C,0.100000*%
%TD*%
G04 APERTURE END LIST*
D10*
%TO.P,J1,6*%
%TO.N,GND*%
X96350000Y-96275000D03*
X96350000Y-103725000D03*
D11*
X92550000Y-96125000D03*
X92550000Y-103875000D03*
%TD*%
D12*
%TO.P,TP1,1*%
%TO.N,MOSI*%
X113250000Y-110000000D03*
%TD*%
%TO.P,TP2,1*%
%TO.N,SCK*%
X115250000Y-110000000D03*
%TD*%
%TO.P,TP3,1*%
%TO.N,MISO*%
X111250000Y-110000000D03*
%TD*%
%TO.P,TP4,1*%
%TO.N,RST*%
X117250000Y-110000000D03*
%TD*%
%TO.P,TP5,1*%
%TO.N,+5V*%
X109250000Y-110000000D03*
%TD*%
%TO.P,TP6,1*%
%TO.N,GND*%
X119250000Y-110000000D03*
%TD*%
D13*
%TO.N,GND*%
X144000000Y-92250000D03*
X140500000Y-88250000D03*
X142500000Y-89000000D03*
X143250000Y-90000000D03*
X143750000Y-91000000D03*
X141500000Y-88500000D03*
X91000000Y-97500000D03*
X91000000Y-98500000D03*
X91000000Y-99500000D03*
X91000000Y-100500000D03*
X91000000Y-101500000D03*
X91000000Y-102500000D03*
X91000000Y-106250000D03*
X91000000Y-107250000D03*
X91000000Y-108250000D03*
X91000000Y-93750000D03*
X91000000Y-92750000D03*
X91000000Y-91750000D03*
X100250000Y-107500000D03*
X94750000Y-103750000D03*
X94750000Y-100750000D03*
X111000000Y-90250000D03*
X109000000Y-90250000D03*
X119000000Y-90250000D03*
X121000000Y-90250000D03*
X129000000Y-90250000D03*
X131000000Y-90250000D03*
X111750000Y-93000000D03*
X110750000Y-99250000D03*
X96250000Y-93500000D03*
X97500000Y-93500000D03*
X98750000Y-93500000D03*
X107250000Y-93250000D03*
X106250000Y-93250000D03*
X105250000Y-93250000D03*
X104250000Y-93250000D03*
X103250000Y-93250000D03*
X103000000Y-101500000D03*
X104000000Y-101500000D03*
X105000000Y-101500000D03*
X103500000Y-102250000D03*
X104500000Y-102250000D03*
X102500000Y-102250000D03*
X105500000Y-102250000D03*
X91250000Y-90750000D03*
X91750000Y-89750000D03*
X92500000Y-89000000D03*
X91250000Y-109500000D03*
X95000000Y-112250000D03*
X96000000Y-112250000D03*
X97000000Y-112250000D03*
X98000000Y-112250000D03*
X99000000Y-112250000D03*
X100000000Y-112250000D03*
X101000000Y-112250000D03*
X102000000Y-112250000D03*
X140000000Y-112250000D03*
X139000000Y-112250000D03*
X138000000Y-112250000D03*
X137000000Y-112250000D03*
X136000000Y-112250000D03*
X135000000Y-112250000D03*
X134000000Y-112250000D03*
X133000000Y-112250000D03*
X132000000Y-112250000D03*
X131000000Y-112250000D03*
X130000000Y-112250000D03*
X129000000Y-112250000D03*
X128000000Y-112250000D03*
X127000000Y-112250000D03*
X126000000Y-112250000D03*
X125000000Y-112250000D03*
X124000000Y-112250000D03*
X123000000Y-112250000D03*
X122000000Y-112250000D03*
X121000000Y-112250000D03*
X120000000Y-112250000D03*
X119000000Y-112250000D03*
X144000000Y-107500000D03*
X144000000Y-106500000D03*
X144000000Y-105500000D03*
X144000000Y-104500000D03*
X144000000Y-103500000D03*
X144000000Y-102500000D03*
X144000000Y-101500000D03*
X141250000Y-112000000D03*
X142250000Y-111500000D03*
X143250000Y-110750000D03*
X143750000Y-109750000D03*
X144000000Y-108750000D03*
X144000000Y-100500000D03*
X144000000Y-99500000D03*
X144000000Y-98500000D03*
X144000000Y-93500000D03*
X139500000Y-88250000D03*
X138500000Y-88250000D03*
X137500000Y-88250000D03*
X136500000Y-88250000D03*
X135500000Y-88250000D03*
X134500000Y-88250000D03*
X94500000Y-88250000D03*
X95500000Y-88250000D03*
X96500000Y-88250000D03*
X101500000Y-88250000D03*
X102500000Y-88250000D03*
X103500000Y-88250000D03*
X117500000Y-96000000D03*
X116500000Y-96000000D03*
X115500000Y-96000000D03*
X114500000Y-96000000D03*
X113500000Y-96000000D03*
X114000000Y-96750000D03*
X115000000Y-96750000D03*
X116000000Y-96750000D03*
X117000000Y-96750000D03*
X119000000Y-97500000D03*
X119000000Y-98500000D03*
X119000000Y-99500000D03*
X119000000Y-100500000D03*
X119000000Y-101500000D03*
X118250000Y-101000000D03*
X118250000Y-100000000D03*
X118250000Y-99000000D03*
X118250000Y-98000000D03*
X118250000Y-102000000D03*
X111750000Y-99250000D03*
X112750000Y-99250000D03*
X112250000Y-100000000D03*
X111250000Y-100000000D03*
X93500000Y-88500000D03*
X108000000Y-112250000D03*
X104000000Y-112250000D03*
X109000000Y-112250000D03*
X106000000Y-112250000D03*
X107000000Y-112250000D03*
X105000000Y-112250000D03*
X103000000Y-112250000D03*
X120250000Y-105250000D03*
X120250000Y-106250000D03*
X121250000Y-105250000D03*
X121250000Y-106250000D03*
%TO.N,+5V*%
X114000000Y-89500000D03*
X124000000Y-89500000D03*
X101500000Y-89500000D03*
X104000000Y-89500000D03*
D14*
X115000000Y-100000000D03*
X101000000Y-102500000D03*
X100500000Y-106000000D03*
D13*
%TO.N,I2C_SDA*%
X116750000Y-103750000D03*
X104500000Y-97500000D03*
%TO.N,I2C_SCL*%
X116000000Y-103000000D03*
X101000000Y-97500000D03*
%TO.N,LED_PWR*%
X96750000Y-107750000D03*
X108250000Y-107000000D03*
%TO.N,LED_SNS*%
X123250000Y-100750000D03*
X129250000Y-109000000D03*
%TO.N,LED_ACT*%
X109250000Y-95000000D03*
X135500000Y-108750000D03*
%TO.N,MISO*%
X110155331Y-105905331D03*
%TO.N,SCK*%
X112477168Y-103727168D03*
%TO.N,MOSI*%
X111780331Y-104280331D03*
%TO.N,RST*%
X105500000Y-110250000D03*
%TD*%
D15*
%TO.N,+5V*%
X104500000Y-89500000D02*
X114000000Y-89500000D01*
X114000000Y-89500000D02*
X124000000Y-89500000D01*
X104500000Y-89500000D02*
X101500000Y-89500000D01*
D16*
X101500000Y-89500000D02*
X101500000Y-93000000D01*
X99750000Y-94750000D02*
X99750000Y-102750000D01*
X101500000Y-93000000D02*
X99750000Y-94750000D01*
X99750000Y-102750000D02*
X99750000Y-105250000D01*
X99750000Y-105250000D02*
X100500000Y-106000000D01*
X100500000Y-106000000D02*
X109000000Y-106000000D01*
X109000000Y-106000000D02*
X115000000Y-100000000D01*
X100750000Y-102750000D02*
X101000000Y-102500000D01*
X99750000Y-102750000D02*
X100750000Y-102750000D01*
X100500000Y-106000000D02*
X100500000Y-106000000D01*
D15*
%TO.N,I2C_SDA*%
X116750000Y-103750000D02*
X116750000Y-98500000D01*
X115750000Y-97500000D02*
X104500000Y-97500000D01*
X116750000Y-98500000D02*
X115750000Y-97500000D01*
%TO.N,I2C_SCL*%
X116000000Y-103000000D02*
X116000000Y-98750000D01*
X115437501Y-98187501D02*
X102687501Y-98187501D01*
X116000000Y-98750000D02*
X115437501Y-98187501D01*
X102000000Y-97500000D02*
X101000000Y-97500000D01*
X102687501Y-98187501D02*
X102000000Y-97500000D01*
%TO.N,+5V*%
X109250000Y-106250000D02*
X109000000Y-106000000D01*
X109250000Y-110000000D02*
X109250000Y-106250000D01*
%TO.N,LED_PWR*%
X97687501Y-106812499D02*
X108062499Y-106812499D01*
X108062499Y-106812499D02*
X108250000Y-107000000D01*
X96750000Y-107750000D02*
X97687501Y-106812499D01*
%TO.N,LED_SNS*%
X129250000Y-106750000D02*
X129250000Y-109000000D01*
X123250000Y-100750000D02*
X129250000Y-106750000D01*
%TO.N,LED_ACT*%
X109250000Y-95000000D02*
X110000000Y-94250000D01*
X110000000Y-94250000D02*
X122500000Y-94250000D01*
X122500000Y-94250000D02*
X135500000Y-107250000D01*
X135500000Y-107250000D02*
X135500000Y-108750000D01*
%TO.N,MISO*%
X111250000Y-107750000D02*
X110000000Y-106500000D01*
X111250000Y-110000000D02*
X111250000Y-107750000D01*
X110155331Y-106344669D02*
X110000000Y-106500000D01*
X110155331Y-105905331D02*
X110155331Y-106344669D01*
%TO.N,SCK*%
X115250000Y-106500000D02*
X112477168Y-103727168D01*
X115250000Y-110000000D02*
X115250000Y-106500000D01*
%TO.N,MOSI*%
X113250000Y-105750000D02*
X111780331Y-104280331D01*
X113250000Y-110000000D02*
X113250000Y-105750000D01*
%TO.N,RST*%
X106137501Y-110887501D02*
X105500000Y-110250000D01*
X116362499Y-110887501D02*
X106137501Y-110887501D01*
X117250000Y-110000000D02*
X116362499Y-110887501D01*
%TD*%
D17*
%TO.N,GND*%
X109302861Y-87913525D02*
X109275000Y-88053594D01*
X109275000Y-88196406D01*
X109302861Y-88336475D01*
X109357513Y-88468416D01*
X109436856Y-88587161D01*
X109537839Y-88688144D01*
X109656584Y-88767487D01*
X109788525Y-88822139D01*
X109928594Y-88850000D01*
X110071406Y-88850000D01*
X110211475Y-88822139D01*
X110343416Y-88767487D01*
X110462161Y-88688144D01*
X110563144Y-88587161D01*
X110642487Y-88468416D01*
X110697139Y-88336475D01*
X110725000Y-88196406D01*
X110725000Y-88053594D01*
X110697139Y-87913525D01*
X110681181Y-87875000D01*
X119318819Y-87875000D01*
X119302861Y-87913525D01*
X119275000Y-88053594D01*
X119275000Y-88196406D01*
X119302861Y-88336475D01*
X119357513Y-88468416D01*
X119436856Y-88587161D01*
X119537839Y-88688144D01*
X119656584Y-88767487D01*
X119788525Y-88822139D01*
X119928594Y-88850000D01*
X120071406Y-88850000D01*
X120211475Y-88822139D01*
X120343416Y-88767487D01*
X120462161Y-88688144D01*
X120563144Y-88587161D01*
X120642487Y-88468416D01*
X120697139Y-88336475D01*
X120725000Y-88196406D01*
X120725000Y-88053594D01*
X120697139Y-87913525D01*
X120681181Y-87875000D01*
X129318819Y-87875000D01*
X129302861Y-87913525D01*
X129275000Y-88053594D01*
X129275000Y-88196406D01*
X129302861Y-88336475D01*
X129357513Y-88468416D01*
X129436856Y-88587161D01*
X129537839Y-88688144D01*
X129656584Y-88767487D01*
X129788525Y-88822139D01*
X129928594Y-88850000D01*
X130071406Y-88850000D01*
X130211475Y-88822139D01*
X130343416Y-88767487D01*
X130462161Y-88688144D01*
X130563144Y-88587161D01*
X130642487Y-88468416D01*
X130697139Y-88336475D01*
X130725000Y-88196406D01*
X130725000Y-88053594D01*
X130697139Y-87913525D01*
X130681181Y-87875000D01*
X139983304Y-87875000D01*
X140818752Y-87949562D01*
X141611628Y-88166468D01*
X142353558Y-88520351D01*
X143021098Y-89000027D01*
X143593140Y-89590329D01*
X144051613Y-90272609D01*
X144382016Y-91025289D01*
X144574603Y-91827470D01*
X144625001Y-92513765D01*
X144625000Y-107983304D01*
X144550438Y-108818752D01*
X144333533Y-109611622D01*
X143979649Y-110353558D01*
X143499973Y-111021098D01*
X142909671Y-111593140D01*
X142227391Y-112051613D01*
X141474714Y-112382015D01*
X140672530Y-112574603D01*
X139986249Y-112625000D01*
X95016696Y-112625000D01*
X94181248Y-112550438D01*
X93388378Y-112333533D01*
X92646442Y-111979649D01*
X91978902Y-111499973D01*
X91406860Y-110909671D01*
X90948387Y-110227391D01*
X90617985Y-109474714D01*
X90425397Y-108672530D01*
X90375000Y-107986249D01*
X90375000Y-107685981D01*
X96100000Y-107685981D01*
X96100000Y-107814019D01*
X96124979Y-107939598D01*
X96173978Y-108057890D01*
X96245112Y-108164351D01*
X96335649Y-108254888D01*
X96442110Y-108326022D01*
X96560402Y-108375021D01*
X96685981Y-108400000D01*
X96814019Y-108400000D01*
X96939598Y-108375021D01*
X97057890Y-108326022D01*
X97164351Y-108254888D01*
X97254888Y-108164351D01*
X97326022Y-108057890D01*
X97375021Y-107939598D01*
X97388548Y-107871591D01*
X97910141Y-107349999D01*
X107702114Y-107349999D01*
X107745112Y-107414351D01*
X107835649Y-107504888D01*
X107942110Y-107576022D01*
X108060402Y-107625021D01*
X108185981Y-107650000D01*
X108314019Y-107650000D01*
X108439598Y-107625021D01*
X108557890Y-107576022D01*
X108664351Y-107504888D01*
X108712501Y-107456738D01*
X108712500Y-109152001D01*
X108681388Y-109155065D01*
X108615413Y-109175078D01*
X108554610Y-109207578D01*
X108501315Y-109251315D01*
X108457578Y-109304610D01*
X108425078Y-109365413D01*
X108405065Y-109431388D01*
X108398307Y-109500000D01*
X108398307Y-110350001D01*
X106360141Y-110350001D01*
X106138548Y-110128409D01*
X106125021Y-110060402D01*
X106076022Y-109942110D01*
X106004888Y-109835649D01*
X105914351Y-109745112D01*
X105807890Y-109673978D01*
X105689598Y-109624979D01*
X105564019Y-109600000D01*
X105435981Y-109600000D01*
X105310402Y-109624979D01*
X105192110Y-109673978D01*
X105085649Y-109745112D01*
X104995112Y-109835649D01*
X104923978Y-109942110D01*
X104874979Y-110060402D01*
X104850000Y-110185981D01*
X104850000Y-110314019D01*
X104874979Y-110439598D01*
X104923978Y-110557890D01*
X104995112Y-110664351D01*
X105085649Y-110754888D01*
X105192110Y-110826022D01*
X105310402Y-110875021D01*
X105378409Y-110888548D01*
X105738768Y-111248908D01*
X105755593Y-111269409D01*
X105776093Y-111286233D01*
X105776097Y-111286237D01*
X105815527Y-111318596D01*
X105837438Y-111336578D01*
X105873318Y-111355756D01*
X105930813Y-111386488D01*
X106032132Y-111417223D01*
X106041404Y-111418136D01*
X106111103Y-111425001D01*
X106111111Y-111425001D01*
X106137501Y-111427600D01*
X106163891Y-111425001D01*
X116336111Y-111425001D01*
X116362499Y-111427600D01*
X116388887Y-111425001D01*
X116388897Y-111425001D01*
X116467867Y-111417223D01*
X116569186Y-111386488D01*
X116662562Y-111336578D01*
X116744407Y-111269409D01*
X116761236Y-111248903D01*
X117158446Y-110851693D01*
X117750000Y-110851693D01*
X117818612Y-110844935D01*
X117884587Y-110824922D01*
X117945390Y-110792422D01*
X117998685Y-110748685D01*
X118042422Y-110695390D01*
X118074922Y-110634587D01*
X118094935Y-110568612D01*
X118101693Y-110500000D01*
X118398306Y-110500000D01*
X118405064Y-110568612D01*
X118425077Y-110634587D01*
X118457577Y-110695391D01*
X118501315Y-110748685D01*
X118554609Y-110792423D01*
X118615413Y-110824923D01*
X118681388Y-110844936D01*
X118750000Y-110851694D01*
X119075000Y-110850000D01*
X119162500Y-110762500D01*
X119162500Y-110087500D01*
X119337500Y-110087500D01*
X119337500Y-110762500D01*
X119425000Y-110850000D01*
X119750000Y-110851694D01*
X119818612Y-110844936D01*
X119884587Y-110824923D01*
X119945391Y-110792423D01*
X119998685Y-110748685D01*
X120042423Y-110695391D01*
X120074923Y-110634587D01*
X120094936Y-110568612D01*
X120101694Y-110500000D01*
X120100000Y-110175000D01*
X120012500Y-110087500D01*
X119337500Y-110087500D01*
X119162500Y-110087500D01*
X118487500Y-110087500D01*
X118400000Y-110175000D01*
X118398306Y-110500000D01*
X118101693Y-110500000D01*
X118101693Y-109500000D01*
X118398306Y-109500000D01*
X118400000Y-109825000D01*
X118487500Y-109912500D01*
X119162500Y-109912500D01*
X119162500Y-109237500D01*
X119337500Y-109237500D01*
X119337500Y-109912500D01*
X120012500Y-109912500D01*
X120100000Y-109825000D01*
X120101694Y-109500000D01*
X120094936Y-109431388D01*
X120074923Y-109365413D01*
X120042423Y-109304609D01*
X119998685Y-109251315D01*
X119945391Y-109207577D01*
X119884587Y-109175077D01*
X119818612Y-109155064D01*
X119750000Y-109148306D01*
X119425000Y-109150000D01*
X119337500Y-109237500D01*
X119162500Y-109237500D01*
X119075000Y-109150000D01*
X118750000Y-109148306D01*
X118681388Y-109155064D01*
X118615413Y-109175077D01*
X118554609Y-109207577D01*
X118501315Y-109251315D01*
X118457577Y-109304609D01*
X118425077Y-109365413D01*
X118405064Y-109431388D01*
X118398306Y-109500000D01*
X118101693Y-109500000D01*
X118094935Y-109431388D01*
X118074922Y-109365413D01*
X118042422Y-109304610D01*
X117998685Y-109251315D01*
X117945390Y-109207578D01*
X117884587Y-109175078D01*
X117818612Y-109155065D01*
X117750000Y-109148307D01*
X116750000Y-109148307D01*
X116681388Y-109155065D01*
X116615413Y-109175078D01*
X116554610Y-109207578D01*
X116501315Y-109251315D01*
X116457578Y-109304610D01*
X116425078Y-109365413D01*
X116405065Y-109431388D01*
X116398307Y-109500000D01*
X116398307Y-110091554D01*
X116139860Y-110350001D01*
X116101693Y-110350001D01*
X116101693Y-109500000D01*
X116094935Y-109431388D01*
X116074922Y-109365413D01*
X116042422Y-109304610D01*
X115998685Y-109251315D01*
X115945390Y-109207578D01*
X115884587Y-109175078D01*
X115818612Y-109155065D01*
X115787500Y-109152001D01*
X115787500Y-106526390D01*
X115790099Y-106500000D01*
X115787500Y-106473610D01*
X115787500Y-106473602D01*
X115779722Y-106394632D01*
X115777891Y-106388596D01*
X115748987Y-106293312D01*
X115709949Y-106220278D01*
X115699077Y-106199937D01*
X115688394Y-106186919D01*
X115648736Y-106138596D01*
X115648732Y-106138592D01*
X115631908Y-106118092D01*
X115611408Y-106101268D01*
X113115716Y-103605577D01*
X113102189Y-103537570D01*
X113053190Y-103419278D01*
X112982056Y-103312817D01*
X112891519Y-103222280D01*
X112785058Y-103151146D01*
X112723062Y-103125466D01*
X115104652Y-100743877D01*
X115218767Y-100721178D01*
X115355258Y-100664641D01*
X115462501Y-100592984D01*
X115462500Y-102634457D01*
X115423978Y-102692110D01*
X115374979Y-102810402D01*
X115350000Y-102935981D01*
X115350000Y-103064019D01*
X115374979Y-103189598D01*
X115423978Y-103307890D01*
X115495112Y-103414351D01*
X115585649Y-103504888D01*
X115692110Y-103576022D01*
X115810402Y-103625021D01*
X115935981Y-103650000D01*
X116064019Y-103650000D01*
X116108934Y-103641066D01*
X116100000Y-103685981D01*
X116100000Y-103814019D01*
X116124979Y-103939598D01*
X116173978Y-104057890D01*
X116245112Y-104164351D01*
X116335649Y-104254888D01*
X116442110Y-104326022D01*
X116560402Y-104375021D01*
X116685981Y-104400000D01*
X116814019Y-104400000D01*
X116939598Y-104375021D01*
X117057890Y-104326022D01*
X117164351Y-104254888D01*
X117254888Y-104164351D01*
X117326022Y-104057890D01*
X117375021Y-103939598D01*
X117400000Y-103814019D01*
X117400000Y-103685981D01*
X117375021Y-103560402D01*
X117326022Y-103442110D01*
X117287500Y-103384457D01*
X117287500Y-100685981D01*
X122600000Y-100685981D01*
X122600000Y-100814019D01*
X122624979Y-100939598D01*
X122673978Y-101057890D01*
X122745112Y-101164351D01*
X122835649Y-101254888D01*
X122942110Y-101326022D01*
X123060402Y-101375021D01*
X123128409Y-101388548D01*
X128712500Y-106972639D01*
X128712501Y-108634456D01*
X128673978Y-108692110D01*
X128624979Y-108810402D01*
X128600000Y-108935981D01*
X128600000Y-109064019D01*
X128624979Y-109189598D01*
X128673978Y-109307890D01*
X128745112Y-109414351D01*
X128835649Y-109504888D01*
X128942110Y-109576022D01*
X129060402Y-109625021D01*
X129185981Y-109650000D01*
X129314019Y-109650000D01*
X129439598Y-109625021D01*
X129557890Y-109576022D01*
X129664351Y-109504888D01*
X129754888Y-109414351D01*
X129826022Y-109307890D01*
X129875021Y-109189598D01*
X129900000Y-109064019D01*
X129900000Y-108935981D01*
X129875021Y-108810402D01*
X129826022Y-108692110D01*
X129787500Y-108634457D01*
X129787500Y-106776387D01*
X129790099Y-106749999D01*
X129787500Y-106723611D01*
X129787500Y-106723602D01*
X129779722Y-106644632D01*
X129748987Y-106543313D01*
X129699077Y-106449937D01*
X129631908Y-106368092D01*
X129611402Y-106351263D01*
X123888548Y-100628409D01*
X123875021Y-100560402D01*
X123826022Y-100442110D01*
X123754888Y-100335649D01*
X123664351Y-100245112D01*
X123557890Y-100173978D01*
X123439598Y-100124979D01*
X123314019Y-100100000D01*
X123185981Y-100100000D01*
X123060402Y-100124979D01*
X122942110Y-100173978D01*
X122835649Y-100245112D01*
X122745112Y-100335649D01*
X122673978Y-100442110D01*
X122624979Y-100560402D01*
X122600000Y-100685981D01*
X117287500Y-100685981D01*
X117287500Y-98526390D01*
X117290099Y-98500000D01*
X117287500Y-98473610D01*
X117287500Y-98473602D01*
X117279722Y-98394632D01*
X117279722Y-98394631D01*
X117248987Y-98293312D01*
X117199076Y-98199936D01*
X117148736Y-98138596D01*
X117148732Y-98138592D01*
X117131908Y-98118092D01*
X117111408Y-98101268D01*
X116148737Y-97138598D01*
X116131908Y-97118092D01*
X116050063Y-97050923D01*
X115956687Y-97001013D01*
X115855368Y-96970278D01*
X115776398Y-96962500D01*
X115776388Y-96962500D01*
X115750000Y-96959901D01*
X115723612Y-96962500D01*
X104865543Y-96962500D01*
X104807890Y-96923978D01*
X104689598Y-96874979D01*
X104564019Y-96850000D01*
X104435981Y-96850000D01*
X104310402Y-96874979D01*
X104192110Y-96923978D01*
X104085649Y-96995112D01*
X103995112Y-97085649D01*
X103923978Y-97192110D01*
X103874979Y-97310402D01*
X103850000Y-97435981D01*
X103850000Y-97564019D01*
X103867103Y-97650001D01*
X102910140Y-97650001D01*
X102398737Y-97138598D01*
X102381908Y-97118092D01*
X102300063Y-97050923D01*
X102206687Y-97001013D01*
X102105368Y-96970278D01*
X102026398Y-96962500D01*
X102026388Y-96962500D01*
X102000000Y-96959901D01*
X101973612Y-96962500D01*
X101365543Y-96962500D01*
X101307890Y-96923978D01*
X101189598Y-96874979D01*
X101064019Y-96850000D01*
X100935981Y-96850000D01*
X100810402Y-96874979D01*
X100692110Y-96923978D01*
X100585649Y-96995112D01*
X100495112Y-97085649D01*
X100423978Y-97192110D01*
X100374979Y-97310402D01*
X100350000Y-97435981D01*
X100350000Y-94998527D01*
X100412546Y-94935981D01*
X108600000Y-94935981D01*
X108600000Y-95064019D01*
X108624979Y-95189598D01*
X108673978Y-95307890D01*
X108745112Y-95414351D01*
X108835649Y-95504888D01*
X108942110Y-95576022D01*
X109060402Y-95625021D01*
X109185981Y-95650000D01*
X109314019Y-95650000D01*
X109439598Y-95625021D01*
X109557890Y-95576022D01*
X109664351Y-95504888D01*
X109754888Y-95414351D01*
X109826022Y-95307890D01*
X109875021Y-95189598D01*
X109888548Y-95121591D01*
X110222639Y-94787500D01*
X122277361Y-94787500D01*
X134962500Y-107472639D01*
X134962501Y-108384456D01*
X134923978Y-108442110D01*
X134874979Y-108560402D01*
X134850000Y-108685981D01*
X134850000Y-108814019D01*
X134874979Y-108939598D01*
X134923978Y-109057890D01*
X134995112Y-109164351D01*
X135085649Y-109254888D01*
X135192110Y-109326022D01*
X135310402Y-109375021D01*
X135435981Y-109400000D01*
X135564019Y-109400000D01*
X135689598Y-109375021D01*
X135807890Y-109326022D01*
X135914351Y-109254888D01*
X136004888Y-109164351D01*
X136076022Y-109057890D01*
X136125021Y-108939598D01*
X136150000Y-108814019D01*
X136150000Y-108685981D01*
X136125021Y-108560402D01*
X136076022Y-108442110D01*
X136037500Y-108384457D01*
X136037500Y-107276387D01*
X136040099Y-107249999D01*
X136037500Y-107223611D01*
X136037500Y-107223602D01*
X136029722Y-107144632D01*
X135998987Y-107043313D01*
X135949077Y-106949937D01*
X135881908Y-106868092D01*
X135861402Y-106851263D01*
X128891949Y-99881810D01*
X134300000Y-99881810D01*
X134300000Y-100118190D01*
X134346116Y-100350027D01*
X134436574Y-100568413D01*
X134567899Y-100764955D01*
X134735045Y-100932101D01*
X134931587Y-101063426D01*
X135149973Y-101153884D01*
X135381810Y-101200000D01*
X135618190Y-101200000D01*
X135850027Y-101153884D01*
X136068413Y-101063426D01*
X136264955Y-100932101D01*
X136432101Y-100764955D01*
X136563426Y-100568413D01*
X136653884Y-100350027D01*
X136700000Y-100118190D01*
X136700000Y-99881810D01*
X141300000Y-99881810D01*
X141300000Y-100118190D01*
X141346116Y-100350027D01*
X141436574Y-100568413D01*
X141567899Y-100764955D01*
X141735045Y-100932101D01*
X141931587Y-101063426D01*
X142149973Y-101153884D01*
X142381810Y-101200000D01*
X142618190Y-101200000D01*
X142850027Y-101153884D01*
X143068413Y-101063426D01*
X143264955Y-100932101D01*
X143432101Y-100764955D01*
X143563426Y-100568413D01*
X143653884Y-100350027D01*
X143700000Y-100118190D01*
X143700000Y-99881810D01*
X143653884Y-99649973D01*
X143563426Y-99431587D01*
X143432101Y-99235045D01*
X143264955Y-99067899D01*
X143068413Y-98936574D01*
X142850027Y-98846116D01*
X142618190Y-98800000D01*
X142381810Y-98800000D01*
X142149973Y-98846116D01*
X141931587Y-98936574D01*
X141735045Y-99067899D01*
X141567899Y-99235045D01*
X141436574Y-99431587D01*
X141346116Y-99649973D01*
X141300000Y-99881810D01*
X136700000Y-99881810D01*
X136653884Y-99649973D01*
X136563426Y-99431587D01*
X136432101Y-99235045D01*
X136264955Y-99067899D01*
X136068413Y-98936574D01*
X135850027Y-98846116D01*
X135618190Y-98800000D01*
X135381810Y-98800000D01*
X135149973Y-98846116D01*
X134931587Y-98936574D01*
X134735045Y-99067899D01*
X134567899Y-99235045D01*
X134436574Y-99431587D01*
X134346116Y-99649973D01*
X134300000Y-99881810D01*
X128891949Y-99881810D01*
X122898737Y-93888598D01*
X122881908Y-93868092D01*
X122800063Y-93800923D01*
X122706687Y-93751013D01*
X122605368Y-93720278D01*
X122526398Y-93712500D01*
X122526388Y-93712500D01*
X122500000Y-93709901D01*
X122473612Y-93712500D01*
X110026387Y-93712500D01*
X109999999Y-93709901D01*
X109973611Y-93712500D01*
X109973602Y-93712500D01*
X109894632Y-93720278D01*
X109793313Y-93751013D01*
X109699937Y-93800923D01*
X109618092Y-93868092D01*
X109601263Y-93888598D01*
X109128409Y-94361452D01*
X109060402Y-94374979D01*
X108942110Y-94423978D01*
X108835649Y-94495112D01*
X108745112Y-94585649D01*
X108673978Y-94692110D01*
X108624979Y-94810402D01*
X108600000Y-94935981D01*
X100412546Y-94935981D01*
X101903419Y-93445109D01*
X101926317Y-93426317D01*
X102001296Y-93334955D01*
X102057010Y-93230721D01*
X102091318Y-93117621D01*
X102100000Y-93029474D01*
X102102903Y-93000000D01*
X102100000Y-92970526D01*
X102100000Y-90803594D01*
X109275000Y-90803594D01*
X109275000Y-90946406D01*
X109302861Y-91086475D01*
X109357513Y-91218416D01*
X109436856Y-91337161D01*
X109537839Y-91438144D01*
X109656584Y-91517487D01*
X109788525Y-91572139D01*
X109928594Y-91600000D01*
X110071406Y-91600000D01*
X110211475Y-91572139D01*
X110343416Y-91517487D01*
X110462161Y-91438144D01*
X110563144Y-91337161D01*
X110642487Y-91218416D01*
X110697139Y-91086475D01*
X110725000Y-90946406D01*
X110725000Y-90803594D01*
X119275000Y-90803594D01*
X119275000Y-90946406D01*
X119302861Y-91086475D01*
X119357513Y-91218416D01*
X119436856Y-91337161D01*
X119537839Y-91438144D01*
X119656584Y-91517487D01*
X119788525Y-91572139D01*
X119928594Y-91600000D01*
X120071406Y-91600000D01*
X120211475Y-91572139D01*
X120343416Y-91517487D01*
X120462161Y-91438144D01*
X120563144Y-91337161D01*
X120642487Y-91218416D01*
X120697139Y-91086475D01*
X120725000Y-90946406D01*
X120725000Y-90803594D01*
X129275000Y-90803594D01*
X129275000Y-90946406D01*
X129302861Y-91086475D01*
X129357513Y-91218416D01*
X129436856Y-91337161D01*
X129537839Y-91438144D01*
X129656584Y-91517487D01*
X129788525Y-91572139D01*
X129928594Y-91600000D01*
X130071406Y-91600000D01*
X130211475Y-91572139D01*
X130343416Y-91517487D01*
X130462161Y-91438144D01*
X130563144Y-91337161D01*
X130642487Y-91218416D01*
X130697139Y-91086475D01*
X130725000Y-90946406D01*
X130725000Y-90803594D01*
X130697139Y-90663525D01*
X130642487Y-90531584D01*
X130563144Y-90412839D01*
X130462161Y-90311856D01*
X130343416Y-90232513D01*
X130211475Y-90177861D01*
X130071406Y-90150000D01*
X129928594Y-90150000D01*
X129788525Y-90177861D01*
X129656584Y-90232513D01*
X129537839Y-90311856D01*
X129436856Y-90412839D01*
X129357513Y-90531584D01*
X129302861Y-90663525D01*
X129275000Y-90803594D01*
X120725000Y-90803594D01*
X120697139Y-90663525D01*
X120642487Y-90531584D01*
X120563144Y-90412839D01*
X120462161Y-90311856D01*
X120343416Y-90232513D01*
X120211475Y-90177861D01*
X120071406Y-90150000D01*
X119928594Y-90150000D01*
X119788525Y-90177861D01*
X119656584Y-90232513D01*
X119537839Y-90311856D01*
X119436856Y-90412839D01*
X119357513Y-90531584D01*
X119302861Y-90663525D01*
X119275000Y-90803594D01*
X110725000Y-90803594D01*
X110697139Y-90663525D01*
X110642487Y-90531584D01*
X110563144Y-90412839D01*
X110462161Y-90311856D01*
X110343416Y-90232513D01*
X110211475Y-90177861D01*
X110071406Y-90150000D01*
X109928594Y-90150000D01*
X109788525Y-90177861D01*
X109656584Y-90232513D01*
X109537839Y-90311856D01*
X109436856Y-90412839D01*
X109357513Y-90531584D01*
X109302861Y-90663525D01*
X109275000Y-90803594D01*
X102100000Y-90803594D01*
X102100000Y-90037500D01*
X103634457Y-90037500D01*
X103692110Y-90076022D01*
X103810402Y-90125021D01*
X103935981Y-90150000D01*
X104064019Y-90150000D01*
X104189598Y-90125021D01*
X104307890Y-90076022D01*
X104365543Y-90037500D01*
X113634457Y-90037500D01*
X113692110Y-90076022D01*
X113810402Y-90125021D01*
X113935981Y-90150000D01*
X114064019Y-90150000D01*
X114189598Y-90125021D01*
X114307890Y-90076022D01*
X114365543Y-90037500D01*
X123634457Y-90037500D01*
X123692110Y-90076022D01*
X123810402Y-90125021D01*
X123935981Y-90150000D01*
X124064019Y-90150000D01*
X124189598Y-90125021D01*
X124307890Y-90076022D01*
X124414351Y-90004888D01*
X124504888Y-89914351D01*
X124576022Y-89807890D01*
X124625021Y-89689598D01*
X124650000Y-89564019D01*
X124650000Y-89435981D01*
X124625021Y-89310402D01*
X124576022Y-89192110D01*
X124504888Y-89085649D01*
X124414351Y-88995112D01*
X124307890Y-88923978D01*
X124189598Y-88874979D01*
X124064019Y-88850000D01*
X123935981Y-88850000D01*
X123810402Y-88874979D01*
X123692110Y-88923978D01*
X123634457Y-88962500D01*
X114365543Y-88962500D01*
X114307890Y-88923978D01*
X114189598Y-88874979D01*
X114064019Y-88850000D01*
X113935981Y-88850000D01*
X113810402Y-88874979D01*
X113692110Y-88923978D01*
X113634457Y-88962500D01*
X104365543Y-88962500D01*
X104307890Y-88923978D01*
X104189598Y-88874979D01*
X104064019Y-88850000D01*
X103935981Y-88850000D01*
X103810402Y-88874979D01*
X103692110Y-88923978D01*
X103634457Y-88962500D01*
X101865543Y-88962500D01*
X101807890Y-88923978D01*
X101689598Y-88874979D01*
X101564019Y-88850000D01*
X101435981Y-88850000D01*
X101310402Y-88874979D01*
X101192110Y-88923978D01*
X101085649Y-88995112D01*
X100995112Y-89085649D01*
X100923978Y-89192110D01*
X100874979Y-89310402D01*
X100850000Y-89435981D01*
X100850000Y-89564019D01*
X100874979Y-89689598D01*
X100900000Y-89750003D01*
X100900001Y-92751471D01*
X99346586Y-94304887D01*
X99323683Y-94323683D01*
X99248704Y-94415046D01*
X99192990Y-94519280D01*
X99165045Y-94611403D01*
X99158682Y-94632380D01*
X99147097Y-94750000D01*
X99150000Y-94779474D01*
X99150001Y-102720516D01*
X99147097Y-102750000D01*
X99150000Y-102779474D01*
X99150001Y-105220517D01*
X99147097Y-105250000D01*
X99158682Y-105367620D01*
X99192991Y-105480721D01*
X99248705Y-105584955D01*
X99323684Y-105676317D01*
X99346581Y-105695108D01*
X99756123Y-106104650D01*
X99778822Y-106218767D01*
X99802114Y-106274999D01*
X97713891Y-106274999D01*
X97687501Y-106272400D01*
X97661111Y-106274999D01*
X97661103Y-106274999D01*
X97591404Y-106281864D01*
X97582132Y-106282777D01*
X97480813Y-106313512D01*
X97430903Y-106340190D01*
X97387438Y-106363422D01*
X97387436Y-106363423D01*
X97387437Y-106363423D01*
X97326097Y-106413763D01*
X97326093Y-106413767D01*
X97305593Y-106430591D01*
X97288769Y-106451092D01*
X96628409Y-107111452D01*
X96560402Y-107124979D01*
X96442110Y-107173978D01*
X96335649Y-107245112D01*
X96245112Y-107335649D01*
X96173978Y-107442110D01*
X96124979Y-107560402D01*
X96100000Y-107685981D01*
X90375000Y-107685981D01*
X90375000Y-104760840D01*
X91787904Y-104760840D01*
X91884296Y-104940128D01*
X92104883Y-105049534D01*
X92342577Y-105113804D01*
X92588240Y-105130467D01*
X92832435Y-105098883D01*
X93065776Y-105020266D01*
X93215704Y-104940128D01*
X93312096Y-104760840D01*
X93233334Y-104682078D01*
X95516666Y-104682078D01*
X95625100Y-104871603D01*
X95862720Y-104990993D01*
X96119066Y-105061730D01*
X96384286Y-105081098D01*
X96648189Y-105048352D01*
X96900633Y-104964751D01*
X97074900Y-104871603D01*
X97183334Y-104682078D01*
X96350000Y-103848744D01*
X95516666Y-104682078D01*
X93233334Y-104682078D01*
X92550000Y-103998744D01*
X91787904Y-104760840D01*
X90375000Y-104760840D01*
X90375000Y-103913240D01*
X91294533Y-103913240D01*
X91326117Y-104157435D01*
X91404734Y-104390776D01*
X91484872Y-104540704D01*
X91664160Y-104637096D01*
X92426256Y-103875000D01*
X92673744Y-103875000D01*
X93435840Y-104637096D01*
X93615128Y-104540704D01*
X93724534Y-104320117D01*
X93788804Y-104082423D01*
X93805467Y-103836760D01*
X93773883Y-103592565D01*
X93695266Y-103359224D01*
X93615128Y-103209296D01*
X93435840Y-103112904D01*
X92673744Y-103875000D01*
X92426256Y-103875000D01*
X91664160Y-103112904D01*
X91484872Y-103209296D01*
X91375466Y-103429883D01*
X91311196Y-103667577D01*
X91294533Y-103913240D01*
X90375000Y-103913240D01*
X90375000Y-102989160D01*
X91787904Y-102989160D01*
X92550000Y-103751256D01*
X93312096Y-102989160D01*
X93215704Y-102809872D01*
X92995117Y-102700466D01*
X92757423Y-102636196D01*
X92511760Y-102619533D01*
X92267565Y-102651117D01*
X92034224Y-102729734D01*
X91884296Y-102809872D01*
X91787904Y-102989160D01*
X90375000Y-102989160D01*
X90375000Y-102426131D01*
X94550000Y-102426131D01*
X94550000Y-102573869D01*
X94578822Y-102718767D01*
X94635359Y-102855258D01*
X94717437Y-102978097D01*
X94821903Y-103082563D01*
X94944742Y-103164641D01*
X95081233Y-103221178D01*
X95091311Y-103223183D01*
X95084007Y-103237720D01*
X95013270Y-103494066D01*
X94993902Y-103759286D01*
X95026648Y-104023189D01*
X95110249Y-104275633D01*
X95203397Y-104449900D01*
X95392922Y-104558334D01*
X96226256Y-103725000D01*
X96473744Y-103725000D01*
X97307078Y-104558334D01*
X97496603Y-104449900D01*
X97615993Y-104212280D01*
X97686730Y-103955934D01*
X97706098Y-103690714D01*
X97673352Y-103426811D01*
X97589751Y-103174367D01*
X97496603Y-103000100D01*
X97307078Y-102891666D01*
X96473744Y-103725000D01*
X96226256Y-103725000D01*
X96212114Y-103710858D01*
X96335858Y-103587114D01*
X96350000Y-103601256D01*
X97183334Y-102767922D01*
X97074900Y-102578397D01*
X96837280Y-102459007D01*
X96580934Y-102388270D01*
X96315714Y-102368902D01*
X96051811Y-102401648D01*
X96045543Y-102403724D01*
X96021178Y-102281233D01*
X95964641Y-102144742D01*
X95882563Y-102021903D01*
X95778097Y-101917437D01*
X95655258Y-101835359D01*
X95518767Y-101778822D01*
X95373869Y-101750000D01*
X95226131Y-101750000D01*
X95081233Y-101778822D01*
X94944742Y-101835359D01*
X94821903Y-101917437D01*
X94717437Y-102021903D01*
X94635359Y-102144742D01*
X94578822Y-102281233D01*
X94550000Y-102426131D01*
X90375000Y-102426131D01*
X90375000Y-97426131D01*
X94550000Y-97426131D01*
X94550000Y-97573869D01*
X94578822Y-97718767D01*
X94635359Y-97855258D01*
X94717437Y-97978097D01*
X94821903Y-98082563D01*
X94944742Y-98164641D01*
X95081233Y-98221178D01*
X95226131Y-98250000D01*
X95373869Y-98250000D01*
X95518767Y-98221178D01*
X95655258Y-98164641D01*
X95778097Y-98082563D01*
X95882563Y-97978097D01*
X95964641Y-97855258D01*
X96021178Y-97718767D01*
X96046455Y-97591693D01*
X96119066Y-97611730D01*
X96384286Y-97631098D01*
X96648189Y-97598352D01*
X96900633Y-97514751D01*
X97074900Y-97421603D01*
X97183334Y-97232078D01*
X96350000Y-96398744D01*
X96335858Y-96412886D01*
X96212114Y-96289142D01*
X96226256Y-96275000D01*
X96473744Y-96275000D01*
X97307078Y-97108334D01*
X97496603Y-96999900D01*
X97615993Y-96762280D01*
X97686730Y-96505934D01*
X97706098Y-96240714D01*
X97673352Y-95976811D01*
X97589751Y-95724367D01*
X97496603Y-95550100D01*
X97307078Y-95441666D01*
X96473744Y-96275000D01*
X96226256Y-96275000D01*
X95392922Y-95441666D01*
X95203397Y-95550100D01*
X95084007Y-95787720D01*
X95013270Y-96044066D01*
X94993902Y-96309286D01*
X95026648Y-96573189D01*
X95093912Y-96776300D01*
X95081233Y-96778822D01*
X94944742Y-96835359D01*
X94821903Y-96917437D01*
X94717437Y-97021903D01*
X94635359Y-97144742D01*
X94578822Y-97281233D01*
X94550000Y-97426131D01*
X90375000Y-97426131D01*
X90375000Y-97010840D01*
X91787904Y-97010840D01*
X91884296Y-97190128D01*
X92104883Y-97299534D01*
X92342577Y-97363804D01*
X92588240Y-97380467D01*
X92832435Y-97348883D01*
X93065776Y-97270266D01*
X93215704Y-97190128D01*
X93312096Y-97010840D01*
X92550000Y-96248744D01*
X91787904Y-97010840D01*
X90375000Y-97010840D01*
X90375000Y-96163240D01*
X91294533Y-96163240D01*
X91326117Y-96407435D01*
X91404734Y-96640776D01*
X91484872Y-96790704D01*
X91664160Y-96887096D01*
X92426256Y-96125000D01*
X92673744Y-96125000D01*
X93435840Y-96887096D01*
X93615128Y-96790704D01*
X93724534Y-96570117D01*
X93788804Y-96332423D01*
X93805467Y-96086760D01*
X93773883Y-95842565D01*
X93695266Y-95609224D01*
X93615128Y-95459296D01*
X93435840Y-95362904D01*
X92673744Y-96125000D01*
X92426256Y-96125000D01*
X91664160Y-95362904D01*
X91484872Y-95459296D01*
X91375466Y-95679883D01*
X91311196Y-95917577D01*
X91294533Y-96163240D01*
X90375000Y-96163240D01*
X90375000Y-95239160D01*
X91787904Y-95239160D01*
X92550000Y-96001256D01*
X93233334Y-95317922D01*
X95516666Y-95317922D01*
X96350000Y-96151256D01*
X97183334Y-95317922D01*
X97074900Y-95128397D01*
X96837280Y-95009007D01*
X96580934Y-94938270D01*
X96315714Y-94918902D01*
X96051811Y-94951648D01*
X95799367Y-95035249D01*
X95625100Y-95128397D01*
X95516666Y-95317922D01*
X93233334Y-95317922D01*
X93312096Y-95239160D01*
X93215704Y-95059872D01*
X92995117Y-94950466D01*
X92757423Y-94886196D01*
X92511760Y-94869533D01*
X92267565Y-94901117D01*
X92034224Y-94979734D01*
X91884296Y-95059872D01*
X91787904Y-95239160D01*
X90375000Y-95239160D01*
X90375000Y-92516696D01*
X90449562Y-91681248D01*
X90666468Y-90888372D01*
X91020351Y-90146442D01*
X91500027Y-89478902D01*
X92090329Y-88906860D01*
X92772609Y-88448387D01*
X93525289Y-88117984D01*
X94327470Y-87925397D01*
X95013751Y-87875000D01*
X109318819Y-87875000D01*
X109302861Y-87913525D01*
%TA.AperFunction,Conductor*%
D18*
G36*
X109302861Y-87913525D02*
G01*
X109275000Y-88053594D01*
X109275000Y-88196406D01*
X109302861Y-88336475D01*
X109357513Y-88468416D01*
X109436856Y-88587161D01*
X109537839Y-88688144D01*
X109656584Y-88767487D01*
X109788525Y-88822139D01*
X109928594Y-88850000D01*
X110071406Y-88850000D01*
X110211475Y-88822139D01*
X110343416Y-88767487D01*
X110462161Y-88688144D01*
X110563144Y-88587161D01*
X110642487Y-88468416D01*
X110697139Y-88336475D01*
X110725000Y-88196406D01*
X110725000Y-88053594D01*
X110697139Y-87913525D01*
X110681181Y-87875000D01*
X119318819Y-87875000D01*
X119302861Y-87913525D01*
X119275000Y-88053594D01*
X119275000Y-88196406D01*
X119302861Y-88336475D01*
X119357513Y-88468416D01*
X119436856Y-88587161D01*
X119537839Y-88688144D01*
X119656584Y-88767487D01*
X119788525Y-88822139D01*
X119928594Y-88850000D01*
X120071406Y-88850000D01*
X120211475Y-88822139D01*
X120343416Y-88767487D01*
X120462161Y-88688144D01*
X120563144Y-88587161D01*
X120642487Y-88468416D01*
X120697139Y-88336475D01*
X120725000Y-88196406D01*
X120725000Y-88053594D01*
X120697139Y-87913525D01*
X120681181Y-87875000D01*
X129318819Y-87875000D01*
X129302861Y-87913525D01*
X129275000Y-88053594D01*
X129275000Y-88196406D01*
X129302861Y-88336475D01*
X129357513Y-88468416D01*
X129436856Y-88587161D01*
X129537839Y-88688144D01*
X129656584Y-88767487D01*
X129788525Y-88822139D01*
X129928594Y-88850000D01*
X130071406Y-88850000D01*
X130211475Y-88822139D01*
X130343416Y-88767487D01*
X130462161Y-88688144D01*
X130563144Y-88587161D01*
X130642487Y-88468416D01*
X130697139Y-88336475D01*
X130725000Y-88196406D01*
X130725000Y-88053594D01*
X130697139Y-87913525D01*
X130681181Y-87875000D01*
X139983304Y-87875000D01*
X140818752Y-87949562D01*
X141611628Y-88166468D01*
X142353558Y-88520351D01*
X143021098Y-89000027D01*
X143593140Y-89590329D01*
X144051613Y-90272609D01*
X144382016Y-91025289D01*
X144574603Y-91827470D01*
X144625001Y-92513765D01*
X144625000Y-107983304D01*
X144550438Y-108818752D01*
X144333533Y-109611622D01*
X143979649Y-110353558D01*
X143499973Y-111021098D01*
X142909671Y-111593140D01*
X142227391Y-112051613D01*
X141474714Y-112382015D01*
X140672530Y-112574603D01*
X139986249Y-112625000D01*
X95016696Y-112625000D01*
X94181248Y-112550438D01*
X93388378Y-112333533D01*
X92646442Y-111979649D01*
X91978902Y-111499973D01*
X91406860Y-110909671D01*
X90948387Y-110227391D01*
X90617985Y-109474714D01*
X90425397Y-108672530D01*
X90375000Y-107986249D01*
X90375000Y-107685981D01*
X96100000Y-107685981D01*
X96100000Y-107814019D01*
X96124979Y-107939598D01*
X96173978Y-108057890D01*
X96245112Y-108164351D01*
X96335649Y-108254888D01*
X96442110Y-108326022D01*
X96560402Y-108375021D01*
X96685981Y-108400000D01*
X96814019Y-108400000D01*
X96939598Y-108375021D01*
X97057890Y-108326022D01*
X97164351Y-108254888D01*
X97254888Y-108164351D01*
X97326022Y-108057890D01*
X97375021Y-107939598D01*
X97388548Y-107871591D01*
X97910141Y-107349999D01*
X107702114Y-107349999D01*
X107745112Y-107414351D01*
X107835649Y-107504888D01*
X107942110Y-107576022D01*
X108060402Y-107625021D01*
X108185981Y-107650000D01*
X108314019Y-107650000D01*
X108439598Y-107625021D01*
X108557890Y-107576022D01*
X108664351Y-107504888D01*
X108712501Y-107456738D01*
X108712500Y-109152001D01*
X108681388Y-109155065D01*
X108615413Y-109175078D01*
X108554610Y-109207578D01*
X108501315Y-109251315D01*
X108457578Y-109304610D01*
X108425078Y-109365413D01*
X108405065Y-109431388D01*
X108398307Y-109500000D01*
X108398307Y-110350001D01*
X106360141Y-110350001D01*
X106138548Y-110128409D01*
X106125021Y-110060402D01*
X106076022Y-109942110D01*
X106004888Y-109835649D01*
X105914351Y-109745112D01*
X105807890Y-109673978D01*
X105689598Y-109624979D01*
X105564019Y-109600000D01*
X105435981Y-109600000D01*
X105310402Y-109624979D01*
X105192110Y-109673978D01*
X105085649Y-109745112D01*
X104995112Y-109835649D01*
X104923978Y-109942110D01*
X104874979Y-110060402D01*
X104850000Y-110185981D01*
X104850000Y-110314019D01*
X104874979Y-110439598D01*
X104923978Y-110557890D01*
X104995112Y-110664351D01*
X105085649Y-110754888D01*
X105192110Y-110826022D01*
X105310402Y-110875021D01*
X105378409Y-110888548D01*
X105738768Y-111248908D01*
X105755593Y-111269409D01*
X105776093Y-111286233D01*
X105776097Y-111286237D01*
X105815527Y-111318596D01*
X105837438Y-111336578D01*
X105873318Y-111355756D01*
X105930813Y-111386488D01*
X106032132Y-111417223D01*
X106041404Y-111418136D01*
X106111103Y-111425001D01*
X106111111Y-111425001D01*
X106137501Y-111427600D01*
X106163891Y-111425001D01*
X116336111Y-111425001D01*
X116362499Y-111427600D01*
X116388887Y-111425001D01*
X116388897Y-111425001D01*
X116467867Y-111417223D01*
X116569186Y-111386488D01*
X116662562Y-111336578D01*
X116744407Y-111269409D01*
X116761236Y-111248903D01*
X117158446Y-110851693D01*
X117750000Y-110851693D01*
X117818612Y-110844935D01*
X117884587Y-110824922D01*
X117945390Y-110792422D01*
X117998685Y-110748685D01*
X118042422Y-110695390D01*
X118074922Y-110634587D01*
X118094935Y-110568612D01*
X118101693Y-110500000D01*
X118398306Y-110500000D01*
X118405064Y-110568612D01*
X118425077Y-110634587D01*
X118457577Y-110695391D01*
X118501315Y-110748685D01*
X118554609Y-110792423D01*
X118615413Y-110824923D01*
X118681388Y-110844936D01*
X118750000Y-110851694D01*
X119075000Y-110850000D01*
X119162500Y-110762500D01*
X119162500Y-110087500D01*
X119337500Y-110087500D01*
X119337500Y-110762500D01*
X119425000Y-110850000D01*
X119750000Y-110851694D01*
X119818612Y-110844936D01*
X119884587Y-110824923D01*
X119945391Y-110792423D01*
X119998685Y-110748685D01*
X120042423Y-110695391D01*
X120074923Y-110634587D01*
X120094936Y-110568612D01*
X120101694Y-110500000D01*
X120100000Y-110175000D01*
X120012500Y-110087500D01*
X119337500Y-110087500D01*
X119162500Y-110087500D01*
X118487500Y-110087500D01*
X118400000Y-110175000D01*
X118398306Y-110500000D01*
X118101693Y-110500000D01*
X118101693Y-109500000D01*
X118398306Y-109500000D01*
X118400000Y-109825000D01*
X118487500Y-109912500D01*
X119162500Y-109912500D01*
X119162500Y-109237500D01*
X119337500Y-109237500D01*
X119337500Y-109912500D01*
X120012500Y-109912500D01*
X120100000Y-109825000D01*
X120101694Y-109500000D01*
X120094936Y-109431388D01*
X120074923Y-109365413D01*
X120042423Y-109304609D01*
X119998685Y-109251315D01*
X119945391Y-109207577D01*
X119884587Y-109175077D01*
X119818612Y-109155064D01*
X119750000Y-109148306D01*
X119425000Y-109150000D01*
X119337500Y-109237500D01*
X119162500Y-109237500D01*
X119075000Y-109150000D01*
X118750000Y-109148306D01*
X118681388Y-109155064D01*
X118615413Y-109175077D01*
X118554609Y-109207577D01*
X118501315Y-109251315D01*
X118457577Y-109304609D01*
X118425077Y-109365413D01*
X118405064Y-109431388D01*
X118398306Y-109500000D01*
X118101693Y-109500000D01*
X118094935Y-109431388D01*
X118074922Y-109365413D01*
X118042422Y-109304610D01*
X117998685Y-109251315D01*
X117945390Y-109207578D01*
X117884587Y-109175078D01*
X117818612Y-109155065D01*
X117750000Y-109148307D01*
X116750000Y-109148307D01*
X116681388Y-109155065D01*
X116615413Y-109175078D01*
X116554610Y-109207578D01*
X116501315Y-109251315D01*
X116457578Y-109304610D01*
X116425078Y-109365413D01*
X116405065Y-109431388D01*
X116398307Y-109500000D01*
X116398307Y-110091554D01*
X116139860Y-110350001D01*
X116101693Y-110350001D01*
X116101693Y-109500000D01*
X116094935Y-109431388D01*
X116074922Y-109365413D01*
X116042422Y-109304610D01*
X115998685Y-109251315D01*
X115945390Y-109207578D01*
X115884587Y-109175078D01*
X115818612Y-109155065D01*
X115787500Y-109152001D01*
X115787500Y-106526390D01*
X115790099Y-106500000D01*
X115787500Y-106473610D01*
X115787500Y-106473602D01*
X115779722Y-106394632D01*
X115777891Y-106388596D01*
X115748987Y-106293312D01*
X115709949Y-106220278D01*
X115699077Y-106199937D01*
X115688394Y-106186919D01*
X115648736Y-106138596D01*
X115648732Y-106138592D01*
X115631908Y-106118092D01*
X115611408Y-106101268D01*
X113115716Y-103605577D01*
X113102189Y-103537570D01*
X113053190Y-103419278D01*
X112982056Y-103312817D01*
X112891519Y-103222280D01*
X112785058Y-103151146D01*
X112723062Y-103125466D01*
X115104652Y-100743877D01*
X115218767Y-100721178D01*
X115355258Y-100664641D01*
X115462501Y-100592984D01*
X115462500Y-102634457D01*
X115423978Y-102692110D01*
X115374979Y-102810402D01*
X115350000Y-102935981D01*
X115350000Y-103064019D01*
X115374979Y-103189598D01*
X115423978Y-103307890D01*
X115495112Y-103414351D01*
X115585649Y-103504888D01*
X115692110Y-103576022D01*
X115810402Y-103625021D01*
X115935981Y-103650000D01*
X116064019Y-103650000D01*
X116108934Y-103641066D01*
X116100000Y-103685981D01*
X116100000Y-103814019D01*
X116124979Y-103939598D01*
X116173978Y-104057890D01*
X116245112Y-104164351D01*
X116335649Y-104254888D01*
X116442110Y-104326022D01*
X116560402Y-104375021D01*
X116685981Y-104400000D01*
X116814019Y-104400000D01*
X116939598Y-104375021D01*
X117057890Y-104326022D01*
X117164351Y-104254888D01*
X117254888Y-104164351D01*
X117326022Y-104057890D01*
X117375021Y-103939598D01*
X117400000Y-103814019D01*
X117400000Y-103685981D01*
X117375021Y-103560402D01*
X117326022Y-103442110D01*
X117287500Y-103384457D01*
X117287500Y-100685981D01*
X122600000Y-100685981D01*
X122600000Y-100814019D01*
X122624979Y-100939598D01*
X122673978Y-101057890D01*
X122745112Y-101164351D01*
X122835649Y-101254888D01*
X122942110Y-101326022D01*
X123060402Y-101375021D01*
X123128409Y-101388548D01*
X128712500Y-106972639D01*
X128712501Y-108634456D01*
X128673978Y-108692110D01*
X128624979Y-108810402D01*
X128600000Y-108935981D01*
X128600000Y-109064019D01*
X128624979Y-109189598D01*
X128673978Y-109307890D01*
X128745112Y-109414351D01*
X128835649Y-109504888D01*
X128942110Y-109576022D01*
X129060402Y-109625021D01*
X129185981Y-109650000D01*
X129314019Y-109650000D01*
X129439598Y-109625021D01*
X129557890Y-109576022D01*
X129664351Y-109504888D01*
X129754888Y-109414351D01*
X129826022Y-109307890D01*
X129875021Y-109189598D01*
X129900000Y-109064019D01*
X129900000Y-108935981D01*
X129875021Y-108810402D01*
X129826022Y-108692110D01*
X129787500Y-108634457D01*
X129787500Y-106776387D01*
X129790099Y-106749999D01*
X129787500Y-106723611D01*
X129787500Y-106723602D01*
X129779722Y-106644632D01*
X129748987Y-106543313D01*
X129699077Y-106449937D01*
X129631908Y-106368092D01*
X129611402Y-106351263D01*
X123888548Y-100628409D01*
X123875021Y-100560402D01*
X123826022Y-100442110D01*
X123754888Y-100335649D01*
X123664351Y-100245112D01*
X123557890Y-100173978D01*
X123439598Y-100124979D01*
X123314019Y-100100000D01*
X123185981Y-100100000D01*
X123060402Y-100124979D01*
X122942110Y-100173978D01*
X122835649Y-100245112D01*
X122745112Y-100335649D01*
X122673978Y-100442110D01*
X122624979Y-100560402D01*
X122600000Y-100685981D01*
X117287500Y-100685981D01*
X117287500Y-98526390D01*
X117290099Y-98500000D01*
X117287500Y-98473610D01*
X117287500Y-98473602D01*
X117279722Y-98394632D01*
X117279722Y-98394631D01*
X117248987Y-98293312D01*
X117199076Y-98199936D01*
X117148736Y-98138596D01*
X117148732Y-98138592D01*
X117131908Y-98118092D01*
X117111408Y-98101268D01*
X116148737Y-97138598D01*
X116131908Y-97118092D01*
X116050063Y-97050923D01*
X115956687Y-97001013D01*
X115855368Y-96970278D01*
X115776398Y-96962500D01*
X115776388Y-96962500D01*
X115750000Y-96959901D01*
X115723612Y-96962500D01*
X104865543Y-96962500D01*
X104807890Y-96923978D01*
X104689598Y-96874979D01*
X104564019Y-96850000D01*
X104435981Y-96850000D01*
X104310402Y-96874979D01*
X104192110Y-96923978D01*
X104085649Y-96995112D01*
X103995112Y-97085649D01*
X103923978Y-97192110D01*
X103874979Y-97310402D01*
X103850000Y-97435981D01*
X103850000Y-97564019D01*
X103867103Y-97650001D01*
X102910140Y-97650001D01*
X102398737Y-97138598D01*
X102381908Y-97118092D01*
X102300063Y-97050923D01*
X102206687Y-97001013D01*
X102105368Y-96970278D01*
X102026398Y-96962500D01*
X102026388Y-96962500D01*
X102000000Y-96959901D01*
X101973612Y-96962500D01*
X101365543Y-96962500D01*
X101307890Y-96923978D01*
X101189598Y-96874979D01*
X101064019Y-96850000D01*
X100935981Y-96850000D01*
X100810402Y-96874979D01*
X100692110Y-96923978D01*
X100585649Y-96995112D01*
X100495112Y-97085649D01*
X100423978Y-97192110D01*
X100374979Y-97310402D01*
X100350000Y-97435981D01*
X100350000Y-94998527D01*
X100412546Y-94935981D01*
X108600000Y-94935981D01*
X108600000Y-95064019D01*
X108624979Y-95189598D01*
X108673978Y-95307890D01*
X108745112Y-95414351D01*
X108835649Y-95504888D01*
X108942110Y-95576022D01*
X109060402Y-95625021D01*
X109185981Y-95650000D01*
X109314019Y-95650000D01*
X109439598Y-95625021D01*
X109557890Y-95576022D01*
X109664351Y-95504888D01*
X109754888Y-95414351D01*
X109826022Y-95307890D01*
X109875021Y-95189598D01*
X109888548Y-95121591D01*
X110222639Y-94787500D01*
X122277361Y-94787500D01*
X134962500Y-107472639D01*
X134962501Y-108384456D01*
X134923978Y-108442110D01*
X134874979Y-108560402D01*
X134850000Y-108685981D01*
X134850000Y-108814019D01*
X134874979Y-108939598D01*
X134923978Y-109057890D01*
X134995112Y-109164351D01*
X135085649Y-109254888D01*
X135192110Y-109326022D01*
X135310402Y-109375021D01*
X135435981Y-109400000D01*
X135564019Y-109400000D01*
X135689598Y-109375021D01*
X135807890Y-109326022D01*
X135914351Y-109254888D01*
X136004888Y-109164351D01*
X136076022Y-109057890D01*
X136125021Y-108939598D01*
X136150000Y-108814019D01*
X136150000Y-108685981D01*
X136125021Y-108560402D01*
X136076022Y-108442110D01*
X136037500Y-108384457D01*
X136037500Y-107276387D01*
X136040099Y-107249999D01*
X136037500Y-107223611D01*
X136037500Y-107223602D01*
X136029722Y-107144632D01*
X135998987Y-107043313D01*
X135949077Y-106949937D01*
X135881908Y-106868092D01*
X135861402Y-106851263D01*
X128891949Y-99881810D01*
X134300000Y-99881810D01*
X134300000Y-100118190D01*
X134346116Y-100350027D01*
X134436574Y-100568413D01*
X134567899Y-100764955D01*
X134735045Y-100932101D01*
X134931587Y-101063426D01*
X135149973Y-101153884D01*
X135381810Y-101200000D01*
X135618190Y-101200000D01*
X135850027Y-101153884D01*
X136068413Y-101063426D01*
X136264955Y-100932101D01*
X136432101Y-100764955D01*
X136563426Y-100568413D01*
X136653884Y-100350027D01*
X136700000Y-100118190D01*
X136700000Y-99881810D01*
X141300000Y-99881810D01*
X141300000Y-100118190D01*
X141346116Y-100350027D01*
X141436574Y-100568413D01*
X141567899Y-100764955D01*
X141735045Y-100932101D01*
X141931587Y-101063426D01*
X142149973Y-101153884D01*
X142381810Y-101200000D01*
X142618190Y-101200000D01*
X142850027Y-101153884D01*
X143068413Y-101063426D01*
X143264955Y-100932101D01*
X143432101Y-100764955D01*
X143563426Y-100568413D01*
X143653884Y-100350027D01*
X143700000Y-100118190D01*
X143700000Y-99881810D01*
X143653884Y-99649973D01*
X143563426Y-99431587D01*
X143432101Y-99235045D01*
X143264955Y-99067899D01*
X143068413Y-98936574D01*
X142850027Y-98846116D01*
X142618190Y-98800000D01*
X142381810Y-98800000D01*
X142149973Y-98846116D01*
X141931587Y-98936574D01*
X141735045Y-99067899D01*
X141567899Y-99235045D01*
X141436574Y-99431587D01*
X141346116Y-99649973D01*
X141300000Y-99881810D01*
X136700000Y-99881810D01*
X136653884Y-99649973D01*
X136563426Y-99431587D01*
X136432101Y-99235045D01*
X136264955Y-99067899D01*
X136068413Y-98936574D01*
X135850027Y-98846116D01*
X135618190Y-98800000D01*
X135381810Y-98800000D01*
X135149973Y-98846116D01*
X134931587Y-98936574D01*
X134735045Y-99067899D01*
X134567899Y-99235045D01*
X134436574Y-99431587D01*
X134346116Y-99649973D01*
X134300000Y-99881810D01*
X128891949Y-99881810D01*
X122898737Y-93888598D01*
X122881908Y-93868092D01*
X122800063Y-93800923D01*
X122706687Y-93751013D01*
X122605368Y-93720278D01*
X122526398Y-93712500D01*
X122526388Y-93712500D01*
X122500000Y-93709901D01*
X122473612Y-93712500D01*
X110026387Y-93712500D01*
X109999999Y-93709901D01*
X109973611Y-93712500D01*
X109973602Y-93712500D01*
X109894632Y-93720278D01*
X109793313Y-93751013D01*
X109699937Y-93800923D01*
X109618092Y-93868092D01*
X109601263Y-93888598D01*
X109128409Y-94361452D01*
X109060402Y-94374979D01*
X108942110Y-94423978D01*
X108835649Y-94495112D01*
X108745112Y-94585649D01*
X108673978Y-94692110D01*
X108624979Y-94810402D01*
X108600000Y-94935981D01*
X100412546Y-94935981D01*
X101903419Y-93445109D01*
X101926317Y-93426317D01*
X102001296Y-93334955D01*
X102057010Y-93230721D01*
X102091318Y-93117621D01*
X102100000Y-93029474D01*
X102102903Y-93000000D01*
X102100000Y-92970526D01*
X102100000Y-90803594D01*
X109275000Y-90803594D01*
X109275000Y-90946406D01*
X109302861Y-91086475D01*
X109357513Y-91218416D01*
X109436856Y-91337161D01*
X109537839Y-91438144D01*
X109656584Y-91517487D01*
X109788525Y-91572139D01*
X109928594Y-91600000D01*
X110071406Y-91600000D01*
X110211475Y-91572139D01*
X110343416Y-91517487D01*
X110462161Y-91438144D01*
X110563144Y-91337161D01*
X110642487Y-91218416D01*
X110697139Y-91086475D01*
X110725000Y-90946406D01*
X110725000Y-90803594D01*
X119275000Y-90803594D01*
X119275000Y-90946406D01*
X119302861Y-91086475D01*
X119357513Y-91218416D01*
X119436856Y-91337161D01*
X119537839Y-91438144D01*
X119656584Y-91517487D01*
X119788525Y-91572139D01*
X119928594Y-91600000D01*
X120071406Y-91600000D01*
X120211475Y-91572139D01*
X120343416Y-91517487D01*
X120462161Y-91438144D01*
X120563144Y-91337161D01*
X120642487Y-91218416D01*
X120697139Y-91086475D01*
X120725000Y-90946406D01*
X120725000Y-90803594D01*
X129275000Y-90803594D01*
X129275000Y-90946406D01*
X129302861Y-91086475D01*
X129357513Y-91218416D01*
X129436856Y-91337161D01*
X129537839Y-91438144D01*
X129656584Y-91517487D01*
X129788525Y-91572139D01*
X129928594Y-91600000D01*
X130071406Y-91600000D01*
X130211475Y-91572139D01*
X130343416Y-91517487D01*
X130462161Y-91438144D01*
X130563144Y-91337161D01*
X130642487Y-91218416D01*
X130697139Y-91086475D01*
X130725000Y-90946406D01*
X130725000Y-90803594D01*
X130697139Y-90663525D01*
X130642487Y-90531584D01*
X130563144Y-90412839D01*
X130462161Y-90311856D01*
X130343416Y-90232513D01*
X130211475Y-90177861D01*
X130071406Y-90150000D01*
X129928594Y-90150000D01*
X129788525Y-90177861D01*
X129656584Y-90232513D01*
X129537839Y-90311856D01*
X129436856Y-90412839D01*
X129357513Y-90531584D01*
X129302861Y-90663525D01*
X129275000Y-90803594D01*
X120725000Y-90803594D01*
X120697139Y-90663525D01*
X120642487Y-90531584D01*
X120563144Y-90412839D01*
X120462161Y-90311856D01*
X120343416Y-90232513D01*
X120211475Y-90177861D01*
X120071406Y-90150000D01*
X119928594Y-90150000D01*
X119788525Y-90177861D01*
X119656584Y-90232513D01*
X119537839Y-90311856D01*
X119436856Y-90412839D01*
X119357513Y-90531584D01*
X119302861Y-90663525D01*
X119275000Y-90803594D01*
X110725000Y-90803594D01*
X110697139Y-90663525D01*
X110642487Y-90531584D01*
X110563144Y-90412839D01*
X110462161Y-90311856D01*
X110343416Y-90232513D01*
X110211475Y-90177861D01*
X110071406Y-90150000D01*
X109928594Y-90150000D01*
X109788525Y-90177861D01*
X109656584Y-90232513D01*
X109537839Y-90311856D01*
X109436856Y-90412839D01*
X109357513Y-90531584D01*
X109302861Y-90663525D01*
X109275000Y-90803594D01*
X102100000Y-90803594D01*
X102100000Y-90037500D01*
X103634457Y-90037500D01*
X103692110Y-90076022D01*
X103810402Y-90125021D01*
X103935981Y-90150000D01*
X104064019Y-90150000D01*
X104189598Y-90125021D01*
X104307890Y-90076022D01*
X104365543Y-90037500D01*
X113634457Y-90037500D01*
X113692110Y-90076022D01*
X113810402Y-90125021D01*
X113935981Y-90150000D01*
X114064019Y-90150000D01*
X114189598Y-90125021D01*
X114307890Y-90076022D01*
X114365543Y-90037500D01*
X123634457Y-90037500D01*
X123692110Y-90076022D01*
X123810402Y-90125021D01*
X123935981Y-90150000D01*
X124064019Y-90150000D01*
X124189598Y-90125021D01*
X124307890Y-90076022D01*
X124414351Y-90004888D01*
X124504888Y-89914351D01*
X124576022Y-89807890D01*
X124625021Y-89689598D01*
X124650000Y-89564019D01*
X124650000Y-89435981D01*
X124625021Y-89310402D01*
X124576022Y-89192110D01*
X124504888Y-89085649D01*
X124414351Y-88995112D01*
X124307890Y-88923978D01*
X124189598Y-88874979D01*
X124064019Y-88850000D01*
X123935981Y-88850000D01*
X123810402Y-88874979D01*
X123692110Y-88923978D01*
X123634457Y-88962500D01*
X114365543Y-88962500D01*
X114307890Y-88923978D01*
X114189598Y-88874979D01*
X114064019Y-88850000D01*
X113935981Y-88850000D01*
X113810402Y-88874979D01*
X113692110Y-88923978D01*
X113634457Y-88962500D01*
X104365543Y-88962500D01*
X104307890Y-88923978D01*
X104189598Y-88874979D01*
X104064019Y-88850000D01*
X103935981Y-88850000D01*
X103810402Y-88874979D01*
X103692110Y-88923978D01*
X103634457Y-88962500D01*
X101865543Y-88962500D01*
X101807890Y-88923978D01*
X101689598Y-88874979D01*
X101564019Y-88850000D01*
X101435981Y-88850000D01*
X101310402Y-88874979D01*
X101192110Y-88923978D01*
X101085649Y-88995112D01*
X100995112Y-89085649D01*
X100923978Y-89192110D01*
X100874979Y-89310402D01*
X100850000Y-89435981D01*
X100850000Y-89564019D01*
X100874979Y-89689598D01*
X100900000Y-89750003D01*
X100900001Y-92751471D01*
X99346586Y-94304887D01*
X99323683Y-94323683D01*
X99248704Y-94415046D01*
X99192990Y-94519280D01*
X99165045Y-94611403D01*
X99158682Y-94632380D01*
X99147097Y-94750000D01*
X99150000Y-94779474D01*
X99150001Y-102720516D01*
X99147097Y-102750000D01*
X99150000Y-102779474D01*
X99150001Y-105220517D01*
X99147097Y-105250000D01*
X99158682Y-105367620D01*
X99192991Y-105480721D01*
X99248705Y-105584955D01*
X99323684Y-105676317D01*
X99346581Y-105695108D01*
X99756123Y-106104650D01*
X99778822Y-106218767D01*
X99802114Y-106274999D01*
X97713891Y-106274999D01*
X97687501Y-106272400D01*
X97661111Y-106274999D01*
X97661103Y-106274999D01*
X97591404Y-106281864D01*
X97582132Y-106282777D01*
X97480813Y-106313512D01*
X97430903Y-106340190D01*
X97387438Y-106363422D01*
X97387436Y-106363423D01*
X97387437Y-106363423D01*
X97326097Y-106413763D01*
X97326093Y-106413767D01*
X97305593Y-106430591D01*
X97288769Y-106451092D01*
X96628409Y-107111452D01*
X96560402Y-107124979D01*
X96442110Y-107173978D01*
X96335649Y-107245112D01*
X96245112Y-107335649D01*
X96173978Y-107442110D01*
X96124979Y-107560402D01*
X96100000Y-107685981D01*
X90375000Y-107685981D01*
X90375000Y-104760840D01*
X91787904Y-104760840D01*
X91884296Y-104940128D01*
X92104883Y-105049534D01*
X92342577Y-105113804D01*
X92588240Y-105130467D01*
X92832435Y-105098883D01*
X93065776Y-105020266D01*
X93215704Y-104940128D01*
X93312096Y-104760840D01*
X93233334Y-104682078D01*
X95516666Y-104682078D01*
X95625100Y-104871603D01*
X95862720Y-104990993D01*
X96119066Y-105061730D01*
X96384286Y-105081098D01*
X96648189Y-105048352D01*
X96900633Y-104964751D01*
X97074900Y-104871603D01*
X97183334Y-104682078D01*
X96350000Y-103848744D01*
X95516666Y-104682078D01*
X93233334Y-104682078D01*
X92550000Y-103998744D01*
X91787904Y-104760840D01*
X90375000Y-104760840D01*
X90375000Y-103913240D01*
X91294533Y-103913240D01*
X91326117Y-104157435D01*
X91404734Y-104390776D01*
X91484872Y-104540704D01*
X91664160Y-104637096D01*
X92426256Y-103875000D01*
X92673744Y-103875000D01*
X93435840Y-104637096D01*
X93615128Y-104540704D01*
X93724534Y-104320117D01*
X93788804Y-104082423D01*
X93805467Y-103836760D01*
X93773883Y-103592565D01*
X93695266Y-103359224D01*
X93615128Y-103209296D01*
X93435840Y-103112904D01*
X92673744Y-103875000D01*
X92426256Y-103875000D01*
X91664160Y-103112904D01*
X91484872Y-103209296D01*
X91375466Y-103429883D01*
X91311196Y-103667577D01*
X91294533Y-103913240D01*
X90375000Y-103913240D01*
X90375000Y-102989160D01*
X91787904Y-102989160D01*
X92550000Y-103751256D01*
X93312096Y-102989160D01*
X93215704Y-102809872D01*
X92995117Y-102700466D01*
X92757423Y-102636196D01*
X92511760Y-102619533D01*
X92267565Y-102651117D01*
X92034224Y-102729734D01*
X91884296Y-102809872D01*
X91787904Y-102989160D01*
X90375000Y-102989160D01*
X90375000Y-102426131D01*
X94550000Y-102426131D01*
X94550000Y-102573869D01*
X94578822Y-102718767D01*
X94635359Y-102855258D01*
X94717437Y-102978097D01*
X94821903Y-103082563D01*
X94944742Y-103164641D01*
X95081233Y-103221178D01*
X95091311Y-103223183D01*
X95084007Y-103237720D01*
X95013270Y-103494066D01*
X94993902Y-103759286D01*
X95026648Y-104023189D01*
X95110249Y-104275633D01*
X95203397Y-104449900D01*
X95392922Y-104558334D01*
X96226256Y-103725000D01*
X96473744Y-103725000D01*
X97307078Y-104558334D01*
X97496603Y-104449900D01*
X97615993Y-104212280D01*
X97686730Y-103955934D01*
X97706098Y-103690714D01*
X97673352Y-103426811D01*
X97589751Y-103174367D01*
X97496603Y-103000100D01*
X97307078Y-102891666D01*
X96473744Y-103725000D01*
X96226256Y-103725000D01*
X96212114Y-103710858D01*
X96335858Y-103587114D01*
X96350000Y-103601256D01*
X97183334Y-102767922D01*
X97074900Y-102578397D01*
X96837280Y-102459007D01*
X96580934Y-102388270D01*
X96315714Y-102368902D01*
X96051811Y-102401648D01*
X96045543Y-102403724D01*
X96021178Y-102281233D01*
X95964641Y-102144742D01*
X95882563Y-102021903D01*
X95778097Y-101917437D01*
X95655258Y-101835359D01*
X95518767Y-101778822D01*
X95373869Y-101750000D01*
X95226131Y-101750000D01*
X95081233Y-101778822D01*
X94944742Y-101835359D01*
X94821903Y-101917437D01*
X94717437Y-102021903D01*
X94635359Y-102144742D01*
X94578822Y-102281233D01*
X94550000Y-102426131D01*
X90375000Y-102426131D01*
X90375000Y-97426131D01*
X94550000Y-97426131D01*
X94550000Y-97573869D01*
X94578822Y-97718767D01*
X94635359Y-97855258D01*
X94717437Y-97978097D01*
X94821903Y-98082563D01*
X94944742Y-98164641D01*
X95081233Y-98221178D01*
X95226131Y-98250000D01*
X95373869Y-98250000D01*
X95518767Y-98221178D01*
X95655258Y-98164641D01*
X95778097Y-98082563D01*
X95882563Y-97978097D01*
X95964641Y-97855258D01*
X96021178Y-97718767D01*
X96046455Y-97591693D01*
X96119066Y-97611730D01*
X96384286Y-97631098D01*
X96648189Y-97598352D01*
X96900633Y-97514751D01*
X97074900Y-97421603D01*
X97183334Y-97232078D01*
X96350000Y-96398744D01*
X96335858Y-96412886D01*
X96212114Y-96289142D01*
X96226256Y-96275000D01*
X96473744Y-96275000D01*
X97307078Y-97108334D01*
X97496603Y-96999900D01*
X97615993Y-96762280D01*
X97686730Y-96505934D01*
X97706098Y-96240714D01*
X97673352Y-95976811D01*
X97589751Y-95724367D01*
X97496603Y-95550100D01*
X97307078Y-95441666D01*
X96473744Y-96275000D01*
X96226256Y-96275000D01*
X95392922Y-95441666D01*
X95203397Y-95550100D01*
X95084007Y-95787720D01*
X95013270Y-96044066D01*
X94993902Y-96309286D01*
X95026648Y-96573189D01*
X95093912Y-96776300D01*
X95081233Y-96778822D01*
X94944742Y-96835359D01*
X94821903Y-96917437D01*
X94717437Y-97021903D01*
X94635359Y-97144742D01*
X94578822Y-97281233D01*
X94550000Y-97426131D01*
X90375000Y-97426131D01*
X90375000Y-97010840D01*
X91787904Y-97010840D01*
X91884296Y-97190128D01*
X92104883Y-97299534D01*
X92342577Y-97363804D01*
X92588240Y-97380467D01*
X92832435Y-97348883D01*
X93065776Y-97270266D01*
X93215704Y-97190128D01*
X93312096Y-97010840D01*
X92550000Y-96248744D01*
X91787904Y-97010840D01*
X90375000Y-97010840D01*
X90375000Y-96163240D01*
X91294533Y-96163240D01*
X91326117Y-96407435D01*
X91404734Y-96640776D01*
X91484872Y-96790704D01*
X91664160Y-96887096D01*
X92426256Y-96125000D01*
X92673744Y-96125000D01*
X93435840Y-96887096D01*
X93615128Y-96790704D01*
X93724534Y-96570117D01*
X93788804Y-96332423D01*
X93805467Y-96086760D01*
X93773883Y-95842565D01*
X93695266Y-95609224D01*
X93615128Y-95459296D01*
X93435840Y-95362904D01*
X92673744Y-96125000D01*
X92426256Y-96125000D01*
X91664160Y-95362904D01*
X91484872Y-95459296D01*
X91375466Y-95679883D01*
X91311196Y-95917577D01*
X91294533Y-96163240D01*
X90375000Y-96163240D01*
X90375000Y-95239160D01*
X91787904Y-95239160D01*
X92550000Y-96001256D01*
X93233334Y-95317922D01*
X95516666Y-95317922D01*
X96350000Y-96151256D01*
X97183334Y-95317922D01*
X97074900Y-95128397D01*
X96837280Y-95009007D01*
X96580934Y-94938270D01*
X96315714Y-94918902D01*
X96051811Y-94951648D01*
X95799367Y-95035249D01*
X95625100Y-95128397D01*
X95516666Y-95317922D01*
X93233334Y-95317922D01*
X93312096Y-95239160D01*
X93215704Y-95059872D01*
X92995117Y-94950466D01*
X92757423Y-94886196D01*
X92511760Y-94869533D01*
X92267565Y-94901117D01*
X92034224Y-94979734D01*
X91884296Y-95059872D01*
X91787904Y-95239160D01*
X90375000Y-95239160D01*
X90375000Y-92516696D01*
X90449562Y-91681248D01*
X90666468Y-90888372D01*
X91020351Y-90146442D01*
X91500027Y-89478902D01*
X92090329Y-88906860D01*
X92772609Y-88448387D01*
X93525289Y-88117984D01*
X94327470Y-87925397D01*
X95013751Y-87875000D01*
X109318819Y-87875000D01*
X109302861Y-87913525D01*
G37*
%TD.AperFunction*%
D17*
X100374979Y-97689598D02*
X100423978Y-97807890D01*
X100495112Y-97914351D01*
X100585649Y-98004888D01*
X100692110Y-98076022D01*
X100810402Y-98125021D01*
X100935981Y-98150000D01*
X101064019Y-98150000D01*
X101189598Y-98125021D01*
X101307890Y-98076022D01*
X101365543Y-98037500D01*
X101777361Y-98037500D01*
X102288764Y-98548903D01*
X102305593Y-98569409D01*
X102387438Y-98636578D01*
X102480814Y-98686488D01*
X102582133Y-98717223D01*
X102661103Y-98725001D01*
X102661112Y-98725001D01*
X102687500Y-98727600D01*
X102713888Y-98725001D01*
X115214862Y-98725001D01*
X115462501Y-98972641D01*
X115462501Y-99407016D01*
X115355258Y-99335359D01*
X115218767Y-99278822D01*
X115073869Y-99250000D01*
X114926131Y-99250000D01*
X114781233Y-99278822D01*
X114644742Y-99335359D01*
X114521903Y-99417437D01*
X114417437Y-99521903D01*
X114335359Y-99644742D01*
X114278822Y-99781233D01*
X114256123Y-99895348D01*
X108751473Y-105400000D01*
X100952001Y-105400000D01*
X100855258Y-105335359D01*
X100718767Y-105278822D01*
X100604650Y-105256123D01*
X100350000Y-105001473D01*
X100350000Y-103350000D01*
X100720526Y-103350000D01*
X100750000Y-103352903D01*
X100779474Y-103350000D01*
X100867621Y-103341318D01*
X100980721Y-103307010D01*
X101084955Y-103251296D01*
X101090586Y-103246675D01*
X101218767Y-103221178D01*
X101355258Y-103164641D01*
X101478097Y-103082563D01*
X101582563Y-102978097D01*
X101664641Y-102855258D01*
X101721178Y-102718767D01*
X101750000Y-102573869D01*
X101750000Y-102426131D01*
X101721178Y-102281233D01*
X101664641Y-102144742D01*
X101582563Y-102021903D01*
X101478097Y-101917437D01*
X101355258Y-101835359D01*
X101218767Y-101778822D01*
X101073869Y-101750000D01*
X100926131Y-101750000D01*
X100781233Y-101778822D01*
X100644742Y-101835359D01*
X100521903Y-101917437D01*
X100417437Y-102021903D01*
X100350000Y-102122830D01*
X100350000Y-97564019D01*
X100374979Y-97689598D01*
%TA.AperFunction,Conductor*%
D18*
G36*
X100374979Y-97689598D02*
G01*
X100423978Y-97807890D01*
X100495112Y-97914351D01*
X100585649Y-98004888D01*
X100692110Y-98076022D01*
X100810402Y-98125021D01*
X100935981Y-98150000D01*
X101064019Y-98150000D01*
X101189598Y-98125021D01*
X101307890Y-98076022D01*
X101365543Y-98037500D01*
X101777361Y-98037500D01*
X102288764Y-98548903D01*
X102305593Y-98569409D01*
X102387438Y-98636578D01*
X102480814Y-98686488D01*
X102582133Y-98717223D01*
X102661103Y-98725001D01*
X102661112Y-98725001D01*
X102687500Y-98727600D01*
X102713888Y-98725001D01*
X115214862Y-98725001D01*
X115462501Y-98972641D01*
X115462501Y-99407016D01*
X115355258Y-99335359D01*
X115218767Y-99278822D01*
X115073869Y-99250000D01*
X114926131Y-99250000D01*
X114781233Y-99278822D01*
X114644742Y-99335359D01*
X114521903Y-99417437D01*
X114417437Y-99521903D01*
X114335359Y-99644742D01*
X114278822Y-99781233D01*
X114256123Y-99895348D01*
X108751473Y-105400000D01*
X100952001Y-105400000D01*
X100855258Y-105335359D01*
X100718767Y-105278822D01*
X100604650Y-105256123D01*
X100350000Y-105001473D01*
X100350000Y-103350000D01*
X100720526Y-103350000D01*
X100750000Y-103352903D01*
X100779474Y-103350000D01*
X100867621Y-103341318D01*
X100980721Y-103307010D01*
X101084955Y-103251296D01*
X101090586Y-103246675D01*
X101218767Y-103221178D01*
X101355258Y-103164641D01*
X101478097Y-103082563D01*
X101582563Y-102978097D01*
X101664641Y-102855258D01*
X101721178Y-102718767D01*
X101750000Y-102573869D01*
X101750000Y-102426131D01*
X101721178Y-102281233D01*
X101664641Y-102144742D01*
X101582563Y-102021903D01*
X101478097Y-101917437D01*
X101355258Y-101835359D01*
X101218767Y-101778822D01*
X101073869Y-101750000D01*
X100926131Y-101750000D01*
X100781233Y-101778822D01*
X100644742Y-101835359D01*
X100521903Y-101917437D01*
X100417437Y-102021903D01*
X100350000Y-102122830D01*
X100350000Y-97564019D01*
X100374979Y-97689598D01*
G37*
%TD.AperFunction*%
%TD*%
M02*
