%TF.GenerationSoftware,KiCad,Pcbnew,(5.1.9)-1*%
%TF.CreationDate,2021-12-06T20:25:47-06:00*%
%TF.ProjectId,microkfd,6d696372-6f6b-4666-942e-6b696361645f,A*%
%TF.SameCoordinates,Original*%
%TF.FileFunction,Legend,Bot*%
%TF.FilePolarity,Positive*%
%FSLAX46Y46*%
G04 Gerber Fmt 4.6, Leading zero omitted, Abs format (unit mm)*
G04 Created by KiCad (PCBNEW (5.1.9)-1) date 2021-12-06 20:25:47*
%MOMM*%
%LPD*%
G01*
G04 APERTURE LIST*
%ADD10C,0.150000*%
%ADD11C,0.250000*%
%ADD12C,0.200000*%
%ADD13C,0.010000*%
%ADD14C,0.120000*%
G04 APERTURE END LIST*
D10*
X134414404Y-96202380D02*
X134414404Y-95535714D01*
X134414404Y-95726190D02*
X134366785Y-95630952D01*
X134319166Y-95583333D01*
X134223928Y-95535714D01*
X134128690Y-95535714D01*
X133414404Y-96154761D02*
X133509642Y-96202380D01*
X133700119Y-96202380D01*
X133795357Y-96154761D01*
X133842976Y-96059523D01*
X133842976Y-95678571D01*
X133795357Y-95583333D01*
X133700119Y-95535714D01*
X133509642Y-95535714D01*
X133414404Y-95583333D01*
X133366785Y-95678571D01*
X133366785Y-95773809D01*
X133842976Y-95869047D01*
X133033452Y-95535714D02*
X132795357Y-96202380D01*
X132557261Y-95535714D01*
X131462023Y-95916666D02*
X130985833Y-95916666D01*
X131557261Y-96202380D02*
X131223928Y-95202380D01*
X130890595Y-96202380D01*
X129842976Y-95297619D02*
X129795357Y-95250000D01*
X129700119Y-95202380D01*
X129462023Y-95202380D01*
X129366785Y-95250000D01*
X129319166Y-95297619D01*
X129271547Y-95392857D01*
X129271547Y-95488095D01*
X129319166Y-95630952D01*
X129890595Y-96202380D01*
X129271547Y-96202380D01*
X128652500Y-95202380D02*
X128557261Y-95202380D01*
X128462023Y-95250000D01*
X128414404Y-95297619D01*
X128366785Y-95392857D01*
X128319166Y-95583333D01*
X128319166Y-95821428D01*
X128366785Y-96011904D01*
X128414404Y-96107142D01*
X128462023Y-96154761D01*
X128557261Y-96202380D01*
X128652500Y-96202380D01*
X128747738Y-96154761D01*
X128795357Y-96107142D01*
X128842976Y-96011904D01*
X128890595Y-95821428D01*
X128890595Y-95583333D01*
X128842976Y-95392857D01*
X128795357Y-95297619D01*
X128747738Y-95250000D01*
X128652500Y-95202380D01*
X127938214Y-95297619D02*
X127890595Y-95250000D01*
X127795357Y-95202380D01*
X127557261Y-95202380D01*
X127462023Y-95250000D01*
X127414404Y-95297619D01*
X127366785Y-95392857D01*
X127366785Y-95488095D01*
X127414404Y-95630952D01*
X127985833Y-96202380D01*
X127366785Y-96202380D01*
X126414404Y-96202380D02*
X126985833Y-96202380D01*
X126700119Y-96202380D02*
X126700119Y-95202380D01*
X126795357Y-95345238D01*
X126890595Y-95440476D01*
X126985833Y-95488095D01*
X125985833Y-95821428D02*
X125223928Y-95821428D01*
X124223928Y-96202380D02*
X124795357Y-96202380D01*
X124509642Y-96202380D02*
X124509642Y-95202380D01*
X124604880Y-95345238D01*
X124700119Y-95440476D01*
X124795357Y-95488095D01*
X123842976Y-95297619D02*
X123795357Y-95250000D01*
X123700119Y-95202380D01*
X123462023Y-95202380D01*
X123366785Y-95250000D01*
X123319166Y-95297619D01*
X123271547Y-95392857D01*
X123271547Y-95488095D01*
X123319166Y-95630952D01*
X123890595Y-96202380D01*
X123271547Y-96202380D01*
X122842976Y-95821428D02*
X122081071Y-95821428D01*
X121414404Y-95202380D02*
X121319166Y-95202380D01*
X121223928Y-95250000D01*
X121176309Y-95297619D01*
X121128690Y-95392857D01*
X121081071Y-95583333D01*
X121081071Y-95821428D01*
X121128690Y-96011904D01*
X121176309Y-96107142D01*
X121223928Y-96154761D01*
X121319166Y-96202380D01*
X121414404Y-96202380D01*
X121509642Y-96154761D01*
X121557261Y-96107142D01*
X121604880Y-96011904D01*
X121652500Y-95821428D01*
X121652500Y-95583333D01*
X121604880Y-95392857D01*
X121557261Y-95297619D01*
X121509642Y-95250000D01*
X121414404Y-95202380D01*
X120223928Y-95202380D02*
X120414404Y-95202380D01*
X120509642Y-95250000D01*
X120557261Y-95297619D01*
X120652500Y-95440476D01*
X120700119Y-95630952D01*
X120700119Y-96011904D01*
X120652500Y-96107142D01*
X120604880Y-96154761D01*
X120509642Y-96202380D01*
X120319166Y-96202380D01*
X120223928Y-96154761D01*
X120176309Y-96107142D01*
X120128690Y-96011904D01*
X120128690Y-95773809D01*
X120176309Y-95678571D01*
X120223928Y-95630952D01*
X120319166Y-95583333D01*
X120509642Y-95583333D01*
X120604880Y-95630952D01*
X120652500Y-95678571D01*
X120700119Y-95773809D01*
D11*
X134611309Y-94654761D02*
X134611309Y-92654761D01*
X133944642Y-94083333D01*
X133277976Y-92654761D01*
X133277976Y-94654761D01*
X132325595Y-94654761D02*
X132325595Y-93321428D01*
X132325595Y-92654761D02*
X132420833Y-92750000D01*
X132325595Y-92845238D01*
X132230357Y-92750000D01*
X132325595Y-92654761D01*
X132325595Y-92845238D01*
X130516071Y-94559523D02*
X130706547Y-94654761D01*
X131087500Y-94654761D01*
X131277976Y-94559523D01*
X131373214Y-94464285D01*
X131468452Y-94273809D01*
X131468452Y-93702380D01*
X131373214Y-93511904D01*
X131277976Y-93416666D01*
X131087500Y-93321428D01*
X130706547Y-93321428D01*
X130516071Y-93416666D01*
X129658928Y-94654761D02*
X129658928Y-93321428D01*
X129658928Y-93702380D02*
X129563690Y-93511904D01*
X129468452Y-93416666D01*
X129277976Y-93321428D01*
X129087500Y-93321428D01*
X128135119Y-94654761D02*
X128325595Y-94559523D01*
X128420833Y-94464285D01*
X128516071Y-94273809D01*
X128516071Y-93702380D01*
X128420833Y-93511904D01*
X128325595Y-93416666D01*
X128135119Y-93321428D01*
X127849404Y-93321428D01*
X127658928Y-93416666D01*
X127563690Y-93511904D01*
X127468452Y-93702380D01*
X127468452Y-94273809D01*
X127563690Y-94464285D01*
X127658928Y-94559523D01*
X127849404Y-94654761D01*
X128135119Y-94654761D01*
X126611309Y-94654761D02*
X126611309Y-92654761D01*
X125468452Y-94654761D02*
X126325595Y-93511904D01*
X125468452Y-92654761D02*
X126611309Y-93797619D01*
X123944642Y-93607142D02*
X124611309Y-93607142D01*
X124611309Y-94654761D02*
X124611309Y-92654761D01*
X123658928Y-92654761D01*
X122897023Y-94654761D02*
X122897023Y-92654761D01*
X122420833Y-92654761D01*
X122135119Y-92750000D01*
X121944642Y-92940476D01*
X121849404Y-93130952D01*
X121754166Y-93511904D01*
X121754166Y-93797619D01*
X121849404Y-94178571D01*
X121944642Y-94369047D01*
X122135119Y-94559523D01*
X122420833Y-94654761D01*
X122897023Y-94654761D01*
D12*
X119750000Y-108358095D02*
X119797619Y-108453333D01*
X119797619Y-108596190D01*
X119750000Y-108739047D01*
X119654761Y-108834285D01*
X119559523Y-108881904D01*
X119369047Y-108929523D01*
X119226190Y-108929523D01*
X119035714Y-108881904D01*
X118940476Y-108834285D01*
X118845238Y-108739047D01*
X118797619Y-108596190D01*
X118797619Y-108500952D01*
X118845238Y-108358095D01*
X118892857Y-108310476D01*
X119226190Y-108310476D01*
X119226190Y-108500952D01*
X118797619Y-107881904D02*
X119797619Y-107881904D01*
X118797619Y-107310476D01*
X119797619Y-107310476D01*
X118797619Y-106834285D02*
X119797619Y-106834285D01*
X119797619Y-106596190D01*
X119750000Y-106453333D01*
X119654761Y-106358095D01*
X119559523Y-106310476D01*
X119369047Y-106262857D01*
X119226190Y-106262857D01*
X119035714Y-106310476D01*
X118940476Y-106358095D01*
X118845238Y-106453333D01*
X118797619Y-106596190D01*
X118797619Y-106834285D01*
X116797619Y-108310476D02*
X117273809Y-108643809D01*
X116797619Y-108881904D02*
X117797619Y-108881904D01*
X117797619Y-108500952D01*
X117750000Y-108405714D01*
X117702380Y-108358095D01*
X117607142Y-108310476D01*
X117464285Y-108310476D01*
X117369047Y-108358095D01*
X117321428Y-108405714D01*
X117273809Y-108500952D01*
X117273809Y-108881904D01*
X116845238Y-107929523D02*
X116797619Y-107786666D01*
X116797619Y-107548571D01*
X116845238Y-107453333D01*
X116892857Y-107405714D01*
X116988095Y-107358095D01*
X117083333Y-107358095D01*
X117178571Y-107405714D01*
X117226190Y-107453333D01*
X117273809Y-107548571D01*
X117321428Y-107739047D01*
X117369047Y-107834285D01*
X117416666Y-107881904D01*
X117511904Y-107929523D01*
X117607142Y-107929523D01*
X117702380Y-107881904D01*
X117750000Y-107834285D01*
X117797619Y-107739047D01*
X117797619Y-107500952D01*
X117750000Y-107358095D01*
X117797619Y-107072380D02*
X117797619Y-106500952D01*
X116797619Y-106786666D02*
X117797619Y-106786666D01*
X114845238Y-108929523D02*
X114797619Y-108786666D01*
X114797619Y-108548571D01*
X114845238Y-108453333D01*
X114892857Y-108405714D01*
X114988095Y-108358095D01*
X115083333Y-108358095D01*
X115178571Y-108405714D01*
X115226190Y-108453333D01*
X115273809Y-108548571D01*
X115321428Y-108739047D01*
X115369047Y-108834285D01*
X115416666Y-108881904D01*
X115511904Y-108929523D01*
X115607142Y-108929523D01*
X115702380Y-108881904D01*
X115750000Y-108834285D01*
X115797619Y-108739047D01*
X115797619Y-108500952D01*
X115750000Y-108358095D01*
X114892857Y-107358095D02*
X114845238Y-107405714D01*
X114797619Y-107548571D01*
X114797619Y-107643809D01*
X114845238Y-107786666D01*
X114940476Y-107881904D01*
X115035714Y-107929523D01*
X115226190Y-107977142D01*
X115369047Y-107977142D01*
X115559523Y-107929523D01*
X115654761Y-107881904D01*
X115750000Y-107786666D01*
X115797619Y-107643809D01*
X115797619Y-107548571D01*
X115750000Y-107405714D01*
X115702380Y-107358095D01*
X114797619Y-106929523D02*
X115797619Y-106929523D01*
X114797619Y-106358095D02*
X115369047Y-106786666D01*
X115797619Y-106358095D02*
X115226190Y-106929523D01*
X112797619Y-108881904D02*
X113797619Y-108881904D01*
X113083333Y-108548571D01*
X113797619Y-108215238D01*
X112797619Y-108215238D01*
X113797619Y-107548571D02*
X113797619Y-107358095D01*
X113750000Y-107262857D01*
X113654761Y-107167619D01*
X113464285Y-107120000D01*
X113130952Y-107120000D01*
X112940476Y-107167619D01*
X112845238Y-107262857D01*
X112797619Y-107358095D01*
X112797619Y-107548571D01*
X112845238Y-107643809D01*
X112940476Y-107739047D01*
X113130952Y-107786666D01*
X113464285Y-107786666D01*
X113654761Y-107739047D01*
X113750000Y-107643809D01*
X113797619Y-107548571D01*
X112845238Y-106739047D02*
X112797619Y-106596190D01*
X112797619Y-106358095D01*
X112845238Y-106262857D01*
X112892857Y-106215238D01*
X112988095Y-106167619D01*
X113083333Y-106167619D01*
X113178571Y-106215238D01*
X113226190Y-106262857D01*
X113273809Y-106358095D01*
X113321428Y-106548571D01*
X113369047Y-106643809D01*
X113416666Y-106691428D01*
X113511904Y-106739047D01*
X113607142Y-106739047D01*
X113702380Y-106691428D01*
X113750000Y-106643809D01*
X113797619Y-106548571D01*
X113797619Y-106310476D01*
X113750000Y-106167619D01*
X112797619Y-105739047D02*
X113797619Y-105739047D01*
X110797619Y-108881904D02*
X111797619Y-108881904D01*
X111083333Y-108548571D01*
X111797619Y-108215238D01*
X110797619Y-108215238D01*
X110797619Y-107739047D02*
X111797619Y-107739047D01*
X110845238Y-107310476D02*
X110797619Y-107167619D01*
X110797619Y-106929523D01*
X110845238Y-106834285D01*
X110892857Y-106786666D01*
X110988095Y-106739047D01*
X111083333Y-106739047D01*
X111178571Y-106786666D01*
X111226190Y-106834285D01*
X111273809Y-106929523D01*
X111321428Y-107120000D01*
X111369047Y-107215238D01*
X111416666Y-107262857D01*
X111511904Y-107310476D01*
X111607142Y-107310476D01*
X111702380Y-107262857D01*
X111750000Y-107215238D01*
X111797619Y-107120000D01*
X111797619Y-106881904D01*
X111750000Y-106739047D01*
X111797619Y-106120000D02*
X111797619Y-105929523D01*
X111750000Y-105834285D01*
X111654761Y-105739047D01*
X111464285Y-105691428D01*
X111130952Y-105691428D01*
X110940476Y-105739047D01*
X110845238Y-105834285D01*
X110797619Y-105929523D01*
X110797619Y-106120000D01*
X110845238Y-106215238D01*
X110940476Y-106310476D01*
X111130952Y-106358095D01*
X111464285Y-106358095D01*
X111654761Y-106310476D01*
X111750000Y-106215238D01*
X111797619Y-106120000D01*
X109797619Y-108440476D02*
X109797619Y-108916666D01*
X109321428Y-108964285D01*
X109369047Y-108916666D01*
X109416666Y-108821428D01*
X109416666Y-108583333D01*
X109369047Y-108488095D01*
X109321428Y-108440476D01*
X109226190Y-108392857D01*
X108988095Y-108392857D01*
X108892857Y-108440476D01*
X108845238Y-108488095D01*
X108797619Y-108583333D01*
X108797619Y-108821428D01*
X108845238Y-108916666D01*
X108892857Y-108964285D01*
X109797619Y-108107142D02*
X108797619Y-107773809D01*
X109797619Y-107440476D01*
D13*
%TO.C,G\u002A\u002A\u002A*%
G36*
X139788764Y-96591516D02*
G01*
X139787361Y-96590047D01*
X139779450Y-96584552D01*
X139758570Y-96570219D01*
X139725313Y-96547452D01*
X139680269Y-96516653D01*
X139624028Y-96478225D01*
X139557181Y-96432572D01*
X139480318Y-96380096D01*
X139394031Y-96321200D01*
X139298909Y-96256287D01*
X139195544Y-96185761D01*
X139084525Y-96110024D01*
X138966444Y-96029479D01*
X138841890Y-95944529D01*
X138711455Y-95855578D01*
X138575730Y-95763028D01*
X138435304Y-95667281D01*
X138290768Y-95568742D01*
X138142713Y-95467813D01*
X138137232Y-95464077D01*
X136500549Y-94348405D01*
X136204705Y-93388431D01*
X136167351Y-93267299D01*
X136131353Y-93150719D01*
X136097004Y-93039628D01*
X136064595Y-92934965D01*
X136034420Y-92837667D01*
X136006769Y-92748672D01*
X135981935Y-92668919D01*
X135960210Y-92599346D01*
X135941885Y-92540890D01*
X135927254Y-92494490D01*
X135916607Y-92461083D01*
X135910238Y-92441608D01*
X135908403Y-92436725D01*
X135909925Y-92445680D01*
X135914482Y-92469712D01*
X135921879Y-92507851D01*
X135931924Y-92559127D01*
X135944421Y-92622570D01*
X135959176Y-92697209D01*
X135975995Y-92782075D01*
X135994684Y-92876197D01*
X136015048Y-92978605D01*
X136036894Y-93088329D01*
X136060027Y-93204398D01*
X136084253Y-93325843D01*
X136109378Y-93451693D01*
X136135207Y-93580979D01*
X136161547Y-93712729D01*
X136188202Y-93845975D01*
X136214980Y-93979744D01*
X136241685Y-94113069D01*
X136268124Y-94244978D01*
X136294101Y-94374500D01*
X136319424Y-94500667D01*
X136343898Y-94622508D01*
X136367328Y-94739052D01*
X136389521Y-94849330D01*
X136410282Y-94952371D01*
X136429417Y-95047205D01*
X136446732Y-95132862D01*
X136462032Y-95208371D01*
X136475123Y-95272764D01*
X136485812Y-95325069D01*
X136493904Y-95364316D01*
X136499204Y-95389535D01*
X136501519Y-95399756D01*
X136501589Y-95399932D01*
X136509405Y-95402932D01*
X136531773Y-95411221D01*
X136567824Y-95424482D01*
X136616687Y-95442398D01*
X136677494Y-95464654D01*
X136749375Y-95490933D01*
X136831462Y-95520917D01*
X136922883Y-95554292D01*
X137022771Y-95590739D01*
X137130256Y-95629943D01*
X137244468Y-95671586D01*
X137364538Y-95715354D01*
X137489597Y-95760928D01*
X137618775Y-95807993D01*
X137751203Y-95856232D01*
X137886012Y-95905329D01*
X138022331Y-95954966D01*
X138159293Y-96004828D01*
X138296027Y-96054598D01*
X138431663Y-96103959D01*
X138565334Y-96152595D01*
X138696168Y-96200189D01*
X138823298Y-96246426D01*
X138945853Y-96290987D01*
X139062964Y-96333558D01*
X139173762Y-96373821D01*
X139277377Y-96411459D01*
X139372941Y-96446157D01*
X139459582Y-96477598D01*
X139536433Y-96505465D01*
X139602624Y-96529442D01*
X139657286Y-96549212D01*
X139699548Y-96564458D01*
X139728542Y-96574865D01*
X139739276Y-96578678D01*
X139765771Y-96587396D01*
X139783150Y-96591884D01*
X139788764Y-96591516D01*
G37*
X139788764Y-96591516D02*
X139787361Y-96590047D01*
X139779450Y-96584552D01*
X139758570Y-96570219D01*
X139725313Y-96547452D01*
X139680269Y-96516653D01*
X139624028Y-96478225D01*
X139557181Y-96432572D01*
X139480318Y-96380096D01*
X139394031Y-96321200D01*
X139298909Y-96256287D01*
X139195544Y-96185761D01*
X139084525Y-96110024D01*
X138966444Y-96029479D01*
X138841890Y-95944529D01*
X138711455Y-95855578D01*
X138575730Y-95763028D01*
X138435304Y-95667281D01*
X138290768Y-95568742D01*
X138142713Y-95467813D01*
X138137232Y-95464077D01*
X136500549Y-94348405D01*
X136204705Y-93388431D01*
X136167351Y-93267299D01*
X136131353Y-93150719D01*
X136097004Y-93039628D01*
X136064595Y-92934965D01*
X136034420Y-92837667D01*
X136006769Y-92748672D01*
X135981935Y-92668919D01*
X135960210Y-92599346D01*
X135941885Y-92540890D01*
X135927254Y-92494490D01*
X135916607Y-92461083D01*
X135910238Y-92441608D01*
X135908403Y-92436725D01*
X135909925Y-92445680D01*
X135914482Y-92469712D01*
X135921879Y-92507851D01*
X135931924Y-92559127D01*
X135944421Y-92622570D01*
X135959176Y-92697209D01*
X135975995Y-92782075D01*
X135994684Y-92876197D01*
X136015048Y-92978605D01*
X136036894Y-93088329D01*
X136060027Y-93204398D01*
X136084253Y-93325843D01*
X136109378Y-93451693D01*
X136135207Y-93580979D01*
X136161547Y-93712729D01*
X136188202Y-93845975D01*
X136214980Y-93979744D01*
X136241685Y-94113069D01*
X136268124Y-94244978D01*
X136294101Y-94374500D01*
X136319424Y-94500667D01*
X136343898Y-94622508D01*
X136367328Y-94739052D01*
X136389521Y-94849330D01*
X136410282Y-94952371D01*
X136429417Y-95047205D01*
X136446732Y-95132862D01*
X136462032Y-95208371D01*
X136475123Y-95272764D01*
X136485812Y-95325069D01*
X136493904Y-95364316D01*
X136499204Y-95389535D01*
X136501519Y-95399756D01*
X136501589Y-95399932D01*
X136509405Y-95402932D01*
X136531773Y-95411221D01*
X136567824Y-95424482D01*
X136616687Y-95442398D01*
X136677494Y-95464654D01*
X136749375Y-95490933D01*
X136831462Y-95520917D01*
X136922883Y-95554292D01*
X137022771Y-95590739D01*
X137130256Y-95629943D01*
X137244468Y-95671586D01*
X137364538Y-95715354D01*
X137489597Y-95760928D01*
X137618775Y-95807993D01*
X137751203Y-95856232D01*
X137886012Y-95905329D01*
X138022331Y-95954966D01*
X138159293Y-96004828D01*
X138296027Y-96054598D01*
X138431663Y-96103959D01*
X138565334Y-96152595D01*
X138696168Y-96200189D01*
X138823298Y-96246426D01*
X138945853Y-96290987D01*
X139062964Y-96333558D01*
X139173762Y-96373821D01*
X139277377Y-96411459D01*
X139372941Y-96446157D01*
X139459582Y-96477598D01*
X139536433Y-96505465D01*
X139602624Y-96529442D01*
X139657286Y-96549212D01*
X139699548Y-96564458D01*
X139728542Y-96574865D01*
X139739276Y-96578678D01*
X139765771Y-96587396D01*
X139783150Y-96591884D01*
X139788764Y-96591516D01*
G36*
X140096703Y-96285425D02*
G01*
X140092746Y-96262011D01*
X140086167Y-96224305D01*
X140077136Y-96173233D01*
X140065820Y-96109716D01*
X140052387Y-96034681D01*
X140037006Y-95949050D01*
X140019846Y-95853747D01*
X140001073Y-95749698D01*
X139980858Y-95637825D01*
X139959366Y-95519053D01*
X139936768Y-95394305D01*
X139913231Y-95264506D01*
X139888924Y-95130581D01*
X139864014Y-94993452D01*
X139838670Y-94854043D01*
X139813061Y-94713280D01*
X139787353Y-94572086D01*
X139761716Y-94431384D01*
X139736319Y-94292100D01*
X139711328Y-94155156D01*
X139686912Y-94021478D01*
X139663240Y-93891988D01*
X139640480Y-93767612D01*
X139618800Y-93649272D01*
X139598368Y-93537894D01*
X139579353Y-93434401D01*
X139561922Y-93339717D01*
X139546244Y-93254766D01*
X139532487Y-93180473D01*
X139520820Y-93117760D01*
X139511411Y-93067553D01*
X139504427Y-93030775D01*
X139500037Y-93008351D01*
X139498432Y-93001189D01*
X139490109Y-92998993D01*
X139466602Y-92993435D01*
X139428748Y-92984703D01*
X139377384Y-92972985D01*
X139313345Y-92958470D01*
X139237469Y-92941343D01*
X139150591Y-92921794D01*
X139053548Y-92900010D01*
X138947177Y-92876179D01*
X138832313Y-92850488D01*
X138709793Y-92823126D01*
X138580455Y-92794280D01*
X138445133Y-92764137D01*
X138304664Y-92732886D01*
X138166721Y-92702233D01*
X138021912Y-92670072D01*
X137881321Y-92638846D01*
X137745794Y-92608744D01*
X137616177Y-92579953D01*
X137493318Y-92552663D01*
X137378062Y-92527060D01*
X137271257Y-92503334D01*
X137173749Y-92481671D01*
X137086385Y-92462261D01*
X137010011Y-92445291D01*
X136945474Y-92430949D01*
X136893620Y-92419424D01*
X136855296Y-92410903D01*
X136831349Y-92405575D01*
X136822707Y-92403646D01*
X136817961Y-92403860D01*
X136826818Y-92409081D01*
X136830911Y-92410979D01*
X136841899Y-92415263D01*
X136867254Y-92424753D01*
X136905918Y-92439061D01*
X136956832Y-92457801D01*
X137018937Y-92480585D01*
X137091175Y-92507025D01*
X137172487Y-92536736D01*
X137261814Y-92569328D01*
X137358099Y-92604417D01*
X137460282Y-92641613D01*
X137567305Y-92680530D01*
X137651778Y-92711220D01*
X138448033Y-93000393D01*
X139271856Y-94648104D01*
X139349064Y-94802498D01*
X139424333Y-94952957D01*
X139497333Y-95098825D01*
X139567737Y-95239450D01*
X139635215Y-95374175D01*
X139699440Y-95502347D01*
X139760082Y-95623310D01*
X139816813Y-95736411D01*
X139869304Y-95840994D01*
X139917227Y-95936405D01*
X139960252Y-96021989D01*
X139998053Y-96097092D01*
X140030299Y-96161058D01*
X140056662Y-96213234D01*
X140076813Y-96252965D01*
X140090425Y-96279596D01*
X140097168Y-96292472D01*
X140097871Y-96293623D01*
X140096703Y-96285425D01*
G37*
X140096703Y-96285425D02*
X140092746Y-96262011D01*
X140086167Y-96224305D01*
X140077136Y-96173233D01*
X140065820Y-96109716D01*
X140052387Y-96034681D01*
X140037006Y-95949050D01*
X140019846Y-95853747D01*
X140001073Y-95749698D01*
X139980858Y-95637825D01*
X139959366Y-95519053D01*
X139936768Y-95394305D01*
X139913231Y-95264506D01*
X139888924Y-95130581D01*
X139864014Y-94993452D01*
X139838670Y-94854043D01*
X139813061Y-94713280D01*
X139787353Y-94572086D01*
X139761716Y-94431384D01*
X139736319Y-94292100D01*
X139711328Y-94155156D01*
X139686912Y-94021478D01*
X139663240Y-93891988D01*
X139640480Y-93767612D01*
X139618800Y-93649272D01*
X139598368Y-93537894D01*
X139579353Y-93434401D01*
X139561922Y-93339717D01*
X139546244Y-93254766D01*
X139532487Y-93180473D01*
X139520820Y-93117760D01*
X139511411Y-93067553D01*
X139504427Y-93030775D01*
X139500037Y-93008351D01*
X139498432Y-93001189D01*
X139490109Y-92998993D01*
X139466602Y-92993435D01*
X139428748Y-92984703D01*
X139377384Y-92972985D01*
X139313345Y-92958470D01*
X139237469Y-92941343D01*
X139150591Y-92921794D01*
X139053548Y-92900010D01*
X138947177Y-92876179D01*
X138832313Y-92850488D01*
X138709793Y-92823126D01*
X138580455Y-92794280D01*
X138445133Y-92764137D01*
X138304664Y-92732886D01*
X138166721Y-92702233D01*
X138021912Y-92670072D01*
X137881321Y-92638846D01*
X137745794Y-92608744D01*
X137616177Y-92579953D01*
X137493318Y-92552663D01*
X137378062Y-92527060D01*
X137271257Y-92503334D01*
X137173749Y-92481671D01*
X137086385Y-92462261D01*
X137010011Y-92445291D01*
X136945474Y-92430949D01*
X136893620Y-92419424D01*
X136855296Y-92410903D01*
X136831349Y-92405575D01*
X136822707Y-92403646D01*
X136817961Y-92403860D01*
X136826818Y-92409081D01*
X136830911Y-92410979D01*
X136841899Y-92415263D01*
X136867254Y-92424753D01*
X136905918Y-92439061D01*
X136956832Y-92457801D01*
X137018937Y-92480585D01*
X137091175Y-92507025D01*
X137172487Y-92536736D01*
X137261814Y-92569328D01*
X137358099Y-92604417D01*
X137460282Y-92641613D01*
X137567305Y-92680530D01*
X137651778Y-92711220D01*
X138448033Y-93000393D01*
X139271856Y-94648104D01*
X139349064Y-94802498D01*
X139424333Y-94952957D01*
X139497333Y-95098825D01*
X139567737Y-95239450D01*
X139635215Y-95374175D01*
X139699440Y-95502347D01*
X139760082Y-95623310D01*
X139816813Y-95736411D01*
X139869304Y-95840994D01*
X139917227Y-95936405D01*
X139960252Y-96021989D01*
X139998053Y-96097092D01*
X140030299Y-96161058D01*
X140056662Y-96213234D01*
X140076813Y-96252965D01*
X140090425Y-96279596D01*
X140097168Y-96292472D01*
X140097871Y-96293623D01*
X140096703Y-96285425D01*
G36*
X139791273Y-96285830D02*
G01*
X139780945Y-96264328D01*
X139763950Y-96229538D01*
X139740629Y-96182147D01*
X139711327Y-96122846D01*
X139676385Y-96052324D01*
X139636148Y-95971270D01*
X139590957Y-95880373D01*
X139541157Y-95780323D01*
X139487090Y-95671809D01*
X139429099Y-95555520D01*
X139367527Y-95432146D01*
X139302718Y-95302376D01*
X139235014Y-95166899D01*
X139164758Y-95026405D01*
X139092293Y-94881584D01*
X139048547Y-94794197D01*
X138299451Y-93298094D01*
X137253424Y-92849177D01*
X137129093Y-92795823D01*
X137008945Y-92744273D01*
X136893837Y-92694893D01*
X136784628Y-92648053D01*
X136682179Y-92604120D01*
X136587347Y-92563464D01*
X136500992Y-92526451D01*
X136423974Y-92493450D01*
X136357150Y-92464829D01*
X136301381Y-92440957D01*
X136257525Y-92422202D01*
X136226441Y-92408931D01*
X136208989Y-92401514D01*
X136205346Y-92400001D01*
X136203295Y-92405777D01*
X136203294Y-92405923D01*
X136205837Y-92414362D01*
X136213246Y-92437384D01*
X136225199Y-92474010D01*
X136241371Y-92523258D01*
X136261437Y-92584147D01*
X136285073Y-92655696D01*
X136311954Y-92736924D01*
X136341755Y-92826850D01*
X136374153Y-92924493D01*
X136408823Y-93028872D01*
X136445439Y-93139006D01*
X136483679Y-93253915D01*
X136501132Y-93306327D01*
X136798970Y-94200549D01*
X138295253Y-95248478D01*
X138436078Y-95347082D01*
X138573339Y-95443147D01*
X138706433Y-95536249D01*
X138834754Y-95625969D01*
X138957699Y-95711886D01*
X139074663Y-95793577D01*
X139185043Y-95870623D01*
X139288233Y-95942602D01*
X139383629Y-96009093D01*
X139470629Y-96069674D01*
X139548626Y-96123926D01*
X139617017Y-96171426D01*
X139675198Y-96211753D01*
X139722564Y-96244488D01*
X139758511Y-96269207D01*
X139782436Y-96285491D01*
X139793733Y-96292919D01*
X139794589Y-96293352D01*
X139791273Y-96285830D01*
G37*
X139791273Y-96285830D02*
X139780945Y-96264328D01*
X139763950Y-96229538D01*
X139740629Y-96182147D01*
X139711327Y-96122846D01*
X139676385Y-96052324D01*
X139636148Y-95971270D01*
X139590957Y-95880373D01*
X139541157Y-95780323D01*
X139487090Y-95671809D01*
X139429099Y-95555520D01*
X139367527Y-95432146D01*
X139302718Y-95302376D01*
X139235014Y-95166899D01*
X139164758Y-95026405D01*
X139092293Y-94881584D01*
X139048547Y-94794197D01*
X138299451Y-93298094D01*
X137253424Y-92849177D01*
X137129093Y-92795823D01*
X137008945Y-92744273D01*
X136893837Y-92694893D01*
X136784628Y-92648053D01*
X136682179Y-92604120D01*
X136587347Y-92563464D01*
X136500992Y-92526451D01*
X136423974Y-92493450D01*
X136357150Y-92464829D01*
X136301381Y-92440957D01*
X136257525Y-92422202D01*
X136226441Y-92408931D01*
X136208989Y-92401514D01*
X136205346Y-92400001D01*
X136203295Y-92405777D01*
X136203294Y-92405923D01*
X136205837Y-92414362D01*
X136213246Y-92437384D01*
X136225199Y-92474010D01*
X136241371Y-92523258D01*
X136261437Y-92584147D01*
X136285073Y-92655696D01*
X136311954Y-92736924D01*
X136341755Y-92826850D01*
X136374153Y-92924493D01*
X136408823Y-93028872D01*
X136445439Y-93139006D01*
X136483679Y-93253915D01*
X136501132Y-93306327D01*
X136798970Y-94200549D01*
X138295253Y-95248478D01*
X138436078Y-95347082D01*
X138573339Y-95443147D01*
X138706433Y-95536249D01*
X138834754Y-95625969D01*
X138957699Y-95711886D01*
X139074663Y-95793577D01*
X139185043Y-95870623D01*
X139288233Y-95942602D01*
X139383629Y-96009093D01*
X139470629Y-96069674D01*
X139548626Y-96123926D01*
X139617017Y-96171426D01*
X139675198Y-96211753D01*
X139722564Y-96244488D01*
X139758511Y-96269207D01*
X139782436Y-96285491D01*
X139793733Y-96292919D01*
X139794589Y-96293352D01*
X139791273Y-96285830D01*
D14*
%TO.C,TP1*%
X112550000Y-109300000D02*
X112550000Y-110700000D01*
X113950000Y-109300000D02*
X112550000Y-109300000D01*
X113950000Y-110700000D02*
X113950000Y-109300000D01*
X112550000Y-110700000D02*
X113950000Y-110700000D01*
%TO.C,TP2*%
X114550000Y-110700000D02*
X115950000Y-110700000D01*
X115950000Y-110700000D02*
X115950000Y-109300000D01*
X115950000Y-109300000D02*
X114550000Y-109300000D01*
X114550000Y-109300000D02*
X114550000Y-110700000D01*
%TO.C,TP3*%
X110550000Y-110700000D02*
X111950000Y-110700000D01*
X111950000Y-110700000D02*
X111950000Y-109300000D01*
X111950000Y-109300000D02*
X110550000Y-109300000D01*
X110550000Y-109300000D02*
X110550000Y-110700000D01*
%TO.C,TP4*%
X116550000Y-109300000D02*
X116550000Y-110700000D01*
X117950000Y-109300000D02*
X116550000Y-109300000D01*
X117950000Y-110700000D02*
X117950000Y-109300000D01*
X116550000Y-110700000D02*
X117950000Y-110700000D01*
%TO.C,TP5*%
X108550000Y-110700000D02*
X109950000Y-110700000D01*
X109950000Y-110700000D02*
X109950000Y-109300000D01*
X109950000Y-109300000D02*
X108550000Y-109300000D01*
X108550000Y-109300000D02*
X108550000Y-110700000D01*
%TO.C,TP6*%
X118550000Y-109300000D02*
X118550000Y-110700000D01*
X119950000Y-109300000D02*
X118550000Y-109300000D01*
X119950000Y-110700000D02*
X119950000Y-109300000D01*
X118550000Y-110700000D02*
X119950000Y-110700000D01*
%TD*%
M02*
