M48
; DRILL file {KiCad (5.1.9)-1} date 12/06/21 20:25:50
; FORMAT={-:-/ absolute / inch / decimal}
; #@! TF.CreationDate,2021-12-06T20:25:50-06:00
; #@! TF.GenerationSoftware,Kicad,Pcbnew,(5.1.9)-1
; #@! TF.FileFunction,Plated,1,2,PTH
FMAT,2
INCH
T1C0.0118
T2C0.0157
T3C0.0472
T4C0.0551
%
G90
G05
T1
X3.5827Y-3.6122
X3.5827Y-3.6516
X3.5827Y-3.6909
X3.5827Y-3.8386
X3.5827Y-3.878
X3.5827Y-3.9173
X3.5827Y-3.9567
X3.5827Y-3.9961
X3.5827Y-4.0354
X3.5827Y-4.1831
X3.5827Y-4.2224
X3.5827Y-4.2618
X3.5925Y-3.5728
X3.5925Y-4.311
X3.6122Y-3.5335
X3.6417Y-3.5039
X3.6811Y-3.4843
X3.7205Y-3.4744
X3.7303Y-3.9665
X3.7303Y-4.0846
X3.7402Y-4.4193
X3.7598Y-3.4744
X3.7795Y-4.4193
X3.7894Y-3.6811
X3.7992Y-3.4744
X3.8091Y-4.2421
X3.8189Y-4.4193
X3.8386Y-3.6811
X3.8583Y-4.4193
X3.8878Y-3.6811
X3.8976Y-4.4193
X3.937Y-4.4193
X3.9469Y-4.2323
X3.9764Y-3.8386
X3.9764Y-4.4193
X3.9961Y-3.4744
X3.9961Y-3.5236
X4.0157Y-4.4193
X4.0354Y-3.4744
X4.0354Y-4.0256
X4.0551Y-3.9961
X4.0551Y-4.4193
X4.065Y-3.6713
X4.0748Y-3.4744
X4.0748Y-4.0256
X4.0945Y-3.5236
X4.0945Y-3.9961
X4.0945Y-4.4193
X4.1043Y-3.6713
X4.1142Y-3.8386
X4.1142Y-4.0256
X4.1339Y-3.9961
X4.1339Y-4.4193
X4.1437Y-3.6713
X4.1535Y-4.0256
X4.1535Y-4.3406
X4.1732Y-4.4193
X4.1831Y-3.6713
X4.2126Y-4.4193
X4.2224Y-3.6713
X4.252Y-4.4193
X4.2618Y-4.2126
X4.2913Y-3.5531
X4.2913Y-4.4193
X4.3012Y-3.7402
X4.3368Y-4.1695
X4.3602Y-3.9075
X4.3701Y-3.5531
X4.3799Y-3.937
X4.3996Y-3.6614
X4.3996Y-3.9075
X4.4008Y-4.1055
X4.4193Y-3.937
X4.4282Y-4.0837
X4.439Y-3.9075
X4.4685Y-3.7795
X4.4882Y-3.5236
X4.4882Y-3.8091
X4.5079Y-3.7795
X4.5276Y-3.8091
X4.5472Y-3.7795
X4.5669Y-3.8091
X4.5669Y-4.0551
X4.5866Y-3.7795
X4.5965Y-4.0846
X4.6063Y-3.8091
X4.626Y-3.7795
X4.6555Y-3.8583
X4.6555Y-3.8976
X4.6555Y-3.937
X4.6555Y-3.9764
X4.6555Y-4.0157
X4.685Y-3.5531
X4.685Y-3.8386
X4.685Y-3.878
X4.685Y-3.9173
X4.685Y-3.9567
X4.685Y-3.9961
X4.685Y-4.4193
X4.7244Y-4.4193
X4.7343Y-4.1437
X4.7343Y-4.1831
X4.7638Y-3.5531
X4.7638Y-4.4193
X4.7736Y-4.1437
X4.7736Y-4.1831
X4.8031Y-4.4193
X4.8425Y-4.4193
X4.8524Y-3.9665
X4.8819Y-3.5236
X4.8819Y-4.4193
X4.9213Y-4.4193
X4.9606Y-4.4193
X5.0Y-4.4193
X5.0394Y-4.4193
X5.0787Y-3.5531
X5.0787Y-4.4193
X5.0886Y-4.2913
X5.1181Y-4.4193
X5.1575Y-3.5531
X5.1575Y-4.4193
X5.1969Y-4.4193
X5.2362Y-4.4193
X5.2756Y-4.4193
X5.2953Y-3.4744
X5.315Y-4.4193
X5.3346Y-3.4744
X5.3346Y-4.2815
X5.3543Y-4.4193
X5.374Y-3.4744
X5.3937Y-4.4193
X5.4134Y-3.4744
X5.4331Y-4.4193
X5.4528Y-3.4744
X5.4724Y-4.4193
X5.4921Y-3.4744
X5.5118Y-4.4193
X5.5315Y-3.4744
X5.561Y-4.4094
X5.5709Y-3.4843
X5.6004Y-4.3898
X5.6102Y-3.5039
X5.6398Y-3.5433
X5.6398Y-4.3602
X5.6594Y-3.5827
X5.6594Y-4.3209
X5.6693Y-3.6319
X5.6693Y-3.6811
X5.6693Y-3.878
X5.6693Y-3.9173
X5.6693Y-3.9567
X5.6693Y-3.9961
X5.6693Y-4.0354
X5.6693Y-4.0748
X5.6693Y-4.1142
X5.6693Y-4.1535
X5.6693Y-4.1929
X5.6693Y-4.2323
X5.6693Y-4.2815
T2
X3.9567Y-4.1732
X3.9764Y-4.0354
X4.5276Y-3.937
T3
X3.6437Y-3.7844
X3.6437Y-4.0896
T4
X3.7933Y-3.7904
X3.7933Y-4.0837
T0
M30
