<?xml version="1.0" encoding="UTF-8" standalone="no"?>
<!DOCTYPE svg PUBLIC "-//W3C//DTD SVG 1.1//EN"
 "http://www.w3.org/Graphics/SVG/1.1/DTD/svg11.dtd">
<!-- Generated by graphviz version 9.0.0 (20230911.1827)
 -->
<!-- Pages: 1 -->
<svg width="805pt" height="217pt"
 viewBox="0.00 0.00 805.00 217.00" xmlns="http://www.w3.org/2000/svg" xmlns:xlink="http://www.w3.org/1999/xlink">
<g id="graph0" class="graph" transform="scale(1 1) rotate(0) translate(4 213)">
<polygon fill="#ffffff" stroke="none" points="-4,4 -4,-213 801,-213 801,4 -4,4"/>
<!-- P1 -->
<g id="node1" class="node">
<title>P1</title>
<polygon fill="#ffffff" stroke="black" points="158.5,-175 0,-175 0,-54 158.5,-54 158.5,-175"/>
<polygon fill="none" stroke="black" points="0,-150.5 0,-175 158.5,-175 158.5,-150.5 0,-150.5"/>
<text text-anchor="start" x="70.25" y="-157.7" font-family="arial" font-size="14.00">P1</text>
<polygon fill="none" stroke="black" points="0,-126 0,-150.5 119,-150.5 119,-126 0,-126"/>
<text text-anchor="start" x="4" y="-133.2" font-family="arial" font-size="14.00">3.5mm TRS Male</text>
<polygon fill="none" stroke="black" points="119,-126 119,-150.5 158.5,-150.5 158.5,-126 119,-126"/>
<text text-anchor="start" x="123" y="-133.2" font-family="arial" font-size="14.00">3&#45;pin</text>
<polygon fill="none" stroke="black" points="0,-102 0,-126 97.25,-126 97.25,-102 0,-102"/>
<text text-anchor="start" x="38.5" y="-108.7" font-family="arial" font-size="14.00">Tip</text>
<polygon fill="none" stroke="black" points="97.25,-102 97.25,-126 158.5,-126 158.5,-102 97.25,-102"/>
<text text-anchor="start" x="123.75" y="-108.7" font-family="arial" font-size="14.00">1</text>
<polygon fill="none" stroke="black" points="0,-78 0,-102 97.25,-102 97.25,-78 0,-78"/>
<text text-anchor="start" x="34" y="-84.7" font-family="arial" font-size="14.00">Ring</text>
<polygon fill="none" stroke="black" points="97.25,-78 97.25,-102 158.5,-102 158.5,-78 97.25,-78"/>
<text text-anchor="start" x="123.75" y="-84.7" font-family="arial" font-size="14.00">2</text>
<polygon fill="none" stroke="black" points="0,-54 0,-78 97.25,-78 97.25,-54 0,-54"/>
<text text-anchor="start" x="26.5" y="-60.7" font-family="arial" font-size="14.00">Sleeve</text>
<polygon fill="none" stroke="black" points="97.25,-54 97.25,-78 158.5,-78 158.5,-54 97.25,-54"/>
<text text-anchor="start" x="123.75" y="-60.7" font-family="arial" font-size="14.00">3</text>
</g>
<!-- W1 -->
<g id="node3" class="node">
<title>W1</title>
<polygon fill="#ffffff" stroke="black" points="488.5,-209 302.5,-209 302.5,0 488.5,0 488.5,-209"/>
<polygon fill="none" stroke="black" points="302.5,-184.5 302.5,-209 488.5,-209 488.5,-184.5 302.5,-184.5"/>
<text text-anchor="start" x="384.25" y="-191.7" font-family="arial" font-size="14.00">W1</text>
<polygon fill="none" stroke="black" points="302.5,-160 302.5,-184.5 333.62,-184.5 333.62,-160 302.5,-160"/>
<text text-anchor="start" x="310.56" y="-167.2" font-family="arial" font-size="14.00">3x</text>
<polygon fill="none" stroke="black" points="333.62,-160 333.62,-184.5 410.5,-184.5 410.5,-160 333.62,-160"/>
<text text-anchor="start" x="341.69" y="-167.2" font-family="arial" font-size="14.00">0.25 mm²</text>
<polygon fill="none" stroke="black" points="410.5,-160 410.5,-184.5 448.38,-184.5 448.38,-160 410.5,-160"/>
<text text-anchor="start" x="418.56" y="-167.2" font-family="arial" font-size="14.00">+ S</text>
<polygon fill="none" stroke="black" points="448.38,-160 448.38,-184.5 488.5,-184.5 488.5,-160 448.38,-160"/>
<text text-anchor="start" x="456.44" y="-167.2" font-family="arial" font-size="14.00">1 m</text>
<text text-anchor="start" x="341.62" y="-144.7" font-family="arial" font-size="14.00"> </text>
<text text-anchor="start" x="316.5" y="-124.7" font-family="arial" font-size="14.00">P1:1:Tip</text>
<text text-anchor="start" x="386.12" y="-124.7" font-family="arial" font-size="14.00"> &#160;&#160;&#160;&#160;1:GN &#160;&#160;&#160;</text>
<text text-anchor="start" x="456.5" y="-124.7" font-family="arial" font-size="14.00">P2:2</text>
<polygon fill="#000000" stroke="none" points="302.5,-118 302.5,-120 488.5,-120 488.5,-118 302.5,-118"/>
<polygon fill="#00ff00" stroke="none" points="302.5,-116 302.5,-118 488.5,-118 488.5,-116 302.5,-116"/>
<polygon fill="#000000" stroke="none" points="302.5,-114 302.5,-116 488.5,-116 488.5,-114 302.5,-114"/>
<text text-anchor="start" x="312" y="-98.7" font-family="arial" font-size="14.00">P1:2:Ring</text>
<text text-anchor="start" x="387.25" y="-98.7" font-family="arial" font-size="14.00"> &#160;&#160;&#160;&#160;2:YE &#160;&#160;&#160;</text>
<text text-anchor="start" x="456.5" y="-98.7" font-family="arial" font-size="14.00">P2:3</text>
<polygon fill="#000000" stroke="none" points="302.5,-92 302.5,-94 488.5,-94 488.5,-92 302.5,-92"/>
<polygon fill="#ffff00" stroke="none" points="302.5,-90 302.5,-92 488.5,-92 488.5,-90 302.5,-90"/>
<polygon fill="#000000" stroke="none" points="302.5,-88 302.5,-90 488.5,-90 488.5,-88 302.5,-88"/>
<text text-anchor="start" x="304.5" y="-72.7" font-family="arial" font-size="14.00">P1:3:Sleeve</text>
<text text-anchor="start" x="386.88" y="-72.7" font-family="arial" font-size="14.00"> &#160;&#160;&#160;&#160;3:BK &#160;&#160;&#160;</text>
<text text-anchor="start" x="456.5" y="-72.7" font-family="arial" font-size="14.00">P2:4</text>
<polygon fill="#000000" stroke="none" points="302.5,-66 302.5,-68 488.5,-68 488.5,-66 302.5,-66"/>
<polygon fill="#000000" stroke="none" points="302.5,-64 302.5,-66 488.5,-66 488.5,-64 302.5,-64"/>
<polygon fill="#000000" stroke="none" points="302.5,-62 302.5,-64 488.5,-64 488.5,-62 302.5,-62"/>
<text text-anchor="start" x="341.62" y="-46.7" font-family="arial" font-size="14.00"> </text>
<text text-anchor="start" x="304.5" y="-26.7" font-family="arial" font-size="14.00">P1:3:Sleeve</text>
<text text-anchor="start" x="399.62" y="-26.7" font-family="arial" font-size="14.00">Shield</text>
<polygon fill="#000000" stroke="none" points="302.5,-20 302.5,-22 488.5,-22 488.5,-20 302.5,-20"/>
<text text-anchor="start" x="341.62" y="-4.7" font-family="arial" font-size="14.00"> </text>
</g>
<!-- P1&#45;&#45;W1 -->
<g id="edge1" class="edge">
<title>P1:e&#45;&#45;W1:w</title>
<path fill="none" stroke="#000000" stroke-width="2" d="M158.5,-65.5C225.55,-65.5 235.45,-20.5 302.5,-20.5"/>
</g>
<!-- P1&#45;&#45;W1 -->
<g id="edge2" class="edge">
<title>P1:e&#45;&#45;W1:w</title>
<path fill="none" stroke="#000000" stroke-width="2" d="M158.5,-111.5C223.01,-111.56 238.96,-115.56 302.5,-115.5"/>
<path fill="none" stroke="#00ff00" stroke-width="2" d="M158.5,-113.5C222.52,-113.5 238.48,-117.5 302.5,-117.5"/>
<path fill="none" stroke="#000000" stroke-width="2" d="M158.5,-115.5C222.04,-115.44 237.99,-119.44 302.5,-119.5"/>
</g>
<!-- P1&#45;&#45;W1 -->
<g id="edge4" class="edge">
<title>P1:e&#45;&#45;W1:w</title>
<path fill="none" stroke="#000000" stroke-width="2" d="M158.5,-87.5C222.63,-87.5 238.62,-88.5 302.5,-88.5"/>
<path fill="none" stroke="#ffff00" stroke-width="2" d="M158.5,-89.5C222.5,-89.5 238.5,-90.5 302.5,-90.5"/>
<path fill="none" stroke="#000000" stroke-width="2" d="M158.5,-91.5C222.38,-91.5 238.37,-92.5 302.5,-92.5"/>
</g>
<!-- P1&#45;&#45;W1 -->
<g id="edge6" class="edge">
<title>P1:e&#45;&#45;W1:w</title>
<path fill="none" stroke="#000000" stroke-width="2" d="M158.5,-63.5C222.38,-63.5 238.37,-62.5 302.5,-62.5"/>
<path fill="none" stroke="#000000" stroke-width="2" d="M158.5,-65.5C222.5,-65.5 238.5,-64.5 302.5,-64.5"/>
<path fill="none" stroke="#000000" stroke-width="2" d="M158.5,-67.5C222.63,-67.5 238.62,-66.5 302.5,-66.5"/>
</g>
<!-- P2 -->
<g id="node2" class="node">
<title>P2</title>
<polygon fill="#ffffff" stroke="black" points="797,-200.5 632.5,-200.5 632.5,-4.5 797,-4.5 797,-200.5"/>
<polygon fill="none" stroke="black" points="632.5,-176 632.5,-200.5 797,-200.5 797,-176 632.5,-176"/>
<text text-anchor="start" x="705.75" y="-183.2" font-family="arial" font-size="14.00">P2</text>
<polygon fill="none" stroke="black" points="632.5,-151.5 632.5,-176 757.5,-176 757.5,-151.5 632.5,-151.5"/>
<text text-anchor="start" x="636.5" y="-158.7" font-family="arial" font-size="14.00">HR10A&#45;7P&#45;6P(73)</text>
<polygon fill="none" stroke="black" points="757.5,-151.5 757.5,-176 797,-176 797,-151.5 757.5,-151.5"/>
<text text-anchor="start" x="761.5" y="-158.7" font-family="arial" font-size="14.00">6&#45;pin</text>
<polygon fill="none" stroke="black" points="632.5,-127 632.5,-151.5 797,-151.5 797,-127 632.5,-127"/>
<text text-anchor="start" x="710.62" y="-134.2" font-family="arial" font-size="14.00">1</text>
<polygon fill="none" stroke="black" points="632.5,-102.5 632.5,-127 797,-127 797,-102.5 632.5,-102.5"/>
<text text-anchor="start" x="710.62" y="-109.7" font-family="arial" font-size="14.00">2</text>
<polygon fill="none" stroke="black" points="632.5,-78 632.5,-102.5 797,-102.5 797,-78 632.5,-78"/>
<text text-anchor="start" x="710.62" y="-85.2" font-family="arial" font-size="14.00">3</text>
<polygon fill="none" stroke="black" points="632.5,-53.5 632.5,-78 797,-78 797,-53.5 632.5,-53.5"/>
<text text-anchor="start" x="710.62" y="-60.7" font-family="arial" font-size="14.00">4</text>
<polygon fill="none" stroke="black" points="632.5,-29 632.5,-53.5 797,-53.5 797,-29 632.5,-29"/>
<text text-anchor="start" x="710.62" y="-36.2" font-family="arial" font-size="14.00">5</text>
<polygon fill="none" stroke="black" points="632.5,-4.5 632.5,-29 797,-29 797,-4.5 632.5,-4.5"/>
<text text-anchor="start" x="710.62" y="-11.7" font-family="arial" font-size="14.00">6</text>
</g>
<!-- W1&#45;&#45;P2 -->
<g id="edge3" class="edge">
<title>W1:e&#45;&#45;P2:w</title>
<path fill="none" stroke="#000000" stroke-width="2" d="M488.5,-115.5C552.14,-115.53 568.12,-112.53 632.5,-112.5"/>
<path fill="none" stroke="#00ff00" stroke-width="2" d="M488.5,-117.5C552.51,-117.5 568.49,-114.5 632.5,-114.5"/>
<path fill="none" stroke="#000000" stroke-width="2" d="M488.5,-119.5C552.88,-119.47 568.86,-116.47 632.5,-116.5"/>
</g>
<!-- W1&#45;&#45;P2 -->
<g id="edge5" class="edge">
<title>W1:e&#45;&#45;P2:w</title>
<path fill="none" stroke="#000000" stroke-width="2" d="M488.5,-88.5C552.5,-88.5 568.5,-88.5 632.5,-88.5"/>
<path fill="none" stroke="#ffff00" stroke-width="2" d="M488.5,-90.5C552.5,-90.5 568.5,-90.5 632.5,-90.5"/>
<path fill="none" stroke="#000000" stroke-width="2" d="M488.5,-92.5C552.5,-92.5 568.5,-92.5 632.5,-92.5"/>
</g>
<!-- W1&#45;&#45;P2 -->
<g id="edge7" class="edge">
<title>W1:e&#45;&#45;P2:w</title>
<path fill="none" stroke="#000000" stroke-width="2" d="M488.5,-62.5C552.63,-62.5 568.62,-63.5 632.5,-63.5"/>
<path fill="none" stroke="#000000" stroke-width="2" d="M488.5,-64.5C552.5,-64.5 568.5,-65.5 632.5,-65.5"/>
<path fill="none" stroke="#000000" stroke-width="2" d="M488.5,-66.5C552.38,-66.5 568.37,-67.5 632.5,-67.5"/>
</g>
</g>
</svg>
