M48
; DRILL file {KiCad (6.0.7)} date Wed Jan 18 14:59:29 2023
; FORMAT={-:-/ absolute / inch / decimal}
; #@! TF.CreationDate,2023-01-18T14:59:29-05:00
; #@! TF.GenerationSoftware,Kicad,Pcbnew,(6.0.7)
; #@! TF.FileFunction,Plated,1,2,PTH
FMAT,2
INCH
; #@! TA.AperFunction,Plated,PTH,ViaDrill
T1C0.0118
; #@! TA.AperFunction,Plated,PTH,ComponentDrill
T2C0.0217
; #@! TA.AperFunction,Plated,PTH,ComponentDrill
T3C0.0335
%
G90
G05
T1
X3.7598Y-3.6516
X3.7598Y-3.6811
X3.7598Y-3.7106
X3.7598Y-3.7402
X3.7598Y-4.1339
X3.7598Y-4.1634
X3.7598Y-4.1929
X3.7598Y-4.2224
X3.7717Y-3.622
X3.7717Y-4.252
X3.7874Y-3.5925
X3.7874Y-4.2756
X3.8189Y-3.5748
X3.8189Y-4.2992
X3.8484Y-3.563
X3.8484Y-4.311
X3.878Y-3.563
X3.878Y-4.311
X3.9075Y-3.563
X3.9075Y-4.311
X3.937Y-3.563
X3.937Y-4.311
X3.9665Y-3.563
X3.9665Y-4.311
X3.9961Y-3.563
X3.9961Y-4.311
X4.0256Y-3.563
X4.0256Y-4.311
X4.0551Y-3.563
X4.0551Y-4.311
X4.0846Y-4.311
X4.1043Y-3.7795
X4.1043Y-4.0945
X4.1142Y-4.311
X4.1437Y-4.311
X4.1732Y-4.311
X4.1831Y-3.937
X4.2028Y-4.311
X4.2126Y-3.7402
X4.2283Y-4.0079
X4.2283Y-4.0394
X4.2323Y-3.7205
X4.2323Y-3.7598
X4.2323Y-4.311
X4.252Y-3.7402
X4.2598Y-4.0394
X4.2598Y-4.0866
X4.2618Y-4.311
X4.2815Y-3.7106
X4.2835Y-4.063
X4.2835Y-4.1102
X4.2913Y-4.311
X4.3209Y-4.311
X4.3504Y-4.311
X4.3799Y-4.311
X4.3898Y-3.6417
X4.3898Y-3.6713
X4.3898Y-4.0846
X4.4094Y-4.311
X4.439Y-4.311
X4.4685Y-3.6417
X4.4685Y-3.6713
X4.4685Y-3.8484
X4.4685Y-3.876
X4.4685Y-3.9075
X4.4685Y-4.311
X4.4783Y-3.9764
X4.4783Y-4.0157
X4.498Y-3.9961
X4.498Y-4.311
X4.5276Y-3.7598
X4.5276Y-3.8976
X4.5472Y-3.9173
X4.5472Y-4.0945
X4.5571Y-3.7598
X4.5571Y-3.7894
X4.5571Y-3.8583
X4.5669Y-3.937
X4.5669Y-4.0157
X4.5669Y-4.0748
X4.5866Y-3.7894
X4.5866Y-4.0945
X4.6555Y-3.7402
X4.6669Y-4.1442
X4.685Y-3.5827
X4.685Y-3.6811
X4.685Y-3.9567
X4.6949Y-3.8583
X4.7047Y-3.937
X4.7244Y-3.7402
X4.7343Y-3.7106
X4.7431Y-4.1142
X4.7539Y-4.1732
X4.7638Y-4.249
X4.7933Y-4.1142
X4.8228Y-3.6516
X4.8228Y-3.7402
X4.8228Y-3.8583
X4.8327Y-4.0157
X4.8524Y-3.8976
X4.8622Y-3.622
X4.8622Y-4.252
X4.8632Y-4.2126
X4.872Y-3.9665
X4.9016Y-3.8681
X4.9016Y-3.9075
X4.9311Y-3.9665
X4.9311Y-4.1831
X4.9311Y-4.2421
X4.9508Y-3.6417
X4.9508Y-4.0846
X4.9606Y-3.6811
X4.9705Y-3.9764
X5.0098Y-3.7106
X5.0295Y-3.9469
X5.0295Y-4.0157
X5.0295Y-4.0453
X5.0394Y-3.8583
X5.0394Y-4.0846
X5.0709Y-4.1732
X5.0733Y-4.1088
X5.0787Y-3.5728
X5.0787Y-3.6024
X5.0787Y-3.6811
X5.0787Y-4.2126
X5.1083Y-3.6811
X5.1181Y-4.2224
X5.1575Y-3.937
X5.1575Y-3.9764
X5.1575Y-4.0157
X5.1673Y-4.2717
X5.1772Y-4.0846
X5.2264Y-3.7106
X5.2264Y-3.75
X5.315Y-3.7874
X5.315Y-4.1417
X5.315Y-4.1811
X5.3465Y-3.7874
X5.3465Y-3.8189
X5.3465Y-3.8504
X5.3543Y-4.0
X5.3543Y-4.0315
X5.3543Y-4.063
X5.378Y-3.7874
X5.3839Y-3.6319
X5.3858Y-3.9843
X5.4094Y-3.7874
X5.4173Y-3.9843
X5.4252Y-3.6378
X5.4488Y-3.9843
X5.4488Y-4.2677
X5.4567Y-3.6378
X5.4567Y-3.6693
X5.4646Y-4.2913
X5.4803Y-3.9843
X5.4803Y-4.2677
X5.4961Y-4.2913
X5.5118Y-3.9843
X5.5118Y-4.2126
X5.5118Y-4.2677
X5.5276Y-4.2441
X5.5276Y-4.2913
X5.5315Y-4.0748
X5.5354Y-4.0079
X5.5413Y-3.75
X5.5433Y-4.2677
X5.5512Y-4.0551
X5.5512Y-4.0945
X5.5709Y-4.0354
X5.5709Y-4.0748
X5.5709Y-4.1142
X5.5748Y-3.5984
X5.5748Y-3.6299
X5.5748Y-3.6614
X5.5748Y-4.2677
X5.5822Y-4.3125
X5.5906Y-4.0157
X5.5906Y-4.0551
X5.5906Y-4.0945
X5.5906Y-4.1339
X5.6102Y-3.9961
X5.6102Y-4.0354
X5.6102Y-4.0748
X5.6102Y-4.1142
X5.6102Y-4.1535
X5.6299Y-4.0157
X5.6299Y-4.0551
X5.6299Y-4.0945
X5.6299Y-4.1339
X5.6496Y-4.0354
X5.6496Y-4.0748
X5.6496Y-4.1142
X5.6614Y-4.2441
X5.6693Y-4.0551
X5.6693Y-4.0945
X5.689Y-4.0748
X5.6929Y-3.6299
X5.6929Y-4.2441
X5.7244Y-3.6299
X5.7244Y-4.2441
X5.8071Y-3.7992
X5.8661Y-3.7106
X5.8858Y-3.8878
X5.9213Y-3.6299
X5.9528Y-3.6299
X5.9843Y-3.6299
X6.0728Y-3.6122
X6.0728Y-3.6417
X6.0728Y-3.6713
X6.0728Y-3.7008
X6.0728Y-3.8878
X6.0728Y-3.9173
X6.0728Y-3.9469
X6.0728Y-3.9764
X6.0728Y-4.0059
X6.0728Y-4.0354
X6.0728Y-4.065
X6.0728Y-4.0945
X6.0728Y-4.124
X6.0728Y-4.1535
X6.0728Y-4.1831
X6.0728Y-4.2126
X6.0728Y-4.2421
T2
G00X3.814Y-3.7844
M15
G01X3.7884Y-3.7844
M16
G05
G00X3.814Y-4.0896
M15
G01X3.7884Y-4.0896
M16
G05
T3
G00X3.9616Y-3.7904
M15
G01X3.94Y-3.7904
M16
G05
G00X3.9616Y-4.0837
M15
G01X3.94Y-4.0837
M16
G05
T0
M30
