%TF.GenerationSoftware,KiCad,Pcbnew,(6.0.7)*%
%TF.CreationDate,2023-01-18T14:59:31-05:00*%
%TF.ProjectId,microkfd,6d696372-6f6b-4666-942e-6b696361645f,E*%
%TF.SameCoordinates,Original*%
%TF.FileFunction,Soldermask,Top*%
%TF.FilePolarity,Negative*%
%FSLAX46Y46*%
G04 Gerber Fmt 4.6, Leading zero omitted, Abs format (unit mm)*
G04 Created by KiCad (PCBNEW (6.0.7)) date 2023-01-18 14:59:31*
%MOMM*%
%LPD*%
G01*
G04 APERTURE LIST*
G04 Aperture macros list*
%AMRoundRect*
0 Rectangle with rounded corners*
0 $1 Rounding radius*
0 $2 $3 $4 $5 $6 $7 $8 $9 X,Y pos of 4 corners*
0 Add a 4 corners polygon primitive as box body*
4,1,4,$2,$3,$4,$5,$6,$7,$8,$9,$2,$3,0*
0 Add four circle primitives for the rounded corners*
1,1,$1+$1,$2,$3*
1,1,$1+$1,$4,$5*
1,1,$1+$1,$6,$7*
1,1,$1+$1,$8,$9*
0 Add four rect primitives between the rounded corners*
20,1,$1+$1,$2,$3,$4,$5,0*
20,1,$1+$1,$4,$5,$6,$7,0*
20,1,$1+$1,$6,$7,$8,$9,0*
20,1,$1+$1,$8,$9,$2,$3,0*%
%AMFreePoly0*
4,1,22,0.500000,-0.750000,0.000000,-0.750000,0.000000,-0.745033,-0.079941,-0.743568,-0.215256,-0.701293,-0.333266,-0.622738,-0.424486,-0.514219,-0.481581,-0.384460,-0.499164,-0.250000,-0.500000,-0.250000,-0.500000,0.250000,-0.499164,0.250000,-0.499963,0.256109,-0.478152,0.396186,-0.417904,0.524511,-0.324060,0.630769,-0.204165,0.706417,-0.067858,0.745374,0.000000,0.744959,0.000000,0.750000,
0.500000,0.750000,0.500000,-0.750000,0.500000,-0.750000,$1*%
%AMFreePoly1*
4,1,20,0.000000,0.744959,0.073905,0.744508,0.209726,0.703889,0.328688,0.626782,0.421226,0.519385,0.479903,0.390333,0.500000,0.250000,0.500000,-0.250000,0.499851,-0.262216,0.476331,-0.402017,0.414519,-0.529596,0.319384,-0.634700,0.198574,-0.708877,0.061801,-0.746166,0.000000,-0.745033,0.000000,-0.750000,-0.500000,-0.750000,-0.500000,0.750000,0.000000,0.750000,0.000000,0.744959,
0.000000,0.744959,$1*%
G04 Aperture macros list end*
%ADD10RoundRect,0.237500X0.287500X0.237500X-0.287500X0.237500X-0.287500X-0.237500X0.287500X-0.237500X0*%
%ADD11RoundRect,0.150000X-0.587500X-0.150000X0.587500X-0.150000X0.587500X0.150000X-0.587500X0.150000X0*%
%ADD12RoundRect,0.237500X0.237500X-0.300000X0.237500X0.300000X-0.237500X0.300000X-0.237500X-0.300000X0*%
%ADD13R,1.200000X0.400000*%
%ADD14RoundRect,0.237500X0.237500X-0.250000X0.237500X0.250000X-0.237500X0.250000X-0.237500X-0.250000X0*%
%ADD15RoundRect,0.237500X-0.250000X-0.237500X0.250000X-0.237500X0.250000X0.237500X-0.250000X0.237500X0*%
%ADD16RoundRect,0.237500X-0.237500X0.250000X-0.237500X-0.250000X0.237500X-0.250000X0.237500X0.250000X0*%
%ADD17RoundRect,0.237500X-0.300000X-0.237500X0.300000X-0.237500X0.300000X0.237500X-0.300000X0.237500X0*%
%ADD18R,1.000000X1.000000*%
%ADD19RoundRect,0.237500X-0.237500X0.300000X-0.237500X-0.300000X0.237500X-0.300000X0.237500X0.300000X0*%
%ADD20R,2.510000X1.000000*%
%ADD21R,2.100000X1.800000*%
%ADD22C,1.700000*%
%ADD23R,2.200000X2.800000*%
%ADD24R,2.800000X2.800000*%
%ADD25RoundRect,0.237500X0.300000X0.237500X-0.300000X0.237500X-0.300000X-0.237500X0.300000X-0.237500X0*%
%ADD26R,0.550000X1.600000*%
%ADD27R,1.600000X0.550000*%
%ADD28O,0.800000X0.800000*%
%ADD29R,1.300000X0.450000*%
%ADD30O,2.000000X1.450000*%
%ADD31O,1.800000X1.150000*%
%ADD32FreePoly0,0.000000*%
%ADD33FreePoly1,0.000000*%
%ADD34C,0.750000*%
%ADD35R,1.450000X1.000000*%
%ADD36R,3.150000X1.000000*%
G04 APERTURE END LIST*
D10*
%TO.C,D2*%
X127875000Y-108750000D03*
X126125000Y-108750000D03*
%TD*%
D11*
%TO.C,Q2*%
X145125000Y-106800000D03*
X145125000Y-108700000D03*
X147000000Y-107750000D03*
%TD*%
D12*
%TO.C,C10*%
X138750000Y-107112500D03*
X138750000Y-105387500D03*
%TD*%
D13*
%TO.C,U1*%
X117600000Y-102857500D03*
X117600000Y-102222500D03*
X117600000Y-101587500D03*
X117600000Y-100952500D03*
X117600000Y-100317500D03*
X117600000Y-99682500D03*
X117600000Y-99047500D03*
X117600000Y-98412500D03*
X117600000Y-97777500D03*
X117600000Y-97142500D03*
X112400000Y-97142500D03*
X112400000Y-97777500D03*
X112400000Y-98412500D03*
X112400000Y-99047500D03*
X112400000Y-99682500D03*
X112400000Y-100317500D03*
X112400000Y-100952500D03*
X112400000Y-101587500D03*
X112400000Y-102222500D03*
X112400000Y-102857500D03*
%TD*%
D14*
%TO.C,R5*%
X105750000Y-97162500D03*
X105750000Y-95337500D03*
%TD*%
D15*
%TO.C,R7*%
X115837500Y-108500000D03*
X117662500Y-108500000D03*
%TD*%
D16*
%TO.C,R16*%
X120250000Y-91087500D03*
X120250000Y-92912500D03*
%TD*%
D17*
%TO.C,C7*%
X119387500Y-95750000D03*
X121112500Y-95750000D03*
%TD*%
D18*
%TO.C,TP5*%
X147500000Y-95500000D03*
%TD*%
D16*
%TO.C,R4*%
X110250000Y-97837500D03*
X110250000Y-99662500D03*
%TD*%
%TO.C,R13*%
X143000000Y-106837500D03*
X143000000Y-108662500D03*
%TD*%
D18*
%TO.C,TP6*%
X147750000Y-104500000D03*
%TD*%
D15*
%TO.C,R9*%
X126087500Y-107000000D03*
X127912500Y-107000000D03*
%TD*%
D19*
%TO.C,C5*%
X110250000Y-102887500D03*
X110250000Y-104612500D03*
%TD*%
D16*
%TO.C,R2*%
X103250000Y-102337500D03*
X103250000Y-104162500D03*
%TD*%
D18*
%TO.C,TP4*%
X130500000Y-92500000D03*
%TD*%
D20*
%TO.C,J3*%
X106345000Y-103810000D03*
X109655000Y-101270000D03*
X106345000Y-98730000D03*
X109655000Y-96190000D03*
%TD*%
D21*
%TO.C,Y1*%
X133450000Y-108250000D03*
X136550000Y-108250000D03*
X136550000Y-105750000D03*
X133450000Y-105750000D03*
%TD*%
D22*
%TO.C,J4*%
X145500000Y-100000000D03*
X152500000Y-100000000D03*
D23*
X151600000Y-103700000D03*
X153600000Y-96300000D03*
D24*
X144200000Y-96300000D03*
%TD*%
D10*
%TO.C,D1*%
X124375000Y-108750000D03*
X122625000Y-108750000D03*
%TD*%
D25*
%TO.C,C8*%
X131362500Y-95750000D03*
X129637500Y-95750000D03*
%TD*%
D26*
%TO.C,U2*%
X122450000Y-105000000D03*
X123250000Y-105000000D03*
X124050000Y-105000000D03*
X124850000Y-105000000D03*
X125650000Y-105000000D03*
X126450000Y-105000000D03*
X127250000Y-105000000D03*
X128050000Y-105000000D03*
D27*
X129500000Y-103550000D03*
X129500000Y-102750000D03*
X129500000Y-101950000D03*
X129500000Y-101150000D03*
X129500000Y-100350000D03*
X129500000Y-99550000D03*
X129500000Y-98750000D03*
X129500000Y-97950000D03*
D26*
X128050000Y-96500000D03*
X127250000Y-96500000D03*
X126450000Y-96500000D03*
X125650000Y-96500000D03*
X124850000Y-96500000D03*
X124050000Y-96500000D03*
X123250000Y-96500000D03*
X122450000Y-96500000D03*
D27*
X121000000Y-97950000D03*
X121000000Y-98750000D03*
X121000000Y-99550000D03*
X121000000Y-100350000D03*
X121000000Y-101150000D03*
X121000000Y-101950000D03*
X121000000Y-102750000D03*
X121000000Y-103550000D03*
%TD*%
D12*
%TO.C,C2*%
X106000000Y-92862500D03*
X106000000Y-91137500D03*
%TD*%
D28*
%TO.C,J1*%
X99300000Y-102500000D03*
X99300000Y-97500000D03*
D29*
X100400000Y-98700000D03*
X100400000Y-99350000D03*
X100400000Y-100000000D03*
X100400000Y-100650000D03*
X100400000Y-101300000D03*
D30*
X100350000Y-96275000D03*
D31*
X96550000Y-103875000D03*
D30*
X100350000Y-103725000D03*
D31*
X96550000Y-96125000D03*
%TD*%
D16*
%TO.C,R14*%
X149000000Y-91337500D03*
X149000000Y-93162500D03*
%TD*%
D18*
%TO.C,TP3*%
X118000000Y-92500000D03*
%TD*%
D32*
%TO.C,JP1*%
X112700000Y-106250000D03*
D33*
X114000000Y-106250000D03*
%TD*%
D34*
%TO.C,SW1*%
X137500000Y-90625000D03*
X137500000Y-93375000D03*
D35*
X134925000Y-91150000D03*
X140075000Y-91150000D03*
X134925000Y-92850000D03*
X140075000Y-92850000D03*
%TD*%
D12*
%TO.C,C4*%
X104250000Y-92862500D03*
X104250000Y-91137500D03*
%TD*%
D15*
%TO.C,R8*%
X122587500Y-107000000D03*
X124412500Y-107000000D03*
%TD*%
D16*
%TO.C,R3*%
X120900000Y-106987500D03*
X120900000Y-108812500D03*
%TD*%
D15*
%TO.C,R6*%
X112337500Y-108500000D03*
X114162500Y-108500000D03*
%TD*%
D18*
%TO.C,D3*%
X151000000Y-91000000D03*
X151000000Y-93500000D03*
%TD*%
D19*
%TO.C,C9*%
X131250000Y-105387500D03*
X131250000Y-107112500D03*
%TD*%
D16*
%TO.C,R10*%
X132750000Y-91087500D03*
X132750000Y-92912500D03*
%TD*%
D34*
%TO.C,SW3*%
X125000000Y-90625000D03*
X125000000Y-93375000D03*
D35*
X122425000Y-91150000D03*
X127575000Y-91150000D03*
X122425000Y-92850000D03*
X127575000Y-92850000D03*
%TD*%
D14*
%TO.C,R15*%
X149000000Y-108662500D03*
X149000000Y-106837500D03*
%TD*%
%TO.C,R1*%
X103250000Y-97662500D03*
X103250000Y-95837500D03*
%TD*%
D36*
%TO.C,J2*%
X133225000Y-97460000D03*
X138275000Y-97460000D03*
X133225000Y-100000000D03*
X138275000Y-100000000D03*
X133225000Y-102540000D03*
X138275000Y-102540000D03*
%TD*%
D16*
%TO.C,R11*%
X107750000Y-91087500D03*
X107750000Y-92912500D03*
%TD*%
%TO.C,R12*%
X143000000Y-91337500D03*
X143000000Y-93162500D03*
%TD*%
D14*
%TO.C,R17*%
X153000000Y-93162500D03*
X153000000Y-91337500D03*
%TD*%
D18*
%TO.C,D4*%
X151000000Y-109000000D03*
X151000000Y-106500000D03*
%TD*%
D16*
%TO.C,R18*%
X153000000Y-106837500D03*
X153000000Y-108662500D03*
%TD*%
D34*
%TO.C,SW2*%
X112500000Y-93375000D03*
X112500000Y-90625000D03*
D35*
X109925000Y-91150000D03*
X115075000Y-91150000D03*
X115075000Y-92850000D03*
X109925000Y-92850000D03*
%TD*%
D17*
%TO.C,C6*%
X115887500Y-106500000D03*
X117612500Y-106500000D03*
%TD*%
D11*
%TO.C,Q1*%
X145062500Y-91300000D03*
X145062500Y-93200000D03*
X146937500Y-92250000D03*
%TD*%
M02*
