%TF.GenerationSoftware,KiCad,Pcbnew,(6.0.0)*%
%TF.CreationDate,2022-01-08T12:56:22-06:00*%
%TF.ProjectId,microkfd,6d696372-6f6b-4666-942e-6b696361645f,B*%
%TF.SameCoordinates,Original*%
%TF.FileFunction,Soldermask,Top*%
%TF.FilePolarity,Negative*%
%FSLAX46Y46*%
G04 Gerber Fmt 4.6, Leading zero omitted, Abs format (unit mm)*
G04 Created by KiCad (PCBNEW (6.0.0)) date 2022-01-08 12:56:22*
%MOMM*%
%LPD*%
G01*
G04 APERTURE LIST*
G04 Aperture macros list*
%AMRoundRect*
0 Rectangle with rounded corners*
0 $1 Rounding radius*
0 $2 $3 $4 $5 $6 $7 $8 $9 X,Y pos of 4 corners*
0 Add a 4 corners polygon primitive as box body*
4,1,4,$2,$3,$4,$5,$6,$7,$8,$9,$2,$3,0*
0 Add four circle primitives for the rounded corners*
1,1,$1+$1,$2,$3*
1,1,$1+$1,$4,$5*
1,1,$1+$1,$6,$7*
1,1,$1+$1,$8,$9*
0 Add four rect primitives between the rounded corners*
20,1,$1+$1,$2,$3,$4,$5,0*
20,1,$1+$1,$4,$5,$6,$7,0*
20,1,$1+$1,$6,$7,$8,$9,0*
20,1,$1+$1,$8,$9,$2,$3,0*%
G04 Aperture macros list end*
%ADD10C,0.100000*%
%ADD11R,0.800000X1.900000*%
%ADD12RoundRect,0.250000X0.475000X-0.337500X0.475000X0.337500X-0.475000X0.337500X-0.475000X-0.337500X0*%
%ADD13RoundRect,0.250000X-0.475000X0.337500X-0.475000X-0.337500X0.475000X-0.337500X0.475000X0.337500X0*%
%ADD14RoundRect,0.250000X-0.337500X-0.475000X0.337500X-0.475000X0.337500X0.475000X-0.337500X0.475000X0*%
%ADD15RoundRect,0.249999X-0.325001X-0.450001X0.325001X-0.450001X0.325001X0.450001X-0.325001X0.450001X0*%
%ADD16RoundRect,0.249999X0.325001X0.450001X-0.325001X0.450001X-0.325001X-0.450001X0.325001X-0.450001X0*%
%ADD17RoundRect,0.249999X-0.450001X0.325001X-0.450001X-0.325001X0.450001X-0.325001X0.450001X0.325001X0*%
%ADD18RoundRect,0.249999X0.450001X-0.325001X0.450001X0.325001X-0.450001X0.325001X-0.450001X-0.325001X0*%
%ADD19C,1.700000*%
%ADD20R,2.200000X2.800000*%
%ADD21R,2.800000X2.800000*%
%ADD22R,1.900000X1.000000*%
%ADD23RoundRect,0.249999X-0.450001X0.350001X-0.450001X-0.350001X0.450001X-0.350001X0.450001X0.350001X0*%
%ADD24RoundRect,0.249999X0.450001X-0.350001X0.450001X0.350001X-0.450001X0.350001X-0.450001X-0.350001X0*%
%ADD25RoundRect,0.249999X-0.350001X-0.450001X0.350001X-0.450001X0.350001X0.450001X-0.350001X0.450001X0*%
%ADD26R,0.900000X1.000000*%
%ADD27C,0.750000*%
%ADD28R,1.450000X1.000000*%
%ADD29R,0.450000X0.300000*%
%ADD30R,2.100000X1.800000*%
%ADD31C,0.800000*%
%ADD32R,1.300000X0.450000*%
%ADD33C,2.000000*%
%ADD34C,1.800000*%
%ADD35R,1.500000X0.550000*%
%ADD36R,0.550000X1.500000*%
G04 APERTURE END LIST*
D10*
X100350000Y-109850000D02*
X99900000Y-109850000D01*
X99900000Y-109850000D02*
X99900000Y-109650000D01*
X99900000Y-109650000D02*
X100350000Y-109650000D01*
X100350000Y-109650000D02*
X100350000Y-109850000D01*
G36*
X100350000Y-109850000D02*
G01*
X99900000Y-109850000D01*
X99900000Y-109650000D01*
X100350000Y-109650000D01*
X100350000Y-109850000D01*
G37*
X100350000Y-109850000D02*
X99900000Y-109850000D01*
X99900000Y-109650000D01*
X100350000Y-109650000D01*
X100350000Y-109850000D01*
X98100000Y-110350000D02*
X97550000Y-110350000D01*
X97550000Y-110350000D02*
X97550000Y-110150000D01*
X97550000Y-110150000D02*
X98100000Y-110150000D01*
X98100000Y-110150000D02*
X98100000Y-110350000D01*
G36*
X98100000Y-110350000D02*
G01*
X97550000Y-110350000D01*
X97550000Y-110150000D01*
X98100000Y-110150000D01*
X98100000Y-110350000D01*
G37*
X98100000Y-110350000D02*
X97550000Y-110350000D01*
X97550000Y-110150000D01*
X98100000Y-110150000D01*
X98100000Y-110350000D01*
X98200000Y-100200000D02*
X97000000Y-100200000D01*
X97000000Y-100200000D02*
X97000000Y-99800000D01*
X97000000Y-99800000D02*
X98200000Y-99800000D01*
X98200000Y-99800000D02*
X98200000Y-100200000D01*
G36*
X98200000Y-100200000D02*
G01*
X97000000Y-100200000D01*
X97000000Y-99800000D01*
X98200000Y-99800000D01*
X98200000Y-100200000D01*
G37*
X98200000Y-100200000D02*
X97000000Y-100200000D01*
X97000000Y-99800000D01*
X98200000Y-99800000D01*
X98200000Y-100200000D01*
X98200000Y-98900000D02*
X97000000Y-98900000D01*
X97000000Y-98900000D02*
X97000000Y-98500000D01*
X97000000Y-98500000D02*
X98200000Y-98500000D01*
X98200000Y-98500000D02*
X98200000Y-98900000D01*
G36*
X98200000Y-98900000D02*
G01*
X97000000Y-98900000D01*
X97000000Y-98500000D01*
X98200000Y-98500000D01*
X98200000Y-98900000D01*
G37*
X98200000Y-98900000D02*
X97000000Y-98900000D01*
X97000000Y-98500000D01*
X98200000Y-98500000D01*
X98200000Y-98900000D01*
X98200000Y-99500000D02*
X97000000Y-99500000D01*
X97000000Y-99500000D02*
X97000000Y-99200000D01*
X97000000Y-99200000D02*
X98200000Y-99200000D01*
X98200000Y-99200000D02*
X98200000Y-99500000D01*
G36*
X98200000Y-99500000D02*
G01*
X97000000Y-99500000D01*
X97000000Y-99200000D01*
X98200000Y-99200000D01*
X98200000Y-99500000D01*
G37*
X98200000Y-99500000D02*
X97000000Y-99500000D01*
X97000000Y-99200000D01*
X98200000Y-99200000D01*
X98200000Y-99500000D01*
X100350000Y-109350000D02*
X99900000Y-109350000D01*
X99900000Y-109350000D02*
X99900000Y-109150000D01*
X99900000Y-109150000D02*
X100350000Y-109150000D01*
X100350000Y-109150000D02*
X100350000Y-109350000D01*
G36*
X100350000Y-109350000D02*
G01*
X99900000Y-109350000D01*
X99900000Y-109150000D01*
X100350000Y-109150000D01*
X100350000Y-109350000D01*
G37*
X100350000Y-109350000D02*
X99900000Y-109350000D01*
X99900000Y-109150000D01*
X100350000Y-109150000D01*
X100350000Y-109350000D01*
X98200000Y-101500000D02*
X97000000Y-101500000D01*
X97000000Y-101500000D02*
X97000000Y-101100000D01*
X97000000Y-101100000D02*
X98200000Y-101100000D01*
X98200000Y-101100000D02*
X98200000Y-101500000D01*
G36*
X98200000Y-101500000D02*
G01*
X97000000Y-101500000D01*
X97000000Y-101100000D01*
X98200000Y-101100000D01*
X98200000Y-101500000D01*
G37*
X98200000Y-101500000D02*
X97000000Y-101500000D01*
X97000000Y-101100000D01*
X98200000Y-101100000D01*
X98200000Y-101500000D01*
X98100000Y-109350000D02*
X97600000Y-109350000D01*
X97600000Y-109350000D02*
X97600000Y-109150000D01*
X97600000Y-109150000D02*
X98100000Y-109150000D01*
X98100000Y-109150000D02*
X98100000Y-109350000D01*
G36*
X98100000Y-109350000D02*
G01*
X97600000Y-109350000D01*
X97600000Y-109150000D01*
X98100000Y-109150000D01*
X98100000Y-109350000D01*
G37*
X98100000Y-109350000D02*
X97600000Y-109350000D01*
X97600000Y-109150000D01*
X98100000Y-109150000D01*
X98100000Y-109350000D01*
X98200000Y-100800000D02*
X97000000Y-100800000D01*
X97000000Y-100800000D02*
X97000000Y-100500000D01*
X97000000Y-100500000D02*
X98200000Y-100500000D01*
X98200000Y-100500000D02*
X98200000Y-100800000D01*
G36*
X98200000Y-100800000D02*
G01*
X97000000Y-100800000D01*
X97000000Y-100500000D01*
X98200000Y-100500000D01*
X98200000Y-100800000D01*
G37*
X98200000Y-100800000D02*
X97000000Y-100800000D01*
X97000000Y-100500000D01*
X98200000Y-100500000D01*
X98200000Y-100800000D01*
D11*
%TO.C,Q2*%
X127450000Y-102500000D03*
X125550000Y-102500000D03*
X126500000Y-105500000D03*
%TD*%
%TO.C,Q1*%
X125550000Y-97500000D03*
X127450000Y-97500000D03*
X126500000Y-94500000D03*
%TD*%
D12*
%TO.C,C1*%
X119250000Y-111037500D03*
X119250000Y-108962500D03*
%TD*%
D13*
%TO.C,C2*%
X110750000Y-108962500D03*
X110750000Y-111037500D03*
%TD*%
%TO.C,C3*%
X107000000Y-103462500D03*
X107000000Y-105537500D03*
%TD*%
D14*
%TO.C,C4*%
X97962500Y-89500000D03*
X100037500Y-89500000D03*
%TD*%
D12*
%TO.C,C5*%
X127500000Y-110787500D03*
X127500000Y-108712500D03*
%TD*%
D14*
%TO.C,C6*%
X97962500Y-91750000D03*
X100037500Y-91750000D03*
%TD*%
D15*
%TO.C,D1*%
X136975000Y-95000000D03*
X139025000Y-95000000D03*
%TD*%
D16*
%TO.C,D2*%
X138775000Y-105500000D03*
X136725000Y-105500000D03*
%TD*%
D17*
%TO.C,D3*%
X93250000Y-108725000D03*
X93250000Y-110775000D03*
%TD*%
D18*
%TO.C,D4*%
X134000000Y-110750000D03*
X134000000Y-108700000D03*
%TD*%
%TO.C,D5*%
X140000000Y-110775000D03*
X140000000Y-108725000D03*
%TD*%
D17*
%TO.C,F1*%
X94500000Y-89475000D03*
X94500000Y-91525000D03*
%TD*%
D19*
%TO.C,J2*%
X135500000Y-100000000D03*
X142500000Y-100000000D03*
D20*
X141600000Y-103700000D03*
X143600000Y-96300000D03*
D21*
X134200000Y-96300000D03*
%TD*%
D22*
%TO.C,J3*%
X104150000Y-103810000D03*
X100850000Y-101270000D03*
X104150000Y-98730000D03*
X100850000Y-96190000D03*
%TD*%
D23*
%TO.C,R1*%
X107000000Y-99500000D03*
X107000000Y-101500000D03*
%TD*%
%TO.C,R2*%
X107000000Y-95500000D03*
X107000000Y-97500000D03*
%TD*%
D24*
%TO.C,R3*%
X101750000Y-110750000D03*
X101750000Y-108750000D03*
%TD*%
D25*
%TO.C,R4*%
X123000000Y-110750000D03*
X125000000Y-110750000D03*
%TD*%
D24*
%TO.C,R5*%
X105000000Y-90500000D03*
X105000000Y-88500000D03*
%TD*%
D25*
%TO.C,R6*%
X123000000Y-108500000D03*
X125000000Y-108500000D03*
%TD*%
D24*
%TO.C,R7*%
X115000000Y-90500000D03*
X115000000Y-88500000D03*
%TD*%
%TO.C,R8*%
X123250000Y-97750000D03*
X123250000Y-95750000D03*
%TD*%
%TO.C,R9*%
X123250000Y-105750000D03*
X123250000Y-103750000D03*
%TD*%
D23*
%TO.C,R10*%
X129750000Y-95750000D03*
X129750000Y-97750000D03*
%TD*%
D24*
%TO.C,R11*%
X129750000Y-105750000D03*
X129750000Y-103750000D03*
%TD*%
%TO.C,R12*%
X125000000Y-90500000D03*
X125000000Y-88500000D03*
%TD*%
D25*
%TO.C,R13*%
X132000000Y-93250000D03*
X134000000Y-93250000D03*
%TD*%
%TO.C,R14*%
X132250000Y-105500000D03*
X134250000Y-105500000D03*
%TD*%
D23*
%TO.C,R15*%
X96000000Y-108750000D03*
X96000000Y-110750000D03*
%TD*%
%TO.C,R16*%
X131000000Y-108750000D03*
X131000000Y-110750000D03*
%TD*%
%TO.C,R17*%
X137000000Y-108750000D03*
X137000000Y-110750000D03*
%TD*%
D26*
%TO.C,SW1*%
X108050000Y-110800000D03*
X103950000Y-110800000D03*
X108050000Y-109200000D03*
X103950000Y-109200000D03*
%TD*%
D27*
%TO.C,SW2*%
X110000000Y-88125000D03*
X110000000Y-90875000D03*
D28*
X112575000Y-88650000D03*
X107425000Y-88650000D03*
X107425000Y-90350000D03*
X112575000Y-90350000D03*
%TD*%
D27*
%TO.C,SW3*%
X120000000Y-88125000D03*
X120000000Y-90875000D03*
D28*
X122575000Y-88650000D03*
X117425000Y-88650000D03*
X122575000Y-90350000D03*
X117425000Y-90350000D03*
%TD*%
D27*
%TO.C,SW4*%
X130000000Y-90875000D03*
X130000000Y-88125000D03*
D28*
X132575000Y-88650000D03*
X127425000Y-88650000D03*
X127425000Y-90350000D03*
X132575000Y-90350000D03*
%TD*%
D29*
%TO.C,U1*%
X99700000Y-110250000D03*
X99700000Y-109750000D03*
X99700000Y-109250000D03*
X98300000Y-109250000D03*
X98300000Y-110250000D03*
%TD*%
D30*
%TO.C,Y1*%
X113550000Y-111200000D03*
X116450000Y-111200000D03*
X116450000Y-109000000D03*
X113550000Y-109000000D03*
%TD*%
D31*
%TO.C,J1*%
X95300000Y-102500000D03*
X95300000Y-97500000D03*
D32*
X96400000Y-98700000D03*
X96400000Y-99350000D03*
X96400000Y-100000000D03*
X96400000Y-100650000D03*
X96400000Y-101300000D03*
D33*
X96350000Y-96275000D03*
X96350000Y-103725000D03*
D34*
X92550000Y-96125000D03*
X92550000Y-103875000D03*
%TD*%
D35*
%TO.C,U2*%
X109300000Y-96000000D03*
X109300000Y-96800000D03*
X109300000Y-97600000D03*
X109300000Y-98400000D03*
X109300000Y-99200000D03*
X109300000Y-100000000D03*
X109300000Y-100800000D03*
X109300000Y-101600000D03*
X109300000Y-102400000D03*
X109300000Y-103200000D03*
X109300000Y-104000000D03*
D36*
X111000000Y-105700000D03*
X111800000Y-105700000D03*
X112600000Y-105700000D03*
X113400000Y-105700000D03*
X114200000Y-105700000D03*
X115000000Y-105700000D03*
X115800000Y-105700000D03*
X116600000Y-105700000D03*
X117400000Y-105700000D03*
X118200000Y-105700000D03*
X119000000Y-105700000D03*
D35*
X120700000Y-104000000D03*
X120700000Y-103200000D03*
X120700000Y-102400000D03*
X120700000Y-101600000D03*
X120700000Y-100800000D03*
X120700000Y-100000000D03*
X120700000Y-99200000D03*
X120700000Y-98400000D03*
X120700000Y-97600000D03*
X120700000Y-96800000D03*
X120700000Y-96000000D03*
D36*
X119000000Y-94300000D03*
X118200000Y-94300000D03*
X117400000Y-94300000D03*
X116600000Y-94300000D03*
X115800000Y-94300000D03*
X115000000Y-94300000D03*
X114200000Y-94300000D03*
X113400000Y-94300000D03*
X112600000Y-94300000D03*
X111800000Y-94300000D03*
X111000000Y-94300000D03*
%TD*%
M02*
