M48
; DRILL file {KiCad 9.0.0} date 2025-06-05T15:48:40-0400
; FORMAT={-:-/ absolute / metric / decimal}
; #@! TF.CreationDate,2025-06-05T15:48:40-04:00
; #@! TF.GenerationSoftware,Kicad,Pcbnew,9.0.0
; #@! TF.FileFunction,Plated,1,2,PTH
FMAT,2
METRIC
; #@! TA.AperFunction,Plated,PTH,ViaDrill
T1C0.300
; #@! TA.AperFunction,Plated,PTH,ViaDrill
T2C0.400
; #@! TA.AperFunction,Plated,PTH,ComponentDrill
T3C0.600
; #@! TA.AperFunction,Plated,PTH,ComponentDrill
T4C1.000
%
G90
G05
T1
X94.25Y-91.5
X94.25Y-92.5
X94.25Y-93.5
X94.25Y-94.5
X94.25Y-97.5
X94.25Y-98.5
X94.25Y-99.5
X94.25Y-100.5
X94.25Y-101.5
X94.25Y-102.5
X94.25Y-105.5
X94.25Y-106.5
X94.25Y-107.5
X94.25Y-108.5
X94.75Y-90.5
X94.75Y-109.5
X95.0Y-96.75
X95.0Y-103.25
X95.5Y-89.75
X95.5Y-110.25
X96.5Y-89.5
X96.5Y-110.5
X97.186Y-99.549
X97.2Y-100.349
X97.2Y-101.149
X97.201Y-98.749
X97.5Y-89.5
X97.5Y-110.5
X98.5Y-89.5
X98.5Y-110.5
X99.5Y-89.5
X99.5Y-110.5
X100.5Y-89.5
X100.5Y-110.5
X101.5Y-89.5
X101.5Y-110.5
X102.5Y-89.5
X102.5Y-110.5
X103.5Y-89.5
X103.5Y-110.5
X104.5Y-89.5
X104.5Y-110.5
X105.25Y-101.0
X105.5Y-89.5
X105.5Y-110.5
X105.6Y-99.0
X106.5Y-89.5
X106.5Y-110.5
X106.55Y-101.0
X107.25Y-100.5
X107.25Y-101.5
X107.25Y-103.25
X107.5Y-89.5
X107.5Y-110.5
X108.5Y-89.5
X108.5Y-92.25
X108.5Y-94.5
X108.5Y-110.5
X109.0Y-97.25
X109.5Y-89.5
X109.5Y-110.5
X110.5Y-89.5
X110.5Y-110.5
X111.5Y-89.5
X111.5Y-110.5
X112.5Y-89.5
X112.5Y-110.5
X113.5Y-89.5
X113.5Y-92.25
X113.5Y-110.5
X114.5Y-89.5
X114.5Y-110.5
X115.5Y-110.5
X116.5Y-110.5
X117.25Y-100.5
X117.5Y-110.5
X118.0Y-99.75
X118.0Y-101.25
X118.5Y-110.5
X118.75Y-100.5
X119.5Y-110.5
X120.5Y-110.5
X121.5Y-110.5
X121.75Y-98.75
X122.5Y-98.0
X122.5Y-110.5
X123.25Y-94.5
X123.25Y-97.25
X123.25Y-106.5
X123.5Y-110.5
X124.0Y-105.75
X124.0Y-107.25
X124.5Y-110.5
X124.75Y-106.5
X125.5Y-110.5
X126.5Y-110.5
X132.5Y-89.5
X133.5Y-89.5
X134.5Y-89.5
X135.5Y-89.5
X136.5Y-89.5
X137.5Y-89.5
X138.5Y-89.5
X139.5Y-89.5
X140.5Y-89.5
X141.5Y-89.5
X142.5Y-89.5
X143.5Y-89.5
X144.5Y-89.5
X145.5Y-89.5
X146.5Y-89.75
T2
X121.0Y-100.0
X121.5Y-94.292
X122.5Y-100.75
X122.75Y-99.25
X125.5Y-108.0
X127.25Y-101.25
X127.75Y-100.5
X129.75Y-100.0
X131.75Y-109.0
X132.0Y-107.75
X132.75Y-94.5
X132.75Y-95.75
T4
X117.3Y-90.25
X119.84Y-90.25
X122.38Y-90.25
X124.92Y-90.25
X127.46Y-90.25
X130.0Y-90.25
T3
G00X94.9Y-95.68
M15
G01X94.3Y-95.68
M16
G05
G00X94.9Y-104.32
M15
G01X94.3Y-104.32
M16
G05
G00X99.33Y-95.68
M15
G01X98.23Y-95.68
M16
G05
G00X99.33Y-104.32
M15
G01X98.23Y-104.32
M16
G05
M30
