%TF.GenerationSoftware,KiCad,Pcbnew,9.0.0*%
%TF.CreationDate,2025-06-05T15:48:38-04:00*%
%TF.ProjectId,microkfd,6d696372-6f6b-4666-942e-6b696361645f,B*%
%TF.SameCoordinates,Original*%
%TF.FileFunction,Copper,L2,Bot*%
%TF.FilePolarity,Positive*%
%FSLAX46Y46*%
G04 Gerber Fmt 4.6, Leading zero omitted, Abs format (unit mm)*
G04 Created by KiCad (PCBNEW 9.0.0) date 2025-06-05 15:48:38*
%MOMM*%
%LPD*%
G01*
G04 APERTURE LIST*
%TA.AperFunction,ComponentPad*%
%ADD10O,1.600000X1.000000*%
%TD*%
%TA.AperFunction,ComponentPad*%
%ADD11O,2.100000X1.000000*%
%TD*%
%TA.AperFunction,ComponentPad*%
%ADD12O,1.700000X1.700000*%
%TD*%
%TA.AperFunction,ComponentPad*%
%ADD13R,1.700000X1.700000*%
%TD*%
%TA.AperFunction,ViaPad*%
%ADD14C,0.600000*%
%TD*%
%TA.AperFunction,Conductor*%
%ADD15C,0.300000*%
%TD*%
G04 APERTURE END LIST*
D10*
%TO.P,J1,S1,SHIELD*%
%TO.N,GND*%
X94600000Y-104320000D03*
D11*
X98780000Y-104320000D03*
D10*
X94600000Y-95680000D03*
D11*
X98780000Y-95680000D03*
%TD*%
D12*
%TO.P,J2,6,GND*%
%TO.N,GND*%
X117300000Y-90250000D03*
%TO.P,J2,5,~{RST}*%
%TO.N,~{RESET}*%
X119840000Y-90250000D03*
%TO.P,J2,4,MOSI*%
%TO.N,MOSI*%
X122380000Y-90250000D03*
%TO.P,J2,3,SCK*%
%TO.N,SCK*%
X124920000Y-90250000D03*
%TO.P,J2,2,VCC*%
%TO.N,+5V*%
X127460000Y-90250000D03*
D13*
%TO.P,J2,1,MISO*%
%TO.N,MISO*%
X130000000Y-90250000D03*
%TD*%
D14*
%TO.N,GND*%
X123250000Y-94500000D03*
X121750000Y-98750000D03*
X122500000Y-98000000D03*
X123250000Y-97250000D03*
X124750000Y-106500000D03*
X124000000Y-107250000D03*
X123250000Y-106500000D03*
X124000000Y-105750000D03*
X117250000Y-100500000D03*
X118000000Y-101250000D03*
X118000000Y-99750000D03*
X118750000Y-100500000D03*
X146500000Y-89750000D03*
X134500000Y-89500000D03*
X136500000Y-89500000D03*
X137500000Y-89500000D03*
X138500000Y-89500000D03*
X132500000Y-89500000D03*
X135500000Y-89500000D03*
X133500000Y-89500000D03*
X142500000Y-89500000D03*
X139500000Y-89500000D03*
X140500000Y-89500000D03*
X143500000Y-89500000D03*
X141500000Y-89500000D03*
X144500000Y-89500000D03*
X145500000Y-89500000D03*
X114500000Y-89500000D03*
X113500000Y-89500000D03*
X112500000Y-89500000D03*
X111500000Y-89500000D03*
X110500000Y-89500000D03*
X109500000Y-89500000D03*
X108500000Y-89500000D03*
X107500000Y-89500000D03*
X106500000Y-89500000D03*
X105500000Y-89500000D03*
X104500000Y-89500000D03*
X103500000Y-89500000D03*
X102500000Y-89500000D03*
X101500000Y-89500000D03*
X100500000Y-89500000D03*
X99500000Y-89500000D03*
X98500000Y-89500000D03*
X97500000Y-89500000D03*
X96500000Y-89500000D03*
X95500000Y-89750000D03*
X94750000Y-90500000D03*
X94250000Y-91500000D03*
X94250000Y-92500000D03*
X94250000Y-93500000D03*
X94250000Y-94500000D03*
X126500000Y-110500000D03*
X125500000Y-110500000D03*
X124500000Y-110500000D03*
X123500000Y-110500000D03*
X122500000Y-110500000D03*
X121500000Y-110500000D03*
X120500000Y-110500000D03*
X119500000Y-110500000D03*
X118500000Y-110500000D03*
X117500000Y-110500000D03*
X116500000Y-110500000D03*
X115500000Y-110500000D03*
X114500000Y-110500000D03*
X113500000Y-110500000D03*
X112500000Y-110500000D03*
X111500000Y-110500000D03*
X110500000Y-110500000D03*
X109500000Y-110500000D03*
X108500000Y-110500000D03*
X107500000Y-110500000D03*
X106500000Y-110500000D03*
X105500000Y-110500000D03*
X104500000Y-110500000D03*
X103500000Y-110500000D03*
X102500000Y-110500000D03*
X101500000Y-110500000D03*
X100500000Y-110500000D03*
X99500000Y-110500000D03*
X98500000Y-110500000D03*
X97500000Y-110500000D03*
X96500000Y-110500000D03*
X95500000Y-110250000D03*
X94750000Y-109500000D03*
X94250000Y-108500000D03*
X94250000Y-107500000D03*
X94250000Y-106500000D03*
X94250000Y-105500000D03*
X95000000Y-96750000D03*
X95000000Y-103250000D03*
X94250000Y-102500000D03*
X94250000Y-101500000D03*
X94250000Y-97500000D03*
X94250000Y-98500000D03*
X94250000Y-99500000D03*
X94250000Y-100500000D03*
%TO.N,/OUT_D+*%
X105250000Y-101000000D03*
X106550000Y-101000000D03*
%TO.N,Net-(JP1-A)*%
X113500000Y-92250000D03*
X109000000Y-97250000D03*
%TO.N,Net-(JP1-B)*%
X108500000Y-94500000D03*
X108500000Y-92250000D03*
%TO.N,Net-(U3-VDD)*%
X107250000Y-103250000D03*
X107250000Y-101500000D03*
%TO.N,/OUT_D-*%
X107250000Y-100500000D03*
X105600000Y-99000000D03*
%TO.N,/IN_D+*%
X97186171Y-99549000D03*
X97200000Y-101148887D03*
%TO.N,/IN_D-*%
X97201268Y-98749140D03*
X97200000Y-100348884D03*
%TO.N,~{RESET}*%
X121500000Y-94292393D03*
%TO.N,TWI_D_RX*%
X132750000Y-95750000D03*
X122750000Y-99250000D03*
%TO.N,TWI_S_RX*%
X121000000Y-100000000D03*
X132000000Y-107750000D03*
%TO.N,MISO*%
X127750000Y-100500000D03*
%TO.N,SCK*%
X129750000Y-100000000D03*
%TO.N,MOSI*%
X127250000Y-101250000D03*
%TO.N,TWI_D_TX*%
X132750000Y-94500000D03*
X125500000Y-108000000D03*
%TO.N,TWI_S_TX*%
X122500000Y-100750000D03*
X131750000Y-109000000D03*
%TD*%
D15*
%TO.N,/OUT_D+*%
X106550000Y-101000000D02*
X105250000Y-101000000D01*
%TO.N,Net-(JP1-A)*%
X113000000Y-92750000D02*
X113500000Y-92250000D01*
X110000000Y-92750000D02*
X113000000Y-92750000D01*
X109500000Y-93750000D02*
X109500000Y-93250000D01*
X109500000Y-93250000D02*
X110000000Y-92750000D01*
X109000000Y-97250000D02*
X109500000Y-96750000D01*
X109500000Y-96750000D02*
X109500000Y-93750000D01*
%TO.N,Net-(JP1-B)*%
X108500000Y-92250000D02*
X108500000Y-94500000D01*
%TO.N,Net-(U3-VDD)*%
X107250000Y-101500000D02*
X107250000Y-103250000D01*
%TO.N,/OUT_D-*%
X107100000Y-100500000D02*
X105600000Y-99000000D01*
X107250000Y-100500000D02*
X107100000Y-100500000D01*
%TO.N,/IN_D-*%
X97201268Y-98749140D02*
X97200000Y-98750408D01*
X97200000Y-100200000D02*
X97200000Y-100348884D01*
X97455864Y-98898000D02*
X97837210Y-99279346D01*
X97837210Y-99818654D02*
X97455864Y-100200000D01*
X97837210Y-99279346D02*
X97837210Y-99818654D01*
X97200000Y-98898000D02*
X97455864Y-98898000D01*
X97200000Y-98750408D02*
X97200000Y-98898000D01*
X97455864Y-100200000D02*
X97200000Y-100200000D01*
%TO.N,/IN_D+*%
X97186171Y-99549000D02*
X97079230Y-99549000D01*
X96549000Y-100618538D02*
X97079349Y-101148887D01*
X97079349Y-101148887D02*
X97200000Y-101148887D01*
X96549000Y-100079230D02*
X96549000Y-100618538D01*
X97079230Y-99549000D02*
X96549000Y-100079230D01*
%TO.N,~{RESET}*%
X119840000Y-90250000D02*
X121500000Y-91910000D01*
X121500000Y-91910000D02*
X121500000Y-94292393D01*
%TO.N,TWI_D_RX*%
X126957106Y-102000000D02*
X128750000Y-102000000D01*
X132750000Y-98750000D02*
X132750000Y-95750000D01*
X131000000Y-100500000D02*
X132750000Y-98750000D01*
X126750000Y-101792894D02*
X126957106Y-102000000D01*
X128750000Y-102000000D02*
X129500000Y-102000000D01*
X125500000Y-100250000D02*
X125500000Y-100542894D01*
X129500000Y-102000000D02*
X131000000Y-100500000D01*
X124500000Y-99250000D02*
X125500000Y-100250000D01*
X125500000Y-100542894D02*
X126750000Y-101792894D01*
X122750000Y-99250000D02*
X124500000Y-99250000D01*
%TO.N,TWI_S_RX*%
X121000000Y-100000000D02*
X124250000Y-100000000D01*
X124250000Y-100000000D02*
X132000000Y-107750000D01*
%TO.N,MISO*%
X124750000Y-98000000D02*
X127000000Y-100250000D01*
X128250000Y-92000000D02*
X124750000Y-92000000D01*
X124750000Y-92000000D02*
X124750000Y-98000000D01*
X130000000Y-90250000D02*
X128250000Y-92000000D01*
X127250000Y-100500000D02*
X127750000Y-100500000D01*
X127000000Y-100250000D02*
X127250000Y-100500000D01*
%TO.N,SCK*%
X131750000Y-89397845D02*
X131750000Y-98000000D01*
X131750000Y-98000000D02*
X129750000Y-100000000D01*
X124920000Y-90250000D02*
X126120000Y-89050000D01*
X131402155Y-89050000D02*
X131750000Y-89397845D01*
X126120000Y-89050000D02*
X131402155Y-89050000D01*
%TO.N,MOSI*%
X124000000Y-98000000D02*
X124000000Y-91870000D01*
X127250000Y-101250000D02*
X124000000Y-98000000D01*
X124000000Y-91870000D02*
X122380000Y-90250000D01*
%TO.N,TWI_D_TX*%
X133750000Y-102250000D02*
X132500000Y-103500000D01*
X132750000Y-94500000D02*
X133750000Y-95500000D01*
X132500000Y-109750000D02*
X132250000Y-110000000D01*
X133250000Y-109000000D02*
X132500000Y-109750000D01*
X133750000Y-98750000D02*
X133750000Y-102250000D01*
X132500000Y-106500000D02*
X133250000Y-107250000D01*
X125500000Y-108250000D02*
X125500000Y-108000000D01*
X133750000Y-95500000D02*
X133750000Y-98750000D01*
X132250000Y-110000000D02*
X127250000Y-110000000D01*
X133250000Y-107250000D02*
X133250000Y-109000000D01*
X127250000Y-110000000D02*
X125500000Y-108250000D01*
X132500000Y-103500000D02*
X132500000Y-106500000D01*
%TO.N,TWI_S_TX*%
X131500000Y-109000000D02*
X131750000Y-109000000D01*
X124000000Y-101500000D02*
X123250000Y-100750000D01*
X123250000Y-100750000D02*
X122500000Y-100750000D01*
X124000000Y-101500000D02*
X130000000Y-107500000D01*
X130000000Y-107500000D02*
X131500000Y-109000000D01*
%TD*%
%TA.AperFunction,Conductor*%
%TO.N,GND*%
G36*
X125743002Y-88769407D02*
G01*
X125778966Y-88818907D01*
X125778966Y-88880093D01*
X125754814Y-88919504D01*
X125420291Y-89254025D01*
X125365775Y-89281802D01*
X125312403Y-89275485D01*
X125226420Y-89239870D01*
X125023467Y-89199500D01*
X125023465Y-89199500D01*
X124816535Y-89199500D01*
X124816532Y-89199500D01*
X124613581Y-89239869D01*
X124422402Y-89319058D01*
X124250348Y-89434020D01*
X124104020Y-89580348D01*
X123989058Y-89752402D01*
X123909869Y-89943581D01*
X123869500Y-90146532D01*
X123869500Y-90353467D01*
X123909869Y-90556418D01*
X123989058Y-90747597D01*
X124104020Y-90919651D01*
X124104023Y-90919655D01*
X124250345Y-91065977D01*
X124422402Y-91180941D01*
X124613580Y-91260130D01*
X124816535Y-91300500D01*
X124816536Y-91300500D01*
X125023464Y-91300500D01*
X125023465Y-91300500D01*
X125226420Y-91260130D01*
X125417598Y-91180941D01*
X125589655Y-91065977D01*
X125735977Y-90919655D01*
X125850941Y-90747598D01*
X125930130Y-90556420D01*
X125970500Y-90353465D01*
X125970500Y-90146535D01*
X125930130Y-89943580D01*
X125894512Y-89857593D01*
X125889712Y-89796599D01*
X125915972Y-89749707D01*
X126236185Y-89429496D01*
X126290701Y-89401719D01*
X126306188Y-89400500D01*
X126584861Y-89400500D01*
X126643052Y-89419407D01*
X126679016Y-89468907D01*
X126679016Y-89530093D01*
X126654866Y-89569501D01*
X126644023Y-89580345D01*
X126644020Y-89580348D01*
X126529058Y-89752402D01*
X126449869Y-89943581D01*
X126409500Y-90146532D01*
X126409500Y-90353467D01*
X126449869Y-90556418D01*
X126529058Y-90747597D01*
X126644020Y-90919651D01*
X126644023Y-90919655D01*
X126790345Y-91065977D01*
X126962402Y-91180941D01*
X127153580Y-91260130D01*
X127356535Y-91300500D01*
X127356536Y-91300500D01*
X127563464Y-91300500D01*
X127563465Y-91300500D01*
X127766420Y-91260130D01*
X127957598Y-91180941D01*
X128129655Y-91065977D01*
X128275977Y-90919655D01*
X128390941Y-90747598D01*
X128470130Y-90556420D01*
X128510500Y-90353465D01*
X128510500Y-90146535D01*
X128470130Y-89943580D01*
X128390941Y-89752402D01*
X128275977Y-89580345D01*
X128265133Y-89569501D01*
X128237358Y-89514987D01*
X128246929Y-89454555D01*
X128290194Y-89411290D01*
X128335139Y-89400500D01*
X128850500Y-89400500D01*
X128908691Y-89419407D01*
X128944655Y-89468907D01*
X128949500Y-89499500D01*
X128949500Y-90763810D01*
X128930593Y-90822001D01*
X128920504Y-90833814D01*
X128133814Y-91620504D01*
X128079297Y-91648281D01*
X128063810Y-91649500D01*
X124796144Y-91649500D01*
X124703856Y-91649500D01*
X124614712Y-91673386D01*
X124614711Y-91673386D01*
X124614709Y-91673387D01*
X124534789Y-91719529D01*
X124534786Y-91719531D01*
X124487907Y-91766411D01*
X124461751Y-91779737D01*
X124435938Y-91793751D01*
X124434594Y-91793574D01*
X124433390Y-91794188D01*
X124404409Y-91789597D01*
X124375277Y-91785760D01*
X124374409Y-91784845D01*
X124372958Y-91784616D01*
X124330898Y-91743639D01*
X124327161Y-91736757D01*
X124326614Y-91734712D01*
X124317849Y-91719531D01*
X124280470Y-91654788D01*
X123375974Y-90750292D01*
X123348197Y-90695775D01*
X123354513Y-90642403D01*
X123390130Y-90556420D01*
X123430500Y-90353465D01*
X123430500Y-90146535D01*
X123390130Y-89943580D01*
X123310941Y-89752402D01*
X123195977Y-89580345D01*
X123049655Y-89434023D01*
X123049651Y-89434020D01*
X122877597Y-89319058D01*
X122686418Y-89239869D01*
X122483467Y-89199500D01*
X122483465Y-89199500D01*
X122276535Y-89199500D01*
X122276532Y-89199500D01*
X122073581Y-89239869D01*
X121882402Y-89319058D01*
X121710348Y-89434020D01*
X121564020Y-89580348D01*
X121449058Y-89752402D01*
X121369869Y-89943581D01*
X121329500Y-90146532D01*
X121329500Y-90353467D01*
X121369869Y-90556418D01*
X121449058Y-90747597D01*
X121564020Y-90919651D01*
X121564023Y-90919655D01*
X121710345Y-91065977D01*
X121882402Y-91180941D01*
X122073580Y-91260130D01*
X122276535Y-91300500D01*
X122276536Y-91300500D01*
X122483464Y-91300500D01*
X122483465Y-91300500D01*
X122686420Y-91260130D01*
X122772402Y-91224513D01*
X122833398Y-91219713D01*
X122880292Y-91245974D01*
X123620504Y-91986186D01*
X123648281Y-92040703D01*
X123649500Y-92056190D01*
X123649500Y-98046144D01*
X123673386Y-98135288D01*
X123719530Y-98215212D01*
X124003818Y-98499500D01*
X124234814Y-98730496D01*
X124262591Y-98785013D01*
X124253020Y-98845445D01*
X124209755Y-98888710D01*
X124164810Y-98899500D01*
X123148321Y-98899500D01*
X123090130Y-98880593D01*
X123078323Y-98870509D01*
X123057314Y-98849500D01*
X123057311Y-98849498D01*
X123057309Y-98849496D01*
X122943189Y-98783609D01*
X122943191Y-98783609D01*
X122893799Y-98770375D01*
X122815892Y-98749500D01*
X122684108Y-98749500D01*
X122606200Y-98770375D01*
X122556809Y-98783609D01*
X122442690Y-98849496D01*
X122349496Y-98942690D01*
X122283609Y-99056809D01*
X122280327Y-99069058D01*
X122249500Y-99184108D01*
X122249500Y-99315892D01*
X122260196Y-99355810D01*
X122283608Y-99443187D01*
X122316987Y-99501000D01*
X122329708Y-99560848D01*
X122304821Y-99616744D01*
X122251833Y-99647337D01*
X122231250Y-99649500D01*
X121398321Y-99649500D01*
X121340130Y-99630593D01*
X121328323Y-99620509D01*
X121307314Y-99599500D01*
X121307311Y-99599498D01*
X121307309Y-99599496D01*
X121193189Y-99533609D01*
X121193191Y-99533609D01*
X121140187Y-99519407D01*
X121065892Y-99499500D01*
X120934108Y-99499500D01*
X120859813Y-99519407D01*
X120806809Y-99533609D01*
X120692690Y-99599496D01*
X120599496Y-99692690D01*
X120533609Y-99806809D01*
X120533608Y-99806814D01*
X120499500Y-99934108D01*
X120499500Y-100065892D01*
X120521568Y-100148252D01*
X120533609Y-100193190D01*
X120599496Y-100307309D01*
X120599498Y-100307311D01*
X120599500Y-100307314D01*
X120692686Y-100400500D01*
X120692688Y-100400501D01*
X120692690Y-100400503D01*
X120806810Y-100466390D01*
X120806808Y-100466390D01*
X120806812Y-100466391D01*
X120806814Y-100466392D01*
X120934108Y-100500500D01*
X120934110Y-100500500D01*
X121065890Y-100500500D01*
X121065892Y-100500500D01*
X121193186Y-100466392D01*
X121193188Y-100466390D01*
X121193190Y-100466390D01*
X121307309Y-100400503D01*
X121307309Y-100400502D01*
X121307314Y-100400500D01*
X121328319Y-100379494D01*
X121382834Y-100351719D01*
X121398321Y-100350500D01*
X121981250Y-100350500D01*
X122039441Y-100369407D01*
X122075405Y-100418907D01*
X122075405Y-100480093D01*
X122066987Y-100499000D01*
X122033608Y-100556812D01*
X122022171Y-100599497D01*
X121999500Y-100684108D01*
X121999500Y-100815892D01*
X122022171Y-100900503D01*
X122033609Y-100943190D01*
X122099496Y-101057309D01*
X122099498Y-101057311D01*
X122099500Y-101057314D01*
X122192686Y-101150500D01*
X122192688Y-101150501D01*
X122192690Y-101150503D01*
X122306810Y-101216390D01*
X122306808Y-101216390D01*
X122306812Y-101216391D01*
X122306814Y-101216392D01*
X122434108Y-101250500D01*
X122434110Y-101250500D01*
X122565890Y-101250500D01*
X122565892Y-101250500D01*
X122693186Y-101216392D01*
X122693188Y-101216390D01*
X122693190Y-101216390D01*
X122807309Y-101150503D01*
X122807309Y-101150502D01*
X122807314Y-101150500D01*
X122828319Y-101129494D01*
X122835434Y-101125869D01*
X122840130Y-101119407D01*
X122862178Y-101112243D01*
X122882834Y-101101719D01*
X122898321Y-101100500D01*
X123063810Y-101100500D01*
X123122001Y-101119407D01*
X123133814Y-101129496D01*
X123719530Y-101715212D01*
X129719528Y-107715209D01*
X129719530Y-107715212D01*
X131219531Y-109215212D01*
X131219530Y-109215212D01*
X131284787Y-109280468D01*
X131284792Y-109280472D01*
X131363094Y-109325680D01*
X131383597Y-109341412D01*
X131442685Y-109400499D01*
X131442690Y-109400503D01*
X131553993Y-109464764D01*
X131594934Y-109510233D01*
X131601330Y-109571083D01*
X131570737Y-109624071D01*
X131514841Y-109648958D01*
X131504493Y-109649500D01*
X127436190Y-109649500D01*
X127377999Y-109630593D01*
X127366186Y-109620504D01*
X126000991Y-108255309D01*
X125973214Y-108200792D01*
X125975367Y-108159688D01*
X126000500Y-108065892D01*
X126000500Y-107934108D01*
X125966392Y-107806814D01*
X125966390Y-107806811D01*
X125966390Y-107806809D01*
X125900503Y-107692690D01*
X125900501Y-107692688D01*
X125900500Y-107692686D01*
X125807314Y-107599500D01*
X125807311Y-107599498D01*
X125807309Y-107599496D01*
X125693189Y-107533609D01*
X125693191Y-107533609D01*
X125643799Y-107520375D01*
X125565892Y-107499500D01*
X125434108Y-107499500D01*
X125356200Y-107520375D01*
X125306809Y-107533609D01*
X125192690Y-107599496D01*
X125099496Y-107692690D01*
X125033609Y-107806809D01*
X125014539Y-107877978D01*
X124999500Y-107934108D01*
X124999500Y-108065892D01*
X125029579Y-108178151D01*
X125033609Y-108193190D01*
X125099496Y-108307309D01*
X125099498Y-108307311D01*
X125099500Y-108307314D01*
X125158590Y-108366404D01*
X125174315Y-108386898D01*
X125219530Y-108465212D01*
X127034788Y-110280470D01*
X127114712Y-110326614D01*
X127203856Y-110350500D01*
X127203857Y-110350500D01*
X127203858Y-110350500D01*
X132296142Y-110350500D01*
X132296144Y-110350500D01*
X132385288Y-110326614D01*
X132465212Y-110280470D01*
X132715210Y-110030471D01*
X132715212Y-110030470D01*
X133530470Y-109215212D01*
X133576614Y-109135288D01*
X133600500Y-109046144D01*
X133600500Y-107203856D01*
X133576614Y-107114712D01*
X133530470Y-107034788D01*
X132879496Y-106383814D01*
X132851719Y-106329297D01*
X132850500Y-106313810D01*
X132850500Y-103686189D01*
X132869407Y-103627998D01*
X132879490Y-103616191D01*
X134030470Y-102465212D01*
X134076614Y-102385288D01*
X134085935Y-102350500D01*
X134100500Y-102296144D01*
X134100500Y-99896532D01*
X138849500Y-99896532D01*
X138849500Y-100103467D01*
X138889869Y-100306418D01*
X138969058Y-100497597D01*
X139080700Y-100664682D01*
X139084023Y-100669655D01*
X139230345Y-100815977D01*
X139402402Y-100930941D01*
X139593580Y-101010130D01*
X139796535Y-101050500D01*
X139796536Y-101050500D01*
X140003464Y-101050500D01*
X140003465Y-101050500D01*
X140206420Y-101010130D01*
X140397598Y-100930941D01*
X140569655Y-100815977D01*
X140715977Y-100669655D01*
X140830941Y-100497598D01*
X140910130Y-100306420D01*
X140950500Y-100103465D01*
X140950500Y-99896535D01*
X140950499Y-99896532D01*
X145849500Y-99896532D01*
X145849500Y-100103467D01*
X145889869Y-100306418D01*
X145969058Y-100497597D01*
X146080700Y-100664682D01*
X146084023Y-100669655D01*
X146230345Y-100815977D01*
X146402402Y-100930941D01*
X146593580Y-101010130D01*
X146796535Y-101050500D01*
X146796536Y-101050500D01*
X147003464Y-101050500D01*
X147003465Y-101050500D01*
X147206420Y-101010130D01*
X147397598Y-100930941D01*
X147569655Y-100815977D01*
X147715977Y-100669655D01*
X147830941Y-100497598D01*
X147910130Y-100306420D01*
X147950500Y-100103465D01*
X147950500Y-99896535D01*
X147910130Y-99693580D01*
X147830941Y-99502402D01*
X147715977Y-99330345D01*
X147569655Y-99184023D01*
X147509843Y-99144058D01*
X147397597Y-99069058D01*
X147206418Y-98989869D01*
X147003467Y-98949500D01*
X147003465Y-98949500D01*
X146796535Y-98949500D01*
X146796532Y-98949500D01*
X146593581Y-98989869D01*
X146402402Y-99069058D01*
X146230348Y-99184020D01*
X146084020Y-99330348D01*
X145969058Y-99502402D01*
X145889869Y-99693581D01*
X145849500Y-99896532D01*
X140950499Y-99896532D01*
X140910130Y-99693580D01*
X140830941Y-99502402D01*
X140715977Y-99330345D01*
X140569655Y-99184023D01*
X140509843Y-99144058D01*
X140397597Y-99069058D01*
X140206418Y-98989869D01*
X140003467Y-98949500D01*
X140003465Y-98949500D01*
X139796535Y-98949500D01*
X139796532Y-98949500D01*
X139593581Y-98989869D01*
X139402402Y-99069058D01*
X139230348Y-99184020D01*
X139084020Y-99330348D01*
X138969058Y-99502402D01*
X138889869Y-99693581D01*
X138849500Y-99896532D01*
X134100500Y-99896532D01*
X134100500Y-98703856D01*
X134100500Y-95453856D01*
X134076614Y-95364712D01*
X134056689Y-95330201D01*
X134030470Y-95284788D01*
X133279496Y-94533814D01*
X133251719Y-94479297D01*
X133250500Y-94463810D01*
X133250500Y-94434109D01*
X133230183Y-94358285D01*
X133216392Y-94306814D01*
X133216390Y-94306811D01*
X133216390Y-94306809D01*
X133150503Y-94192690D01*
X133150501Y-94192688D01*
X133150500Y-94192686D01*
X133057314Y-94099500D01*
X133057311Y-94099498D01*
X133057309Y-94099496D01*
X132943189Y-94033609D01*
X132943191Y-94033609D01*
X132893799Y-94020375D01*
X132815892Y-93999500D01*
X132684108Y-93999500D01*
X132606200Y-94020375D01*
X132556809Y-94033609D01*
X132442690Y-94099496D01*
X132349496Y-94192690D01*
X132285236Y-94303992D01*
X132239766Y-94344933D01*
X132178916Y-94351329D01*
X132125928Y-94320736D01*
X132101042Y-94264840D01*
X132100500Y-94254492D01*
X132100500Y-89351702D01*
X132100500Y-89351701D01*
X132076614Y-89262557D01*
X132072510Y-89255448D01*
X132030470Y-89182633D01*
X131767338Y-88919501D01*
X131739563Y-88864987D01*
X131749134Y-88804555D01*
X131792399Y-88761290D01*
X131837344Y-88750500D01*
X145497414Y-88750500D01*
X145502594Y-88750635D01*
X145780918Y-88765222D01*
X145786805Y-88765707D01*
X145850460Y-88772879D01*
X145854798Y-88773467D01*
X146097977Y-88811982D01*
X146104473Y-88813237D01*
X146161265Y-88826199D01*
X146164723Y-88827056D01*
X146409051Y-88892524D01*
X146416105Y-88894700D01*
X146460016Y-88910065D01*
X146462698Y-88911049D01*
X146710342Y-89006110D01*
X146717796Y-89009330D01*
X146739603Y-89019832D01*
X146741477Y-89020759D01*
X146995154Y-89150015D01*
X147004087Y-89155173D01*
X147258714Y-89320530D01*
X147267086Y-89326613D01*
X147498529Y-89514031D01*
X147503019Y-89517667D01*
X147510720Y-89524600D01*
X147725399Y-89739279D01*
X147732332Y-89746980D01*
X147891535Y-89943580D01*
X147923382Y-89982907D01*
X147929471Y-89991289D01*
X148000505Y-90100671D01*
X148094813Y-90245892D01*
X148099995Y-90254866D01*
X148229198Y-90508441D01*
X148230183Y-90510429D01*
X148240668Y-90532200D01*
X148243898Y-90539679D01*
X148338931Y-90787251D01*
X148339951Y-90790032D01*
X148355295Y-90833884D01*
X148357477Y-90840958D01*
X148422926Y-91085213D01*
X148423817Y-91088807D01*
X148436756Y-91145499D01*
X148438019Y-91152041D01*
X148476526Y-91395168D01*
X148477123Y-91399571D01*
X148484290Y-91463185D01*
X148484776Y-91469087D01*
X148499364Y-91747405D01*
X148499500Y-91752587D01*
X148499500Y-108247412D01*
X148499364Y-108252594D01*
X148484776Y-108530911D01*
X148484290Y-108536813D01*
X148477123Y-108600427D01*
X148476526Y-108604830D01*
X148438019Y-108847957D01*
X148436756Y-108854499D01*
X148423817Y-108911191D01*
X148422926Y-108914785D01*
X148357477Y-109159040D01*
X148355295Y-109166114D01*
X148339951Y-109209966D01*
X148338931Y-109212747D01*
X148243898Y-109460319D01*
X148240668Y-109467798D01*
X148230183Y-109489569D01*
X148229198Y-109491557D01*
X148099995Y-109745133D01*
X148094813Y-109754107D01*
X147929473Y-110008708D01*
X147923382Y-110017092D01*
X147732332Y-110253019D01*
X147725399Y-110260720D01*
X147510720Y-110475399D01*
X147503019Y-110482332D01*
X147267092Y-110673382D01*
X147258708Y-110679473D01*
X147004107Y-110844813D01*
X146995133Y-110849995D01*
X146741557Y-110979198D01*
X146739569Y-110980183D01*
X146717798Y-110990668D01*
X146710319Y-110993898D01*
X146462747Y-111088931D01*
X146459966Y-111089951D01*
X146416114Y-111105295D01*
X146409040Y-111107477D01*
X146164785Y-111172926D01*
X146161191Y-111173817D01*
X146104499Y-111186756D01*
X146097957Y-111188019D01*
X145854830Y-111226526D01*
X145850427Y-111227123D01*
X145786813Y-111234290D01*
X145780911Y-111234776D01*
X145502595Y-111249364D01*
X145497413Y-111249500D01*
X96502587Y-111249500D01*
X96497405Y-111249364D01*
X96219087Y-111234776D01*
X96213185Y-111234290D01*
X96149571Y-111227123D01*
X96145168Y-111226526D01*
X95902041Y-111188019D01*
X95895499Y-111186756D01*
X95838807Y-111173817D01*
X95835213Y-111172926D01*
X95590958Y-111107477D01*
X95583884Y-111105295D01*
X95540032Y-111089951D01*
X95537251Y-111088931D01*
X95289679Y-110993898D01*
X95282200Y-110990668D01*
X95260429Y-110980183D01*
X95258441Y-110979198D01*
X95004866Y-110849995D01*
X94995892Y-110844813D01*
X94741291Y-110679473D01*
X94732907Y-110673382D01*
X94496980Y-110482332D01*
X94489279Y-110475399D01*
X94274600Y-110260720D01*
X94267667Y-110253019D01*
X94176848Y-110140867D01*
X94076613Y-110017086D01*
X94070526Y-110008708D01*
X93905186Y-109754107D01*
X93905173Y-109754087D01*
X93900015Y-109745154D01*
X93770759Y-109491477D01*
X93769832Y-109489603D01*
X93759330Y-109467796D01*
X93756110Y-109460342D01*
X93661049Y-109212698D01*
X93660065Y-109210016D01*
X93644700Y-109166105D01*
X93642521Y-109159040D01*
X93636157Y-109135288D01*
X93577056Y-108914723D01*
X93576199Y-108911265D01*
X93563237Y-108854473D01*
X93561982Y-108847977D01*
X93523467Y-108604798D01*
X93522879Y-108600460D01*
X93515707Y-108536805D01*
X93515222Y-108530910D01*
X93500636Y-108252594D01*
X93500500Y-108247413D01*
X93500500Y-104799787D01*
X93519407Y-104741596D01*
X93568907Y-104705632D01*
X93630093Y-104705632D01*
X93679593Y-104741596D01*
X93681816Y-104744786D01*
X93717434Y-104798093D01*
X93821906Y-104902565D01*
X93944742Y-104984641D01*
X94081229Y-105041176D01*
X94081235Y-105041178D01*
X94226128Y-105069999D01*
X94226132Y-105070000D01*
X94474999Y-105070000D01*
X94475000Y-105069999D01*
X94475000Y-104620000D01*
X94725000Y-104620000D01*
X94725000Y-105069999D01*
X94725001Y-105070000D01*
X94973868Y-105070000D01*
X94973871Y-105069999D01*
X95118764Y-105041178D01*
X95118770Y-105041176D01*
X95255257Y-104984641D01*
X95378093Y-104902565D01*
X95482565Y-104798093D01*
X95564641Y-104675257D01*
X95621178Y-104538764D01*
X95639829Y-104445000D01*
X95174242Y-104445000D01*
X95179556Y-104435796D01*
X95200000Y-104359496D01*
X95200000Y-104280504D01*
X95179556Y-104204204D01*
X95174242Y-104195000D01*
X95639828Y-104195000D01*
X95639828Y-104194999D01*
X97490171Y-104194999D01*
X97490172Y-104195000D01*
X97955758Y-104195000D01*
X97950444Y-104204204D01*
X97930000Y-104280504D01*
X97930000Y-104359496D01*
X97950444Y-104435796D01*
X97955758Y-104445000D01*
X97490171Y-104445000D01*
X97508821Y-104538764D01*
X97565358Y-104675257D01*
X97647434Y-104798093D01*
X97751906Y-104902565D01*
X97874742Y-104984641D01*
X98011229Y-105041176D01*
X98011235Y-105041178D01*
X98156128Y-105069999D01*
X98156132Y-105070000D01*
X98654999Y-105070000D01*
X98655000Y-105069999D01*
X98655000Y-104620000D01*
X98905000Y-104620000D01*
X98905000Y-105069999D01*
X98905001Y-105070000D01*
X99403868Y-105070000D01*
X99403871Y-105069999D01*
X99548764Y-105041178D01*
X99548770Y-105041176D01*
X99685257Y-104984641D01*
X99808093Y-104902565D01*
X99912565Y-104798093D01*
X99994641Y-104675257D01*
X100051178Y-104538764D01*
X100069829Y-104445000D01*
X99604242Y-104445000D01*
X99609556Y-104435796D01*
X99630000Y-104359496D01*
X99630000Y-104280504D01*
X99609556Y-104204204D01*
X99604242Y-104195000D01*
X100069828Y-104195000D01*
X100069828Y-104194999D01*
X100051178Y-104101235D01*
X99994641Y-103964742D01*
X99912565Y-103841906D01*
X99808093Y-103737434D01*
X99685257Y-103655358D01*
X99548770Y-103598823D01*
X99548764Y-103598821D01*
X99403871Y-103570000D01*
X98905001Y-103570000D01*
X98905000Y-103570001D01*
X98905000Y-104020000D01*
X98655000Y-104020000D01*
X98655000Y-103570001D01*
X98654999Y-103570000D01*
X98592680Y-103570000D01*
X98534489Y-103551093D01*
X98498525Y-103501593D01*
X98498525Y-103440407D01*
X98534489Y-103390907D01*
X98543180Y-103385264D01*
X98603360Y-103350518D01*
X98603360Y-103350517D01*
X98603365Y-103350515D01*
X98710515Y-103243365D01*
X98786281Y-103112135D01*
X98825500Y-102965766D01*
X98825500Y-102814234D01*
X98786281Y-102667865D01*
X98786279Y-102667862D01*
X98786279Y-102667860D01*
X98710518Y-102536639D01*
X98710516Y-102536637D01*
X98710515Y-102536635D01*
X98603365Y-102429485D01*
X98603362Y-102429483D01*
X98603360Y-102429481D01*
X98472138Y-102353720D01*
X98472140Y-102353720D01*
X98415347Y-102338503D01*
X98325766Y-102314500D01*
X98174234Y-102314500D01*
X98084652Y-102338503D01*
X98027860Y-102353720D01*
X97896639Y-102429481D01*
X97789481Y-102536639D01*
X97713720Y-102667860D01*
X97713719Y-102667865D01*
X97674500Y-102814234D01*
X97674500Y-102965766D01*
X97698895Y-103056809D01*
X97713720Y-103112139D01*
X97789481Y-103243360D01*
X97789483Y-103243362D01*
X97789485Y-103243365D01*
X97896635Y-103350515D01*
X97896637Y-103350516D01*
X97896639Y-103350518D01*
X98021069Y-103422358D01*
X98062010Y-103467827D01*
X98068406Y-103528677D01*
X98037813Y-103581665D01*
X98009455Y-103599558D01*
X97874742Y-103655358D01*
X97751906Y-103737434D01*
X97647434Y-103841906D01*
X97565358Y-103964742D01*
X97508821Y-104101235D01*
X97490171Y-104194999D01*
X95639828Y-104194999D01*
X95621178Y-104101235D01*
X95564641Y-103964742D01*
X95482565Y-103841906D01*
X95378093Y-103737434D01*
X95255257Y-103655358D01*
X95118770Y-103598823D01*
X95118764Y-103598821D01*
X94973871Y-103570000D01*
X94725001Y-103570000D01*
X94725000Y-103570001D01*
X94725000Y-104020000D01*
X94475000Y-104020000D01*
X94475000Y-103570001D01*
X94474999Y-103570000D01*
X94226128Y-103570000D01*
X94081235Y-103598821D01*
X94081229Y-103598823D01*
X93944742Y-103655358D01*
X93821906Y-103737434D01*
X93717433Y-103841907D01*
X93681815Y-103895214D01*
X93633765Y-103933093D01*
X93572627Y-103935495D01*
X93521753Y-103901502D01*
X93500576Y-103844098D01*
X93500500Y-103840212D01*
X93500500Y-100033086D01*
X96198500Y-100033086D01*
X96198500Y-100664682D01*
X96199833Y-100669655D01*
X96213197Y-100719531D01*
X96213196Y-100719531D01*
X96221062Y-100748885D01*
X96222386Y-100753826D01*
X96268530Y-100833750D01*
X96268532Y-100833752D01*
X96699022Y-101264243D01*
X96724644Y-101308622D01*
X96733607Y-101342072D01*
X96733609Y-101342076D01*
X96799496Y-101456196D01*
X96799498Y-101456198D01*
X96799500Y-101456201D01*
X96892686Y-101549387D01*
X96892688Y-101549388D01*
X96892690Y-101549390D01*
X97006810Y-101615277D01*
X97006808Y-101615277D01*
X97006812Y-101615278D01*
X97006814Y-101615279D01*
X97134108Y-101649387D01*
X97134110Y-101649387D01*
X97265890Y-101649387D01*
X97265892Y-101649387D01*
X97393186Y-101615279D01*
X97393188Y-101615277D01*
X97393190Y-101615277D01*
X97507309Y-101549390D01*
X97507309Y-101549389D01*
X97507314Y-101549387D01*
X97600500Y-101456201D01*
X97613255Y-101434109D01*
X97666390Y-101342077D01*
X97666390Y-101342075D01*
X97666392Y-101342073D01*
X97700500Y-101214779D01*
X97700500Y-101082995D01*
X97666392Y-100955701D01*
X97666391Y-100955700D01*
X97666391Y-100955698D01*
X97666390Y-100955697D01*
X97653926Y-100934108D01*
X104749500Y-100934108D01*
X104749500Y-101065892D01*
X104772171Y-101150502D01*
X104783609Y-101193190D01*
X104849496Y-101307309D01*
X104849498Y-101307311D01*
X104849500Y-101307314D01*
X104942686Y-101400500D01*
X104942688Y-101400501D01*
X104942690Y-101400503D01*
X105056810Y-101466390D01*
X105056808Y-101466390D01*
X105056812Y-101466391D01*
X105056814Y-101466392D01*
X105184108Y-101500500D01*
X105184110Y-101500500D01*
X105315890Y-101500500D01*
X105315892Y-101500500D01*
X105443186Y-101466392D01*
X105443188Y-101466390D01*
X105443190Y-101466390D01*
X105557309Y-101400503D01*
X105557309Y-101400502D01*
X105557314Y-101400500D01*
X105578319Y-101379494D01*
X105632834Y-101351719D01*
X105648321Y-101350500D01*
X106151679Y-101350500D01*
X106209870Y-101369407D01*
X106221676Y-101379490D01*
X106242686Y-101400500D01*
X106242688Y-101400501D01*
X106242690Y-101400503D01*
X106356810Y-101466390D01*
X106356808Y-101466390D01*
X106356812Y-101466391D01*
X106356814Y-101466392D01*
X106484108Y-101500500D01*
X106484110Y-101500500D01*
X106615889Y-101500500D01*
X106615892Y-101500500D01*
X106628576Y-101497101D01*
X106689676Y-101500303D01*
X106737226Y-101538808D01*
X106749825Y-101567105D01*
X106783609Y-101693190D01*
X106849496Y-101807309D01*
X106849498Y-101807311D01*
X106849500Y-101807314D01*
X106870505Y-101828319D01*
X106898281Y-101882834D01*
X106899500Y-101898321D01*
X106899500Y-102851678D01*
X106880593Y-102909869D01*
X106870505Y-102921680D01*
X106849501Y-102942684D01*
X106849496Y-102942690D01*
X106783609Y-103056809D01*
X106783608Y-103056814D01*
X106749500Y-103184108D01*
X106749500Y-103315892D01*
X106768088Y-103385264D01*
X106783609Y-103443190D01*
X106849496Y-103557309D01*
X106849498Y-103557311D01*
X106849500Y-103557314D01*
X106942686Y-103650500D01*
X106942688Y-103650501D01*
X106942690Y-103650503D01*
X107056810Y-103716390D01*
X107056808Y-103716390D01*
X107056812Y-103716391D01*
X107056814Y-103716392D01*
X107184108Y-103750500D01*
X107184110Y-103750500D01*
X107315890Y-103750500D01*
X107315892Y-103750500D01*
X107443186Y-103716392D01*
X107443188Y-103716390D01*
X107443190Y-103716390D01*
X107557309Y-103650503D01*
X107557309Y-103650502D01*
X107557314Y-103650500D01*
X107650500Y-103557314D01*
X107682671Y-103501593D01*
X107716390Y-103443190D01*
X107716390Y-103443188D01*
X107716392Y-103443186D01*
X107750500Y-103315892D01*
X107750500Y-103184108D01*
X107716392Y-103056814D01*
X107716390Y-103056811D01*
X107716390Y-103056809D01*
X107650503Y-102942690D01*
X107650498Y-102942684D01*
X107629495Y-102921680D01*
X107601719Y-102867163D01*
X107600500Y-102851678D01*
X107600500Y-101898321D01*
X107619407Y-101840130D01*
X107629490Y-101828323D01*
X107650500Y-101807314D01*
X107650503Y-101807309D01*
X107716390Y-101693190D01*
X107716390Y-101693188D01*
X107716392Y-101693186D01*
X107750500Y-101565892D01*
X107750500Y-101434108D01*
X107716392Y-101306814D01*
X107716390Y-101306811D01*
X107716390Y-101306809D01*
X107650503Y-101192690D01*
X107650501Y-101192688D01*
X107650500Y-101192686D01*
X107557314Y-101099500D01*
X107533474Y-101085735D01*
X107492534Y-101040267D01*
X107486138Y-100979417D01*
X107516731Y-100926429D01*
X107533471Y-100914265D01*
X107557314Y-100900500D01*
X107650500Y-100807314D01*
X107650792Y-100806809D01*
X107716390Y-100693190D01*
X107716390Y-100693188D01*
X107716392Y-100693186D01*
X107750500Y-100565892D01*
X107750500Y-100434108D01*
X107716392Y-100306814D01*
X107716390Y-100306811D01*
X107716390Y-100306809D01*
X107650503Y-100192690D01*
X107650501Y-100192688D01*
X107650500Y-100192686D01*
X107557314Y-100099500D01*
X107557311Y-100099498D01*
X107557309Y-100099496D01*
X107443189Y-100033609D01*
X107443191Y-100033609D01*
X107386025Y-100018292D01*
X107315892Y-99999500D01*
X107184108Y-99999500D01*
X107184105Y-99999500D01*
X107169182Y-100003499D01*
X107108081Y-100000296D01*
X107073557Y-99977876D01*
X106129496Y-99033814D01*
X106101719Y-98979297D01*
X106100500Y-98963810D01*
X106100500Y-98934109D01*
X106091227Y-98899500D01*
X106066392Y-98806814D01*
X106066390Y-98806811D01*
X106066390Y-98806809D01*
X106000503Y-98692690D01*
X106000501Y-98692688D01*
X106000500Y-98692686D01*
X105907314Y-98599500D01*
X105907311Y-98599498D01*
X105907309Y-98599496D01*
X105793189Y-98533609D01*
X105793191Y-98533609D01*
X105743799Y-98520375D01*
X105665892Y-98499500D01*
X105534108Y-98499500D01*
X105456200Y-98520375D01*
X105406809Y-98533609D01*
X105292690Y-98599496D01*
X105199496Y-98692690D01*
X105133609Y-98806809D01*
X105122170Y-98849500D01*
X105099500Y-98934108D01*
X105099500Y-99065892D01*
X105112180Y-99113214D01*
X105133609Y-99193190D01*
X105199496Y-99307309D01*
X105199498Y-99307311D01*
X105199500Y-99307314D01*
X105292686Y-99400500D01*
X105292688Y-99400501D01*
X105292690Y-99400503D01*
X105406810Y-99466390D01*
X105406808Y-99466390D01*
X105406812Y-99466391D01*
X105406814Y-99466392D01*
X105534108Y-99500500D01*
X105563810Y-99500500D01*
X105622001Y-99519407D01*
X105633814Y-99529496D01*
X106457270Y-100352952D01*
X106485047Y-100407469D01*
X106475476Y-100467901D01*
X106432211Y-100511166D01*
X106412889Y-100518582D01*
X106399359Y-100522207D01*
X106356809Y-100533609D01*
X106242690Y-100599496D01*
X106242689Y-100599497D01*
X106242686Y-100599499D01*
X106242686Y-100599500D01*
X106221680Y-100620505D01*
X106167166Y-100648281D01*
X106151679Y-100649500D01*
X105648321Y-100649500D01*
X105590130Y-100630593D01*
X105578323Y-100620509D01*
X105557314Y-100599500D01*
X105557311Y-100599498D01*
X105557309Y-100599496D01*
X105443189Y-100533609D01*
X105443191Y-100533609D01*
X105387111Y-100518583D01*
X105315892Y-100499500D01*
X105184108Y-100499500D01*
X105112889Y-100518583D01*
X105056809Y-100533609D01*
X104942690Y-100599496D01*
X104849496Y-100692690D01*
X104783609Y-100806809D01*
X104776390Y-100833752D01*
X104749500Y-100934108D01*
X97653926Y-100934108D01*
X97600503Y-100841577D01*
X97600501Y-100841575D01*
X97600500Y-100841573D01*
X97577813Y-100818886D01*
X97550038Y-100764372D01*
X97559609Y-100703940D01*
X97577815Y-100678881D01*
X97600500Y-100656198D01*
X97666392Y-100542070D01*
X97680359Y-100489942D01*
X97705980Y-100445564D01*
X98117680Y-100033866D01*
X98163824Y-99953942D01*
X98178411Y-99899501D01*
X98187710Y-99864798D01*
X98187710Y-99233202D01*
X98163824Y-99144058D01*
X98146015Y-99113212D01*
X98146014Y-99113210D01*
X98146014Y-99113209D01*
X98128050Y-99082096D01*
X98117680Y-99064134D01*
X97924050Y-98870504D01*
X97707703Y-98654156D01*
X97682081Y-98609777D01*
X97667660Y-98555954D01*
X97601768Y-98441826D01*
X97508582Y-98348640D01*
X97508579Y-98348638D01*
X97508577Y-98348636D01*
X97394457Y-98282749D01*
X97394459Y-98282749D01*
X97345067Y-98269515D01*
X97267160Y-98248640D01*
X97135376Y-98248640D01*
X97057468Y-98269515D01*
X97008077Y-98282749D01*
X96893958Y-98348636D01*
X96800764Y-98441830D01*
X96734877Y-98555949D01*
X96734876Y-98555954D01*
X96700768Y-98683248D01*
X96700768Y-98815032D01*
X96708917Y-98845445D01*
X96734877Y-98942330D01*
X96800764Y-99056449D01*
X96800766Y-99056451D01*
X96800768Y-99056454D01*
X96815833Y-99071519D01*
X96843609Y-99126034D01*
X96834038Y-99186466D01*
X96815833Y-99211524D01*
X96785667Y-99241690D01*
X96719780Y-99355810D01*
X96719779Y-99355813D01*
X96705796Y-99407994D01*
X96680174Y-99452372D01*
X96268529Y-99864018D01*
X96252559Y-99891680D01*
X96252557Y-99891683D01*
X96248045Y-99899500D01*
X96222386Y-99943942D01*
X96198500Y-100033086D01*
X93500500Y-100033086D01*
X93500500Y-96159787D01*
X93519407Y-96101596D01*
X93568907Y-96065632D01*
X93630093Y-96065632D01*
X93679593Y-96101596D01*
X93681816Y-96104786D01*
X93717434Y-96158093D01*
X93821906Y-96262565D01*
X93944742Y-96344641D01*
X94081229Y-96401176D01*
X94081235Y-96401178D01*
X94226128Y-96429999D01*
X94226132Y-96430000D01*
X94474999Y-96430000D01*
X94475000Y-96429999D01*
X94475000Y-95980000D01*
X94725000Y-95980000D01*
X94725000Y-96429999D01*
X94725001Y-96430000D01*
X94973868Y-96430000D01*
X94973871Y-96429999D01*
X95118764Y-96401178D01*
X95118770Y-96401176D01*
X95255257Y-96344641D01*
X95378093Y-96262565D01*
X95482565Y-96158093D01*
X95564641Y-96035257D01*
X95621178Y-95898764D01*
X95639829Y-95805000D01*
X95174242Y-95805000D01*
X95179556Y-95795796D01*
X95200000Y-95719496D01*
X95200000Y-95640504D01*
X95179556Y-95564204D01*
X95174242Y-95555000D01*
X95639828Y-95555000D01*
X95639828Y-95554999D01*
X97490171Y-95554999D01*
X97490172Y-95555000D01*
X97955758Y-95555000D01*
X97950444Y-95564204D01*
X97930000Y-95640504D01*
X97930000Y-95719496D01*
X97950444Y-95795796D01*
X97955758Y-95805000D01*
X97490171Y-95805000D01*
X97508821Y-95898764D01*
X97565358Y-96035257D01*
X97647434Y-96158093D01*
X97751906Y-96262565D01*
X97874742Y-96344641D01*
X98009455Y-96400441D01*
X98055980Y-96440178D01*
X98070264Y-96499672D01*
X98046849Y-96556200D01*
X98021070Y-96577641D01*
X97896637Y-96649483D01*
X97789481Y-96756639D01*
X97713720Y-96887860D01*
X97713719Y-96887865D01*
X97674500Y-97034234D01*
X97674500Y-97185766D01*
X97701408Y-97286189D01*
X97713720Y-97332139D01*
X97789481Y-97463360D01*
X97789483Y-97463362D01*
X97789485Y-97463365D01*
X97896635Y-97570515D01*
X97896637Y-97570516D01*
X97896639Y-97570518D01*
X98027861Y-97646279D01*
X98027859Y-97646279D01*
X98027863Y-97646280D01*
X98027865Y-97646281D01*
X98174234Y-97685500D01*
X98174236Y-97685500D01*
X98325764Y-97685500D01*
X98325766Y-97685500D01*
X98472135Y-97646281D01*
X98472137Y-97646279D01*
X98472139Y-97646279D01*
X98603360Y-97570518D01*
X98603360Y-97570517D01*
X98603365Y-97570515D01*
X98710515Y-97463365D01*
X98722163Y-97443190D01*
X98786279Y-97332139D01*
X98786279Y-97332137D01*
X98786281Y-97332135D01*
X98825500Y-97185766D01*
X98825500Y-97034234D01*
X98786281Y-96887865D01*
X98786279Y-96887862D01*
X98786279Y-96887860D01*
X98710518Y-96756639D01*
X98710516Y-96756637D01*
X98710515Y-96756635D01*
X98603365Y-96649485D01*
X98603362Y-96649483D01*
X98603360Y-96649481D01*
X98543180Y-96614736D01*
X98502239Y-96569266D01*
X98495843Y-96508416D01*
X98526436Y-96455428D01*
X98582332Y-96430542D01*
X98592680Y-96430000D01*
X98654999Y-96430000D01*
X98655000Y-96429999D01*
X98655000Y-95980000D01*
X98905000Y-95980000D01*
X98905000Y-96429999D01*
X98905001Y-96430000D01*
X99403868Y-96430000D01*
X99403871Y-96429999D01*
X99548764Y-96401178D01*
X99548770Y-96401176D01*
X99685257Y-96344641D01*
X99808093Y-96262565D01*
X99912565Y-96158093D01*
X99994641Y-96035257D01*
X100051178Y-95898764D01*
X100069829Y-95805000D01*
X99604242Y-95805000D01*
X99609556Y-95795796D01*
X99630000Y-95719496D01*
X99630000Y-95640504D01*
X99609556Y-95564204D01*
X99604242Y-95555000D01*
X100069828Y-95555000D01*
X100069828Y-95554999D01*
X100051178Y-95461235D01*
X99994641Y-95324742D01*
X99912565Y-95201906D01*
X99808093Y-95097434D01*
X99685257Y-95015358D01*
X99548770Y-94958823D01*
X99548764Y-94958821D01*
X99403871Y-94930000D01*
X98905001Y-94930000D01*
X98905000Y-94930001D01*
X98905000Y-95380000D01*
X98655000Y-95380000D01*
X98655000Y-94930001D01*
X98654999Y-94930000D01*
X98156128Y-94930000D01*
X98011235Y-94958821D01*
X98011229Y-94958823D01*
X97874742Y-95015358D01*
X97751906Y-95097434D01*
X97647434Y-95201906D01*
X97565358Y-95324742D01*
X97508821Y-95461235D01*
X97490171Y-95554999D01*
X95639828Y-95554999D01*
X95621178Y-95461235D01*
X95564641Y-95324742D01*
X95482565Y-95201906D01*
X95378093Y-95097434D01*
X95255257Y-95015358D01*
X95118770Y-94958823D01*
X95118764Y-94958821D01*
X94973871Y-94930000D01*
X94725001Y-94930000D01*
X94725000Y-94930001D01*
X94725000Y-95380000D01*
X94475000Y-95380000D01*
X94475000Y-94930001D01*
X94474999Y-94930000D01*
X94226128Y-94930000D01*
X94081235Y-94958821D01*
X94081229Y-94958823D01*
X93944742Y-95015358D01*
X93821906Y-95097434D01*
X93717433Y-95201907D01*
X93681815Y-95255214D01*
X93633765Y-95293093D01*
X93572627Y-95295495D01*
X93521753Y-95261502D01*
X93500576Y-95204098D01*
X93500500Y-95200212D01*
X93500500Y-92184108D01*
X107999500Y-92184108D01*
X107999500Y-92315892D01*
X108028303Y-92423386D01*
X108033609Y-92443190D01*
X108099496Y-92557309D01*
X108099498Y-92557311D01*
X108099500Y-92557314D01*
X108120505Y-92578319D01*
X108148281Y-92632834D01*
X108149500Y-92648321D01*
X108149500Y-94101678D01*
X108130593Y-94159869D01*
X108120505Y-94171680D01*
X108099501Y-94192684D01*
X108099496Y-94192690D01*
X108033609Y-94306809D01*
X108014539Y-94377978D01*
X107999500Y-94434108D01*
X107999500Y-94565892D01*
X108008561Y-94599707D01*
X108033609Y-94693190D01*
X108099496Y-94807309D01*
X108099498Y-94807311D01*
X108099500Y-94807314D01*
X108192686Y-94900500D01*
X108192688Y-94900501D01*
X108192690Y-94900503D01*
X108306810Y-94966390D01*
X108306808Y-94966390D01*
X108306812Y-94966391D01*
X108306814Y-94966392D01*
X108434108Y-95000500D01*
X108434110Y-95000500D01*
X108565890Y-95000500D01*
X108565892Y-95000500D01*
X108693186Y-94966392D01*
X108693188Y-94966390D01*
X108693190Y-94966390D01*
X108807309Y-94900503D01*
X108807309Y-94900502D01*
X108807314Y-94900500D01*
X108900500Y-94807314D01*
X108908826Y-94792893D01*
X108964764Y-94696007D01*
X109010233Y-94655066D01*
X109071083Y-94648670D01*
X109124071Y-94679263D01*
X109148958Y-94735159D01*
X109149500Y-94745507D01*
X109149500Y-96563810D01*
X109147031Y-96571407D01*
X109148281Y-96579297D01*
X109137756Y-96599952D01*
X109130593Y-96622001D01*
X109120504Y-96633814D01*
X109033814Y-96720504D01*
X108979297Y-96748281D01*
X108963810Y-96749500D01*
X108934108Y-96749500D01*
X108856200Y-96770375D01*
X108806809Y-96783609D01*
X108692690Y-96849496D01*
X108599496Y-96942690D01*
X108533609Y-97056809D01*
X108533608Y-97056814D01*
X108499500Y-97184108D01*
X108499500Y-97315892D01*
X108529579Y-97428151D01*
X108533609Y-97443190D01*
X108599496Y-97557309D01*
X108599498Y-97557311D01*
X108599500Y-97557314D01*
X108692686Y-97650500D01*
X108692688Y-97650501D01*
X108692690Y-97650503D01*
X108806810Y-97716390D01*
X108806808Y-97716390D01*
X108806812Y-97716391D01*
X108806814Y-97716392D01*
X108934108Y-97750500D01*
X108934110Y-97750500D01*
X109065890Y-97750500D01*
X109065892Y-97750500D01*
X109193186Y-97716392D01*
X109193188Y-97716390D01*
X109193190Y-97716390D01*
X109307309Y-97650503D01*
X109307309Y-97650502D01*
X109307314Y-97650500D01*
X109400500Y-97557314D01*
X109466392Y-97443186D01*
X109500500Y-97315892D01*
X109500500Y-97286189D01*
X109519407Y-97227998D01*
X109529490Y-97216191D01*
X109780470Y-96965212D01*
X109826614Y-96885288D01*
X109850500Y-96796144D01*
X109850500Y-96703856D01*
X109850500Y-93703856D01*
X109850500Y-93436190D01*
X109869407Y-93377999D01*
X109879496Y-93366186D01*
X110116186Y-93129496D01*
X110170703Y-93101719D01*
X110186190Y-93100500D01*
X113046142Y-93100500D01*
X113046144Y-93100500D01*
X113135288Y-93076614D01*
X113215212Y-93030470D01*
X113340700Y-92904981D01*
X113466187Y-92779496D01*
X113520703Y-92751719D01*
X113536190Y-92750500D01*
X113565890Y-92750500D01*
X113565892Y-92750500D01*
X113693186Y-92716392D01*
X113693188Y-92716390D01*
X113693190Y-92716390D01*
X113807309Y-92650503D01*
X113807309Y-92650502D01*
X113807314Y-92650500D01*
X113900500Y-92557314D01*
X113900503Y-92557309D01*
X113966390Y-92443190D01*
X113966390Y-92443188D01*
X113966392Y-92443186D01*
X114000500Y-92315892D01*
X114000500Y-92184108D01*
X113966392Y-92056814D01*
X113966390Y-92056811D01*
X113966390Y-92056809D01*
X113900503Y-91942690D01*
X113900501Y-91942688D01*
X113900500Y-91942686D01*
X113807314Y-91849500D01*
X113807311Y-91849498D01*
X113807309Y-91849496D01*
X113693189Y-91783609D01*
X113693191Y-91783609D01*
X113629005Y-91766411D01*
X113565892Y-91749500D01*
X113434108Y-91749500D01*
X113370995Y-91766411D01*
X113306809Y-91783609D01*
X113192690Y-91849496D01*
X113099496Y-91942690D01*
X113033609Y-92056809D01*
X112999500Y-92184109D01*
X112999500Y-92213810D01*
X112997031Y-92221407D01*
X112998281Y-92229297D01*
X112987756Y-92249952D01*
X112980593Y-92272001D01*
X112970504Y-92283814D01*
X112883814Y-92370504D01*
X112829297Y-92398281D01*
X112813810Y-92399500D01*
X110046144Y-92399500D01*
X109953856Y-92399500D01*
X109864712Y-92423386D01*
X109784788Y-92469530D01*
X109219529Y-93034789D01*
X109195381Y-93076613D01*
X109195382Y-93076614D01*
X109173386Y-93114710D01*
X109149500Y-93203857D01*
X109149500Y-94254492D01*
X109148792Y-94256669D01*
X109149403Y-94258876D01*
X109139404Y-94285564D01*
X109130593Y-94312683D01*
X109128739Y-94314029D01*
X109127937Y-94316172D01*
X109104169Y-94331880D01*
X109081093Y-94348647D01*
X109078802Y-94348647D01*
X109076893Y-94349909D01*
X109048418Y-94348647D01*
X109019907Y-94348647D01*
X109018054Y-94347301D01*
X109015768Y-94347200D01*
X109002831Y-94336240D01*
X108970407Y-94312683D01*
X108967909Y-94309079D01*
X108966253Y-94306574D01*
X108900500Y-94192686D01*
X108872425Y-94164611D01*
X108866909Y-94156265D01*
X108861288Y-94135944D01*
X108851719Y-94117163D01*
X108850500Y-94101678D01*
X108850500Y-92648321D01*
X108869407Y-92590130D01*
X108879490Y-92578323D01*
X108900500Y-92557314D01*
X108900503Y-92557309D01*
X108966390Y-92443190D01*
X108966390Y-92443188D01*
X108966392Y-92443186D01*
X109000500Y-92315892D01*
X109000500Y-92184108D01*
X108966392Y-92056814D01*
X108966390Y-92056811D01*
X108966390Y-92056809D01*
X108900503Y-91942690D01*
X108900501Y-91942688D01*
X108900500Y-91942686D01*
X108807314Y-91849500D01*
X108807311Y-91849498D01*
X108807309Y-91849496D01*
X108693189Y-91783609D01*
X108693191Y-91783609D01*
X108629005Y-91766411D01*
X108565892Y-91749500D01*
X108434108Y-91749500D01*
X108370995Y-91766411D01*
X108306809Y-91783609D01*
X108192690Y-91849496D01*
X108099496Y-91942690D01*
X108033609Y-92056809D01*
X108033608Y-92056814D01*
X107999500Y-92184108D01*
X93500500Y-92184108D01*
X93500500Y-91752586D01*
X93500636Y-91747405D01*
X93502156Y-91718405D01*
X93515222Y-91469075D01*
X93515708Y-91463185D01*
X93522880Y-91399527D01*
X93523465Y-91395213D01*
X93561984Y-91152011D01*
X93563234Y-91145537D01*
X93576205Y-91088709D01*
X93577050Y-91085301D01*
X93642528Y-90840932D01*
X93644695Y-90833909D01*
X93660080Y-90789940D01*
X93661032Y-90787345D01*
X93756117Y-90539639D01*
X93759317Y-90532230D01*
X93769858Y-90510341D01*
X93770753Y-90508534D01*
X93900005Y-90254866D01*
X93905179Y-90245903D01*
X93983695Y-90124999D01*
X116206085Y-90124999D01*
X116206086Y-90125000D01*
X116815856Y-90125000D01*
X116800000Y-90184174D01*
X116800000Y-90315826D01*
X116815856Y-90375000D01*
X116206085Y-90375000D01*
X116227084Y-90507579D01*
X116280588Y-90672248D01*
X116359195Y-90826524D01*
X116359197Y-90826528D01*
X116460962Y-90966596D01*
X116583403Y-91089037D01*
X116723471Y-91190802D01*
X116723475Y-91190804D01*
X116877751Y-91269411D01*
X117042420Y-91322915D01*
X117175000Y-91343913D01*
X117175000Y-90734144D01*
X117234174Y-90750000D01*
X117365826Y-90750000D01*
X117425000Y-90734144D01*
X117425000Y-91343912D01*
X117557579Y-91322915D01*
X117722248Y-91269411D01*
X117876524Y-91190804D01*
X117876528Y-91190802D01*
X118016596Y-91089037D01*
X118139037Y-90966596D01*
X118240802Y-90826528D01*
X118240804Y-90826524D01*
X118319411Y-90672248D01*
X118372915Y-90507579D01*
X118393914Y-90375000D01*
X117784144Y-90375000D01*
X117800000Y-90315826D01*
X117800000Y-90184174D01*
X117789914Y-90146532D01*
X118789500Y-90146532D01*
X118789500Y-90353467D01*
X118829869Y-90556418D01*
X118909058Y-90747597D01*
X119024020Y-90919651D01*
X119024023Y-90919655D01*
X119170345Y-91065977D01*
X119342402Y-91180941D01*
X119533580Y-91260130D01*
X119736535Y-91300500D01*
X119736536Y-91300500D01*
X119943464Y-91300500D01*
X119943465Y-91300500D01*
X120146420Y-91260130D01*
X120232402Y-91224513D01*
X120293398Y-91219713D01*
X120340292Y-91245974D01*
X121120504Y-92026186D01*
X121148281Y-92080703D01*
X121149500Y-92096190D01*
X121149500Y-93894071D01*
X121130593Y-93952262D01*
X121120505Y-93964073D01*
X121099501Y-93985077D01*
X121099496Y-93985083D01*
X121033609Y-94099202D01*
X121017354Y-94159869D01*
X120999500Y-94226501D01*
X120999500Y-94358285D01*
X121019817Y-94434108D01*
X121033609Y-94485583D01*
X121099496Y-94599702D01*
X121099498Y-94599704D01*
X121099500Y-94599707D01*
X121192686Y-94692893D01*
X121192688Y-94692894D01*
X121192690Y-94692896D01*
X121306810Y-94758783D01*
X121306808Y-94758783D01*
X121306812Y-94758784D01*
X121306814Y-94758785D01*
X121434108Y-94792893D01*
X121434110Y-94792893D01*
X121565890Y-94792893D01*
X121565892Y-94792893D01*
X121693186Y-94758785D01*
X121693188Y-94758783D01*
X121693190Y-94758783D01*
X121807309Y-94692896D01*
X121807309Y-94692895D01*
X121807314Y-94692893D01*
X121900500Y-94599707D01*
X121920024Y-94565890D01*
X121966390Y-94485583D01*
X121966390Y-94485581D01*
X121966392Y-94485579D01*
X122000500Y-94358285D01*
X122000500Y-94226501D01*
X121966392Y-94099207D01*
X121966390Y-94099204D01*
X121966390Y-94099202D01*
X121900503Y-93985083D01*
X121900498Y-93985077D01*
X121879495Y-93964073D01*
X121851719Y-93909556D01*
X121850500Y-93894071D01*
X121850500Y-91863857D01*
X121846652Y-91849496D01*
X121826614Y-91774712D01*
X121812635Y-91750500D01*
X121812635Y-91750499D01*
X121780471Y-91694790D01*
X121780470Y-91694788D01*
X120835974Y-90750292D01*
X120808197Y-90695775D01*
X120814513Y-90642403D01*
X120850130Y-90556420D01*
X120890500Y-90353465D01*
X120890500Y-90146535D01*
X120850130Y-89943580D01*
X120770941Y-89752402D01*
X120655977Y-89580345D01*
X120509655Y-89434023D01*
X120509651Y-89434020D01*
X120337597Y-89319058D01*
X120146418Y-89239869D01*
X119943467Y-89199500D01*
X119943465Y-89199500D01*
X119736535Y-89199500D01*
X119736532Y-89199500D01*
X119533581Y-89239869D01*
X119342402Y-89319058D01*
X119170348Y-89434020D01*
X119024020Y-89580348D01*
X118909058Y-89752402D01*
X118829869Y-89943581D01*
X118789500Y-90146532D01*
X117789914Y-90146532D01*
X117784144Y-90125000D01*
X118393914Y-90125000D01*
X118393914Y-90124999D01*
X118372914Y-89992419D01*
X118319411Y-89827751D01*
X118240804Y-89673475D01*
X118240802Y-89673471D01*
X118139037Y-89533403D01*
X118016596Y-89410962D01*
X117876528Y-89309197D01*
X117876524Y-89309195D01*
X117722248Y-89230588D01*
X117557579Y-89177084D01*
X117425000Y-89156085D01*
X117425000Y-89765855D01*
X117365826Y-89750000D01*
X117234174Y-89750000D01*
X117175000Y-89765855D01*
X117175000Y-89156086D01*
X117174999Y-89156085D01*
X117042420Y-89177084D01*
X116877751Y-89230588D01*
X116723475Y-89309195D01*
X116723471Y-89309197D01*
X116583403Y-89410962D01*
X116460962Y-89533403D01*
X116359197Y-89673471D01*
X116359195Y-89673475D01*
X116280588Y-89827751D01*
X116227084Y-89992420D01*
X116206085Y-90124999D01*
X93983695Y-90124999D01*
X94070536Y-89991276D01*
X94076606Y-89982921D01*
X94267676Y-89746969D01*
X94274590Y-89739289D01*
X94489289Y-89524590D01*
X94496969Y-89517676D01*
X94732921Y-89326606D01*
X94741276Y-89320536D01*
X94995903Y-89155179D01*
X95004861Y-89150007D01*
X95258534Y-89020753D01*
X95260341Y-89019858D01*
X95282230Y-89009317D01*
X95289639Y-89006117D01*
X95537345Y-88911032D01*
X95539940Y-88910080D01*
X95583909Y-88894695D01*
X95590932Y-88892528D01*
X95835301Y-88827050D01*
X95838709Y-88826205D01*
X95895537Y-88813234D01*
X95902011Y-88811984D01*
X96145213Y-88773465D01*
X96149527Y-88772880D01*
X96213199Y-88765706D01*
X96219075Y-88765222D01*
X96497405Y-88750635D01*
X96502586Y-88750500D01*
X125684811Y-88750500D01*
X125743002Y-88769407D01*
G37*
%TD.AperFunction*%
%TD*%
M02*
