%TF.GenerationSoftware,KiCad,Pcbnew,9.0.0*%
%TF.CreationDate,2025-06-05T15:48:38-04:00*%
%TF.ProjectId,microkfd,6d696372-6f6b-4666-942e-6b696361645f,B*%
%TF.SameCoordinates,Original*%
%TF.FileFunction,Copper,L1,Top*%
%TF.FilePolarity,Positive*%
%FSLAX46Y46*%
G04 Gerber Fmt 4.6, Leading zero omitted, Abs format (unit mm)*
G04 Created by KiCad (PCBNEW 9.0.0) date 2025-06-05 15:48:38*
%MOMM*%
%LPD*%
G01*
G04 APERTURE LIST*
G04 Aperture macros list*
%AMRoundRect*
0 Rectangle with rounded corners*
0 $1 Rounding radius*
0 $2 $3 $4 $5 $6 $7 $8 $9 X,Y pos of 4 corners*
0 Add a 4 corners polygon primitive as box body*
4,1,4,$2,$3,$4,$5,$6,$7,$8,$9,$2,$3,0*
0 Add four circle primitives for the rounded corners*
1,1,$1+$1,$2,$3*
1,1,$1+$1,$4,$5*
1,1,$1+$1,$6,$7*
1,1,$1+$1,$8,$9*
0 Add four rect primitives between the rounded corners*
20,1,$1+$1,$2,$3,$4,$5,0*
20,1,$1+$1,$4,$5,$6,$7,0*
20,1,$1+$1,$6,$7,$8,$9,0*
20,1,$1+$1,$8,$9,$2,$3,0*%
%AMRotRect*
0 Rectangle, with rotation*
0 The origin of the aperture is its center*
0 $1 length*
0 $2 width*
0 $3 Rotation angle, in degrees counterclockwise*
0 Add horizontal line*
21,1,$1,$2,0,0,$3*%
%AMFreePoly0*
4,1,23,0.500000,-0.750000,0.000000,-0.750000,0.000000,-0.745722,-0.065263,-0.745722,-0.191342,-0.711940,-0.304381,-0.646677,-0.396677,-0.554381,-0.461940,-0.441342,-0.495722,-0.315263,-0.495722,-0.250000,-0.500000,-0.250000,-0.500000,0.250000,-0.495722,0.250000,-0.495722,0.315263,-0.461940,0.441342,-0.396677,0.554381,-0.304381,0.646677,-0.191342,0.711940,-0.065263,0.745722,0.000000,0.745722,
0.000000,0.750000,0.500000,0.750000,0.500000,-0.750000,0.500000,-0.750000,$1*%
%AMFreePoly1*
4,1,23,0.000000,0.745722,0.065263,0.745722,0.191342,0.711940,0.304381,0.646677,0.396677,0.554381,0.461940,0.441342,0.495722,0.315263,0.495722,0.250000,0.500000,0.250000,0.500000,-0.250000,0.495722,-0.250000,0.495722,-0.315263,0.461940,-0.441342,0.396677,-0.554381,0.304381,-0.646677,0.191342,-0.711940,0.065263,-0.745722,0.000000,-0.745722,0.000000,-0.750000,-0.500000,-0.750000,
-0.500000,0.750000,0.000000,0.750000,0.000000,0.745722,0.000000,0.745722,$1*%
G04 Aperture macros list end*
%TA.AperFunction,EtchedComponent*%
%ADD10C,0.000000*%
%TD*%
%TA.AperFunction,SMDPad,CuDef*%
%ADD11RoundRect,0.243750X0.456250X-0.243750X0.456250X0.243750X-0.456250X0.243750X-0.456250X-0.243750X0*%
%TD*%
%TA.AperFunction,SMDPad,CuDef*%
%ADD12RoundRect,0.243750X-0.456250X0.243750X-0.456250X-0.243750X0.456250X-0.243750X0.456250X0.243750X0*%
%TD*%
%TA.AperFunction,SMDPad,CuDef*%
%ADD13RoundRect,0.200000X-0.335876X-0.053033X-0.053033X-0.335876X0.335876X0.053033X0.053033X0.335876X0*%
%TD*%
%TA.AperFunction,SMDPad,CuDef*%
%ADD14RoundRect,0.200000X-0.275000X0.200000X-0.275000X-0.200000X0.275000X-0.200000X0.275000X0.200000X0*%
%TD*%
%TA.AperFunction,SMDPad,CuDef*%
%ADD15RoundRect,0.200000X0.275000X-0.200000X0.275000X0.200000X-0.275000X0.200000X-0.275000X-0.200000X0*%
%TD*%
%TA.AperFunction,SMDPad,CuDef*%
%ADD16RoundRect,0.200000X0.200000X0.275000X-0.200000X0.275000X-0.200000X-0.275000X0.200000X-0.275000X0*%
%TD*%
%TA.AperFunction,SMDPad,CuDef*%
%ADD17RoundRect,0.200000X0.335876X0.053033X0.053033X0.335876X-0.335876X-0.053033X-0.053033X-0.335876X0*%
%TD*%
%TA.AperFunction,SMDPad,CuDef*%
%ADD18FreePoly0,180.000000*%
%TD*%
%TA.AperFunction,SMDPad,CuDef*%
%ADD19FreePoly1,180.000000*%
%TD*%
%TA.AperFunction,SMDPad,CuDef*%
%ADD20RoundRect,0.225000X-0.225000X-0.250000X0.225000X-0.250000X0.225000X0.250000X-0.225000X0.250000X0*%
%TD*%
%TA.AperFunction,SMDPad,CuDef*%
%ADD21RoundRect,0.225000X-0.017678X0.335876X-0.335876X0.017678X0.017678X-0.335876X0.335876X-0.017678X0*%
%TD*%
%TA.AperFunction,SMDPad,CuDef*%
%ADD22RoundRect,0.225000X0.017678X-0.335876X0.335876X-0.017678X-0.017678X0.335876X-0.335876X0.017678X0*%
%TD*%
%TA.AperFunction,SMDPad,CuDef*%
%ADD23RoundRect,0.225000X-0.250000X0.225000X-0.250000X-0.225000X0.250000X-0.225000X0.250000X0.225000X0*%
%TD*%
%TA.AperFunction,SMDPad,CuDef*%
%ADD24RoundRect,0.225000X-0.335876X-0.017678X-0.017678X-0.335876X0.335876X0.017678X0.017678X0.335876X0*%
%TD*%
%TA.AperFunction,SMDPad,CuDef*%
%ADD25RoundRect,0.225000X0.225000X0.250000X-0.225000X0.250000X-0.225000X-0.250000X0.225000X-0.250000X0*%
%TD*%
%TA.AperFunction,SMDPad,CuDef*%
%ADD26RoundRect,0.225000X0.250000X-0.225000X0.250000X0.225000X-0.250000X0.225000X-0.250000X-0.225000X0*%
%TD*%
%TA.AperFunction,SMDPad,CuDef*%
%ADD27RoundRect,0.150000X-0.512500X-0.150000X0.512500X-0.150000X0.512500X0.150000X-0.512500X0.150000X0*%
%TD*%
%TA.AperFunction,SMDPad,CuDef*%
%ADD28RoundRect,0.062500X-0.337500X-0.062500X0.337500X-0.062500X0.337500X0.062500X-0.337500X0.062500X0*%
%TD*%
%TA.AperFunction,SMDPad,CuDef*%
%ADD29RoundRect,0.062500X-0.062500X-0.337500X0.062500X-0.337500X0.062500X0.337500X-0.062500X0.337500X0*%
%TD*%
%TA.AperFunction,HeatsinkPad*%
%ADD30R,3.350000X3.350000*%
%TD*%
%TA.AperFunction,SMDPad,CuDef*%
%ADD31RoundRect,0.218750X-0.218750X-0.256250X0.218750X-0.256250X0.218750X0.256250X-0.218750X0.256250X0*%
%TD*%
%TA.AperFunction,SMDPad,CuDef*%
%ADD32RoundRect,0.218750X-0.256250X0.218750X-0.256250X-0.218750X0.256250X-0.218750X0.256250X0.218750X0*%
%TD*%
%TA.AperFunction,SMDPad,CuDef*%
%ADD33R,1.200000X2.500000*%
%TD*%
%TA.AperFunction,ComponentPad*%
%ADD34O,1.600000X1.000000*%
%TD*%
%TA.AperFunction,ComponentPad*%
%ADD35O,2.100000X1.000000*%
%TD*%
%TA.AperFunction,SMDPad,CuDef*%
%ADD36R,1.450000X0.600000*%
%TD*%
%TA.AperFunction,SMDPad,CuDef*%
%ADD37R,1.450000X0.300000*%
%TD*%
%TA.AperFunction,ComponentPad*%
%ADD38O,1.700000X1.700000*%
%TD*%
%TA.AperFunction,ComponentPad*%
%ADD39R,1.700000X1.700000*%
%TD*%
%TA.AperFunction,SMDPad,CuDef*%
%ADD40RotRect,1.000000X1.000000X45.000000*%
%TD*%
%TA.AperFunction,SMDPad,CuDef*%
%ADD41RotRect,1.000000X1.000000X315.000000*%
%TD*%
%TA.AperFunction,SMDPad,CuDef*%
%ADD42R,1.000000X1.000000*%
%TD*%
%TA.AperFunction,SMDPad,CuDef*%
%ADD43RotRect,1.400000X1.200000X135.000000*%
%TD*%
%TA.AperFunction,SMDPad,CuDef*%
%ADD44RoundRect,0.150000X-0.587500X-0.150000X0.587500X-0.150000X0.587500X0.150000X-0.587500X0.150000X0*%
%TD*%
%TA.AperFunction,SMDPad,CuDef*%
%ADD45RotRect,1.600000X0.550000X45.000000*%
%TD*%
%TA.AperFunction,SMDPad,CuDef*%
%ADD46RotRect,1.600000X0.550000X135.000000*%
%TD*%
%TA.AperFunction,ViaPad*%
%ADD47C,0.600000*%
%TD*%
%TA.AperFunction,Conductor*%
%ADD48C,0.300000*%
%TD*%
%TA.AperFunction,Conductor*%
%ADD49C,0.500000*%
%TD*%
%TA.AperFunction,Conductor*%
%ADD50C,0.400000*%
%TD*%
%TA.AperFunction,Conductor*%
%ADD51C,0.250000*%
%TD*%
G04 APERTURE END LIST*
D10*
%TA.AperFunction,EtchedComponent*%
%TO.C,JP1*%
G36*
X111500000Y-91550000D02*
G01*
X111000000Y-91550000D01*
X111000000Y-90950000D01*
X111500000Y-90950000D01*
X111500000Y-91550000D01*
G37*
%TD.AperFunction*%
%TD*%
D11*
%TO.P,D3,1,K*%
%TO.N,GND*%
X97500000Y-93687500D03*
%TO.P,D3,2,A*%
%TO.N,Net-(D3-A)*%
X97500000Y-91812500D03*
%TD*%
%TO.P,D2,1,K*%
%TO.N,GND*%
X145750000Y-93187500D03*
%TO.P,D2,2,A*%
%TO.N,Net-(D2-A)*%
X145750000Y-91312500D03*
%TD*%
D12*
%TO.P,D1,1,K*%
%TO.N,GND*%
X145750000Y-106812500D03*
%TO.P,D1,2,A*%
%TO.N,Net-(D1-A)*%
X145750000Y-108687500D03*
%TD*%
D13*
%TO.P,R7,1*%
%TO.N,S_RX*%
X116416637Y-96416637D03*
%TO.P,R7,2*%
%TO.N,Net-(U2-PD1)*%
X117583363Y-97583363D03*
%TD*%
%TO.P,R6,1*%
%TO.N,S_TX*%
X117666637Y-95166637D03*
%TO.P,R6,2*%
%TO.N,Net-(U2-PD0)*%
X118833363Y-96333363D03*
%TD*%
D14*
%TO.P,R18,1*%
%TO.N,KFD_SENSE*%
X142000000Y-106925000D03*
%TO.P,R18,2*%
%TO.N,TWI_S_RX*%
X142000000Y-108575000D03*
%TD*%
D15*
%TO.P,R17,1*%
%TO.N,KFD_DATA*%
X142000000Y-93075000D03*
%TO.P,R17,2*%
%TO.N,TWI_D_RX*%
X142000000Y-91425000D03*
%TD*%
D16*
%TO.P,R16,1*%
%TO.N,Net-(U3-~{RST})*%
X110075000Y-104500000D03*
%TO.P,R16,2*%
%TO.N,Net-(U3-VDD)*%
X108425000Y-104500000D03*
%TD*%
D15*
%TO.P,R15,1*%
%TO.N,TWI_S_RX*%
X135812500Y-108575000D03*
%TO.P,R15,2*%
%TO.N,+5V*%
X135812500Y-106925000D03*
%TD*%
%TO.P,R14,1*%
%TO.N,TWI_D_RX*%
X135750000Y-93075000D03*
%TO.P,R14,2*%
%TO.N,+5V*%
X135750000Y-91425000D03*
%TD*%
D14*
%TO.P,R13,1*%
%TO.N,Net-(Q2-B)*%
X133562500Y-106925000D03*
%TO.P,R13,2*%
%TO.N,TWI_S_TX*%
X133562500Y-108575000D03*
%TD*%
%TO.P,R12,1*%
%TO.N,Net-(Q1-B)*%
X133500000Y-91425000D03*
%TO.P,R12,2*%
%TO.N,TWI_D_TX*%
X133500000Y-93075000D03*
%TD*%
D16*
%TO.P,R11,1*%
%TO.N,~{RESET}*%
X107075000Y-95500000D03*
%TO.P,R11,2*%
%TO.N,+5V*%
X105425000Y-95500000D03*
%TD*%
%TO.P,R10,1*%
%TO.N,GND*%
X103575000Y-104500000D03*
%TO.P,R10,2*%
%TO.N,Net-(J1-CC2)*%
X101925000Y-104500000D03*
%TD*%
D17*
%TO.P,R9,1*%
%TO.N,Net-(D2-A)*%
X129583363Y-106833363D03*
%TO.P,R9,2*%
%TO.N,Net-(U2-PD7)*%
X128416637Y-105666637D03*
%TD*%
%TO.P,R8,1*%
%TO.N,Net-(D1-A)*%
X128083363Y-108333363D03*
%TO.P,R8,2*%
%TO.N,Net-(U2-PD6)*%
X126916637Y-107166637D03*
%TD*%
D16*
%TO.P,R5,1*%
%TO.N,GND*%
X103575000Y-95500000D03*
%TO.P,R5,2*%
%TO.N,Net-(J1-CC1)*%
X101925000Y-95500000D03*
%TD*%
D14*
%TO.P,R4,1*%
%TO.N,Net-(D3-A)*%
X99250000Y-91925000D03*
%TO.P,R4,2*%
%TO.N,+5V*%
X99250000Y-93575000D03*
%TD*%
D18*
%TO.P,JP1,1,A*%
%TO.N,Net-(JP1-A)*%
X111900000Y-91250000D03*
D19*
%TO.P,JP1,2,B*%
%TO.N,Net-(JP1-B)*%
X110600000Y-91250000D03*
%TD*%
D20*
%TO.P,C9,1*%
%TO.N,Net-(JP1-B)*%
X108475000Y-95500000D03*
%TO.P,C9,2*%
%TO.N,~{RESET}*%
X110025000Y-95500000D03*
%TD*%
D21*
%TO.P,C8,1*%
%TO.N,GND*%
X116998008Y-103201992D03*
%TO.P,C8,2*%
%TO.N,Net-(U2-XTAL1{slash}PB6)*%
X115901992Y-104298008D03*
%TD*%
D22*
%TO.P,C7,1*%
%TO.N,GND*%
X120201992Y-108548008D03*
%TO.P,C7,2*%
%TO.N,Net-(U2-XTAL2{slash}PB7)*%
X121298008Y-107451992D03*
%TD*%
D23*
%TO.P,C6,1*%
%TO.N,GND*%
X104500000Y-91975000D03*
%TO.P,C6,2*%
%TO.N,+5V*%
X104500000Y-93525000D03*
%TD*%
D24*
%TO.P,C5,1*%
%TO.N,GND*%
X128951992Y-95951992D03*
%TO.P,C5,2*%
%TO.N,+5V*%
X130048008Y-97048008D03*
%TD*%
D25*
%TO.P,C3,1*%
%TO.N,Net-(U3-VDD)*%
X106775000Y-104500000D03*
%TO.P,C3,2*%
%TO.N,GND*%
X105225000Y-104500000D03*
%TD*%
D26*
%TO.P,C2,1*%
%TO.N,+5V*%
X102750000Y-93525000D03*
%TO.P,C2,2*%
%TO.N,GND*%
X102750000Y-91975000D03*
%TD*%
%TO.P,C1,1*%
%TO.N,+5V*%
X106250000Y-93525000D03*
%TO.P,C1,2*%
%TO.N,GND*%
X106250000Y-91975000D03*
%TD*%
D27*
%TO.P,U1,1,I/O1*%
%TO.N,/IN_D-*%
X101862500Y-99050000D03*
%TO.P,U1,2,GND*%
%TO.N,GND*%
X101862500Y-100000000D03*
%TO.P,U1,3,I/O2*%
%TO.N,/IN_D+*%
X101862500Y-100950000D03*
%TO.P,U1,4,I/O2*%
%TO.N,/OUT_D+*%
X104137500Y-100950000D03*
%TO.P,U1,5,VBUS*%
%TO.N,+5V*%
X104137500Y-100000000D03*
%TO.P,U1,6,I/O1*%
%TO.N,/OUT_D-*%
X104137500Y-99050000D03*
%TD*%
D28*
%TO.P,U3,1,~{DCD}*%
%TO.N,unconnected-(U3-~{DCD}-Pad1)*%
X108800000Y-98500000D03*
%TO.P,U3,2,~{RI}/CLK*%
%TO.N,unconnected-(U3-~{RI}{slash}CLK-Pad2)*%
X108800000Y-99000000D03*
%TO.P,U3,3,GND*%
%TO.N,GND*%
X108800000Y-99500000D03*
%TO.P,U3,4,D+*%
%TO.N,/OUT_D+*%
X108800000Y-100000000D03*
%TO.P,U3,5,D-*%
%TO.N,/OUT_D-*%
X108800000Y-100500000D03*
%TO.P,U3,6,VDD*%
%TO.N,Net-(U3-VDD)*%
X108800000Y-101000000D03*
%TO.P,U3,7,VREGIN*%
%TO.N,+5V*%
X108800000Y-101500000D03*
D29*
%TO.P,U3,8,VBUS*%
X109750000Y-102450000D03*
%TO.P,U3,9,~{RST}*%
%TO.N,Net-(U3-~{RST})*%
X110250000Y-102450000D03*
%TO.P,U3,10,NC*%
%TO.N,unconnected-(U3-NC-Pad10)*%
X110750000Y-102450000D03*
%TO.P,U3,11,~{SUSPEND}*%
%TO.N,unconnected-(U3-~{SUSPEND}-Pad11)*%
X111250000Y-102450000D03*
%TO.P,U3,12,SUSPEND*%
%TO.N,unconnected-(U3-SUSPEND-Pad12)*%
X111750000Y-102450000D03*
%TO.P,U3,13,CHREN*%
%TO.N,unconnected-(U3-CHREN-Pad13)*%
X112250000Y-102450000D03*
%TO.P,U3,14,CHR1*%
%TO.N,unconnected-(U3-CHR1-Pad14)*%
X112750000Y-102450000D03*
D28*
%TO.P,U3,15,CHR0*%
%TO.N,unconnected-(U3-CHR0-Pad15)*%
X113700000Y-101500000D03*
%TO.P,U3,16,~{WAKEUP}/GPIO.3*%
%TO.N,unconnected-(U3-~{WAKEUP}{slash}GPIO.3-Pad16)*%
X113700000Y-101000000D03*
%TO.P,U3,17,RS485/GPIO.2*%
%TO.N,unconnected-(U3-RS485{slash}GPIO.2-Pad17)*%
X113700000Y-100500000D03*
%TO.P,U3,18,~{RXT}/GPIO.1*%
%TO.N,unconnected-(U3-~{RXT}{slash}GPIO.1-Pad18)*%
X113700000Y-100000000D03*
%TO.P,U3,19,~{TXT}/GPIO.0*%
%TO.N,unconnected-(U3-~{TXT}{slash}GPIO.0-Pad19)*%
X113700000Y-99500000D03*
%TO.P,U3,20,GPIO.6*%
%TO.N,unconnected-(U3-GPIO.6-Pad20)*%
X113700000Y-99000000D03*
%TO.P,U3,21,GPIO.5*%
%TO.N,unconnected-(U3-GPIO.5-Pad21)*%
X113700000Y-98500000D03*
D29*
%TO.P,U3,22,GPIO.4*%
%TO.N,unconnected-(U3-GPIO.4-Pad22)*%
X112750000Y-97550000D03*
%TO.P,U3,23,~{CTS}*%
%TO.N,unconnected-(U3-~{CTS}-Pad23)*%
X112250000Y-97550000D03*
%TO.P,U3,24,~{RTS}*%
%TO.N,unconnected-(U3-~{RTS}-Pad24)*%
X111750000Y-97550000D03*
%TO.P,U3,25,RXD*%
%TO.N,S_RX*%
X111250000Y-97550000D03*
%TO.P,U3,26,TXD*%
%TO.N,S_TX*%
X110750000Y-97550000D03*
%TO.P,U3,27,~{DSR}*%
%TO.N,unconnected-(U3-~{DSR}-Pad27)*%
X110250000Y-97550000D03*
%TO.P,U3,28,~{DTR}*%
%TO.N,Net-(JP1-A)*%
X109750000Y-97550000D03*
D30*
%TO.P,U3,29,GND*%
%TO.N,GND*%
X111250000Y-100000000D03*
%TD*%
D31*
%TO.P,F1,1*%
%TO.N,Net-(F1-Pad1)*%
X101962500Y-97300000D03*
%TO.P,F1,2*%
%TO.N,+5V*%
X103537500Y-97300000D03*
%TD*%
D32*
%TO.P,D5,1,A1*%
%TO.N,GND*%
X143750000Y-106962500D03*
%TO.P,D5,2,A2*%
%TO.N,KFD_SENSE*%
X143750000Y-108537500D03*
%TD*%
%TO.P,D4,1,A1*%
%TO.N,GND*%
X143750000Y-91462500D03*
%TO.P,D4,2,A2*%
%TO.N,KFD_DATA*%
X143750000Y-93037500D03*
%TD*%
D33*
%TO.P,J3,R1*%
%TO.N,KFD_SENSE*%
X142300000Y-103250000D03*
%TO.P,J3,R2*%
%TO.N,GND*%
X145300000Y-103250000D03*
%TO.P,J3,S*%
X137200000Y-96750000D03*
%TO.P,J3,T*%
%TO.N,KFD_DATA*%
X138300000Y-103250000D03*
%TD*%
D34*
%TO.P,J1,S1,SHIELD*%
%TO.N,GND*%
X94600000Y-104320000D03*
D35*
X98780000Y-104320000D03*
D34*
X94600000Y-95680000D03*
D35*
X98780000Y-95680000D03*
D36*
%TO.P,J1,B12,GND*%
X99695000Y-96750000D03*
%TO.P,J1,B9,VBUS*%
%TO.N,Net-(F1-Pad1)*%
X99695000Y-97550000D03*
D37*
%TO.P,J1,B8,SBU2*%
%TO.N,unconnected-(J1-SBU2-PadB8)*%
X99695000Y-98250000D03*
%TO.P,J1,B7,D-*%
%TO.N,/IN_D-*%
X99695000Y-99250000D03*
%TO.P,J1,B6,D+*%
%TO.N,/IN_D+*%
X99695000Y-100750000D03*
%TO.P,J1,B5,CC2*%
%TO.N,Net-(J1-CC2)*%
X99695000Y-101750000D03*
D36*
%TO.P,J1,B4,VBUS*%
%TO.N,Net-(F1-Pad1)*%
X99695000Y-102450000D03*
%TO.P,J1,B1,GND*%
%TO.N,GND*%
X99695000Y-103250000D03*
%TO.P,J1,A12,GND*%
X99695000Y-103250000D03*
%TO.P,J1,A9,VBUS*%
%TO.N,Net-(F1-Pad1)*%
X99695000Y-102450000D03*
D37*
%TO.P,J1,A8,SBU1*%
%TO.N,unconnected-(J1-SBU1-PadA8)*%
X99695000Y-101250000D03*
%TO.P,J1,A7,D-*%
%TO.N,/IN_D-*%
X99695000Y-100250000D03*
%TO.P,J1,A6,D+*%
%TO.N,/IN_D+*%
X99695000Y-99750000D03*
%TO.P,J1,A5,CC1*%
%TO.N,Net-(J1-CC1)*%
X99695000Y-98750000D03*
D36*
%TO.P,J1,A4,VBUS*%
%TO.N,Net-(F1-Pad1)*%
X99695000Y-97550000D03*
%TO.P,J1,A1,GND*%
%TO.N,GND*%
X99695000Y-96750000D03*
%TD*%
D38*
%TO.P,J2,6,GND*%
%TO.N,GND*%
X117300000Y-90250000D03*
%TO.P,J2,5,~{RST}*%
%TO.N,~{RESET}*%
X119840000Y-90250000D03*
%TO.P,J2,4,MOSI*%
%TO.N,MOSI*%
X122380000Y-90250000D03*
%TO.P,J2,3,SCK*%
%TO.N,SCK*%
X124920000Y-90250000D03*
%TO.P,J2,2,VCC*%
%TO.N,+5V*%
X127460000Y-90250000D03*
D39*
%TO.P,J2,1,MISO*%
%TO.N,MISO*%
X130000000Y-90250000D03*
%TD*%
D40*
%TO.P,TP1,1,1*%
%TO.N,GPIO1*%
X130500000Y-104250000D03*
%TD*%
D41*
%TO.P,TP2,1,1*%
%TO.N,GPIO2*%
X132000000Y-102750000D03*
%TD*%
D42*
%TO.P,TP3,1,1*%
%TO.N,KFD_DATA*%
X136000000Y-104750000D03*
%TD*%
%TO.P,TP4,1,1*%
%TO.N,KFD_SENSE*%
X140300000Y-104750000D03*
%TD*%
D43*
%TO.P,Y1,4,4*%
%TO.N,GND*%
X118676777Y-107378858D03*
%TO.P,Y1,3,3*%
%TO.N,Net-(U2-XTAL1{slash}PB6)*%
X117121142Y-105823223D03*
%TO.P,Y1,2,2*%
%TO.N,GND*%
X118323223Y-104621142D03*
%TO.P,Y1,1,1*%
%TO.N,Net-(U2-XTAL2{slash}PB7)*%
X119878858Y-106176777D03*
%TD*%
D44*
%TO.P,Q2,1,B*%
%TO.N,Net-(Q2-B)*%
X138125000Y-106800000D03*
%TO.P,Q2,2,E*%
%TO.N,GND*%
X138125000Y-108700000D03*
%TO.P,Q2,3,C*%
%TO.N,TWI_S_RX*%
X140000000Y-107750000D03*
%TD*%
D45*
%TO.P,U2,1,PD3*%
%TO.N,TWI_D_RX*%
X119014897Y-101525305D03*
%TO.P,U2,2,PD4*%
%TO.N,TWI_S_TX*%
X119580583Y-102090990D03*
%TO.P,U2,3,GND*%
%TO.N,GND*%
X120146268Y-102656676D03*
%TO.P,U2,4,VCC*%
%TO.N,+5V*%
X120711953Y-103222361D03*
%TO.P,U2,5,GND*%
%TO.N,GND*%
X121277639Y-103788047D03*
%TO.P,U2,6,VCC*%
%TO.N,+5V*%
X121843324Y-104353732D03*
%TO.P,U2,7,XTAL1/PB6*%
%TO.N,Net-(U2-XTAL1{slash}PB6)*%
X122409010Y-104919417D03*
%TO.P,U2,8,XTAL2/PB7*%
%TO.N,Net-(U2-XTAL2{slash}PB7)*%
X122974695Y-105485103D03*
D46*
%TO.P,U2,9,PD5*%
%TO.N,TWI_D_TX*%
X125025305Y-105485103D03*
%TO.P,U2,10,PD6*%
%TO.N,Net-(U2-PD6)*%
X125590990Y-104919417D03*
%TO.P,U2,11,PD7*%
%TO.N,Net-(U2-PD7)*%
X126156676Y-104353732D03*
%TO.P,U2,12,PB0*%
%TO.N,GPIO1*%
X126722361Y-103788047D03*
%TO.P,U2,13,PB1*%
%TO.N,GPIO2*%
X127288047Y-103222361D03*
%TO.P,U2,14,PB2*%
%TO.N,unconnected-(U2-PB2-Pad14)*%
X127853732Y-102656676D03*
%TO.P,U2,15,PB3*%
%TO.N,MOSI*%
X128419417Y-102090990D03*
%TO.P,U2,16,PB4*%
%TO.N,MISO*%
X128985103Y-101525305D03*
D45*
%TO.P,U2,17,PB5*%
%TO.N,SCK*%
X128985103Y-99474695D03*
%TO.P,U2,18,AVCC*%
%TO.N,+5V*%
X128419417Y-98909010D03*
%TO.P,U2,19,ADC6*%
%TO.N,unconnected-(U2-ADC6-Pad19)*%
X127853732Y-98343324D03*
%TO.P,U2,20,AREF*%
%TO.N,+5V*%
X127288047Y-97777639D03*
%TO.P,U2,21,GND*%
%TO.N,GND*%
X126722361Y-97211953D03*
%TO.P,U2,22,ADC7*%
%TO.N,unconnected-(U2-ADC7-Pad22)*%
X126156676Y-96646268D03*
%TO.P,U2,23,PC0*%
%TO.N,unconnected-(U2-PC0-Pad23)*%
X125590990Y-96080583D03*
%TO.P,U2,24,PC1*%
%TO.N,unconnected-(U2-PC1-Pad24)*%
X125025305Y-95514897D03*
D46*
%TO.P,U2,25,PC2*%
%TO.N,unconnected-(U2-PC2-Pad25)*%
X122974695Y-95514897D03*
%TO.P,U2,26,PC3*%
%TO.N,unconnected-(U2-PC3-Pad26)*%
X122409010Y-96080583D03*
%TO.P,U2,27,PC4*%
%TO.N,unconnected-(U2-PC4-Pad27)*%
X121843324Y-96646268D03*
%TO.P,U2,28,PC5*%
%TO.N,unconnected-(U2-PC5-Pad28)*%
X121277639Y-97211953D03*
%TO.P,U2,29,~{RESET}/PC6*%
%TO.N,~{RESET}*%
X120711953Y-97777639D03*
%TO.P,U2,30,PD0*%
%TO.N,Net-(U2-PD0)*%
X120146268Y-98343324D03*
%TO.P,U2,31,PD1*%
%TO.N,Net-(U2-PD1)*%
X119580583Y-98909010D03*
%TO.P,U2,32,PD2*%
%TO.N,TWI_S_RX*%
X119014897Y-99474695D03*
%TD*%
D44*
%TO.P,Q1,1,B*%
%TO.N,Net-(Q1-B)*%
X138062500Y-91300000D03*
%TO.P,Q1,2,E*%
%TO.N,GND*%
X138062500Y-93200000D03*
%TO.P,Q1,3,C*%
%TO.N,TWI_D_RX*%
X139937500Y-92250000D03*
%TD*%
D47*
%TO.N,GND*%
X123250000Y-94500000D03*
X121750000Y-98750000D03*
X122500000Y-98000000D03*
X123250000Y-97250000D03*
X124750000Y-106500000D03*
X124000000Y-107250000D03*
X123250000Y-106500000D03*
X124000000Y-105750000D03*
X117250000Y-100500000D03*
X118000000Y-101250000D03*
X118000000Y-99750000D03*
X118750000Y-100500000D03*
X146500000Y-89750000D03*
X134500000Y-89500000D03*
X136500000Y-89500000D03*
X137500000Y-89500000D03*
X138500000Y-89500000D03*
X132500000Y-89500000D03*
X135500000Y-89500000D03*
X133500000Y-89500000D03*
X142500000Y-89500000D03*
X139500000Y-89500000D03*
X140500000Y-89500000D03*
X143500000Y-89500000D03*
X141500000Y-89500000D03*
X144500000Y-89500000D03*
X145500000Y-89500000D03*
X114500000Y-89500000D03*
X113500000Y-89500000D03*
X112500000Y-89500000D03*
X111500000Y-89500000D03*
X110500000Y-89500000D03*
X109500000Y-89500000D03*
X108500000Y-89500000D03*
X107500000Y-89500000D03*
X106500000Y-89500000D03*
X105500000Y-89500000D03*
X104500000Y-89500000D03*
X103500000Y-89500000D03*
X102500000Y-89500000D03*
X101500000Y-89500000D03*
X100500000Y-89500000D03*
X99500000Y-89500000D03*
X98500000Y-89500000D03*
X97500000Y-89500000D03*
X96500000Y-89500000D03*
X95500000Y-89750000D03*
X94750000Y-90500000D03*
X94250000Y-91500000D03*
X94250000Y-92500000D03*
X94250000Y-93500000D03*
X94250000Y-94500000D03*
X126500000Y-110500000D03*
X125500000Y-110500000D03*
X124500000Y-110500000D03*
X123500000Y-110500000D03*
X122500000Y-110500000D03*
X121500000Y-110500000D03*
X120500000Y-110500000D03*
X119500000Y-110500000D03*
X118500000Y-110500000D03*
X117500000Y-110500000D03*
X116500000Y-110500000D03*
X115500000Y-110500000D03*
X114500000Y-110500000D03*
X113500000Y-110500000D03*
X112500000Y-110500000D03*
X111500000Y-110500000D03*
X110500000Y-110500000D03*
X109500000Y-110500000D03*
X108500000Y-110500000D03*
X107500000Y-110500000D03*
X106500000Y-110500000D03*
X105500000Y-110500000D03*
X104500000Y-110500000D03*
X103500000Y-110500000D03*
X102500000Y-110500000D03*
X101500000Y-110500000D03*
X100500000Y-110500000D03*
X99500000Y-110500000D03*
X98500000Y-110500000D03*
X97500000Y-110500000D03*
X96500000Y-110500000D03*
X95500000Y-110250000D03*
X94750000Y-109500000D03*
X94250000Y-108500000D03*
X94250000Y-107500000D03*
X94250000Y-106500000D03*
X94250000Y-105500000D03*
X95000000Y-96750000D03*
X95000000Y-103250000D03*
X94250000Y-102500000D03*
X94250000Y-101500000D03*
X94250000Y-97500000D03*
X94250000Y-98500000D03*
X94250000Y-99500000D03*
X94250000Y-100500000D03*
%TO.N,/OUT_D+*%
X105250000Y-101000000D03*
X106550000Y-101000000D03*
%TO.N,Net-(JP1-A)*%
X113500000Y-92250000D03*
X109000000Y-97250000D03*
%TO.N,Net-(JP1-B)*%
X108500000Y-94500000D03*
X108500000Y-92250000D03*
%TO.N,Net-(U3-VDD)*%
X107250000Y-103250000D03*
X107250000Y-101500000D03*
%TO.N,/OUT_D-*%
X107250000Y-100500000D03*
X105600000Y-99000000D03*
%TO.N,/IN_D+*%
X97186171Y-99549000D03*
X97200000Y-101148887D03*
%TO.N,/IN_D-*%
X97201268Y-98749140D03*
X97200000Y-100348884D03*
%TO.N,~{RESET}*%
X121500000Y-94292393D03*
%TO.N,TWI_D_RX*%
X132750000Y-95750000D03*
X122750000Y-99250000D03*
%TO.N,TWI_S_RX*%
X121000000Y-100000000D03*
X132000000Y-107750000D03*
%TO.N,MISO*%
X127750000Y-100500000D03*
%TO.N,SCK*%
X129750000Y-100000000D03*
%TO.N,MOSI*%
X127250000Y-101250000D03*
%TO.N,TWI_D_TX*%
X132750000Y-94500000D03*
X125500000Y-108000000D03*
%TO.N,TWI_S_TX*%
X122500000Y-100750000D03*
X131750000Y-109000000D03*
%TD*%
D48*
%TO.N,KFD_DATA*%
X142037500Y-93037500D02*
X142000000Y-93075000D01*
X143750000Y-93037500D02*
X142037500Y-93037500D01*
%TO.N,Net-(D2-A)*%
X146837500Y-91312500D02*
X146000000Y-91312500D01*
X148000000Y-92475000D02*
X146837500Y-91312500D01*
%TO.N,KFD_SENSE*%
X142387500Y-106925000D02*
X144000000Y-108537500D01*
X142312500Y-106925000D02*
X142387500Y-106925000D01*
%TO.N,Net-(D1-A)*%
X146000000Y-109525000D02*
X146000000Y-108687500D01*
X145525000Y-110000000D02*
X146000000Y-109525000D01*
%TO.N,KFD_DATA*%
X136300000Y-104450000D02*
X136000000Y-104750000D01*
X136300000Y-104100000D02*
X136300000Y-104450000D01*
%TO.N,+5V*%
X135500000Y-106750000D02*
X135812500Y-106750000D01*
X134000000Y-99467246D02*
X134000000Y-105250000D01*
X134000000Y-105250000D02*
X135500000Y-106750000D01*
X131000000Y-96467246D02*
X134000000Y-99467246D01*
D49*
X131750000Y-93750000D02*
X131000000Y-94500000D01*
X131750000Y-90500000D02*
X131750000Y-93750000D01*
X135750000Y-90500000D02*
X135500000Y-90250000D01*
X132000000Y-90250000D02*
X131750000Y-90500000D01*
X135750000Y-91250000D02*
X135750000Y-90500000D01*
X135500000Y-90250000D02*
X132000000Y-90250000D01*
D48*
%TO.N,~{RESET}*%
X110025000Y-95975000D02*
X110025000Y-95500000D01*
X109500000Y-96500000D02*
X110025000Y-95975000D01*
X107500000Y-96500000D02*
X109500000Y-96500000D01*
X107075000Y-96075000D02*
X107500000Y-96500000D01*
X107075000Y-95500000D02*
X107075000Y-96075000D01*
%TO.N,/OUT_D+*%
X105250000Y-101000000D02*
X104187500Y-101000000D01*
X106550000Y-100200000D02*
X106550000Y-101000000D01*
X107000000Y-99750000D02*
X106550000Y-100200000D01*
X104187500Y-101000000D02*
X104137500Y-100950000D01*
%TO.N,+5V*%
X105900000Y-101650000D02*
X105900000Y-100000000D01*
X108750000Y-102500000D02*
X106750000Y-102500000D01*
X106750000Y-102500000D02*
X105900000Y-101650000D01*
X109275000Y-101975000D02*
X109750000Y-102450000D01*
X109275000Y-101975000D02*
X108750000Y-102500000D01*
D49*
X105425000Y-94350000D02*
X106250000Y-93525000D01*
X105425000Y-95500000D02*
X105425000Y-94350000D01*
X105425000Y-97225000D02*
X105500000Y-97300000D01*
X105500000Y-97300000D02*
X105900000Y-97300000D01*
X105425000Y-95500000D02*
X105425000Y-97225000D01*
D48*
%TO.N,Net-(JP1-A)*%
X112750000Y-91250000D02*
X111900000Y-91250000D01*
X113500000Y-92000000D02*
X112750000Y-91250000D01*
X113500000Y-92250000D02*
X113500000Y-92000000D01*
X109300000Y-97550000D02*
X109000000Y-97250000D01*
X109750000Y-97550000D02*
X109300000Y-97550000D01*
%TO.N,Net-(JP1-B)*%
X108500000Y-95475000D02*
X108475000Y-95500000D01*
X108500000Y-94500000D02*
X108500000Y-95475000D01*
X109500000Y-91250000D02*
X108500000Y-92250000D01*
X110600000Y-91250000D02*
X109500000Y-91250000D01*
%TO.N,~{RESET}*%
X121483450Y-94275843D02*
X117750000Y-94275843D01*
X121500000Y-94292393D02*
X121483450Y-94275843D01*
X111500000Y-94500000D02*
X111724157Y-94275843D01*
X121500000Y-94400000D02*
X121075000Y-94825000D01*
X111724157Y-94275843D02*
X117750000Y-94275843D01*
X110500000Y-95500000D02*
X111500000Y-94500000D01*
X110025000Y-95500000D02*
X110500000Y-95500000D01*
%TO.N,S_TX*%
X110750000Y-96250000D02*
X111833363Y-95166637D01*
X111833363Y-95166637D02*
X117666637Y-95166637D01*
X110750000Y-97550000D02*
X110750000Y-96250000D01*
%TO.N,Net-(U3-VDD)*%
X107250000Y-104025000D02*
X106775000Y-104500000D01*
X107250000Y-103250000D02*
X107250000Y-104025000D01*
X107750000Y-101000000D02*
X107250000Y-101500000D01*
X108800000Y-101000000D02*
X107750000Y-101000000D01*
X108425000Y-104500000D02*
X106775000Y-104500000D01*
%TO.N,Net-(D3-A)*%
X97537500Y-91925000D02*
X97500000Y-91962500D01*
X99250000Y-91925000D02*
X97537500Y-91925000D01*
D49*
%TO.N,+5V*%
X102750000Y-93525000D02*
X99300000Y-93525000D01*
X99300000Y-93525000D02*
X99250000Y-93575000D01*
X104500000Y-93525000D02*
X102750000Y-93525000D01*
X106250000Y-93525000D02*
X104500000Y-93525000D01*
X127689214Y-93525000D02*
X127707107Y-93542893D01*
X106250000Y-93525000D02*
X127689214Y-93525000D01*
D48*
X109150000Y-101850000D02*
X109275000Y-101975000D01*
X108800000Y-101500000D02*
X109150000Y-101850000D01*
%TO.N,Net-(U3-~{RST})*%
X110250000Y-104425000D02*
X110325000Y-104500000D01*
X110250000Y-102450000D02*
X110250000Y-104425000D01*
%TO.N,/OUT_D+*%
X107500000Y-99750000D02*
X107750000Y-100000000D01*
X107000000Y-99750000D02*
X107500000Y-99750000D01*
X107750000Y-100000000D02*
X108800000Y-100000000D01*
%TO.N,/OUT_D-*%
X108800000Y-100500000D02*
X107250000Y-100500000D01*
%TO.N,Net-(J1-CC2)*%
X101925000Y-102425000D02*
X101250000Y-101750000D01*
X101925000Y-104500000D02*
X101925000Y-102425000D01*
X101250000Y-101750000D02*
X99695000Y-101750000D01*
%TO.N,Net-(J1-CC1)*%
X102750000Y-98000000D02*
X102750000Y-96325000D01*
X102500000Y-98250000D02*
X102750000Y-98000000D01*
X101250000Y-98250000D02*
X102500000Y-98250000D01*
X102750000Y-96325000D02*
X101925000Y-95500000D01*
X100750000Y-98750000D02*
X101250000Y-98250000D01*
X99695000Y-98750000D02*
X100750000Y-98750000D01*
D50*
%TO.N,Net-(F1-Pad1)*%
X98907430Y-97550000D02*
X99695000Y-97550000D01*
X98457430Y-98000000D02*
X98907430Y-97550000D01*
X96250000Y-98000000D02*
X98457430Y-98000000D01*
X95750000Y-98500000D02*
X96250000Y-98000000D01*
X95750000Y-101250000D02*
X95750000Y-98500000D01*
X96614000Y-102114000D02*
X95750000Y-101250000D01*
X98614000Y-102114000D02*
X96614000Y-102114000D01*
X98950000Y-102450000D02*
X98614000Y-102114000D01*
X99695000Y-102450000D02*
X98950000Y-102450000D01*
D49*
X101712500Y-97550000D02*
X101962500Y-97300000D01*
X99695000Y-97550000D02*
X101712500Y-97550000D01*
D48*
%TO.N,Net-(U2-XTAL1{slash}PB6)*%
X118000000Y-106500000D02*
X117232233Y-106500000D01*
X119593462Y-104906538D02*
X118000000Y-106500000D01*
X120796999Y-105750000D02*
X119953537Y-104906538D01*
X119953537Y-104906538D02*
X119593462Y-104906538D01*
X121578427Y-105750000D02*
X120796999Y-105750000D01*
X122409010Y-104919417D02*
X121578427Y-105750000D01*
%TO.N,Net-(U2-XTAL2{slash}PB7)*%
X122974695Y-105485103D02*
X122974695Y-105775305D01*
X122974695Y-105775305D02*
X121298008Y-107451992D01*
X120022793Y-106176777D02*
X121298008Y-107451992D01*
X119628858Y-106426777D02*
X119772793Y-106426777D01*
%TO.N,Net-(U2-XTAL1{slash}PB6)*%
X117121142Y-105517158D02*
X115901992Y-104298008D01*
X117121142Y-105823223D02*
X117121142Y-105517158D01*
%TO.N,S_RX*%
X116000000Y-96000000D02*
X116416637Y-96416637D01*
X111750000Y-96000000D02*
X116000000Y-96000000D01*
X111250000Y-96500000D02*
X111750000Y-96000000D01*
X111250000Y-97550000D02*
X111250000Y-96500000D01*
%TO.N,Net-(U2-PD1)*%
X118254936Y-97583363D02*
X117583363Y-97583363D01*
X119580583Y-98909010D02*
X118254936Y-97583363D01*
%TO.N,Net-(U2-PD0)*%
X118833363Y-97030419D02*
X118833363Y-96333363D01*
X120146268Y-98343324D02*
X118833363Y-97030419D01*
%TO.N,~{RESET}*%
X120000000Y-97065686D02*
X120711953Y-97777639D01*
X120000000Y-95900000D02*
X120000000Y-97065686D01*
X121075000Y-94825000D02*
X120000000Y-95900000D01*
X121500000Y-94292393D02*
X121500000Y-94400000D01*
%TO.N,/OUT_D-*%
X105550000Y-99050000D02*
X105600000Y-99000000D01*
X104137500Y-99050000D02*
X105550000Y-99050000D01*
D49*
%TO.N,+5V*%
X105900000Y-100000000D02*
X104137500Y-100000000D01*
X106500000Y-97900000D02*
X106500000Y-99400000D01*
X106500000Y-99400000D02*
X105900000Y-100000000D01*
X105900000Y-97300000D02*
X106500000Y-97900000D01*
X103787500Y-97300000D02*
X105500000Y-97300000D01*
D48*
%TO.N,/IN_D+*%
X98150000Y-99750000D02*
X97949000Y-99549000D01*
X97949000Y-99549000D02*
X97186171Y-99549000D01*
X97351113Y-101148887D02*
X97750000Y-100750000D01*
X97200000Y-101148887D02*
X97351113Y-101148887D01*
%TO.N,/IN_D-*%
X97298884Y-100250000D02*
X97200000Y-100348884D01*
X99695000Y-100250000D02*
X97298884Y-100250000D01*
%TO.N,/IN_D+*%
X97750000Y-100750000D02*
X99695000Y-100750000D01*
X98150000Y-99750000D02*
X99695000Y-99750000D01*
%TO.N,/IN_D-*%
X101662500Y-99250000D02*
X101862500Y-99050000D01*
X99695000Y-99250000D02*
X101662500Y-99250000D01*
%TO.N,/IN_D+*%
X101662500Y-100750000D02*
X101862500Y-100950000D01*
X99695000Y-100750000D02*
X101662500Y-100750000D01*
%TO.N,Net-(D2-A)*%
X128222181Y-106957107D02*
X129707107Y-106957107D01*
X127041422Y-109291422D02*
X127041422Y-108137866D01*
X128250000Y-110500000D02*
X127041422Y-109291422D01*
X146648528Y-110500000D02*
X128250000Y-110500000D01*
X148000000Y-109148528D02*
X146648528Y-110500000D01*
X148000000Y-102000000D02*
X148000000Y-109148528D01*
X147400000Y-101400000D02*
X148000000Y-102000000D01*
X146200000Y-101400000D02*
X147400000Y-101400000D01*
X145500000Y-100700000D02*
X146200000Y-101400000D01*
X145500000Y-99400000D02*
X145500000Y-100700000D01*
X146300000Y-98600000D02*
X145500000Y-99400000D01*
X127041422Y-108137866D02*
X128222181Y-106957107D01*
X148000000Y-97900000D02*
X147300000Y-98600000D01*
X147300000Y-98600000D02*
X146300000Y-98600000D01*
X148000000Y-92475000D02*
X148000000Y-97900000D01*
%TO.N,KFD_DATA*%
X137150000Y-103250000D02*
X136300000Y-104100000D01*
X138300000Y-103250000D02*
X137150000Y-103250000D01*
X138300000Y-96950000D02*
X138950000Y-96300000D01*
X138300000Y-103250000D02*
X138300000Y-96950000D01*
%TO.N,KFD_SENSE*%
X142300000Y-103250000D02*
X141150000Y-103250000D01*
X141150000Y-103250000D02*
X140300000Y-104100000D01*
D51*
X140300000Y-105050000D02*
X140300000Y-104100000D01*
X142000000Y-106750000D02*
X140300000Y-105050000D01*
X142312500Y-106750000D02*
X142000000Y-106750000D01*
D49*
%TO.N,+5V*%
X128419417Y-98909010D02*
X127774963Y-99553464D01*
X126537527Y-99037527D02*
X126537527Y-98528159D01*
D48*
X120777639Y-103222361D02*
X122500000Y-101500000D01*
D49*
X124500000Y-101750000D02*
X126875000Y-99375000D01*
X128419417Y-98909010D02*
X130094804Y-97233623D01*
X127774963Y-99553464D02*
X127053464Y-99553464D01*
X131000000Y-96467246D02*
X130233623Y-97233623D01*
X126537527Y-98528159D02*
X127288047Y-97777639D01*
X127460000Y-90250000D02*
X127460000Y-93295786D01*
D48*
X122500000Y-101500000D02*
X124250000Y-101500000D01*
D49*
X126875000Y-99375000D02*
X126537527Y-99037527D01*
X131000000Y-94500000D02*
X131000000Y-96467246D01*
X130094804Y-97233623D02*
X130233623Y-97233623D01*
X127460000Y-93295786D02*
X127707107Y-93542893D01*
X121896268Y-104353732D02*
X124000000Y-102250000D01*
X127053464Y-99553464D02*
X126875000Y-99375000D01*
X124000000Y-102250000D02*
X124500000Y-101750000D01*
X130042893Y-93542893D02*
X131000000Y-94500000D01*
X127707107Y-93542893D02*
X130042893Y-93542893D01*
D48*
X124250000Y-101500000D02*
X124500000Y-101750000D01*
%TO.N,TWI_D_RX*%
X132750000Y-95750000D02*
X133250000Y-95250000D01*
X135750000Y-93750000D02*
X135750000Y-93250000D01*
X134250000Y-95250000D02*
X135750000Y-93750000D01*
X136105634Y-93250000D02*
X135750000Y-93250000D01*
X121269239Y-100650000D02*
X122669239Y-99250000D01*
X137105634Y-92250000D02*
X136105634Y-93250000D01*
X122669239Y-99250000D02*
X122750000Y-99250000D01*
X133250000Y-95250000D02*
X134250000Y-95250000D01*
X121000000Y-100650000D02*
X121180761Y-100650000D01*
X140937500Y-91250000D02*
X139937500Y-92250000D01*
X119890202Y-100650000D02*
X121000000Y-100650000D01*
X139937500Y-92250000D02*
X137105634Y-92250000D01*
X119014897Y-101525305D02*
X119890202Y-100650000D01*
X121180761Y-100650000D02*
X121269239Y-100650000D01*
X142250000Y-91250000D02*
X140937500Y-91250000D01*
%TO.N,TWI_S_RX*%
X120980850Y-100019150D02*
X121000000Y-100000000D01*
X135812500Y-108750000D02*
X135250000Y-108750000D01*
X119014897Y-99474695D02*
X119559352Y-100019150D01*
X134250000Y-107750000D02*
X132000000Y-107750000D01*
X140000000Y-107750000D02*
X137168134Y-107750000D01*
X135250000Y-108750000D02*
X134250000Y-107750000D01*
X141000000Y-108750000D02*
X140000000Y-107750000D01*
X136168134Y-108750000D02*
X135812500Y-108750000D01*
X119559352Y-100019150D02*
X120980850Y-100019150D01*
X137168134Y-107750000D02*
X136168134Y-108750000D01*
X142312500Y-108750000D02*
X141000000Y-108750000D01*
%TO.N,MISO*%
X127959798Y-100500000D02*
X128985103Y-101525305D01*
X127750000Y-100500000D02*
X127959798Y-100500000D01*
%TO.N,SCK*%
X129510408Y-100000000D02*
X128985103Y-99474695D01*
X129750000Y-100000000D02*
X129510408Y-100000000D01*
%TO.N,MOSI*%
X127250000Y-101250000D02*
X127578427Y-101250000D01*
X127578427Y-101250000D02*
X128419417Y-102090990D01*
%TO.N,KFD_SENSE*%
X142312500Y-107000000D02*
X142312500Y-106750000D01*
%TO.N,KFD_DATA*%
X142000000Y-93250000D02*
X142250000Y-93250000D01*
X142000000Y-93250000D02*
X138950000Y-96300000D01*
%TO.N,Net-(D1-A)*%
X128207107Y-108457107D02*
X129750000Y-110000000D01*
X129750000Y-110000000D02*
X145525000Y-110000000D01*
%TO.N,TWI_D_TX*%
X133500000Y-93750000D02*
X132750000Y-94500000D01*
X125500000Y-108000000D02*
X125500000Y-105959798D01*
X133500000Y-93250000D02*
X133500000Y-93750000D01*
X125500000Y-105959798D02*
X125025305Y-105485103D01*
%TO.N,TWI_S_TX*%
X120421573Y-101250000D02*
X119580583Y-102090990D01*
X122500000Y-100750000D02*
X122000000Y-101250000D01*
X131750000Y-109000000D02*
X133312500Y-109000000D01*
X133312500Y-109000000D02*
X133562500Y-108750000D01*
X122000000Y-101250000D02*
X120421573Y-101250000D01*
%TO.N,GPIO1*%
X130417499Y-104332501D02*
X127266815Y-104332501D01*
X130500000Y-104250000D02*
X130417499Y-104332501D01*
X127266815Y-104332501D02*
X126722361Y-103788047D01*
%TO.N,GPIO2*%
X127288047Y-103222361D02*
X127832502Y-103766816D01*
X130250000Y-102500000D02*
X132250000Y-102500000D01*
X128983184Y-103766816D02*
X130250000Y-102500000D01*
X127832502Y-103766816D02*
X128983184Y-103766816D01*
%TO.N,Net-(Q1-B)*%
X134500000Y-92250000D02*
X136398528Y-92250000D01*
X137348528Y-91300000D02*
X138062500Y-91300000D01*
X136398528Y-92250000D02*
X137348528Y-91300000D01*
X133500000Y-91250000D02*
X134500000Y-92250000D01*
%TO.N,Net-(Q2-B)*%
X135000000Y-107750000D02*
X135250000Y-107750000D01*
X135250000Y-107750000D02*
X136461028Y-107750000D01*
X136461028Y-107750000D02*
X137411028Y-106800000D01*
X137411028Y-106800000D02*
X138125000Y-106800000D01*
X134000000Y-106750000D02*
X135000000Y-107750000D01*
X133562500Y-106750000D02*
X134000000Y-106750000D01*
%TO.N,Net-(U2-PD6)*%
X126792893Y-106121320D02*
X126792893Y-107042893D01*
X125590990Y-104919417D02*
X126792893Y-106121320D01*
%TO.N,Net-(U2-PD7)*%
X126156676Y-104353732D02*
X127345837Y-105542893D01*
X127345837Y-105542893D02*
X128292893Y-105542893D01*
%TO.N,/IN_D-*%
X98569240Y-99250000D02*
X99695000Y-99250000D01*
X98068380Y-98749140D02*
X98569240Y-99250000D01*
X97201268Y-98749140D02*
X98068380Y-98749140D01*
%TD*%
%TA.AperFunction,Conductor*%
%TO.N,GND*%
G36*
X145502594Y-88750635D02*
G01*
X145780918Y-88765222D01*
X145786805Y-88765707D01*
X145850460Y-88772879D01*
X145854798Y-88773467D01*
X146097977Y-88811982D01*
X146104473Y-88813237D01*
X146161265Y-88826199D01*
X146164723Y-88827056D01*
X146409051Y-88892524D01*
X146416105Y-88894700D01*
X146460016Y-88910065D01*
X146462698Y-88911049D01*
X146710342Y-89006110D01*
X146717796Y-89009330D01*
X146739603Y-89019832D01*
X146741477Y-89020759D01*
X146995154Y-89150015D01*
X147004087Y-89155173D01*
X147258714Y-89320530D01*
X147267086Y-89326613D01*
X147399727Y-89434023D01*
X147503019Y-89517667D01*
X147510720Y-89524600D01*
X147725399Y-89739279D01*
X147732332Y-89746980D01*
X147891535Y-89943580D01*
X147923382Y-89982907D01*
X147929471Y-89991289D01*
X148000505Y-90100671D01*
X148094813Y-90245892D01*
X148099995Y-90254866D01*
X148229198Y-90508441D01*
X148230183Y-90510429D01*
X148240668Y-90532200D01*
X148243898Y-90539679D01*
X148338931Y-90787251D01*
X148339951Y-90790032D01*
X148355295Y-90833884D01*
X148357477Y-90840958D01*
X148422926Y-91085213D01*
X148423817Y-91088807D01*
X148436756Y-91145499D01*
X148438019Y-91152041D01*
X148476526Y-91395168D01*
X148477123Y-91399571D01*
X148484290Y-91463185D01*
X148484776Y-91469087D01*
X148499364Y-91747405D01*
X148499500Y-91752587D01*
X148499500Y-92269686D01*
X148480593Y-92327877D01*
X148431093Y-92363841D01*
X148369907Y-92363841D01*
X148320407Y-92327877D01*
X148314764Y-92319187D01*
X148280470Y-92259789D01*
X148280468Y-92259787D01*
X148215212Y-92194530D01*
X148215212Y-92194531D01*
X147052712Y-91032030D01*
X147035766Y-91022246D01*
X146972791Y-90985887D01*
X146972788Y-90985886D01*
X146970325Y-90985226D01*
X146883644Y-90962000D01*
X146883642Y-90962000D01*
X146709803Y-90962000D01*
X146651612Y-90943093D01*
X146616358Y-90895698D01*
X146603455Y-90858821D01*
X146523930Y-90751070D01*
X146416179Y-90671545D01*
X146416176Y-90671544D01*
X146416175Y-90671543D01*
X146289777Y-90627315D01*
X146289776Y-90627314D01*
X146289774Y-90627314D01*
X146289771Y-90627313D01*
X146289768Y-90627313D01*
X146259773Y-90624500D01*
X146259764Y-90624500D01*
X145240236Y-90624500D01*
X145240226Y-90624500D01*
X145210231Y-90627313D01*
X145210222Y-90627315D01*
X145083824Y-90671543D01*
X145083821Y-90671544D01*
X145083821Y-90671545D01*
X145081523Y-90673241D01*
X144976071Y-90751069D01*
X144976069Y-90751071D01*
X144936811Y-90804263D01*
X144917010Y-90831093D01*
X144896543Y-90858824D01*
X144852315Y-90985222D01*
X144852313Y-90985231D01*
X144849500Y-91015226D01*
X144849500Y-91609773D01*
X144852313Y-91639768D01*
X144852315Y-91639777D01*
X144896543Y-91766175D01*
X144896544Y-91766176D01*
X144896545Y-91766179D01*
X144976070Y-91873930D01*
X145083821Y-91953455D01*
X145210226Y-91997686D01*
X145240226Y-92000499D01*
X145240230Y-92000500D01*
X145240236Y-92000500D01*
X146259770Y-92000500D01*
X146259772Y-92000499D01*
X146289774Y-91997686D01*
X146416179Y-91953455D01*
X146523930Y-91873930D01*
X146603455Y-91766179D01*
X146603457Y-91766174D01*
X146606924Y-91759616D01*
X146609909Y-91761194D01*
X146638248Y-91723962D01*
X146696846Y-91706356D01*
X146754601Y-91726554D01*
X146764645Y-91735327D01*
X147620504Y-92591185D01*
X147648281Y-92645702D01*
X147649500Y-92661189D01*
X147649500Y-97713810D01*
X147630593Y-97772001D01*
X147620504Y-97783814D01*
X147183814Y-98220504D01*
X147129297Y-98248281D01*
X147113810Y-98249500D01*
X146346144Y-98249500D01*
X146253856Y-98249500D01*
X146164712Y-98273386D01*
X146084788Y-98319530D01*
X145219528Y-99184790D01*
X145182088Y-99249639D01*
X145182088Y-99249640D01*
X145173387Y-99264709D01*
X145173386Y-99264711D01*
X145173386Y-99264712D01*
X145149500Y-99353856D01*
X145149500Y-100746144D01*
X145150419Y-100749572D01*
X145167873Y-100814712D01*
X145167873Y-100814714D01*
X145173383Y-100835282D01*
X145173384Y-100835284D01*
X145173385Y-100835287D01*
X145173386Y-100835288D01*
X145219530Y-100915212D01*
X145885316Y-101580998D01*
X145913092Y-101635513D01*
X145903521Y-101695945D01*
X145860256Y-101739210D01*
X145815311Y-101750000D01*
X145425001Y-101750000D01*
X145425000Y-101750001D01*
X145425000Y-103124999D01*
X145425001Y-103125000D01*
X146149999Y-103125000D01*
X146150000Y-103124999D01*
X146150000Y-101975377D01*
X146149999Y-101975375D01*
X146135493Y-101902453D01*
X146131762Y-101893443D01*
X146133537Y-101892707D01*
X146120254Y-101845615D01*
X146141430Y-101788211D01*
X146192304Y-101754217D01*
X146219178Y-101750500D01*
X147213810Y-101750500D01*
X147272001Y-101769407D01*
X147283814Y-101779496D01*
X147620504Y-102116186D01*
X147648281Y-102170703D01*
X147649500Y-102186190D01*
X147649500Y-108962338D01*
X147630593Y-109020529D01*
X147620504Y-109032342D01*
X146532342Y-110120504D01*
X146477825Y-110148281D01*
X146462338Y-110149500D01*
X146110190Y-110149500D01*
X146051999Y-110130593D01*
X146016035Y-110081093D01*
X146016035Y-110019907D01*
X146040186Y-109980497D01*
X146212214Y-109808468D01*
X146280469Y-109740213D01*
X146326614Y-109660288D01*
X146337935Y-109618036D01*
X146350500Y-109571144D01*
X146350500Y-109421681D01*
X146369407Y-109363490D01*
X146410251Y-109333109D01*
X146409623Y-109331920D01*
X146416176Y-109328456D01*
X146416175Y-109328456D01*
X146416179Y-109328455D01*
X146523930Y-109248930D01*
X146603455Y-109141179D01*
X146647686Y-109014774D01*
X146650499Y-108984772D01*
X146650500Y-108984770D01*
X146650500Y-108390230D01*
X146650499Y-108390226D01*
X146647686Y-108360226D01*
X146603455Y-108233821D01*
X146523930Y-108126070D01*
X146416179Y-108046545D01*
X146416176Y-108046544D01*
X146416175Y-108046543D01*
X146289777Y-108002315D01*
X146289776Y-108002314D01*
X146289774Y-108002314D01*
X146289771Y-108002313D01*
X146289768Y-108002313D01*
X146259773Y-107999500D01*
X146259764Y-107999500D01*
X145240236Y-107999500D01*
X145240226Y-107999500D01*
X145210231Y-108002313D01*
X145210222Y-108002315D01*
X145083824Y-108046543D01*
X145083821Y-108046544D01*
X145083821Y-108046545D01*
X145069237Y-108057309D01*
X144976071Y-108126069D01*
X144976069Y-108126071D01*
X144955047Y-108154555D01*
X144899297Y-108230093D01*
X144896543Y-108233824D01*
X144852315Y-108360222D01*
X144852313Y-108360231D01*
X144849500Y-108390226D01*
X144849500Y-108984773D01*
X144852313Y-109014768D01*
X144852315Y-109014777D01*
X144896543Y-109141175D01*
X144896544Y-109141176D01*
X144896545Y-109141179D01*
X144976070Y-109248930D01*
X145083821Y-109328455D01*
X145210226Y-109372686D01*
X145240226Y-109375499D01*
X145240230Y-109375500D01*
X145240236Y-109375500D01*
X145414810Y-109375500D01*
X145436857Y-109382663D01*
X145459755Y-109386290D01*
X145465403Y-109391938D01*
X145473001Y-109394407D01*
X145486628Y-109413163D01*
X145503020Y-109429555D01*
X145504269Y-109437444D01*
X145508965Y-109443907D01*
X145508965Y-109467092D01*
X145512591Y-109489987D01*
X145508965Y-109497103D01*
X145508965Y-109505093D01*
X145484814Y-109544504D01*
X145408814Y-109620504D01*
X145354297Y-109648281D01*
X145338810Y-109649500D01*
X131995507Y-109649500D01*
X131937316Y-109630593D01*
X131901352Y-109581093D01*
X131901352Y-109519907D01*
X131937316Y-109470407D01*
X131946007Y-109464764D01*
X132057309Y-109400503D01*
X132057309Y-109400502D01*
X132057314Y-109400500D01*
X132078319Y-109379494D01*
X132132834Y-109351719D01*
X132148321Y-109350500D01*
X133358642Y-109350500D01*
X133358644Y-109350500D01*
X133447788Y-109326614D01*
X133527712Y-109280470D01*
X133573019Y-109235163D01*
X133603686Y-109204496D01*
X133658202Y-109176718D01*
X133673690Y-109175499D01*
X133869021Y-109175499D01*
X133869022Y-109175498D01*
X133915911Y-109168072D01*
X133962799Y-109160647D01*
X133962799Y-109160646D01*
X133962804Y-109160646D01*
X134075842Y-109103050D01*
X134165550Y-109013342D01*
X134223146Y-108900304D01*
X134238000Y-108806519D01*
X134237999Y-108472688D01*
X134256906Y-108414498D01*
X134306406Y-108378534D01*
X134367591Y-108378534D01*
X134407003Y-108402685D01*
X135034788Y-109030470D01*
X135114012Y-109076210D01*
X135114712Y-109076614D01*
X135203856Y-109100500D01*
X135203857Y-109100500D01*
X135270386Y-109100500D01*
X135315331Y-109111290D01*
X135412196Y-109160646D01*
X135505981Y-109175500D01*
X136119018Y-109175499D01*
X136119020Y-109175499D01*
X136119021Y-109175498D01*
X136165911Y-109168072D01*
X136212799Y-109160647D01*
X136212799Y-109160646D01*
X136212804Y-109160646D01*
X136325842Y-109103050D01*
X136415550Y-109013342D01*
X136424093Y-108996573D01*
X136442295Y-108971519D01*
X136588814Y-108825001D01*
X137137501Y-108825001D01*
X137137501Y-108881485D01*
X137152333Y-108975141D01*
X137152336Y-108975151D01*
X137209858Y-109088043D01*
X137299456Y-109177641D01*
X137412348Y-109235163D01*
X137412352Y-109235164D01*
X137506015Y-109249999D01*
X137999998Y-109249999D01*
X138000000Y-109249998D01*
X138000000Y-108825001D01*
X138250000Y-108825001D01*
X138250000Y-109249998D01*
X138250001Y-109249999D01*
X138743983Y-109249999D01*
X138743985Y-109249998D01*
X138837641Y-109235166D01*
X138837651Y-109235163D01*
X138950543Y-109177641D01*
X139040141Y-109088043D01*
X139097663Y-108975151D01*
X139097664Y-108975147D01*
X139112500Y-108881484D01*
X139112500Y-108825001D01*
X139112499Y-108825000D01*
X138250001Y-108825000D01*
X138250000Y-108825001D01*
X138000000Y-108825001D01*
X137999999Y-108825000D01*
X137137502Y-108825000D01*
X137137501Y-108825001D01*
X136588814Y-108825001D01*
X136968497Y-108445319D01*
X137023013Y-108417542D01*
X137083445Y-108427113D01*
X137126710Y-108470378D01*
X137137500Y-108515323D01*
X137137500Y-108574999D01*
X137137501Y-108575000D01*
X139112498Y-108575000D01*
X139112499Y-108574999D01*
X139112499Y-108518516D01*
X139112498Y-108518514D01*
X139097666Y-108424858D01*
X139097663Y-108424848D01*
X139040141Y-108311956D01*
X138997689Y-108269504D01*
X138987164Y-108248848D01*
X138973538Y-108230093D01*
X138973538Y-108222103D01*
X138969912Y-108214987D01*
X138973538Y-108192092D01*
X138973538Y-108168907D01*
X138978233Y-108162444D01*
X138979483Y-108154555D01*
X138995874Y-108138163D01*
X139009502Y-108119407D01*
X139017099Y-108116938D01*
X139022748Y-108111290D01*
X139067693Y-108100500D01*
X139076312Y-108100500D01*
X139134503Y-108119407D01*
X139146309Y-108129490D01*
X139206017Y-108189198D01*
X139255458Y-108213368D01*
X139311104Y-108240572D01*
X139311105Y-108240572D01*
X139311107Y-108240573D01*
X139379240Y-108250500D01*
X139963810Y-108250500D01*
X140022001Y-108269407D01*
X140033814Y-108279496D01*
X140784788Y-109030470D01*
X140864012Y-109076210D01*
X140864712Y-109076614D01*
X140953856Y-109100500D01*
X140953857Y-109100500D01*
X141046144Y-109100500D01*
X141457886Y-109100500D01*
X141502831Y-109111290D01*
X141599696Y-109160646D01*
X141693481Y-109175500D01*
X142306518Y-109175499D01*
X142306520Y-109175499D01*
X142306521Y-109175498D01*
X142353411Y-109168072D01*
X142400299Y-109160647D01*
X142400299Y-109160646D01*
X142400304Y-109160646D01*
X142513342Y-109103050D01*
X142603050Y-109013342D01*
X142660646Y-108900304D01*
X142675500Y-108806519D01*
X142675499Y-108343482D01*
X142666356Y-108285750D01*
X142660647Y-108249700D01*
X142660646Y-108249698D01*
X142660646Y-108249696D01*
X142603050Y-108136658D01*
X142513342Y-108046950D01*
X142400304Y-107989354D01*
X142400305Y-107989354D01*
X142306522Y-107974500D01*
X141693479Y-107974500D01*
X141693476Y-107974501D01*
X141599700Y-107989352D01*
X141599695Y-107989354D01*
X141486659Y-108046949D01*
X141396949Y-108136659D01*
X141339354Y-108249694D01*
X141328854Y-108315988D01*
X141325228Y-108323104D01*
X141325228Y-108331093D01*
X141311599Y-108349850D01*
X141301076Y-108370504D01*
X141293959Y-108374129D01*
X141289264Y-108380593D01*
X141267212Y-108387757D01*
X141246559Y-108398281D01*
X141231073Y-108399500D01*
X141186190Y-108399500D01*
X141127999Y-108380593D01*
X141116186Y-108370504D01*
X140918623Y-108172941D01*
X140890846Y-108118424D01*
X140899686Y-108059459D01*
X140928073Y-108001393D01*
X140938000Y-107933260D01*
X140938000Y-107566740D01*
X140928073Y-107498607D01*
X140916396Y-107474722D01*
X140880980Y-107402277D01*
X140876698Y-107393517D01*
X140793983Y-107310802D01*
X140788552Y-107308147D01*
X140688895Y-107259427D01*
X140661639Y-107255456D01*
X140620760Y-107249500D01*
X139379240Y-107249500D01*
X139345173Y-107254463D01*
X139311104Y-107259427D01*
X139206018Y-107310801D01*
X139206017Y-107310801D01*
X139206017Y-107310802D01*
X139146313Y-107370505D01*
X139139198Y-107374130D01*
X139134503Y-107380593D01*
X139112454Y-107387756D01*
X139091799Y-107398281D01*
X139076312Y-107399500D01*
X138997688Y-107399500D01*
X138939497Y-107380593D01*
X138903533Y-107331093D01*
X138903533Y-107269907D01*
X138927682Y-107230498D01*
X139001698Y-107156483D01*
X139053073Y-107051393D01*
X139063000Y-106983260D01*
X139063000Y-106616740D01*
X139053073Y-106548607D01*
X139038805Y-106519422D01*
X139012736Y-106466096D01*
X139001698Y-106443517D01*
X138918983Y-106360802D01*
X138918981Y-106360801D01*
X138813895Y-106309427D01*
X138786639Y-106305456D01*
X138745760Y-106299500D01*
X137504240Y-106299500D01*
X137470173Y-106304463D01*
X137436104Y-106309427D01*
X137331018Y-106360801D01*
X137331017Y-106360801D01*
X137331017Y-106360802D01*
X137248302Y-106443517D01*
X137248301Y-106443518D01*
X137248300Y-106443520D01*
X137248299Y-106443520D01*
X137230437Y-106480058D01*
X137199303Y-106513430D01*
X137200957Y-106515586D01*
X137195811Y-106519533D01*
X136657002Y-107058341D01*
X136602486Y-107086118D01*
X136542054Y-107076547D01*
X136498789Y-107033282D01*
X136487999Y-106988339D01*
X136487999Y-106693482D01*
X136485331Y-106676636D01*
X136473147Y-106599700D01*
X136473146Y-106599698D01*
X136473146Y-106599696D01*
X136415550Y-106486658D01*
X136325842Y-106396950D01*
X136212804Y-106339354D01*
X136212805Y-106339354D01*
X136119022Y-106324500D01*
X136119019Y-106324500D01*
X135611190Y-106324500D01*
X135552999Y-106305593D01*
X135541186Y-106295504D01*
X134379496Y-105133814D01*
X134351719Y-105079297D01*
X134350500Y-105063810D01*
X134350500Y-104230253D01*
X135299500Y-104230253D01*
X135299500Y-105269746D01*
X135299501Y-105269758D01*
X135311132Y-105328227D01*
X135311134Y-105328233D01*
X135349258Y-105385288D01*
X135355448Y-105394552D01*
X135421769Y-105438867D01*
X135466231Y-105447711D01*
X135480241Y-105450498D01*
X135480246Y-105450498D01*
X135480252Y-105450500D01*
X135480253Y-105450500D01*
X136519747Y-105450500D01*
X136519748Y-105450500D01*
X136578231Y-105438867D01*
X136644552Y-105394552D01*
X136688867Y-105328231D01*
X136700500Y-105269748D01*
X136700500Y-104236189D01*
X136719407Y-104177998D01*
X136729496Y-104166185D01*
X136995527Y-103900155D01*
X137266186Y-103629496D01*
X137273303Y-103625869D01*
X137277999Y-103619407D01*
X137300047Y-103612243D01*
X137320703Y-103601719D01*
X137336190Y-103600500D01*
X137400500Y-103600500D01*
X137458691Y-103619407D01*
X137494655Y-103668907D01*
X137499500Y-103699500D01*
X137499500Y-104519746D01*
X137499501Y-104519758D01*
X137511132Y-104578227D01*
X137511134Y-104578233D01*
X137553746Y-104642005D01*
X137555448Y-104644552D01*
X137555451Y-104644554D01*
X137608853Y-104680237D01*
X137621769Y-104688867D01*
X137666231Y-104697711D01*
X137680241Y-104700498D01*
X137680246Y-104700498D01*
X137680252Y-104700500D01*
X137680253Y-104700500D01*
X138919747Y-104700500D01*
X138919748Y-104700500D01*
X138978231Y-104688867D01*
X139044552Y-104644552D01*
X139088867Y-104578231D01*
X139100500Y-104519748D01*
X139100500Y-104230253D01*
X139599500Y-104230253D01*
X139599500Y-105269746D01*
X139599501Y-105269758D01*
X139611132Y-105328227D01*
X139611134Y-105328233D01*
X139649258Y-105385288D01*
X139655448Y-105394552D01*
X139721769Y-105438867D01*
X139766231Y-105447711D01*
X139780241Y-105450498D01*
X139780246Y-105450498D01*
X139780252Y-105450500D01*
X140199165Y-105450500D01*
X140257356Y-105469407D01*
X140269169Y-105479496D01*
X141310524Y-106520851D01*
X141338301Y-106575368D01*
X141338301Y-106606342D01*
X141324500Y-106693477D01*
X141324500Y-107156520D01*
X141324501Y-107156523D01*
X141339352Y-107250299D01*
X141339354Y-107250304D01*
X141396950Y-107363342D01*
X141486658Y-107453050D01*
X141599696Y-107510646D01*
X141693481Y-107525500D01*
X142306518Y-107525499D01*
X142306520Y-107525499D01*
X142306521Y-107525498D01*
X142327261Y-107522213D01*
X142400296Y-107510648D01*
X142400300Y-107510646D01*
X142400304Y-107510646D01*
X142400307Y-107510644D01*
X142400829Y-107510475D01*
X142401390Y-107510474D01*
X142408001Y-107509428D01*
X142408166Y-107510473D01*
X142462015Y-107510466D01*
X142501439Y-107534621D01*
X143063179Y-108096361D01*
X143090956Y-108150878D01*
X143090956Y-108181852D01*
X143074500Y-108285750D01*
X143074500Y-108789248D01*
X143090049Y-108887419D01*
X143090050Y-108887423D01*
X143139652Y-108984770D01*
X143150342Y-109005751D01*
X143244249Y-109099658D01*
X143362580Y-109159951D01*
X143429130Y-109170491D01*
X143460751Y-109175500D01*
X143460754Y-109175500D01*
X144039249Y-109175500D01*
X144067803Y-109170976D01*
X144137420Y-109159951D01*
X144255751Y-109099658D01*
X144349658Y-109005751D01*
X144409951Y-108887420D01*
X144425416Y-108789777D01*
X144425500Y-108789248D01*
X144425500Y-108285751D01*
X144417275Y-108233824D01*
X144409951Y-108187580D01*
X144349658Y-108069249D01*
X144255751Y-107975342D01*
X144229998Y-107962220D01*
X144137423Y-107915050D01*
X144137420Y-107915049D01*
X144112876Y-107911161D01*
X144039249Y-107899500D01*
X144039246Y-107899500D01*
X143898689Y-107899500D01*
X143891091Y-107897031D01*
X143883202Y-107898281D01*
X143862546Y-107887756D01*
X143840498Y-107880593D01*
X143828685Y-107870504D01*
X143777185Y-107819004D01*
X143753219Y-107771966D01*
X143745407Y-107771966D01*
X143705996Y-107747815D01*
X143653996Y-107695815D01*
X143626219Y-107641298D01*
X143625000Y-107625811D01*
X143625000Y-107087501D01*
X143875000Y-107087501D01*
X143875000Y-107650000D01*
X144062724Y-107650000D01*
X144062728Y-107649999D01*
X144094375Y-107647031D01*
X144094384Y-107647029D01*
X144227753Y-107600361D01*
X144227759Y-107600358D01*
X144341446Y-107516453D01*
X144341453Y-107516446D01*
X144425358Y-107402759D01*
X144425361Y-107402753D01*
X144472029Y-107269384D01*
X144472031Y-107269375D01*
X144474999Y-107237728D01*
X144475000Y-107237723D01*
X144475000Y-107087501D01*
X144474999Y-107087500D01*
X143875001Y-107087500D01*
X143875000Y-107087501D01*
X143625000Y-107087501D01*
X143625000Y-106937501D01*
X144800000Y-106937501D01*
X144800000Y-107103469D01*
X144806322Y-107162277D01*
X144806324Y-107162288D01*
X144855938Y-107295310D01*
X144941023Y-107408970D01*
X144941029Y-107408976D01*
X145054689Y-107494061D01*
X145187711Y-107543675D01*
X145187722Y-107543677D01*
X145246531Y-107550000D01*
X145624999Y-107550000D01*
X145625000Y-107549999D01*
X145625000Y-106937501D01*
X145875000Y-106937501D01*
X145875000Y-107549999D01*
X145875001Y-107550000D01*
X146253469Y-107550000D01*
X146312277Y-107543677D01*
X146312288Y-107543675D01*
X146445310Y-107494061D01*
X146558970Y-107408976D01*
X146558976Y-107408970D01*
X146644061Y-107295310D01*
X146693675Y-107162288D01*
X146693677Y-107162277D01*
X146700000Y-107103469D01*
X146700000Y-106937501D01*
X146699999Y-106937500D01*
X145875001Y-106937500D01*
X145875000Y-106937501D01*
X145625000Y-106937501D01*
X145624999Y-106937500D01*
X144800001Y-106937500D01*
X144800000Y-106937501D01*
X143625000Y-106937501D01*
X143625000Y-106275001D01*
X143875000Y-106275001D01*
X143875000Y-106837499D01*
X143875001Y-106837500D01*
X144474999Y-106837500D01*
X144475000Y-106837499D01*
X144475000Y-106687276D01*
X144474999Y-106687271D01*
X144472031Y-106655624D01*
X144472029Y-106655615D01*
X144435624Y-106551575D01*
X144425361Y-106522246D01*
X144425358Y-106522240D01*
X144424834Y-106521530D01*
X144800000Y-106521530D01*
X144800000Y-106687499D01*
X144800001Y-106687500D01*
X145624999Y-106687500D01*
X145625000Y-106687499D01*
X145625000Y-106075001D01*
X145875000Y-106075001D01*
X145875000Y-106687499D01*
X145875001Y-106687500D01*
X146699999Y-106687500D01*
X146700000Y-106687499D01*
X146700000Y-106521530D01*
X146693677Y-106462722D01*
X146693675Y-106462711D01*
X146644061Y-106329689D01*
X146558976Y-106216029D01*
X146558970Y-106216023D01*
X146445310Y-106130938D01*
X146312288Y-106081324D01*
X146312277Y-106081322D01*
X146253469Y-106075000D01*
X145875001Y-106075000D01*
X145875000Y-106075001D01*
X145625000Y-106075001D01*
X145624999Y-106075000D01*
X145246531Y-106075000D01*
X145187722Y-106081322D01*
X145187711Y-106081324D01*
X145054689Y-106130938D01*
X144941029Y-106216023D01*
X144941023Y-106216029D01*
X144855938Y-106329689D01*
X144806324Y-106462711D01*
X144806322Y-106462722D01*
X144800000Y-106521530D01*
X144424834Y-106521530D01*
X144341453Y-106408553D01*
X144341446Y-106408546D01*
X144227759Y-106324641D01*
X144227753Y-106324638D01*
X144094384Y-106277970D01*
X144094375Y-106277968D01*
X144062728Y-106275000D01*
X143875001Y-106275000D01*
X143875000Y-106275001D01*
X143625000Y-106275001D01*
X143624999Y-106275000D01*
X143437271Y-106275000D01*
X143405624Y-106277968D01*
X143405615Y-106277970D01*
X143272246Y-106324638D01*
X143272240Y-106324641D01*
X143158553Y-106408546D01*
X143158546Y-106408553D01*
X143074641Y-106522240D01*
X143074638Y-106522246D01*
X143027970Y-106655615D01*
X143027968Y-106655624D01*
X143025000Y-106687271D01*
X143025000Y-106827810D01*
X143006093Y-106886001D01*
X142956593Y-106921965D01*
X142895407Y-106921965D01*
X142855996Y-106897814D01*
X142702729Y-106744547D01*
X142674952Y-106690030D01*
X142674952Y-106690028D01*
X142660647Y-106599700D01*
X142660646Y-106599698D01*
X142660646Y-106599696D01*
X142603050Y-106486658D01*
X142513342Y-106396950D01*
X142400304Y-106339354D01*
X142400305Y-106339354D01*
X142306522Y-106324500D01*
X142306519Y-106324500D01*
X142075835Y-106324500D01*
X142017644Y-106305593D01*
X142005831Y-106295504D01*
X141029496Y-105319169D01*
X141001719Y-105264652D01*
X141000500Y-105249165D01*
X141000500Y-104230253D01*
X141000498Y-104230241D01*
X140995391Y-104204569D01*
X140988867Y-104171769D01*
X140944552Y-104105448D01*
X140944548Y-104105445D01*
X140937657Y-104098554D01*
X140940532Y-104095678D01*
X140914452Y-104062566D01*
X140912075Y-104001427D01*
X140937342Y-103958338D01*
X141266186Y-103629496D01*
X141273302Y-103625870D01*
X141277998Y-103619407D01*
X141300047Y-103612242D01*
X141320702Y-103601719D01*
X141336189Y-103600500D01*
X141400500Y-103600500D01*
X141458691Y-103619407D01*
X141494655Y-103668907D01*
X141499500Y-103699500D01*
X141499500Y-104519746D01*
X141499501Y-104519758D01*
X141511132Y-104578227D01*
X141511134Y-104578233D01*
X141553746Y-104642005D01*
X141555448Y-104644552D01*
X141555451Y-104644554D01*
X141608853Y-104680237D01*
X141621769Y-104688867D01*
X141666231Y-104697711D01*
X141680241Y-104700498D01*
X141680246Y-104700498D01*
X141680252Y-104700500D01*
X141680253Y-104700500D01*
X142919747Y-104700500D01*
X142919748Y-104700500D01*
X142978231Y-104688867D01*
X143044552Y-104644552D01*
X143088867Y-104578231D01*
X143100500Y-104519748D01*
X143100500Y-103375001D01*
X144450000Y-103375001D01*
X144450000Y-104524624D01*
X144464506Y-104597546D01*
X144464507Y-104597548D01*
X144519758Y-104680237D01*
X144519762Y-104680241D01*
X144602451Y-104735492D01*
X144602453Y-104735493D01*
X144675375Y-104749999D01*
X144675377Y-104750000D01*
X145174999Y-104750000D01*
X145175000Y-104749999D01*
X145175000Y-103375001D01*
X145425000Y-103375001D01*
X145425000Y-104749999D01*
X145425001Y-104750000D01*
X145924623Y-104750000D01*
X145924624Y-104749999D01*
X145997546Y-104735493D01*
X145997548Y-104735492D01*
X146080237Y-104680241D01*
X146080241Y-104680237D01*
X146135492Y-104597548D01*
X146135493Y-104597546D01*
X146149999Y-104524624D01*
X146150000Y-104524622D01*
X146150000Y-103375001D01*
X146149999Y-103375000D01*
X145425001Y-103375000D01*
X145425000Y-103375001D01*
X145175000Y-103375001D01*
X145174999Y-103375000D01*
X144450001Y-103375000D01*
X144450000Y-103375001D01*
X143100500Y-103375001D01*
X143100500Y-101980252D01*
X143100500Y-101980251D01*
X143100499Y-101980243D01*
X143099530Y-101975375D01*
X144450000Y-101975375D01*
X144450000Y-103124999D01*
X144450001Y-103125000D01*
X145174999Y-103125000D01*
X145175000Y-103124999D01*
X145175000Y-101750001D01*
X145174999Y-101750000D01*
X144675375Y-101750000D01*
X144602453Y-101764506D01*
X144602451Y-101764507D01*
X144519762Y-101819758D01*
X144519758Y-101819762D01*
X144464507Y-101902451D01*
X144464506Y-101902453D01*
X144450000Y-101975375D01*
X143099530Y-101975375D01*
X143093871Y-101946929D01*
X143088867Y-101921769D01*
X143044552Y-101855448D01*
X143042424Y-101854026D01*
X142978233Y-101811134D01*
X142978231Y-101811133D01*
X142978228Y-101811132D01*
X142978227Y-101811132D01*
X142919758Y-101799501D01*
X142919748Y-101799500D01*
X141680252Y-101799500D01*
X141680251Y-101799500D01*
X141680241Y-101799501D01*
X141621772Y-101811132D01*
X141621766Y-101811134D01*
X141555451Y-101855445D01*
X141555445Y-101855451D01*
X141511134Y-101921766D01*
X141511132Y-101921772D01*
X141499501Y-101980241D01*
X141499500Y-101980253D01*
X141499500Y-102800500D01*
X141480593Y-102858691D01*
X141431093Y-102894655D01*
X141400500Y-102899500D01*
X141103856Y-102899500D01*
X141014712Y-102923386D01*
X140934788Y-102969530D01*
X140019530Y-103884788D01*
X139976293Y-103959678D01*
X139973385Y-103964714D01*
X139970328Y-103976124D01*
X139937004Y-104027438D01*
X139879882Y-104049364D01*
X139874702Y-104049500D01*
X139780252Y-104049500D01*
X139780251Y-104049500D01*
X139780241Y-104049501D01*
X139721772Y-104061132D01*
X139721766Y-104061134D01*
X139655451Y-104105445D01*
X139655445Y-104105451D01*
X139611134Y-104171766D01*
X139611132Y-104171772D01*
X139599501Y-104230241D01*
X139599500Y-104230253D01*
X139100500Y-104230253D01*
X139100500Y-101980252D01*
X139100468Y-101980093D01*
X139096375Y-101959513D01*
X139088867Y-101921769D01*
X139044552Y-101855448D01*
X139042424Y-101854026D01*
X138978233Y-101811134D01*
X138978231Y-101811133D01*
X138978228Y-101811132D01*
X138978227Y-101811132D01*
X138919758Y-101799501D01*
X138919748Y-101799500D01*
X138919747Y-101799500D01*
X138749500Y-101799500D01*
X138691309Y-101780593D01*
X138655345Y-101731093D01*
X138650500Y-101700500D01*
X138650500Y-99896532D01*
X138849500Y-99896532D01*
X138849500Y-100103467D01*
X138889869Y-100306418D01*
X138969058Y-100497597D01*
X139080993Y-100665120D01*
X139084023Y-100669655D01*
X139230345Y-100815977D01*
X139402402Y-100930941D01*
X139593580Y-101010130D01*
X139796535Y-101050500D01*
X139796536Y-101050500D01*
X140003464Y-101050500D01*
X140003465Y-101050500D01*
X140206420Y-101010130D01*
X140397598Y-100930941D01*
X140569655Y-100815977D01*
X140715977Y-100669655D01*
X140830941Y-100497598D01*
X140910130Y-100306420D01*
X140950500Y-100103465D01*
X140950500Y-99896535D01*
X140910130Y-99693580D01*
X140830941Y-99502402D01*
X140715977Y-99330345D01*
X140569655Y-99184023D01*
X140557338Y-99175793D01*
X140397597Y-99069058D01*
X140206418Y-98989869D01*
X140003467Y-98949500D01*
X140003465Y-98949500D01*
X139796535Y-98949500D01*
X139796532Y-98949500D01*
X139593581Y-98989869D01*
X139402402Y-99069058D01*
X139230348Y-99184020D01*
X139084020Y-99330348D01*
X138969058Y-99502402D01*
X138889869Y-99693581D01*
X138849500Y-99896532D01*
X138650500Y-99896532D01*
X138650500Y-97136189D01*
X138669407Y-97077998D01*
X138679490Y-97066191D01*
X139230470Y-96515212D01*
X139230470Y-96515211D01*
X142041185Y-93704494D01*
X142095702Y-93676718D01*
X142111189Y-93675499D01*
X142306521Y-93675499D01*
X142306522Y-93675498D01*
X142353411Y-93668072D01*
X142400299Y-93660647D01*
X142400299Y-93660646D01*
X142400304Y-93660646D01*
X142513342Y-93603050D01*
X142603050Y-93513342D01*
X142639373Y-93442055D01*
X142682637Y-93398790D01*
X142727582Y-93388000D01*
X143029678Y-93388000D01*
X143087869Y-93406907D01*
X143117886Y-93442053D01*
X143150342Y-93505751D01*
X143244249Y-93599658D01*
X143362580Y-93659951D01*
X143427985Y-93670310D01*
X143460751Y-93675500D01*
X143460754Y-93675500D01*
X144039249Y-93675500D01*
X144067803Y-93670976D01*
X144137420Y-93659951D01*
X144255751Y-93599658D01*
X144349658Y-93505751D01*
X144409951Y-93387420D01*
X144421817Y-93312501D01*
X144800000Y-93312501D01*
X144800000Y-93478469D01*
X144806322Y-93537277D01*
X144806324Y-93537288D01*
X144855938Y-93670310D01*
X144941023Y-93783970D01*
X144941029Y-93783976D01*
X145054689Y-93869061D01*
X145187711Y-93918675D01*
X145187722Y-93918677D01*
X145246531Y-93925000D01*
X145624999Y-93925000D01*
X145625000Y-93924999D01*
X145625000Y-93312501D01*
X145875000Y-93312501D01*
X145875000Y-93924999D01*
X145875001Y-93925000D01*
X146253469Y-93925000D01*
X146312277Y-93918677D01*
X146312288Y-93918675D01*
X146445310Y-93869061D01*
X146558970Y-93783976D01*
X146558976Y-93783970D01*
X146644061Y-93670310D01*
X146693675Y-93537288D01*
X146693677Y-93537277D01*
X146700000Y-93478469D01*
X146700000Y-93312501D01*
X146699999Y-93312500D01*
X145875001Y-93312500D01*
X145875000Y-93312501D01*
X145625000Y-93312501D01*
X145624999Y-93312500D01*
X144800001Y-93312500D01*
X144800000Y-93312501D01*
X144421817Y-93312501D01*
X144425500Y-93289246D01*
X144425500Y-92896530D01*
X144800000Y-92896530D01*
X144800000Y-93062499D01*
X144800001Y-93062500D01*
X145624999Y-93062500D01*
X145625000Y-93062499D01*
X145625000Y-92450001D01*
X145875000Y-92450001D01*
X145875000Y-93062499D01*
X145875001Y-93062500D01*
X146699999Y-93062500D01*
X146700000Y-93062499D01*
X146700000Y-92896530D01*
X146693677Y-92837722D01*
X146693675Y-92837711D01*
X146644061Y-92704689D01*
X146558976Y-92591029D01*
X146558970Y-92591023D01*
X146445310Y-92505938D01*
X146312288Y-92456324D01*
X146312277Y-92456322D01*
X146253469Y-92450000D01*
X145875001Y-92450000D01*
X145875000Y-92450001D01*
X145625000Y-92450001D01*
X145624999Y-92450000D01*
X145246531Y-92450000D01*
X145187722Y-92456322D01*
X145187711Y-92456324D01*
X145054689Y-92505938D01*
X144941029Y-92591023D01*
X144941023Y-92591029D01*
X144855938Y-92704689D01*
X144806324Y-92837711D01*
X144806322Y-92837722D01*
X144800000Y-92896530D01*
X144425500Y-92896530D01*
X144425500Y-92785754D01*
X144422926Y-92769504D01*
X144416684Y-92730093D01*
X144409951Y-92687580D01*
X144409655Y-92687000D01*
X144386741Y-92642028D01*
X144349658Y-92569249D01*
X144255751Y-92475342D01*
X144251631Y-92473243D01*
X144137423Y-92415050D01*
X144137420Y-92415049D01*
X144112876Y-92411161D01*
X144039249Y-92399500D01*
X144039246Y-92399500D01*
X143460754Y-92399500D01*
X143460751Y-92399500D01*
X143362580Y-92415049D01*
X143362576Y-92415050D01*
X143244250Y-92475341D01*
X143244249Y-92475342D01*
X143150342Y-92569249D01*
X143117886Y-92632946D01*
X143074623Y-92676210D01*
X143029678Y-92687000D01*
X142689368Y-92687000D01*
X142631177Y-92668093D01*
X142608914Y-92642028D01*
X142607630Y-92642962D01*
X142603051Y-92636660D01*
X142603050Y-92636658D01*
X142513342Y-92546950D01*
X142400304Y-92489354D01*
X142400305Y-92489354D01*
X142306522Y-92474500D01*
X141693479Y-92474500D01*
X141693476Y-92474501D01*
X141599700Y-92489352D01*
X141599695Y-92489354D01*
X141486659Y-92546949D01*
X141396949Y-92636659D01*
X141339354Y-92749695D01*
X141324500Y-92843477D01*
X141324500Y-93306520D01*
X141324501Y-93306523D01*
X141333467Y-93363138D01*
X141323895Y-93423570D01*
X141305690Y-93448627D01*
X140039105Y-94715212D01*
X138734788Y-96019529D01*
X138734788Y-96019530D01*
X138219004Y-96535314D01*
X138164487Y-96563091D01*
X138104055Y-96553520D01*
X138060790Y-96510255D01*
X138050000Y-96465310D01*
X138050000Y-95475377D01*
X138049999Y-95475375D01*
X138035493Y-95402453D01*
X138035492Y-95402451D01*
X137980241Y-95319762D01*
X137980237Y-95319758D01*
X137897548Y-95264507D01*
X137897546Y-95264506D01*
X137824624Y-95250000D01*
X137325001Y-95250000D01*
X137325000Y-95250001D01*
X137325000Y-98249999D01*
X137325001Y-98250000D01*
X137824623Y-98250000D01*
X137824627Y-98249999D01*
X137831178Y-98248696D01*
X137891940Y-98255883D01*
X137936873Y-98297412D01*
X137949500Y-98345792D01*
X137949500Y-101700500D01*
X137930593Y-101758691D01*
X137881093Y-101794655D01*
X137850500Y-101799500D01*
X137680252Y-101799500D01*
X137680251Y-101799500D01*
X137680241Y-101799501D01*
X137621772Y-101811132D01*
X137621766Y-101811134D01*
X137555451Y-101855445D01*
X137555445Y-101855451D01*
X137511134Y-101921766D01*
X137511132Y-101921772D01*
X137499501Y-101980241D01*
X137499500Y-101980253D01*
X137499500Y-102800500D01*
X137480593Y-102858691D01*
X137431093Y-102894655D01*
X137400500Y-102899500D01*
X137103856Y-102899500D01*
X137042546Y-102915928D01*
X137014712Y-102923386D01*
X136934788Y-102969530D01*
X136019530Y-103884788D01*
X136019527Y-103884793D01*
X136011340Y-103898972D01*
X136011331Y-103898989D01*
X136009898Y-103901472D01*
X135973386Y-103964712D01*
X135967713Y-103985883D01*
X135963180Y-103994914D01*
X135948433Y-104009838D01*
X135937005Y-104027437D01*
X135927404Y-104031122D01*
X135920176Y-104038438D01*
X135899472Y-104041844D01*
X135879884Y-104049364D01*
X135874702Y-104049500D01*
X135480252Y-104049500D01*
X135480251Y-104049500D01*
X135480241Y-104049501D01*
X135421772Y-104061132D01*
X135421766Y-104061134D01*
X135355451Y-104105445D01*
X135355445Y-104105451D01*
X135311134Y-104171766D01*
X135311132Y-104171772D01*
X135299501Y-104230241D01*
X135299500Y-104230253D01*
X134350500Y-104230253D01*
X134350500Y-99421103D01*
X134350500Y-99421102D01*
X134326614Y-99331958D01*
X134325688Y-99330355D01*
X134314076Y-99310242D01*
X134314076Y-99310241D01*
X134299872Y-99285640D01*
X134280470Y-99252034D01*
X131903437Y-96875001D01*
X136350000Y-96875001D01*
X136350000Y-98024624D01*
X136364506Y-98097546D01*
X136364507Y-98097548D01*
X136419758Y-98180237D01*
X136419762Y-98180241D01*
X136502451Y-98235492D01*
X136502453Y-98235493D01*
X136575375Y-98249999D01*
X136575377Y-98250000D01*
X137074999Y-98250000D01*
X137075000Y-98249999D01*
X137075000Y-96875001D01*
X137074999Y-96875000D01*
X136350001Y-96875000D01*
X136350000Y-96875001D01*
X131903437Y-96875001D01*
X131479496Y-96451060D01*
X131451719Y-96396543D01*
X131450500Y-96381056D01*
X131450500Y-94727610D01*
X131469407Y-94669419D01*
X131479490Y-94657612D01*
X132110489Y-94026614D01*
X132169799Y-93923887D01*
X132176332Y-93899503D01*
X132176334Y-93899500D01*
X132176333Y-93899500D01*
X132197456Y-93820669D01*
X132200500Y-93809309D01*
X132200500Y-90799500D01*
X132219407Y-90741309D01*
X132268907Y-90705345D01*
X132299500Y-90700500D01*
X132959849Y-90700500D01*
X133018040Y-90719407D01*
X133054004Y-90768907D01*
X133054004Y-90830093D01*
X133018040Y-90879593D01*
X133004794Y-90887709D01*
X132986660Y-90896948D01*
X132896949Y-90986659D01*
X132839354Y-91099695D01*
X132824500Y-91193477D01*
X132824500Y-91656520D01*
X132824501Y-91656523D01*
X132839352Y-91750299D01*
X132839354Y-91750304D01*
X132896950Y-91863342D01*
X132986658Y-91953050D01*
X133099696Y-92010646D01*
X133193481Y-92025500D01*
X133738809Y-92025499D01*
X133797000Y-92044406D01*
X133808812Y-92054495D01*
X134284788Y-92530470D01*
X134354077Y-92570475D01*
X134354086Y-92570478D01*
X134354088Y-92570480D01*
X134364712Y-92576614D01*
X134453856Y-92600500D01*
X134453857Y-92600500D01*
X134546144Y-92600500D01*
X135003820Y-92600500D01*
X135062011Y-92619407D01*
X135097975Y-92668907D01*
X135097975Y-92730093D01*
X135092029Y-92744447D01*
X135089353Y-92749696D01*
X135074500Y-92843477D01*
X135074500Y-93306520D01*
X135074501Y-93306523D01*
X135089352Y-93400299D01*
X135089354Y-93400304D01*
X135146950Y-93513342D01*
X135236658Y-93603050D01*
X135236661Y-93603051D01*
X135238221Y-93604185D01*
X135239355Y-93605746D01*
X135242168Y-93608559D01*
X135241722Y-93609004D01*
X135274185Y-93653685D01*
X135274185Y-93714871D01*
X135250034Y-93754282D01*
X134133814Y-94870504D01*
X134079297Y-94898281D01*
X134063810Y-94899500D01*
X133268750Y-94899500D01*
X133210559Y-94880593D01*
X133174595Y-94831093D01*
X133174595Y-94769907D01*
X133183013Y-94751000D01*
X133215489Y-94694750D01*
X133216392Y-94693186D01*
X133250500Y-94565892D01*
X133250500Y-94536189D01*
X133269407Y-94477998D01*
X133279490Y-94466191D01*
X133780470Y-93965212D01*
X133826614Y-93885288D01*
X133832614Y-93862896D01*
X133835638Y-93851613D01*
X133841077Y-93831309D01*
X133850500Y-93796144D01*
X133850500Y-93746689D01*
X133869407Y-93688498D01*
X133904552Y-93658481D01*
X134013342Y-93603050D01*
X134103050Y-93513342D01*
X134160646Y-93400304D01*
X134175500Y-93306519D01*
X134175499Y-92843482D01*
X134163783Y-92769504D01*
X134160647Y-92749700D01*
X134160646Y-92749698D01*
X134160646Y-92749696D01*
X134103050Y-92636658D01*
X134013342Y-92546950D01*
X133900304Y-92489354D01*
X133900305Y-92489354D01*
X133806522Y-92474500D01*
X133193479Y-92474500D01*
X133193476Y-92474501D01*
X133099700Y-92489352D01*
X133099695Y-92489354D01*
X132986659Y-92546949D01*
X132896949Y-92636659D01*
X132839354Y-92749695D01*
X132824500Y-92843477D01*
X132824500Y-93306520D01*
X132824501Y-93306523D01*
X132839352Y-93400299D01*
X132839354Y-93400304D01*
X132896950Y-93513342D01*
X132986658Y-93603050D01*
X132986661Y-93603051D01*
X132988217Y-93604182D01*
X132989349Y-93605740D01*
X132992168Y-93608559D01*
X132991721Y-93609005D01*
X133024184Y-93653680D01*
X133024187Y-93714865D01*
X133000035Y-93754281D01*
X132783815Y-93970503D01*
X132729298Y-93998281D01*
X132713811Y-93999500D01*
X132684108Y-93999500D01*
X132611564Y-94018938D01*
X132556809Y-94033609D01*
X132442690Y-94099496D01*
X132349496Y-94192690D01*
X132283609Y-94306809D01*
X132266929Y-94369061D01*
X132249500Y-94434108D01*
X132249500Y-94565892D01*
X132274075Y-94657607D01*
X132283609Y-94693190D01*
X132349496Y-94807309D01*
X132349498Y-94807311D01*
X132349500Y-94807314D01*
X132442686Y-94900500D01*
X132442688Y-94900501D01*
X132442690Y-94900503D01*
X132556810Y-94966390D01*
X132556808Y-94966390D01*
X132556812Y-94966391D01*
X132556814Y-94966392D01*
X132684108Y-95000500D01*
X132684110Y-95000500D01*
X132764810Y-95000500D01*
X132786857Y-95007663D01*
X132809755Y-95011290D01*
X132815403Y-95016938D01*
X132823001Y-95019407D01*
X132836628Y-95038163D01*
X132853020Y-95054555D01*
X132854269Y-95062444D01*
X132858965Y-95068907D01*
X132858965Y-95092092D01*
X132862591Y-95114987D01*
X132858965Y-95122103D01*
X132858965Y-95130093D01*
X132834814Y-95169504D01*
X132783814Y-95220504D01*
X132729297Y-95248281D01*
X132713810Y-95249500D01*
X132684108Y-95249500D01*
X132628101Y-95264507D01*
X132556809Y-95283609D01*
X132442690Y-95349496D01*
X132349496Y-95442690D01*
X132283609Y-95556809D01*
X132271902Y-95600500D01*
X132249500Y-95684108D01*
X132249500Y-95815892D01*
X132279579Y-95928151D01*
X132283609Y-95943190D01*
X132349496Y-96057309D01*
X132349498Y-96057311D01*
X132349500Y-96057314D01*
X132442686Y-96150500D01*
X132442688Y-96150501D01*
X132442690Y-96150503D01*
X132556810Y-96216390D01*
X132556808Y-96216390D01*
X132556812Y-96216391D01*
X132556814Y-96216392D01*
X132684108Y-96250500D01*
X132684110Y-96250500D01*
X132815890Y-96250500D01*
X132815892Y-96250500D01*
X132943186Y-96216392D01*
X132943188Y-96216390D01*
X132943190Y-96216390D01*
X133057309Y-96150503D01*
X133057309Y-96150502D01*
X133057314Y-96150500D01*
X133150500Y-96057314D01*
X133157033Y-96045999D01*
X133216390Y-95943190D01*
X133216390Y-95943188D01*
X133216392Y-95943186D01*
X133250500Y-95815892D01*
X133250500Y-95786190D01*
X133252968Y-95778592D01*
X133251719Y-95770703D01*
X133262243Y-95750047D01*
X133269407Y-95727999D01*
X133279496Y-95716186D01*
X133366186Y-95629496D01*
X133420703Y-95601719D01*
X133436190Y-95600500D01*
X134296142Y-95600500D01*
X134296144Y-95600500D01*
X134385288Y-95576614D01*
X134415261Y-95559309D01*
X134465212Y-95530470D01*
X134520307Y-95475375D01*
X136350000Y-95475375D01*
X136350000Y-96624999D01*
X136350001Y-96625000D01*
X137074999Y-96625000D01*
X137075000Y-96624999D01*
X137075000Y-95250001D01*
X137074999Y-95250000D01*
X136575375Y-95250000D01*
X136502453Y-95264506D01*
X136502451Y-95264507D01*
X136419762Y-95319758D01*
X136419758Y-95319762D01*
X136364507Y-95402451D01*
X136364506Y-95402453D01*
X136350000Y-95475375D01*
X134520307Y-95475375D01*
X136030469Y-93965212D01*
X136076614Y-93885288D01*
X136082614Y-93862896D01*
X136085638Y-93851613D01*
X136091077Y-93831309D01*
X136100500Y-93796144D01*
X136100500Y-93746689D01*
X136119407Y-93688498D01*
X136154552Y-93658481D01*
X136263342Y-93603050D01*
X136353050Y-93513342D01*
X136361593Y-93496573D01*
X136379795Y-93471519D01*
X136526314Y-93325001D01*
X137075001Y-93325001D01*
X137075001Y-93381485D01*
X137089833Y-93475141D01*
X137089836Y-93475151D01*
X137147358Y-93588043D01*
X137236956Y-93677641D01*
X137349848Y-93735163D01*
X137349852Y-93735164D01*
X137443515Y-93749999D01*
X137937498Y-93749999D01*
X137937500Y-93749998D01*
X137937500Y-93325001D01*
X138187500Y-93325001D01*
X138187500Y-93749998D01*
X138187501Y-93749999D01*
X138681483Y-93749999D01*
X138681485Y-93749998D01*
X138775141Y-93735166D01*
X138775151Y-93735163D01*
X138888043Y-93677641D01*
X138977641Y-93588043D01*
X139035163Y-93475151D01*
X139035164Y-93475147D01*
X139050000Y-93381484D01*
X139050000Y-93325001D01*
X139049999Y-93325000D01*
X138187501Y-93325000D01*
X138187500Y-93325001D01*
X137937500Y-93325001D01*
X137937499Y-93325000D01*
X137075002Y-93325000D01*
X137075001Y-93325001D01*
X136526314Y-93325001D01*
X136905997Y-92945319D01*
X136960513Y-92917542D01*
X137020945Y-92927113D01*
X137064210Y-92970378D01*
X137075000Y-93015323D01*
X137075000Y-93074999D01*
X137075001Y-93075000D01*
X139049998Y-93075000D01*
X139049999Y-93074999D01*
X139049999Y-93018516D01*
X139049998Y-93018514D01*
X139035166Y-92924858D01*
X139035163Y-92924848D01*
X138977641Y-92811956D01*
X138935189Y-92769504D01*
X138924664Y-92748848D01*
X138911038Y-92730093D01*
X138911038Y-92722103D01*
X138907412Y-92714987D01*
X138911038Y-92692092D01*
X138911038Y-92668907D01*
X138915733Y-92662444D01*
X138916983Y-92654555D01*
X138933374Y-92638163D01*
X138947002Y-92619407D01*
X138954599Y-92616938D01*
X138960248Y-92611290D01*
X139005193Y-92600500D01*
X139013812Y-92600500D01*
X139072003Y-92619407D01*
X139083809Y-92629490D01*
X139143517Y-92689198D01*
X139175205Y-92704689D01*
X139248604Y-92740572D01*
X139248605Y-92740572D01*
X139248607Y-92740573D01*
X139316740Y-92750500D01*
X139316743Y-92750500D01*
X140558257Y-92750500D01*
X140558260Y-92750500D01*
X140626393Y-92740573D01*
X140731483Y-92689198D01*
X140814198Y-92606483D01*
X140865573Y-92501393D01*
X140875500Y-92433260D01*
X140875500Y-92066740D01*
X140865573Y-91998607D01*
X140837185Y-91940539D01*
X140828615Y-91879959D01*
X140856122Y-91827058D01*
X141053686Y-91629496D01*
X141060802Y-91625870D01*
X141065498Y-91619407D01*
X141087547Y-91612242D01*
X141108202Y-91601719D01*
X141123689Y-91600500D01*
X141231074Y-91600500D01*
X141289265Y-91619407D01*
X141325229Y-91668907D01*
X141328855Y-91684015D01*
X141339352Y-91750299D01*
X141339354Y-91750304D01*
X141396950Y-91863342D01*
X141486658Y-91953050D01*
X141599696Y-92010646D01*
X141693481Y-92025500D01*
X142306518Y-92025499D01*
X142306520Y-92025499D01*
X142306521Y-92025498D01*
X142363681Y-92016446D01*
X142400299Y-92010647D01*
X142400299Y-92010646D01*
X142400304Y-92010646D01*
X142513342Y-91953050D01*
X142603050Y-91863342D01*
X142660646Y-91750304D01*
X142674474Y-91663000D01*
X142675500Y-91656521D01*
X142675500Y-91587501D01*
X143025000Y-91587501D01*
X143025000Y-91737728D01*
X143027968Y-91769375D01*
X143027970Y-91769384D01*
X143074638Y-91902753D01*
X143074641Y-91902759D01*
X143158546Y-92016446D01*
X143158553Y-92016453D01*
X143272240Y-92100358D01*
X143272246Y-92100361D01*
X143405615Y-92147029D01*
X143405624Y-92147031D01*
X143437271Y-92149999D01*
X143437276Y-92150000D01*
X143624999Y-92150000D01*
X143625000Y-92149999D01*
X143625000Y-91587501D01*
X143875000Y-91587501D01*
X143875000Y-92149999D01*
X143875001Y-92150000D01*
X144062724Y-92150000D01*
X144062728Y-92149999D01*
X144094375Y-92147031D01*
X144094384Y-92147029D01*
X144227753Y-92100361D01*
X144227759Y-92100358D01*
X144341446Y-92016453D01*
X144341453Y-92016446D01*
X144425358Y-91902759D01*
X144425361Y-91902753D01*
X144472029Y-91769384D01*
X144472031Y-91769375D01*
X144474999Y-91737728D01*
X144475000Y-91737723D01*
X144475000Y-91587501D01*
X144474999Y-91587500D01*
X143875001Y-91587500D01*
X143875000Y-91587501D01*
X143625000Y-91587501D01*
X143624999Y-91587500D01*
X143025001Y-91587500D01*
X143025000Y-91587501D01*
X142675500Y-91587501D01*
X142675500Y-91546493D01*
X142675499Y-91193484D01*
X142675498Y-91193479D01*
X142674515Y-91187271D01*
X143025000Y-91187271D01*
X143025000Y-91337499D01*
X143025001Y-91337500D01*
X143624999Y-91337500D01*
X143625000Y-91337499D01*
X143625000Y-90775001D01*
X143875000Y-90775001D01*
X143875000Y-91337499D01*
X143875001Y-91337500D01*
X144474999Y-91337500D01*
X144475000Y-91337499D01*
X144475000Y-91187276D01*
X144474999Y-91187271D01*
X144472031Y-91155624D01*
X144472029Y-91155615D01*
X144425361Y-91022246D01*
X144425358Y-91022240D01*
X144341453Y-90908553D01*
X144341446Y-90908546D01*
X144227759Y-90824641D01*
X144227753Y-90824638D01*
X144094384Y-90777970D01*
X144094375Y-90777968D01*
X144062728Y-90775000D01*
X143875001Y-90775000D01*
X143875000Y-90775001D01*
X143625000Y-90775001D01*
X143624999Y-90775000D01*
X143437271Y-90775000D01*
X143405624Y-90777968D01*
X143405615Y-90777970D01*
X143272246Y-90824638D01*
X143272240Y-90824641D01*
X143158553Y-90908546D01*
X143158546Y-90908553D01*
X143074641Y-91022240D01*
X143074638Y-91022246D01*
X143027970Y-91155615D01*
X143027968Y-91155624D01*
X143025000Y-91187271D01*
X142674515Y-91187271D01*
X142672025Y-91171545D01*
X142660647Y-91099700D01*
X142660646Y-91099698D01*
X142660646Y-91099696D01*
X142603050Y-90986658D01*
X142513342Y-90896950D01*
X142400304Y-90839354D01*
X142400305Y-90839354D01*
X142306522Y-90824500D01*
X141693479Y-90824500D01*
X141693476Y-90824501D01*
X141599700Y-90839352D01*
X141599695Y-90839354D01*
X141524952Y-90877438D01*
X141504795Y-90887709D01*
X141502832Y-90888709D01*
X141457886Y-90899500D01*
X140891355Y-90899500D01*
X140873545Y-90904272D01*
X140873544Y-90904271D01*
X140802215Y-90923384D01*
X140722288Y-90969530D01*
X139971314Y-91720504D01*
X139916797Y-91748281D01*
X139901310Y-91749500D01*
X139316740Y-91749500D01*
X139282673Y-91754463D01*
X139248604Y-91759427D01*
X139143518Y-91810801D01*
X139143517Y-91810801D01*
X139143517Y-91810802D01*
X139083813Y-91870505D01*
X139076698Y-91874130D01*
X139072003Y-91880593D01*
X139049954Y-91887756D01*
X139029299Y-91898281D01*
X139013812Y-91899500D01*
X138935188Y-91899500D01*
X138876997Y-91880593D01*
X138841033Y-91831093D01*
X138841033Y-91769907D01*
X138865182Y-91730498D01*
X138939198Y-91656483D01*
X138990573Y-91551393D01*
X139000500Y-91483260D01*
X139000500Y-91116740D01*
X138990573Y-91048607D01*
X138970331Y-91007202D01*
X138959911Y-90985886D01*
X138939198Y-90943517D01*
X138856483Y-90860802D01*
X138832765Y-90849207D01*
X138751395Y-90809427D01*
X138715950Y-90804263D01*
X138683260Y-90799500D01*
X137441740Y-90799500D01*
X137409050Y-90804263D01*
X137373604Y-90809427D01*
X137268518Y-90860801D01*
X137268517Y-90860801D01*
X137268517Y-90860802D01*
X137185802Y-90943517D01*
X137185801Y-90943518D01*
X137185800Y-90943520D01*
X137185799Y-90943520D01*
X137167937Y-90980058D01*
X137136803Y-91013430D01*
X137138457Y-91015586D01*
X137133311Y-91019533D01*
X136594502Y-91558341D01*
X136539986Y-91586118D01*
X136479554Y-91576547D01*
X136436289Y-91533282D01*
X136425499Y-91488339D01*
X136425499Y-91193482D01*
X136425498Y-91193478D01*
X136425498Y-91193476D01*
X136410647Y-91099700D01*
X136410646Y-91099698D01*
X136410646Y-91099696D01*
X136353050Y-90986658D01*
X136263342Y-90896950D01*
X136263339Y-90896948D01*
X136263340Y-90896948D01*
X136254554Y-90892472D01*
X136211290Y-90849207D01*
X136200500Y-90804263D01*
X136200500Y-90440692D01*
X136200500Y-90440691D01*
X136169799Y-90326114D01*
X136125999Y-90250250D01*
X136110489Y-90223386D01*
X135776614Y-89889511D01*
X135776611Y-89889509D01*
X135776609Y-89889507D01*
X135673890Y-89830202D01*
X135673886Y-89830200D01*
X135649673Y-89823712D01*
X135649673Y-89823713D01*
X135559309Y-89799500D01*
X131940691Y-89799500D01*
X131883402Y-89814850D01*
X131826112Y-89830201D01*
X131782696Y-89855266D01*
X131782697Y-89855267D01*
X131723388Y-89889509D01*
X131389507Y-90223390D01*
X131330200Y-90326112D01*
X131330200Y-90326113D01*
X131330201Y-90326114D01*
X131303986Y-90423951D01*
X131299500Y-90440692D01*
X131299500Y-93522389D01*
X131280593Y-93580580D01*
X131270503Y-93592393D01*
X131070003Y-93792892D01*
X131015487Y-93820669D01*
X130955055Y-93811098D01*
X130929997Y-93792892D01*
X130319507Y-93182404D01*
X130319502Y-93182400D01*
X130216785Y-93123096D01*
X130216782Y-93123095D01*
X130216780Y-93123094D01*
X130185497Y-93114712D01*
X130102202Y-93092393D01*
X130102201Y-93092393D01*
X128009500Y-93092393D01*
X127951309Y-93073486D01*
X127915345Y-93023986D01*
X127910500Y-92993393D01*
X127910500Y-91265327D01*
X127929407Y-91207136D01*
X127954499Y-91183011D01*
X127957595Y-91180942D01*
X127957598Y-91180941D01*
X128129655Y-91065977D01*
X128275977Y-90919655D01*
X128390941Y-90747598D01*
X128470130Y-90556420D01*
X128510500Y-90353465D01*
X128510500Y-90146535D01*
X128470130Y-89943580D01*
X128390941Y-89752402D01*
X128275977Y-89580345D01*
X128129655Y-89434023D01*
X128129651Y-89434020D01*
X128049182Y-89380253D01*
X128949500Y-89380253D01*
X128949500Y-91119746D01*
X128949501Y-91119758D01*
X128961132Y-91178227D01*
X128961134Y-91178233D01*
X128971325Y-91193484D01*
X129005448Y-91244552D01*
X129071769Y-91288867D01*
X129116231Y-91297711D01*
X129130241Y-91300498D01*
X129130246Y-91300498D01*
X129130252Y-91300500D01*
X129130253Y-91300500D01*
X130869747Y-91300500D01*
X130869748Y-91300500D01*
X130928231Y-91288867D01*
X130994552Y-91244552D01*
X131038867Y-91178231D01*
X131050500Y-91119748D01*
X131050500Y-89380252D01*
X131038867Y-89321769D01*
X130994552Y-89255448D01*
X130994548Y-89255445D01*
X130928233Y-89211134D01*
X130928231Y-89211133D01*
X130928228Y-89211132D01*
X130928227Y-89211132D01*
X130869758Y-89199501D01*
X130869748Y-89199500D01*
X129130252Y-89199500D01*
X129130251Y-89199500D01*
X129130241Y-89199501D01*
X129071772Y-89211132D01*
X129071766Y-89211134D01*
X129005451Y-89255445D01*
X129005445Y-89255451D01*
X128961134Y-89321766D01*
X128961132Y-89321772D01*
X128949501Y-89380241D01*
X128949500Y-89380253D01*
X128049182Y-89380253D01*
X127957597Y-89319058D01*
X127766418Y-89239869D01*
X127563467Y-89199500D01*
X127563465Y-89199500D01*
X127356535Y-89199500D01*
X127356532Y-89199500D01*
X127153581Y-89239869D01*
X126962402Y-89319058D01*
X126790348Y-89434020D01*
X126644020Y-89580348D01*
X126529058Y-89752402D01*
X126449869Y-89943581D01*
X126409500Y-90146532D01*
X126409500Y-90353467D01*
X126449869Y-90556418D01*
X126529058Y-90747597D01*
X126633744Y-90904272D01*
X126644023Y-90919655D01*
X126790345Y-91065977D01*
X126962402Y-91180941D01*
X126962404Y-91180942D01*
X126965501Y-91183011D01*
X127003381Y-91231061D01*
X127009500Y-91265327D01*
X127009500Y-92975500D01*
X126990593Y-93033691D01*
X126941093Y-93069655D01*
X126910500Y-93074500D01*
X106917255Y-93074500D01*
X106859064Y-93055593D01*
X106847257Y-93045509D01*
X106753220Y-92951472D01*
X106753217Y-92951470D01*
X106633132Y-92890283D01*
X106633127Y-92890281D01*
X106633126Y-92890281D01*
X106599913Y-92885020D01*
X106533490Y-92874500D01*
X106533488Y-92874500D01*
X105966512Y-92874500D01*
X105966510Y-92874500D01*
X105866874Y-92890281D01*
X105866867Y-92890283D01*
X105746782Y-92951470D01*
X105746780Y-92951471D01*
X105746780Y-92951472D01*
X105652746Y-93045505D01*
X105598232Y-93073281D01*
X105582745Y-93074500D01*
X105167255Y-93074500D01*
X105109064Y-93055593D01*
X105097257Y-93045509D01*
X105003220Y-92951472D01*
X105003217Y-92951470D01*
X104883132Y-92890283D01*
X104883127Y-92890281D01*
X104883126Y-92890281D01*
X104849913Y-92885020D01*
X104783490Y-92874500D01*
X104783488Y-92874500D01*
X104216512Y-92874500D01*
X104216510Y-92874500D01*
X104116874Y-92890281D01*
X104116867Y-92890283D01*
X103996782Y-92951470D01*
X103996780Y-92951471D01*
X103996780Y-92951472D01*
X103902746Y-93045505D01*
X103848232Y-93073281D01*
X103832745Y-93074500D01*
X103417255Y-93074500D01*
X103359064Y-93055593D01*
X103347257Y-93045509D01*
X103253220Y-92951472D01*
X103253217Y-92951470D01*
X103133132Y-92890283D01*
X103133127Y-92890281D01*
X103133126Y-92890281D01*
X103099913Y-92885020D01*
X103033490Y-92874500D01*
X103033488Y-92874500D01*
X102466512Y-92874500D01*
X102466510Y-92874500D01*
X102366874Y-92890281D01*
X102366867Y-92890283D01*
X102246782Y-92951470D01*
X102246780Y-92951471D01*
X102246780Y-92951472D01*
X102152746Y-93045505D01*
X102098232Y-93073281D01*
X102082745Y-93074500D01*
X99831899Y-93074500D01*
X99773708Y-93055593D01*
X99764992Y-93048149D01*
X99763344Y-93046952D01*
X99763342Y-93046950D01*
X99650304Y-92989354D01*
X99650305Y-92989354D01*
X99556522Y-92974500D01*
X98943479Y-92974500D01*
X98943476Y-92974501D01*
X98849700Y-92989352D01*
X98849695Y-92989354D01*
X98736659Y-93046949D01*
X98646949Y-93136659D01*
X98588545Y-93251281D01*
X98545280Y-93294545D01*
X98484848Y-93304116D01*
X98430331Y-93276338D01*
X98407578Y-93240931D01*
X98394061Y-93204689D01*
X98308976Y-93091029D01*
X98308970Y-93091023D01*
X98195310Y-93005938D01*
X98062288Y-92956324D01*
X98062277Y-92956322D01*
X98003469Y-92950000D01*
X97625001Y-92950000D01*
X97625000Y-92950001D01*
X97625000Y-94424999D01*
X97625001Y-94425000D01*
X98003469Y-94425000D01*
X98062277Y-94418677D01*
X98062288Y-94418675D01*
X98195310Y-94369061D01*
X98308970Y-94283976D01*
X98308976Y-94283970D01*
X98394061Y-94170310D01*
X98443675Y-94037288D01*
X98443677Y-94037276D01*
X98445649Y-94018938D01*
X98470667Y-93963101D01*
X98523727Y-93932633D01*
X98584562Y-93939172D01*
X98629935Y-93980220D01*
X98632289Y-93984568D01*
X98646950Y-94013342D01*
X98736658Y-94103050D01*
X98849696Y-94160646D01*
X98943481Y-94175500D01*
X99556518Y-94175499D01*
X99556520Y-94175499D01*
X99556521Y-94175498D01*
X99603411Y-94168072D01*
X99650299Y-94160647D01*
X99650299Y-94160646D01*
X99650304Y-94160646D01*
X99763342Y-94103050D01*
X99853050Y-94013342D01*
X99853051Y-94013339D01*
X99858559Y-94007832D01*
X99860242Y-94009515D01*
X99900399Y-93980344D01*
X99930987Y-93975500D01*
X102082745Y-93975500D01*
X102140936Y-93994407D01*
X102152742Y-94004490D01*
X102246780Y-94098528D01*
X102246782Y-94098529D01*
X102366867Y-94159716D01*
X102366869Y-94159716D01*
X102366874Y-94159719D01*
X102442541Y-94171703D01*
X102466510Y-94175500D01*
X102466512Y-94175500D01*
X103033490Y-94175500D01*
X103054885Y-94172111D01*
X103133126Y-94159719D01*
X103253220Y-94098528D01*
X103347253Y-94004494D01*
X103401768Y-93976719D01*
X103417255Y-93975500D01*
X103832745Y-93975500D01*
X103890936Y-93994407D01*
X103902742Y-94004490D01*
X103996780Y-94098528D01*
X103996782Y-94098529D01*
X104116867Y-94159716D01*
X104116869Y-94159716D01*
X104116874Y-94159719D01*
X104192541Y-94171703D01*
X104216510Y-94175500D01*
X104216512Y-94175500D01*
X104783490Y-94175500D01*
X104807027Y-94171771D01*
X104864630Y-94162648D01*
X104925060Y-94172219D01*
X104968325Y-94215483D01*
X104977897Y-94275915D01*
X104975744Y-94286048D01*
X104974500Y-94290691D01*
X104974500Y-94868100D01*
X104955593Y-94926291D01*
X104945504Y-94938103D01*
X104896951Y-94986656D01*
X104896950Y-94986658D01*
X104839354Y-95099695D01*
X104824500Y-95193477D01*
X104824500Y-95806520D01*
X104824501Y-95806523D01*
X104839352Y-95900299D01*
X104839354Y-95900304D01*
X104896950Y-96013342D01*
X104945505Y-96061897D01*
X104973281Y-96116412D01*
X104974500Y-96131899D01*
X104974500Y-96750500D01*
X104955593Y-96808691D01*
X104906093Y-96844655D01*
X104875500Y-96849500D01*
X104188477Y-96849500D01*
X104130286Y-96830593D01*
X104104477Y-96800375D01*
X104104236Y-96800551D01*
X104102011Y-96797489D01*
X104100269Y-96795449D01*
X104099658Y-96794249D01*
X104005751Y-96700342D01*
X103988537Y-96691571D01*
X103887423Y-96640050D01*
X103887420Y-96640049D01*
X103860012Y-96635708D01*
X103789249Y-96624500D01*
X103789246Y-96624500D01*
X103285754Y-96624500D01*
X103285751Y-96624500D01*
X103214987Y-96635708D01*
X103154555Y-96626137D01*
X103111290Y-96582872D01*
X103100500Y-96537927D01*
X103100500Y-96295229D01*
X103119407Y-96237038D01*
X103168907Y-96201074D01*
X103230093Y-96201074D01*
X103232198Y-96201785D01*
X103290396Y-96222149D01*
X103290395Y-96222149D01*
X103320789Y-96224999D01*
X103450000Y-96224999D01*
X103450000Y-95625001D01*
X103700000Y-95625001D01*
X103700000Y-96224998D01*
X103700001Y-96224999D01*
X103829203Y-96224999D01*
X103859600Y-96222149D01*
X103859602Y-96222149D01*
X103987647Y-96177345D01*
X104096790Y-96096792D01*
X104096792Y-96096790D01*
X104177345Y-95987647D01*
X104222149Y-95859601D01*
X104224999Y-95829211D01*
X104225000Y-95829210D01*
X104225000Y-95625001D01*
X104224999Y-95625000D01*
X103700001Y-95625000D01*
X103700000Y-95625001D01*
X103450000Y-95625001D01*
X103449999Y-95625000D01*
X102925002Y-95625000D01*
X102925001Y-95625001D01*
X102925001Y-95765311D01*
X102906094Y-95823502D01*
X102856594Y-95859466D01*
X102795408Y-95859466D01*
X102755997Y-95835315D01*
X102554495Y-95633813D01*
X102526718Y-95579296D01*
X102525499Y-95563809D01*
X102525499Y-95193482D01*
X102523992Y-95183966D01*
X102523992Y-95183963D01*
X102521905Y-95170788D01*
X102925000Y-95170788D01*
X102925000Y-95374999D01*
X102925001Y-95375000D01*
X103449999Y-95375000D01*
X103450000Y-95374999D01*
X103450000Y-94775001D01*
X103700000Y-94775001D01*
X103700000Y-95374999D01*
X103700001Y-95375000D01*
X104224998Y-95375000D01*
X104224999Y-95374999D01*
X104224999Y-95170796D01*
X104222149Y-95140399D01*
X104222149Y-95140397D01*
X104177345Y-95012352D01*
X104096792Y-94903209D01*
X104096790Y-94903207D01*
X103987647Y-94822654D01*
X103859601Y-94777850D01*
X103829211Y-94775000D01*
X103700001Y-94775000D01*
X103700000Y-94775001D01*
X103450000Y-94775001D01*
X103449999Y-94775000D01*
X103320796Y-94775000D01*
X103290399Y-94777850D01*
X103290397Y-94777850D01*
X103162352Y-94822654D01*
X103053209Y-94903207D01*
X103053207Y-94903209D01*
X102972654Y-95012352D01*
X102927850Y-95140398D01*
X102925000Y-95170788D01*
X102521905Y-95170788D01*
X102510647Y-95099699D01*
X102510646Y-95099697D01*
X102510646Y-95099696D01*
X102453050Y-94986658D01*
X102363342Y-94896950D01*
X102250304Y-94839354D01*
X102250305Y-94839354D01*
X102156522Y-94824500D01*
X101693479Y-94824500D01*
X101693476Y-94824501D01*
X101599700Y-94839352D01*
X101599695Y-94839354D01*
X101486659Y-94896949D01*
X101396949Y-94986659D01*
X101339354Y-95099695D01*
X101324500Y-95193477D01*
X101324500Y-95806520D01*
X101324501Y-95806523D01*
X101339352Y-95900299D01*
X101339354Y-95900304D01*
X101396950Y-96013342D01*
X101486658Y-96103050D01*
X101599696Y-96160646D01*
X101693481Y-96175500D01*
X102063809Y-96175499D01*
X102122000Y-96194406D01*
X102133813Y-96204495D01*
X102370504Y-96441186D01*
X102374130Y-96448303D01*
X102380593Y-96452999D01*
X102387756Y-96475047D01*
X102398281Y-96495703D01*
X102399500Y-96511190D01*
X102399500Y-96537927D01*
X102380593Y-96596118D01*
X102331093Y-96632082D01*
X102285013Y-96635708D01*
X102214249Y-96624500D01*
X102214246Y-96624500D01*
X101710754Y-96624500D01*
X101710751Y-96624500D01*
X101612580Y-96640049D01*
X101612576Y-96640050D01*
X101494250Y-96700341D01*
X101400341Y-96794250D01*
X101340050Y-96912576D01*
X101340049Y-96912580D01*
X101323891Y-97014596D01*
X101322177Y-97014324D01*
X101301303Y-97064770D01*
X101249145Y-97096757D01*
X101226001Y-97099500D01*
X100769000Y-97099500D01*
X100710809Y-97080593D01*
X100674845Y-97031093D01*
X100670000Y-97000500D01*
X100670000Y-96875001D01*
X100669999Y-96875000D01*
X99820001Y-96875000D01*
X99820000Y-96875001D01*
X99820000Y-96950500D01*
X99815155Y-96965411D01*
X99815155Y-96981093D01*
X99805938Y-96993778D01*
X99801093Y-97008691D01*
X99788407Y-97017907D01*
X99779191Y-97030593D01*
X99764278Y-97035438D01*
X99751593Y-97044655D01*
X99721000Y-97049500D01*
X99669000Y-97049500D01*
X99610809Y-97030593D01*
X99574845Y-96981093D01*
X99570000Y-96950500D01*
X99570000Y-96875001D01*
X99569999Y-96875000D01*
X98836011Y-96875000D01*
X98816325Y-96868603D01*
X98795745Y-96866441D01*
X98787883Y-96859362D01*
X98777820Y-96856093D01*
X98750275Y-96825501D01*
X98743099Y-96813072D01*
X98720251Y-96773499D01*
X98707530Y-96713653D01*
X98732416Y-96657757D01*
X98785404Y-96627164D01*
X98805988Y-96625000D01*
X100669999Y-96625000D01*
X100670000Y-96624999D01*
X100670000Y-96425377D01*
X100669999Y-96425375D01*
X100655493Y-96352453D01*
X100655492Y-96352451D01*
X100600241Y-96269762D01*
X100600237Y-96269758D01*
X100517548Y-96214507D01*
X100517546Y-96214506D01*
X100444624Y-96200000D01*
X100069780Y-96200000D01*
X100011589Y-96181093D01*
X99975625Y-96131593D01*
X99975625Y-96070407D01*
X99987464Y-96045999D01*
X99994641Y-96035257D01*
X100051178Y-95898764D01*
X100069829Y-95805000D01*
X99604242Y-95805000D01*
X99609556Y-95795796D01*
X99630000Y-95719496D01*
X99630000Y-95640504D01*
X99609556Y-95564204D01*
X99604242Y-95555000D01*
X100069828Y-95555000D01*
X100069828Y-95554999D01*
X100051178Y-95461235D01*
X99994641Y-95324742D01*
X99912565Y-95201906D01*
X99808093Y-95097434D01*
X99685257Y-95015358D01*
X99548770Y-94958823D01*
X99548764Y-94958821D01*
X99403871Y-94930000D01*
X98905001Y-94930000D01*
X98905000Y-94930001D01*
X98905000Y-95380000D01*
X98655000Y-95380000D01*
X98655000Y-94930001D01*
X98654999Y-94930000D01*
X98156128Y-94930000D01*
X98011235Y-94958821D01*
X98011229Y-94958823D01*
X97874742Y-95015358D01*
X97751906Y-95097434D01*
X97647434Y-95201906D01*
X97565358Y-95324742D01*
X97508821Y-95461235D01*
X97490171Y-95554999D01*
X97490172Y-95555000D01*
X97955758Y-95555000D01*
X97950444Y-95564204D01*
X97930000Y-95640504D01*
X97930000Y-95719496D01*
X97950444Y-95795796D01*
X97955758Y-95805000D01*
X97490171Y-95805000D01*
X97508821Y-95898764D01*
X97565358Y-96035257D01*
X97647434Y-96158093D01*
X97751906Y-96262565D01*
X97874742Y-96344641D01*
X98009455Y-96400441D01*
X98055980Y-96440178D01*
X98070264Y-96499672D01*
X98046849Y-96556200D01*
X98021070Y-96577641D01*
X97896637Y-96649483D01*
X97789481Y-96756639D01*
X97713720Y-96887860D01*
X97706942Y-96913156D01*
X97674500Y-97034234D01*
X97674500Y-97185766D01*
X97696721Y-97268696D01*
X97713720Y-97332139D01*
X97782345Y-97451000D01*
X97795067Y-97510848D01*
X97770180Y-97566744D01*
X97717192Y-97597337D01*
X97696609Y-97599500D01*
X96302727Y-97599500D01*
X96197273Y-97599500D01*
X96095412Y-97626793D01*
X96095411Y-97626793D01*
X96095409Y-97626794D01*
X96076990Y-97637429D01*
X96054351Y-97650500D01*
X96035444Y-97661416D01*
X96004086Y-97679520D01*
X95929519Y-97754086D01*
X95929520Y-97754087D01*
X95429516Y-98254091D01*
X95376794Y-98345407D01*
X95368146Y-98377685D01*
X95349500Y-98447273D01*
X95349500Y-101197273D01*
X95349500Y-101302727D01*
X95370070Y-101379496D01*
X95376794Y-101404592D01*
X95429516Y-101495908D01*
X95429518Y-101495910D01*
X95429520Y-101495913D01*
X96293518Y-102359910D01*
X96293520Y-102359913D01*
X96368087Y-102434480D01*
X96379699Y-102441184D01*
X96416135Y-102462221D01*
X96416136Y-102462221D01*
X96459413Y-102487207D01*
X96561274Y-102514501D01*
X96561276Y-102514501D01*
X96672790Y-102514501D01*
X96672806Y-102514500D01*
X97630791Y-102514500D01*
X97688982Y-102533407D01*
X97724946Y-102582907D01*
X97724946Y-102644093D01*
X97716527Y-102663000D01*
X97713720Y-102667860D01*
X97707633Y-102690578D01*
X97674500Y-102814234D01*
X97674500Y-102965766D01*
X97709086Y-103094847D01*
X97713720Y-103112139D01*
X97789481Y-103243360D01*
X97789483Y-103243362D01*
X97789485Y-103243365D01*
X97896635Y-103350515D01*
X97896637Y-103350516D01*
X97896639Y-103350518D01*
X98021069Y-103422358D01*
X98062010Y-103467827D01*
X98068406Y-103528677D01*
X98037813Y-103581665D01*
X98009455Y-103599558D01*
X97874742Y-103655358D01*
X97751906Y-103737434D01*
X97647434Y-103841906D01*
X97565358Y-103964742D01*
X97508821Y-104101235D01*
X97490171Y-104194999D01*
X97490172Y-104195000D01*
X97955758Y-104195000D01*
X97950444Y-104204204D01*
X97930000Y-104280504D01*
X97930000Y-104359496D01*
X97950444Y-104435796D01*
X97955758Y-104445000D01*
X97490171Y-104445000D01*
X97508821Y-104538764D01*
X97565358Y-104675257D01*
X97647434Y-104798093D01*
X97751906Y-104902565D01*
X97874742Y-104984641D01*
X98011229Y-105041176D01*
X98011235Y-105041178D01*
X98156128Y-105069999D01*
X98156132Y-105070000D01*
X98654999Y-105070000D01*
X98655000Y-105069999D01*
X98655000Y-104620000D01*
X98905000Y-104620000D01*
X98905000Y-105069999D01*
X98905001Y-105070000D01*
X99403868Y-105070000D01*
X99403871Y-105069999D01*
X99548764Y-105041178D01*
X99548770Y-105041176D01*
X99685257Y-104984641D01*
X99808093Y-104902565D01*
X99912565Y-104798093D01*
X99994641Y-104675257D01*
X100051178Y-104538764D01*
X100069829Y-104445000D01*
X99604242Y-104445000D01*
X99609556Y-104435796D01*
X99630000Y-104359496D01*
X99630000Y-104280504D01*
X99609556Y-104204204D01*
X99604242Y-104195000D01*
X100069828Y-104195000D01*
X100069828Y-104194999D01*
X100051178Y-104101235D01*
X99994641Y-103964742D01*
X99987464Y-103954001D01*
X99970856Y-103895113D01*
X99992034Y-103837710D01*
X100042907Y-103803717D01*
X100069780Y-103800000D01*
X100444623Y-103800000D01*
X100444624Y-103799999D01*
X100517546Y-103785493D01*
X100517548Y-103785492D01*
X100600237Y-103730241D01*
X100600241Y-103730237D01*
X100655492Y-103647548D01*
X100655493Y-103647546D01*
X100669999Y-103574624D01*
X100670000Y-103574622D01*
X100670000Y-103375001D01*
X100669999Y-103375000D01*
X99820001Y-103375000D01*
X99820000Y-103375001D01*
X99820000Y-103806000D01*
X99815155Y-103820911D01*
X99815155Y-103836593D01*
X99805938Y-103849278D01*
X99801093Y-103864191D01*
X99788407Y-103873407D01*
X99779191Y-103886093D01*
X99764278Y-103890938D01*
X99751593Y-103900155D01*
X99721000Y-103905000D01*
X99669000Y-103905000D01*
X99610809Y-103886093D01*
X99574845Y-103836593D01*
X99570000Y-103806000D01*
X99570000Y-103375001D01*
X99569999Y-103375000D01*
X98805988Y-103375000D01*
X98795924Y-103371730D01*
X98785404Y-103372836D01*
X98767483Y-103362489D01*
X98747797Y-103356093D01*
X98741577Y-103347532D01*
X98732416Y-103342243D01*
X98723999Y-103323338D01*
X98711833Y-103306593D01*
X98711833Y-103296011D01*
X98707530Y-103286347D01*
X98711833Y-103266104D01*
X98711833Y-103245407D01*
X98720249Y-103226503D01*
X98750275Y-103174499D01*
X98795745Y-103133559D01*
X98836011Y-103125000D01*
X100669999Y-103125000D01*
X100670000Y-103124999D01*
X100670000Y-102925377D01*
X100669999Y-102925375D01*
X100655493Y-102852453D01*
X100655493Y-102852452D01*
X100637184Y-102825050D01*
X100620500Y-102770049D01*
X100620500Y-102199500D01*
X100639407Y-102141309D01*
X100688907Y-102105345D01*
X100719500Y-102100500D01*
X101063810Y-102100500D01*
X101122001Y-102119407D01*
X101133814Y-102129496D01*
X101545504Y-102541186D01*
X101573281Y-102595703D01*
X101574500Y-102611190D01*
X101574500Y-103791525D01*
X101555593Y-103849716D01*
X101520446Y-103879734D01*
X101486659Y-103896949D01*
X101396949Y-103986659D01*
X101339354Y-104099695D01*
X101324500Y-104193477D01*
X101324500Y-104806520D01*
X101324501Y-104806523D01*
X101339352Y-104900299D01*
X101339354Y-104900304D01*
X101396950Y-105013342D01*
X101486658Y-105103050D01*
X101599696Y-105160646D01*
X101693481Y-105175500D01*
X102156518Y-105175499D01*
X102156520Y-105175499D01*
X102156521Y-105175498D01*
X102203411Y-105168072D01*
X102250299Y-105160647D01*
X102250299Y-105160646D01*
X102250304Y-105160646D01*
X102363342Y-105103050D01*
X102453050Y-105013342D01*
X102510646Y-104900304D01*
X102523018Y-104822190D01*
X102525500Y-104806521D01*
X102525500Y-104625001D01*
X102925001Y-104625001D01*
X102925001Y-104829203D01*
X102927850Y-104859600D01*
X102927850Y-104859602D01*
X102972654Y-104987647D01*
X103053207Y-105096790D01*
X103053209Y-105096792D01*
X103162352Y-105177345D01*
X103290398Y-105222149D01*
X103320789Y-105224999D01*
X103450000Y-105224999D01*
X103450000Y-104625001D01*
X103700000Y-104625001D01*
X103700000Y-105224998D01*
X103700001Y-105224999D01*
X103829203Y-105224999D01*
X103859600Y-105222149D01*
X103859602Y-105222149D01*
X103987647Y-105177345D01*
X104096790Y-105096792D01*
X104096792Y-105096790D01*
X104177345Y-104987647D01*
X104222149Y-104859601D01*
X104224999Y-104829211D01*
X104225000Y-104829210D01*
X104225000Y-104625001D01*
X104525001Y-104625001D01*
X104525001Y-104795436D01*
X104531081Y-104852004D01*
X104531082Y-104852006D01*
X104578814Y-104979983D01*
X104660668Y-105089327D01*
X104660672Y-105089331D01*
X104770016Y-105171185D01*
X104897990Y-105218916D01*
X104897998Y-105218918D01*
X104954566Y-105224999D01*
X105100000Y-105224999D01*
X105100000Y-104625001D01*
X105350000Y-104625001D01*
X105350000Y-105224998D01*
X105350001Y-105224999D01*
X105495431Y-105224999D01*
X105495436Y-105224998D01*
X105552004Y-105218918D01*
X105552006Y-105218917D01*
X105679983Y-105171185D01*
X105789327Y-105089331D01*
X105789331Y-105089327D01*
X105871185Y-104979983D01*
X105918916Y-104852009D01*
X105918918Y-104852001D01*
X105925000Y-104795434D01*
X105925000Y-104625001D01*
X105924999Y-104625000D01*
X105350001Y-104625000D01*
X105350000Y-104625001D01*
X105100000Y-104625001D01*
X105099999Y-104625000D01*
X104525002Y-104625000D01*
X104525001Y-104625001D01*
X104225000Y-104625001D01*
X104224999Y-104625000D01*
X103700001Y-104625000D01*
X103700000Y-104625001D01*
X103450000Y-104625001D01*
X103449999Y-104625000D01*
X102925002Y-104625000D01*
X102925001Y-104625001D01*
X102525500Y-104625001D01*
X102525500Y-104583993D01*
X102525499Y-104193482D01*
X102523992Y-104183966D01*
X102523992Y-104183963D01*
X102521905Y-104170788D01*
X102925000Y-104170788D01*
X102925000Y-104374999D01*
X102925001Y-104375000D01*
X103449999Y-104375000D01*
X103450000Y-104374999D01*
X103450000Y-103775001D01*
X103700000Y-103775001D01*
X103700000Y-104374999D01*
X103700001Y-104375000D01*
X104224998Y-104375000D01*
X104224999Y-104374999D01*
X104224999Y-104204565D01*
X104525000Y-104204565D01*
X104525000Y-104374999D01*
X104525001Y-104375000D01*
X105099999Y-104375000D01*
X105100000Y-104374999D01*
X105100000Y-103775001D01*
X105350000Y-103775001D01*
X105350000Y-104374999D01*
X105350001Y-104375000D01*
X105924998Y-104375000D01*
X105924999Y-104374999D01*
X105924999Y-104204569D01*
X105924998Y-104204563D01*
X105918918Y-104147995D01*
X105918917Y-104147993D01*
X105871185Y-104020016D01*
X105789331Y-103910672D01*
X105789327Y-103910668D01*
X105679983Y-103828814D01*
X105552009Y-103781083D01*
X105552001Y-103781081D01*
X105495434Y-103775000D01*
X105350001Y-103775000D01*
X105350000Y-103775001D01*
X105100000Y-103775001D01*
X105099999Y-103775000D01*
X104954569Y-103775000D01*
X104954563Y-103775001D01*
X104897995Y-103781081D01*
X104897993Y-103781082D01*
X104770016Y-103828814D01*
X104660672Y-103910668D01*
X104660668Y-103910672D01*
X104578814Y-104020016D01*
X104531083Y-104147990D01*
X104531081Y-104147998D01*
X104525000Y-104204565D01*
X104224999Y-104204565D01*
X104224999Y-104170796D01*
X104222149Y-104140399D01*
X104222149Y-104140397D01*
X104177345Y-104012352D01*
X104096792Y-103903209D01*
X104096790Y-103903207D01*
X103987647Y-103822654D01*
X103859601Y-103777850D01*
X103829211Y-103775000D01*
X103700001Y-103775000D01*
X103700000Y-103775001D01*
X103450000Y-103775001D01*
X103449999Y-103775000D01*
X103320796Y-103775000D01*
X103290399Y-103777850D01*
X103290397Y-103777850D01*
X103162352Y-103822654D01*
X103053209Y-103903207D01*
X103053207Y-103903209D01*
X102972654Y-104012352D01*
X102927850Y-104140398D01*
X102925000Y-104170788D01*
X102521905Y-104170788D01*
X102510647Y-104099699D01*
X102510646Y-104099697D01*
X102510646Y-104099696D01*
X102453050Y-103986658D01*
X102363342Y-103896950D01*
X102329554Y-103879734D01*
X102286290Y-103836469D01*
X102275500Y-103791525D01*
X102275500Y-102378857D01*
X102256107Y-102306482D01*
X102251614Y-102289712D01*
X102239418Y-102268588D01*
X102235834Y-102262381D01*
X102207132Y-102212667D01*
X102205470Y-102209788D01*
X101615183Y-101619501D01*
X101587408Y-101564987D01*
X101596979Y-101504555D01*
X101640244Y-101461290D01*
X101685189Y-101450500D01*
X102408257Y-101450500D01*
X102408260Y-101450500D01*
X102476393Y-101440573D01*
X102581483Y-101389198D01*
X102664198Y-101306483D01*
X102715573Y-101201393D01*
X102725500Y-101133260D01*
X102725500Y-100766740D01*
X102715573Y-100698607D01*
X102709892Y-100686987D01*
X102671973Y-100609421D01*
X102664198Y-100593517D01*
X102650684Y-100580003D01*
X102622909Y-100525489D01*
X102632480Y-100465057D01*
X102650687Y-100439998D01*
X102702639Y-100388046D01*
X102702640Y-100388044D01*
X102760163Y-100275151D01*
X102760164Y-100275147D01*
X102775000Y-100181484D01*
X102775000Y-100125001D01*
X102774999Y-100125000D01*
X100950002Y-100125000D01*
X100950001Y-100125001D01*
X100950001Y-100181485D01*
X100966053Y-100282844D01*
X100963134Y-100283306D01*
X100963132Y-100297734D01*
X100963132Y-100331093D01*
X100963126Y-100331101D01*
X100963126Y-100331108D01*
X100949536Y-100349806D01*
X100927168Y-100380593D01*
X100927158Y-100380596D01*
X100927154Y-100380602D01*
X100868977Y-100399500D01*
X100719500Y-100399500D01*
X100661309Y-100380593D01*
X100625345Y-100331093D01*
X100620500Y-100300500D01*
X100620500Y-100080253D01*
X100620498Y-100080241D01*
X100608379Y-100019315D01*
X100608379Y-99980685D01*
X100620498Y-99919758D01*
X100620500Y-99919746D01*
X100620500Y-99699500D01*
X100625345Y-99684588D01*
X100625345Y-99668907D01*
X100634561Y-99656221D01*
X100639407Y-99641309D01*
X100652092Y-99632092D01*
X100661309Y-99619407D01*
X100676221Y-99614561D01*
X100688907Y-99605345D01*
X100719500Y-99600500D01*
X100868978Y-99600500D01*
X100927169Y-99619407D01*
X100963133Y-99668907D01*
X100963133Y-99716694D01*
X100966054Y-99717157D01*
X100950000Y-99818515D01*
X100950000Y-99874999D01*
X100950001Y-99875000D01*
X102774998Y-99875000D01*
X102774999Y-99874999D01*
X102774999Y-99818516D01*
X102774998Y-99818514D01*
X102760166Y-99724858D01*
X102760163Y-99724848D01*
X102702641Y-99611956D01*
X102650686Y-99560001D01*
X102622909Y-99505484D01*
X102632480Y-99445052D01*
X102650685Y-99419995D01*
X102664198Y-99406483D01*
X102715573Y-99301393D01*
X102725500Y-99233260D01*
X102725500Y-98866740D01*
X102715573Y-98798607D01*
X102708387Y-98783908D01*
X102664198Y-98693517D01*
X102660018Y-98687663D01*
X102641590Y-98629319D01*
X102660976Y-98571286D01*
X102691087Y-98544398D01*
X102715212Y-98530470D01*
X103030469Y-98215212D01*
X103076614Y-98135288D01*
X103076627Y-98135240D01*
X103100500Y-98046144D01*
X103100500Y-98046142D01*
X103102179Y-98039876D01*
X103104204Y-98040418D01*
X103126462Y-97993742D01*
X103180229Y-97964540D01*
X103213769Y-97964099D01*
X103285751Y-97975500D01*
X103285754Y-97975500D01*
X103789249Y-97975500D01*
X103817803Y-97970976D01*
X103887420Y-97959951D01*
X104005751Y-97899658D01*
X104099658Y-97805751D01*
X104100269Y-97804550D01*
X104101220Y-97803599D01*
X104104236Y-97799449D01*
X104104893Y-97799926D01*
X104143536Y-97761288D01*
X104188477Y-97750500D01*
X105440691Y-97750500D01*
X105672389Y-97750500D01*
X105730580Y-97769407D01*
X105742393Y-97779496D01*
X106020504Y-98057607D01*
X106048281Y-98112124D01*
X106049500Y-98127611D01*
X106049500Y-98510117D01*
X106030593Y-98568308D01*
X105981093Y-98604272D01*
X105919907Y-98604272D01*
X105901000Y-98595854D01*
X105793187Y-98533608D01*
X105749002Y-98521769D01*
X105665892Y-98499500D01*
X105534108Y-98499500D01*
X105456200Y-98520375D01*
X105406809Y-98533609D01*
X105292690Y-98599496D01*
X105292689Y-98599497D01*
X105292686Y-98599499D01*
X105292686Y-98599500D01*
X105221680Y-98670505D01*
X105214565Y-98674130D01*
X105209870Y-98680593D01*
X105187821Y-98687756D01*
X105167166Y-98698281D01*
X105151679Y-98699500D01*
X104986188Y-98699500D01*
X104927997Y-98680593D01*
X104916190Y-98670509D01*
X104856483Y-98610802D01*
X104843126Y-98604272D01*
X104751395Y-98559427D01*
X104724139Y-98555456D01*
X104683260Y-98549500D01*
X103591740Y-98549500D01*
X103557673Y-98554463D01*
X103523604Y-98559427D01*
X103418518Y-98610801D01*
X103335801Y-98693518D01*
X103284427Y-98798604D01*
X103283495Y-98805002D01*
X103274500Y-98866740D01*
X103274500Y-99233260D01*
X103277624Y-99254700D01*
X103284427Y-99301395D01*
X103328175Y-99390881D01*
X103335802Y-99406483D01*
X103384317Y-99454998D01*
X103412093Y-99509513D01*
X103402522Y-99569945D01*
X103384318Y-99595000D01*
X103359912Y-99619407D01*
X103335801Y-99643518D01*
X103284427Y-99748604D01*
X103280111Y-99778230D01*
X103274500Y-99816740D01*
X103274500Y-100183260D01*
X103279785Y-100219530D01*
X103284427Y-100251395D01*
X103325242Y-100334883D01*
X103335802Y-100356483D01*
X103384317Y-100404998D01*
X103412093Y-100459513D01*
X103402522Y-100519945D01*
X103384318Y-100545000D01*
X103353021Y-100576298D01*
X103335801Y-100593518D01*
X103284427Y-100698604D01*
X103284427Y-100698607D01*
X103274500Y-100766740D01*
X103274500Y-101133260D01*
X103279005Y-101164178D01*
X103284427Y-101201395D01*
X103335078Y-101305002D01*
X103335802Y-101306483D01*
X103418517Y-101389198D01*
X103472285Y-101415483D01*
X103523604Y-101440572D01*
X103523605Y-101440572D01*
X103523607Y-101440573D01*
X103591740Y-101450500D01*
X103591743Y-101450500D01*
X104683257Y-101450500D01*
X104683260Y-101450500D01*
X104751393Y-101440573D01*
X104845218Y-101394704D01*
X104905799Y-101386133D01*
X104938198Y-101397909D01*
X105056810Y-101466390D01*
X105056808Y-101466390D01*
X105056812Y-101466391D01*
X105056814Y-101466392D01*
X105184108Y-101500500D01*
X105184110Y-101500500D01*
X105315890Y-101500500D01*
X105315892Y-101500500D01*
X105424879Y-101471297D01*
X105485978Y-101474500D01*
X105533528Y-101513005D01*
X105549500Y-101566924D01*
X105549500Y-101696143D01*
X105568947Y-101768723D01*
X105570211Y-101773440D01*
X105573386Y-101785288D01*
X105619530Y-101865212D01*
X106534788Y-102780470D01*
X106608811Y-102823207D01*
X106614712Y-102826614D01*
X106703856Y-102850500D01*
X106703857Y-102850500D01*
X106742769Y-102850500D01*
X106753978Y-102853144D01*
X106770762Y-102863338D01*
X106789441Y-102869407D01*
X106796300Y-102878848D01*
X106806274Y-102884906D01*
X106813860Y-102903017D01*
X106825405Y-102918907D01*
X106825405Y-102930577D01*
X106829913Y-102941340D01*
X106825405Y-102960451D01*
X106825405Y-102980093D01*
X106816987Y-102999000D01*
X106783608Y-103056812D01*
X106760869Y-103141676D01*
X106749500Y-103184108D01*
X106749500Y-103315892D01*
X106773262Y-103404572D01*
X106783609Y-103443190D01*
X106849496Y-103557309D01*
X106849498Y-103557311D01*
X106849500Y-103557314D01*
X106870505Y-103578319D01*
X106874130Y-103585434D01*
X106880593Y-103590130D01*
X106887756Y-103612178D01*
X106898281Y-103632834D01*
X106899500Y-103648321D01*
X106899500Y-103725500D01*
X106880593Y-103783691D01*
X106831093Y-103819655D01*
X106800500Y-103824500D01*
X106516510Y-103824500D01*
X106416874Y-103840281D01*
X106416867Y-103840283D01*
X106296782Y-103901470D01*
X106201470Y-103996782D01*
X106140283Y-104116867D01*
X106140281Y-104116874D01*
X106124500Y-104216510D01*
X106124500Y-104783489D01*
X106140281Y-104883125D01*
X106140283Y-104883132D01*
X106193537Y-104987647D01*
X106201472Y-105003220D01*
X106296780Y-105098528D01*
X106296782Y-105098529D01*
X106416867Y-105159716D01*
X106416869Y-105159716D01*
X106416874Y-105159719D01*
X106489268Y-105171185D01*
X106516510Y-105175500D01*
X106516512Y-105175500D01*
X107033490Y-105175500D01*
X107054885Y-105172111D01*
X107133126Y-105159719D01*
X107253220Y-105098528D01*
X107348528Y-105003220D01*
X107385702Y-104930262D01*
X107398801Y-104904555D01*
X107442065Y-104861290D01*
X107487010Y-104850500D01*
X107753310Y-104850500D01*
X107811501Y-104869407D01*
X107841519Y-104904554D01*
X107883858Y-104987647D01*
X107896950Y-105013342D01*
X107986658Y-105103050D01*
X108099696Y-105160646D01*
X108193481Y-105175500D01*
X108656518Y-105175499D01*
X108656520Y-105175499D01*
X108656521Y-105175498D01*
X108703411Y-105168072D01*
X108750299Y-105160647D01*
X108750299Y-105160646D01*
X108750304Y-105160646D01*
X108863342Y-105103050D01*
X108953050Y-105013342D01*
X109010646Y-104900304D01*
X109025500Y-104806519D01*
X109025499Y-104193482D01*
X109018295Y-104147993D01*
X109010647Y-104099700D01*
X109010646Y-104099698D01*
X109010646Y-104099696D01*
X108953050Y-103986658D01*
X108863342Y-103896950D01*
X108750304Y-103839354D01*
X108750305Y-103839354D01*
X108656522Y-103824500D01*
X108193479Y-103824500D01*
X108193476Y-103824501D01*
X108099700Y-103839352D01*
X108099695Y-103839354D01*
X107986659Y-103896949D01*
X107896949Y-103986659D01*
X107841519Y-104095446D01*
X107825129Y-104111835D01*
X107811501Y-104130593D01*
X107803902Y-104133061D01*
X107798254Y-104138710D01*
X107753310Y-104149500D01*
X107699500Y-104149500D01*
X107641309Y-104130593D01*
X107605345Y-104081093D01*
X107600500Y-104050500D01*
X107600500Y-103648321D01*
X107619407Y-103590130D01*
X107629490Y-103578323D01*
X107650500Y-103557314D01*
X107674722Y-103515361D01*
X107716390Y-103443190D01*
X107716390Y-103443188D01*
X107716392Y-103443186D01*
X107750500Y-103315892D01*
X107750500Y-103184108D01*
X107716392Y-103056814D01*
X107713017Y-103050969D01*
X107683013Y-102999000D01*
X107670292Y-102939152D01*
X107695179Y-102883256D01*
X107748167Y-102852663D01*
X107768750Y-102850500D01*
X108796142Y-102850500D01*
X108796144Y-102850500D01*
X108885288Y-102826614D01*
X108891183Y-102823210D01*
X108891188Y-102823209D01*
X108891188Y-102823208D01*
X108913179Y-102810510D01*
X108965212Y-102780470D01*
X109204997Y-102540684D01*
X109218965Y-102533567D01*
X109230054Y-102522479D01*
X109245542Y-102520026D01*
X109259512Y-102512908D01*
X109274999Y-102515360D01*
X109290486Y-102512908D01*
X109304456Y-102520026D01*
X109319944Y-102522479D01*
X109345003Y-102540685D01*
X109395504Y-102591186D01*
X109423281Y-102645703D01*
X109424500Y-102661189D01*
X109424500Y-102813397D01*
X109424501Y-102813404D01*
X109439759Y-102890116D01*
X109439760Y-102890118D01*
X109490307Y-102965766D01*
X109497888Y-102977112D01*
X109584883Y-103035240D01*
X109661599Y-103050500D01*
X109800499Y-103050499D01*
X109858690Y-103069406D01*
X109894654Y-103118906D01*
X109899500Y-103149499D01*
X109899500Y-103731073D01*
X109880593Y-103789264D01*
X109831093Y-103825228D01*
X109815987Y-103828854D01*
X109749699Y-103839352D01*
X109749695Y-103839354D01*
X109636659Y-103896949D01*
X109546949Y-103986659D01*
X109489354Y-104099695D01*
X109474500Y-104193477D01*
X109474500Y-104806520D01*
X109474501Y-104806523D01*
X109489352Y-104900299D01*
X109489354Y-104900304D01*
X109546950Y-105013342D01*
X109636658Y-105103050D01*
X109749696Y-105160646D01*
X109843481Y-105175500D01*
X110306518Y-105175499D01*
X110306520Y-105175499D01*
X110306521Y-105175498D01*
X110353411Y-105168072D01*
X110400299Y-105160647D01*
X110400299Y-105160646D01*
X110400304Y-105160646D01*
X110513342Y-105103050D01*
X110603050Y-105013342D01*
X110660646Y-104900304D01*
X110675500Y-104806519D01*
X110675499Y-104193482D01*
X110668295Y-104147993D01*
X110660647Y-104099700D01*
X110660646Y-104099698D01*
X110660646Y-104099696D01*
X110611290Y-104002831D01*
X110600500Y-103957886D01*
X110600500Y-103184311D01*
X116182247Y-103184311D01*
X116182247Y-103184316D01*
X116201684Y-103319508D01*
X116201685Y-103319511D01*
X116258426Y-103443758D01*
X116258428Y-103443761D01*
X116294123Y-103488055D01*
X116414645Y-103608577D01*
X116821230Y-103201992D01*
X116821229Y-103201991D01*
X117174785Y-103201991D01*
X117599048Y-103626254D01*
X117701883Y-103523420D01*
X117737589Y-103479113D01*
X117794330Y-103354866D01*
X117794331Y-103354863D01*
X117813769Y-103219672D01*
X117813769Y-103219667D01*
X117794331Y-103084475D01*
X117794330Y-103084472D01*
X117737589Y-102960225D01*
X117737587Y-102960222D01*
X117701892Y-102915928D01*
X117581370Y-102795406D01*
X117174785Y-103201991D01*
X116821229Y-103201991D01*
X116396966Y-102777728D01*
X116294132Y-102880563D01*
X116258426Y-102924870D01*
X116201685Y-103049117D01*
X116201684Y-103049120D01*
X116182247Y-103184311D01*
X110600500Y-103184311D01*
X110600500Y-103149499D01*
X110619407Y-103091308D01*
X110668907Y-103055344D01*
X110699495Y-103050499D01*
X110838400Y-103050499D01*
X110915117Y-103035240D01*
X110944998Y-103015273D01*
X111003886Y-102998665D01*
X111055002Y-103015274D01*
X111084879Y-103035238D01*
X111084880Y-103035238D01*
X111084883Y-103035240D01*
X111161599Y-103050500D01*
X111338400Y-103050499D01*
X111415117Y-103035240D01*
X111444998Y-103015273D01*
X111503886Y-102998665D01*
X111555002Y-103015274D01*
X111584879Y-103035238D01*
X111584880Y-103035238D01*
X111584883Y-103035240D01*
X111661599Y-103050500D01*
X111838400Y-103050499D01*
X111915117Y-103035240D01*
X111944998Y-103015273D01*
X112003886Y-102998665D01*
X112055002Y-103015274D01*
X112084879Y-103035238D01*
X112084880Y-103035238D01*
X112084883Y-103035240D01*
X112161599Y-103050500D01*
X112338400Y-103050499D01*
X112415117Y-103035240D01*
X112444998Y-103015273D01*
X112503886Y-102998665D01*
X112555002Y-103015274D01*
X112584879Y-103035238D01*
X112584880Y-103035238D01*
X112584883Y-103035240D01*
X112661599Y-103050500D01*
X112838400Y-103050499D01*
X112915117Y-103035240D01*
X113002112Y-102977112D01*
X113060240Y-102890117D01*
X113075500Y-102813401D01*
X113075499Y-102600951D01*
X116573745Y-102600951D01*
X116998008Y-103025214D01*
X117404593Y-102618628D01*
X117284075Y-102498111D01*
X117239776Y-102462411D01*
X117115527Y-102405669D01*
X117115524Y-102405668D01*
X116980333Y-102386231D01*
X116980327Y-102386231D01*
X116845136Y-102405668D01*
X116845133Y-102405669D01*
X116720887Y-102462410D01*
X116720884Y-102462412D01*
X116676588Y-102498107D01*
X116573745Y-102600951D01*
X113075499Y-102600951D01*
X113075499Y-102441184D01*
X113075499Y-102086602D01*
X113075498Y-102086595D01*
X113060240Y-102009883D01*
X113060239Y-102009881D01*
X113002113Y-101922890D01*
X113002112Y-101922888D01*
X112915117Y-101864760D01*
X112915113Y-101864759D01*
X112838410Y-101849501D01*
X112838402Y-101849500D01*
X112838401Y-101849500D01*
X112838400Y-101849500D01*
X112661602Y-101849500D01*
X112661595Y-101849501D01*
X112584884Y-101864759D01*
X112555000Y-101884727D01*
X112496111Y-101901334D01*
X112444999Y-101884726D01*
X112415119Y-101864761D01*
X112415117Y-101864760D01*
X112415114Y-101864759D01*
X112415113Y-101864759D01*
X112338410Y-101849501D01*
X112338402Y-101849500D01*
X112338401Y-101849500D01*
X112338400Y-101849500D01*
X112161602Y-101849500D01*
X112161595Y-101849501D01*
X112084884Y-101864759D01*
X112055000Y-101884727D01*
X111996111Y-101901334D01*
X111944999Y-101884726D01*
X111915119Y-101864761D01*
X111915117Y-101864760D01*
X111915114Y-101864759D01*
X111915113Y-101864759D01*
X111838410Y-101849501D01*
X111838402Y-101849500D01*
X111838401Y-101849500D01*
X111838400Y-101849500D01*
X111661602Y-101849500D01*
X111661595Y-101849501D01*
X111584884Y-101864759D01*
X111555000Y-101884727D01*
X111496111Y-101901334D01*
X111444999Y-101884726D01*
X111415119Y-101864761D01*
X111415117Y-101864760D01*
X111415114Y-101864759D01*
X111415113Y-101864759D01*
X111338410Y-101849501D01*
X111338402Y-101849500D01*
X111338401Y-101849500D01*
X111338400Y-101849500D01*
X111161602Y-101849500D01*
X111161595Y-101849501D01*
X111084884Y-101864759D01*
X111055000Y-101884727D01*
X110996111Y-101901334D01*
X110944999Y-101884726D01*
X110915119Y-101864761D01*
X110915117Y-101864760D01*
X110915114Y-101864759D01*
X110915113Y-101864759D01*
X110838410Y-101849501D01*
X110838402Y-101849500D01*
X110838401Y-101849500D01*
X110838400Y-101849500D01*
X110661602Y-101849500D01*
X110661595Y-101849501D01*
X110584884Y-101864759D01*
X110555000Y-101884727D01*
X110496111Y-101901334D01*
X110444999Y-101884726D01*
X110415119Y-101864761D01*
X110415117Y-101864760D01*
X110415114Y-101864759D01*
X110415113Y-101864759D01*
X110338410Y-101849501D01*
X110338402Y-101849500D01*
X110338401Y-101849500D01*
X110338400Y-101849500D01*
X110161602Y-101849500D01*
X110161595Y-101849501D01*
X110084884Y-101864759D01*
X110055000Y-101884727D01*
X109996111Y-101901334D01*
X109944999Y-101884726D01*
X109915119Y-101864761D01*
X109915117Y-101864760D01*
X109915114Y-101864759D01*
X109915113Y-101864759D01*
X109838410Y-101849501D01*
X109838402Y-101849500D01*
X109838401Y-101849500D01*
X109838400Y-101849500D01*
X109686190Y-101849500D01*
X109627999Y-101830593D01*
X109616186Y-101820504D01*
X109429495Y-101633813D01*
X109401718Y-101579296D01*
X109400499Y-101563819D01*
X109400499Y-101411600D01*
X109385240Y-101334883D01*
X109365273Y-101305001D01*
X109348665Y-101246114D01*
X109365274Y-101194998D01*
X109385238Y-101165120D01*
X109385238Y-101165119D01*
X109385240Y-101165117D01*
X109400500Y-101088401D01*
X109400499Y-100911600D01*
X109385240Y-100834883D01*
X109365273Y-100805001D01*
X109348665Y-100746114D01*
X109365274Y-100694998D01*
X109385238Y-100665120D01*
X109385238Y-100665119D01*
X109385240Y-100665117D01*
X109400500Y-100588401D01*
X109400499Y-100411600D01*
X109385240Y-100334883D01*
X109365273Y-100305001D01*
X109348665Y-100246114D01*
X109365274Y-100194998D01*
X109385238Y-100165120D01*
X109385238Y-100165119D01*
X109385240Y-100165117D01*
X109400500Y-100088401D01*
X109400499Y-99911600D01*
X109385240Y-99834883D01*
X109383338Y-99825320D01*
X109385903Y-99824809D01*
X109382234Y-99778230D01*
X109393868Y-99752403D01*
X109393774Y-99752359D01*
X109397153Y-99745112D01*
X109397411Y-99744540D01*
X109397438Y-99744501D01*
X109444007Y-99644633D01*
X109444010Y-99644622D01*
X109446593Y-99625001D01*
X109446593Y-99625000D01*
X108147744Y-99625000D01*
X108140496Y-99633844D01*
X108122033Y-99639253D01*
X108108914Y-99647059D01*
X108098623Y-99646113D01*
X108087065Y-99649500D01*
X107936188Y-99649500D01*
X107877997Y-99630593D01*
X107866184Y-99620503D01*
X107802995Y-99557314D01*
X107715212Y-99469530D01*
X107635288Y-99423386D01*
X107546144Y-99399500D01*
X107049500Y-99399500D01*
X106991309Y-99380593D01*
X106987244Y-99374998D01*
X108153406Y-99374998D01*
X108153407Y-99375000D01*
X109446593Y-99375000D01*
X109446593Y-99374998D01*
X109444010Y-99355377D01*
X109444007Y-99355367D01*
X109397434Y-99255490D01*
X109397404Y-99255448D01*
X109397384Y-99255385D01*
X109393774Y-99247642D01*
X109394862Y-99247134D01*
X109379515Y-99196936D01*
X109384112Y-99174833D01*
X109383338Y-99174679D01*
X109400498Y-99088410D01*
X109400499Y-99088404D01*
X109400500Y-99088401D01*
X109400499Y-98911600D01*
X109385240Y-98834883D01*
X109365273Y-98805001D01*
X109348665Y-98746114D01*
X109365274Y-98694998D01*
X109373125Y-98683249D01*
X109385240Y-98665117D01*
X109400500Y-98588401D01*
X109400499Y-98411600D01*
X109400499Y-98411599D01*
X113099500Y-98411599D01*
X113099500Y-98588397D01*
X113099501Y-98588404D01*
X113114759Y-98665115D01*
X113114759Y-98665116D01*
X113114760Y-98665117D01*
X113134726Y-98694999D01*
X113151334Y-98753887D01*
X113134727Y-98804999D01*
X113114761Y-98834880D01*
X113114759Y-98834886D01*
X113099501Y-98911589D01*
X113099500Y-98911599D01*
X113099500Y-99088397D01*
X113099501Y-99088404D01*
X113114759Y-99165115D01*
X113114759Y-99165116D01*
X113114760Y-99165117D01*
X113134726Y-99194999D01*
X113151334Y-99253887D01*
X113134727Y-99304999D01*
X113114761Y-99334880D01*
X113114759Y-99334886D01*
X113099501Y-99411589D01*
X113099500Y-99411599D01*
X113099500Y-99588397D01*
X113099501Y-99588404D01*
X113114759Y-99665115D01*
X113114759Y-99665116D01*
X113114760Y-99665117D01*
X113134726Y-99694999D01*
X113151334Y-99753887D01*
X113134727Y-99804999D01*
X113114761Y-99834880D01*
X113114759Y-99834886D01*
X113099501Y-99911589D01*
X113099500Y-99911599D01*
X113099500Y-100088397D01*
X113099501Y-100088404D01*
X113114759Y-100165115D01*
X113114759Y-100165116D01*
X113114760Y-100165117D01*
X113134726Y-100194999D01*
X113151334Y-100253887D01*
X113134727Y-100304999D01*
X113114761Y-100334880D01*
X113114759Y-100334886D01*
X113099501Y-100411589D01*
X113099500Y-100411599D01*
X113099500Y-100588397D01*
X113099501Y-100588404D01*
X113114759Y-100665115D01*
X113114759Y-100665116D01*
X113114760Y-100665117D01*
X113134726Y-100694999D01*
X113151334Y-100753887D01*
X113134727Y-100804999D01*
X113114761Y-100834880D01*
X113114759Y-100834886D01*
X113099501Y-100911589D01*
X113099500Y-100911599D01*
X113099500Y-101088397D01*
X113099501Y-101088404D01*
X113114759Y-101165115D01*
X113114759Y-101165116D01*
X113114760Y-101165117D01*
X113134726Y-101194999D01*
X113151334Y-101253887D01*
X113134727Y-101304999D01*
X113114761Y-101334880D01*
X113114759Y-101334886D01*
X113099501Y-101411589D01*
X113099500Y-101411599D01*
X113099500Y-101588397D01*
X113099501Y-101588404D01*
X113114759Y-101665116D01*
X113114760Y-101665118D01*
X113165325Y-101740793D01*
X113172888Y-101752112D01*
X113259883Y-101810240D01*
X113307753Y-101819762D01*
X113336588Y-101825498D01*
X113336589Y-101825498D01*
X113336599Y-101825500D01*
X114063400Y-101825499D01*
X114140117Y-101810240D01*
X114227112Y-101752112D01*
X114285240Y-101665117D01*
X114300500Y-101588401D01*
X114300499Y-101411600D01*
X114285240Y-101334883D01*
X114265273Y-101305001D01*
X114248665Y-101246114D01*
X114265274Y-101194998D01*
X114285238Y-101165120D01*
X114285238Y-101165119D01*
X114285240Y-101165117D01*
X114300500Y-101088401D01*
X114300499Y-100911600D01*
X114285240Y-100834883D01*
X114265273Y-100805001D01*
X114248665Y-100746114D01*
X114265274Y-100694998D01*
X114285238Y-100665120D01*
X114285238Y-100665119D01*
X114285240Y-100665117D01*
X114300500Y-100588401D01*
X114300499Y-100411600D01*
X114285240Y-100334883D01*
X114265273Y-100305001D01*
X114248665Y-100246114D01*
X114265274Y-100194998D01*
X114285238Y-100165120D01*
X114285238Y-100165119D01*
X114285240Y-100165117D01*
X114300500Y-100088401D01*
X114300499Y-99911600D01*
X114285240Y-99834883D01*
X114265273Y-99805001D01*
X114248665Y-99746114D01*
X114265274Y-99694998D01*
X114266222Y-99693580D01*
X114285240Y-99665117D01*
X114300500Y-99588401D01*
X114300499Y-99411600D01*
X114285240Y-99334883D01*
X114282214Y-99330355D01*
X114265274Y-99305002D01*
X114248665Y-99246114D01*
X114265274Y-99194998D01*
X114278107Y-99175793D01*
X114285240Y-99165117D01*
X114300500Y-99088401D01*
X114300499Y-98911600D01*
X114285240Y-98834883D01*
X114265273Y-98805001D01*
X114248665Y-98746114D01*
X114265274Y-98694998D01*
X114273125Y-98683249D01*
X114285240Y-98665117D01*
X114300500Y-98588401D01*
X114300499Y-98411600D01*
X114285240Y-98334883D01*
X114285237Y-98334879D01*
X114232454Y-98255883D01*
X114227112Y-98247888D01*
X114140117Y-98189760D01*
X114140113Y-98189759D01*
X114063411Y-98174501D01*
X114063402Y-98174500D01*
X114063401Y-98174500D01*
X114063399Y-98174500D01*
X113336602Y-98174500D01*
X113336595Y-98174501D01*
X113259883Y-98189759D01*
X113259881Y-98189760D01*
X113172890Y-98247886D01*
X113172886Y-98247890D01*
X113114762Y-98334879D01*
X113114759Y-98334886D01*
X113099501Y-98411589D01*
X113099500Y-98411599D01*
X109400499Y-98411599D01*
X109385240Y-98334883D01*
X109385237Y-98334879D01*
X109332454Y-98255883D01*
X109327112Y-98247888D01*
X109240117Y-98189760D01*
X109240113Y-98189759D01*
X109163411Y-98174501D01*
X109163402Y-98174500D01*
X109163401Y-98174500D01*
X109163399Y-98174500D01*
X108436602Y-98174500D01*
X108436595Y-98174501D01*
X108359883Y-98189759D01*
X108359881Y-98189760D01*
X108272890Y-98247886D01*
X108272886Y-98247890D01*
X108214762Y-98334879D01*
X108214759Y-98334886D01*
X108199501Y-98411589D01*
X108199500Y-98411599D01*
X108199500Y-98588397D01*
X108199501Y-98588404D01*
X108214759Y-98665115D01*
X108214759Y-98665116D01*
X108214760Y-98665117D01*
X108234726Y-98694999D01*
X108251334Y-98753887D01*
X108234727Y-98804999D01*
X108214761Y-98834880D01*
X108214759Y-98834886D01*
X108199501Y-98911589D01*
X108199500Y-98911599D01*
X108199500Y-99088397D01*
X108199501Y-99088404D01*
X108216662Y-99174680D01*
X108214097Y-99175190D01*
X108217763Y-99221780D01*
X108206133Y-99247598D01*
X108206226Y-99247642D01*
X108202934Y-99254700D01*
X108202601Y-99255441D01*
X108202565Y-99255491D01*
X108155992Y-99355367D01*
X108155989Y-99355377D01*
X108153406Y-99374998D01*
X106987244Y-99374998D01*
X106955345Y-99331093D01*
X106950500Y-99300500D01*
X106950500Y-97840692D01*
X106947956Y-97831199D01*
X106919799Y-97726114D01*
X106919799Y-97726113D01*
X106919799Y-97726112D01*
X106860492Y-97623390D01*
X106860490Y-97623388D01*
X106860489Y-97623386D01*
X106176614Y-96939511D01*
X106176611Y-96939509D01*
X106176609Y-96939507D01*
X106073892Y-96880203D01*
X106073889Y-96880202D01*
X106073887Y-96880201D01*
X106051315Y-96874153D01*
X106036414Y-96870160D01*
X106036342Y-96870141D01*
X106036207Y-96870105D01*
X105959309Y-96849500D01*
X105957393Y-96849500D01*
X105949457Y-96847425D01*
X105928647Y-96834089D01*
X105906342Y-96823446D01*
X105903304Y-96817849D01*
X105897942Y-96814413D01*
X105888944Y-96791392D01*
X105877155Y-96769671D01*
X105876141Y-96758635D01*
X105875669Y-96757426D01*
X105875936Y-96756401D01*
X105875500Y-96751645D01*
X105875500Y-96131899D01*
X105894407Y-96073708D01*
X105904490Y-96061901D01*
X105953050Y-96013342D01*
X106010646Y-95900304D01*
X106025500Y-95806519D01*
X106025499Y-95193482D01*
X106013367Y-95116874D01*
X106010647Y-95099700D01*
X106010646Y-95099698D01*
X106010646Y-95099696D01*
X105953050Y-94986658D01*
X105932782Y-94966390D01*
X105904496Y-94938103D01*
X105876719Y-94883586D01*
X105875500Y-94868100D01*
X105875500Y-94577611D01*
X105894407Y-94519420D01*
X105904496Y-94507607D01*
X106207607Y-94204496D01*
X106262124Y-94176719D01*
X106277611Y-94175500D01*
X106533490Y-94175500D01*
X106554885Y-94172111D01*
X106633126Y-94159719D01*
X106753220Y-94098528D01*
X106847253Y-94004494D01*
X106901768Y-93976719D01*
X106917255Y-93975500D01*
X108077679Y-93975500D01*
X108135870Y-93994407D01*
X108171834Y-94043907D01*
X108171834Y-94105093D01*
X108147684Y-94144501D01*
X108121876Y-94170310D01*
X108099497Y-94192689D01*
X108099496Y-94192690D01*
X108033609Y-94306809D01*
X108016929Y-94369061D01*
X107999500Y-94434108D01*
X107999500Y-94565892D01*
X108008561Y-94599707D01*
X108033608Y-94693187D01*
X108065994Y-94749280D01*
X108078715Y-94809128D01*
X108053828Y-94865024D01*
X108025204Y-94886988D01*
X107996783Y-94901469D01*
X107901471Y-94996781D01*
X107842507Y-95112503D01*
X107799242Y-95155767D01*
X107738810Y-95165338D01*
X107684294Y-95137560D01*
X107665070Y-95106187D01*
X107664184Y-95106639D01*
X107629293Y-95038163D01*
X107603050Y-94986658D01*
X107513342Y-94896950D01*
X107400304Y-94839354D01*
X107400305Y-94839354D01*
X107306522Y-94824500D01*
X106843479Y-94824500D01*
X106843476Y-94824501D01*
X106749700Y-94839352D01*
X106749695Y-94839354D01*
X106636659Y-94896949D01*
X106546949Y-94986659D01*
X106489354Y-95099695D01*
X106474500Y-95193477D01*
X106474500Y-95806520D01*
X106474501Y-95806523D01*
X106489352Y-95900299D01*
X106489354Y-95900304D01*
X106546950Y-96013342D01*
X106636658Y-96103050D01*
X106636660Y-96103051D01*
X106636661Y-96103052D01*
X106693499Y-96132012D01*
X106736764Y-96175276D01*
X106744181Y-96194596D01*
X106747693Y-96207704D01*
X106748386Y-96210288D01*
X106794530Y-96290212D01*
X107284788Y-96780470D01*
X107364712Y-96826614D01*
X107453856Y-96850500D01*
X107546144Y-96850500D01*
X108481250Y-96850500D01*
X108539441Y-96869407D01*
X108575405Y-96918907D01*
X108575405Y-96980093D01*
X108566987Y-96999000D01*
X108533608Y-97056812D01*
X108518336Y-97113809D01*
X108499500Y-97184108D01*
X108499500Y-97315892D01*
X108516556Y-97379546D01*
X108533609Y-97443190D01*
X108599496Y-97557309D01*
X108599498Y-97557311D01*
X108599500Y-97557314D01*
X108692686Y-97650500D01*
X108692688Y-97650501D01*
X108692690Y-97650503D01*
X108806810Y-97716390D01*
X108806808Y-97716390D01*
X108806812Y-97716391D01*
X108806814Y-97716392D01*
X108934108Y-97750500D01*
X108963810Y-97750500D01*
X108964864Y-97750842D01*
X108965924Y-97750523D01*
X108972441Y-97753304D01*
X109022001Y-97769407D01*
X109023698Y-97770668D01*
X109029057Y-97774739D01*
X109084788Y-97830470D01*
X109152820Y-97869748D01*
X109164712Y-97876614D01*
X109253856Y-97900500D01*
X109340687Y-97900500D01*
X109398878Y-97919407D01*
X109434842Y-97968907D01*
X109437785Y-97980188D01*
X109439759Y-97990115D01*
X109439760Y-97990118D01*
X109484855Y-98057607D01*
X109497888Y-98077112D01*
X109584883Y-98135240D01*
X109661599Y-98150500D01*
X109838400Y-98150499D01*
X109915117Y-98135240D01*
X109944998Y-98115273D01*
X110003886Y-98098665D01*
X110055002Y-98115274D01*
X110084879Y-98135238D01*
X110084880Y-98135238D01*
X110084883Y-98135240D01*
X110161599Y-98150500D01*
X110338400Y-98150499D01*
X110415117Y-98135240D01*
X110444998Y-98115273D01*
X110503886Y-98098665D01*
X110555002Y-98115274D01*
X110584879Y-98135238D01*
X110584880Y-98135238D01*
X110584883Y-98135240D01*
X110661599Y-98150500D01*
X110838400Y-98150499D01*
X110915117Y-98135240D01*
X110944998Y-98115273D01*
X111003886Y-98098665D01*
X111055002Y-98115274D01*
X111084879Y-98135238D01*
X111084880Y-98135238D01*
X111084883Y-98135240D01*
X111161599Y-98150500D01*
X111338400Y-98150499D01*
X111415117Y-98135240D01*
X111444998Y-98115273D01*
X111503886Y-98098665D01*
X111555002Y-98115274D01*
X111584879Y-98135238D01*
X111584880Y-98135238D01*
X111584883Y-98135240D01*
X111661599Y-98150500D01*
X111838400Y-98150499D01*
X111915117Y-98135240D01*
X111944998Y-98115273D01*
X112003886Y-98098665D01*
X112055002Y-98115274D01*
X112084879Y-98135238D01*
X112084880Y-98135238D01*
X112084883Y-98135240D01*
X112161599Y-98150500D01*
X112338400Y-98150499D01*
X112415117Y-98135240D01*
X112444998Y-98115273D01*
X112503886Y-98098665D01*
X112555002Y-98115274D01*
X112584879Y-98135238D01*
X112584880Y-98135238D01*
X112584883Y-98135240D01*
X112661599Y-98150500D01*
X112838400Y-98150499D01*
X112915117Y-98135240D01*
X113002112Y-98077112D01*
X113060240Y-97990117D01*
X113075500Y-97913401D01*
X113075499Y-97186600D01*
X113060240Y-97109883D01*
X113057253Y-97105413D01*
X113025569Y-97057994D01*
X113002112Y-97022888D01*
X112915117Y-96964760D01*
X112915113Y-96964759D01*
X112838410Y-96949501D01*
X112838402Y-96949500D01*
X112838401Y-96949500D01*
X112838400Y-96949500D01*
X112661602Y-96949500D01*
X112661595Y-96949501D01*
X112584884Y-96964759D01*
X112555000Y-96984727D01*
X112496111Y-97001334D01*
X112444999Y-96984726D01*
X112415119Y-96964761D01*
X112415117Y-96964760D01*
X112415114Y-96964759D01*
X112415113Y-96964759D01*
X112338410Y-96949501D01*
X112338402Y-96949500D01*
X112338401Y-96949500D01*
X112338400Y-96949500D01*
X112161602Y-96949500D01*
X112161595Y-96949501D01*
X112084884Y-96964759D01*
X112055000Y-96984727D01*
X111996111Y-97001334D01*
X111944999Y-96984726D01*
X111915119Y-96964761D01*
X111915117Y-96964760D01*
X111915114Y-96964759D01*
X111915113Y-96964759D01*
X111838410Y-96949501D01*
X111838402Y-96949500D01*
X111838401Y-96949500D01*
X111838400Y-96949500D01*
X111699500Y-96949500D01*
X111684588Y-96944655D01*
X111668907Y-96944655D01*
X111656221Y-96935438D01*
X111641309Y-96930593D01*
X111632092Y-96917907D01*
X111619407Y-96908691D01*
X111614561Y-96893778D01*
X111605345Y-96881093D01*
X111600500Y-96850500D01*
X111600500Y-96686190D01*
X111619407Y-96627999D01*
X111629496Y-96616186D01*
X111866186Y-96379496D01*
X111920703Y-96351719D01*
X111936190Y-96350500D01*
X115581262Y-96350500D01*
X115639453Y-96369407D01*
X115675417Y-96418907D01*
X115680262Y-96449500D01*
X115680262Y-96533103D01*
X115703606Y-96604950D01*
X115719465Y-96653761D01*
X115775276Y-96730577D01*
X115775277Y-96730578D01*
X115775278Y-96730579D01*
X116102695Y-97057995D01*
X116179514Y-97113809D01*
X116300171Y-97153012D01*
X116300173Y-97153012D01*
X116427035Y-97153012D01*
X116427037Y-97153012D01*
X116547694Y-97113809D01*
X116624513Y-97057996D01*
X117057995Y-96624513D01*
X117113809Y-96547694D01*
X117153012Y-96427037D01*
X117153012Y-96300171D01*
X117113809Y-96179514D01*
X117112233Y-96177345D01*
X117057997Y-96102696D01*
X116730579Y-95775279D01*
X116653759Y-95719464D01*
X116633425Y-95712857D01*
X116625526Y-95710291D01*
X116576027Y-95674329D01*
X116557119Y-95616138D01*
X116576026Y-95557947D01*
X116625525Y-95521983D01*
X116656119Y-95517137D01*
X117020829Y-95517137D01*
X117079020Y-95536044D01*
X117090832Y-95546133D01*
X117224962Y-95680262D01*
X117352695Y-95807995D01*
X117429514Y-95863809D01*
X117550171Y-95903012D01*
X117550173Y-95903012D01*
X117677035Y-95903012D01*
X117677037Y-95903012D01*
X117797694Y-95863809D01*
X117874513Y-95807996D01*
X118307995Y-95374513D01*
X118363809Y-95297694D01*
X118403012Y-95177037D01*
X118403012Y-95050171D01*
X118363809Y-94929514D01*
X118361467Y-94926291D01*
X118308000Y-94852700D01*
X118307998Y-94852698D01*
X118307996Y-94852695D01*
X118250646Y-94795345D01*
X118222870Y-94740830D01*
X118232441Y-94680398D01*
X118275706Y-94637133D01*
X118320651Y-94626343D01*
X120538967Y-94626343D01*
X120597158Y-94645250D01*
X120633122Y-94694750D01*
X120633122Y-94755936D01*
X120608971Y-94795347D01*
X119719528Y-95684790D01*
X119677079Y-95758312D01*
X119677080Y-95758313D01*
X119673388Y-95764708D01*
X119673386Y-95764711D01*
X119649500Y-95853857D01*
X119649500Y-95955708D01*
X119630593Y-96013899D01*
X119581093Y-96049863D01*
X119519907Y-96049863D01*
X119477869Y-96021775D01*
X119477473Y-96022172D01*
X119475482Y-96020181D01*
X119475226Y-96020010D01*
X119474727Y-96019426D01*
X119147305Y-95692005D01*
X119070485Y-95636190D01*
X119008768Y-95616138D01*
X118949829Y-95596988D01*
X118822963Y-95596988D01*
X118782744Y-95610055D01*
X118702304Y-95636191D01*
X118625488Y-95692002D01*
X118192005Y-96125486D01*
X118136190Y-96202306D01*
X118108792Y-96286632D01*
X118096988Y-96322963D01*
X118096988Y-96449829D01*
X118118232Y-96515212D01*
X118136191Y-96570487D01*
X118192002Y-96647303D01*
X118192003Y-96647304D01*
X118192004Y-96647305D01*
X118336091Y-96791392D01*
X118453866Y-96909166D01*
X118455165Y-96911716D01*
X118457641Y-96913156D01*
X118462862Y-96926823D01*
X118481644Y-96963683D01*
X118482352Y-96969129D01*
X118482863Y-96974141D01*
X118482863Y-97076563D01*
X118499718Y-97139469D01*
X118500525Y-97147380D01*
X118495665Y-97169895D01*
X118494460Y-97192900D01*
X118489335Y-97199227D01*
X118487618Y-97207188D01*
X118470449Y-97222549D01*
X118455954Y-97240450D01*
X118448089Y-97242557D01*
X118442021Y-97247987D01*
X118419103Y-97250323D01*
X118396854Y-97256285D01*
X118382667Y-97254038D01*
X118381151Y-97254193D01*
X118380217Y-97253650D01*
X118376414Y-97253048D01*
X118323524Y-97238876D01*
X118301080Y-97232863D01*
X118301079Y-97232863D01*
X118229171Y-97232863D01*
X118170980Y-97213956D01*
X118159168Y-97203867D01*
X117897305Y-96942005D01*
X117820485Y-96886190D01*
X117759005Y-96866215D01*
X117699829Y-96846988D01*
X117572963Y-96846988D01*
X117544940Y-96856093D01*
X117452304Y-96886191D01*
X117375488Y-96942002D01*
X116942005Y-97375486D01*
X116886190Y-97452306D01*
X116867170Y-97510848D01*
X116846988Y-97572963D01*
X116846988Y-97699829D01*
X116870438Y-97772001D01*
X116886191Y-97820487D01*
X116942002Y-97897303D01*
X116942003Y-97897304D01*
X116942004Y-97897305D01*
X117269421Y-98224721D01*
X117346240Y-98280535D01*
X117466897Y-98319738D01*
X117466899Y-98319738D01*
X117593761Y-98319738D01*
X117593763Y-98319738D01*
X117714420Y-98280535D01*
X117791239Y-98224722D01*
X118025921Y-97990038D01*
X118080438Y-97962261D01*
X118140870Y-97971832D01*
X118165929Y-97990038D01*
X118561747Y-98385856D01*
X118589524Y-98440373D01*
X118579953Y-98500805D01*
X118546746Y-98538175D01*
X118515853Y-98558817D01*
X118099017Y-98975653D01*
X118065890Y-99025230D01*
X118065889Y-99025233D01*
X118050330Y-99103463D01*
X118050330Y-99103464D01*
X118065889Y-99181693D01*
X118065890Y-99181695D01*
X118092673Y-99221780D01*
X118099018Y-99231275D01*
X119258317Y-100390574D01*
X119258320Y-100390576D01*
X119298890Y-100417684D01*
X119336770Y-100465734D01*
X119339172Y-100526872D01*
X119305179Y-100577746D01*
X119298890Y-100582316D01*
X119258320Y-100609423D01*
X118099015Y-101768728D01*
X118065890Y-101818304D01*
X118065889Y-101818306D01*
X118050330Y-101896535D01*
X118050330Y-101896536D01*
X118065889Y-101974766D01*
X118065890Y-101974769D01*
X118099017Y-102024346D01*
X118099018Y-102024347D01*
X118515855Y-102441184D01*
X118565434Y-102474312D01*
X118565437Y-102474312D01*
X118574313Y-102477989D01*
X118620841Y-102517723D01*
X118627896Y-102531570D01*
X118631574Y-102540451D01*
X118659943Y-102582907D01*
X118664704Y-102590032D01*
X119081541Y-103006869D01*
X119099923Y-103019152D01*
X119137803Y-103067201D01*
X119142019Y-103082151D01*
X119150632Y-103125450D01*
X119150633Y-103125453D01*
X119191939Y-103187271D01*
X119191947Y-103187280D01*
X119315416Y-103310749D01*
X120057881Y-102568288D01*
X120800341Y-101825825D01*
X120800341Y-101825824D01*
X120744020Y-101769503D01*
X120716243Y-101714986D01*
X120725815Y-101654554D01*
X120769079Y-101611290D01*
X120814024Y-101600500D01*
X121664811Y-101600500D01*
X121723002Y-101619407D01*
X121758966Y-101668907D01*
X121758966Y-101730093D01*
X121734814Y-101769504D01*
X121297102Y-102207214D01*
X121242586Y-102234991D01*
X121182154Y-102225420D01*
X121144784Y-102192212D01*
X121100595Y-102126080D01*
X121100588Y-102126071D01*
X120977118Y-102002602D01*
X119492194Y-103487526D01*
X119615663Y-103610996D01*
X119615672Y-103611004D01*
X119677492Y-103652311D01*
X119720788Y-103660923D01*
X119774172Y-103690819D01*
X119783790Y-103703019D01*
X119796073Y-103721402D01*
X120212911Y-104138240D01*
X120231295Y-104150524D01*
X120269174Y-104198574D01*
X120273390Y-104213523D01*
X120282003Y-104256820D01*
X120282003Y-104256821D01*
X120323311Y-104318642D01*
X120323318Y-104318651D01*
X120446787Y-104442120D01*
X121189252Y-103699659D01*
X121931712Y-102957196D01*
X121931712Y-102957195D01*
X121805102Y-102830585D01*
X121777325Y-102776069D01*
X121786896Y-102715637D01*
X121805099Y-102690581D01*
X122616185Y-101879496D01*
X122670702Y-101851719D01*
X122686189Y-101850500D01*
X123523389Y-101850500D01*
X123581580Y-101869407D01*
X123617544Y-101918907D01*
X123617544Y-101980093D01*
X123593392Y-102019504D01*
X122363708Y-103249185D01*
X122309192Y-103276962D01*
X122248760Y-103267391D01*
X122223702Y-103249185D01*
X122108489Y-103133973D01*
X120623565Y-104618897D01*
X120747034Y-104742367D01*
X120747043Y-104742375D01*
X120808863Y-104783682D01*
X120852159Y-104792294D01*
X120905543Y-104822190D01*
X120915161Y-104834390D01*
X120927444Y-104852773D01*
X121305167Y-105230496D01*
X121332944Y-105285013D01*
X121323373Y-105345445D01*
X121280108Y-105388710D01*
X121235163Y-105399500D01*
X120983188Y-105399500D01*
X120924997Y-105380593D01*
X120913184Y-105370504D01*
X120555874Y-105013194D01*
X120168749Y-104626068D01*
X120088825Y-104579924D01*
X119999681Y-104556038D01*
X119547318Y-104556038D01*
X119547313Y-104556038D01*
X119533814Y-104559655D01*
X119472713Y-104556449D01*
X119438194Y-104534031D01*
X119012651Y-104108489D01*
X118481614Y-104639526D01*
X118467642Y-104646644D01*
X118456555Y-104657732D01*
X118441067Y-104660184D01*
X118427097Y-104667303D01*
X118411610Y-104664850D01*
X118396123Y-104667303D01*
X118382152Y-104660184D01*
X118366665Y-104657732D01*
X118341606Y-104639526D01*
X118323222Y-104621142D01*
X118304839Y-104639526D01*
X118250322Y-104667303D01*
X118189890Y-104657732D01*
X118164831Y-104639526D01*
X117563082Y-104037778D01*
X117209797Y-104391064D01*
X117168490Y-104452882D01*
X117168489Y-104452885D01*
X117149086Y-104550431D01*
X117155215Y-104581243D01*
X117148023Y-104642005D01*
X117106490Y-104686934D01*
X117086481Y-104695407D01*
X117063746Y-104702205D01*
X117050431Y-104699557D01*
X116972200Y-104715117D01*
X116933016Y-104741298D01*
X116918752Y-104745564D01*
X116902319Y-104745176D01*
X116886498Y-104749638D01*
X116872498Y-104744472D01*
X116857583Y-104744121D01*
X116844517Y-104734149D01*
X116829095Y-104728459D01*
X116820384Y-104720718D01*
X116661970Y-104562304D01*
X116634193Y-104507787D01*
X116637820Y-104461707D01*
X116663367Y-104383082D01*
X116663368Y-104383077D01*
X116663368Y-104248294D01*
X116657506Y-104230252D01*
X116621717Y-104120105D01*
X116562421Y-104038491D01*
X116309284Y-103785354D01*
X116591421Y-103785354D01*
X116711940Y-103905872D01*
X116756239Y-103941572D01*
X116880488Y-103998314D01*
X116880491Y-103998315D01*
X117015683Y-104017753D01*
X117015689Y-104017753D01*
X117150879Y-103998315D01*
X117150882Y-103998314D01*
X117275128Y-103941573D01*
X117275131Y-103941571D01*
X117319432Y-103905872D01*
X117364302Y-103861001D01*
X117739859Y-103861001D01*
X118323222Y-104444363D01*
X118835873Y-103931712D01*
X118411873Y-103507712D01*
X118350060Y-103466409D01*
X118350058Y-103466408D01*
X118252512Y-103447005D01*
X118154966Y-103466408D01*
X118154963Y-103466409D01*
X118093145Y-103507716D01*
X117739859Y-103861001D01*
X117364302Y-103861001D01*
X117422270Y-103803032D01*
X116998007Y-103378769D01*
X116591421Y-103785354D01*
X116309284Y-103785354D01*
X116161509Y-103637579D01*
X116161505Y-103637576D01*
X116161504Y-103637575D01*
X116126637Y-103612243D01*
X116079895Y-103578283D01*
X115951707Y-103536632D01*
X115816921Y-103536632D01*
X115754049Y-103557060D01*
X115688735Y-103578282D01*
X115688733Y-103578283D01*
X115607124Y-103637575D01*
X115241559Y-104003140D01*
X115182267Y-104084749D01*
X115182266Y-104084751D01*
X115165681Y-104135795D01*
X115140616Y-104212937D01*
X115140616Y-104347723D01*
X115182267Y-104475911D01*
X115240482Y-104556038D01*
X115241563Y-104557525D01*
X115642475Y-104958437D01*
X115724089Y-105017733D01*
X115852277Y-105059384D01*
X115852279Y-105059384D01*
X115987062Y-105059384D01*
X115987063Y-105059384D01*
X116065691Y-105033836D01*
X116126876Y-105033835D01*
X116166288Y-105057986D01*
X116319579Y-105211277D01*
X116347356Y-105265794D01*
X116337785Y-105326226D01*
X116319579Y-105351284D01*
X116046163Y-105624701D01*
X116013036Y-105674280D01*
X116013035Y-105674282D01*
X115997476Y-105752511D01*
X115997476Y-105752512D01*
X116013035Y-105830742D01*
X116013036Y-105830745D01*
X116046163Y-105880322D01*
X117064042Y-106898201D01*
X117113619Y-106931328D01*
X117113620Y-106931328D01*
X117113621Y-106931329D01*
X117152737Y-106939109D01*
X117191852Y-106946889D01*
X117191853Y-106946889D01*
X117191854Y-106946889D01*
X117217930Y-106941702D01*
X117270084Y-106931329D01*
X117319664Y-106898201D01*
X117338370Y-106879494D01*
X117392885Y-106851719D01*
X117408372Y-106850500D01*
X117622624Y-106850500D01*
X117680815Y-106869407D01*
X117716779Y-106918907D01*
X117716779Y-106980093D01*
X117692628Y-107019504D01*
X117563353Y-107148778D01*
X117563349Y-107148782D01*
X117522044Y-107210598D01*
X117522043Y-107210601D01*
X117502640Y-107308147D01*
X117522043Y-107405693D01*
X117522044Y-107405695D01*
X117563347Y-107467508D01*
X117987348Y-107891509D01*
X118518385Y-107360473D01*
X118532356Y-107353354D01*
X118543444Y-107342267D01*
X118558931Y-107339814D01*
X118572902Y-107332696D01*
X118588389Y-107335148D01*
X118603876Y-107332696D01*
X118617846Y-107339814D01*
X118633334Y-107342267D01*
X118658393Y-107360473D01*
X118676776Y-107378856D01*
X118695160Y-107360473D01*
X118749677Y-107332696D01*
X118810109Y-107342267D01*
X118835168Y-107360473D01*
X119436916Y-107962220D01*
X119452169Y-107946967D01*
X119777729Y-107946967D01*
X120201992Y-108371230D01*
X120608577Y-107964644D01*
X120488059Y-107844127D01*
X120443760Y-107808427D01*
X120319511Y-107751685D01*
X120319508Y-107751684D01*
X120184317Y-107732247D01*
X120184311Y-107732247D01*
X120049120Y-107751684D01*
X120049117Y-107751685D01*
X119924871Y-107808426D01*
X119924868Y-107808428D01*
X119880572Y-107844123D01*
X119777729Y-107946967D01*
X119452169Y-107946967D01*
X119563182Y-107835956D01*
X119790202Y-107608936D01*
X119831508Y-107547117D01*
X119831510Y-107547114D01*
X119850913Y-107449568D01*
X119844785Y-107418757D01*
X119851977Y-107357995D01*
X119893510Y-107313066D01*
X119941883Y-107300443D01*
X119949570Y-107300443D01*
X119975646Y-107295256D01*
X120027800Y-107284883D01*
X120077380Y-107251755D01*
X120269731Y-107059402D01*
X120283699Y-107052285D01*
X120294788Y-107041197D01*
X120310275Y-107038744D01*
X120324245Y-107031626D01*
X120339732Y-107034078D01*
X120355220Y-107031626D01*
X120369191Y-107038744D01*
X120384677Y-107041197D01*
X120409737Y-107059403D01*
X120538029Y-107187695D01*
X120565806Y-107242212D01*
X120562180Y-107288291D01*
X120542294Y-107349496D01*
X120536632Y-107366921D01*
X120536632Y-107501707D01*
X120578283Y-107629895D01*
X120626176Y-107695815D01*
X120637579Y-107711509D01*
X121038491Y-108112421D01*
X121120105Y-108171717D01*
X121248293Y-108213368D01*
X121248295Y-108213368D01*
X121383077Y-108213368D01*
X121383079Y-108213368D01*
X121511266Y-108171717D01*
X121592880Y-108112421D01*
X121958437Y-107746864D01*
X122017733Y-107665250D01*
X122059384Y-107537063D01*
X122059384Y-107402277D01*
X122054513Y-107387287D01*
X122025165Y-107296962D01*
X122025164Y-107235777D01*
X122049313Y-107196367D01*
X123255164Y-105990518D01*
X123258844Y-105984145D01*
X123295852Y-105920045D01*
X123301309Y-105910593D01*
X123308439Y-105883984D01*
X123309421Y-105880322D01*
X123322704Y-105830744D01*
X123323595Y-105827420D01*
X123349215Y-105783041D01*
X123890574Y-105241683D01*
X123901722Y-105224999D01*
X123917684Y-105201110D01*
X123965733Y-105163229D01*
X124026871Y-105160827D01*
X124077746Y-105194819D01*
X124082316Y-105201110D01*
X124109421Y-105241677D01*
X124109423Y-105241679D01*
X124109426Y-105241683D01*
X125120505Y-106252762D01*
X125148281Y-106307277D01*
X125149500Y-106322764D01*
X125149500Y-107601678D01*
X125130593Y-107659869D01*
X125120505Y-107671680D01*
X125099501Y-107692684D01*
X125099496Y-107692690D01*
X125033609Y-107806809D01*
X125025799Y-107835956D01*
X124999500Y-107934108D01*
X124999500Y-108065892D01*
X125022171Y-108150502D01*
X125033609Y-108193190D01*
X125099496Y-108307309D01*
X125099498Y-108307311D01*
X125099500Y-108307314D01*
X125192686Y-108400500D01*
X125192688Y-108400501D01*
X125192690Y-108400503D01*
X125306810Y-108466390D01*
X125306808Y-108466390D01*
X125306812Y-108466391D01*
X125306814Y-108466392D01*
X125434108Y-108500500D01*
X125434110Y-108500500D01*
X125565890Y-108500500D01*
X125565892Y-108500500D01*
X125693186Y-108466392D01*
X125693188Y-108466390D01*
X125693190Y-108466390D01*
X125807309Y-108400503D01*
X125807309Y-108400502D01*
X125807314Y-108400500D01*
X125900500Y-108307314D01*
X125900503Y-108307309D01*
X125966390Y-108193190D01*
X125966390Y-108193188D01*
X125966392Y-108193186D01*
X126000500Y-108065892D01*
X126000500Y-107934108D01*
X125966392Y-107806814D01*
X125966390Y-107806811D01*
X125966390Y-107806809D01*
X125900503Y-107692690D01*
X125900498Y-107692684D01*
X125879495Y-107671680D01*
X125851719Y-107617163D01*
X125850500Y-107601678D01*
X125850500Y-106115837D01*
X125851976Y-106111291D01*
X125850929Y-106106627D01*
X125859237Y-106088946D01*
X125869407Y-106057646D01*
X125875168Y-106050447D01*
X125877259Y-106048069D01*
X125941184Y-105984145D01*
X125965477Y-105947787D01*
X125969807Y-105942866D01*
X125990755Y-105930447D01*
X126009872Y-105915376D01*
X126016624Y-105915110D01*
X126022438Y-105911664D01*
X126046677Y-105913928D01*
X126071010Y-105912972D01*
X126077566Y-105916814D01*
X126083358Y-105917356D01*
X126093075Y-105925904D01*
X126114143Y-105938252D01*
X126413397Y-106237506D01*
X126441174Y-106292023D01*
X126442393Y-106307510D01*
X126442393Y-106750639D01*
X126423486Y-106808830D01*
X126413397Y-106820642D01*
X126275279Y-106958760D01*
X126219464Y-107035580D01*
X126202595Y-107087501D01*
X126180262Y-107156237D01*
X126180262Y-107283103D01*
X126204595Y-107357995D01*
X126219465Y-107403761D01*
X126275276Y-107480577D01*
X126275277Y-107480578D01*
X126275278Y-107480579D01*
X126602695Y-107807995D01*
X126652425Y-107844127D01*
X126685818Y-107868389D01*
X126684311Y-107870462D01*
X126718995Y-107905134D01*
X126728577Y-107965565D01*
X126716534Y-107999587D01*
X126714809Y-108002574D01*
X126714808Y-108002578D01*
X126690922Y-108091722D01*
X126690922Y-109337566D01*
X126692735Y-109344331D01*
X126707784Y-109400498D01*
X126711178Y-109413163D01*
X126714808Y-109426710D01*
X126760952Y-109506634D01*
X127969531Y-110715212D01*
X127969530Y-110715212D01*
X128034787Y-110780468D01*
X128034789Y-110780470D01*
X128083702Y-110808710D01*
X128114712Y-110826614D01*
X128203856Y-110850500D01*
X128203858Y-110850500D01*
X146549727Y-110850500D01*
X146562227Y-110854561D01*
X146575351Y-110853874D01*
X146590610Y-110863783D01*
X146607918Y-110869407D01*
X146615643Y-110880040D01*
X146626665Y-110887198D01*
X146633184Y-110904183D01*
X146643882Y-110918907D01*
X146643882Y-110932052D01*
X146648591Y-110944320D01*
X146643882Y-110961894D01*
X146643882Y-110980093D01*
X146636156Y-110990726D01*
X146632755Y-111003420D01*
X146618614Y-111014870D01*
X146607918Y-111029593D01*
X146585205Y-111041925D01*
X146462747Y-111088931D01*
X146459966Y-111089951D01*
X146416114Y-111105295D01*
X146409040Y-111107477D01*
X146164785Y-111172926D01*
X146161191Y-111173817D01*
X146104499Y-111186756D01*
X146097957Y-111188019D01*
X145854830Y-111226526D01*
X145850427Y-111227123D01*
X145786813Y-111234290D01*
X145780911Y-111234776D01*
X145502595Y-111249364D01*
X145497413Y-111249500D01*
X96502587Y-111249500D01*
X96497405Y-111249364D01*
X96219087Y-111234776D01*
X96213185Y-111234290D01*
X96149571Y-111227123D01*
X96145168Y-111226526D01*
X95902041Y-111188019D01*
X95895499Y-111186756D01*
X95838807Y-111173817D01*
X95835213Y-111172926D01*
X95590958Y-111107477D01*
X95583884Y-111105295D01*
X95540032Y-111089951D01*
X95537251Y-111088931D01*
X95289679Y-110993898D01*
X95282200Y-110990668D01*
X95260429Y-110980183D01*
X95258441Y-110979198D01*
X95004866Y-110849995D01*
X94995892Y-110844813D01*
X94896811Y-110780469D01*
X94741289Y-110679471D01*
X94732907Y-110673382D01*
X94590376Y-110557963D01*
X94496980Y-110482332D01*
X94489279Y-110475399D01*
X94274600Y-110260720D01*
X94267667Y-110253019D01*
X94176848Y-110140867D01*
X94076613Y-110017086D01*
X94070526Y-110008708D01*
X93905173Y-109754087D01*
X93900015Y-109745154D01*
X93770759Y-109491477D01*
X93769832Y-109489603D01*
X93759330Y-109467796D01*
X93756110Y-109460342D01*
X93661049Y-109212698D01*
X93660065Y-109210016D01*
X93644700Y-109166105D01*
X93642521Y-109159039D01*
X93637734Y-109141175D01*
X93635107Y-109131370D01*
X119795405Y-109131370D01*
X119915924Y-109251888D01*
X119960223Y-109287588D01*
X120084472Y-109344330D01*
X120084475Y-109344331D01*
X120219667Y-109363769D01*
X120219673Y-109363769D01*
X120354863Y-109344331D01*
X120354866Y-109344330D01*
X120479112Y-109287589D01*
X120479115Y-109287587D01*
X120523416Y-109251888D01*
X120626254Y-109149048D01*
X120201991Y-108724785D01*
X119795405Y-109131370D01*
X93635107Y-109131370D01*
X93630985Y-109115985D01*
X93630985Y-109115983D01*
X93598989Y-108996577D01*
X93577066Y-108914760D01*
X93576199Y-108911264D01*
X93563237Y-108854473D01*
X93561982Y-108847977D01*
X93523467Y-108604798D01*
X93522879Y-108600460D01*
X93515707Y-108536805D01*
X93515222Y-108530910D01*
X93515191Y-108530327D01*
X93500636Y-108252594D01*
X93500500Y-108247413D01*
X93500500Y-108068285D01*
X118164124Y-108068285D01*
X118588126Y-108492287D01*
X118649939Y-108533590D01*
X118649941Y-108533591D01*
X118747487Y-108552994D01*
X118845033Y-108533591D01*
X118845036Y-108533589D01*
X118849918Y-108530327D01*
X119386231Y-108530327D01*
X119386231Y-108530332D01*
X119405668Y-108665524D01*
X119405669Y-108665527D01*
X119462410Y-108789774D01*
X119462412Y-108789777D01*
X119498107Y-108834071D01*
X119618629Y-108954593D01*
X120025214Y-108548008D01*
X120025213Y-108548007D01*
X120378769Y-108548007D01*
X120803032Y-108972270D01*
X120905867Y-108869436D01*
X120941573Y-108825129D01*
X120998314Y-108700882D01*
X120998315Y-108700879D01*
X121017753Y-108565688D01*
X121017753Y-108565683D01*
X120998315Y-108430491D01*
X120998314Y-108430488D01*
X120941573Y-108306241D01*
X120941571Y-108306238D01*
X120905876Y-108261944D01*
X120785354Y-108141422D01*
X120378769Y-108548007D01*
X120025213Y-108548007D01*
X119600950Y-108123744D01*
X119498116Y-108226579D01*
X119462410Y-108270886D01*
X119405669Y-108395133D01*
X119405668Y-108395136D01*
X119386231Y-108530327D01*
X118849918Y-108530327D01*
X118906852Y-108492285D01*
X118945893Y-108453245D01*
X118945895Y-108453243D01*
X119260139Y-108138997D01*
X118676775Y-107555634D01*
X118164124Y-108068285D01*
X93500500Y-108068285D01*
X93500500Y-104799787D01*
X93519407Y-104741596D01*
X93568907Y-104705632D01*
X93630093Y-104705632D01*
X93679593Y-104741596D01*
X93681816Y-104744786D01*
X93717434Y-104798093D01*
X93821906Y-104902565D01*
X93944742Y-104984641D01*
X94081229Y-105041176D01*
X94081235Y-105041178D01*
X94226128Y-105069999D01*
X94226132Y-105070000D01*
X94474999Y-105070000D01*
X94475000Y-105069999D01*
X94475000Y-104620000D01*
X94725000Y-104620000D01*
X94725000Y-105069999D01*
X94725001Y-105070000D01*
X94973868Y-105070000D01*
X94973871Y-105069999D01*
X95118764Y-105041178D01*
X95118770Y-105041176D01*
X95255257Y-104984641D01*
X95378093Y-104902565D01*
X95482565Y-104798093D01*
X95564641Y-104675257D01*
X95621178Y-104538764D01*
X95639829Y-104445000D01*
X95174242Y-104445000D01*
X95179556Y-104435796D01*
X95200000Y-104359496D01*
X95200000Y-104280504D01*
X95179556Y-104204204D01*
X95174242Y-104195000D01*
X95639828Y-104195000D01*
X95639828Y-104194999D01*
X95621178Y-104101235D01*
X95564641Y-103964742D01*
X95482565Y-103841906D01*
X95378093Y-103737434D01*
X95255257Y-103655358D01*
X95118770Y-103598823D01*
X95118764Y-103598821D01*
X94973871Y-103570000D01*
X94725001Y-103570000D01*
X94725000Y-103570001D01*
X94725000Y-104020000D01*
X94475000Y-104020000D01*
X94475000Y-103570001D01*
X94474999Y-103570000D01*
X94226128Y-103570000D01*
X94081235Y-103598821D01*
X94081229Y-103598823D01*
X93944742Y-103655358D01*
X93821906Y-103737434D01*
X93717433Y-103841907D01*
X93681815Y-103895214D01*
X93633765Y-103933093D01*
X93572627Y-103935495D01*
X93521753Y-103901502D01*
X93500576Y-103844098D01*
X93500500Y-103840212D01*
X93500500Y-96159787D01*
X93519407Y-96101596D01*
X93568907Y-96065632D01*
X93630093Y-96065632D01*
X93679593Y-96101596D01*
X93681816Y-96104786D01*
X93717434Y-96158093D01*
X93821906Y-96262565D01*
X93944742Y-96344641D01*
X94081229Y-96401176D01*
X94081235Y-96401178D01*
X94226128Y-96429999D01*
X94226132Y-96430000D01*
X94474999Y-96430000D01*
X94475000Y-96429999D01*
X94475000Y-95980000D01*
X94725000Y-95980000D01*
X94725000Y-96429999D01*
X94725001Y-96430000D01*
X94973868Y-96430000D01*
X94973871Y-96429999D01*
X95118764Y-96401178D01*
X95118770Y-96401176D01*
X95255257Y-96344641D01*
X95378093Y-96262565D01*
X95482565Y-96158093D01*
X95564641Y-96035257D01*
X95621178Y-95898764D01*
X95639829Y-95805000D01*
X95174242Y-95805000D01*
X95179556Y-95795796D01*
X95200000Y-95719496D01*
X95200000Y-95640504D01*
X95179556Y-95564204D01*
X95174242Y-95555000D01*
X95639828Y-95555000D01*
X95639828Y-95554999D01*
X95621178Y-95461235D01*
X95564641Y-95324742D01*
X95482565Y-95201906D01*
X95378093Y-95097434D01*
X95255257Y-95015358D01*
X95118770Y-94958823D01*
X95118764Y-94958821D01*
X94973871Y-94930000D01*
X94725001Y-94930000D01*
X94725000Y-94930001D01*
X94725000Y-95380000D01*
X94475000Y-95380000D01*
X94475000Y-94930001D01*
X94474999Y-94930000D01*
X94226128Y-94930000D01*
X94081235Y-94958821D01*
X94081229Y-94958823D01*
X93944742Y-95015358D01*
X93821906Y-95097434D01*
X93717433Y-95201907D01*
X93681815Y-95255214D01*
X93633765Y-95293093D01*
X93572627Y-95295495D01*
X93521753Y-95261502D01*
X93500576Y-95204098D01*
X93500500Y-95200212D01*
X93500500Y-93812501D01*
X96550000Y-93812501D01*
X96550000Y-93978469D01*
X96556322Y-94037277D01*
X96556324Y-94037288D01*
X96605938Y-94170310D01*
X96691023Y-94283970D01*
X96691029Y-94283976D01*
X96804689Y-94369061D01*
X96937711Y-94418675D01*
X96937722Y-94418677D01*
X96996531Y-94425000D01*
X97374999Y-94425000D01*
X97375000Y-94424999D01*
X97375000Y-93812501D01*
X97374999Y-93812500D01*
X96550001Y-93812500D01*
X96550000Y-93812501D01*
X93500500Y-93812501D01*
X93500500Y-93396530D01*
X96550000Y-93396530D01*
X96550000Y-93562499D01*
X96550001Y-93562500D01*
X97374999Y-93562500D01*
X97375000Y-93562499D01*
X97375000Y-92950001D01*
X97374999Y-92950000D01*
X96996531Y-92950000D01*
X96937722Y-92956322D01*
X96937711Y-92956324D01*
X96804689Y-93005938D01*
X96691029Y-93091023D01*
X96691023Y-93091029D01*
X96605938Y-93204689D01*
X96556324Y-93337711D01*
X96556322Y-93337722D01*
X96550000Y-93396530D01*
X93500500Y-93396530D01*
X93500500Y-91752586D01*
X93500636Y-91747405D01*
X93503958Y-91684015D01*
X93512804Y-91515226D01*
X96599500Y-91515226D01*
X96599500Y-92109773D01*
X96602313Y-92139768D01*
X96602315Y-92139777D01*
X96646543Y-92266175D01*
X96646544Y-92266176D01*
X96646545Y-92266179D01*
X96726070Y-92373930D01*
X96833821Y-92453455D01*
X96960226Y-92497686D01*
X96990226Y-92500499D01*
X96990230Y-92500500D01*
X96990236Y-92500500D01*
X98009770Y-92500500D01*
X98009772Y-92500499D01*
X98039774Y-92497686D01*
X98166179Y-92453455D01*
X98273930Y-92373930D01*
X98316898Y-92315710D01*
X98329357Y-92306800D01*
X98338362Y-92294407D01*
X98353618Y-92289449D01*
X98366666Y-92280119D01*
X98396553Y-92275500D01*
X98541525Y-92275500D01*
X98599716Y-92294407D01*
X98629734Y-92329554D01*
X98646950Y-92363342D01*
X98736658Y-92453050D01*
X98849696Y-92510646D01*
X98943481Y-92525500D01*
X99556518Y-92525499D01*
X99556520Y-92525499D01*
X99556521Y-92525498D01*
X99603411Y-92518072D01*
X99650299Y-92510647D01*
X99650299Y-92510646D01*
X99650304Y-92510646D01*
X99763342Y-92453050D01*
X99853050Y-92363342D01*
X99910646Y-92250304D01*
X99924248Y-92164423D01*
X99925500Y-92156521D01*
X99925500Y-92100001D01*
X102025001Y-92100001D01*
X102025001Y-92245436D01*
X102031081Y-92302004D01*
X102031082Y-92302006D01*
X102078814Y-92429983D01*
X102160668Y-92539327D01*
X102160672Y-92539331D01*
X102270016Y-92621185D01*
X102397990Y-92668916D01*
X102397998Y-92668918D01*
X102454566Y-92674999D01*
X102625000Y-92674999D01*
X102625000Y-92100001D01*
X102875000Y-92100001D01*
X102875000Y-92674998D01*
X102875001Y-92674999D01*
X103045431Y-92674999D01*
X103045436Y-92674998D01*
X103102004Y-92668918D01*
X103102006Y-92668917D01*
X103229983Y-92621185D01*
X103339327Y-92539331D01*
X103339331Y-92539327D01*
X103421185Y-92429983D01*
X103468916Y-92302009D01*
X103468918Y-92302001D01*
X103475000Y-92245434D01*
X103475000Y-92100001D01*
X103775001Y-92100001D01*
X103775001Y-92245436D01*
X103781081Y-92302004D01*
X103781082Y-92302006D01*
X103828814Y-92429983D01*
X103910668Y-92539327D01*
X103910672Y-92539331D01*
X104020016Y-92621185D01*
X104147990Y-92668916D01*
X104147998Y-92668918D01*
X104204566Y-92674999D01*
X104375000Y-92674999D01*
X104375000Y-92100001D01*
X104625000Y-92100001D01*
X104625000Y-92674998D01*
X104625001Y-92674999D01*
X104795431Y-92674999D01*
X104795436Y-92674998D01*
X104852004Y-92668918D01*
X104852006Y-92668917D01*
X104979983Y-92621185D01*
X105089327Y-92539331D01*
X105089331Y-92539327D01*
X105171185Y-92429983D01*
X105218916Y-92302009D01*
X105218918Y-92302001D01*
X105225000Y-92245434D01*
X105225000Y-92100001D01*
X105525001Y-92100001D01*
X105525001Y-92245436D01*
X105531081Y-92302004D01*
X105531082Y-92302006D01*
X105578814Y-92429983D01*
X105660668Y-92539327D01*
X105660672Y-92539331D01*
X105770016Y-92621185D01*
X105897990Y-92668916D01*
X105897998Y-92668918D01*
X105954566Y-92674999D01*
X106125000Y-92674999D01*
X106125000Y-92100001D01*
X106375000Y-92100001D01*
X106375000Y-92674998D01*
X106375001Y-92674999D01*
X106545431Y-92674999D01*
X106545436Y-92674998D01*
X106602004Y-92668918D01*
X106602006Y-92668917D01*
X106729983Y-92621185D01*
X106839327Y-92539331D01*
X106839331Y-92539327D01*
X106921185Y-92429983D01*
X106968916Y-92302009D01*
X106968918Y-92302001D01*
X106975000Y-92245434D01*
X106975000Y-92184108D01*
X107999500Y-92184108D01*
X107999500Y-92315892D01*
X108026069Y-92415049D01*
X108033609Y-92443190D01*
X108099496Y-92557309D01*
X108099498Y-92557311D01*
X108099500Y-92557314D01*
X108192686Y-92650500D01*
X108192688Y-92650501D01*
X108192690Y-92650503D01*
X108306810Y-92716390D01*
X108306808Y-92716390D01*
X108306812Y-92716391D01*
X108306814Y-92716392D01*
X108434108Y-92750500D01*
X108434110Y-92750500D01*
X108565890Y-92750500D01*
X108565892Y-92750500D01*
X108693186Y-92716392D01*
X108693188Y-92716390D01*
X108693190Y-92716390D01*
X108807309Y-92650503D01*
X108807309Y-92650502D01*
X108807314Y-92650500D01*
X108900500Y-92557314D01*
X108910885Y-92539327D01*
X108966390Y-92443190D01*
X108966390Y-92443188D01*
X108966392Y-92443186D01*
X109000500Y-92315892D01*
X109000500Y-92286190D01*
X109019407Y-92227999D01*
X109029496Y-92216186D01*
X109616186Y-91629496D01*
X109623303Y-91625869D01*
X109627999Y-91619407D01*
X109650047Y-91612243D01*
X109670703Y-91601719D01*
X109686190Y-91600500D01*
X109820577Y-91600500D01*
X109878768Y-91619407D01*
X109914732Y-91668907D01*
X109916201Y-91673869D01*
X109935578Y-91746181D01*
X109945185Y-91769375D01*
X109956104Y-91795737D01*
X109956107Y-91795743D01*
X110017889Y-91902753D01*
X110021938Y-91909765D01*
X110054584Y-91952309D01*
X110054587Y-91952312D01*
X110054591Y-91952317D01*
X110147683Y-92045409D01*
X110147687Y-92045412D01*
X110147690Y-92045415D01*
X110190234Y-92078061D01*
X110190238Y-92078063D01*
X110190243Y-92078067D01*
X110304257Y-92143893D01*
X110353819Y-92164422D01*
X110480986Y-92198497D01*
X110534174Y-92205500D01*
X110534175Y-92205500D01*
X111099999Y-92205500D01*
X111100000Y-92205500D01*
X111145728Y-92200348D01*
X111204509Y-92172039D01*
X111265139Y-92163827D01*
X111309188Y-92183835D01*
X111310835Y-92185148D01*
X111310836Y-92185149D01*
X111400000Y-92205500D01*
X111965824Y-92205500D01*
X111965826Y-92205500D01*
X112019014Y-92198497D01*
X112146181Y-92164422D01*
X112195743Y-92143893D01*
X112309757Y-92078067D01*
X112324515Y-92066743D01*
X112352309Y-92045415D01*
X112352308Y-92045415D01*
X112352317Y-92045409D01*
X112445409Y-91952317D01*
X112478067Y-91909757D01*
X112543893Y-91795743D01*
X112562222Y-91751491D01*
X112601957Y-91704966D01*
X112661451Y-91690681D01*
X112717980Y-91714094D01*
X112723690Y-91719372D01*
X112999007Y-91994689D01*
X113026784Y-92049206D01*
X113024630Y-92090314D01*
X112999500Y-92184105D01*
X112999500Y-92184108D01*
X112999500Y-92315892D01*
X113026069Y-92415049D01*
X113033609Y-92443190D01*
X113099496Y-92557309D01*
X113099498Y-92557311D01*
X113099500Y-92557314D01*
X113192686Y-92650500D01*
X113192688Y-92650501D01*
X113192690Y-92650503D01*
X113306810Y-92716390D01*
X113306808Y-92716390D01*
X113306812Y-92716391D01*
X113306814Y-92716392D01*
X113434108Y-92750500D01*
X113434110Y-92750500D01*
X113565890Y-92750500D01*
X113565892Y-92750500D01*
X113693186Y-92716392D01*
X113693188Y-92716390D01*
X113693190Y-92716390D01*
X113807309Y-92650503D01*
X113807309Y-92650502D01*
X113807314Y-92650500D01*
X113900500Y-92557314D01*
X113910885Y-92539327D01*
X113966390Y-92443190D01*
X113966390Y-92443188D01*
X113966392Y-92443186D01*
X114000500Y-92315892D01*
X114000500Y-92184108D01*
X113966392Y-92056814D01*
X113966390Y-92056811D01*
X113966390Y-92056809D01*
X113900503Y-91942690D01*
X113900499Y-91942685D01*
X113841412Y-91883597D01*
X113825682Y-91863098D01*
X113804963Y-91827212D01*
X113780470Y-91784788D01*
X112965212Y-90969530D01*
X112885288Y-90923386D01*
X112885287Y-90923385D01*
X112885286Y-90923385D01*
X112871897Y-90919797D01*
X112871897Y-90919798D01*
X112796144Y-90899500D01*
X112796142Y-90899500D01*
X112679423Y-90899500D01*
X112621232Y-90880593D01*
X112585268Y-90831093D01*
X112583796Y-90826123D01*
X112583398Y-90824638D01*
X112564422Y-90753819D01*
X112543893Y-90704257D01*
X112478067Y-90590243D01*
X112478063Y-90590238D01*
X112478061Y-90590234D01*
X112445415Y-90547690D01*
X112445412Y-90547687D01*
X112445409Y-90547683D01*
X112352317Y-90454591D01*
X112352312Y-90454587D01*
X112352309Y-90454584D01*
X112312388Y-90423951D01*
X112312385Y-90423949D01*
X112309762Y-90421936D01*
X112228468Y-90375001D01*
X112195743Y-90356107D01*
X112195741Y-90356106D01*
X112195739Y-90356105D01*
X112181222Y-90350092D01*
X112146181Y-90335578D01*
X112019014Y-90301503D01*
X112019009Y-90301502D01*
X112019008Y-90301502D01*
X111965826Y-90294500D01*
X111400000Y-90294500D01*
X111399998Y-90294500D01*
X111354272Y-90299651D01*
X111295491Y-90327960D01*
X111234859Y-90336173D01*
X111190807Y-90316162D01*
X111189162Y-90314850D01*
X111100000Y-90294500D01*
X110534174Y-90294500D01*
X110480991Y-90301502D01*
X110480988Y-90301502D01*
X110480986Y-90301503D01*
X110353819Y-90335578D01*
X110336298Y-90342835D01*
X110304260Y-90356105D01*
X110190234Y-90421938D01*
X110147690Y-90454584D01*
X110054584Y-90547690D01*
X110021938Y-90590234D01*
X109956105Y-90704260D01*
X109945653Y-90729496D01*
X109935578Y-90753819D01*
X109916639Y-90824501D01*
X109916204Y-90826123D01*
X109882879Y-90877438D01*
X109825758Y-90899364D01*
X109820577Y-90899500D01*
X109453855Y-90899500D01*
X109436045Y-90904272D01*
X109436044Y-90904271D01*
X109364715Y-90923384D01*
X109284788Y-90969530D01*
X108533814Y-91720504D01*
X108479297Y-91748281D01*
X108463810Y-91749500D01*
X108434108Y-91749500D01*
X108371861Y-91766179D01*
X108306809Y-91783609D01*
X108192690Y-91849496D01*
X108099496Y-91942690D01*
X108033609Y-92056809D01*
X108021940Y-92100361D01*
X107999500Y-92184108D01*
X106975000Y-92184108D01*
X106975000Y-92100001D01*
X106974999Y-92100000D01*
X106375001Y-92100000D01*
X106375000Y-92100001D01*
X106125000Y-92100001D01*
X106124999Y-92100000D01*
X105525002Y-92100000D01*
X105525001Y-92100001D01*
X105225000Y-92100001D01*
X105224999Y-92100000D01*
X104625001Y-92100000D01*
X104625000Y-92100001D01*
X104375000Y-92100001D01*
X104374999Y-92100000D01*
X103775002Y-92100000D01*
X103775001Y-92100001D01*
X103475000Y-92100001D01*
X103474999Y-92100000D01*
X102875001Y-92100000D01*
X102875000Y-92100001D01*
X102625000Y-92100001D01*
X102624999Y-92100000D01*
X102025002Y-92100000D01*
X102025001Y-92100001D01*
X99925500Y-92100001D01*
X99925500Y-92058993D01*
X99925499Y-91704565D01*
X102025000Y-91704565D01*
X102025000Y-91849999D01*
X102025001Y-91850000D01*
X102624999Y-91850000D01*
X102625000Y-91849999D01*
X102625000Y-91275001D01*
X102875000Y-91275001D01*
X102875000Y-91849999D01*
X102875001Y-91850000D01*
X103474998Y-91850000D01*
X103474999Y-91849999D01*
X103474999Y-91704569D01*
X103474998Y-91704565D01*
X103775000Y-91704565D01*
X103775000Y-91849999D01*
X103775001Y-91850000D01*
X104374999Y-91850000D01*
X104375000Y-91849999D01*
X104375000Y-91275001D01*
X104625000Y-91275001D01*
X104625000Y-91849999D01*
X104625001Y-91850000D01*
X105224998Y-91850000D01*
X105224999Y-91849999D01*
X105224999Y-91704569D01*
X105224998Y-91704565D01*
X105525000Y-91704565D01*
X105525000Y-91849999D01*
X105525001Y-91850000D01*
X106124999Y-91850000D01*
X106125000Y-91849999D01*
X106125000Y-91275001D01*
X106375000Y-91275001D01*
X106375000Y-91849999D01*
X106375001Y-91850000D01*
X106974998Y-91850000D01*
X106974999Y-91849999D01*
X106974999Y-91704569D01*
X106974998Y-91704563D01*
X106968918Y-91647995D01*
X106968917Y-91647993D01*
X106921185Y-91520016D01*
X106839331Y-91410672D01*
X106839327Y-91410668D01*
X106729983Y-91328814D01*
X106602009Y-91281083D01*
X106602001Y-91281081D01*
X106545434Y-91275000D01*
X106375001Y-91275000D01*
X106375000Y-91275001D01*
X106125000Y-91275001D01*
X106124999Y-91275000D01*
X105954569Y-91275000D01*
X105954563Y-91275001D01*
X105897995Y-91281081D01*
X105897993Y-91281082D01*
X105770016Y-91328814D01*
X105660672Y-91410668D01*
X105660668Y-91410672D01*
X105578814Y-91520016D01*
X105531083Y-91647990D01*
X105531081Y-91647998D01*
X105525000Y-91704565D01*
X105224998Y-91704565D01*
X105224998Y-91704562D01*
X105218918Y-91647995D01*
X105218917Y-91647993D01*
X105171185Y-91520016D01*
X105089331Y-91410672D01*
X105089327Y-91410668D01*
X104979983Y-91328814D01*
X104852009Y-91281083D01*
X104852001Y-91281081D01*
X104795434Y-91275000D01*
X104625001Y-91275000D01*
X104625000Y-91275001D01*
X104375000Y-91275001D01*
X104374999Y-91275000D01*
X104204569Y-91275000D01*
X104204563Y-91275001D01*
X104147995Y-91281081D01*
X104147993Y-91281082D01*
X104020016Y-91328814D01*
X103910672Y-91410668D01*
X103910668Y-91410672D01*
X103828814Y-91520016D01*
X103781083Y-91647990D01*
X103781081Y-91647998D01*
X103775000Y-91704565D01*
X103474998Y-91704565D01*
X103474998Y-91704562D01*
X103468918Y-91647995D01*
X103468917Y-91647993D01*
X103421185Y-91520016D01*
X103339331Y-91410672D01*
X103339327Y-91410668D01*
X103229983Y-91328814D01*
X103102009Y-91281083D01*
X103102001Y-91281081D01*
X103045434Y-91275000D01*
X102875001Y-91275000D01*
X102875000Y-91275001D01*
X102625000Y-91275001D01*
X102624999Y-91275000D01*
X102454569Y-91275000D01*
X102454563Y-91275001D01*
X102397995Y-91281081D01*
X102397993Y-91281082D01*
X102270016Y-91328814D01*
X102160672Y-91410668D01*
X102160668Y-91410672D01*
X102078814Y-91520016D01*
X102031083Y-91647990D01*
X102031081Y-91647998D01*
X102025000Y-91704565D01*
X99925499Y-91704565D01*
X99925499Y-91701912D01*
X99925499Y-91693479D01*
X99925498Y-91693476D01*
X99910647Y-91599700D01*
X99910646Y-91599698D01*
X99910646Y-91599696D01*
X99853050Y-91486658D01*
X99763342Y-91396950D01*
X99650304Y-91339354D01*
X99650305Y-91339354D01*
X99556522Y-91324500D01*
X98943479Y-91324500D01*
X98943476Y-91324501D01*
X98849700Y-91339352D01*
X98849695Y-91339354D01*
X98736659Y-91396949D01*
X98646949Y-91486659D01*
X98629734Y-91520446D01*
X98613344Y-91536835D01*
X98599716Y-91555593D01*
X98592117Y-91558061D01*
X98586469Y-91563710D01*
X98541525Y-91574500D01*
X98496208Y-91574500D01*
X98438017Y-91555593D01*
X98402053Y-91506093D01*
X98398699Y-91489866D01*
X98397686Y-91485231D01*
X98397686Y-91485226D01*
X98353455Y-91358821D01*
X98273930Y-91251070D01*
X98166179Y-91171545D01*
X98166176Y-91171544D01*
X98166175Y-91171543D01*
X98039777Y-91127315D01*
X98039776Y-91127314D01*
X98039774Y-91127314D01*
X98039771Y-91127313D01*
X98039768Y-91127313D01*
X98009773Y-91124500D01*
X98009764Y-91124500D01*
X96990236Y-91124500D01*
X96990226Y-91124500D01*
X96960231Y-91127313D01*
X96960222Y-91127315D01*
X96833824Y-91171543D01*
X96833821Y-91171544D01*
X96833821Y-91171545D01*
X96812513Y-91187271D01*
X96726071Y-91251069D01*
X96726069Y-91251071D01*
X96703920Y-91281082D01*
X96668692Y-91328814D01*
X96646543Y-91358824D01*
X96602315Y-91485222D01*
X96602313Y-91485231D01*
X96599500Y-91515226D01*
X93512804Y-91515226D01*
X93515223Y-91469073D01*
X93515708Y-91463185D01*
X93516201Y-91458813D01*
X93522880Y-91399527D01*
X93523465Y-91395213D01*
X93561984Y-91152011D01*
X93563234Y-91145537D01*
X93576205Y-91088709D01*
X93577050Y-91085301D01*
X93642528Y-90840932D01*
X93644695Y-90833909D01*
X93660080Y-90789940D01*
X93661032Y-90787345D01*
X93756117Y-90539639D01*
X93759317Y-90532230D01*
X93769858Y-90510341D01*
X93770753Y-90508534D01*
X93900007Y-90254861D01*
X93905179Y-90245903D01*
X93983695Y-90124999D01*
X116206085Y-90124999D01*
X116206086Y-90125000D01*
X116815856Y-90125000D01*
X116800000Y-90184174D01*
X116800000Y-90315826D01*
X116815856Y-90375000D01*
X116206085Y-90375000D01*
X116227084Y-90507579D01*
X116280588Y-90672248D01*
X116359195Y-90826524D01*
X116359197Y-90826528D01*
X116460962Y-90966596D01*
X116583403Y-91089037D01*
X116723471Y-91190802D01*
X116723475Y-91190804D01*
X116877751Y-91269411D01*
X117042420Y-91322915D01*
X117175000Y-91343913D01*
X117175000Y-90734144D01*
X117234174Y-90750000D01*
X117365826Y-90750000D01*
X117425000Y-90734144D01*
X117425000Y-91343912D01*
X117557579Y-91322915D01*
X117722248Y-91269411D01*
X117876524Y-91190804D01*
X117876528Y-91190802D01*
X118016596Y-91089037D01*
X118139037Y-90966596D01*
X118240802Y-90826528D01*
X118240804Y-90826524D01*
X118319411Y-90672248D01*
X118372915Y-90507579D01*
X118393914Y-90375000D01*
X117784144Y-90375000D01*
X117800000Y-90315826D01*
X117800000Y-90184174D01*
X117789914Y-90146532D01*
X118789500Y-90146532D01*
X118789500Y-90353467D01*
X118829869Y-90556418D01*
X118909058Y-90747597D01*
X119013744Y-90904272D01*
X119024023Y-90919655D01*
X119170345Y-91065977D01*
X119342402Y-91180941D01*
X119533580Y-91260130D01*
X119736535Y-91300500D01*
X119736536Y-91300500D01*
X119943464Y-91300500D01*
X119943465Y-91300500D01*
X120146420Y-91260130D01*
X120337598Y-91180941D01*
X120509655Y-91065977D01*
X120655977Y-90919655D01*
X120770941Y-90747598D01*
X120850130Y-90556420D01*
X120890500Y-90353465D01*
X120890500Y-90146535D01*
X120890499Y-90146532D01*
X121329500Y-90146532D01*
X121329500Y-90353467D01*
X121369869Y-90556418D01*
X121449058Y-90747597D01*
X121553744Y-90904272D01*
X121564023Y-90919655D01*
X121710345Y-91065977D01*
X121882402Y-91180941D01*
X122073580Y-91260130D01*
X122276535Y-91300500D01*
X122276536Y-91300500D01*
X122483464Y-91300500D01*
X122483465Y-91300500D01*
X122686420Y-91260130D01*
X122877598Y-91180941D01*
X123049655Y-91065977D01*
X123195977Y-90919655D01*
X123310941Y-90747598D01*
X123390130Y-90556420D01*
X123430500Y-90353465D01*
X123430500Y-90146535D01*
X123430499Y-90146532D01*
X123869500Y-90146532D01*
X123869500Y-90353467D01*
X123909869Y-90556418D01*
X123989058Y-90747597D01*
X124093744Y-90904272D01*
X124104023Y-90919655D01*
X124250345Y-91065977D01*
X124422402Y-91180941D01*
X124613580Y-91260130D01*
X124816535Y-91300500D01*
X124816536Y-91300500D01*
X125023464Y-91300500D01*
X125023465Y-91300500D01*
X125226420Y-91260130D01*
X125417598Y-91180941D01*
X125589655Y-91065977D01*
X125735977Y-90919655D01*
X125850941Y-90747598D01*
X125930130Y-90556420D01*
X125970500Y-90353465D01*
X125970500Y-90146535D01*
X125930130Y-89943580D01*
X125850941Y-89752402D01*
X125735977Y-89580345D01*
X125589655Y-89434023D01*
X125589651Y-89434020D01*
X125417597Y-89319058D01*
X125226418Y-89239869D01*
X125023467Y-89199500D01*
X125023465Y-89199500D01*
X124816535Y-89199500D01*
X124816532Y-89199500D01*
X124613581Y-89239869D01*
X124422402Y-89319058D01*
X124250348Y-89434020D01*
X124104020Y-89580348D01*
X123989058Y-89752402D01*
X123909869Y-89943581D01*
X123869500Y-90146532D01*
X123430499Y-90146532D01*
X123390130Y-89943580D01*
X123310941Y-89752402D01*
X123195977Y-89580345D01*
X123049655Y-89434023D01*
X123049651Y-89434020D01*
X122877597Y-89319058D01*
X122686418Y-89239869D01*
X122483467Y-89199500D01*
X122483465Y-89199500D01*
X122276535Y-89199500D01*
X122276532Y-89199500D01*
X122073581Y-89239869D01*
X121882402Y-89319058D01*
X121710348Y-89434020D01*
X121564020Y-89580348D01*
X121449058Y-89752402D01*
X121369869Y-89943581D01*
X121329500Y-90146532D01*
X120890499Y-90146532D01*
X120850130Y-89943580D01*
X120770941Y-89752402D01*
X120655977Y-89580345D01*
X120509655Y-89434023D01*
X120509651Y-89434020D01*
X120337597Y-89319058D01*
X120146418Y-89239869D01*
X119943467Y-89199500D01*
X119943465Y-89199500D01*
X119736535Y-89199500D01*
X119736532Y-89199500D01*
X119533581Y-89239869D01*
X119342402Y-89319058D01*
X119170348Y-89434020D01*
X119024020Y-89580348D01*
X118909058Y-89752402D01*
X118829869Y-89943581D01*
X118789500Y-90146532D01*
X117789914Y-90146532D01*
X117784144Y-90125000D01*
X118393914Y-90125000D01*
X118393914Y-90124999D01*
X118372914Y-89992419D01*
X118319411Y-89827751D01*
X118240804Y-89673475D01*
X118240802Y-89673471D01*
X118139037Y-89533403D01*
X118016596Y-89410962D01*
X117876528Y-89309197D01*
X117876524Y-89309195D01*
X117722248Y-89230588D01*
X117557579Y-89177084D01*
X117425000Y-89156085D01*
X117425000Y-89765855D01*
X117365826Y-89750000D01*
X117234174Y-89750000D01*
X117175000Y-89765855D01*
X117175000Y-89156086D01*
X117174999Y-89156085D01*
X117042420Y-89177084D01*
X116877751Y-89230588D01*
X116723475Y-89309195D01*
X116723471Y-89309197D01*
X116583403Y-89410962D01*
X116460962Y-89533403D01*
X116359197Y-89673471D01*
X116359195Y-89673475D01*
X116280588Y-89827751D01*
X116227084Y-89992420D01*
X116206085Y-90124999D01*
X93983695Y-90124999D01*
X94070536Y-89991276D01*
X94076606Y-89982921D01*
X94267676Y-89746969D01*
X94274590Y-89739289D01*
X94489289Y-89524590D01*
X94496969Y-89517676D01*
X94732921Y-89326606D01*
X94741276Y-89320536D01*
X94995903Y-89155179D01*
X95004861Y-89150007D01*
X95258534Y-89020753D01*
X95260341Y-89019858D01*
X95282230Y-89009317D01*
X95289639Y-89006117D01*
X95537345Y-88911032D01*
X95539940Y-88910080D01*
X95583909Y-88894695D01*
X95590932Y-88892528D01*
X95835301Y-88827050D01*
X95838709Y-88826205D01*
X95895537Y-88813234D01*
X95902011Y-88811984D01*
X96145213Y-88773465D01*
X96149527Y-88772880D01*
X96213199Y-88765706D01*
X96219075Y-88765222D01*
X96497405Y-88750635D01*
X96502586Y-88750500D01*
X145497414Y-88750500D01*
X145502594Y-88750635D01*
G37*
%TD.AperFunction*%
%TA.AperFunction,Conductor*%
G36*
X127593609Y-93978873D02*
G01*
X127647798Y-93993393D01*
X129815282Y-93993393D01*
X129873473Y-94012300D01*
X129885286Y-94022389D01*
X130520504Y-94657607D01*
X130548281Y-94712124D01*
X130549500Y-94727611D01*
X130549500Y-96239634D01*
X130547031Y-96247231D01*
X130548281Y-96255121D01*
X130537756Y-96275776D01*
X130530593Y-96297825D01*
X130520505Y-96309636D01*
X130460402Y-96369738D01*
X130405887Y-96397515D01*
X130345455Y-96387944D01*
X130332217Y-96379832D01*
X130261266Y-96328283D01*
X130261263Y-96328282D01*
X130261264Y-96328282D01*
X130203883Y-96309638D01*
X130133079Y-96286632D01*
X129998293Y-96286632D01*
X129870105Y-96328283D01*
X129870104Y-96328283D01*
X129788495Y-96387575D01*
X129387575Y-96788495D01*
X129328283Y-96870104D01*
X129328283Y-96870105D01*
X129286632Y-96998293D01*
X129286632Y-97133079D01*
X129325985Y-97254193D01*
X129328284Y-97261269D01*
X129329980Y-97264597D01*
X129330564Y-97268286D01*
X129330691Y-97268676D01*
X129330629Y-97268696D01*
X129339552Y-97325029D01*
X129311775Y-97379546D01*
X129311775Y-97379547D01*
X128878329Y-97812993D01*
X128823812Y-97840770D01*
X128763380Y-97831199D01*
X128738321Y-97812992D01*
X128352776Y-97427446D01*
X128303193Y-97394315D01*
X128294312Y-97390637D01*
X128247786Y-97350901D01*
X128240732Y-97337056D01*
X128237054Y-97328178D01*
X128237054Y-97328176D01*
X128203926Y-97278597D01*
X127787089Y-96861760D01*
X127768702Y-96849474D01*
X127730825Y-96801424D01*
X127726608Y-96786473D01*
X127717996Y-96743177D01*
X127676689Y-96681357D01*
X127676681Y-96681348D01*
X127577366Y-96582034D01*
X127577360Y-96582029D01*
X127553210Y-96557879D01*
X126810749Y-97300341D01*
X126068287Y-98042803D01*
X126159921Y-98134438D01*
X126187698Y-98188954D01*
X126178126Y-98249386D01*
X126175654Y-98253941D01*
X126117727Y-98354272D01*
X126117728Y-98354273D01*
X126090141Y-98457231D01*
X126087027Y-98468851D01*
X126087027Y-99096838D01*
X126105621Y-99166230D01*
X126105622Y-99166232D01*
X126108184Y-99175793D01*
X126117728Y-99211414D01*
X126177038Y-99314141D01*
X126181130Y-99318233D01*
X126187152Y-99330355D01*
X126190292Y-99351578D01*
X126197455Y-99371802D01*
X126194673Y-99381193D01*
X126196107Y-99390881D01*
X126186173Y-99409895D01*
X126180081Y-99430468D01*
X126168493Y-99444403D01*
X124468468Y-101144427D01*
X124413951Y-101172204D01*
X124372924Y-101170072D01*
X124371984Y-101169821D01*
X124371901Y-101169799D01*
X124368572Y-101168907D01*
X124296144Y-101149500D01*
X124296142Y-101149500D01*
X123018750Y-101149500D01*
X122960559Y-101130593D01*
X122924595Y-101081093D01*
X122924595Y-101019907D01*
X122933013Y-101001000D01*
X122966391Y-100943187D01*
X122966392Y-100943186D01*
X123000500Y-100815892D01*
X123000500Y-100684108D01*
X122966392Y-100556814D01*
X122966390Y-100556811D01*
X122966390Y-100556809D01*
X122900503Y-100442690D01*
X122900501Y-100442688D01*
X122900500Y-100442686D01*
X122807314Y-100349500D01*
X122807311Y-100349498D01*
X122807309Y-100349496D01*
X122693189Y-100283609D01*
X122693191Y-100283609D01*
X122643799Y-100270375D01*
X122565892Y-100249500D01*
X122434108Y-100249500D01*
X122423957Y-100252220D01*
X122362856Y-100249017D01*
X122315306Y-100210511D01*
X122299471Y-100151411D01*
X122321398Y-100094289D01*
X122328331Y-100086589D01*
X122635424Y-99779496D01*
X122689941Y-99751719D01*
X122705428Y-99750500D01*
X122815890Y-99750500D01*
X122815892Y-99750500D01*
X122943186Y-99716392D01*
X122943188Y-99716390D01*
X122943190Y-99716390D01*
X123057309Y-99650503D01*
X123057309Y-99650502D01*
X123057314Y-99650500D01*
X123150500Y-99557314D01*
X123154434Y-99550500D01*
X123216390Y-99443190D01*
X123216390Y-99443188D01*
X123216392Y-99443186D01*
X123250500Y-99315892D01*
X123250500Y-99184108D01*
X123216392Y-99056814D01*
X123216390Y-99056810D01*
X123216390Y-99056809D01*
X123150503Y-98942690D01*
X123150501Y-98942688D01*
X123150500Y-98942686D01*
X123057314Y-98849500D01*
X123057311Y-98849498D01*
X123057309Y-98849496D01*
X122943189Y-98783609D01*
X122943191Y-98783609D01*
X122893799Y-98770375D01*
X122815892Y-98749500D01*
X122684108Y-98749500D01*
X122606200Y-98770375D01*
X122556809Y-98783609D01*
X122442690Y-98849496D01*
X122349496Y-98942690D01*
X122283609Y-99056810D01*
X122283608Y-99056813D01*
X122260042Y-99144756D01*
X122234420Y-99189135D01*
X121612654Y-99810901D01*
X121558137Y-99838678D01*
X121497705Y-99829107D01*
X121456914Y-99790398D01*
X121400500Y-99692686D01*
X121307314Y-99599500D01*
X121307311Y-99599498D01*
X121307309Y-99599496D01*
X121193189Y-99533609D01*
X121193191Y-99533609D01*
X121143799Y-99520375D01*
X121065892Y-99499500D01*
X120934108Y-99499500D01*
X120856200Y-99520375D01*
X120806809Y-99533609D01*
X120692690Y-99599496D01*
X120692684Y-99599500D01*
X120652531Y-99639654D01*
X120645414Y-99643279D01*
X120640719Y-99649743D01*
X120618667Y-99656907D01*
X120598014Y-99667431D01*
X120582528Y-99668650D01*
X120474872Y-99668650D01*
X120416681Y-99649743D01*
X120380717Y-99600243D01*
X120380717Y-99539057D01*
X120404868Y-99499646D01*
X120449518Y-99454996D01*
X120496462Y-99408052D01*
X120529590Y-99358473D01*
X120529591Y-99358464D01*
X120533266Y-99349595D01*
X120573000Y-99303066D01*
X120586852Y-99296008D01*
X120595725Y-99292332D01*
X120595731Y-99292331D01*
X120645310Y-99259203D01*
X121062147Y-98842366D01*
X121095275Y-98792787D01*
X121095276Y-98792781D01*
X121098952Y-98783908D01*
X121138686Y-98737380D01*
X121152537Y-98730323D01*
X121161410Y-98726647D01*
X121161416Y-98726646D01*
X121210995Y-98693518D01*
X121627832Y-98276681D01*
X121660960Y-98227102D01*
X121660961Y-98227093D01*
X121664636Y-98218224D01*
X121704370Y-98171695D01*
X121718224Y-98164636D01*
X121727093Y-98160961D01*
X121727102Y-98160960D01*
X121776681Y-98127832D01*
X122193518Y-97710995D01*
X122226646Y-97661416D01*
X122226647Y-97661410D01*
X122230323Y-97652537D01*
X122270057Y-97606009D01*
X122283908Y-97598952D01*
X122292781Y-97595276D01*
X122292787Y-97595275D01*
X122342366Y-97562147D01*
X122759203Y-97145310D01*
X122792331Y-97095731D01*
X122792332Y-97095725D01*
X122796008Y-97086852D01*
X122835742Y-97040324D01*
X122849595Y-97033266D01*
X122858464Y-97029591D01*
X122858473Y-97029590D01*
X122908052Y-96996462D01*
X123324889Y-96579625D01*
X123358017Y-96530046D01*
X123358018Y-96530037D01*
X123361693Y-96521168D01*
X123401427Y-96474639D01*
X123415279Y-96467581D01*
X123424152Y-96463905D01*
X123424158Y-96463904D01*
X123473737Y-96430776D01*
X123890574Y-96013939D01*
X123917685Y-95973365D01*
X123965735Y-95935486D01*
X124026873Y-95933084D01*
X124077747Y-95967077D01*
X124082315Y-95973365D01*
X124109025Y-96013340D01*
X124109426Y-96013939D01*
X124526263Y-96430776D01*
X124575842Y-96463904D01*
X124575844Y-96463904D01*
X124584718Y-96467580D01*
X124631246Y-96507313D01*
X124638302Y-96521160D01*
X124641982Y-96530046D01*
X124673785Y-96577641D01*
X124675111Y-96579625D01*
X125091948Y-96996462D01*
X125141527Y-97029590D01*
X125141530Y-97029590D01*
X125150406Y-97033267D01*
X125196934Y-97073001D01*
X125203989Y-97086848D01*
X125207667Y-97095729D01*
X125219748Y-97113809D01*
X125240797Y-97145310D01*
X125657634Y-97562147D01*
X125676016Y-97574430D01*
X125713896Y-97622479D01*
X125718112Y-97637429D01*
X125726725Y-97680726D01*
X125726725Y-97680727D01*
X125768033Y-97742548D01*
X125768040Y-97742557D01*
X125891509Y-97866026D01*
X126633974Y-97123565D01*
X127204505Y-96553032D01*
X128527729Y-96553032D01*
X128630568Y-96655871D01*
X128674870Y-96691573D01*
X128799117Y-96748314D01*
X128799120Y-96748315D01*
X128934311Y-96767753D01*
X128934317Y-96767753D01*
X129069508Y-96748315D01*
X129069511Y-96748314D01*
X129193758Y-96691573D01*
X129193761Y-96691571D01*
X129238060Y-96655872D01*
X129358577Y-96535354D01*
X128951992Y-96128769D01*
X128527729Y-96553032D01*
X127204505Y-96553032D01*
X127376434Y-96381102D01*
X127376434Y-96381101D01*
X127252965Y-96257632D01*
X127252956Y-96257625D01*
X127191135Y-96216317D01*
X127147837Y-96207704D01*
X127094454Y-96177807D01*
X127084840Y-96165612D01*
X127072555Y-96147226D01*
X126894996Y-95969667D01*
X128136231Y-95969667D01*
X128136231Y-95969672D01*
X128155668Y-96104863D01*
X128155669Y-96104866D01*
X128212410Y-96229112D01*
X128212412Y-96229115D01*
X128248111Y-96273416D01*
X128350950Y-96376254D01*
X128775213Y-95951992D01*
X129128769Y-95951992D01*
X129535354Y-96358577D01*
X129655876Y-96238054D01*
X129691572Y-96193760D01*
X129748314Y-96069511D01*
X129748315Y-96069508D01*
X129767753Y-95934316D01*
X129767753Y-95934311D01*
X129748315Y-95799120D01*
X129748314Y-95799117D01*
X129691573Y-95674871D01*
X129691571Y-95674868D01*
X129655872Y-95630567D01*
X129553032Y-95527728D01*
X129128769Y-95951992D01*
X128775213Y-95951992D01*
X128775214Y-95951991D01*
X128368628Y-95545405D01*
X128248111Y-95665924D01*
X128212411Y-95710223D01*
X128155669Y-95834472D01*
X128155668Y-95834475D01*
X128136231Y-95969667D01*
X126894996Y-95969667D01*
X126655718Y-95730389D01*
X126655717Y-95730388D01*
X126606139Y-95697260D01*
X126597253Y-95693580D01*
X126550727Y-95653843D01*
X126543673Y-95639996D01*
X126539997Y-95631122D01*
X126539997Y-95631120D01*
X126506869Y-95581541D01*
X126293956Y-95368628D01*
X128545405Y-95368628D01*
X128951991Y-95775214D01*
X129376254Y-95350951D01*
X129273415Y-95248112D01*
X129229113Y-95212410D01*
X129104866Y-95155669D01*
X129104863Y-95155668D01*
X128969673Y-95136231D01*
X128969667Y-95136231D01*
X128834475Y-95155668D01*
X128834472Y-95155669D01*
X128710225Y-95212410D01*
X128710222Y-95212412D01*
X128665923Y-95248111D01*
X128545405Y-95368628D01*
X126293956Y-95368628D01*
X126090032Y-95164704D01*
X126090031Y-95164703D01*
X126040451Y-95131574D01*
X126031570Y-95127896D01*
X125985044Y-95088160D01*
X125977989Y-95074313D01*
X125974312Y-95065435D01*
X125974312Y-95065434D01*
X125941184Y-95015855D01*
X125524347Y-94599018D01*
X125492310Y-94577611D01*
X125474769Y-94565890D01*
X125474766Y-94565889D01*
X125396537Y-94550330D01*
X125396535Y-94550330D01*
X125318306Y-94565889D01*
X125318304Y-94565890D01*
X125268728Y-94599015D01*
X124109423Y-95758320D01*
X124082316Y-95798890D01*
X124034266Y-95836770D01*
X123973128Y-95839172D01*
X123922254Y-95805179D01*
X123917684Y-95798890D01*
X123890576Y-95758320D01*
X123890574Y-95758317D01*
X122731275Y-94599018D01*
X122681695Y-94565890D01*
X122681693Y-94565889D01*
X122603465Y-94550330D01*
X122603463Y-94550330D01*
X122525233Y-94565889D01*
X122525230Y-94565890D01*
X122475653Y-94599017D01*
X122058815Y-95015855D01*
X122025686Y-95065435D01*
X122022008Y-95074317D01*
X121982272Y-95120843D01*
X121968431Y-95127896D01*
X121959545Y-95131576D01*
X121909968Y-95164703D01*
X121493130Y-95581541D01*
X121460003Y-95631118D01*
X121456323Y-95640004D01*
X121416585Y-95686529D01*
X121402744Y-95693581D01*
X121393862Y-95697259D01*
X121344282Y-95730388D01*
X120927444Y-96147226D01*
X120894317Y-96196803D01*
X120890637Y-96205689D01*
X120850899Y-96252214D01*
X120837060Y-96259266D01*
X120828174Y-96262946D01*
X120778597Y-96296073D01*
X120519504Y-96555167D01*
X120464987Y-96582944D01*
X120404555Y-96573373D01*
X120361290Y-96530108D01*
X120350500Y-96485163D01*
X120350500Y-96086190D01*
X120369407Y-96027999D01*
X120379496Y-96016186D01*
X121355470Y-95040212D01*
X121409026Y-94986656D01*
X121597537Y-94798143D01*
X121641918Y-94772521D01*
X121693186Y-94758785D01*
X121807314Y-94692893D01*
X121900500Y-94599707D01*
X121966392Y-94485579D01*
X122000500Y-94358285D01*
X122000500Y-94226501D01*
X121966637Y-94100121D01*
X121969840Y-94039021D01*
X122008345Y-93991471D01*
X122062264Y-93975500D01*
X127567986Y-93975500D01*
X127593609Y-93978873D01*
G37*
%TD.AperFunction*%
%TD*%
M02*
