%TF.GenerationSoftware,KiCad,Pcbnew,9.0.0*%
%TF.CreationDate,2025-06-05T15:48:38-04:00*%
%TF.ProjectId,microkfd,6d696372-6f6b-4666-942e-6b696361645f,B*%
%TF.SameCoordinates,Original*%
%TF.FileFunction,Paste,Top*%
%TF.FilePolarity,Positive*%
%FSLAX46Y46*%
G04 Gerber Fmt 4.6, Leading zero omitted, Abs format (unit mm)*
G04 Created by KiCad (PCBNEW 9.0.0) date 2025-06-05 15:48:38*
%MOMM*%
%LPD*%
G01*
G04 APERTURE LIST*
G04 Aperture macros list*
%AMRoundRect*
0 Rectangle with rounded corners*
0 $1 Rounding radius*
0 $2 $3 $4 $5 $6 $7 $8 $9 X,Y pos of 4 corners*
0 Add a 4 corners polygon primitive as box body*
4,1,4,$2,$3,$4,$5,$6,$7,$8,$9,$2,$3,0*
0 Add four circle primitives for the rounded corners*
1,1,$1+$1,$2,$3*
1,1,$1+$1,$4,$5*
1,1,$1+$1,$6,$7*
1,1,$1+$1,$8,$9*
0 Add four rect primitives between the rounded corners*
20,1,$1+$1,$2,$3,$4,$5,0*
20,1,$1+$1,$4,$5,$6,$7,0*
20,1,$1+$1,$6,$7,$8,$9,0*
20,1,$1+$1,$8,$9,$2,$3,0*%
%AMRotRect*
0 Rectangle, with rotation*
0 The origin of the aperture is its center*
0 $1 length*
0 $2 width*
0 $3 Rotation angle, in degrees counterclockwise*
0 Add horizontal line*
21,1,$1,$2,0,0,$3*%
G04 Aperture macros list end*
%ADD10RoundRect,0.243750X0.456250X-0.243750X0.456250X0.243750X-0.456250X0.243750X-0.456250X-0.243750X0*%
%ADD11RoundRect,0.243750X-0.456250X0.243750X-0.456250X-0.243750X0.456250X-0.243750X0.456250X0.243750X0*%
%ADD12RoundRect,0.200000X-0.335876X-0.053033X-0.053033X-0.335876X0.335876X0.053033X0.053033X0.335876X0*%
%ADD13RoundRect,0.200000X-0.275000X0.200000X-0.275000X-0.200000X0.275000X-0.200000X0.275000X0.200000X0*%
%ADD14RoundRect,0.200000X0.275000X-0.200000X0.275000X0.200000X-0.275000X0.200000X-0.275000X-0.200000X0*%
%ADD15RoundRect,0.200000X0.200000X0.275000X-0.200000X0.275000X-0.200000X-0.275000X0.200000X-0.275000X0*%
%ADD16RoundRect,0.200000X0.335876X0.053033X0.053033X0.335876X-0.335876X-0.053033X-0.053033X-0.335876X0*%
%ADD17RoundRect,0.225000X-0.225000X-0.250000X0.225000X-0.250000X0.225000X0.250000X-0.225000X0.250000X0*%
%ADD18RoundRect,0.225000X-0.017678X0.335876X-0.335876X0.017678X0.017678X-0.335876X0.335876X-0.017678X0*%
%ADD19RoundRect,0.225000X0.017678X-0.335876X0.335876X-0.017678X-0.017678X0.335876X-0.335876X0.017678X0*%
%ADD20RoundRect,0.225000X-0.250000X0.225000X-0.250000X-0.225000X0.250000X-0.225000X0.250000X0.225000X0*%
%ADD21RoundRect,0.225000X-0.335876X-0.017678X-0.017678X-0.335876X0.335876X0.017678X0.017678X0.335876X0*%
%ADD22RoundRect,0.225000X0.225000X0.250000X-0.225000X0.250000X-0.225000X-0.250000X0.225000X-0.250000X0*%
%ADD23RoundRect,0.225000X0.250000X-0.225000X0.250000X0.225000X-0.250000X0.225000X-0.250000X-0.225000X0*%
%ADD24RoundRect,0.150000X-0.512500X-0.150000X0.512500X-0.150000X0.512500X0.150000X-0.512500X0.150000X0*%
%ADD25RoundRect,0.225000X-0.225000X-0.225000X0.225000X-0.225000X0.225000X0.225000X-0.225000X0.225000X0*%
%ADD26RoundRect,0.062500X-0.337500X-0.062500X0.337500X-0.062500X0.337500X0.062500X-0.337500X0.062500X0*%
%ADD27RoundRect,0.062500X-0.062500X-0.337500X0.062500X-0.337500X0.062500X0.337500X-0.062500X0.337500X0*%
%ADD28RoundRect,0.218750X-0.218750X-0.256250X0.218750X-0.256250X0.218750X0.256250X-0.218750X0.256250X0*%
%ADD29RoundRect,0.218750X-0.256250X0.218750X-0.256250X-0.218750X0.256250X-0.218750X0.256250X0.218750X0*%
%ADD30R,1.200000X2.500000*%
%ADD31R,1.450000X0.600000*%
%ADD32R,1.450000X0.300000*%
%ADD33RotRect,1.400000X1.200000X135.000000*%
%ADD34RoundRect,0.150000X-0.587500X-0.150000X0.587500X-0.150000X0.587500X0.150000X-0.587500X0.150000X0*%
%ADD35RotRect,1.600000X0.550000X45.000000*%
%ADD36RotRect,1.600000X0.550000X135.000000*%
G04 APERTURE END LIST*
D10*
%TO.C,D3*%
X97500000Y-93687500D03*
X97500000Y-91812500D03*
%TD*%
%TO.C,D2*%
X145750000Y-93187500D03*
X145750000Y-91312500D03*
%TD*%
D11*
%TO.C,D1*%
X145750000Y-106812500D03*
X145750000Y-108687500D03*
%TD*%
D12*
%TO.C,R7*%
X116416637Y-96416637D03*
X117583363Y-97583363D03*
%TD*%
%TO.C,R6*%
X117666637Y-95166637D03*
X118833363Y-96333363D03*
%TD*%
D13*
%TO.C,R18*%
X142000000Y-106925000D03*
X142000000Y-108575000D03*
%TD*%
D14*
%TO.C,R17*%
X142000000Y-93075000D03*
X142000000Y-91425000D03*
%TD*%
D15*
%TO.C,R16*%
X110075000Y-104500000D03*
X108425000Y-104500000D03*
%TD*%
D14*
%TO.C,R15*%
X135812500Y-108575000D03*
X135812500Y-106925000D03*
%TD*%
%TO.C,R14*%
X135750000Y-93075000D03*
X135750000Y-91425000D03*
%TD*%
D13*
%TO.C,R13*%
X133562500Y-106925000D03*
X133562500Y-108575000D03*
%TD*%
%TO.C,R12*%
X133500000Y-91425000D03*
X133500000Y-93075000D03*
%TD*%
D15*
%TO.C,R11*%
X107075000Y-95500000D03*
X105425000Y-95500000D03*
%TD*%
%TO.C,R10*%
X103575000Y-104500000D03*
X101925000Y-104500000D03*
%TD*%
D16*
%TO.C,R9*%
X129583363Y-106833363D03*
X128416637Y-105666637D03*
%TD*%
%TO.C,R8*%
X128083363Y-108333363D03*
X126916637Y-107166637D03*
%TD*%
D15*
%TO.C,R5*%
X103575000Y-95500000D03*
X101925000Y-95500000D03*
%TD*%
D13*
%TO.C,R4*%
X99250000Y-91925000D03*
X99250000Y-93575000D03*
%TD*%
D17*
%TO.C,C9*%
X108475000Y-95500000D03*
X110025000Y-95500000D03*
%TD*%
D18*
%TO.C,C8*%
X116998008Y-103201992D03*
X115901992Y-104298008D03*
%TD*%
D19*
%TO.C,C7*%
X120201992Y-108548008D03*
X121298008Y-107451992D03*
%TD*%
D20*
%TO.C,C6*%
X104500000Y-91975000D03*
X104500000Y-93525000D03*
%TD*%
D21*
%TO.C,C5*%
X128951992Y-95951992D03*
X130048008Y-97048008D03*
%TD*%
D22*
%TO.C,C3*%
X106775000Y-104500000D03*
X105225000Y-104500000D03*
%TD*%
D23*
%TO.C,C2*%
X102750000Y-93525000D03*
X102750000Y-91975000D03*
%TD*%
%TO.C,C1*%
X106250000Y-93525000D03*
X106250000Y-91975000D03*
%TD*%
D24*
%TO.C,U1*%
X101862500Y-99050000D03*
X101862500Y-100000000D03*
X101862500Y-100950000D03*
X104137500Y-100950000D03*
X104137500Y-100000000D03*
X104137500Y-99050000D03*
%TD*%
D25*
%TO.C,U3*%
X110130000Y-98880000D03*
X110130000Y-100000000D03*
X110130000Y-101120000D03*
X111250000Y-98880000D03*
X111250000Y-100000000D03*
X111250000Y-101120000D03*
X112370000Y-98880000D03*
X112370000Y-100000000D03*
X112370000Y-101120000D03*
D26*
X108800000Y-98500000D03*
X108800000Y-99000000D03*
X108800000Y-99500000D03*
X108800000Y-100000000D03*
X108800000Y-100500000D03*
X108800000Y-101000000D03*
X108800000Y-101500000D03*
D27*
X109750000Y-102450000D03*
X110250000Y-102450000D03*
X110750000Y-102450000D03*
X111250000Y-102450000D03*
X111750000Y-102450000D03*
X112250000Y-102450000D03*
X112750000Y-102450000D03*
D26*
X113700000Y-101500000D03*
X113700000Y-101000000D03*
X113700000Y-100500000D03*
X113700000Y-100000000D03*
X113700000Y-99500000D03*
X113700000Y-99000000D03*
X113700000Y-98500000D03*
D27*
X112750000Y-97550000D03*
X112250000Y-97550000D03*
X111750000Y-97550000D03*
X111250000Y-97550000D03*
X110750000Y-97550000D03*
X110250000Y-97550000D03*
X109750000Y-97550000D03*
%TD*%
D28*
%TO.C,F1*%
X101962500Y-97300000D03*
X103537500Y-97300000D03*
%TD*%
D29*
%TO.C,D5*%
X143750000Y-106962500D03*
X143750000Y-108537500D03*
%TD*%
%TO.C,D4*%
X143750000Y-91462500D03*
X143750000Y-93037500D03*
%TD*%
D30*
%TO.C,J3*%
X142300000Y-103250000D03*
X145300000Y-103250000D03*
X137200000Y-96750000D03*
X138300000Y-103250000D03*
%TD*%
D31*
%TO.C,J1*%
X99695000Y-96750000D03*
X99695000Y-97550000D03*
D32*
X99695000Y-98250000D03*
X99695000Y-99250000D03*
X99695000Y-100750000D03*
X99695000Y-101750000D03*
D31*
X99695000Y-102450000D03*
X99695000Y-103250000D03*
X99695000Y-103250000D03*
X99695000Y-102450000D03*
D32*
X99695000Y-101250000D03*
X99695000Y-100250000D03*
X99695000Y-99750000D03*
X99695000Y-98750000D03*
D31*
X99695000Y-97550000D03*
X99695000Y-96750000D03*
%TD*%
D33*
%TO.C,Y1*%
X118676777Y-107378858D03*
X117121142Y-105823223D03*
X118323223Y-104621142D03*
X119878858Y-106176777D03*
%TD*%
D34*
%TO.C,Q2*%
X138125000Y-106800000D03*
X138125000Y-108700000D03*
X140000000Y-107750000D03*
%TD*%
D35*
%TO.C,U2*%
X119014897Y-101525305D03*
X119580583Y-102090990D03*
X120146268Y-102656676D03*
X120711953Y-103222361D03*
X121277639Y-103788047D03*
X121843324Y-104353732D03*
X122409010Y-104919417D03*
X122974695Y-105485103D03*
D36*
X125025305Y-105485103D03*
X125590990Y-104919417D03*
X126156676Y-104353732D03*
X126722361Y-103788047D03*
X127288047Y-103222361D03*
X127853732Y-102656676D03*
X128419417Y-102090990D03*
X128985103Y-101525305D03*
D35*
X128985103Y-99474695D03*
X128419417Y-98909010D03*
X127853732Y-98343324D03*
X127288047Y-97777639D03*
X126722361Y-97211953D03*
X126156676Y-96646268D03*
X125590990Y-96080583D03*
X125025305Y-95514897D03*
D36*
X122974695Y-95514897D03*
X122409010Y-96080583D03*
X121843324Y-96646268D03*
X121277639Y-97211953D03*
X120711953Y-97777639D03*
X120146268Y-98343324D03*
X119580583Y-98909010D03*
X119014897Y-99474695D03*
%TD*%
D34*
%TO.C,Q1*%
X138062500Y-91300000D03*
X138062500Y-93200000D03*
X139937500Y-92250000D03*
%TD*%
M02*
