%TF.GenerationSoftware,KiCad,Pcbnew,(6.0.0)*%
%TF.CreationDate,2022-01-08T12:12:36-06:00*%
%TF.ProjectId,microkfd,6d696372-6f6b-4666-942e-6b696361645f,B*%
%TF.SameCoordinates,Original*%
%TF.FileFunction,Legend,Top*%
%TF.FilePolarity,Positive*%
%FSLAX46Y46*%
G04 Gerber Fmt 4.6, Leading zero omitted, Abs format (unit mm)*
G04 Created by KiCad (PCBNEW (6.0.0)) date 2022-01-08 12:12:36*
%MOMM*%
%LPD*%
G01*
G04 APERTURE LIST*
%ADD10C,0.150000*%
%ADD11C,0.120000*%
G04 APERTURE END LIST*
D10*
%TO.C,U2*%
X114238095Y-92002380D02*
X114238095Y-92811904D01*
X114285714Y-92907142D01*
X114333333Y-92954761D01*
X114428571Y-93002380D01*
X114619047Y-93002380D01*
X114714285Y-92954761D01*
X114761904Y-92907142D01*
X114809523Y-92811904D01*
X114809523Y-92002380D01*
X115238095Y-92097619D02*
X115285714Y-92050000D01*
X115380952Y-92002380D01*
X115619047Y-92002380D01*
X115714285Y-92050000D01*
X115761904Y-92097619D01*
X115809523Y-92192857D01*
X115809523Y-92288095D01*
X115761904Y-92430952D01*
X115190476Y-93002380D01*
X115809523Y-93002380D01*
%TO.C,J1*%
X97452380Y-100333333D02*
X98166666Y-100333333D01*
X98309523Y-100380952D01*
X98404761Y-100476190D01*
X98452380Y-100619047D01*
X98452380Y-100714285D01*
X98452380Y-99333333D02*
X98452380Y-99904761D01*
X98452380Y-99619047D02*
X97452380Y-99619047D01*
X97595238Y-99714285D01*
X97690476Y-99809523D01*
X97738095Y-99904761D01*
%TO.C,C1*%
X119083333Y-107857142D02*
X119035714Y-107904761D01*
X118892857Y-107952380D01*
X118797619Y-107952380D01*
X118654761Y-107904761D01*
X118559523Y-107809523D01*
X118511904Y-107714285D01*
X118464285Y-107523809D01*
X118464285Y-107380952D01*
X118511904Y-107190476D01*
X118559523Y-107095238D01*
X118654761Y-107000000D01*
X118797619Y-106952380D01*
X118892857Y-106952380D01*
X119035714Y-107000000D01*
X119083333Y-107047619D01*
X120035714Y-107952380D02*
X119464285Y-107952380D01*
X119750000Y-107952380D02*
X119750000Y-106952380D01*
X119654761Y-107095238D01*
X119559523Y-107190476D01*
X119464285Y-107238095D01*
%TO.C,C2*%
X110583333Y-107857142D02*
X110535714Y-107904761D01*
X110392857Y-107952380D01*
X110297619Y-107952380D01*
X110154761Y-107904761D01*
X110059523Y-107809523D01*
X110011904Y-107714285D01*
X109964285Y-107523809D01*
X109964285Y-107380952D01*
X110011904Y-107190476D01*
X110059523Y-107095238D01*
X110154761Y-107000000D01*
X110297619Y-106952380D01*
X110392857Y-106952380D01*
X110535714Y-107000000D01*
X110583333Y-107047619D01*
X110964285Y-107047619D02*
X111011904Y-107000000D01*
X111107142Y-106952380D01*
X111345238Y-106952380D01*
X111440476Y-107000000D01*
X111488095Y-107047619D01*
X111535714Y-107142857D01*
X111535714Y-107238095D01*
X111488095Y-107380952D01*
X110916666Y-107952380D01*
X111535714Y-107952380D01*
%TO.C,C3*%
X109107142Y-105666666D02*
X109154761Y-105714285D01*
X109202380Y-105857142D01*
X109202380Y-105952380D01*
X109154761Y-106095238D01*
X109059523Y-106190476D01*
X108964285Y-106238095D01*
X108773809Y-106285714D01*
X108630952Y-106285714D01*
X108440476Y-106238095D01*
X108345238Y-106190476D01*
X108250000Y-106095238D01*
X108202380Y-105952380D01*
X108202380Y-105857142D01*
X108250000Y-105714285D01*
X108297619Y-105666666D01*
X108202380Y-105333333D02*
X108202380Y-104714285D01*
X108583333Y-105047619D01*
X108583333Y-104904761D01*
X108630952Y-104809523D01*
X108678571Y-104761904D01*
X108773809Y-104714285D01*
X109011904Y-104714285D01*
X109107142Y-104761904D01*
X109154761Y-104809523D01*
X109202380Y-104904761D01*
X109202380Y-105190476D01*
X109154761Y-105285714D01*
X109107142Y-105333333D01*
%TO.C,C4*%
X96857142Y-89666666D02*
X96904761Y-89714285D01*
X96952380Y-89857142D01*
X96952380Y-89952380D01*
X96904761Y-90095238D01*
X96809523Y-90190476D01*
X96714285Y-90238095D01*
X96523809Y-90285714D01*
X96380952Y-90285714D01*
X96190476Y-90238095D01*
X96095238Y-90190476D01*
X96000000Y-90095238D01*
X95952380Y-89952380D01*
X95952380Y-89857142D01*
X96000000Y-89714285D01*
X96047619Y-89666666D01*
X96285714Y-88809523D02*
X96952380Y-88809523D01*
X95904761Y-89047619D02*
X96619047Y-89285714D01*
X96619047Y-88666666D01*
%TO.C,C5*%
X127333333Y-107607142D02*
X127285714Y-107654761D01*
X127142857Y-107702380D01*
X127047619Y-107702380D01*
X126904761Y-107654761D01*
X126809523Y-107559523D01*
X126761904Y-107464285D01*
X126714285Y-107273809D01*
X126714285Y-107130952D01*
X126761904Y-106940476D01*
X126809523Y-106845238D01*
X126904761Y-106750000D01*
X127047619Y-106702380D01*
X127142857Y-106702380D01*
X127285714Y-106750000D01*
X127333333Y-106797619D01*
X128238095Y-106702380D02*
X127761904Y-106702380D01*
X127714285Y-107178571D01*
X127761904Y-107130952D01*
X127857142Y-107083333D01*
X128095238Y-107083333D01*
X128190476Y-107130952D01*
X128238095Y-107178571D01*
X128285714Y-107273809D01*
X128285714Y-107511904D01*
X128238095Y-107607142D01*
X128190476Y-107654761D01*
X128095238Y-107702380D01*
X127857142Y-107702380D01*
X127761904Y-107654761D01*
X127714285Y-107607142D01*
%TO.C,C6*%
X101857142Y-91916666D02*
X101904761Y-91964285D01*
X101952380Y-92107142D01*
X101952380Y-92202380D01*
X101904761Y-92345238D01*
X101809523Y-92440476D01*
X101714285Y-92488095D01*
X101523809Y-92535714D01*
X101380952Y-92535714D01*
X101190476Y-92488095D01*
X101095238Y-92440476D01*
X101000000Y-92345238D01*
X100952380Y-92202380D01*
X100952380Y-92107142D01*
X101000000Y-91964285D01*
X101047619Y-91916666D01*
X100952380Y-91059523D02*
X100952380Y-91250000D01*
X101000000Y-91345238D01*
X101047619Y-91392857D01*
X101190476Y-91488095D01*
X101380952Y-91535714D01*
X101761904Y-91535714D01*
X101857142Y-91488095D01*
X101904761Y-91440476D01*
X101952380Y-91345238D01*
X101952380Y-91154761D01*
X101904761Y-91059523D01*
X101857142Y-91011904D01*
X101761904Y-90964285D01*
X101523809Y-90964285D01*
X101428571Y-91011904D01*
X101380952Y-91059523D01*
X101333333Y-91154761D01*
X101333333Y-91345238D01*
X101380952Y-91440476D01*
X101428571Y-91488095D01*
X101523809Y-91535714D01*
%TO.C,D1*%
X140261904Y-95452380D02*
X140261904Y-94452380D01*
X140500000Y-94452380D01*
X140642857Y-94500000D01*
X140738095Y-94595238D01*
X140785714Y-94690476D01*
X140833333Y-94880952D01*
X140833333Y-95023809D01*
X140785714Y-95214285D01*
X140738095Y-95309523D01*
X140642857Y-95404761D01*
X140500000Y-95452380D01*
X140261904Y-95452380D01*
X141785714Y-95452380D02*
X141214285Y-95452380D01*
X141500000Y-95452380D02*
X141500000Y-94452380D01*
X141404761Y-94595238D01*
X141309523Y-94690476D01*
X141214285Y-94738095D01*
%TO.C,D2*%
X137261904Y-104202380D02*
X137261904Y-103202380D01*
X137500000Y-103202380D01*
X137642857Y-103250000D01*
X137738095Y-103345238D01*
X137785714Y-103440476D01*
X137833333Y-103630952D01*
X137833333Y-103773809D01*
X137785714Y-103964285D01*
X137738095Y-104059523D01*
X137642857Y-104154761D01*
X137500000Y-104202380D01*
X137261904Y-104202380D01*
X138214285Y-103297619D02*
X138261904Y-103250000D01*
X138357142Y-103202380D01*
X138595238Y-103202380D01*
X138690476Y-103250000D01*
X138738095Y-103297619D01*
X138785714Y-103392857D01*
X138785714Y-103488095D01*
X138738095Y-103630952D01*
X138166666Y-104202380D01*
X138785714Y-104202380D01*
%TO.C,D3*%
X92511904Y-107702380D02*
X92511904Y-106702380D01*
X92750000Y-106702380D01*
X92892857Y-106750000D01*
X92988095Y-106845238D01*
X93035714Y-106940476D01*
X93083333Y-107130952D01*
X93083333Y-107273809D01*
X93035714Y-107464285D01*
X92988095Y-107559523D01*
X92892857Y-107654761D01*
X92750000Y-107702380D01*
X92511904Y-107702380D01*
X93416666Y-106702380D02*
X94035714Y-106702380D01*
X93702380Y-107083333D01*
X93845238Y-107083333D01*
X93940476Y-107130952D01*
X93988095Y-107178571D01*
X94035714Y-107273809D01*
X94035714Y-107511904D01*
X93988095Y-107607142D01*
X93940476Y-107654761D01*
X93845238Y-107702380D01*
X93559523Y-107702380D01*
X93464285Y-107654761D01*
X93416666Y-107607142D01*
%TO.C,D4*%
X133261904Y-107702380D02*
X133261904Y-106702380D01*
X133500000Y-106702380D01*
X133642857Y-106750000D01*
X133738095Y-106845238D01*
X133785714Y-106940476D01*
X133833333Y-107130952D01*
X133833333Y-107273809D01*
X133785714Y-107464285D01*
X133738095Y-107559523D01*
X133642857Y-107654761D01*
X133500000Y-107702380D01*
X133261904Y-107702380D01*
X134690476Y-107035714D02*
X134690476Y-107702380D01*
X134452380Y-106654761D02*
X134214285Y-107369047D01*
X134833333Y-107369047D01*
%TO.C,D5*%
X139261904Y-107702380D02*
X139261904Y-106702380D01*
X139500000Y-106702380D01*
X139642857Y-106750000D01*
X139738095Y-106845238D01*
X139785714Y-106940476D01*
X139833333Y-107130952D01*
X139833333Y-107273809D01*
X139785714Y-107464285D01*
X139738095Y-107559523D01*
X139642857Y-107654761D01*
X139500000Y-107702380D01*
X139261904Y-107702380D01*
X140738095Y-106702380D02*
X140261904Y-106702380D01*
X140214285Y-107178571D01*
X140261904Y-107130952D01*
X140357142Y-107083333D01*
X140595238Y-107083333D01*
X140690476Y-107130952D01*
X140738095Y-107178571D01*
X140785714Y-107273809D01*
X140785714Y-107511904D01*
X140738095Y-107607142D01*
X140690476Y-107654761D01*
X140595238Y-107702380D01*
X140357142Y-107702380D01*
X140261904Y-107654761D01*
X140214285Y-107607142D01*
%TO.C,F1*%
X94166666Y-92928571D02*
X93833333Y-92928571D01*
X93833333Y-93452380D02*
X93833333Y-92452380D01*
X94309523Y-92452380D01*
X95214285Y-93452380D02*
X94642857Y-93452380D01*
X94928571Y-93452380D02*
X94928571Y-92452380D01*
X94833333Y-92595238D01*
X94738095Y-92690476D01*
X94642857Y-92738095D01*
%TO.C,J2*%
X149352380Y-100333333D02*
X150066666Y-100333333D01*
X150209523Y-100380952D01*
X150304761Y-100476190D01*
X150352380Y-100619047D01*
X150352380Y-100714285D01*
X149447619Y-99904761D02*
X149400000Y-99857142D01*
X149352380Y-99761904D01*
X149352380Y-99523809D01*
X149400000Y-99428571D01*
X149447619Y-99380952D01*
X149542857Y-99333333D01*
X149638095Y-99333333D01*
X149780952Y-99380952D01*
X150352380Y-99952380D01*
X150352380Y-99333333D01*
%TO.C,J3*%
X102166666Y-93452380D02*
X102166666Y-94166666D01*
X102119047Y-94309523D01*
X102023809Y-94404761D01*
X101880952Y-94452380D01*
X101785714Y-94452380D01*
X102547619Y-93452380D02*
X103166666Y-93452380D01*
X102833333Y-93833333D01*
X102976190Y-93833333D01*
X103071428Y-93880952D01*
X103119047Y-93928571D01*
X103166666Y-94023809D01*
X103166666Y-94261904D01*
X103119047Y-94357142D01*
X103071428Y-94404761D01*
X102976190Y-94452380D01*
X102690476Y-94452380D01*
X102595238Y-94404761D01*
X102547619Y-94357142D01*
%TO.C,Q1*%
X125797619Y-94345238D02*
X125750000Y-94440476D01*
X125654761Y-94535714D01*
X125511904Y-94678571D01*
X125464285Y-94773809D01*
X125464285Y-94869047D01*
X125702380Y-94821428D02*
X125654761Y-94916666D01*
X125559523Y-95011904D01*
X125369047Y-95059523D01*
X125035714Y-95059523D01*
X124845238Y-95011904D01*
X124750000Y-94916666D01*
X124702380Y-94821428D01*
X124702380Y-94630952D01*
X124750000Y-94535714D01*
X124845238Y-94440476D01*
X125035714Y-94392857D01*
X125369047Y-94392857D01*
X125559523Y-94440476D01*
X125654761Y-94535714D01*
X125702380Y-94630952D01*
X125702380Y-94821428D01*
X125702380Y-93440476D02*
X125702380Y-94011904D01*
X125702380Y-93726190D02*
X124702380Y-93726190D01*
X124845238Y-93821428D01*
X124940476Y-93916666D01*
X124988095Y-94011904D01*
%TO.C,Q2*%
X125797619Y-102345238D02*
X125750000Y-102440476D01*
X125654761Y-102535714D01*
X125511904Y-102678571D01*
X125464285Y-102773809D01*
X125464285Y-102869047D01*
X125702380Y-102821428D02*
X125654761Y-102916666D01*
X125559523Y-103011904D01*
X125369047Y-103059523D01*
X125035714Y-103059523D01*
X124845238Y-103011904D01*
X124750000Y-102916666D01*
X124702380Y-102821428D01*
X124702380Y-102630952D01*
X124750000Y-102535714D01*
X124845238Y-102440476D01*
X125035714Y-102392857D01*
X125369047Y-102392857D01*
X125559523Y-102440476D01*
X125654761Y-102535714D01*
X125702380Y-102630952D01*
X125702380Y-102821428D01*
X124797619Y-102011904D02*
X124750000Y-101964285D01*
X124702380Y-101869047D01*
X124702380Y-101630952D01*
X124750000Y-101535714D01*
X124797619Y-101488095D01*
X124892857Y-101440476D01*
X124988095Y-101440476D01*
X125130952Y-101488095D01*
X125702380Y-102059523D01*
X125702380Y-101440476D01*
%TO.C,R1*%
X105952380Y-100666666D02*
X105476190Y-101000000D01*
X105952380Y-101238095D02*
X104952380Y-101238095D01*
X104952380Y-100857142D01*
X105000000Y-100761904D01*
X105047619Y-100714285D01*
X105142857Y-100666666D01*
X105285714Y-100666666D01*
X105380952Y-100714285D01*
X105428571Y-100761904D01*
X105476190Y-100857142D01*
X105476190Y-101238095D01*
X105952380Y-99714285D02*
X105952380Y-100285714D01*
X105952380Y-100000000D02*
X104952380Y-100000000D01*
X105095238Y-100095238D01*
X105190476Y-100190476D01*
X105238095Y-100285714D01*
%TO.C,R2*%
X105952380Y-96666666D02*
X105476190Y-97000000D01*
X105952380Y-97238095D02*
X104952380Y-97238095D01*
X104952380Y-96857142D01*
X105000000Y-96761904D01*
X105047619Y-96714285D01*
X105142857Y-96666666D01*
X105285714Y-96666666D01*
X105380952Y-96714285D01*
X105428571Y-96761904D01*
X105476190Y-96857142D01*
X105476190Y-97238095D01*
X105047619Y-96285714D02*
X105000000Y-96238095D01*
X104952380Y-96142857D01*
X104952380Y-95904761D01*
X105000000Y-95809523D01*
X105047619Y-95761904D01*
X105142857Y-95714285D01*
X105238095Y-95714285D01*
X105380952Y-95761904D01*
X105952380Y-96333333D01*
X105952380Y-95714285D01*
%TO.C,R3*%
X101583333Y-107702380D02*
X101250000Y-107226190D01*
X101011904Y-107702380D02*
X101011904Y-106702380D01*
X101392857Y-106702380D01*
X101488095Y-106750000D01*
X101535714Y-106797619D01*
X101583333Y-106892857D01*
X101583333Y-107035714D01*
X101535714Y-107130952D01*
X101488095Y-107178571D01*
X101392857Y-107226190D01*
X101011904Y-107226190D01*
X101916666Y-106702380D02*
X102535714Y-106702380D01*
X102202380Y-107083333D01*
X102345238Y-107083333D01*
X102440476Y-107130952D01*
X102488095Y-107178571D01*
X102535714Y-107273809D01*
X102535714Y-107511904D01*
X102488095Y-107607142D01*
X102440476Y-107654761D01*
X102345238Y-107702380D01*
X102059523Y-107702380D01*
X101964285Y-107654761D01*
X101916666Y-107607142D01*
%TO.C,R4*%
X121952380Y-110916666D02*
X121476190Y-111250000D01*
X121952380Y-111488095D02*
X120952380Y-111488095D01*
X120952380Y-111107142D01*
X121000000Y-111011904D01*
X121047619Y-110964285D01*
X121142857Y-110916666D01*
X121285714Y-110916666D01*
X121380952Y-110964285D01*
X121428571Y-111011904D01*
X121476190Y-111107142D01*
X121476190Y-111488095D01*
X121285714Y-110059523D02*
X121952380Y-110059523D01*
X120904761Y-110297619D02*
X121619047Y-110535714D01*
X121619047Y-109916666D01*
%TO.C,R5*%
X104833333Y-92452380D02*
X104500000Y-91976190D01*
X104261904Y-92452380D02*
X104261904Y-91452380D01*
X104642857Y-91452380D01*
X104738095Y-91500000D01*
X104785714Y-91547619D01*
X104833333Y-91642857D01*
X104833333Y-91785714D01*
X104785714Y-91880952D01*
X104738095Y-91928571D01*
X104642857Y-91976190D01*
X104261904Y-91976190D01*
X105738095Y-91452380D02*
X105261904Y-91452380D01*
X105214285Y-91928571D01*
X105261904Y-91880952D01*
X105357142Y-91833333D01*
X105595238Y-91833333D01*
X105690476Y-91880952D01*
X105738095Y-91928571D01*
X105785714Y-92023809D01*
X105785714Y-92261904D01*
X105738095Y-92357142D01*
X105690476Y-92404761D01*
X105595238Y-92452380D01*
X105357142Y-92452380D01*
X105261904Y-92404761D01*
X105214285Y-92357142D01*
%TO.C,R6*%
X121952380Y-108666666D02*
X121476190Y-109000000D01*
X121952380Y-109238095D02*
X120952380Y-109238095D01*
X120952380Y-108857142D01*
X121000000Y-108761904D01*
X121047619Y-108714285D01*
X121142857Y-108666666D01*
X121285714Y-108666666D01*
X121380952Y-108714285D01*
X121428571Y-108761904D01*
X121476190Y-108857142D01*
X121476190Y-109238095D01*
X120952380Y-107809523D02*
X120952380Y-108000000D01*
X121000000Y-108095238D01*
X121047619Y-108142857D01*
X121190476Y-108238095D01*
X121380952Y-108285714D01*
X121761904Y-108285714D01*
X121857142Y-108238095D01*
X121904761Y-108190476D01*
X121952380Y-108095238D01*
X121952380Y-107904761D01*
X121904761Y-107809523D01*
X121857142Y-107761904D01*
X121761904Y-107714285D01*
X121523809Y-107714285D01*
X121428571Y-107761904D01*
X121380952Y-107809523D01*
X121333333Y-107904761D01*
X121333333Y-108095238D01*
X121380952Y-108190476D01*
X121428571Y-108238095D01*
X121523809Y-108285714D01*
%TO.C,R7*%
X114833333Y-92452380D02*
X114500000Y-91976190D01*
X114261904Y-92452380D02*
X114261904Y-91452380D01*
X114642857Y-91452380D01*
X114738095Y-91500000D01*
X114785714Y-91547619D01*
X114833333Y-91642857D01*
X114833333Y-91785714D01*
X114785714Y-91880952D01*
X114738095Y-91928571D01*
X114642857Y-91976190D01*
X114261904Y-91976190D01*
X115166666Y-91452380D02*
X115833333Y-91452380D01*
X115404761Y-92452380D01*
%TO.C,R8*%
X123083333Y-94702380D02*
X122750000Y-94226190D01*
X122511904Y-94702380D02*
X122511904Y-93702380D01*
X122892857Y-93702380D01*
X122988095Y-93750000D01*
X123035714Y-93797619D01*
X123083333Y-93892857D01*
X123083333Y-94035714D01*
X123035714Y-94130952D01*
X122988095Y-94178571D01*
X122892857Y-94226190D01*
X122511904Y-94226190D01*
X123654761Y-94130952D02*
X123559523Y-94083333D01*
X123511904Y-94035714D01*
X123464285Y-93940476D01*
X123464285Y-93892857D01*
X123511904Y-93797619D01*
X123559523Y-93750000D01*
X123654761Y-93702380D01*
X123845238Y-93702380D01*
X123940476Y-93750000D01*
X123988095Y-93797619D01*
X124035714Y-93892857D01*
X124035714Y-93940476D01*
X123988095Y-94035714D01*
X123940476Y-94083333D01*
X123845238Y-94130952D01*
X123654761Y-94130952D01*
X123559523Y-94178571D01*
X123511904Y-94226190D01*
X123464285Y-94321428D01*
X123464285Y-94511904D01*
X123511904Y-94607142D01*
X123559523Y-94654761D01*
X123654761Y-94702380D01*
X123845238Y-94702380D01*
X123940476Y-94654761D01*
X123988095Y-94607142D01*
X124035714Y-94511904D01*
X124035714Y-94321428D01*
X123988095Y-94226190D01*
X123940476Y-94178571D01*
X123845238Y-94130952D01*
%TO.C,R9*%
X123083333Y-102702380D02*
X122750000Y-102226190D01*
X122511904Y-102702380D02*
X122511904Y-101702380D01*
X122892857Y-101702380D01*
X122988095Y-101750000D01*
X123035714Y-101797619D01*
X123083333Y-101892857D01*
X123083333Y-102035714D01*
X123035714Y-102130952D01*
X122988095Y-102178571D01*
X122892857Y-102226190D01*
X122511904Y-102226190D01*
X123559523Y-102702380D02*
X123750000Y-102702380D01*
X123845238Y-102654761D01*
X123892857Y-102607142D01*
X123988095Y-102464285D01*
X124035714Y-102273809D01*
X124035714Y-101892857D01*
X123988095Y-101797619D01*
X123940476Y-101750000D01*
X123845238Y-101702380D01*
X123654761Y-101702380D01*
X123559523Y-101750000D01*
X123511904Y-101797619D01*
X123464285Y-101892857D01*
X123464285Y-102130952D01*
X123511904Y-102226190D01*
X123559523Y-102273809D01*
X123654761Y-102321428D01*
X123845238Y-102321428D01*
X123940476Y-102273809D01*
X123988095Y-102226190D01*
X124035714Y-102130952D01*
%TO.C,R10*%
X129107142Y-94702380D02*
X128773809Y-94226190D01*
X128535714Y-94702380D02*
X128535714Y-93702380D01*
X128916666Y-93702380D01*
X129011904Y-93750000D01*
X129059523Y-93797619D01*
X129107142Y-93892857D01*
X129107142Y-94035714D01*
X129059523Y-94130952D01*
X129011904Y-94178571D01*
X128916666Y-94226190D01*
X128535714Y-94226190D01*
X130059523Y-94702380D02*
X129488095Y-94702380D01*
X129773809Y-94702380D02*
X129773809Y-93702380D01*
X129678571Y-93845238D01*
X129583333Y-93940476D01*
X129488095Y-93988095D01*
X130678571Y-93702380D02*
X130773809Y-93702380D01*
X130869047Y-93750000D01*
X130916666Y-93797619D01*
X130964285Y-93892857D01*
X131011904Y-94083333D01*
X131011904Y-94321428D01*
X130964285Y-94511904D01*
X130916666Y-94607142D01*
X130869047Y-94654761D01*
X130773809Y-94702380D01*
X130678571Y-94702380D01*
X130583333Y-94654761D01*
X130535714Y-94607142D01*
X130488095Y-94511904D01*
X130440476Y-94321428D01*
X130440476Y-94083333D01*
X130488095Y-93892857D01*
X130535714Y-93797619D01*
X130583333Y-93750000D01*
X130678571Y-93702380D01*
%TO.C,R11*%
X129107142Y-102702380D02*
X128773809Y-102226190D01*
X128535714Y-102702380D02*
X128535714Y-101702380D01*
X128916666Y-101702380D01*
X129011904Y-101750000D01*
X129059523Y-101797619D01*
X129107142Y-101892857D01*
X129107142Y-102035714D01*
X129059523Y-102130952D01*
X129011904Y-102178571D01*
X128916666Y-102226190D01*
X128535714Y-102226190D01*
X130059523Y-102702380D02*
X129488095Y-102702380D01*
X129773809Y-102702380D02*
X129773809Y-101702380D01*
X129678571Y-101845238D01*
X129583333Y-101940476D01*
X129488095Y-101988095D01*
X131011904Y-102702380D02*
X130440476Y-102702380D01*
X130726190Y-102702380D02*
X130726190Y-101702380D01*
X130630952Y-101845238D01*
X130535714Y-101940476D01*
X130440476Y-101988095D01*
%TO.C,R12*%
X124357142Y-92452380D02*
X124023809Y-91976190D01*
X123785714Y-92452380D02*
X123785714Y-91452380D01*
X124166666Y-91452380D01*
X124261904Y-91500000D01*
X124309523Y-91547619D01*
X124357142Y-91642857D01*
X124357142Y-91785714D01*
X124309523Y-91880952D01*
X124261904Y-91928571D01*
X124166666Y-91976190D01*
X123785714Y-91976190D01*
X125309523Y-92452380D02*
X124738095Y-92452380D01*
X125023809Y-92452380D02*
X125023809Y-91452380D01*
X124928571Y-91595238D01*
X124833333Y-91690476D01*
X124738095Y-91738095D01*
X125690476Y-91547619D02*
X125738095Y-91500000D01*
X125833333Y-91452380D01*
X126071428Y-91452380D01*
X126166666Y-91500000D01*
X126214285Y-91547619D01*
X126261904Y-91642857D01*
X126261904Y-91738095D01*
X126214285Y-91880952D01*
X125642857Y-92452380D01*
X126261904Y-92452380D01*
%TO.C,R13*%
X135857142Y-93702380D02*
X135523809Y-93226190D01*
X135285714Y-93702380D02*
X135285714Y-92702380D01*
X135666666Y-92702380D01*
X135761904Y-92750000D01*
X135809523Y-92797619D01*
X135857142Y-92892857D01*
X135857142Y-93035714D01*
X135809523Y-93130952D01*
X135761904Y-93178571D01*
X135666666Y-93226190D01*
X135285714Y-93226190D01*
X136809523Y-93702380D02*
X136238095Y-93702380D01*
X136523809Y-93702380D02*
X136523809Y-92702380D01*
X136428571Y-92845238D01*
X136333333Y-92940476D01*
X136238095Y-92988095D01*
X137142857Y-92702380D02*
X137761904Y-92702380D01*
X137428571Y-93083333D01*
X137571428Y-93083333D01*
X137666666Y-93130952D01*
X137714285Y-93178571D01*
X137761904Y-93273809D01*
X137761904Y-93511904D01*
X137714285Y-93607142D01*
X137666666Y-93654761D01*
X137571428Y-93702380D01*
X137285714Y-93702380D01*
X137190476Y-93654761D01*
X137142857Y-93607142D01*
%TO.C,R14*%
X132607142Y-104452380D02*
X132273809Y-103976190D01*
X132035714Y-104452380D02*
X132035714Y-103452380D01*
X132416666Y-103452380D01*
X132511904Y-103500000D01*
X132559523Y-103547619D01*
X132607142Y-103642857D01*
X132607142Y-103785714D01*
X132559523Y-103880952D01*
X132511904Y-103928571D01*
X132416666Y-103976190D01*
X132035714Y-103976190D01*
X133559523Y-104452380D02*
X132988095Y-104452380D01*
X133273809Y-104452380D02*
X133273809Y-103452380D01*
X133178571Y-103595238D01*
X133083333Y-103690476D01*
X132988095Y-103738095D01*
X134416666Y-103785714D02*
X134416666Y-104452380D01*
X134178571Y-103404761D02*
X133940476Y-104119047D01*
X134559523Y-104119047D01*
%TO.C,R15*%
X95357142Y-107702380D02*
X95023809Y-107226190D01*
X94785714Y-107702380D02*
X94785714Y-106702380D01*
X95166666Y-106702380D01*
X95261904Y-106750000D01*
X95309523Y-106797619D01*
X95357142Y-106892857D01*
X95357142Y-107035714D01*
X95309523Y-107130952D01*
X95261904Y-107178571D01*
X95166666Y-107226190D01*
X94785714Y-107226190D01*
X96309523Y-107702380D02*
X95738095Y-107702380D01*
X96023809Y-107702380D02*
X96023809Y-106702380D01*
X95928571Y-106845238D01*
X95833333Y-106940476D01*
X95738095Y-106988095D01*
X97214285Y-106702380D02*
X96738095Y-106702380D01*
X96690476Y-107178571D01*
X96738095Y-107130952D01*
X96833333Y-107083333D01*
X97071428Y-107083333D01*
X97166666Y-107130952D01*
X97214285Y-107178571D01*
X97261904Y-107273809D01*
X97261904Y-107511904D01*
X97214285Y-107607142D01*
X97166666Y-107654761D01*
X97071428Y-107702380D01*
X96833333Y-107702380D01*
X96738095Y-107654761D01*
X96690476Y-107607142D01*
%TO.C,R16*%
X130357142Y-107702380D02*
X130023809Y-107226190D01*
X129785714Y-107702380D02*
X129785714Y-106702380D01*
X130166666Y-106702380D01*
X130261904Y-106750000D01*
X130309523Y-106797619D01*
X130357142Y-106892857D01*
X130357142Y-107035714D01*
X130309523Y-107130952D01*
X130261904Y-107178571D01*
X130166666Y-107226190D01*
X129785714Y-107226190D01*
X131309523Y-107702380D02*
X130738095Y-107702380D01*
X131023809Y-107702380D02*
X131023809Y-106702380D01*
X130928571Y-106845238D01*
X130833333Y-106940476D01*
X130738095Y-106988095D01*
X132166666Y-106702380D02*
X131976190Y-106702380D01*
X131880952Y-106750000D01*
X131833333Y-106797619D01*
X131738095Y-106940476D01*
X131690476Y-107130952D01*
X131690476Y-107511904D01*
X131738095Y-107607142D01*
X131785714Y-107654761D01*
X131880952Y-107702380D01*
X132071428Y-107702380D01*
X132166666Y-107654761D01*
X132214285Y-107607142D01*
X132261904Y-107511904D01*
X132261904Y-107273809D01*
X132214285Y-107178571D01*
X132166666Y-107130952D01*
X132071428Y-107083333D01*
X131880952Y-107083333D01*
X131785714Y-107130952D01*
X131738095Y-107178571D01*
X131690476Y-107273809D01*
%TO.C,R17*%
X136357142Y-107702380D02*
X136023809Y-107226190D01*
X135785714Y-107702380D02*
X135785714Y-106702380D01*
X136166666Y-106702380D01*
X136261904Y-106750000D01*
X136309523Y-106797619D01*
X136357142Y-106892857D01*
X136357142Y-107035714D01*
X136309523Y-107130952D01*
X136261904Y-107178571D01*
X136166666Y-107226190D01*
X135785714Y-107226190D01*
X137309523Y-107702380D02*
X136738095Y-107702380D01*
X137023809Y-107702380D02*
X137023809Y-106702380D01*
X136928571Y-106845238D01*
X136833333Y-106940476D01*
X136738095Y-106988095D01*
X137642857Y-106702380D02*
X138309523Y-106702380D01*
X137880952Y-107702380D01*
%TO.C,SW1*%
X104666666Y-107904761D02*
X104809523Y-107952380D01*
X105047619Y-107952380D01*
X105142857Y-107904761D01*
X105190476Y-107857142D01*
X105238095Y-107761904D01*
X105238095Y-107666666D01*
X105190476Y-107571428D01*
X105142857Y-107523809D01*
X105047619Y-107476190D01*
X104857142Y-107428571D01*
X104761904Y-107380952D01*
X104714285Y-107333333D01*
X104666666Y-107238095D01*
X104666666Y-107142857D01*
X104714285Y-107047619D01*
X104761904Y-107000000D01*
X104857142Y-106952380D01*
X105095238Y-106952380D01*
X105238095Y-107000000D01*
X105571428Y-106952380D02*
X105809523Y-107952380D01*
X106000000Y-107238095D01*
X106190476Y-107952380D01*
X106428571Y-106952380D01*
X107333333Y-107952380D02*
X106761904Y-107952380D01*
X107047619Y-107952380D02*
X107047619Y-106952380D01*
X106952380Y-107095238D01*
X106857142Y-107190476D01*
X106761904Y-107238095D01*
%TO.C,U1*%
X98238095Y-107452380D02*
X98238095Y-108261904D01*
X98285714Y-108357142D01*
X98333333Y-108404761D01*
X98428571Y-108452380D01*
X98619047Y-108452380D01*
X98714285Y-108404761D01*
X98761904Y-108357142D01*
X98809523Y-108261904D01*
X98809523Y-107452380D01*
X99809523Y-108452380D02*
X99238095Y-108452380D01*
X99523809Y-108452380D02*
X99523809Y-107452380D01*
X99428571Y-107595238D01*
X99333333Y-107690476D01*
X99238095Y-107738095D01*
%TO.C,Y1*%
X112523809Y-107226190D02*
X112523809Y-107702380D01*
X112190476Y-106702380D02*
X112523809Y-107226190D01*
X112857142Y-106702380D01*
X113714285Y-107702380D02*
X113142857Y-107702380D01*
X113428571Y-107702380D02*
X113428571Y-106702380D01*
X113333333Y-106845238D01*
X113238095Y-106940476D01*
X113142857Y-106988095D01*
%TO.C,U2*%
X109825000Y-94825000D02*
X109825000Y-95400000D01*
X120175000Y-94825000D02*
X120175000Y-95500000D01*
X120175000Y-105175000D02*
X120175000Y-104500000D01*
X109825000Y-105175000D02*
X109825000Y-104500000D01*
X109825000Y-94825000D02*
X110500000Y-94825000D01*
X109825000Y-105175000D02*
X110500000Y-105175000D01*
X120175000Y-105175000D02*
X119500000Y-105175000D01*
X120175000Y-94825000D02*
X119500000Y-94825000D01*
X109825000Y-95400000D02*
X108550000Y-95400000D01*
%TO.C,J1*%
X96900000Y-101800000D02*
X96900000Y-102525000D01*
X96900000Y-98200000D02*
X96900000Y-97475000D01*
X97325000Y-98200000D02*
X96900000Y-98200000D01*
X97325000Y-98925000D02*
X97325000Y-98200000D01*
X93750000Y-104150000D02*
X95150000Y-104150000D01*
X91200000Y-104150000D02*
X91350000Y-104150000D01*
X91200000Y-103850000D02*
X91200000Y-104150000D01*
X90750000Y-103850000D02*
X91200000Y-103850000D01*
X91200000Y-96150000D02*
X90750000Y-96150000D01*
X91200000Y-95850000D02*
X91200000Y-96150000D01*
X91350000Y-95850000D02*
X91200000Y-95850000D01*
X95150000Y-95850000D02*
X93750000Y-95850000D01*
D11*
%TO.C,C1*%
X119985000Y-110261252D02*
X119985000Y-109738748D01*
X118515000Y-110261252D02*
X118515000Y-109738748D01*
%TO.C,C2*%
X110015000Y-109738748D02*
X110015000Y-110261252D01*
X111485000Y-109738748D02*
X111485000Y-110261252D01*
%TO.C,C3*%
X107735000Y-104238748D02*
X107735000Y-104761252D01*
X106265000Y-104238748D02*
X106265000Y-104761252D01*
%TO.C,C4*%
X98738748Y-88765000D02*
X99261252Y-88765000D01*
X98738748Y-90235000D02*
X99261252Y-90235000D01*
%TO.C,C5*%
X126765000Y-110011252D02*
X126765000Y-109488748D01*
X128235000Y-110011252D02*
X128235000Y-109488748D01*
%TO.C,C6*%
X98738748Y-92485000D02*
X99261252Y-92485000D01*
X98738748Y-91015000D02*
X99261252Y-91015000D01*
%TO.C,D1*%
X139000000Y-94040000D02*
X136140000Y-94040000D01*
X136140000Y-94040000D02*
X136140000Y-95960000D01*
X136140000Y-95960000D02*
X139000000Y-95960000D01*
%TO.C,D2*%
X136750000Y-106460000D02*
X139610000Y-106460000D01*
X139610000Y-106460000D02*
X139610000Y-104540000D01*
X139610000Y-104540000D02*
X136750000Y-104540000D01*
%TO.C,D3*%
X92290000Y-107890000D02*
X92290000Y-110750000D01*
X94210000Y-107890000D02*
X92290000Y-107890000D01*
X94210000Y-110750000D02*
X94210000Y-107890000D01*
%TO.C,D4*%
X133040000Y-108725000D02*
X133040000Y-111585000D01*
X133040000Y-111585000D02*
X134960000Y-111585000D01*
X134960000Y-111585000D02*
X134960000Y-108725000D01*
%TO.C,D5*%
X140960000Y-111610000D02*
X140960000Y-108750000D01*
X139040000Y-111610000D02*
X140960000Y-111610000D01*
X139040000Y-108750000D02*
X139040000Y-111610000D01*
%TO.C,F1*%
X95210000Y-90238748D02*
X95210000Y-90761252D01*
X93790000Y-90238748D02*
X93790000Y-90761252D01*
%TO.C,J2*%
X144900000Y-96900000D02*
X146100000Y-96900000D01*
X146100000Y-96900000D02*
X146100000Y-97400000D01*
X146100000Y-97400000D02*
X148600000Y-97400000D01*
X148600000Y-97400000D02*
X148600000Y-102600000D01*
X148600000Y-102600000D02*
X146100000Y-102600000D01*
X146100000Y-102600000D02*
X146100000Y-103100000D01*
X146100000Y-103100000D02*
X142900000Y-103100000D01*
X140300000Y-103100000D02*
X131400000Y-103100000D01*
X131400000Y-103100000D02*
X131400000Y-96900000D01*
X131400000Y-96900000D02*
X132600000Y-96900000D01*
X135800000Y-96900000D02*
X142300000Y-96900000D01*
X144900000Y-96900000D02*
X144900000Y-94900000D01*
X142300000Y-96900000D02*
X142300000Y-94900000D01*
%TO.C,J3*%
X103830000Y-105240000D02*
X101170000Y-105240000D01*
X101170000Y-105240000D02*
X101170000Y-102030000D01*
X101170000Y-100510000D02*
X101170000Y-96950000D01*
X101170000Y-95430000D02*
X101170000Y-94760000D01*
X103830000Y-94760000D02*
X101170000Y-94760000D01*
X103830000Y-105240000D02*
X103830000Y-104570000D01*
X103830000Y-103050000D02*
X103830000Y-99490000D01*
X103830000Y-97970000D02*
X103830000Y-94760000D01*
X105040000Y-104570000D02*
X103830000Y-104570000D01*
%TO.C,Q1*%
X128080000Y-95240000D02*
X127150000Y-95240000D01*
X124920000Y-95240000D02*
X125850000Y-95240000D01*
X124920000Y-95240000D02*
X124920000Y-98400000D01*
X128080000Y-95240000D02*
X128080000Y-96700000D01*
%TO.C,Q2*%
X128080000Y-103240000D02*
X128080000Y-104700000D01*
X124920000Y-103240000D02*
X124920000Y-106400000D01*
X124920000Y-103240000D02*
X125850000Y-103240000D01*
X128080000Y-103240000D02*
X127150000Y-103240000D01*
%TO.C,R1*%
X107735000Y-100272936D02*
X107735000Y-100727064D01*
X106265000Y-100272936D02*
X106265000Y-100727064D01*
%TO.C,R2*%
X106265000Y-96272936D02*
X106265000Y-96727064D01*
X107735000Y-96272936D02*
X107735000Y-96727064D01*
%TO.C,R3*%
X102485000Y-109977064D02*
X102485000Y-109522936D01*
X101015000Y-109977064D02*
X101015000Y-109522936D01*
%TO.C,R4*%
X123772936Y-110015000D02*
X124227064Y-110015000D01*
X123772936Y-111485000D02*
X124227064Y-111485000D01*
%TO.C,R5*%
X105735000Y-89727064D02*
X105735000Y-89272936D01*
X104265000Y-89727064D02*
X104265000Y-89272936D01*
%TO.C,R6*%
X123772936Y-107765000D02*
X124227064Y-107765000D01*
X123772936Y-109235000D02*
X124227064Y-109235000D01*
%TO.C,R7*%
X114265000Y-89727064D02*
X114265000Y-89272936D01*
X115735000Y-89727064D02*
X115735000Y-89272936D01*
%TO.C,R8*%
X123985000Y-96977064D02*
X123985000Y-96522936D01*
X122515000Y-96977064D02*
X122515000Y-96522936D01*
%TO.C,R9*%
X122515000Y-104977064D02*
X122515000Y-104522936D01*
X123985000Y-104977064D02*
X123985000Y-104522936D01*
%TO.C,R10*%
X130485000Y-96522936D02*
X130485000Y-96977064D01*
X129015000Y-96522936D02*
X129015000Y-96977064D01*
%TO.C,R11*%
X129015000Y-104977064D02*
X129015000Y-104522936D01*
X130485000Y-104977064D02*
X130485000Y-104522936D01*
%TO.C,R12*%
X125735000Y-89727064D02*
X125735000Y-89272936D01*
X124265000Y-89727064D02*
X124265000Y-89272936D01*
%TO.C,R13*%
X132772936Y-92515000D02*
X133227064Y-92515000D01*
X132772936Y-93985000D02*
X133227064Y-93985000D01*
%TO.C,R14*%
X133022936Y-106235000D02*
X133477064Y-106235000D01*
X133022936Y-104765000D02*
X133477064Y-104765000D01*
%TO.C,R15*%
X95265000Y-109522936D02*
X95265000Y-109977064D01*
X96735000Y-109522936D02*
X96735000Y-109977064D01*
%TO.C,R16*%
X131735000Y-109522936D02*
X131735000Y-109977064D01*
X130265000Y-109522936D02*
X130265000Y-109977064D01*
%TO.C,R17*%
X136265000Y-109522936D02*
X136265000Y-109977064D01*
X137735000Y-109522936D02*
X137735000Y-109977064D01*
%TO.C,SW1*%
X103800000Y-109950000D02*
X103800000Y-110050000D01*
X108200000Y-108450000D02*
X103800000Y-108450000D01*
X103800000Y-111550000D02*
X108200000Y-111550000D01*
X108200000Y-109950000D02*
X108200000Y-110050000D01*
%TO.C,SW2*%
X112350000Y-87650000D02*
X111425000Y-87650000D01*
X112350000Y-91350000D02*
X107650000Y-91350000D01*
X107550000Y-89775000D02*
X107550000Y-89225000D01*
X112450000Y-89775000D02*
X112450000Y-89225000D01*
X108575000Y-87650000D02*
X107650000Y-87650000D01*
%TO.C,SW3*%
X118575000Y-87650000D02*
X117650000Y-87650000D01*
X122450000Y-89775000D02*
X122450000Y-89225000D01*
X117550000Y-89775000D02*
X117550000Y-89225000D01*
X122350000Y-91350000D02*
X117650000Y-91350000D01*
X122350000Y-87650000D02*
X121425000Y-87650000D01*
%TO.C,SW4*%
X132350000Y-87650000D02*
X131425000Y-87650000D01*
X132350000Y-91350000D02*
X127650000Y-91350000D01*
X127550000Y-89775000D02*
X127550000Y-89225000D01*
X132450000Y-89775000D02*
X132450000Y-89225000D01*
X128575000Y-87650000D02*
X127650000Y-87650000D01*
%TO.C,U1*%
X98350000Y-108850000D02*
X99650000Y-108850000D01*
X99900000Y-110650000D02*
X98350000Y-110650000D01*
%TO.C,Y1*%
X112300000Y-107900000D02*
X112300000Y-112300000D01*
X112300000Y-112300000D02*
X117700000Y-112300000D01*
%TD*%
M02*
